<svg version="1.1" xmlns="http://www.w3.org/2000/svg" viewBox="0 0 379.81457292737963 311.10959398683315" width="379.81457292737963" height="311.10959398683315">
  <!-- svg-source:excalidraw -->
  
  <defs>
    <style>
      @font-face {
        font-family: "Virgil";
        src: url("https://excalidraw.com/FG_Virgil.woff2");
      }
      @font-face {
        font-family: "Cascadia";
        src: url("https://excalidraw.com/Cascadia.woff2");
      }
    </style>
  </defs>
  <g><g transform="translate(51.211519024259076 86.2469556690395) rotate(0 137.05246194070807 107.3076473601768)"><path d="M1.1096546418964863 0.9392189852893351 C1.2887654788792133 26.406764311840128, 0.37584763442476576 121.3703279845416, 1.0396389015018939 151.65941439792508 C1.7034301685790219 181.94850081130855, 1.852141810208559 174.5956539106865, 5.0924022443592545 182.6737374655902 C8.33266267850995 190.75182102049388, 13.755756084869308 195.2561393929025, 20.48120150640607 200.1279157273472 C27.20664692794283 204.99969206179188, 36.912968127677836 209.9219911369185, 45.44507477357983 211.9043954722584 C53.97718141948183 213.88679980759827, 44.84667019123832 211.5293012651305, 71.67384138181805 212.02234173938638 C98.50101257239778 212.51538221364225, 178.81803577815492 215.13421398326759, 206.40810191705822 214.86263831779365 C233.99816805596151 214.59106265231972, 228.81401964103182 213.13375891372567, 237.21423821523786 210.39288774654275 C245.6144567894439 207.65201657935984, 251.47652444913984 204.04918442890056, 256.80941336229444 198.41741131469612 C262.142302275449 192.7856382004917, 266.46490078841646 185.43429098452128, 269.21157169416546 176.6022490613162 C271.95824259991446 167.77020713811112, 273.0976138281325 174.87543111965053, 273.28943879678843 145.42515977546566 C273.48126376544434 115.97488843128079, 270.79390998755895 24.170676123350848, 270.3625215061009 -0.09937900379300113 M0.23308459955267624 0.38670500722713763 C0.34820733713917457 25.584704378417996, -0.5535762264548489 119.69113946464839, 0.6374038611631843 149.75178220805705 C1.8283839487812175 179.81242495146572, 4.043098044870421 172.21405727343935, 7.378965125260875 180.75056146767915 C10.714832205651328 189.28706566191894, 14.514479528643815 195.76549383210332, 20.652606343505905 200.97080737349583 C26.790733158367996 206.17612091488834, 35.54110279110881 209.80032961345904, 44.207726014433426 211.9824427160342 C52.87434923775804 214.16455581860936, 46.05327127871725 213.71039496011727, 72.6523456834536 214.0634859889467 C99.25142008818996 214.41657701777612, 176.46178648479594 214.84457425114707, 203.8021724428516 214.1009888890107 C231.14255840090726 213.35740352687432, 228.1445104495467 211.86557673540904, 236.69466143178752 209.6019738161285 C245.24481241402836 207.33837089684795, 249.62459492671303 206.00920736488894, 255.1030783362966 200.51937137332752 C260.58156174588015 195.0295353817661, 266.4120438835801 185.6986376280306, 269.565561889289 176.6629578667599 C272.71907989499783 167.6272781054892, 273.5944426676414 175.7903430497366, 274.0241863705497 146.3052928057033 C274.4539300734581 116.82024256166996, 272.70768717326536 24.26920735803432, 272.1440241067391 -0.24734359744004886" stroke="#000000" stroke-width="1" fill="none"></path></g></g><g><g transform="translate(110.08651902425885 111.7469556690395) rotate(0 78.75674490854146 21.451381398537606)"><path d="M-0.038633597642183215 -0.08239178583025941 C22.867631923407313 -0.10609187210599591, 109.55963747029502 -1.0063380551834902, 137.6661061875522 0.011779332906007633 C165.77257490480937 1.0298967209955054, 163.40573823774855 0.29047435993949655, 168.6001787059009 6.026312542706728 C173.79461917405325 11.76215072547396, 173.10449530606468 28.176252381751944, 168.8327489964664 34.4268084295094 C164.5610026868681 40.677364477266856, 168.2787195476393 42.004617429524615, 142.9697008483112 43.52964882925147 C117.66068214898308 45.05468022897833, 42.77127391820153 45.52997217252845, 16.97863680049777 43.57699682787055 C-8.814000317205988 41.62402148321265, -6.879926543186108 37.31583386336757, -11.786121857911349 31.811796761304084 C-16.69231717263659 26.307759659240595, -14.56691471412778 15.976501004646213, -12.45853508785367 10.552774215489626 C-10.350155461579561 5.129047426333039, -1.3033380555609864 0.9187200156350932, 0.8641558997333048 -0.730563973635435 M-1.5180549657437952 -1.171251418730244 C21.18097866504453 -1.5255263020998489, 108.35232827324731 -2.478588745932405, 136.54276647238993 -1.5796112660970538 C164.73320467153255 -0.6806337862617026, 162.1726450968689 -1.8685290414498503, 167.6245742291119 4.222613460281863 C173.07650336135487 10.313755962013577, 173.61130684096676 28.435853640098756, 169.2543412658479 34.96724374429323 C164.89737569072904 41.4986338484877, 167.15106120655003 42.09883470968339, 141.48278077839873 43.4109540854487 C115.81450035024744 44.723073461214014, 40.66360446233613 44.44766809389921, 15.244658696940169 42.839959998885114 C-10.174287068455792 41.23225190387102, -6.29010605524915 39.11060706829956, -11.030893813977018 33.76470551536413 C-15.771681572704885 28.418803962428694, -14.979539442071692 16.198258424062892, -13.200067855427042 10.764550681272521 C-11.420596268782392 5.330842938482149, -2.820945392955715 2.864936634659146, -0.354064294109121 1.1624590586218981" stroke="#000000" stroke-width="1" fill="none"></path></g></g><g><g transform="translate(52.08651902425885 87.7469556690395) rotate(0 137.82076743943097 -37.81543499585986)"><path d="M-0.9701843149960041 -0.5670691721141338 C24.136721312254664 -0.10886948828895876, 100.6470549536248 2.3396664229532087, 150.50399287864565 1.9402451045811178 C200.3609308036665 1.540823786209027, 270.48790237431723 4.239677334576845, 298.1714432351291 -2.963597082346678 C325.854984095941 -10.1668714992702, 315.7687840255598 -29.74296886846423, 316.60523804351686 -41.27940139696002 C317.44169206147393 -52.815833925455806, 315.8997503630817 -66.37105701689919, 303.1901673428714 -72.1821922533214 C290.4805843226611 -77.99332748974362, 286.002570592612 -75.27325735812386, 240.34773992225527 -76.14621281549334 C194.69290925189853 -77.01916827286283, 74.46906600321333 -78.39829222286741, 29.261183320730925 -77.41992499753833 C-15.946699361751474 -76.44155777220925, -19.013890032718578 -76.95243602519234, -30.89955617263913 -70.27600946351886 C-42.78522231255968 -63.59958290184538, -42.15603872612119 -48.17868192916115, -42.05281351879239 -37.361365627497435 C-41.94958831146359 -26.54404932583372, -37.155402537932 -11.569241848836343, -30.280204928666354 -5.3721116535365585 C-23.40500731940071 0.8250185417632263, -5.906618512421846 -1.1822131149470807, -0.8016278631985188 -0.1785844556987286 M0.7213301902916283 1.7496155671868472 C26.205089983036736 1.9552378332211324, 103.2306399353252 1.4403180832260598, 152.6930436763074 0.31129903570748874 C202.15544741728962 -0.8177200118110823, 270.2141954051362 1.7805679948721087, 297.49575263618493 -5.02449871792458 C324.77730986723367 -11.829565430721267, 315.6618471381969 -29.353458766480912, 316.3823870625999 -40.51910124107264 C317.1029269870029 -51.68474371566437, 314.7918832000997 -66.41688132111292, 301.8189921826031 -72.01835356547497 C288.8461011651065 -77.61982580983701, 283.7975818908121 -73.53288194034559, 238.54504095762036 -74.12793470724486 C193.2925000244286 -74.72298747414413, 74.85085757800998 -76.23718521320883, 30.303746583452448 -75.58867016687059 C-14.243364411105087 -74.94015512053234, -16.917426802922662 -76.9558705464409, -28.73762500972487 -70.23684442921541 C-40.557823216527076 -63.51781831198992, -40.46381391556002 -46.064851331155126, -40.617442657360805 -35.27451346351765 C-40.77107139916159 -24.484175595880174, -36.27860618910131 -11.492687442839767, -29.65939746052958 -5.494817223390564 C-23.040188731957848 0.5030529960586376, -5.698886651704088 -0.2975644080247728, -0.9021902859304101 0.7127078531775624" stroke="#000000" stroke-width="1" fill="none"></path></g></g></svg>