<?xml version="1.0" encoding="iso-8859-1"?>
<!-- Generator: Adobe Illustrator 16.0.0, SVG Export Plug-In . SVG Version: 6.00 Build 0)  -->
<!DOCTYPE svg PUBLIC "-//W3C//DTD SVG 1.1//EN" "http://www.w3.org/Graphics/SVG/1.1/DTD/svg11.dtd">
<svg version="1.1" id="Capa_1" xmlns="http://www.w3.org/2000/svg" xmlns:xlink="http://www.w3.org/1999/xlink" x="0px" y="0px"
	 width="445.307px" height="445.307px" viewBox="0 0 445.307 445.307" style="enable-background:new 0 0 445.307 445.307;"
	 xml:space="preserve">
<g>
	<g>
		<path d="M440.271,77.067c-0.056-1.523-0.106-3.042-0.157-4.565c-0.609-18.057-2.696-34.37-14.619-48.825
			C414.562,10.416,396.118,6.09,379.903,4.592c-0.944-0.089-1.858,0.018-2.767,0.109c-0.508-0.021-0.96-0.125-1.498-0.109
			c-68.324,1.831-136.608,0.089-204.902-1.96c-0.579-0.046-1.102-0.17-1.706-0.17H79.567c-0.343,0-0.635,0.081-0.972,0.091
			c-0.401-0.015-0.749-0.102-1.161-0.091C43.064,3.018,14.033,21.679,7.831,57.007c-0.302,1.727-0.363,3.442-0.317,5.139
			c-0.12,0.696-0.312,1.346-0.368,2.09c-3.413,44.75-5.606,89.588-6.543,134.452c-0.478,22.904-0.625,45.815-0.442,68.723
			c0.188,23.78-2.734,48.602,10.141,70.021c11.397,18.966,30.476,25.217,51.097,28.99c0.957,0.178,1.978,0.243,3.037,0.264
			c0.079,0,0.147,0.016,0.427,0.005c0.65,0,1.244,0.076,1.93,0.016c43.787-3.991,87.638-5.962,131.593-6.292
			c3.047,1.803,6.124,3.555,9.234,5.24c0.267,0.178,0.452,0.392,0.734,0.564c45.344,27.721,92.696,51.582,140.582,74.549
			c9.851,4.723,19.134,0.823,24.496-5.9c3.869-3.514,5.91-8.652,4.469-14.97c-0.239-1.646-0.722-3.239-1.509-4.758l-21.916-56.949
			h16.909c0.98,0,1.854-0.158,2.758-0.274c15.635,1.746,31.732,0.914,44.955-8.785c25.669-18.829,25.375-54.659,25.959-83.081
			c0.838-40.654-0.544-81.374-2.169-121.99C441.992,121.73,441.043,99.4,440.271,77.067z M406.589,296.888
			c-0.96,7.754-3.347,15-8.795,20.576c-9.969,7.221-25.791,2.666-37.146,2.387c-9.785-0.244-20.282,0-29.737,0
			c-2.6,0-4.869,0.502-6.921,1.264c-11.039,0.985-20.886,9.842-15.823,23.004c5.378,13.979,10.756,27.959,16.128,41.943
			c-30.147-15.132-59.885-31.016-88.859-48.357c-1.041-0.944-2.179-1.797-3.483-2.457c-4.357-2.199-8.587-4.621-12.794-7.094
			c-3.085-3.672-7.655-6.19-13.921-6.17c-46.258,0.162-92.386,2.184-138.451,6.388c-0.292,0.025-0.531,0.122-0.815,0.157
			c-0.455-0.035-0.848-0.146-1.318-0.157c-6.134-0.116-10.831-1.203-15.521-3.976c-3.524-2.088-6.853-6.901-8.589-11.766
			c-0.473-1.32-1.066-2.57-1.742-3.758c0.203-1.234,0.328-2.529,0.297-3.926c-1.904-80.3,0.264-160.466,6.378-240.556
			c3.854-16.836,13.733-23.275,31.958-23.57c0.351-0.005,0.645-0.094,0.985-0.114c0.394,0.021,0.736,0.114,1.143,0.114h85.201
			c40.692,0.046,81.235,3.38,121.895,3.677c20.646,0.15,41.192-1.338,61.804-2.148c13.604-0.536,32.377-2.641,44.27,5.741
			c14.081,9.92,10.689,32.177,11.172,47.116c0.731,22.525,1.508,45.052,2.123,67.583c0.608,22.536,1.021,45.077,1.025,67.624
			c0,11.476-0.092,22.947-0.341,34.418C406.518,274.377,407.924,286.117,406.589,296.888z"/>
	</g>
</g>
<g>
</g>
<g>
</g>
<g>
</g>
<g>
</g>
<g>
</g>
<g>
</g>
<g>
</g>
<g>
</g>
<g>
</g>
<g>
</g>
<g>
</g>
<g>
</g>
<g>
</g>
<g>
</g>
<g>
</g>
</svg>
