<?xml version="1.0" encoding="iso-8859-1"?>
<!-- Generator: Adobe Illustrator 18.1.1, SVG Export Plug-In . SVG Version: 6.00 Build 0)  -->
<svg version="1.1" id="Capa_1" xmlns="http://www.w3.org/2000/svg" xmlns:xlink="http://www.w3.org/1999/xlink" x="0px" y="0px"
	 viewBox="0 0 29.094 29.094" style="enable-background:new 0 0 29.094 29.094;" xml:space="preserve">
<g>
	<path style="fill:#010002;" d="M28.661,3.664c-0.385-0.434-0.947-0.643-1.588-0.549L1.69,6.824
		C1.158,6.902,0.691,7.185,0.376,7.619C0.062,8.053-0.061,8.583,0.029,9.112l1.664,9.715c0.171,0.999,1.062,1.813,2.07,1.895
		l10.214,0.823l-0.292,2.776c-0.096,0.648,0.108,1.046,0.297,1.265c0.228,0.264,0.56,0.415,0.912,0.415
		c0.356,0,0.707-0.146,1.017-0.414l4.886-3.922l4.41-0.02c1.061,0,1.988-0.824,2.112-1.874L29.08,5.072
		C29.143,4.54,28.995,4.04,28.661,3.664z M25.332,19.535c-0.005,0.042-0.083,0.11-0.126,0.11h-4.09l-0.337-0.004
		c-0.388,0-0.583,0.094-0.853,0.222l-4.103,3.229l0.191-1.82c0.068-0.467-0.021-0.857-0.265-1.162
		c-0.374-0.466-0.914-0.505-1.309-0.533l-10.517-0.85c-0.093-0.007-0.244-0.146-0.259-0.238L1.98,8.802l25.077-3.665L25.332,19.535z
		"/>
</g>
<g>
</g>
<g>
</g>
<g>
</g>
<g>
</g>
<g>
</g>
<g>
</g>
<g>
</g>
<g>
</g>
<g>
</g>
<g>
</g>
<g>
</g>
<g>
</g>
<g>
</g>
<g>
</g>
<g>
</g>
</svg>
