<?xml version="1.0" encoding="iso-8859-1"?>
<!-- Generator: Adobe Illustrator 16.0.0, SVG Export Plug-In . SVG Version: 6.00 Build 0)  -->
<!DOCTYPE svg PUBLIC "-//W3C//DTD SVG 1.1//EN" "http://www.w3.org/Graphics/SVG/1.1/DTD/svg11.dtd">
<svg version="1.1" id="Capa_1" xmlns="http://www.w3.org/2000/svg" xmlns:xlink="http://www.w3.org/1999/xlink" x="0px" y="0px"
	 width="43.672px" height="43.672px" viewBox="0 0 43.672 43.672" style="enable-background:new 0 0 43.672 43.672;"
	 xml:space="preserve">
<g>
	<path d="M3.125,23.476c-1.037-2.393-1.11-5.015-0.233-7.463c0.833-2.323,2.489-4.115,4.359-5.686
		c3.808-3.198,8.759-5.198,13.632-6.057c2.045-0.361,4.148-0.41,6.227-0.329c0.455,0.018,0.91,0.046,1.364,0.083
		c0.23,0.018,0.459,0.041,0.688,0.064c0.114,0.012,0.229,0.025,0.346,0.038c0.039,0.005,0.476,0.061,0.271,0.033
		c0.962,0.132,1.914,0.322,2.853,0.574c1.767,0.475,3.513,1.247,4.848,2.301c1.576,1.244,2.672,2.804,3.335,4.624
		c0.852,2.334,0.729,4.686-0.351,6.925c-1.088,2.261-2.869,4.202-4.844,5.727c-0.727,0.56-1.504,1.041-2.229,1.6
		c-0.81,0.624-1.583,1.285-2.323,1.991c-1.672,1.596-3.18,3.411-4.352,5.406c-1.407,2.396-2.213,5.106-1.797,7.886
		c0.469-0.468,0.938-0.938,1.406-1.403c-0.412-0.146-0.82-0.303-1.229-0.459c-0.468-0.182-0.933-0.367-1.396-0.56
		c-0.134-0.055-0.267-0.11-0.399-0.165c-0.069-0.029-0.138-0.058-0.208-0.087c0.298,0.126,0.045,0.021-0.012-0.006
		c-0.33-0.141-0.659-0.283-0.987-0.428c-3.251-1.434-6.422-3.068-9.418-4.98c-1.03-0.658-2.035-1.354-3.01-2.094
		c-0.33-0.25-0.878-0.691-1.32-1.067c-0.467-0.396-0.921-0.81-1.364-1.232c-0.404-0.389-0.794-0.791-1.172-1.207
		c-0.197-0.218-0.388-0.438-0.576-0.663c-0.093-0.111-0.183-0.225-0.273-0.336c-0.082-0.105-0.089-0.113-0.021-0.023
		c-0.043-0.057-0.087-0.114-0.129-0.171C4.148,25.432,3.574,24.483,3.125,23.476c-0.254-0.569-1.07-0.698-1.563-0.41
		c-0.58,0.34-0.663,0.994-0.41,1.563c1.55,3.474,4.478,6.171,7.455,8.428c3.022,2.288,6.354,4.163,9.761,5.812
		c2.389,1.157,4.841,2.245,7.349,3.122c0.912,0.319,1.521-0.624,1.404-1.403c-0.607-4.063,2.635-8.254,5.561-11.07
		c0.351-0.336,0.71-0.662,1.076-0.979c0.17-0.148,0.344-0.294,0.518-0.438c0.083-0.069,0.168-0.136,0.252-0.203
		c0.056-0.044,0.11-0.087,0.165-0.13c-0.096,0.072-0.092,0.07,0.012-0.008c0.791-0.605,1.635-1.134,2.422-1.75
		c2.084-1.633,3.934-3.646,5.172-5.998c1.283-2.437,1.75-5.213,1.053-7.898c-0.561-2.156-1.672-4.166-3.223-5.764
		c-2.862-2.95-6.994-4.122-10.965-4.548c-4.523-0.483-9.099-0.013-13.418,1.416c-4.689,1.551-9.43,4.137-12.613,7.994
		c-1.521,1.841-2.638,4.015-2.998,6.391c-0.367,2.425,0.051,4.789,1.02,7.026c0.248,0.571,1.075,0.695,1.563,0.41
		C3.299,24.695,3.373,24.048,3.125,23.476z"/>
</g>
<g>
</g>
<g>
</g>
<g>
</g>
<g>
</g>
<g>
</g>
<g>
</g>
<g>
</g>
<g>
</g>
<g>
</g>
<g>
</g>
<g>
</g>
<g>
</g>
<g>
</g>
<g>
</g>
<g>
</g>
</svg>
