<?xml version="1.0" encoding="iso-8859-1"?>
<!-- Generator: Adobe Illustrator 18.1.1, SVG Export Plug-In . SVG Version: 6.00 Build 0)  -->
<svg version="1.1" id="Capa_1" xmlns="http://www.w3.org/2000/svg" xmlns:xlink="http://www.w3.org/1999/xlink" x="0px" y="0px"
	 viewBox="0 0 29.338 29.338" style="enable-background:new 0 0 29.338 29.338;" xml:space="preserve">
<g>
	<path style="fill:#010002;" d="M27.184,1.605H2.156C0.967,1.605,0,2.572,0,3.76v17.572c0,1.188,0.967,2.155,2.156,2.155h13.543
		l5.057,3.777c0.414,0.31,0.842,0.468,1.268,0.468c0.789,0,1.639-0.602,1.637-1.923v-2.322h3.523c1.188,0,2.154-0.967,2.154-2.155
		V3.76C29.338,2.572,28.371,1.605,27.184,1.605z M27.34,21.332c0,0.085-0.068,0.155-0.154,0.155h-5.523v3.955l-5.297-3.956H2.156
		c-0.086,0-0.154-0.07-0.154-0.155V3.759c0-0.085,0.068-0.155,0.154-0.155v0.001h25.029c0.086,0,0.154,0.07,0.154,0.155
		L27.34,21.332L27.34,21.332z M5.505,10.792h4.334v4.333H5.505C5.505,15.125,5.505,10.792,5.505,10.792z M12.505,10.792h4.334v4.333
		h-4.334V10.792z M19.505,10.792h4.334v4.333h-4.334V10.792z"/>
</g>
<g>
</g>
<g>
</g>
<g>
</g>
<g>
</g>
<g>
</g>
<g>
</g>
<g>
</g>
<g>
</g>
<g>
</g>
<g>
</g>
<g>
</g>
<g>
</g>
<g>
</g>
<g>
</g>
<g>
</g>
</svg>
