<?xml version="1.0" encoding="iso-8859-1"?>
<!-- Generator: Adobe Illustrator 16.0.0, SVG Export Plug-In . SVG Version: 6.00 Build 0)  -->
<!DOCTYPE svg PUBLIC "-//W3C//DTD SVG 1.1//EN" "http://www.w3.org/Graphics/SVG/1.1/DTD/svg11.dtd">
<svg version="1.1" id="Capa_1" xmlns="http://www.w3.org/2000/svg" xmlns:xlink="http://www.w3.org/1999/xlink" x="0px" y="0px"
	 width="191.528px" height="191.528px" viewBox="0 0 191.528 191.528" style="enable-background:new 0 0 191.528 191.528;"
	 xml:space="preserve">
<g>
	<g>
		<path d="M146.176,13.79C96.04-10.023,12.555,11.459,1.196,72.279c-9.657,51.708,40.904,92.646,89.482,88.724
			c0.004,0.12,0,0.235,0.018,0.36c3.088,20.812,22.972,30.432,42.147,23.803c1.497-0.519,2.481-1.981,2.036-3.586
			c-2.236-8.051-5.771-15.637-7.751-23.74c17.361-4.27,33.707-6.537,46.437-20.713c12.003-13.366,17.245-31.751,17.908-49.37
			C192.666,56.076,174.514,27.25,146.176,13.79z M167.883,134.656c-11.696,13.032-29.144,14.091-45.018,18.2
			c-1.64,0.424-2.345,2.06-2.05,3.61c1.577,8.29,5.09,15.931,7.614,23.93c-15.358,3.92-29.669-3.756-32.188-20.562
			c-0.119-0.791-0.478-1.325-0.951-1.66c-0.172-0.181-0.395-0.332-0.729-0.399c-23.152-4.646-45.371-5.625-64.285-21.708
			c-16.18-13.759-24.938-35.111-24.094-56.148c1.438-35.874,35.528-58.613,67.101-66.456c29.592-7.35,64.354-3.354,88.084,16.977
			C190.989,55.818,193.807,105.769,167.883,134.656z"/>
		<path d="M119.513,28.935c-17.514-7.447-39.734,0.56-50.19,15.962c-2.617,3.855-5.528,12.413-5.298,19.37
			c-0.161,0.663-0.281,1.375-0.336,2.188c-0.279,4.137,0.27,8.713,1.568,12.654c0.325,0.987,1.172,1.718,2.247,1.711
			c3.67-0.024,7.382-0.363,11.042-0.63c2.688-0.196,6.877-0.042,8.836-2.174c0.72-0.784,0.815-2.15,0.234-3.037
			c0.486-0.916,0.57-2.066-0.024-2.889c-8.983-12.443,15.58-23.028,18.918-8.893c2.162,9.154-8.542,14.539-11.007,22.708
			c-2.82,9.345-0.95,21.159,0.753,30.559c0.311,1.713,2.145,2.259,3.608,2.049c4.684-0.67,9.365-1.35,14.036-2.105
			c1.229-0.197,2.207-1.638,2.154-2.829c-0.181-4.031-0.937-8.029-1.333-12.045c-0.613-6.218,1.911-8.57,6.93-11.81
			c7.295-4.711,12.11-9.677,14.901-18.031C141.757,56.105,135.128,35.576,119.513,28.935z"/>
		<path d="M117.191,126.177c-0.326-1.193-1.438-2.025-2.669-2.032c-2.511-0.015-5.021-0.029-7.533-0.043
			c-1.687-0.01-4.221-0.438-5.673,0.628c-0.496,0.364-0.819,0.81-1.012,1.279c-0.73,0.028-1.437,0.614-1.444,1.433
			c-0.215,2.193-0.074,6.383,0.496,9.292c0.227,1.153,1.43,1.905,2.533,1.93c4.704,0.101,9.397-0.024,14.057-0.707
			c1.182-0.174,1.991-1.526,1.997-2.622C117.959,132.292,118.002,129.134,117.191,126.177z"/>
	</g>
</g>
<g>
</g>
<g>
</g>
<g>
</g>
<g>
</g>
<g>
</g>
<g>
</g>
<g>
</g>
<g>
</g>
<g>
</g>
<g>
</g>
<g>
</g>
<g>
</g>
<g>
</g>
<g>
</g>
<g>
</g>
</svg>
