<?xml version="1.0" encoding="iso-8859-1"?>
<!-- Generator: Adobe Illustrator 18.1.1, SVG Export Plug-In . SVG Version: 6.00 Build 0)  -->
<svg version="1.1" id="Capa_1" xmlns="http://www.w3.org/2000/svg" xmlns:xlink="http://www.w3.org/1999/xlink" x="0px" y="0px"
	 viewBox="0 0 32 32" style="enable-background:new 0 0 32 32;" xml:space="preserve">
<g>
	<path style="fill:#030104;" d="M20,6c4.414,0,8,3.586,8,8s-3.586,8-8,8h-8c-2.609,0-4.934,1.258-6.395,3.203
		C4.633,24.469,4,23.305,4,22V12c0-3.309,2.695-6,6-6H20 M20,2H10C4.477,2,0,6.477,0,12v10c0,4.418,3.586,8,8,8c0-2.211,1.793-4,4-4
		h8c6.629,0,12-5.375,12-12S26.629,2,20,2L20,2z"/>
</g>
<g>
</g>
<g>
</g>
<g>
</g>
<g>
</g>
<g>
</g>
<g>
</g>
<g>
</g>
<g>
</g>
<g>
</g>
<g>
</g>
<g>
</g>
<g>
</g>
<g>
</g>
<g>
</g>
<g>
</g>
</svg>
