<!DOCTYPE svg PUBLIC "-//W3C//DTD SVG 20010904//EN" "http://www.w3.org/TR/2001/REC-SVG-20010904/DTD/svg10.dtd">
<svg version="1.0" xmlns="http://www.w3.org/2000/svg" width="390px" height="348px" viewBox="0 0 3900 3480" preserveAspectRatio="xMidYMid meet">
<g id="layer1" fill="#000000" stroke="none">
 <path d="M3045 3385 c-55 -19 -233 -77 -395 -130 l-295 -95 -204 -171 c-113 -94 -293 -256 -402 -360 -192 -185 -200 -194 -300 -349 -56 -88 -108 -165 -115 -170 -6 -6 -86 -20 -175 -31 -90 -11 -231 -31 -314 -45 -148 -25 -151 -26 -210 -71 -33 -26 -84 -65 -113 -87 -46 -35 -62 -57 -112 -158 -56 -110 -60 -123 -75 -241 l-16 -124 74 -149 c73 -145 79 -154 239 -332 l163 -184 225 -113 c134 -66 302 -141 415 -183 l190 -71 285 -36 c273 -35 293 -36 485 -30 261 9 348 26 525 105 117 52 153 74 264 163 128 102 128 102 177 199 44 88 51 112 75 257 l27 160 -72 159 -72 159 -256 184 c-141 101 -265 189 -277 195 -11 7 -136 56 -276 110 -183 70 -290 105 -380 124 l-125 27 1 35 c1 25 51 131 171 362 l170 327 409 281 c225 155 412 286 416 292 8 13 1 26 -15 25 -7 0 -57 -16 -112 -34z"/>
 </g>

</svg>