<svg id="Layer_1" enable-background="new 0 0 512 512" viewBox="0 0 512 512" xmlns="http://www.w3.org/2000/svg"><g><g><path d="m256 32c-141.163 0-256 81.344-256 181.333 0 51.435 30.613 100.096 84.245 134.464-5.995 22.891-37.525 70.272-57.877 97.173-.064.107-.149.192-.213.299-3.115 3.819-4.821 8.533-4.821 13.397 0 11.755 9.579 21.333 21.333 21.333 2.923 0 5.845-.683 8.725-2.005 27.776-7.893 115.669-35.84 166.336-85.483 13.355 1.451 25.941 2.155 38.272 2.155 141.163 0 256-81.344 256-181.333s-114.837-181.333-256-181.333z"/></g></g><g/><g/><g/><g/><g/><g/><g/><g/><g/><g/><g/><g/><g/><g/><g/></svg>