<svg version="1.1" xmlns="http://www.w3.org/2000/svg" viewBox="0 0 395.9841715923686 319.1103828349438" width="395.9841715923686" height="319.1103828349438">
  <!-- svg-source:excalidraw -->
  
  <defs>
    <style>
      @font-face {
        font-family: "Virgil";
        src: url("https://excalidraw.com/FG_Virgil.woff2");
      }
      @font-face {
        font-family: "Cascadia";
        src: url("https://excalidraw.com/Cascadia.woff2");
      }
    </style>
  </defs>
  <g><g transform="translate(94.01492342177276 77.75933191388958) rotate(0 112.66158797308854 48.734012418375045)"><path d="M-0.6732518903911113 -0.14200106933712964 C-1.4500674840802672 -4.10894398611005, -6.4570389177944625 -16.504249745785085, -5.691014935520126 -23.19047217719053 C-4.92499095324579 -29.876694608595972, -0.7698207333237557 -36.520031255789426, 3.922892003254905 -40.259335657769796 C8.615604739833564 -43.998640059750166, 16.452264383335827 -45.814508912419484, 22.46526148395184 -45.626298589072746 C28.47825858456785 -45.43808826572601, 36.57185778675405 -40.08231804984718, 40.00087460695097 -39.130073717689385 C43.42989142714789 -38.17782938553159, 40.89946562533146 -36.76178095409244, 43.039362405133375 -39.91283259612597 C45.17925918493529 -43.06388423815951, 48.17868885128094 -53.963128795424964, 52.840255285762474 -58.03638356989059 C57.50182172024401 -62.10963834435621, 64.70601506008786 -63.61139538876721, 71.0087610120226 -64.35236124291974 C77.31150696395734 -65.09332709707228, 84.93186820609039 -65.46153594135886, 90.65673099737091 -62.4821786948058 C96.38159378865144 -59.502821448252746, 102.19002504507017 -49.11417442341166, 105.35793775970579 -46.47621776360138 C108.52585047434141 -43.838261103791105, 105.39947428607901 -43.72126486648743, 109.66420728518463 -46.65443873594412 C113.92894028429025 -49.58761260540081, 123.57210995961223 -60.72751113154312, 130.94633575433951 -64.07526098034151 C138.32056154906678 -67.4230108291399, 146.45059863219302 -67.68086108941863, 153.90956205354829 -66.74093782873447 C161.36852547490355 -65.80101456805032, 170.08141961107287 -62.59540351724065, 175.70011628247104 -58.43572141623661 C181.3188129538692 -54.27603931523257, 185.0240556840885 -44.84919371756212, 187.62174208193724 -41.78284522271024 C190.219428479786 -38.71649672785836, 187.8478828644778 -38.920257601033725, 191.2862346695635 -40.03763044712532 C194.7245864746492 -41.15500329321692, 201.2309149117145 -47.10588719315327, 208.2518529124513 -48.48708229925985 C215.27279091318812 -49.868277405366435, 226.28188998746577 -50.92240232957502, 233.41186267398433 -48.324801083764804 C240.5418353605029 -45.727199837954586, 247.39758036460628 -38.88037533700851, 251.03168903156268 -32.901474824398534 C254.66579769851907 -26.922574311788555, 253.75233308078992 -16.170188145153332, 255.21651467572272 -12.451398008104936 C256.6806962706555 -8.732607871056542, 255.53952662928884 -12.464280764171734, 259.81677860115946 -10.588734002108168 C264.09403057303007 -8.713187240044602, 275.6142524983726 -7.035120698551648, 280.8800265069464 -1.1981174357235431 C286.14580051552025 4.638885827104561, 291.9416660580339 16.13992602829368, 291.4114226526024 24.433285574860456 C290.88117924717096 32.72664512142723, 279.7663522190665 44.124975845700405, 277.69856607435764 48.56203984367711 C275.6307799296488 52.99910384165382, 277.15302967393603 48.571712220978846, 279.0047057843492 51.05566956272072 C280.85638189476236 53.5396269044626, 287.2063103781416 57.87419740672213, 288.8086227368365 63.465783894128386 C290.41093509553144 69.05737038153464, 291.28531459244067 78.9540246489115, 288.6185799365187 84.60518848715823 C285.95184528059673 90.25635232540496, 277.91333402127583 94.71765878329332, 272.8082148013048 97.37276692360878 C267.7030955813338 100.02787506392424, 260.7918169275178 99.05695849825942, 257.98786461669266 100.53583732905098 C255.18391230586752 102.01471615984254, 256.3406524843995 102.56500459308708, 255.984500936354 106.24603990835811 C255.6283493883085 109.92707522362915, 258.8677814795766 117.16625137413486, 255.8509553284195 122.62204922067716 C252.8341291772624 128.07784706721944, 244.98990059362305 136.91954812814657, 237.88354402941155 138.98082698761186 C230.77718746520006 141.04210584707715, 218.97929088360823 136.638508793403, 213.2128159431505 134.98972237746895 C207.44634100269278 133.3409359615349, 205.36747920130512 129.55497438144178, 203.28469438666517 129.0881084920076 C201.20190957202522 128.6212426025734, 202.94235547976902 128.73476474762518, 200.71610705531089 132.18852704086376 C198.48985863085275 135.64228933410234, 195.1865147931864 145.1748201303842, 189.92720383991642 149.81068225143903 C184.66789288664643 154.44654437249386, 175.93393713840936 159.1179404257319, 169.16024133569098 160.00369976719276 C162.3865455329726 160.88945910865363, 154.40773457374564 157.59406161177364, 149.28502902360623 155.12523830020433 C144.1623234734668 152.65641498863502, 140.43973566819741 147.21337694238605, 138.42400803485444 145.19075989777684 C136.40828040151146 143.16814285316764, 139.4784163863513 140.72122040007736, 137.1906632235483 142.98953603254907 C134.9029100607453 145.25785166502078, 131.13285898593534 155.09688999185875, 124.69748905803644 158.80065369260706 C118.26211913013753 162.50441739335537, 107.21655338646512 164.9435364125123, 98.57844365615485 165.21211823703902 C89.94033392584457 165.48070006156576, 79.31749777508085 163.5370480088139, 72.86883067617478 160.41214463976743 C66.42016357726871 157.28724127072095, 62.44857274109842 148.81922808259003, 59.886441062718426 146.4626980227602 C57.324309384338434 144.10616796293039, 59.78480410544307 144.44325256805226, 57.49604060589485 146.27296428078847 C55.20727710634662 148.10267599352468, 51.31176256730723 155.46205463735174, 46.15386006542907 157.44096829917746 C40.99595756355092 159.41988196100317, 32.873567741373485 159.57625579250154, 26.548625594625918 158.14644625174284 C20.223683447878354 156.71663671098415, 12.427897277891816 153.42708172368307, 8.204207184943684 148.8621110546253 C3.9805170919955524 144.29714038556753, 3.235759097650357 134.66600921988027, 1.2064850369371307 130.75662223739624 C-0.8227890237760958 126.84723525491223, 0.1345839248635743 126.80692252354027, -3.971437179335675 125.40578915972122 C-8.077458283534924 124.00465579590218, -17.40654056516857 125.20068053525932, -23.429641588258367 122.34982205448196 C-29.452742611348164 119.4989635737046, -36.656764923211114 113.46709843442062, -40.11004331787445 108.30063827505705 C-43.563321712537785 103.13417811569349, -44.71790522132203 96.68359007546832, -44.14931195623839 91.35106109830055 C-43.58071869115476 86.01853212113278, -37.98703332059794 79.28587581955678, -36.69848372737262 76.30546441205047 C-35.4099341341473 73.32505300454416, -32.898787872254545 76.01294781058729, -36.418014396886484 73.46859265326269 C-39.93724092151842 70.92423749593809, -52.81321151091042 67.40024736041373, -57.813842875164276 61.03933346810284 C-62.81447423941813 54.67841957579195, -67.7809608827273 44.109976123566035, -66.42180258240961 35.30310929939733 C-65.06264428209192 26.49624247522862, -57.25094301835436 14.540369618791118, -49.65889307325814 8.198132523090585 C-42.06684312816192 1.8558954273900534, -29.109233717223894 -1.358408372854157, -20.869502911832267 -2.7503132748058645 C-12.629772106440642 -4.142218176757572, -3.5997402996017422 -0.4932114456254775, -0.22050824090838428 -0.1532968886196613 M1.1741521378140898 -1.2621555760782213 C0.317759302883002 -5.172110482146623, -6.983498534785222 -15.846421506759537, -6.709209834753184 -22.21645305613783 C-6.434921134721146 -28.586484605516123, -2.1728947310913984 -35.69497749764318, 2.819884338006317 -39.48234487234799 C7.812663407104033 -43.269712247052794, 16.71222386054997 -44.970584308538164, 23.247464579833107 -44.940657304366674 C29.782705299116245 -44.91073030019518, 38.4764117416813 -39.92835975652656, 42.03132865370514 -39.30278284731904 C45.58624556572898 -38.67720593811151, 42.680242504550804 -38.401044157413466, 44.57696605197614 -41.18719584912151 C46.47368959940148 -43.97334754082955, 48.624601342093996 -52.16128475812871, 53.411669938257184 -56.01969299756731 C58.19873853442037 -59.878101237005914, 66.77953938739394 -63.56859199712992, 73.29937762895528 -64.33764528575311 C79.81921587051663 -65.1066985743763, 87.11438592926143 -63.62852075206695, 92.53069938762522 -60.63401272930644 C97.94701284598901 -57.639504706545935, 102.90622735482579 -48.31248021043668, 105.79725837913806 -46.370597149190075 C108.68828940345033 -44.42871408794347, 105.87082880136145 -45.90745766796109, 109.87688553349882 -48.98271436182679 C113.88294226563619 -52.057971055692484, 122.39939002446143 -61.771500796632296, 129.83359877196227 -64.82213731238426 C137.2678075194631 -67.87277382813622, 146.9554751126215 -68.25827432520035, 154.4821380185039 -67.28653345633853 C162.00880092438626 -66.31479258747672, 169.92711519194094 -63.08401943557709, 174.99357620725647 -58.99169209921338 C180.060037222572 -54.89936476284967, 182.50506166597899 -46.089441881975624, 184.88090411039707 -42.73256943815628 C187.25674655481515 -39.37569699433694, 185.52873846057128 -37.49977857358177, 189.248630873765 -38.85045743629735 C192.9685232869587 -40.20113629901292, 199.49404904466414 -49.34815558130353, 207.2002585895594 -50.83664261444974 C214.90646813445468 -52.32512964759594, 228.37452558627243 -50.779412333080295, 235.48588814313658 -47.78137963517457 C242.59725070000073 -44.78334693726884, 246.56770116149346 -38.44938879478176, 249.86843393074432 -32.84844642701536 C253.16916669999517 -27.24750405924896, 253.3037129080788 -18.25454508214268, 255.29028475864163 -14.175725428576172 C257.27685660920446 -10.096905775009663, 257.5458212162732 -10.81827243823546, 261.7878650341212 -8.375528505616304 C266.02990885196914 -5.9327845729971465, 275.73215376819405 -4.802925147333182, 280.7425476657292 0.48073816713877005 C285.75294156326436 5.764401481610722, 292.1131189245565 15.371245940490752, 291.85022841933204 23.326451381215414 C291.5873379141076 31.281656821940075, 281.6298338837521 43.548411881037325, 279.1652046343827 48.211970811486744 C276.7005753850133 52.87552974193616, 275.24389142271895 48.82918772120673, 277.06245292311576 51.30780496391191 C278.88101442351257 53.7864222066171, 287.88618187830406 57.621381746306916, 290.0765736367635 63.08367426771785 C292.26696539522294 68.5459667891288, 292.8905706894873 78.08108518815897, 290.20480347387246 84.08156009237754 C287.51903625825764 90.08203499659612, 279.27262403580914 96.0959503214741, 273.9619703430746 99.08652369302936 C268.65131665034005 102.07709706458462, 261.6326564521129 100.98165022673399, 258.34088131746523 102.02500032170907 C255.0491061828176 103.06835041668415, 254.64507768047906 101.65364454843076, 254.2113195351888 105.34662426287981 C253.77756138989855 109.03960397732887, 258.4770658742859 118.28326839126281, 255.73833244572361 124.18287860840341 C252.99959901716127 130.08248882554403, 245.17833437670535 139.04669129343878, 237.7789189638148 140.74428556572346 C230.37950355092423 142.44187983800813, 216.84702270427914 136.19122439782933, 211.34183996838024 134.3684442421115 C205.83665723248134 132.54566408639369, 206.81242046512793 130.23472037368694, 204.74782254842148 129.8076046314166 C202.68322463171504 129.38048888914628, 201.4111471455298 128.23726268721367, 198.95425246814153 131.80574978848952 C196.49735779075326 135.37423688976537, 194.66455666976884 146.6642446408054, 190.00645448409176 151.21852723907173 C185.34835229841468 155.77280983733806, 177.75447968166975 158.49704614756507, 171.00563935407908 159.1314453780874 C164.2567990264884 159.7658446086097, 154.54003318338795 157.18024765581285, 149.51341251854774 155.02492262220574 C144.48679185370753 152.86959758859862, 143.1462674846483 148.31068884276522, 140.84591536503774 146.19949517644474 C138.5455632454272 144.08830151012427, 138.32115958763507 140.1682895673952, 135.71129980088443 142.35776062428295 C133.1014400141338 144.5472316811707, 131.1586345845489 155.54081066630383, 125.18675664453403 159.33632151777132 C119.21487870451917 163.13183236923882, 108.72142952625309 164.86968011698812, 99.88003216079524 165.1308257330879 C91.03863479533739 165.39197134918768, 79.25025652811047 163.79481550206376, 72.13837245178694 160.90319521437 C65.0264883754634 158.01157492667622, 59.76323940453463 150.323738812322, 57.20872770285399 147.78110400692535 C54.65421600117335 145.2384692015287, 58.912238998423454 144.01297162406436, 56.811302241703125 145.64738638198995 C54.710365484982795 147.28180113991553, 49.800315327817 155.5623572046568, 44.603107162532 157.5875925544789 C39.40589899724699 159.612827904301, 31.658794123120533 159.42892910445215, 25.628053249993098 157.79879848092264 C19.597312376865663 156.16866785739313, 12.421338447181686 151.9957645150968, 8.418661923767381 147.80680881330179 C4.415985400353075 143.61785311150678, 3.582783430261247 136.29756868016443, 1.6119941095072607 132.66506427015253 C-0.35879521124672586 129.03255986014062, 0.6812913029213377 127.9887687498171, -3.406074000756538 126.01178235323027 C-7.493439304434414 124.03479595664345, -16.887351956315424 123.86401848549083, -22.912197712559994 120.80314589063161 C-28.937043468804564 117.74227329577239, -36.04056929811641 112.6761173805337, -39.55514853822395 107.64654678407496 C-43.0697277783315 102.61697618761622, -44.87435739756696 95.71059055647966, -43.99967315320524 90.6257223118792 C-43.12498890884351 85.54085406727874, -35.41681442191601 79.59233409469797, -34.307043072053595 77.13733731647223 C-33.19727172219118 74.68234053824648, -33.51138853165662 78.25651781242975, -37.341045054030744 75.89574164252475 C-41.170701576404866 73.53496547261976, -52.70565257380972 69.8577001479937, -57.28498220629831 62.97268029704223 C-61.8643118387869 56.08766044609076, -66.34745161006438 43.71607683550962, -64.81702284896225 34.58562253681593 C-63.28659408786013 25.455168238122248, -55.48347678972211 14.672691926439253, -48.10240963968557 8.189954504880129 C-40.721342489649025 1.7072170833210043, -28.389121233992544 -3.038730312320678, -20.530619948742995 -4.310801992538815 C-12.672118663493446 -5.582873672756953, -4.420080288043881 -0.15479353606102686, -0.9514019281882793 0.5575244235713037" stroke="#000000" stroke-width="1" fill="none"></path></g></g><g transform="translate(58.47144198176379 237.96728569755874) rotate(0 23.387850321787013 14.914250149372918)"><path d="M16.537462545094627 0.27960179756513703 C21.043416734134052 -0.8155065509199468, 27.649557945584917 0.2029582790690565, 32.25225138289163 1.5593502378514206 C36.85494482019834 2.9157421966337846, 41.93868571698405 5.653875428829917, 44.1536231689349 8.417953550259321 C46.36856062088575 11.182031671688726, 46.65414494479996 15.063579357117456, 45.54187609459674 18.143818966427844 C44.429607244393516 21.224058575738233, 41.60247136011426 25.047096536436424, 37.48001006771558 26.89939120612165 C33.35754877531691 28.751685875806874, 25.748147889931587 29.515567722787264, 20.807108340204678 29.257586984539202 C15.86606879047777 28.99960624629114, 11.193003835488762 27.431475934792527, 7.8337727693541375 25.351506776633276 C4.474541703219513 23.271537618474024, 1.3509990716919655 19.840185070943434, 0.6517219433969359 16.777772035583702 C-0.04755518489809363 13.715359000223971, 0.6345466884772564 9.71272157689309, 3.6381099995839605 6.977028564474887 C6.641673310690665 4.241335552056684, 16.150401053683773 1.2824714486914597, 18.67310181003716 0.3636139610744813 C21.195802566390547 -0.555243526542497, 18.865865369376287 1.0653255192254028, 18.774314537704292 1.4638836387730176 M21.47569572630941 0.4387872586678814 C26.223305888665433 -0.2101165471392964, 34.06398554314055 0.6522883905527816, 38.01821621523172 2.5306939272906046 C41.97244688732289 4.409099464028428, 44.40795129439428 8.61789370062062, 45.20107975885646 11.709220479094819 C45.99420822331864 14.800547257569018, 45.062116615832586 18.504826371473158, 42.77698700200477 21.078654598135802 C40.49185738817696 23.652482824798447, 35.68400238888901 25.898661812358064, 31.490302075889566 27.152189839070694 C27.29660176289012 28.405717865783323, 22.3035346670898 29.075024600568838, 17.614785124008094 28.59982275841159 C12.926035580926388 28.124620916254344, 6.238434596394628 26.902616219352264, 3.3578048173993373 24.300978786127214 C0.47717503840404696 21.699341352902163, -0.3967305827920118 16.46665634786078, 0.33100645003635165 12.989998159061281 C1.058743482864715 9.513339970261782, 4.030996159491522 5.6356448171080284, 7.724227014369518 3.441029653330215 C11.417457869247514 1.2464144895524014, 20.171346562228344 0.4721573607413605, 22.490391579304323 -0.1776928236056019 C24.8094365963803 -0.8275430079525643, 21.569339253477313 -0.7083095373973449, 21.638497116825388 -0.45807145275155925" stroke="#000000" stroke-width="1" fill="none"></path></g><g transform="translate(28.653128053323776 271.0242600810288) rotate(0 18.496747269057728 10.391431050032367)"><path d="M25.226356732442227 1.122762425089892 C28.802627825029028 1.896730985148178, 33.01111463567279 3.895502189096449, 34.797519701447115 5.778388698875276 C36.58392476722144 7.661275208654104, 36.77038729217619 10.27424557516634, 35.94478712708819 12.420081483762853 C35.11918696200019 14.565917392359367, 33.09864571064381 17.351507394241896, 29.843918710919144 18.653404150454357 C26.589191711194477 19.955300906666817, 20.314687297568916 20.39829758481199, 16.416425128740187 20.231462021037615 C12.518162959911455 20.06462645726324, 9.08368342066097 19.042319503649246, 6.45434569794676 17.65239076780812 C3.8250079752325497 16.262462031966997, 1.2641918220546526 13.988244553735734, 0.6403987924549241 11.891889605990858 C0.01660576285519555 9.795534658245982, 0.4937841744846909 6.99255871316612, 2.711587520348388 5.074261081338861 C4.929390866212085 3.155963449511602, 10.014785908961237 0.8833005982949663, 13.947218867637108 0.38210381502730684 C17.87965182631298 -0.11909296824035265, 24.159836515508765 1.7192496495798897, 26.306185272403617 2.0670803817329038 C28.45253402929847 2.414911113885918, 26.885804115369112 2.4174135483300785, 26.82531140900622 2.4690882079453917 M27.00631746946168 0.5326957998872004 C30.460831766957078 1.2773749728649242, 33.04060309069732 4.218892130361635, 34.35285740763835 6.222475137775259 C35.66511172457939 8.226058145188883, 35.946853445671245 10.680868654622197, 34.87984337110788 12.554193844368942 C33.81283329654452 14.427519034115688, 30.797355717520112 16.194387396117314, 27.950796960258174 17.462426276255734 C25.104238202996235 18.730465156394153, 21.643419304147663 19.91489401317734, 17.800490827536258 20.16242712519947 C13.957562350924851 20.409960237221604, 7.825124379637458 20.45647904404545, 4.893226100589736 18.947624948388537 C1.9613278215420133 17.438770852731622, 0.40573308603627734 13.634454487682698, 0.20910115324992162 11.109302551257981 C0.012469220463565911 8.584150614833264, 1.3851505679427603 5.626319676736854, 3.7134345038716017 3.7967133298402356 C6.041718439800443 1.9671069829436176, 10.481666178443165 0.7243765009626578, 14.178804768822971 0.13166446987827385 C17.87594335920278 -0.4610475612061101, 23.774752975435128 0.09268858140128344, 25.896266046150444 0.24044114333393196 C28.01777911686576 0.3881937052665805, 26.85827871344803 0.5549771945899673, 26.907883193114863 1.018179841474165" stroke="#000000" stroke-width="1" fill="none"></path></g><g transform="translate(10 300.3815807529166) rotate(0 7.689658977023994 4.364401041013608)"><path d="M6.352629985329975 -0.07903546470197487 C7.963512805890173 -0.369857297869731, 9.84078035633247 -0.3450784150880038, 11.381939723064576 0.15009478467461612 C12.923099089796683 0.645267984437236, 15.146754096269696 1.9947748669629854, 15.599586185722618 2.8920037338737448 C16.05241827517554 3.789232600784504, 14.68364388483144 4.669628016896159, 14.098932259782114 5.533467986139172 C13.514220634732787 6.397307955382185, 13.3515592852063 7.481217866417931, 12.09131643542666 8.075043549331825 C10.831073585647019 8.66886923224572, 8.377243695454984 9.184164466384798, 6.537475161104274 9.096422083622539 C4.697706626753562 9.008679700860279, 2.066979313159832 8.373268315772766, 1.0527052293223917 7.548589252758267 C0.03843114548495108 6.723910189743769, 0.38251852764109495 5.01697504385095, 0.4518306580796292 4.14834770553555 C0.5211427885181634 3.2797203672201505, 0.4182146019179105 2.872095040947638, 1.4685780119535972 2.336825222865869 C2.518941421989284 1.8015554047841, 5.6785859700795545 1.2574247127285407, 6.754011118293749 0.9367287970449363 C7.829436266507944 0.6160328813613318, 7.663558970901787 0.5750443746160755, 7.921128901238763 0.4126497287642419 M7.779386376684887 0.1751494892415444 C9.014723974156624 0.22053035110616634, 10.870444355160428 0.39877677880856793, 11.967957571702913 0.822086166453464 C13.065470788245397 1.2453955540983601, 13.885766480850325 1.7720099278999122, 14.364465675939794 2.7150058151109207 C14.843164871029263 3.658001702321929, 15.753013757285009 5.280507332609142, 14.840152742239727 6.480061489719514 C13.927291727194445 7.679615646829886, 10.655332023274312 9.637560997858317, 8.887299585668103 9.91233075777315 C7.119267148061893 10.187100517687982, 5.575511590210421 8.873182744371094, 4.231958116602469 8.128680049208507 C2.8884046429945167 7.384177354045918, 1.4187463956127409 6.330431876440229, 0.8259787440203912 5.445314586797619 C0.2332110924280414 4.5601972971550095, 0.3066027492159226 3.7442963959071305, 0.6753522070483697 2.81797631135285 C1.0441016648808168 1.8916562267985695, 1.59189087654574 0.38084058797047565, 3.038475491015074 -0.1126059205280634 C4.485060105484408 -0.6060524290266025, 8.318342796047094 -0.36066555314301074, 9.354859893864374 -0.1427027396383842 C10.391376991681653 0.07526007386624234, 9.270926783438584 1.1935257656147698, 9.257578077918746 1.1951709604996958" stroke="#000000" stroke-width="1" fill="none"></path></g></svg>