<svg xmlns="http://www.w3.org/2000/svg" width="420.475" height="301.57" version="1.1" viewBox="0 0 420.475 301.57"><defs><style>@font-face{font-family:&quot;Virgil&quot;;src:url(https://excalidraw.com/FG_Virgil.woff2)}@font-face{font-family:&quot;Cascadia&quot;;src:url(https://excalidraw.com/Cascadia.woff2)}</style></defs><g><g><path fill="none" stroke="#000" stroke-width="1" d="M14.520393232847098 0.3560413990414668 C-3.622715682797388 -2.630951272837197, -55.33358263735699 -15.255442816044967, -93.48182942052756 -16.792813230901476 C-131.63007620369814 -18.330183645757984, -181.6692254837577 -20.747037445797755, -214.3690874661763 -8.868181090097584 C-247.06894944859488 3.010675265602586, -275.8554667931541 33.11185138388073, -289.681001315039 54.48032490329955 C-303.5065358369239 75.84879842271836, -301.81709136503446 100.07130257800858, -297.3222945974856 119.34266002641527 C-292.82749782993676 138.61401747482196, -273.43452870233176 158.65808839623332, -262.71222070974574 170.1084695937397 C-251.9899127171597 181.55885079124607, -237.99596402611056 184.19208715224357, -232.98844664196946 188.04494721145346 C-227.98092925782836 191.89780727066335, -231.49790782930103 187.904554751555, -232.66711640489922 193.22562994899903 C-233.8363249804974 198.54670514644306, -236.82097199730964 213.0784132147615, -240.0036980955586 219.9713983961177 C-243.18642419380757 226.86438357747392, -247.44246167046828 230.34806384692115, -251.76347299439297 234.58354103713629 C-256.08448431831766 238.81901822735142, -268.4302582753594 244.22938331344176, -265.9297660391068 245.3842615374086 C-263.42927380285425 246.53913976137545, -245.62410532524194 243.55294800263886, -236.76051957687773 241.51281038093728 C-227.8969338285135 239.4726727592357, -220.50497888018015 237.16495852142236, -212.74825154892156 233.14343580719918 C-204.99152421766297 229.121913092976, -195.55595772325847 222.67357992216952, -190.22015558932617 217.38367409559814 C-184.88435345539386 212.09376826902675, -184.1498042394066 203.57269519209433, -180.73343874532782 201.40400084777085 C-177.31707325124904 199.23530650344736, -182.5969443598888 202.53496288433857, -169.72196262485357 204.37150802965724 C-156.84698088981835 206.2080531749759, -129.55331723769896 212.14084742528925, -103.48354833511648 212.42327171968284 C-77.413779432534 212.70569601407644, -42.34057264035201 215.52646464750697, -13.303349209358728 206.06605379601885 C15.73387422163455 196.60564294453073, 51.55581725871863 175.15956328676575, 70.7397922508432 155.66080661075407 C89.92376724296776 136.16204993474238, 102.20637160260672 110.69438832721214, 101.80050074338861 89.07351373994884 C101.3946298841705 67.45263915268553, 82.49444558120997 40.53457962428672, 68.30456709553455 25.93555908717428 C54.11468860985912 11.33653855006184, 25.424001696808595 5.66070393492371, 16.66122982933605 1.479390517274194 M16.115672043733767 -0.760478290695421 C-2.1184484202510383 -4.155920898189147, -55.60868385197636 -17.476173706853594, -94.18377270983918 -18.59733159127597 C-132.75886156770198 -19.718489475698348, -182.76005570699206 -19.30274319208896, -215.3348611034431 -7.487425597229682 C-247.90966649989414 4.327891997629597, -276.26754601592455 31.11568903352602, -289.6326050885454 52.29457397787969 C-302.99766416116626 73.47345892223336, -300.1699053375394 99.61803579834925, -295.5252155391682 119.58588406889236 C-290.880525740797 139.55373233943544, -271.7552496371717 160.8178427384932, -261.76446629831844 172.10166360113828 C-251.7736829594652 183.38548446378337, -240.7741088014136 183.30563849723615, -235.58051550604864 187.28880924476286 C-230.38692221068368 191.27197999228957, -230.1409336918477 190.8031437628088, -230.6029065261286 196.00068808629854 C-231.06487936040952 201.1982324097883, -234.90080976565758 212.16949729164477, -238.35235251173415 218.47407518570134 C-241.80389525781072 224.7786530797579, -246.26298643807758 229.707006577767, -251.31216300258808 233.82815545063798 C-256.3613395670986 237.94930432350895, -271.3556976137175 242.00708142867325, -268.6474118987972 243.2009684229271 C-265.9391261838769 244.39485541718096, -244.39838498698865 242.7693958278937, -235.06244871306643 240.9914774161612 C-225.72651243914422 239.21355900442867, -220.09200600223252 236.39874993067832, -212.63179425526397 232.53345795253196 C-205.17158250829542 228.6681659743856, -195.66084152993602 222.55734779086904, -190.30117823125505 217.79972554728306 C-184.94151493257408 213.04210330369708, -184.12101424555607 206.53448835026975, -180.4738144631782 203.98772449101602 C-176.82661468080033 201.4409606317623, -181.08940607400936 200.9755605697371, -168.41797953698793 202.51914239176065 C-155.7465529999665 204.0627242137842, -130.60244536506713 212.51701123649792, -104.44525524104958 213.24921542315732 C-78.28806511703203 213.98141960981673, -40.45724178614659 216.4501279970777, -11.474838792882672 206.91236751171704 C17.507564200381246 197.3746070263564, 50.57936438629146 175.86295835434018, 69.44916271853394 156.02265251099348 C88.31896105077642 136.18234666764678, 102.01967848918842 109.7011105126469, 101.74395120057225 87.87053245163683 C101.46822391195609 66.03995439062676, 81.8410587031647 39.576589500778226, 67.79479898683695 25.039184144933046 C53.74853927050919 10.501778789087867, 26.142749818098135 4.791266702133195, 17.4663929026057 0.6461003165657597" transform="translate(311.95688296021103 29.06795578907054) rotate(353.87445987000496 -99.37778238227986 113.30713029110119)"/></g></g></svg>