<?xml version="1.0" encoding="iso-8859-1"?>
<!-- Generator: Adobe Illustrator 19.0.0, SVG Export Plug-In . SVG Version: 6.00 Build 0)  -->
<svg version="1.1" id="Layer_1" xmlns="http://www.w3.org/2000/svg" xmlns:xlink="http://www.w3.org/1999/xlink" x="0px" y="0px"
	 viewBox="0 0 512 512" style="enable-background:new 0 0 512 512;" xml:space="preserve">
<g>
	<g>
		<path d="M256,0C138.368,0,42.667,95.701,42.667,213.333c0,88.64,55.488,168.384,138.389,199.552l66.219,94.571
			c1.984,2.837,5.248,4.544,8.725,4.544c3.477,0,6.741-1.707,8.725-4.544l66.219-94.571
			c82.901-31.168,138.389-110.912,138.389-199.552C469.333,95.701,373.632,0,256,0z M320.533,393.963
			c-2.069,0.747-3.883,2.112-5.141,3.925L256,482.731l-59.392-84.843c-1.237-1.813-3.051-3.179-5.141-3.925
			C115.221,366.699,64,294.123,64,213.333c0-105.856,86.123-192,192-192s192,86.144,192,192
			C448,294.123,396.779,366.699,320.533,393.963z"/>
	</g>
</g>
<g>
</g>
<g>
</g>
<g>
</g>
<g>
</g>
<g>
</g>
<g>
</g>
<g>
</g>
<g>
</g>
<g>
</g>
<g>
</g>
<g>
</g>
<g>
</g>
<g>
</g>
<g>
</g>
<g>
</g>
</svg>
