<?xml version="1.0" encoding="UTF-8" standalone="no"?>
<!-- Created with Inkscape (http://www.inkscape.org/) -->

<svg
   xmlns:dc="http://purl.org/dc/elements/1.1/"
   xmlns:cc="http://creativecommons.org/ns#"
   xmlns:rdf="http://www.w3.org/1999/02/22-rdf-syntax-ns#"
   xmlns:svg="http://www.w3.org/2000/svg"
   xmlns="http://www.w3.org/2000/svg"
   xmlns:sodipodi="http://sodipodi.sourceforge.net/DTD/sodipodi-0.dtd"
   xmlns:inkscape="http://www.inkscape.org/namespaces/inkscape"
   version="1.1"
   id="svg31360"
   xml:space="preserve"
   width="880"
   height="880"
   viewBox="0 0 880 880"
   sodipodi:docname="speech-balloon-2-freesvg.org.svg"
   inkscape:version="0.92.4 (5da689c313, 2019-01-14)"><metadata
     id="metadata31366"><rdf:RDF><cc:Work
         rdf:about=""><dc:format>image/svg+xml</dc:format><dc:type
           rdf:resource="http://purl.org/dc/dcmitype/StillImage" /><dc:title /></cc:Work></rdf:RDF></metadata><defs
     id="defs31364"><clipPath
       clipPathUnits="userSpaceOnUse"
       id="clipPath31376"><path
         d="M 0,660 H 660 V 0 H 0 Z"
         id="path31374"
         inkscape:connector-curvature="0" /></clipPath></defs><sodipodi:namedview
     pagecolor="#ffffff"
     bordercolor="#666666"
     borderopacity="1"
     objecttolerance="10"
     gridtolerance="10"
     guidetolerance="10"
     inkscape:pageopacity="0"
     inkscape:pageshadow="2"
     inkscape:window-width="1920"
     inkscape:window-height="1018"
     id="namedview31362"
     showgrid="false"
     inkscape:zoom="0.90711699"
     inkscape:cx="331.02773"
     inkscape:cy="449.32203"
     inkscape:window-x="-8"
     inkscape:window-y="-8"
     inkscape:window-maximized="1"
     inkscape:current-layer="g31368" /><g
     id="g31368"
     inkscape:groupmode="layer"
     inkscape:label="speech-balloon-pd"
     transform="matrix(1.3333333,0,0,-1.3333333,0,880)"><g
       id="g31370"><g
         id="g31372"
         clip-path="url(#clipPath31376)"><path
           d="M 134.136,240.555 C 62.047,274.314 18.983,319.968 18.942,362.676 c 0.041,42.694 43.105,88.349 115.198,122.109 71.274,33.332 158.222,53.248 232.583,53.273 61.516,-0.02 102.923,-16.409 126.58,-50.102 21.314,-30.505 31.246,-70.322 31.246,-125.289 0,-23.505 -2.282,-45.709 -6.785,-65.997 l -1.219,-5.482 4.192,-3.743 c 22.499,-20.086 47.109,-39.235 73.466,-57.355 -27.063,8.635 -53.99,17.484 -80.545,26.516 l -7.805,2.656 -3.79,-7.321 c -22.832,-44.096 -65.838,-64.644 -135.346,-64.664 -74.351,0.025 -161.299,19.941 -232.581,53.278 m -8.119,261.589 C 45.836,464.596 -0.175,413.763 -0.224,362.676 c 0.049,-51.102 46.06,-101.933 126.237,-139.48 73.7,-34.468 163.681,-55.058 240.704,-55.083 72.653,0.02 121.237,22.261 148.301,67.825 47.384,-16.022 95.817,-31.528 144.151,-46.089 l 7.486,17.513 c -48.076,27.226 -91.442,57.794 -129.095,90.862 4.019,20.09 6.155,41.685 6.155,64.443 0,59.082 -11.031,102.388 -34.715,136.285 -27.519,39.194 -74.055,58.249 -142.277,58.272 -77.033,-0.026 -167.014,-20.617 -240.706,-55.08"
           style="fill:#ec008c;fill-opacity:1;fill-rule:nonzero;stroke:none"
           id="path31378"
           inkscape:connector-curvature="0" /></g></g></g></svg>