<?xml version="1.0" encoding="iso-8859-1"?>
<!-- Generator: Adobe Illustrator 18.1.1, SVG Export Plug-In . SVG Version: 6.00 Build 0)  -->
<svg version="1.1" id="Capa_1" xmlns="http://www.w3.org/2000/svg" xmlns:xlink="http://www.w3.org/1999/xlink" x="0px" y="0px"
	 viewBox="0 0 46.195 46.195" style="enable-background:new 0 0 46.195 46.195;" xml:space="preserve">
<g>
	<path style="fill:#010002;" d="M35.765,8.264c-5.898,0-10.555,4.782-10.555,10.68s4.844,10.68,10.742,10.68
		c0.059,0,0.148-0.008,0.207-0.009c-2.332,1.857-5.261,2.976-8.467,2.976c-1.475,0-2.662,1.196-2.662,2.67s0.949,2.67,2.424,2.67
		c10.469-0.001,18.741-8.518,18.741-18.987c0-0.002,0-0.004,0-0.007C46.195,13.042,41.661,8.264,35.765,8.264z"/>
	<path style="fill:#010002;" d="M10.75,8.264c-5.898,0-10.563,4.782-10.563,10.68s4.84,10.68,10.739,10.68
		c0.059,0,0.146-0.008,0.205-0.009c-2.332,1.857-5.262,2.976-8.468,2.976C1.188,32.591,0,33.787,0,35.261s0.964,2.67,2.439,2.67
		c10.469-0.001,18.756-8.518,18.756-18.987c0-0.002,0-0.004,0-0.007C21.195,13.042,16.646,8.264,10.75,8.264z"/>
</g>
<g>
</g>
<g>
</g>
<g>
</g>
<g>
</g>
<g>
</g>
<g>
</g>
<g>
</g>
<g>
</g>
<g>
</g>
<g>
</g>
<g>
</g>
<g>
</g>
<g>
</g>
<g>
</g>
<g>
</g>
</svg>
