<?xml version="1.0" encoding="iso-8859-1"?>
<!-- Generator: Adobe Illustrator 18.1.1, SVG Export Plug-In . SVG Version: 6.00 Build 0)  -->
<svg version="1.1" id="Capa_1" xmlns="http://www.w3.org/2000/svg" xmlns:xlink="http://www.w3.org/1999/xlink" x="0px" y="0px"
	 viewBox="0 0 45.513 45.513" style="enable-background:new 0 0 45.513 45.513;" xml:space="preserve">
<g>
	<path style="fill:#010002;" d="M45.512,15.513c-0.077-2.108-0.505-4.317-1.814-6.029c-1.043-1.363-2.465-2.258-4.098-2.762
		c-1.996-0.617-4.119-0.582-6.188-0.582c-5.62,0-11.241,0-16.862,0c-1.618,0-3.236,0-4.854,0c-4.608,0-8.929,2.826-10.728,7.077
		c-1.97,4.657-0.929,10.496,3.084,13.751c1.602,1.299,3.5,2.139,5.491,2.643c0.765,0.194,1.587,0.404,2.38,0.404
		c0.587,0,1.175,0,1.762,0c1.417,0,2.834,0,4.251,0c0.09,0,0.179,0,0.269,0c-0.431,0-0.275-0.038-0.127-0.016
		c0.29,0.043,0.58,0.093,0.869,0.145c2.658,0.482,5.508,1.288,7.829,2.312c1.504,0.664,3.103,1.567,4.244,2.524
		c1.262,1.058,2.184,2.251,2.627,3.675c0.26,0.834,1.362,0.981,1.828,0.238c2.941-4.691,5.803-9.518,8.106-14.559
		c0.588-1.285,1.177-2.612,1.504-3.994c0.116-0.492,0.159-0.998,0.21-1.5C45.406,17.737,45.501,16.625,45.512,15.513
		c0.012-1.29-1.988-1.289-2,0c-0.01,1.082-0.104,2.163-0.207,3.239c-0.02,0.204-0.045,0.407-0.062,0.611
		c-0.021,0.244,0.043-0.235-0.014,0.1c-0.022,0.137-0.054,0.273-0.086,0.408c-0.142,0.598-0.349,1.181-0.568,1.755
		c-0.061,0.161-0.125,0.321-0.189,0.48c-0.033,0.083-0.068,0.165-0.102,0.248c-0.115,0.277,0.078-0.182-0.043,0.098
		c-0.164,0.385-0.336,0.766-0.512,1.146c-1.507,3.265-3.287,6.405-5.101,9.507c-0.938,1.605-1.894,3.204-2.882,4.78
		c0.609,0.08,1.219,0.159,1.828,0.239c-1.074-3.448-4.18-5.7-7.313-7.178c-2.698-1.271-5.599-2.125-8.526-2.683
		c-0.502-0.097-1.063-0.249-1.579-0.249c-1.267,0-2.534,0-3.801,0c-0.694,0-1.388,0-2.082,0c-0.169,0-0.339,0-0.508,0
		c-0.059,0-0.157-0.018,0.042,0.014c-0.347-0.053-0.692-0.117-1.036-0.187c-1.023-0.209-2.109-0.529-3.015-0.933
		c-0.416-0.186-0.819-0.397-1.211-0.627c-0.185-0.108-0.364-0.225-0.542-0.343c-0.086-0.057-0.171-0.116-0.256-0.177
		c-0.028-0.02-0.322-0.24-0.203-0.146c-0.612-0.478-1.162-1.031-1.646-1.638c0.139,0.173-0.037-0.05-0.053-0.071
		c-0.051-0.068-0.099-0.139-0.148-0.207c-0.095-0.137-0.186-0.276-0.274-0.416c-0.183-0.292-0.347-0.595-0.498-0.903
		c-0.067-0.136-0.129-0.274-0.189-0.413c0.108,0.248-0.065-0.168-0.09-0.236c-0.106-0.28-0.197-0.566-0.278-0.854
		c-0.069-0.244-0.127-0.491-0.179-0.74c-0.024-0.115-0.045-0.231-0.066-0.348c-0.016-0.09-0.08-0.542-0.03-0.17
		c-0.294-2.194,0.058-4.514,1.119-6.459c1.732-3.176,5.093-5.021,8.671-5.021c2.054,0,4.107,0,6.161,0c5.288,0,10.575,0,15.862,0
		c0.679,0,1.356,0,2.033,0.029c0.278,0.012,0.557,0.03,0.834,0.053c0.143,0.012,0.283,0.026,0.426,0.042
		c0.086,0.009,0.17,0.02,0.256,0.031c-0.245-0.031,0.043,0.008,0.076,0.013c0.637,0.096,1.264,0.244,1.873,0.452
		c0.139,0.048,0.275,0.101,0.412,0.155c-0.192-0.077,0.193,0.09,0.246,0.116c0.295,0.142,0.577,0.309,0.848,0.491
		c0.051,0.034,0.1,0.068,0.148,0.103c0.242,0.172-0.148-0.123,0.086,0.065c0.145,0.115,0.28,0.24,0.413,0.368
		c0.113,0.109,0.22,0.224,0.325,0.341c0.064,0.072,0.125,0.146,0.186,0.221c-0.121-0.148,0.078,0.107,0.08,0.111
		c0.979,1.365,1.303,3.057,1.366,4.782C43.559,16.798,45.559,16.803,45.512,15.513z"/>
</g>
<g>
</g>
<g>
</g>
<g>
</g>
<g>
</g>
<g>
</g>
<g>
</g>
<g>
</g>
<g>
</g>
<g>
</g>
<g>
</g>
<g>
</g>
<g>
</g>
<g>
</g>
<g>
</g>
<g>
</g>
</svg>
