<svg version="1.1" xmlns="http://www.w3.org/2000/svg" viewBox="0 0 319.9652579322594 398.0665089775438" width="319.9652579322594" height="398.0665089775438">
  <!-- svg-source:excalidraw -->
  
  <defs>
    <style>
      @font-face {
        font-family: "Virgil";
        src: url("https://excalidraw.com/FG_Virgil.woff2");
      }
      @font-face {
        font-family: "Cascadia";
        src: url("https://excalidraw.com/Cascadia.woff2");
      }
    </style>
  </defs>
  <g><g transform="translate(11.442407727317118 93.56913989983354) rotate(0 7.751088838431087 99.2509296479578)" fill-rule="evenodd"><path d="M-0.05884486623108387 -6.3659975531373245 L15.589035878703733 -16.318306950852275 L15.22940922235875 215.18571550479868 L1.0356084523989157 201.74740481053175 L-0.3644056934863329 -4.092689991262935" stroke="none" stroke-width="0" fill="#fff" fill-rule="evenodd"></path><path d="M-1.4424077273171254 -6.3791739113637895 C6.028859570827317 -8.441359587201084, 9.939191196296404 -10.043903185577745, 15.744186779739925 -15.272225032451551 M0.328710271288881 -6.382828258887877 C7.347857386103072 -8.574305824854019, 13.054823131968096 -12.353566489012346, 16.944585404179346 -15.079905155060825 M15.395935929410726 -13.401426017329543 C15.327291841683538 53.17117232289546, 14.158890639178148 123.76786797483663, 14.941947079380824 213.01531814185842 M16.451806499556117 -15.603139864267028 C14.581518724523916 62.376358695521006, 13.447206870124688 140.27826223439158, 15.88355898055341 214.0141189226191 M16.087970523915352 214.10499916018267 C12.547201106035109 210.92308395145716, 6.656823600441748 209.55477742845298, 1.6278932174715812 202.7874720124336 M15.775016772517919 213.23461850478108 C10.564869794223892 209.73975900636543, 5.745270237608488 206.4409456325308, 1.6728416175208278 202.3398043950133 M1.6249657021322266 203.3168152218488 C-0.4893644070109084 138.60033956289587, -1.1585570762819777 72.18490997923087, 0.5854304584018762 -4.806719889669257 M1.0863727142248527 202.41840640350037 C1.7491568637005819 138.55164563989862, 1.4184575314960643 76.09971112381521, -0.8081358305080523 -5.8269772069916135 M0 -5.865459712487839 C0 -5.865459712487839, 0 -5.865459712487839, 0 -5.865459712487839 M0 -5.865459712487839 C0 -5.865459712487839, 0 -5.865459712487839, 0 -5.865459712487839" stroke="#000000" stroke-width="1" fill="none"></path></g></g><g><g transform="translate(27.62427056296167 78.62776336238267) rotate(0 48.6381938065378 114.32996257154275)" fill-rule="evenodd"><path d="M0.796227317888877 1.5696326810866594 L98.21909189677054 43.68536957475968 L97.61308280895221 168.63696204440654 L-0.7780039329081774 227.944631129673 L0.0921221791101905 1.7104786951094866" stroke="none" stroke-width="0" fill="#fff" fill-rule="evenodd"></path><path d="M-0.800010844479659 1.5572969894856215 C27.165501266279424 12.18746245471921, 55.6236171194835 23.66457116516706, 97.30060789814407 43.544271876399 M-0.1679138414295105 -0.4882687767967582 C33.440244345518494 14.99092988308221, 66.21482592259382 29.334626977342506, 99.05988050053084 43.39206168830075 M99.14014599552566 43.88777058321663 C100.35116671114227 74.46316682832826, 98.07084956517926 106.1379593808596, 96.43275059903729 168.8208572411722 M98.4529051835295 44.08653471648373 C98.24182304532312 68.78452867366732, 98.39614243524241 94.17101277826008, 98.84079165621418 169.37072822673233 M98.50048388684857 168.37439317943515 C58.52868938008142 190.6797683192936, 20.79580707219884 215.93225327132626, -0.5814323704689741 228.6505216324537 M98.22335643931049 169.15537306888015 C72.9914051599796 183.58853930037264, 49.95735089934931 198.65519408148256, -1.1261958489194512 228.37265334947247 M-1.6281031283246217 227.44936908556883 C-1.0948306603248958 162.65370394070217, -1.4121519723354363 95.82906958914232, -0.3410566033578006 -0.7877468202617477 M-1.5491592679152548 229.4476719633473 C-1.9845758380838632 155.03240631123828, -2.925451693027874 81.78287067216108, -1.249905328050648 -0.22464135519647693 M-0.7820612949983863 0 C-0.7820612949983863 0, -0.7820612949983863 0, -0.7820612949983863 0 M-0.7820612949983863 0 C-0.7820612949983863 0, -0.7820612949983863 0, -0.7820612949983863 0" stroke="#000000" stroke-width="1" fill="none"></path></g></g><g><g transform="translate(43.49134120158806 70.8063083128585) rotate(0 10.704496613730441 122.91408797352327)" fill-rule="evenodd"><path d="M1.8542967159301043 -3.214322685335092 L18.856997371704754 -13.71176546998322 L18.750502860986437 260.64626271192986 L2.219293781360444 248.26527085656332 L1.538859160616994 -5.700555204484872" stroke="none" stroke-width="0" fill="#fff" fill-rule="evenodd"></path><path d="M0.27385937981307507 -4.5049743904511255 C7.6808861243990085 -8.114705784176667, 11.62303061597551 -9.112876308109344, 21.96840044582027 -15.17397483997047 M-0.5594072183594108 -3.116934774514548 C3.5503393752895693 -6.372000439063667, 8.117560540275063 -8.184723993885632, 19.941775634938356 -14.380220920778811 M20.65375877697425 -15.735901199389389 C22.082407096158118 48.85049816632007, 20.344495538776595 115.6412159101914, 18.536585495818088 259.88527964060995 M20.80218388768938 -14.437854204809149 C21.48631901974077 80.31255034167167, 20.478912900897846 174.79494668797008, 18.981626171230616 260.189754675291 M19.03875935345217 259.07541052539904 C11.674163749963158 255.91941707913958, 7.1842147380421615 253.42136204910096, -0.13649341017955896 248.06174802908706 M19.032347401485588 261.56407714643586 C12.85274407580301 256.7023738486603, 6.146537157824573 250.77038443266974, 2.388900838596579 247.3675307020362 M1.9506690139423397 249.34479419950546 C1.5023198255331458 154.1768850797811, 0.5318625309825671 60.61429476990172, 0.5184149135108916 -2.7658257440847605 M0.7950963249509606 248.15843097961678 C-0.39467848673810657 168.01416513696753, -0.8065787302438736 87.32591514607041, 0.35131218596738845 -4.324208720671267 M0 -3.9710973473976177 C0 -3.9710973473976177, 0 -3.9710973473976177, 0 -3.9710973473976177 M0 -3.9710973473976177 C0 -3.9710973473976177, 0 -3.9710973473976177, 0 -3.9710973473976177" stroke="#000000" stroke-width="1" fill="none"></path></g></g><g><g transform="translate(62.77700251300996 55.859302669696376) rotate(0 59.30241074048547 137.99060789282112)" fill-rule="evenodd"><path d="M-2.259767226139248 1.28823453001678 L119.68692761860824 52.12716895252368 L119.33144242946554 204.44445670934894 L-0.4611408393830061 274.72836863481075 L0.8103008948171733 0.5465012174099684" stroke="none" stroke-width="0" fill="#fff" fill-rule="evenodd"></path><path d="M0.6917751178050635 -0.8112809341400862 C25.26535400456815 13.7846776717392, 55.05376484886045 23.72432402008981, 117.37842896409369 50.58861688062451 M-1.247924007671118 -0.02776679489761591 C42.60208972117684 18.433693704636198, 86.04209277143313 37.71355321320167, 118.67386226464099 52.44946759942821 M121.24361041016913 50.76220038816235 C119.48255483471135 105.28169802729495, 119.07982501145223 155.42758835457352, 119.45452694107342 205.8569165335832 M119.45405154038257 52.96599692109874 C119.39300827549349 86.02825374733496, 120.19368987063221 118.29036795892151, 118.49283101946611 203.83308462685474 M116.72554639984418 203.23721085655072 C81.25435120499606 224.97909973678452, 44.93362801405365 246.43884469415136, -0.7115459460765123 275.423463432571 M119.15201046854753 205.08427123612293 C93.38880812680988 220.0726422177276, 68.59259745462558 235.26257410141466, -1.2761400183662772 275.9029999333304 M-2.5303741284256485 276.3321440174906 C-3.12655102710249 194.62753136307228, -1.265398743426505 113.53464778108733, -0.2285239174877342 0.8254461402728169 M-2.285119774293631 276.7924967197824 C0.1023411711936722 171.7649403302291, 1.2243451793200908 66.28971997564534, -0.8342192364767675 0.38534693776901435 M-0.5294796463196876 0 C-0.5294796463196876 0, -0.5294796463196876 0, -0.5294796463196876 0 M-0.5294796463196876 0 C-0.5294796463196876 0, -0.5294796463196876 0, -0.5294796463196876 0" stroke="#000000" stroke-width="1" fill="none"></path></g></g><g><g transform="translate(80.49134120158806 47.76107348086691) rotate(0 12.206984652138999 147.01385523599663)" fill-rule="evenodd"><path d="M-0.7195904534310102 -1.3749567586651907 L22.837532981164223 -14.025229336693883 L22.78105646562719 311.3616697478498 L1.7329662043638152 296.58840061305926 L1.4875931460410357 -2.4154266435376273" stroke="none" stroke-width="0" fill="#fff" fill-rule="evenodd"></path><path d="M-0.32084876485168934 -1.7149073462656603 C8.854474152147088 -7.854657434197283, 15.76613033471201 -10.040037304197783, 23.375861356831557 -16.376207498833537 M0.7962425807490945 -2.5985638508296476 C8.569460122682983 -7.1298376337730085, 17.55693313310356 -10.74067565819755, 24.734818069129652 -14.176748157478869 M23.89021797604769 -14.019703604251339 C23.106990910062635 56.78988538757163, 20.736685984401795 128.14849777464323, 22.328111133682274 308.86007355302974 M24.161959791603923 -14.884318769284796 C21.905873155622693 60.223691421766475, 21.76904291812402 134.4141029319731, 21.917892511894735 309.0382361056558 M23.34825089392209 310.40391797082674 C17.223710296474458 305.0412439101526, 12.776440866186684 302.9342708702658, 2.1851620536334435 296.5342407072978 M21.562317506456314 309.6133716104011 C16.49018660881623 305.8680365849015, 12.176504468069796 301.73718074077465, 1.2647569814733786 295.66100246879176 M2.868384218053166 294.1083393465495 C1.9418467358720464 234.18263422881043, 2.361902084205979 174.01822713583138, 1.2038463887232083 -2.2591932477642875 M1.5004876083514094 295.01537749576534 C1.413736966863388 203.41940251691835, 1.7416012707662774 113.03648799212023, 0.6023584359464633 -1.817505977315159 M0 -2.0241791903695927 C0 -2.0241791903695927, 0 -2.0241791903695927, 0 -2.0241791903695927 M0 -2.0241791903695927 C0 -2.0241791903695927, 0 -2.0241791903695927, 0 -2.0241791903695927" stroke="#000000" stroke-width="1" fill="none"></path></g></g><g><g transform="translate(102.99591622476976 32.78406323648744) rotate(0 69.4368119609199 161.97817752703742)" fill-rule="evenodd"><path d="M-1.6538897555284642 0.9747706633061171 L141.88871735551055 63.38503467267433 L139.8718309483716 242.38402296169656 L-0.5124068539589643 324.8693275082336 L-2.175702432911887 0.5550206881016493" stroke="none" stroke-width="0" fill="#fff" fill-rule="evenodd"></path><path d="M0.591296182203994 -1.654829053208232 C34.45913069098047 15.52201385333255, 68.94746681587804 28.966919688762417, 141.82185271226462 59.7618405481247 M-0.3918356260247967 -0.41034406516700983 C48.436973483448085 22.26742047212465, 96.60481945391834 43.39351891778334, 139.92371924345042 60.96116741815636 M141.43012192689474 62.52509995898286 C138.18320054348973 107.88697314657806, 140.88525287418136 150.421956171727, 138.49171457134577 238.7863875472452 M141.01217420522715 61.77062734285423 C141.26590212014926 114.60741639250577, 140.47941845296972 168.85465541605527, 139.33795201007666 239.5137925263028 M140.2358022674212 239.64356480478304 C90.43953827896729 272.3531080472639, 39.07148721102354 303.98587072652566, -2.8652178663760424 324.3289471234606 M139.77243816081824 240.59477497297334 C88.0733292130127 271.884234600858, 34.47077185756599 304.4370174670215, -2.948228790424764 325.30863236761104 M-1.3712263102842381 325.6111841072831 C-1.8972540203185528 235.89263469293152, -1.644026843383189 144.26198743525015, -0.1928674189174765 -0.5752012236137647 M-2.6547238581423964 324.69117724991577 C-0.557306096656189 212.66319831815716, 0.45689097539227885 100.8709775874269, -0.20813612383090918 0.5715243538946484 M-0.2698905587159536 0 C-0.2698905587159536 0, -0.2698905587159536 0, -0.2698905587159536 0 M-0.2698905587159536 0 C-0.2698905587159536 0, -0.2698905587159536 0, -0.2698905587159536 0" stroke="#000000" stroke-width="1" fill="none"></path></g></g><g><g transform="translate(119.97175625321893 26.09182611094809) rotate(0 13.960021698274886 172.85610233684122)" fill-rule="evenodd"><path d="M-1.2690951507538557 -0.49202203936874866 L29.6041376311332 -13.672407569363713 L25.21421924419701 360.5771366339177 L0.9624558407813311 343.7058903556317 L-1.966643301770091 0.16118025593459606" stroke="none" stroke-width="0" fill="#fff" fill-rule="evenodd"></path><path d="M-1.0951002854853868 -1.5858806651085615 C10.944110240926966 -6.682802037689835, 21.888035022234543 -12.593989069461822, 28.725984869524837 -14.984363166615367 M-0.39484582748264074 0.3970615854486823 C7.260593492211775 -3.879674435127527, 14.203562805848199 -7.916417836211623, 28.90438608918339 -15.379089028574526 M29.088627680252436 -14.996623954166587 C25.20020425765091 134.98705234581502, 23.100036911660336 285.4974680514178, 24.390939542407896 361.09129370225696 M27.451859161947137 -14.822449329152137 C28.844509174922 89.29663260806963, 28.25956920555248 194.09412092568, 25.05033618949944 360.37179243968114 M24.527354715391994 360.93946668691933 C16.891362153021618 352.7722666758765, 5.319915700824932 345.2617012458574, 2.5115830283612013 341.6243620235473 M24.23212953004986 360.1245450368151 C17.310887932861224 353.76445302977226, 10.404698928436265 349.9159461455885, 1.7621983150020242 342.0748634627089 M1.7065332610384303 343.50064238810813 C-1.8087951650720182 214.0004971750329, -1.222431224613687 87.42140081330946, -0.9729044475144697 0.7871843150507195 M1.509630398999507 343.51887325201517 C3.9210150289496077 227.79798580335782, 2.371997911643935 111.72072723363429, -0.4223907328695758 0.3318863839472503 M0 0 C0 0, 0 0, 0 0 M0 0 C0 0, 0 0, 0 0" stroke="#000000" stroke-width="1" fill="none"></path></g></g><g><g transform="translate(145.97175625321893 11.091826110948091) rotate(0 80.60704791238891 187.9414283778238)" fill-rule="evenodd"><path d="M1.6041376311331987 1.3275924306362867 L163.214219244197 71.57713663391769 L160.96245584078133 278.7058903556317 L-3.966643301770091 376.1611802559346 L0.33213421888649464 0.4508798699826002" stroke="none" stroke-width="0" fill="#fff" fill-rule="evenodd"></path><path d="M-0.04558545537292957 -0.45551630668342113 C63.82330396278762 28.954963757349176, 129.2166332272906 57.44578623862006, 161.80558430962265 71.36020979471505 M0.559791193343699 -0.3193061063066125 C46.843657559724534 18.789780790144583, 93.3221567991283 39.35140548634344, 163.9935016790405 70.3195489635691 M162.92750154339612 71.33835458373555 C162.96072168983153 133.46368617823296, 163.1663945772939 194.64178493837832, 161.62461635967426 279.2247261413394 M163.15873051498042 70.58441104300722 C161.54357104653585 138.32250279850174, 160.76514578836571 206.37116206156543, 162.83510566332433 278.2237450893304 M162.99644428305328 277.3619872648269 C103.3210301349871 311.3418941539526, 48.410718569811436 345.43855574566874, -1.4207613486796618 376.4289378840476 M161.91347210202366 277.2118367841467 C102.28396740926428 314.7368808427825, 41.93583110084755 348.43300578072666, -1.2657915791496634 376.9746828665957 M-2.779405854262701 375.1488900936493 C-0.26785641665334425 229.25732596181095, -0.8195099404939339 82.18481229500784, 0.4405667246922503 -1.0918261109480887 M-1.4944631196340907 376.13068775624157 C0.1607091477718759 231.0384914291498, 0.8396246071503193 87.45259606278118, 0.19946363633580858 0.22171064706301769 M0 0 C0 0, 0 0, 0 0 M0 0 C0 0, 0 0, 0 0" stroke="#000000" stroke-width="1" fill="none"></path></g></g></svg>