<svg version="1.1" xmlns="http://www.w3.org/2000/svg" viewBox="0 0 161.9483718919672 226.53771687504377" width="161.9483718919672" height="226.53771687504377">
  <!-- svg-source:excalidraw -->
  
  <defs>
    <style>
      @font-face {
        font-family: "Virgil";
        src: url("https://excalidraw.com/FG_Virgil.woff2");
      }
      @font-face {
        font-family: "Cascadia";
        src: url("https://excalidraw.com/Cascadia.woff2");
      }
    </style>
  </defs>
  <g><g transform="translate(34.18803418803418 11.409511746838689) rotate(0 45.21979157927524 9.829910283335124)"><path d="M-1.6086805146187544 -0.6171211618930101 C26.878434058357627 0.5863715240445261, 57.08378510442925 -0.1814035644324954, 91.30486660235783 -0.16885297301297442 M0.12956041004508734 0.010553286410868168 C30.972855768402923 -0.5290746207420653, 62.48182424260309 -0.5037732663779331, 91.67855625105312 0.20417919733489498 M92.48945169680974 0.93824131485934 C98.99300672640457 5.831222015139284, 103.27455030027065 8.499850146608564, 111.99750427056392 17.836336697953243 M93.17823224020412 -0.9361484946969654 C100.18954709827761 6.151262188996541, 105.89165579173002 13.30933441367143, 113.24781710274806 17.68705905837794 M113.90686658669551 16.66469868602087 C85.49447398950134 19.604660108936226, 56.83282181071123 18.781077402321472, -23.467283428145038 21.069332313508937 M113.09421092637172 18.963319195935924 C63.55095350220088 19.588928249557135, 14.631023284914775 19.311072331817385, -21.61260521734266 18.24124595501388 M-22.40785092158376 20.935856533021877 C-15.16406951017241 10.950559733593115, -7.051562558608815 5.147961153519837, -1.9887180607765913 -1.4095117468386889 M-21.112608793621348 19.568615406536708 C-13.499447649380555 12.729921535201942, -4.69267474820548 5.126885075881505, -0.7201146492734551 -0.6542350789532065" stroke="#000000" stroke-width="1" fill="none"></path></g></g><g><g transform="translate(11.666666666666742 46.53771687504377) rotate(0 69.36386711212492 82.4262011845602)"><path d="M-0.8676107544451952 -0.4387278240174055 C47.223234285629836 3.3430648708837998, 96.20087795629928 1.8673800283614264, 136.22567869371005 0.5108275203140433 M-0.1655181786045432 0.2720005800947547 C32.10925203967281 0.6199906090766159, 64.8263081142147 1.1825125498490552, 137.09862986134567 0.7366404593097027 M138.38633133119174 1.3742913989456351 C137.67692216053018 64.97018856845094, 139.53641515475422 127.82587564888945, 137.65857395012347 162.79146619142278 M137.28332963513412 0.3794210016833599 C136.9059572714862 35.03427899330387, 136.8255408402496 68.96383277537996, 139.09589476645408 163.70459128638043 M140.28170522530047 163.96125026048406 C103.02633042499079 163.16597710144714, 64.79800573617494 164.51590288671952, -1.553971001050627 162.59285796489687 M138.74063940108238 165.17284942885175 C106.98218312554212 163.6286593619422, 74.91643970056067 162.8977098499459, -0.6320582536153552 164.24308941289902 M-1.0577165569283125 165.29113019313783 C-1.602568211368213 101.11007358489364, 1.3446390657551208 36.548102153611154, 0.3227104526013136 1.5562575180083513 M-0.6896222737722155 163.570272421093 C-0.015358081789416111 129.80514014775102, 1.8223821241632927 96.81284168034387, 0.12474869284778833 -0.25584754440933466" stroke="#000000" stroke-width="1" fill="none"></path></g></g><g transform="translate(11.666666666666742 30.426605763932685) rotate(0 68.05555555555554 3.8888888888888857)"><path d="M0.5442916136234999 1.5004812199622393 C32.308152073011215 0.3887917881365863, 59.45274792973779 1.4194876437541095, 135.12513900279168 -1.8596406858414412 M-0.030146940611302853 0.7770297518000007 C49.577903810319384 0.5648127110519756, 99.96062897683845 0.10853012519267691, 135.70552872876738 0.13282188680022955 M136.7426334314255 -0.00829832514541018 C136.87341785086318 2.3248154403020918, 135.63372476219922 3.668297446953751, 136.54864300549443 8.102073777777447 M136.04965732282852 0.00863025715160698 C135.86025428384954 2.9320679925278634, 136.54317655606812 5.809730685264282, 136.46101535313448 7.783222267662893 M136.31881231545572 9.722612697424154 C97.13130157477116 6.593903452390799, 60.51532212986298 9.792365879053243, 1.596440015360713 9.533759254755239 M136.8969348893604 8.277377650866072 C102.39215665264052 7.976446885486231, 68.91138144479028 8.135042000432597, 0.15392051730304956 7.675068513283293 M0.5650793869669234 8.05819939149336 C-0.15894847709892515 4.941579802168736, 0.18127443460333667 3.414233347711461, -0.6176786628655256 -0.633401848479277 M0.17338073372633905 8.15028659300878 C-0.03294644061889908 6.100932313698443, -0.02036513028045496 4.131769381722225, -0.12973464244148786 0.24574137360064502" stroke="#000000" stroke-width="1" fill="none"></path></g><g transform="translate(10 208.75993909726606) rotate(0 70.27777777777777 3.8888888888888573)"><path d="M-1.018124820664525 -1.9032182972878218 C57.652601676320444 0.3375827962894822, 112.80525985970678 -0.8631170695285415, 138.571532399911 1.2182538826018572 M0.12109358701854944 -0.6914610275998712 C30.937271998419114 0.8708942177032846, 61.26561261837681 -0.1291448531413657, 140.03010888821962 0.16392102744430304 M140.059372056793 -0.3847798780641591 C140.1176269874287 3.1715848394151935, 141.238805319731 5.5067978870744065, 140.87616429653846 7.660091541603974 M140.848511743411 -0.26741158501762263 C140.30498824129913 2.7392744676002803, 140.6402367794886 4.689155068507174, 140.8343615924629 8.135096443661734 M141.32548174406918 8.884823519529505 C91.91986262379213 8.56200221506355, 46.81978358835394 5.740250560915449, -0.82848328538239 8.06110908442895 M140.78399788267495 6.917350158819659 C93.86972887229379 8.784692438686617, 46.58804443375102 8.456049623335131, 0.08361296448856592 7.859186605343325 M0.19421925406075025 7.602057210997513 C0.27470173240742535 6.245735151900134, -0.12477630905599955 3.6191281222013667, -0.04336214137987926 0.6438512296105372 M-0.029814397760977107 7.4958723465290555 C0.10722237721913308 5.722015536855859, 0.17777638364997028 4.647310984890042, -0.2706653314849547 -0.17510499924214207" stroke="#000000" stroke-width="1" fill="none"></path></g></svg>