<svg version="1.1" xmlns="http://www.w3.org/2000/svg" viewBox="0 0 279.1084276141681 291.90622478462853" width="279.1084276141681" height="291.90622478462853">
  <!-- svg-source:excalidraw -->
  
  <defs>
    <style>
      @font-face {
        font-family: "Virgil";
        src: url("https://excalidraw.com/FG_Virgil.woff2");
      }
      @font-face {
        font-family: "Cascadia";
        src: url("https://excalidraw.com/Cascadia.woff2");
      }
    </style>
  </defs>
  <g><g transform="translate(141.1895426356691 94.14001882921211) rotate(0 54.778004989974704 47.81330261661239)" fill-rule="evenodd"><path d="M1.8317247349768877 8.601700400962248 L0.5339004199191393 -9.00893107288624 L43.41873666240263 -12.378972925467314 L41.57892050935316 -29.05911686141485 L104.61851721257403 -48.05111557431519 L110.21830086066826 145.1618543416734 L48.14366830071024 129.324230515366 L46.26564830405379 113.68765805158642 L1.6499754235831743 111.32915079501177 L4.798455429814489 89.5457572442418 L43.208683695331096 73.16758804922287 L44.95482030107069 27.43809244580034 L1.279828878119588 8.036794042243375" stroke="none" stroke-width="0" fill="#952e1b" fill-rule="evenodd"></path><path d="M1.1397151438360538 7.979489332021164 C-1.0074989402262107 3.5888851476779857, -0.20700095950431385 -1.544289660486289, 0.001741331029150417 -8.802377103164348 M0.7391319316367589 9.481587616845948 C1.0770539539467525 1.8694623233865462, -0.0416315636145993 -4.588435285188063, 0.7121243690937687 -7.583075176052252 M-0.3822377857581316 -7.916257320429336 C12.984137332638316 -11.323120788172485, 25.55512598919757 -12.653300037364142, 41.99774163185048 -13.230092708242955 M-0.03521791685526954 -6.920165510374259 C18.534175110316532 -11.113699251690388, 35.11649252912297 -12.640039134435447, 43.30319199959177 -13.835391468590023 M42.637961635036284 -13.956817836181177 C44.54828109219543 -16.424722104284186, 41.722725182322336 -21.415088291700023, 43.16108917761196 -27.433634205825765 M43.466502376265645 -13.020455960813205 C43.58723091759392 -16.57517865300192, 43.9751247928774 -19.763294977899573, 43.05021650424745 -28.00276367568412 M43.88203918157506 -27.217690038126648 C66.13705691855952 -37.930045649725734, 94.21119640613259 -45.666661892454414, 107.32723285630777 -47.63827690295875 M43.17397476235765 -28.1952700816139 C61.29806433541846 -33.582894840093736, 80.17035256412464 -39.85539070324476, 106.06655729469344 -49.70831158850342 M106.98320104554728 -50.39781412295997 C106.15617114510653 -4.212524161467179, 109.63490136887735 42.42968241611394, 109.3389501649092 146.02441935618475 M106.59234440979048 -49.43847873900086 C108.28222807541309 -9.843751758340588, 109.15143308785439 28.91682229618499, 109.55422243039563 143.431946651126 M109.93444777309402 143.28946404536322 C85.21732098925965 139.6310457322028, 63.41367632724793 131.49216640238245, 47.370201918534555 129.32849651292483 M109.93824776570752 144.71890749135122 C84.85410908995351 137.47369030064678, 60.0646417818427 130.59388627173226, 46.83561768220327 128.41282456551264 M46.91605271251348 130.06168476680617 C45.997508842664345 124.69794532081784, 47.884548493257164 120.0961159169412, 45.949713102748056 113.55754615576768 M47.369625403466216 129.33537402405034 C46.63120599945486 125.5265058271013, 46.35726981657077 123.31274953477894, 46.3866476533513 113.10050528022407 M46.74679794398809 115.26192732024816 C27.95183243018478 113.57233309331757, 12.661822898829307 110.56880803172248, 3.284387440302754 110.03160986584331 M46.45768253275866 113.37191186435399 C33.72217166282136 112.77644321173122, 23.416706598632363 111.85540196632027, 2.8323207682681923 110.32128408551867 M4.943590492823506 109.42215809506084 C3.729451453099832 101.2368067461053, 1.6960137434436997 98.02067565310955, 5.219724813095958 88.64015762404856 M3.6763146704746132 110.75093749166186 C3.295983715373379 101.55306182882286, 4.364586952529127 94.46026486622107, 3.393428203269572 89.47650469457116 M4.492285409562022 90.41270963744577 C12.671517258637266 84.49541174688993, 18.28358495701905 83.16308131691198, 44.58048766075063 71.51680281539743 M4.680621263190837 89.572700153937 C17.481299201742186 82.44499815995106, 30.464181001535184 77.47699809920121, 43.67844877640146 71.19781639674042 M44.267675332412004 71.75290158172433 C44.17649636717376 55.14757438836749, 40.86709014626083 37.26371516681241, 41.986002079829454 27.61373491011027 M42.92617497841257 72.18931367495392 C43.10475006185358 58.0390152759397, 44.04905878983324 45.76191538614178, 43.72635580102342 26.228210664199924 M43.342211357936144 25.191798398116863 C32.61699716321728 22.857450050206985, 24.429827828055124 20.37720099057403, 1.0954914670437574 9.88562400083126 M44.100386629499376 25.07033202688608 C29.10413194232867 20.87441975638159, 17.25897512947955 15.372361401573343, 0.36894957814365625 8.982104904046967 M0 9.417018331615939 C0 9.417018331615939, 0 9.417018331615939, 0 9.417018331615939 M0 9.417018331615939 C0 9.417018331615939, 0 9.417018331615939, 0 9.417018331615939" stroke="#000000" stroke-width="1" fill="none"></path></g></g><g><g transform="translate(123.55999923992846 93.5797954497266) rotate(0 -34.509877015760736 54.00134997012516)" fill-rule="evenodd"><path d="M16.746240591015706 8.804416306198199 L19.167342101540456 -6.312358845438432 L-23.540969951043948 -11.098113995269859 L-22.170862830233244 -25.527195995379063 L-92.39410736970603 -41.956843079999075 L-89.19280581562961 151.49026497525074 L-17.17906695987571 130.8210100406825 L-16.600944397170466 116.1189845178865 L23.267395993846243 110.49072247603084 L21.135778388160055 89.70022547561945 L-18.691075865286475 74.77041102765257 L-19.586293833390275 24.274008767807988 L17.25875208279122 8.246635801971514" stroke="none" stroke-width="0" fill="#e04d35" fill-rule="evenodd"></path><path d="M19.083448023286277 9.201542908620533 C16.33223313990486 2.912977084029219, 18.549570498212663 -3.032839512672914, 16.616675579154727 -8.475937496066475 M17.175551741700044 7.816918540453569 C18.633259764136138 3.581203022025239, 18.170559189208845 -0.41725665148300645, 17.56061937686971 -7.4695792816529405 M18.15108883505691 -9.87378527265377 C10.487040636265506 -7.954156481421856, -0.6707628249451538 -7.923878532681359, -21.78404964689456 -10.798112400100553 M18.223390598166773 -7.795378196466338 C3.9576281218120695 -10.416072940834324, -8.66817281849033 -10.576770101106469, -21.35309651397459 -12.259433220365072 M-21.283425209730026 -13.068955549496755 C-21.167901707464033 -14.80963657007043, -21.985190527098712 -17.98937334517506, -22.123313408504863 -26.870311836230023 M-21.842399379073196 -12.943220040737513 C-21.592125099591733 -17.096284375717946, -22.199559210773458 -20.962856950986122, -21.402408896359116 -26.500995518596557 M-20.339715908270744 -26.234125943559977 C-43.693068519053675 -29.988687049751555, -63.653084639635296 -35.87520283992458, -91.07904011197388 -42.345245091244564 M-22.029289357353417 -25.634086613248858 C-38.03241828179722 -29.315439185702964, -54.0284184219447 -34.03485656964486, -91.9636063715443 -41.24316081497817 M-90.08368593640625 -43.60383626632391 C-90.79095694343833 2.988957868285432, -90.54468370689825 51.59221219096188, -90.35888656242932 151.60653620657422 M-91.63802982773632 -41.33781465981154 C-91.1778958157823 34.39735171445147, -90.15375363827087 111.99159856601887, -87.77058917763824 151.30959745661266 M-88.10662015541638 150.75826912817456 C-64.96958115283698 145.4360597246684, -42.0156011297047 136.7552825692545, -17.266378261256104 132.21718110759252 M-88.25327831986542 151.42201300875195 C-66.6696164299738 145.91317819648404, -46.970088776557326 140.26103927565606, -18.51921736180324 132.4209585968449 M-18.516929484225283 131.1854597426268 C-17.149299706285696 126.17517468570107, -18.669949908057188 120.81486405728606, -16.91723653742084 115.27993707004518 M-19.130100785843908 131.42726202802325 C-18.056342234349515 126.38627502061661, -17.434707317658805 120.78509664681177, -18.53169188130813 117.04027178011967 M-16.568878323901814 115.98040726898537 C-6.023631756893568 114.09421823932435, 4.483853662256575 115.03821783008652, 22.444133745657986 110.7987401806667 M-17.03018422251604 116.2833752615966 C-6.4134071214919 114.48443372832199, 4.930606888028937 113.06103130938935, 22.943852340022808 110.71500876498516 M22.399754034506863 112.5457032048061 C21.216093758971578 106.93142500426266, 20.335505287082082 98.22172024427098, 20.013909028994625 87.94438920114459 M21.577870045940166 111.38369110179241 C21.49998970085867 104.81252145597274, 21.18753115588911 97.73002883499439, 22.928061549703365 89.00071633272142 M21.025269674288815 91.33409819696368 C10.581709578812086 85.35268619615957, -3.0139992362101644 80.50171810169931, -20.019408322977906 74.83434580458457 M22.776274507085567 90.08838212900133 C13.654465335718823 86.12162046145423, 3.711446787974598 82.63074109271138, -19.425842513437455 74.84953813167418 M-17.869787789988404 75.16709374083335 C-18.66661584813991 61.05428108818444, -21.09917174127952 47.50842987530594, -18.593154361531536 24.109454861039428 M-18.73672532021541 75.22557215305174 C-19.56353276579772 58.02659153414086, -19.179637985002465 44.048555428845404, -20.653126808874706 25.179449158849327 M-19.76962940959672 26.482409706467894 C-7.458357245725633 20.684086199601644, 0.8060895098948819 15.286202220645565, 17.1581832779013 9.68985496076997 M-20.347958895437817 25.939798670949546 C-10.820613824776864 22.31177152924114, -4.279767555405865 18.377189870252504, 18.454219807256052 8.669163443960805 M17.771603825818787 8.113123485699852 C17.771603825818787 8.113123485699852, 17.771603825818787 8.113123485699852, 17.771603825818787 8.113123485699852 M17.771603825818787 8.113123485699852 C17.771603825818787 8.113123485699852, 17.771603825818787 8.113123485699852, 17.771603825818787 8.113123485699852" stroke="#000000" stroke-width="1" fill="none"></path></g></g><g><g transform="translate(136.07266456059318 10.244592322967947) rotate(0 -13.510118321862706 36.59869592445105)" fill-rule="evenodd"><path d="M8.314497213430975 1.5994987208396196 L-33.98186173533588 21.431328182205398 L-35.03864738595976 73.20079281822115 L8.45367089993534 62.98229141096724 L5.626848678656196 -1.8829233925789595" stroke="none" stroke-width="0" fill="#952e1b" fill-rule="evenodd"></path><path d="M7.499915912367677 0.9455150943249464 C-7.146873506173247 9.096445071011418, -22.917036528806044 15.375010250893569, -34.8534987481454 22.641082854106862 M6.227886062667047 0.7926401952281594 C-3.4026168407436757 4.525314384469659, -12.576331785807492 9.001688672544741, -35.31505965591907 20.634503711111684 M-34.84496956189662 22.353432268932302 C-33.59487293481688 41.77176649855744, -33.88227020169135 63.32420701141498, -31.745153545116324 73.44198417187005 M-35.05816625954151 21.13564025247826 C-35.970390475184644 38.13501555941835, -34.79049679692463 53.7293931677341, -34.092586310294706 72.51497624617338 M-31.571417449687857 71.8570465993908 C-17.56722463665477 69.37176863274755, -6.387663244814018 65.0166936123125, 6.769919648386812 62.62562791193975 M-33.51387742319449 73.3716654608798 C-25.131768753889933 71.53271101645821, -16.061816912633105 68.83860183513808, 7.258314740464365 63.94511758751376 M5.502905621744966 62.591547883405816 C8.295225569491791 46.70248679318961, 8.451175102477478 31.50800387374977, 8.340810373045777 -0.2379735130816698 M7.731348883912241 63.77625595993502 C6.478229780685246 42.05446240708061, 5.937820722352803 20.498273445595828, 5.908003788993036 -0.24459232296794653 M6.835232240699505 0 C6.835232240699505 0, 6.835232240699505 0, 6.835232240699505 0 M6.835232240699505 0 C6.835232240699505 0, 6.835232240699505 0, 6.835232240699505 0" stroke="#000000" stroke-width="1" fill="none"></path></g></g><g><g transform="translate(141.88864861063468 12.014155552186416) rotate(0 22.01033250663312 34.91451951071564)" fill-rule="evenodd"><path d="M1.4027536492794752 0.32140436954796314 L0.5146004729595721 61.269096750197384 L44.710416158696184 69.40705083221086 L40.88145492580177 14.63788654776161 L1.4049168210476637 0.7398687917739153" stroke="none" stroke-width="0" fill="#e04d35" fill-rule="evenodd"></path><path d="M0.9591181594878435 1.5926766376942396 C0.9239651549279415 19.604061071349744, 1.9867199621350193 39.91129592640255, 0.5823678285506309 60.46711848619339 M-0.46513614151626825 -0.5866871317848563 C0.38611204867717563 21.56588754387716, 1.1643388229510145 44.55718008664506, 3.0005563082796276 60.84322348459569 M3.4009708673384726 61.25440381410477 C15.92028313322458 64.36219302775046, 30.866375003388104 66.69022755762913, 43.258248144795665 67.80485184028633 M1.3625446143251598 62.3807446084818 C12.365926456749406 63.91816261165487, 22.21258058355916 64.73932596259776, 43.65866684078939 70.41572615321614 M44.736686999013195 69.52678377464302 C40.62953098478136 49.82404249104465, 41.78717307488288 31.1610203065921, 40.37769336980225 17.563816895055226 M42.903749934432575 69.8217394035671 C43.04697178029956 56.01322493534333, 42.996440808094924 43.8125692076461, 41.46382300258072 16.12732074437534 M43.30063600819947 14.927914967107228 C31.432049923764502 9.849478039752915, 19.436289811099023 6.601507619229356, 0.7805500347167253 1.9307258110493422 M42.34419814944656 16.716035105566135 C33.09966804093678 13.459933924205684, 23.90241366325285 9.747400171219407, -0.7160219857469201 0.9027260104194283 M0 0 C0 0, 0 0, 0 0 M0 0 C0 0, 0 0, 0 0" stroke="#000000" stroke-width="1" fill="none"></path></g></g><g><g transform="translate(28.08532200859173 49.84664146958481) rotate(0 -5.120401432483874 96.90192810143782)" fill-rule="evenodd"><path d="M5.162520719486305 -1.3366290349513292 L-18.941842508625825 9.499354665642878 L-12.61010779117654 179.59381816525453 L6.757404485417264 193.40549874632563 L5.511038852649757 1.982176898047328" stroke="none" stroke-width="0" fill="#952e1b" fill-rule="evenodd"></path><path d="M3.0052556188581674 1.3196985442191362 C-5.547541811667394 3.2047177254525954, -13.083116687383441 7.805079599558405, -18.08532200859173 10.60041181138744 M3.9643381804032414 -0.805973113514483 C-0.9470367366321595 3.0054756690265783, -7.393257590755415 4.233139942199013, -17.532028613735577 10.62587491284152 M-17.076112852555354 10.135582843339344 C-17.33291567569113 62.66965805644148, -15.835111300218546 113.9112598425184, -14.785863683125479 181.6811578980505 M-17.560547528911968 9.98932043324252 C-15.387077627947757 50.893469852129314, -15.82859424216069 92.4939254949214, -15.337354806749625 180.65312943689966 M-13.70919542064379 181.53485615168208 C-6.09370374630402 185.7730533930355, 2.2726436082048487 190.0515546434212, 7.844519143623965 193.51716504200306 M-14.876287845461173 180.81641779177332 C-7.275787950868631 186.19602246633426, -2.3148739660503477 189.37618092204184, 6.100927942132311 194.62627783837672 M4.946166043800967 195.11468348606434 C6.8797678440943155 134.18543822620086, 3.3738243001461425 70.25434884640197, 5.18961826877577 -1.3108272831887007 M5.740789764260607 194.39629379334804 C5.267351813561255 125.51071024595477, 3.393818720002894 57.9713432215859, 3.826493021826276 -0.7296227822080255 M3.5778288056878536 0 C3.5778288056878536 0, 3.5778288056878536 0, 3.5778288056878536 0 M3.5778288056878536 0 C3.5778288056878536 0, 3.5778288056878536 0, 3.5778288056878536 0" stroke="#000000" stroke-width="1" fill="none"></path></g></g><g><g transform="translate(247.0425122294701 44.15020313220349) rotate(0 10.363281178937882 98.21378531582843)" fill-rule="evenodd"><path d="M-0.49799528531730175 1.269582448527217 L20.149109972077657 12.978159189946147 L19.137401652890492 185.06974568843123 L2.8214503057223865 196.44843052599958 L-0.49361625127494335 0.6499347072094679" stroke="none" stroke-width="0" fill="#e04d35" fill-rule="evenodd"></path><path d="M1.1484416108578444 0.42499771900475025 C3.0966243866243897 3.6495783566261446, 9.733370383476615 3.43035861660376, 19.336485484051753 10.781497691548559 M-0.06949181761592627 -0.4395281383767724 C5.463054215777832 3.0833234351000502, 12.05480162771162 7.2116633730073145, 20.11978059671377 11.21988099978784 M21.962439635205318 12.214328025258276 C20.917588394304428 46.402569178075645, 21.713778715749893 84.44820359566353, 22.065915384697963 183.35609376683112 M19.914847191791285 10.879491986497435 C20.58937317866183 58.39592805550173, 21.189272917688854 104.67511951848795, 20.53824636004423 183.24460470649626 M21.58696536104684 183.95950210347053 C14.206593844835234 185.1131864002508, 11.913402882661106 191.64976530672172, 2.2824650198144028 195.08969446171454 M20.08486172221159 183.9147518870535 C15.644245855189356 186.53340302530373, 10.215860568051312 190.10705471538077, 4.155374941035838 196.3245017416068 M2.828005352608592 196.86709877003364 C2.5237202751771157 149.56524037776, -0.8648435171647533 103.59194379225555, -1.3393530268222094 0.09004226513206959 M4.18181055466804 196.39800738163672 C3.1905991167623577 153.08531578089517, 1.9780779256052217 108.53082448475631, 0.3885683277621865 0.581749408505857 M0 0 C0 0, 0 0, 0 0 M0 0 C0 0, 0 0, 0 0" stroke="#000000" stroke-width="1" fill="none"></path></g></g><g><g transform="translate(101.2690977929837 80.67811120023372) rotate(0 41.072767161510114 -2.125800494662945)" fill-rule="evenodd"><path d="M-1.4896775502711535 1.5580749239430047 L42.09442301307031 5.978846769379731 L82.31348891412316 -1.9354648787145148 L42.706941671899244 -8.490900438995368 L-1.7935522813349962 1.2209317411884881" stroke="none" stroke-width="0" fill="#681d12" fill-rule="evenodd"></path><path d="M0.09397813864052296 2.2018343794748403 C14.609232087962784 4.569688434553205, 26.712533271173616 3.5892730939043354, 41.801641276368585 5.111634440319892 M0.025461613200604916 0.8406348691910721 C15.399508077950632 3.268232268442789, 31.67731515448112 4.815830881068811, 40.76601915367105 6.5961497077441775 M40.85170488644549 6.732156462567207 C57.82541677708693 4.0838149419823075, 71.77803386294865 -0.19229560904299792, 82.56594972541032 0.600356764012145 M40.448190260009554 6.677623773524817 C52.99776834395019 3.1037635204613307, 67.13253929572812 2.745739862370144, 84.07990916022507 0.9362347068648209 M81.94235305716691 -1.034416013545228 C74.02680083243284 -2.8383016959499905, 63.02568684708507 -3.1246906629457456, 40.29073588200538 -9.160584405781037 M83.74551685103623 -0.5149221477646957 C71.5249245446376 -2.1125822493800905, 58.03852017371822 -5.825179852688984, 41.18504641321181 -9.896932540246553 M42.66877190419166 -10.983757451893098 C32.008179760118566 -6.900064729245075, 20.417050587043025 -1.8337384516617847, -1.934374837204814 3.5753373492166616 M41.01597545412062 -9.121198830911226 C26.168132312565938 -5.598815224169195, 12.1446598411076 -0.6555825074703661, -0.5127510437741876 2.7774700389832474 M0 1.7831040627911903 C0 1.7831040627911903, 0 1.7831040627911903, 0 1.7831040627911903 M0 1.7831040627911903 C0 1.7831040627911903, 0 1.7831040627911903, 0 1.7831040627911903" stroke="#000000" stroke-width="1" fill="none"></path></g></g><g><g transform="translate(136.58457309669933 102.88462123657878) rotate(0 -12.015115869066761 40.15569899640798)" fill-rule="evenodd"><path d="M8.07649862266655 -1.4566026609390974 L7.2359660299064705 80.73631679340838 L-32.83564465612327 64.51227775178523 L-32.49363184161484 16.056237524758938 L8.144152517090989 0.26453510113060474" stroke="none" stroke-width="0" fill="#952e1b" fill-rule="evenodd"></path><path d="M6.032575695435954 0.3397769909352064 C7.140249833084144 23.763835566202957, 6.649401338033168 49.19696131498829, 8.657730616027315 78.73465343266366 M5.752745117652667 0.6379568139091134 C6.481098789452356 24.12323010958467, 5.874465457299465 47.626492083144136, 7.094190780402918 81.10324800740568 M8.640274084502657 80.09042020588754 C-6.057299406326194 76.53939287922374, -21.116912352308002 70.10408831814206, -31.713051279337755 65.21716856546374 M7.7619041841047 80.29695809613554 C-6.7162561809950985 75.16053417859082, -20.337483735522056 69.41048717109088, -30.490398191177896 65.90438713002624 M-31.902703245432726 66.52711319513293 C-30.301399669446724 53.311781920309336, -33.368927199653825 37.689789428062284, -30.368860034272075 16.91614976749933 M-30.992324374878457 65.42557372022094 C-32.513423050865406 54.264324869878465, -32.63104853082872 41.729593636200505, -32.33109384868294 17.927694340620103 M-31.071039466187358 18.012791784863833 C-25.185461129148983 13.069194241510719, -15.57128980528876 11.72884560070507, 7.472598879258586 -0.30111670680344105 M-32.687962354160845 17.52806641665465 C-18.400711374822478 12.1868078824935, -5.7208857035818745 4.834990882478506, 7.07781752537514 -0.7918500145897269 M6.157281216825796 0 C6.157281216825796 0, 6.157281216825796 0, 6.157281216825796 0 M6.157281216825796 0 C6.157281216825796 0, 6.157281216825796 0, 6.157281216825796 0" stroke="#000000" stroke-width="1" fill="none"></path></g></g><g><g transform="translate(142.56809100744812 103.09598476736849) rotate(0 21.38932298726661 40.71601123600216)" fill-rule="evenodd"><path d="M1.2850548345595598 -1.1180809754878283 L2.60469423554529 82.84365283148263 L44.11888565397405 61.757343584314825 L42.56180602452609 17.052355372210904 L-0.16083010844886303 0.569835064932704" stroke="none" stroke-width="0" fill="#e04d35" fill-rule="evenodd"></path><path d="M-1.7124998588114977 -0.08068468980491161 C2.573994010246456 32.716281810087125, -0.03678369856658459 64.72530027127395, 2.7416221643208387 80.49170275600527 M-0.774234457872808 0.9284840216860175 C0.6914846694050873 18.043881516152787, 0.17195695271718126 37.76241952152971, 0.958214762096 81.63298996081475 M2.7058484102009657 81.65681763561342 C12.50692980086774 77.92206377515967, 23.279878038814772 71.42008502542103, 44.49114583334469 63.12846198456073 M1.0991599582477334 81.19855340113763 C10.482402596492769 76.29851480077987, 21.634601299891003 71.58586955113836, 42.008963586711815 61.7092347690993 M41.79431556067013 60.43436971084857 C42.61522429321763 50.69037864919489, 42.08938623919174 43.389739818711, 42.2091743028805 15.166519817760154 M42.76937747182839 61.64788323139483 C41.86713025887553 46.667048950211665, 42.4282554458129 31.79380756082613, 41.31065262901488 16.626800650594696 M39.24630704290125 18.601013359477683 C28.4249562341137 12.46180187357629, 17.939869348290618 7.285606803687269, -0.9463806170970201 1.2612321097403765 M40.6609941874713 16.964168900487884 C27.649885680391918 11.036884874909987, 13.114906892042814 5.152388038877634, -0.8462684592232108 -0.22479516360908747 M0 0 C0 0, 0 0, 0 0 M0 0 C0 0, 0 0, 0 0" stroke="#000000" stroke-width="1" fill="none"></path></g></g><g><g transform="translate(180.87233964163755 207.8661157035438) rotate(180 -13.971123117498621 36.75498138921469)" fill-rule="evenodd"><path d="M7.818569998808479 -1.3030783217400312 L-36.27828409766346 22.827476267799575 L-33.57440766942992 73.51614943042665 L7.032698671885108 63.231871198221576 L5.092759232588386 1.0854254681617022" stroke="none" stroke-width="0" fill="#e04d35" fill-rule="evenodd"></path><path d="M6.2277786280888074 1.6066656690090895 C-2.88721997097295 2.953638240035244, -11.879657102085524 7.504768925695368, -33.39413349946528 19.66100189192577 M7.808505219027674 0.859936879016459 C-3.9314185795587093 5.230166825734562, -14.038764211716583 10.830450459126693, -34.39715831877231 20.649949122316976 M-36.63886969407588 21.000151843860586 C-33.05720455019438 38.325112775147794, -35.42422969863513 58.417288378332096, -34.2690989958991 72.0711294364956 M-35.84590762259006 22.072304535753865 C-36.30800627391039 34.975545065294945, -35.369143013293275 49.795914619359856, -34.12379500427588 74.04010908108472 M-34.29296421883001 72.07295333862572 C-20.670472856634856 71.56776498888938, -6.003398347447899 66.62387843869054, 8.696623459078644 62.54527381743444 M-34.06762334862097 73.50209919911146 C-22.529214073436286 70.74681398122674, -12.10046451285061 68.00020582097162, 7.1166800973865145 63.09926157659991 M7.693922176577424 65.15166620100987 C7.536482925860822 52.26047509489587, 4.9330521182703375 37.01564438612071, 5.7732171561497205 -0.5301463026553392 M7.297157478139078 62.922907883591485 C6.492059771868687 40.19911776159518, 6.254161928746205 17.49218955518726, 6.590330403849756 0.3434334257617593 M6.835232240699505 0 C6.835232240699505 0, 6.835232240699505 0, 6.835232240699505 0 M6.835232240699505 0 C6.835232240699505 0, 6.835232240699505 0, 6.835232240699505 0" stroke="#000000" stroke-width="1" fill="none"></path></g></g><g><g transform="translate(103.60575917393442 210.72688105099104) rotate(180 21.776132652553514 34.40066275654304)" fill-rule="evenodd"><path d="M1.4595534522086382 -1.8953084368258715 L1.5707240015891135 61.407947226790164 L43.161771768738994 70.79370320871361 L43.97832109015824 15.464506198930195 L-0.8379016201943159 1.650891600176692" stroke="none" stroke-width="0" fill="#952e1b" fill-rule="evenodd"></path><path d="M-0.6487048286944628 -1.6307859104126692 C0.6875596847531417 15.178467244735707, 0.34028996619835594 25.188397077846563, 0.9943863921490252 61.01520194428918 M0.5698965648189187 -0.5229196259751916 C1.3285344120656108 23.21171258637134, 1.1117231384610415 48.58115073074348, 2.972583865250343 60.58542601800469 M1.8319189124432147 61.54748906510827 C14.78924785100367 64.85445127154301, 29.60368712537133 66.33206375408649, 43.03767772581197 68.65015707820542 M1.9858358851325453 61.2736777517846 C12.638815131959404 62.433206402296584, 22.581015691053363 65.73715830848745, 43.889746495557496 68.8617414646212 M44.20097013380147 69.9379831394542 C41.87100145171479 54.02044750669653, 42.34055636140669 36.48881936279654, 42.083917360570446 14.702075266557387 M42.65015275127954 70.43211142349877 C42.120231896091134 54.42069820578719, 41.621051188207375 39.052435491964246, 41.15268713124485 17.287675490880957 M41.10861418750526 15.842608236985853 C30.655963102099058 12.601356244164558, 23.593206017166455 8.130486269802784, 1.847341476008296 1.0203883964568377 M41.43539410718174 15.836110940481177 C32.08277249170737 12.01102693461188, 20.553963142003024 7.659667305704769, 0.9431407311931252 0.34623542334884405 M0 0 C0 0, 0 0, 0 0 M0 0 C0 0, 0 0, 0 0" stroke="#000000" stroke-width="1" fill="none"></path></g></g><g><g transform="translate(100.3152338610983 211.0830937788246) rotate(180 42.179077298126344 -1.1830702131609314)" fill-rule="evenodd"><path d="M-0.4411953967064619 0.8401096451685048 L41.19245128918597 6.901763148205634 L84.41001121928392 -0.7072724636260996 L40.78301040478675 -10.577095226169831 L-0.5021239798516035 3.756472646038256" stroke="none" stroke-width="0" fill="#f1b2a7" fill-rule="evenodd"></path><path d="M1.650891600176692 -0.028463808108844635 C17.748013587893496 4.105612704295478, 32.6504398192757 4.643023153843869, 39.02017905030557 5.148520152615663 M0.6163788298144937 1.0055980382144667 C7.2909263356855085 2.7027909118536257, 16.478171646857604 4.565698567138785, 40.445406173618224 6.286989577645715 M42.397842185834136 8.32573525195038 C51.19123479673133 3.8663045957057793, 58.53862507663649 3.6358886249225804, 82.1147414580494 0.3260829847689141 M40.56188390150824 6.78339255654281 C53.60724656600347 4.032604666541172, 69.16654324104805 1.5021307253123108, 83.50184685127286 -0.7094807253767381 M81.53593791877327 0.9004385870333185 C68.48383489344765 -1.9726691786513237, 51.39502088414241 -6.657464224218164, 39.618996508649275 -10.691875678272254 M84.35815459625272 0.12167719736801282 C72.89233779378011 -1.6184530042613727, 62.99226613476411 -4.117866217768247, 41.15462091122447 -8.566338971042342 M42.963120825818464 -10.466961604328162 C25.776076133320135 -5.8237051008502085, 10.931847806844829 -0.9539036075774909, 0.9637561421841383 3.2558434333309747 M41.60403015766917 -9.132603838824934 C32.374972690508244 -7.289739647717173, 22.05613603016719 -3.757638256651873, 0.8430546978488564 0.8764239249408461 M0 1.7831040627911903 C0 1.7831040627911903, 0 1.7831040627911903, 0 1.7831040627911903 M0 1.7831040627911903 C0 1.7831040627911903, 0 1.7831040627911903, 0 1.7831040627911903" stroke="#000000" stroke-width="1" fill="none"></path></g></g></svg>