<svg version="1.1" xmlns="http://www.w3.org/2000/svg" viewBox="0 0 237.37893027073903 279.561798305369" width="237.37893027073903" height="279.561798305369">
  <!-- svg-source:excalidraw -->
  
  <defs>
    <style>
      @font-face {
        font-family: "Virgil";
        src: url("https://excalidraw.com/FG_Virgil.woff2");
      }
      @font-face {
        font-family: "Cascadia";
        src: url("https://excalidraw.com/Cascadia.woff2");
      }
    </style>
  </defs>
  <g><g transform="translate(11.23231321759522 53.50731832012087) rotate(0 15.00422671250999 87.58030642029152)" fill-rule="evenodd"><path d="M0.4704498965293169 -0.31890799240879275 L31.422503860667348 -25.316141726449132 L29.522722573950887 201.34131123256446 L-0.8646971862763166 177.7250839442177 L-0.4048555176705122 -0.18655683235935427" stroke="none" stroke-width="0" fill="#0c416f" fill-rule="evenodd"></path><path d="M-1.2323132175952196 -2.3971898979108737 C9.25882822496485 -9.066650448840093, 17.33415359023627 -14.244359952554818, 31.2407666426152 -25.953394321724772 M0.23385308776050806 -1.0834640715803907 C9.280317783482062 -8.234152698317143, 17.02844691894545 -14.736643141567656, 30.59592737350613 -24.989753485657275 M30.663570587611584 -24.95103420116791 C31.045598367913826 34.13192183462129, 30.66042500510155 94.18956433005212, 28.570895314047004 199.92449419031107 M30.546616189803988 -24.629903063741622 C29.821803750416127 39.71691416669225, 29.52556089501349 104.22787654539665, 28.72386312632361 200.8293951302172 M27.667672453448176 200.21694444623353 C20.015903008270406 193.9335308954108, 9.769924000564359 183.85123720056566, 1.7429823856800795 177.02570185141397 M28.204576537944376 201.11400716230781 C20.98424781823751 193.3762898346101, 13.782121586075391 187.51193601396713, 1.22540517244488 177.05604177510125 M1.184122083708644 176.2800653882487 C0.8862265785500063 120.41951520292312, 0.09448565582704083 59.51571403348575, -0.6542661804705858 0.5113391452867582 M1.2085821190848947 176.99043303524834 C0.20951449826902657 111.14741230783972, 0.23273966873607543 47.147388090409635, -0.9776042839512229 -1.3422539685454176 M0 -1.405863359064977 C0 -1.405863359064977, 0 -1.405863359064977, 0 -1.405863359064977 M0 -1.405863359064977 C0 -1.405863359064977, 0 -1.405863359064977, 0 -1.405863359064977" stroke="#000000" stroke-width="1" fill="none"></path></g></g><g><g transform="translate(41.21270246405402 29.54857303081846) rotate(0 22.114456881273952 110.38689140560953)" fill-rule="evenodd"><path d="M-1.0119175955520263 -1.8681955322750206 L45.040050947805575 -18.781012324616313 L44.77283808266317 240.04323551157484 L-2.3919767159968615 222.75677979456555 L0.9386556103958497 -1.748971222353756" stroke="none" stroke-width="0" fill="#125295" fill-rule="evenodd"></path><path d="M1.7853915386034855 -0.9589807115622158 C16.110463351421163 -7.095744387101505, 36.12262177911815 -13.370744622285407, 46.62172740488284 -17.67675274796784 M-0.23167345280361085 -0.7031809235118622 C13.229525199315338 -5.5391428774507965, 25.630001146749965 -10.739350730412102, 47.429868484614126 -17.89869303908199 M45.96212243446879 -19.239442463331493 C47.628862291771476 64.00586314356242, 46.10720420128315 146.54596096684293, 43.880182029759766 240.01322527455054 M46.276197847537404 -18.20815935392887 C47.061930099189624 75.98396998904353, 47.11547953420098 168.88848072366986, 45.71217152542857 238.49892169811505 M45.2012779121617 237.26224523508915 C24.905700810346044 233.56692010769933, 6.280714199054778 229.1652755365313, -2.461327461525798 223.12694236727725 M45.33917075166052 239.487500682529 C28.05561396708798 233.16380046182084, 11.084361376443042 228.85194953836822, -2.3162579545751214 223.77711238337974 M-2.567651487015364 223.34641523764188 C-3.3655328793763504 170.72806429517374, -3.8033422771167458 116.84217655011646, -1.51670658079112 -2.3227707122226917 M-2.0131378642650413 223.1967925673954 C-1.4099838073832938 137.45797149743242, -0.13173973825954505 50.174677894756165, -0.271383388302869 -0.651217997643587 M0.0007982824130663424 -1.0600502792872781 C0.0007982824130663424 -1.0600502792872781, 0.0007982824130663424 -1.0600502792872781, 0.0007982824130663424 -1.0600502792872781 M0.0007982824130663424 -1.0600502792872781 C0.0007982824130663424 -1.0600502792872781, 0.0007982824130663424 -1.0600502792872781, 0.0007982824130663424 -1.0600502792872781" stroke="#000000" stroke-width="1" fill="none"></path></g></g><g><g transform="translate(88.2721205898954 12.605946168779411) rotate(0 30.430908028913905 127.58593905572371)" fill-rule="evenodd"><path d="M1.444113361493791 1.2602959123909265 L62.336994076091386 -0.27054488845169544 L60.458514162438405 256.0165609364423 L-3.591427294537425 255.06830639750984 L1.875906335965837 0.33896665251849" stroke="none" stroke-width="0" fill="#1e6cb5" fill-rule="evenodd"></path><path d="M-1.356028006567513 -0.36368177481891806 C15.85096721906287 -1.1844079803312622, 32.052352194427534 -0.24846607027248102, 63.100267520118095 -0.2981282752007246 M-0.7211830598925104 0.23673917423037594 C19.64324088283133 0.6925288268020395, 37.800774459615994 -0.03873075539944948, 64.92106963036541 -0.3594645271077752 M65.05967705486822 0.5672303991109355 C64.71446702263913 58.94181582383101, 62.02322996745586 116.29548385591744, 62.33616589868952 254.4297156392581 M63.67047199946797 -0.9669674270825551 C64.28645528128894 82.16058007817655, 63.16256968765455 167.37104114516032, 61.26091544027662 255.48195349684627 M61.36979428409268 256.41931330980987 C40.395802406365064 254.50021305453836, 17.53417151219292 254.8689325775804, -3.6838176269084215 255.294572517139 M61.07964184145112 254.4707545592475 C41.636017608312265 255.07648871257956, 21.99307482470816 255.08341379856344, -2.554974957369268 255.65907384162125 M-4.197860997040332 255.0542307725572 C-1.685812283842982 159.7519994068045, -1.1912840922985328 60.10529358959003, -0.37041541417611884 -1.247435198362373 M-3.192273897418904 255.41560561153545 C-2.539920537467802 188.04811996918707, -1.70968639533711 121.53356005950938, 0.24839775474570014 0.49441147869065727 M-0.0032425962080111503 -0.05913831130566294 C-0.0032425962080111503 -0.05913831130566294, -0.0032425962080111503 -0.05913831130566294, -0.0032425962080111503 -0.05913831130566294 M-0.0032425962080111503 -0.05913831130566294 C-0.0032425962080111503 -0.05913831130566294, -0.0032425962080111503 -0.05913831130566294, -0.0032425962080111503 -0.05913831130566294" stroke="#000000" stroke-width="1" fill="none"></path></g></g><g><g transform="translate(153.61507664663168 29.58040272281329) rotate(0.6686061280354357 21.22491835947136 110.17568685133742)" fill-rule="evenodd"><path d="M42.11967633804633 -2.2464438930147965 L-2.9857956785708666 -19.343200294300914 L-1.7349309615115769 240.06934570441294 L43.400162298582494 223.00980563564033 L40.8040370806153 -1.4690393462771258" stroke="none" stroke-width="0" fill="#5394cf" fill-rule="evenodd"></path><path d="M43.420030911922 -0.8308083407574973 C29.32709979914962 -7.147943485008682, 12.975713297421802 -10.59723014682455, -0.38428148441016674 -17.651533963158727 M42.45157538587554 -1.1475061291822872 C27.005274539559373 -6.560834955561642, 11.843117626970571 -12.173451616791503, -2.6739285299554467 -17.204069479368627 M-2.333831046448596 -19.31430951294236 C-0.31573423618541074 68.02912160064912, -0.8396213493980826 155.5509003237683, -1.4321485700668624 238.0665302413853 M-1.4246286251914149 -18.641287164186277 C-0.25983383684198086 71.6077787242695, -0.08531972274117583 162.16765385912072, -0.767851062207288 239.28490494047972 M-0.7847231581132063 239.55022354716706 C17.494664464407705 235.3820418742576, 34.297167434703724 228.77507098956994, 43.79002612119168 222.12638680366607 M0.8368739801202766 239.66568321561712 C10.931964373319156 235.38282625474676, 22.53376061766105 231.25964526935536, 43.876345207333564 224.8349939585644 M45.12376524889817 225.04677013404225 C41.801529183603456 153.67459126635597, 40.97576350459489 81.42519121534224, 40.93534637486921 -1.9504246185781882 M44.910026586465854 223.31480217383324 C44.4790422067533 160.61737918496445, 43.83609812201328 97.57911064631176, 42.92641800009295 -0.35081660088900635 M42.33216809062614 -1.057055113091477 C42.33216809062614 -1.057055113091477, 42.33216809062614 -1.057055113091477, 42.33216809062614 -1.057055113091477 M42.33216809062614 -1.057055113091477 C42.33216809062614 -1.057055113091477, 42.33216809062614 -1.057055113091477, 42.33216809062614 -1.057055113091477" stroke="#000000" stroke-width="1" fill="none"></path></g></g><g><g transform="translate(196.2154958445533 53.50731832012087) rotate(0 15.240793591773638 87.41384563439829)" fill-rule="evenodd"><path d="M28.041104025093027 0.1533874296290847 L-1.091682793572545 -24.620128540322185 L3.6698484272892613 199.14862840125943 L30.016860229723694 175.80159739605975 L29.12484068318934 -2.794389603223088" stroke="none" stroke-width="0" fill="#1e6cb5" fill-rule="evenodd"></path><path d="M29.065910021660038 -3.43635228418875 C18.022129270193076 -8.508409631853793, 11.596601351859317 -16.32556401551009, -0.6818472426384687 -25.448249401524663 M28.395546354238995 -2.560942365351501 C20.531416338452374 -6.931192404978778, 13.525682038569801 -13.125551073286744, 0.9313062420114875 -24.91639186348766 M1.3428595941059855 -22.51724875451201 C-1.790292037678308 62.45404427960763, -1.0950523903366776 146.57938725635285, 1.9317449757064962 199.03440470170818 M-0.2735698951263356 -24.651242141519717 C0.08556868053395911 63.27257167270157, 0.8440115587920098 152.44425853088865, 2.092917377351049 198.76322828329984 M1.7969460078711648 200.27594067032123 C5.99945774089339 193.38211008368245, 13.796418378688761 186.28117656853863, 28.933841185473444 173.38931239224863 M1.5451777140806455 199.16863110816712 C9.614811018003332 190.42622815531416, 18.409827102677994 183.33839083930656, 28.5375752885049 175.2381998236839 M29.63406653871441 173.96733868695688 C26.3722191000591 122.61073524039926, 27.926384623241546 67.91465275737946, 31.163434426185795 -1.8358214213805226 M27.66065673419887 175.50266491729658 C29.04340887009691 106.37208605558465, 28.442345059968364 37.8284574446389, 29.652366198484906 -0.6102407709987787 M29.366583951634475 -1.6050784881519107 C29.366583951634475 -1.6050784881519107, 29.366583951634475 -1.6050784881519107, 29.366583951634475 -1.6050784881519107 M29.366583951634475 -1.6050784881519107 C29.366583951634475 -1.6050784881519107, 29.366583951634475 -1.6050784881519107, 29.366583951634475 -1.6050784881519107" stroke="#000000" stroke-width="1" fill="none"></path></g></g></svg>