<svg xmlns="http://www.w3.org/2000/svg" width="531.496" height="242.099" version="1.1" viewBox="0 0 531.496 242.099"><defs><style>@font-face{font-family:&quot;Virgil&quot;;src:url(https://excalidraw.com/FG_Virgil.woff2)}@font-face{font-family:&quot;Cascadia&quot;;src:url(https://excalidraw.com/Cascadia.woff2)}</style></defs><g><path fill="none" stroke="#000" stroke-width="1" d="M30.659264663234353 1.3645589854568243 C44.7261229751262 4.415682898917634, 54.90863348863145 10.69356974548607, 63.92990057045252 13.079983463510871 M31.984700853936374 -0.5050796372815967 C41.96751656135041 4.995142941952412, 54.28540552198811 8.369978574786996, 63.31197491256178 13.190551419742405 M63.09501354271204 12.248267402872443 C54.40340322555793 17.982495170063956, 44.066050343800356 19.826556387031232, 31.479401329532266 23.22532894652477 M63.001761108316785 12.860006709583104 C55.85056031686851 16.37396414977334, 48.622432262977526 18.919979468592274, 32.02632987033576 26.012922071890443 M33.018400410190225 24.249951386862904 C18.06189289653575 19.14085756003035, 7.511857995035999 15.762357168068043, 0.4872687254101038 13.948644271120429 M32.074705238454044 25.14031650968036 C21.73293621989074 21.494448265572938, 12.48899204285922 16.89193475534985, 0.16588744055479765 12.552643020637333 M0.5266187582165003 13.414077868685126 C8.368975258981811 10.848312960285693, 15.53355262092315 7.047461275570094, 32.72392068244517 0.37526231072843075 M0.10727580916136503 13.31058402825147 C7.071647064210847 11.206288922820239, 14.647968305470423 8.488650994896886, 31.410153682343662 -0.4715995891019702" transform="translate(126.70707890293033 10.439825394848071) rotate(0 31.52058327414852 12.521875547264472)"/></g><g><g><path fill="none" stroke="#000" stroke-width="1" d="M-2.067314072515018 -0.9731149766594172 C5.02443506325244 1.9356183459501324, 11.266075279051803 3.1533902358375583, 28.983266719404966 9.086936737936949 M0.2580160517216251 -0.9626879496499896 C11.121150291103463 3.660237133591963, 22.02329848332566 8.889717916843683, 31.427083635490746 10.57329311460725 M32.301501639906675 11.604784275931333 C31.257832714808675 22.093767232629915, 31.40281834517965 29.38540093181814, 32.89879115235533 59.69274228283518 M30.514063739937157 10.189914847319042 C30.029057239548944 21.618031703599513, 30.668855247558835 33.854094137515744, 30.41473174497958 57.66108884786569 M29.86386140000548 56.598666603056124 C19.441076008924465 53.108913895921475, 7.623782407763734 46.37356878119299, 0.7548865139897138 44.26905260577009 M31.587107662414272 57.4189993379017 C18.73971844767135 53.095238552236864, 7.2370026740949385 47.39536269468499, -1.278561629872474 43.693700234099786 M-1.0848680674617022 45.4756513644676 C0.382312734156419 28.517031869405603, 0.13200180487645718 12.191833796667957, -1.507212801839359 -0.32467819191515446 M-0.07230357132450038 42.976444403335016 C-0.9228389953288347 32.69396211114914, -0.6829127730692786 19.12323876586098, -0.9225911479472592 -0.052823166362941265" transform="translate(125.10488532965337 32.246056682803896) rotate(0 15.415738539920142 29.359813653087883)"/></g></g><g><g><path fill="none" stroke="#000" stroke-width="1" d="M-10.155581946906663 0.2758114133030176 C-14.642974866422428 5.15963064115585, -24.70600006350818 4.9292851958761705, -40.67699350361359 12.957157467955408 M-9.969030883585132 -0.7178109930828214 C-17.359204247349552 4.278623539980533, -26.91201453800552 8.621690378964677, -40.82555778362435 13.610797068567631 M-39.96392501835358 13.486009453886805 C-40.29594799662419 24.056854780605207, -42.03991883901638 36.128993167088, -40.15738229989962 60.96772366382071 M-40.65640004017037 15.024231335611699 C-40.507665703534464 31.36919255156763, -40.583173883571106 45.750936866453166, -41.12784471247302 59.77660633336642 M-38.61776046991305 60.05307894565055 C-30.216648744571295 54.21271839493699, -18.59219696291766 47.8794638540621, -7.734638293367071 44.981017951354794 M-41.13819899294482 59.96513367902377 C-32.03543123170162 54.82312119460857, -21.243109356657705 51.20675551852983, -8.968764623720391 44.46892546626221 M-8.799615462403937 45.468091372833065 C-9.365001509758159 28.87343713132684, -7.2096274155658 13.386348389182416, -8.311756368217088 -0.41967966221272945 M-9.353211006242974 44.85759471865784 C-8.358620298807034 28.140888165833005, -9.289263471964203 10.733189718717995, -8.93823256758324 0.9477007342502475" transform="translate(202.86649133378637 30.24613037211077) rotate(0 -24.43641864315589 30.12495633536895)"/></g></g><g><path fill="none" stroke="#000" stroke-width="1" d="M32.69131218455732 -1.6695392336696386 C42.7590373731836 4.364163224109601, 52.07154840620481 7.905576428574662, 63.24542861679227 12.934308329597116 M32.080442746169865 -0.9481996344402432 C42.34390283482751 4.163264831159087, 52.88144987702641 9.232183875799002, 63.18384324913502 12.147026146762073 M62.44873147705228 11.566675940528512 C53.329591911783595 16.395109388105148, 45.66057987327682 19.26713279438958, 33.153598537668586 26.398762894833 M62.123508805089 12.74307760130614 C54.1967263496779 16.2236636868952, 45.6738265716999 19.351334064990052, 32.751194139011204 25.936035304368943 M30.620954742655158 25.150133801662832 C23.389975325521203 20.7087256124867, 16.50407515889046 17.971223495390703, -0.09578973986208439 13.133467117324471 M31.292597671039402 26.02592983752629 C25.356068417285474 22.25922364688827, 17.49303203210691 19.342633567588386, 0.004377295263111591 12.296419645659626 M-1.7955325338989496 12.849056163802743 C9.773433816069737 10.706741500180215, 15.441102328533308 6.058320532925427, 32.209942450746894 -1.8679599966853857 M0.9529387252405286 12.305206085555255 C8.75941163214855 9.665054484512655, 18.174660148350522 6.198449634909629, 31.594151218421757 -0.7265355633571744" transform="translate(204.83125094754269 10) rotate(0 31.52058327414852 12.521875547264472)"/></g><g><g><path fill="none" stroke="#000" stroke-width="1" d="M-1.7933059772505833 1.6716515328735113 C6.627087157003036 3.915824462860268, 12.848600911935993 4.583305101772105, 30.89933604818991 11.669506515902494 M-1.0719663780211879 -0.5445540649816394 C9.78021028983699 2.540115105898578, 20.299901856157813 6.9826071734090425, 30.112053865354866 10.771258885567104 M29.531703659121305 10.686453785342191 C30.80687733016887 22.651727485203615, 30.037977303764347 31.852895231331452, 32.75182833087172 57.6503864473974 M30.708105319898934 10.77102118224374 C30.899373591793225 26.12832684270739, 30.686065279553954 41.25470044077054, 32.28910074040766 57.32686715697252 M31.503199237701555 57.07543003031366 C21.29752684532885 54.017815557177165, 12.823534449962715 49.969878059010185, -0.4220884382312029 42.51113394989775 M32.37899527356501 58.62587719534837 C20.87837734775082 53.13884423771619, 9.865218214541148 48.16628476239942, -1.2591359098960488 43.39262921611921 M-0.7064993917529314 45.70999650254057 C0.40791264455321696 32.68012261947377, -0.919911020677923 22.556274854740437, -1.9917267402663303 -0.29700000025331974 M-1.250349470000419 43.522869418069284 C-0.03072043823081233 31.702705926085578, 0.32864703402671813 19.296955464375575, -0.8503023069381191 -0.5981788141652942" transform="translate(203.21221801792763 31.722702957766955) rotate(0 15.380050795302736 29.013849190591543)"/></g></g><g><g><path fill="none" stroke="#000" stroke-width="1" d="M-7.316195662555314 0.291143337264657 C-14.262069773282832 3.0235224304021457, -22.941822047545998 6.283810467354769, -38.92302401308548 14.818434750193415 M-9.532401260410465 -0.16927072871476412 C-21.27343898416774 5.373732453712934, -31.693234862583317 9.48508817094649, -39.82127164342087 13.507070830555318 M-39.906076743645784 13.880077873820124 C-38.239017825958896 29.03263892066491, -39.20085798441423 47.7700020322805, -40.56941126823382 59.91739320374915 M-39.821509346744236 14.032893708439229 C-39.93739820992716 28.69102885507691, -39.86535926654301 45.29494976094158, -40.892930558658705 59.31772510420421 M-41.14436768531756 58.196184154524296 C-30.35306949810049 53.61374266939558, -20.880109165082047 50.1549347965896, -9.973005076032324 44.77805191694241 M-39.59392052028285 59.8312875450764 C-32.974455806959064 55.914218308294004, -26.177038045078387 51.676557779341366, -9.09150980981086 43.43604769321572 M-6.774142523389502 45.072330538615994 C-8.774115592319891 28.08767906834808, -8.259020036806008 11.01043082489279, -9.284847195682145 -0.4870122279971838 M-8.961269607860787 44.26083602520119 C-9.204991052907607 32.551748074265454, -9.619315579818775 19.357134297627493, -9.58602600959412 -0.6895385729148984" transform="translate(280.9920376405364 29.80000644358364) rotate(0 -23.959255104353474 29.61392731541713)"/></g></g><g><path fill="none" stroke="#000" stroke-width="1" d="M30.748938063159585 1.9892467763274908 C40.133099894267275 5.239364220409317, 49.64241201832844 6.460651265198958, 62.80045394474298 13.561913838610053 M31.878173823468387 -0.6713673574849963 C41.836740523839126 3.3911308089274392, 51.72648849380527 8.714150926005416, 62.6640374359268 12.600616772659123 M64.50282887989313 12.902408471331 C56.72364946485636 17.484367237108916, 46.516887268946164 18.309472136862542, 33.88818941451609 25.83497920077434 M62.28807350961149 12.445929606445134 C52.05459744253334 18.078044904645278, 40.86102094337085 23.007983267483038, 31.459037001244724 24.21883817859134 M32.254489520564675 25.50739827197185 C21.001395637594968 21.111265090621227, 7.014049754344732 14.6215669235781, 1.8467671070247889 14.295023193582892 M32.6325802160427 24.32335969157657 C22.20994203153377 21.761968838686563, 13.328699842722468 16.816414199325667, 0.263040448538959 12.22549142409116 M-0.09029277227818966 14.477589359506965 C9.434463602816686 9.961289033312351, 19.07999971262179 4.3345834226533775, 32.63019869662821 0.32128494046628475 M0.8173896325752139 13.214954038150609 C10.882321323277429 8.927644488606601, 21.003520379783584 4.410330339074134, 31.57000696193427 -0.1939404709264636" transform="translate(89.54363815031536 81.24515397581484) rotate(0 31.520583274148578 12.521875547264472)"/></g><g><g><path fill="none" stroke="#000" stroke-width="1" d="M-1.1926266392722202 1.0639750864356756 C5.463629676320402 0.31730586134669525, 12.594276288638714 4.724081801583486, 31.10793126446417 8.769191290778135 M0.30252009816174963 -0.7078622383996844 C8.909074902608445 3.667831610919421, 16.014008464908635 5.4830188289195325, 30.337260747116417 9.732648397390758 M32.12434733730963 12.18944361392877 C29.771089139087714 25.991446016906583, 33.48787007028585 43.13105777833387, 32.76873310219969 57.66060321995371 M31.433060431640953 11.079220081274425 C31.487404436701055 29.256430346674712, 30.39210408805502 45.21791983659393, 32.02545130655642 58.70504572366678 M32.109718877193586 58.384947950330904 C20.84369730023695 52.464290811421364, 15.480727784950211 51.49433127355447, -0.49097811575576955 45.137510161540966 M31.38340461656924 58.469273352374664 C24.76085541555798 53.732511862526636, 16.858877159152776 50.44500771716828, -0.8590232511569589 43.23077921073095 M0.16041720513656443 44.641044955394726 C1.3607353487779918 25.84971560335991, 0.4221857031200232 10.904157079383822, 0.6215945044503138 -0.6671962831169367 M-0.5091799875308602 44.514957706138055 C-1.371844274337024 27.322227800157435, -1.0091224663043663 9.607100121559455, 0.17576116509442785 0.5116796689108014" transform="translate(87.74658158956356 102.99229222201848) rotate(0 15.83463798670175 28.99859174263355)"/></g></g><g><g><path fill="none" stroke="#000" stroke-width="1" d="M-9.846449858930923 -1.6091699097305536 C-21.66183276546657 6.473075705132133, -33.63460730202263 9.754829151947769, -40.60404732395541 14.14219574769741 M-8.205956986595906 0.622270573861897 C-16.50670701264352 2.7315924456268634, -23.960400554120604 5.541431084588478, -39.56605402604323 15.116679266558645 M-41.60415651966464 13.871209667527733 C-37.89515236076706 28.523471026343273, -38.53644463389427 40.86025315069363, -38.85131603643255 58.09232748292276 M-39.20430127755385 15.283601597414968 C-40.35336982739764 24.621359416538173, -39.28738695063903 37.33424378917158, -40.567219302765594 59.72575832057634 M-42.00683599874334 57.98822677872965 C-28.282260285717022 55.764869856359105, -19.79377977396767 50.63968357838065, -9.959654064011021 45.24475319726806 M-39.53535394441293 58.89847136188188 C-32.83433835887868 55.07488946575307, -26.156296361378047 51.59976105994344, -7.769380614254816 43.93444637904357 M-6.8316199491733745 42.57951052530151 C-8.249851175648379 27.859338395504793, -8.293072098696054 10.4277904271026, -7.219629533079482 1.6347792651504278 M-9.189228817913873 44.44180755267333 C-9.15080671514814 29.648936094929887, -8.557478213934758 16.21531929910282, -9.69854920213393 -0.29656566213816404" transform="translate(165.89656565357996 101.25003601593329) rotate(0 -24.419227973958357 29.058294205422897)"/></g></g><g><path fill="none" stroke="#000" stroke-width="1" d="M31.381995311006904 0.2956576142460108 C38.654691278700334 3.849797609331248, 47.97524640760121 7.599114735400466, 63.670326525956696 11.181281605735421 M31.799441774375737 0.853890891186893 C42.56884596367659 3.33709596488358, 52.259429175906135 8.001985866666898, 62.09536623363972 12.273011173121631 M63.385897452622956 13.505482712760568 C55.45978688822447 15.906899435572498, 47.03745178120347 20.507031091734454, 32.90481328032911 25.28560586091271 M63.78426885014058 13.291212285868824 C55.138982551053424 16.35004438786338, 49.403504701129265 18.537203028882033, 31.636826773174107 24.308918981851548 M31.62857817672193 24.140919638836294 C18.96088374268757 18.5561533541065, 7.993066385505067 17.02102399930596, 0.4541539456695318 11.46511141397059 M32.16477205324918 24.75553348571202 C19.58388851592698 21.45100898995214, 7.623122257091186 15.781239010376588, 0.8720541493967175 13.925845528952777 M0.8174604680389166 12.634252706542611 C9.107596944207327 11.154302408974619, 15.736970855230467 7.994210506565869, 30.491964688524604 1.6274797711521387 M0.5132120149210095 12.257172252051532 C10.800256872503088 9.349034985210746, 20.283881929842757 5.5404444926977146, 32.783838112838566 0.6495448304340243" transform="translate(12.987481787211323 82.79959369892401) rotate(0 31.520583274148578 12.521875547264472)"/></g><g><g><path fill="none" stroke="#000" stroke-width="1" d="M-0.4350694743945672 1.1058808956295252 C13.162712339979077 5.757746421249859, 23.157902662954626 5.922773281131336, 31.609418173108608 12.043758466434692 M0.04344173893039682 -0.6793406950309873 C11.755589405443715 3.6425967947032776, 23.61992875300651 7.490278323986402, 30.487365472849817 11.43786427431277 M31.121055383954555 10.283563211155151 C30.77508633417842 29.923489286002273, 32.281949072327095 47.070345063914516, 29.9682446413907 59.28211150908225 M30.073278892573327 11.064547747899805 C31.94171577448569 27.77255002851072, 31.268666444482495 44.48595535344453, 32.31590548001702 57.21845284042262 M30.81961879071321 55.963673455951145 C21.389683968082096 54.187162775332396, 9.818648713306708 46.562254400801685, 0.8375082187767298 44.50136437981532 M30.844621328939756 58.86119618949794 C22.363705769538903 53.91476742216781, 15.59376335868378 51.43637229417488, -1.0660274760384887 42.92983995440559 M0.45684196282580203 45.360523372582655 C-0.9235152783763841 31.57647079892908, -1.9705594970136864 17.82590937430642, -0.04773345869327328 -1.7973051872104406 M0.40622322395845956 43.943379507094185 C0.035223800349917456 34.68568386638196, 0.18774238046422442 25.76919739690901, 0.05474313720767954 0.850455547682941" transform="translate(11.098326644339181 104.78943819609196) rotate(0 15.60878941783892 28.742403160935908)"/></g></g><g><g><path fill="none" stroke="#000" stroke-width="1" d="M-7.011134262618638 1.9099796805530787 C-18.118117694504747 2.880738919414208, -27.839925925389835 10.5995059532211, -37.97191120628845 13.98473164951211 M-9.442537036214985 -0.33330458868294954 C-21.830662270274104 4.607022636104304, -33.283593319853246 11.643896099508021, -39.09045912363213 14.558213552923558 M-40.35707880501282 15.559573625677881 C-39.11810978045219 29.333390520776497, -41.58928814847313 45.204383970367864, -39.024691512584255 61.08471816398093 M-39.45250560381096 14.212568840475438 C-40.826181546483625 28.533126364955123, -39.68334228097002 43.49108535143629, -39.892286381460295 59.41280264865497 M-39.34795420408206 60.87133687354514 C-31.745444358823846 54.38684222900246, -22.707185118280822 52.52256802586848, -9.352683742623968 44.30913687168103 M-41.02808316681491 59.36617679607013 C-30.76773292226522 55.975682457454056, -23.532269249700306 49.824251864425015, -8.408222695905907 44.388322999202124 M-8.888943870645209 45.49649715839367 C-10.414224509472348 33.22051692604629, -8.949495512636904 17.406124989190094, -10.70653903060875 1.026424029842019 M-7.840474864561303 44.14388983460557 C-8.298992449197605 34.702285357776574, -8.99993940715663 24.97624443041583, -8.648104992185749 -0.30410725343972445" transform="translate(89.12236259907581 102.52023828618098) rotate(0 -24.019608714716753 30.375706787648994)"/></g></g><g><path fill="none" stroke="#000" stroke-width="1" d="M32.73941431380808 0.26834183000028133 C45.47401581711462 5.875961546697353, 57.145722544991415 8.926362784211225, 61.77564470344812 12.995027294382453 M32.45818346273154 0.9739295141771436 C41.75034663529174 2.8522728519974767, 50.82748036465686 8.049844795790921, 62.26520910827101 12.758412499912083 M63.246665878832644 12.658184280619025 C53.03507096904936 18.20565185071681, 41.12092622105251 21.312290865039188, 33.626140335574746 24.463889623099476 M63.61258807746351 12.088634391315281 C50.87151124958184 17.748734003385486, 40.19167387618896 21.285880457292862, 31.63497483264655 24.91389777608356 M33.041360119357705 24.53807261031261 C21.29508990350829 20.900417700675188, 14.213119882379637 19.08961522859356, -1.0464427080005407 12.164042105898261 M32.243286724202335 24.737215065435976 C22.32657206694543 21.380744410454753, 14.843960592550633 18.277094584328562, -0.009021674282848835 13.514760692603886 M-0.31055947206914425 13.983723750337958 C10.909848104631529 8.813601952213794, 21.115308340108022 6.337100195400417, 31.9970634970814 -1.7479323837906122 M-0.23035303223878145 13.628780801780522 C11.905936247827485 9.267753261122852, 23.55714915168472 2.5384431701898578, 32.02835064660758 0.51406239438802" transform="translate(52.62569472648431 152.97911276152746) rotate(357.7632926436004 31.520583274148578 12.521875547264472)"/></g><g><g><path fill="none" stroke="#000" stroke-width="1" d="M0.14457508641933658 1.1284759435802698 C12.328430933557675 4.501468328383954, 22.072053482493974 6.7345554531307705, 30.960055012975246 10.634655668926452 M0.8501627705961988 0.551578844897449 C7.238160983807207 2.9787392174253924, 16.561339125240927 4.574919347116907, 30.723440218504876 11.001911789705073 M30.62321199921182 10.885538294506286 C32.171719180763205 28.035307419571442, 31.43936485314859 49.7544689519231, 30.8169550591382 59.3826865985369 M30.053662109908075 10.142831713487421 C31.282328045890893 25.696381311591225, 30.432316555565055 39.47401212789936, 31.26696321212228 57.726239293192855 M30.891138046351333 56.26966236376517 C21.84200795051634 54.551722644227844, 14.480509108908961 49.14804416927747, -1.3915134496574133 43.39640739529536 M31.090280501474698 57.075113623713484 C18.07177141241724 52.96685592468441, 5.751944235315616 47.01294375957111, -0.04079486295178825 43.9333062625225 M0.42816819478228396 45.24906614392207 C-0.597023751070888 30.536283440744185, 0.9940681167490205 13.365533885578877, -1.8716991273715569 1.5559020433574915 M0.0732252462248475 43.79799632790641 C0.865452898573293 28.10400395999457, -0.8025274719416418 13.435745583527396, 0.3902956508070753 0.3058395041152835" transform="translate(50.97992202864327 172.71624714736913) rotate(0 14.833959776019753 29.844263051326095)"/></g></g><g><g><path fill="none" stroke="#000" stroke-width="1" d="M-7.859371251848556 0.6622725632041693 C-16.78802438136472 2.5398449184408785, -27.024705779069457 7.861134737313817, -39.95787486006152 13.533200369679985 M-8.436268350531376 -0.7375779552385211 C-20.675095947701323 6.525852679440843, -33.953261079667335 11.34015387700069, -39.5906187392829 15.353406474457739 M-39.70699223448169 15.888419733846245 C-41.323804305100346 24.0729331865533, -38.41812349240977 31.98307565616426, -38.837111117094324 59.777988858445376 M-40.449698815500554 14.699047372208593 C-39.33549679535982 26.03700096929301, -40.258035795592676 38.90260852983634, -40.49355842243837 59.41011259604135 M-41.95013535186605 58.9851521923382 C-31.42075595306202 56.47522285087767, -24.329421073507024 50.41789115588455, -9.087731630634709 45.81253470523696 M-41.14468409191774 58.922921157366424 C-27.285707196458524 53.01354943726925, -15.156650126972078 47.80866109538359, -8.550832763407572 44.457754626371376 M-7.235072882008 43.50298966510635 C-6.703779840807178 34.605493844094376, -8.698074566621173 21.552767645425636, -7.431945152071334 0.9475349094718695 M-8.68614269802366 44.91190077314567 C-9.117481873826813 33.29438578600619, -8.623400745064913 24.891909058557864, -8.682007691313542 -0.8212968511506915" transform="translate(128.96599045178618 171.02430108675617) rotate(0 -24.547900971308422 29.478346003647346)"/></g></g><g><text x="0" y="113.908" fill="#000" direction="ltr" font-family="Virgil, Segoe UI Emoji" font-size="97.443" text-anchor="start" transform="translate(175.5747631674467 29.734228642786604) rotate(0 172.96073746380716 77.95413519495543)" style="white-space:pre">amazon</text></g><g><text x="0" y="63.691" fill="#000" direction="ltr" font-family="Virgil, Segoe UI Emoji" font-size="54.807" text-anchor="start" transform="translate(178.27836958140074 135.47245263861038) rotate(0 169.90107821626862 43.84543953968219)" style="white-space:pre">web services</text></g></svg>