<svg version="1.1" xmlns="http://www.w3.org/2000/svg" viewBox="0 0 276.90583623767884 285.8247044997827" width="276.90583623767884" height="285.8247044997827">
  <!-- svg-source:excalidraw -->
  
  <defs>
    <style>
      @font-face {
        font-family: "Virgil";
        src: url("https://excalidraw.com/FG_Virgil.woff2");
      }
      @font-face {
        font-family: "Cascadia";
        src: url("https://excalidraw.com/Cascadia.woff2");
      }
    </style>
  </defs>
  <g><g transform="translate(12.05228134803474 65.36906446682585) rotate(0 61.02043964076671 -9.062474749427288)"><path d="M0.8859573911483479 10.677633554739815 C-1.2048418188020507 15.075511016320636, 1.1416347978780594 24.110676103145494, 0.05378297157585621 34.11751683353632 M-0.2117027061452078 9.527077097510857 C0.19450109388063253 16.711826265446366, 0.5303974358575718 22.799097340119907, -0.2173502156510949 34.2474362013787 M-2.0522813480347395 36.286744910471135 C44.72745769154467 26.363743038665472, 85.78515839628886 13.832254377799295, 121.79085397749903 4.852978466526668 M-1.657310456968844 35.92662755231559 C37.49242310890552 25.215326243787718, 74.46721019461577 16.632151969693503, 123.65547635901483 6.039956615754466 M124.09316062956812 7.497380493656795 C123.73742954388015 -17.318262202455657, 123.19193063631408 -39.19524713794799, 122.23101693421366 -51.47316491790116 M123.62668707716973 6.3525326712812 C122.73696456885996 -17.03397884940707, 123.48131598568621 -39.79245291739758, 123.9085999702266 -52.86243353690952 M122.74198752671244 -54.41169440932572 C80.08271746757433 -32.37562840233055, 37.89470498350819 -8.736453008658202, 0.899169356709261 8.432423145575386 M122.91036641347917 -52.59445129241794 C84.60793583955328 -32.62639293664169, 45.98672662283893 -11.448246156381813, -0.8122017400731253 10.838210363006157" stroke="#000000" stroke-width="1" fill="none"></path></g></g><g><g transform="translate(248.20484799632015 61.97789620259403) rotate(356.91518482914364 -50.898787002860786 -10.345145159976205)"><path d="M7.573092973379499 7.009564051247105 C9.945291530664468 17.942195117029776, 9.176536158518012 24.539206696717564, 6.88764197319415 33.34483877046718 M9.062346074318594 8.74599948230283 C9.32292032418641 15.130407996463873, 8.879056352342706 21.291364828998816, 8.225447092537252 32.53575458134277 M9.696143693622616 34.53138557298793 C-31.36627516804242 23.74634867476564, -70.88021632343522 13.870375099524232, -110.47473540532862 6.191603215179786 M8.471148167137471 32.77232660854919 C-37.65422040298574 23.37662283444837, -82.5573565648065 12.229207929545286, -109.85249403029208 4.405017603888556 M-110.54448380697046 3.36650756164585 C-111.45347132400286 -10.59927067157928, -112.19297193328984 -21.83457740246666, -109.30969891067343 -55.18620731460172 M-111.4937176993442 4.897288788809821 C-111.1172248402829 -14.62844869401705, -110.57932792248374 -35.07013860409995, -110.69520706332969 -55.05024418479073 M-111.06677946563559 -55.22167589294034 C-76.1680074273411 -34.58728245761249, -41.546796040017696 -18.824644727589003, 9.021432197241193 7.792239079094395 M-110.92428321040916 -54.78493985777962 C-63.251812717576925 -28.933421654498197, -16.71213829933164 -3.842984285059842, 8.776204797959036 8.420448330073521" stroke="#000000" stroke-width="1" fill="none"></path></g></g><g><g transform="translate(10.88775700060296 95.92802254963453) rotate(0 124.00935094695433 -5.859940525551913)"><path d="M1.4680658299475908 5.839693715280447 C12.721500040487978 7.47679246807054, 22.56594180829491 12.10820894108754, 34.66924926055125 13.924436542321686 M0.9427583208307624 4.7209211368547415 C9.691912916453504 6.473615319059887, 18.29901289585953 9.382959645515447, 35.36635603637895 13.965612521511261 M34.469953739768776 13.730352851678376 C66.53313826754433 6.405373065900103, 101.32538013223214 3.4429960893485703, 127.23651592732013 -2.423827294447968 M34.93468131752214 14.595258584362213 C71.17879650421636 7.918562758500165, 107.47326625235894 1.509277754159104, 124.96247328837008 -0.7360520523055887 M125.04422419071734 -2.538244847395966 C156.404506715075 5.101037370392705, 191.33213734438226 6.457623330102996, 216.82333101022658 10.594006381825224 M125.38484062273592 -0.6424548786147928 C152.43920304350544 2.391610060033086, 178.7651631182267 4.5911409143762665, 215.89957011647192 9.731903950580076 M216.7195860265535 10.719899497822539 C223.81310190080822 5.7365803651198615, 230.24372284741588 3.709006001502134, 248.37548006668482 -3.4679831737778866 M216.40473926968542 10.752098719485716 C225.45369568139716 6.771421408351845, 236.72668365171222 1.5626484787661248, 246.6642340800518 -3.0230039354540192 M245.2386998046914 -2.9880098575852596 C207.2939347798852 -10.341687520142564, 162.8300431052204 -18.55318472569617, 125.21247842045409 -23.63677585311234 M246.20752731773797 -2.715127586958536 C200.95059411965607 -12.418126804504908, 156.17908781833899 -21.815436675096873, 125.78572781732214 -26.31513963546604 M128.21795584889037 -26.2358278054744 C83.87196210069818 -15.222790010131305, 43.75541044035131 -3.982062791204605, -0.356778172776103 6.794838239854727 M125.29902990510595 -25.710060223005712 C95.54857436925158 -17.79528442613017, 65.00923865797486 -10.746552655775227, -0.017110289074480534 4.903252400873754" stroke="#000000" stroke-width="1" fill="none"></path></g></g><g><g transform="translate(44.75338918876412 107.83283286356678) rotate(0 30.27827958872882 35.35761203569723)"><path d="M1.3785888730536164 1.9921976889973323 C1.3889204195514289 5.969485673384198, 2.2857008319166585 11.473788249409324, 0.3313423302789593 17.272622981805778 M2.7073456549128143 3.0685937508328487 C1.9474191290867464 6.793741367836422, 2.446224359965543 10.562436320634676, 1.4421081310452508 18.477748844240754 M3.1590183262116858 18.076377522808087 C-6.644740595034995 19.558178229244255, -14.079290293939618 20.67126441648667, -32.348889796063304 27.121601749875314 M1.025528208013589 18.374881982479764 C-9.132965923504898 20.94831882567358, -18.884397180258176 23.352054522603975, -34.36900302860886 26.235753543407387 M-32.94852756419523 24.568254441329096 C-34.90919773145578 30.673036519149967, -34.64761610987905 32.54958419623827, -31.900554607339565 44.28418822765124 M-34.219804331940566 26.13089380113363 C-34.43048164335539 30.606657637742114, -33.71134095454094 36.937206920162005, -33.71159571634027 44.81469391567741 M-32.0919606376126 42.95396986758057 C-22.581342683253975 45.01456322891076, -10.99166583754269 44.326982939359524, 4.1139864595842734 47.79326105513228 M-33.67803496286865 43.56021543280873 C-25.122240877158234 45.279867002225494, -17.79052099867905 46.28239381884316, 2.094560885825493 48.10139014501674 M1.9318418177080532 49.489253048082716 C4.408601964476021 53.89857392949505, 1.2784157829309515 58.76648443395456, 3.0446461484598992 69.49587398448314 M1.6518693212655564 46.936877272320814 C2.487797065280051 51.836237346893725, 3.694738954872909 57.24752662919133, 4.1644494253042215 67.5198505367833 M2.894895915763366 68.90239149012889 C31.645947904821767 75.2419776249256, 63.73354083769794 80.02628729859687, 94.9255622060665 83.3516198675966 M2.9224796014669416 68.39448408742722 C24.466944117914462 71.8866947539722, 45.20557636842541 76.26264502948274, 94.39896982942457 84.21100698503462 M93.95224935129966 84.56680741718766 C93.57796215434497 54.210035671448665, 92.46641835104626 22.835190577113515, 92.96324512158509 -11.478586496785283 M94.55523151193495 85.11868344339338 C94.10398155150399 52.24457038325881, 92.78864107481562 19.99865514568849, 90.60402833932068 -13.231883182190359 M89.10728761349793 -14.403459371998906 C68.92953465263416 -9.41944234941624, 49.66857105605587 -5.792145168733972, 0.5641410025072475 4.034710003175095 M91.08259379380371 -12.39882983174175 C56.26145985399313 -5.898520690338647, 21.482499683526726 -1.0431629215893317, 1.8294121269372483 1.9371573637428439" stroke="#000000" stroke-width="1" fill="none"></path></g></g><g><g transform="translate(219.15236945882805 104.35840728706492) rotate(0 -19.66141602666852 38.672307032976605)"><path d="M7.977304791102462 3.106534677198339 C7.894655936633062 6.722584163086554, 9.119639704651352 11.693338197253972, 8.84223988453902 20.84218464052766 M8.291936152868592 2.7520364693479813 C9.566216438860264 10.209306320374074, 8.21327396994851 16.24709097602178, 8.96368350058641 20.735864634752595 M9.589404529378276 22.516551452146288 C19.512683135696392 23.911040249258704, 26.21825276318582 26.474478794625337, 44.23332117133298 29.925201887709612 M9.158209356897038 22.294380610266145 C21.363882261121628 24.547780248095297, 35.840266503225955 27.955421971997183, 42.952341415998426 27.751432133351976 M41.61024383364479 30.066144666829242 C41.932553757752835 32.90165520273397, 43.518140934836964 38.830995102413816, 41.96345878058513 46.90485595238401 M42.582994188135885 29.213676443606253 C42.11106989834058 33.143312485249055, 43.17519810454222 37.374246880157855, 41.57037531688106 45.788934864019254 M40.84161544650789 44.66579601859854 C36.55105362122978 47.73160706966423, 27.80674666156284 49.22105306939106, 8.740383615754775 50.14927513339626 M41.80965033698823 46.677994395067856 C33.7377589766147 48.52000116699143, 24.61215560740979 49.42917870412234, 8.076798367351524 50.22574946005898 M6.842357626222304 50.53673441150295 C5.649691322000354 59.046348631112124, 5.254706417393014 63.89238858677908, 4.668325750848408 70.26933038452448 M7.412457632869712 49.83415528853493 C7.4536197305866025 55.81292953352834, 6.517395455888593 62.85284247082785, 7.484488304464276 71.25195597609313 M7.2304285454956245 69.53333080032648 C-20.209403931808893 74.42944237544646, -46.737744726580814 79.14486842405897, -81.10129209038593 87.75125882379027 M7.3226271232051205 70.05087541540892 C-14.917337447486112 74.40591308633118, -38.05933958624101 79.10745120232859, -79.7310208872778 88.11250405642451 M-81.49751754280902 85.55244490853758 C-80.71924405121177 50.81199922111923, -82.39931334470978 13.578136068252732, -81.57038564875779 -8.56490951962769 M-80.41164274968929 87.81458359095515 C-81.08358567941805 55.1335800509215, -81.92123144429236 20.399204537532768, -83.06209294673113 -10.767889990471303 M-81.5465213795012 -8.612768234685063 C-51.00634682291233 -3.933921582084583, -17.01123674539504 0.7889893646356647, 9.185626920064449 1.1850734269814898 M-83.55615322466997 -9.55156637635082 C-60.43101163834224 -6.510972245797398, -37.97468529784053 -2.5203942405165556, 9.594351284889042 2.718887874913435" stroke="#000000" stroke-width="1" fill="none"></path></g></g><g><g transform="translate(137.31687296712437 238.87671735269788) rotate(180 64.50826979517342 -8.921332857947789)"><path d="M0.46078536100685596 8.568321735663277 C0.5388397499814312 20.06137972556074, 1.2239984053140962 28.178403812422705, 0.4835194377141625 36.45843847393244 M0.0462797274813056 9.966885823821586 C0.8979126972803285 19.22701108939596, 0.9271016187618201 29.552349216514305, 2.012785434714201 35.65737966279685 M2.815504434509817 35.706218796961004 C37.53431647941356 25.01640488145112, 73.28900156982218 17.96457283776946, 127.22232644810083 6.592070578114193 M1.077921628943327 34.846611296936864 C37.56914655070786 25.952181709921906, 76.04259170593306 17.448993144296168, 127.82884200188073 5.704367087670665 M128.83182304157617 6.60213422633807 C130.05363536278037 -8.520312607617338, 128.593180590221 -23.519867745596272, 127.85446481772316 -53.95284569449723 M129.4799538430825 6.524053738900523 C128.37718805603345 -14.468890040600067, 126.98661433856678 -36.4023446685215, 127.11814497497481 -52.847974999807775 M126.60426597662818 -54.30110418982804 C81.7266493320983 -30.601461050542483, 40.766917860010494 -12.64612987404444, 1.293852062895894 9.531088621420723 M126.44336722877425 -53.04456184711307 C76.97187382140902 -27.13484380045478, 26.061727191433974 -1.6051168000754075, -0.4634142527356744 10.52876676998095" stroke="#000000" stroke-width="1" fill="none"></path></g></g><g><g transform="translate(15.105520858150044 242.49963818906582) rotate(536.9151848291438 60.51171200026869 -9.100707314353429)"><path d="M120.93711221689577 9.3540504286717 C120.89364463230278 15.686141638272868, 120.44069095679622 20.86788175554034, 118.66183895010558 36.56543334125727 M121.71323880745317 9.760703224753899 C120.4338760440422 16.17532189962239, 121.23413602015444 21.434982721414094, 119.34849971391317 34.36716309766471 M118.68724435705748 34.90983231662958 C86.66077239053273 27.467902751586283, 52.44625103714239 15.718547826110814, 1.546630235388875 7.820319412724178 M120.48245304681417 35.42849556188285 C79.78564185794178 25.26722212391697, 41.19328059646321 14.947815994722248, -0.4641214618459344 6.825142191239696 M-0.6719371359795332 7.354736088291805 C-0.8862505567595526 -14.252847634469397, 0.2578938304278833 -33.42616774084441, 2.5645858432757227 -53.808176876977086 M-0.7490752944722772 5.818687485047679 C0.36067533350391767 -12.540184189253221, 1.7416429806179976 -32.22678200259479, 1.3322107551279037 -53.78605686035007 M1.527338662337002 -54.76684796996415 C40.993640871154916 -31.39414670465264, 81.07279428703235 -10.48678532638396, 120.98139107698793 10.738905937476021 M1.4352345225992171 -52.725777252577245 C39.39492838359749 -31.05018847165061, 78.39255235366247 -10.868975187593428, 121.77249929500962 10.323698062514824" stroke="#000000" stroke-width="1" fill="none"></path></g></g><g><g transform="translate(15.045627482678128 198.79922274543918) rotate(180 125.19485235382587 -3.960471475630243)"><path d="M-1.4705040473490953 6.133146726942229 C10.805656352226517 7.653257658283863, 25.07290336127114 11.292901949754661, 41.00255319284129 18.14070395539853 M-0.0984412869438529 4.974654248400199 C11.38533442101375 7.434409016811788, 21.25962823415843 12.169746861679197, 41.09775211004394 17.48763624458912 M40.88694545434642 17.639559069381683 C59.19904408454264 14.127658659142062, 78.77173595829763 11.487162374134705, 127.45144680570661 -1.5355292262523732 M40.706348673383175 18.052345192724495 C71.18741336548126 9.760453260139258, 102.46242222289027 4.617110022180158, 128.62678628377466 -0.7235834032311401 M129.02634504865705 0.3775562344104686 C159.30913847960994 3.015105466948774, 191.85787347907444 10.25275106632635, 221.36869293927583 14.806355580475167 M128.11657028607874 -1.360008183123108 C162.02258202520608 4.985810340980026, 197.1961156247349 10.38903872271697, 220.21276073913458 14.803122562143937 M219.27911669492158 16.871464356567696 C226.401279047708 12.941668496792005, 235.48222670293723 7.592806797647366, 251.86020875500083 -2.9716650383673273 M221.4291911647785 15.116198819849625 C228.0007779702332 11.386191594460605, 235.7759449959858 6.973927573342097, 251.82850547937244 -3.3204828962810002 M250.2043025545919 -3.2198649780951105 C206.81622182401043 -11.696842210397161, 159.03890976762128 -21.050923808858762, 130.82561690543525 -24.33168121986091 M250.7654788127312 -2.6807083353526555 C202.98529802127388 -10.247893101881058, 155.23143221065158 -20.850983655954032, 128.55598568633877 -25.700258226133883 M127.65465028022163 -26.061646906659007 C99.00717834271819 -18.45857382396946, 71.03604428948829 -11.996341987378758, -0.3880592603236437 4.8254612325193165 M129.10583591178738 -25.880025596357882 C96.14470336598933 -18.40481585873336, 64.0483974440451 -12.232421001377517, -0.7912530740723014 4.256877771063316" stroke="#000000" stroke-width="1" fill="none"></path></g></g></svg>