<svg version="1.1" xmlns="http://www.w3.org/2000/svg" viewBox="0 0 531.496238095061 242.09893374590604" width="531.496238095061" height="242.09893374590604">
  <!-- svg-source:excalidraw -->
  
  <defs>
    <style>
      @font-face {
        font-family: "Virgil";
        src: url("https://excalidraw.com/FG_Virgil.woff2");
      }
      @font-face {
        font-family: "Cascadia";
        src: url("https://excalidraw.com/Cascadia.woff2");
      }
    </style>
  </defs>
  <g transform="translate(126.70707890293033 10.439825394848071) rotate(0 31.52058327414852 12.521875547264472)"><path d="M30.83246891759336 -1.8928788509219885 L63.886153692990845 13.374461511150002 L31.63160472176969 26.235275639259726 L0.0812986996024847 13.369528511539102" stroke="none" stroke-width="0" fill="#fab005" fill-rule="evenodd"></path><path d="M30.659264663234353 1.3645589854568243 C44.7261229751262 4.415682898917634, 54.90863348863145 10.69356974548607, 63.92990057045252 13.079983463510871 M31.984700853936374 -0.5050796372815967 C41.96751656135041 4.995142941952412, 54.28540552198811 8.369978574786996, 63.31197491256178 13.190551419742405 M63.09501354271204 12.248267402872443 C54.40340322555793 17.982495170063956, 44.066050343800356 19.826556387031232, 31.479401329532266 23.22532894652477 M63.001761108316785 12.860006709583104 C55.85056031686851 16.37396414977334, 48.622432262977526 18.919979468592274, 32.02632987033576 26.012922071890443 M33.018400410190225 24.249951386862904 C18.06189289653575 19.14085756003035, 7.511857995035999 15.762357168068043, 0.4872687254101038 13.948644271120429 M32.074705238454044 25.14031650968036 C21.73293621989074 21.494448265572938, 12.48899204285922 16.89193475534985, 0.16588744055479765 12.552643020637333 M0.5266187582165003 13.414077868685126 C8.368975258981811 10.848312960285693, 15.53355262092315 7.047461275570094, 32.72392068244517 0.37526231072843075 M0.10727580916136503 13.31058402825147 C7.071647064210847 11.206288922820239, 14.647968305470423 8.488650994896886, 31.410153682343662 -0.4715995891019702" stroke="#000000" stroke-width="1" fill="none"></path></g><g><g transform="translate(125.10488532965337 32.246056682803896) rotate(0 15.415738539920142 29.359813653087883)" fill-rule="evenodd"><path d="M0.6215788992092536 -1.4204768743366003 L31.125826616559536 12.595732286167358 L29.673559635249045 58.542180044887 L-0.4679314918403321 45.621093183449965 L1.516855207268946 -1.5378105249255896" stroke="none" stroke-width="0" fill="#fab005" fill-rule="evenodd"></path><path d="M-2.067314072515018 -0.9731149766594172 C5.02443506325244 1.9356183459501324, 11.266075279051803 3.1533902358375583, 28.983266719404966 9.086936737936949 M0.2580160517216251 -0.9626879496499896 C11.121150291103463 3.660237133591963, 22.02329848332566 8.889717916843683, 31.427083635490746 10.57329311460725 M32.301501639906675 11.604784275931333 C31.257832714808675 22.093767232629915, 31.402818345179654 29.38540093181814, 32.898791152355344 59.69274228283518 M30.514063739937157 10.189914847319042 C30.029057239548944 21.618031703599513, 30.668855247558838 33.854094137515744, 30.414731744979587 57.66108884786569 M29.863861400005487 56.598666603056124 C19.44107600892447 53.108913895921475, 7.623782407763738 46.37356878119299, 0.7548865139897174 44.26905260577009 M31.58710766241428 57.4189993379017 C18.739718447671358 53.095238552236864, 7.237002674094942 47.39536269468499, -1.2785616298724705 43.693700234099786 M-1.0848680674616986 45.4756513644676 C0.3823127341564214 28.517031869405603, 0.1320018048764583 12.191833796667957, -1.507212801839359 -0.32467819191515446 M-0.07230357132449683 42.976444403335016 C-0.9228389953288321 32.69396211114914, -0.6829127730692769 19.12323876586098, -0.9225911479472592 -0.05282316636294126 M-0.12376674358094475 6.938893903907228e-18 C-0.12376674358094475 6.938893903907228e-18, -0.12376674358094475 6.938893903907228e-18, -0.12376674358094475 6.938893903907228e-18 M-0.12376674358094475 6.938893903907228e-18 C-0.12376674358094475 6.938893903907228e-18, -0.12376674358094475 6.938893903907228e-18, -0.12376674358094475 6.938893903907228e-18" stroke="#000000" stroke-width="1" fill="none"></path></g></g><g><g transform="translate(202.86649133378637 30.24613037211077) rotate(0 -24.43641864315589 30.12495633536895)" fill-rule="evenodd"><path d="M-9.39496154287181 0.18333457969129086 L-38.176905717147704 14.69469796260601 L-39.852342607229524 61.5387285425503 L-8.446816952061095 43.40498413188796 L-9.921184963968612 -1.1474251840263605" stroke="none" stroke-width="0" fill="#fab005" fill-rule="evenodd"></path><path d="M-10.155581946906663 0.2758114133030176 C-14.642974866422428 5.15963064115585, -24.70600006350818 4.9292851958761705, -40.67699350361359 12.957157467955408 M-9.969030883585132 -0.7178109930828214 C-17.359204247349552 4.278623539980533, -26.91201453800552 8.621690378964677, -40.82555778362435 13.610797068567631 M-39.96392501835358 13.486009453886805 C-40.29594799662419 24.056854780605207, -42.03991883901639 36.128993167088, -40.15738229989963 60.96772366382072 M-40.65640004017037 15.024231335611699 C-40.50766570353447 31.36919255156763, -40.583173883571106 45.750936866453166, -41.12784471247303 59.77660633336643 M-38.61776046991306 60.053078945650554 C-30.216648744571298 54.21271839493699, -18.59219696291766 47.8794638540621, -7.734638293367066 44.98101795135479 M-41.13819899294483 59.96513367902378 C-32.03543123170163 54.823121194608575, -21.243109356657705 51.20675551852983, -8.968764623720386 44.468925466262206 M-8.799615462403931 45.46809137283306 C-9.365001509758155 28.87343713132683, -7.209627415565798 13.386348389182412, -8.311756368217088 -0.41967966221272945 M-9.353211006242969 44.857594718657836 C-8.35862029880703 28.140888165833, -9.289263471964201 10.733189718717995, -8.93823256758324 0.9477007342502475 M-8.987847195428825 0 C-8.987847195428825 0, -8.987847195428825 0, -8.987847195428825 0 M-8.987847195428825 0 C-8.987847195428825 0, -8.987847195428825 0, -8.987847195428825 0" stroke="#000000" stroke-width="1" fill="none"></path></g></g><g transform="translate(204.83125094754269 10) rotate(0 31.52058327414852 12.521875547264472)"><path d="M30.80364237166941 -1.3790771458297968 L61.60826019817621 13.177573313936591 L31.641437033191323 24.85078027289501 L1.1054689083248377 11.089673748239875" stroke="none" stroke-width="0" fill="#fab005" fill-rule="evenodd"></path><path d="M32.69131218455732 -1.6695392336696386 C42.7590373731836 4.364163224109601, 52.07154840620481 7.905576428574662, 63.24542861679227 12.934308329597116 M32.080442746169865 -0.9481996344402432 C42.34390283482751 4.163264831159087, 52.88144987702641 9.232183875799002, 63.18384324913502 12.147026146762073 M62.44873147705228 11.566675940528512 C53.329591911783595 16.395109388105148, 45.66057987327682 19.26713279438958, 33.153598537668586 26.398762894833 M62.123508805089 12.74307760130614 C54.1967263496779 16.2236636868952, 45.6738265716999 19.351334064990052, 32.751194139011204 25.936035304368943 M30.620954742655158 25.150133801662832 C23.389975325521203 20.7087256124867, 16.50407515889046 17.971223495390703, -0.09578973986208439 13.133467117324471 M31.292597671039402 26.02592983752629 C25.356068417285474 22.25922364688827, 17.49303203210691 19.342633567588386, 0.004377295263111591 12.296419645659626 M-1.7955325338989496 12.849056163802743 C9.773433816069737 10.706741500180215, 15.441102328533308 6.058320532925427, 32.209942450746894 -1.8679599966853857 M0.9529387252405286 12.305206085555255 C8.75941163214855 9.665054484512655, 18.174660148350522 6.198449634909629, 31.594151218421757 -0.7265355633571744" stroke="#000000" stroke-width="1" fill="none"></path></g><g><g transform="translate(203.21221801792763 31.722702957766955) rotate(0 15.380050795302736 29.013849190591543)" fill-rule="evenodd"><path d="M1.6651968033955025 -0.9406238999217749 L30.108754594598324 9.51216019649527 L30.565219073859122 59.834941191909245 L-1.5946035809402161 44.0326802429478 L-0.764195772822149 1.8503294978290796" stroke="none" stroke-width="0" fill="#fab005" fill-rule="evenodd"></path><path d="M-1.7933059772505833 1.6716515328735113 C6.627087157003036 3.915824462860268, 12.848600911935993 4.583305101772105, 30.89933604818991 11.669506515902494 M-1.0719663780211879 -0.5445540649816394 C9.78021028983699 2.540115105898578, 20.299901856157813 6.9826071734090425, 30.112053865354866 10.771258885567104 M29.531703659121305 10.686453785342191 C30.80687733016887 22.651727485203615, 30.03797730376435 31.852895231331452, 32.75182833087173 57.6503864473974 M30.708105319898934 10.77102118224374 C30.89937359179323 26.12832684270739, 30.686065279553958 41.25470044077054, 32.289100740407676 57.32686715697252 M31.503199237701562 57.07543003031366 C21.297526845328854 54.017815557177165, 12.823534449962718 49.969878059010185, -0.42208843823119935 42.51113394989775 M32.378995273565025 58.62587719534837 C20.878377347750828 53.13884423771619, 9.865218214541152 48.16628476239942, -1.2591359098960453 43.39262921611921 M-0.7064993917529279 45.70999650254057 C0.40791264455321974 32.68012261947377, -0.9199110206779212 22.556274854740437, -1.9917267402663303 -0.29700000025331974 M-1.2503494700004154 43.522869418069284 C-0.030720438230809777 31.702705926085578, 0.3286470340267197 19.296955464375575, -0.8503023069381191 -0.5981788141652942 M-0.12376674358094475 6.938893903907228e-18 C-0.12376674358094475 6.938893903907228e-18, -0.12376674358094475 6.938893903907228e-18, -0.12376674358094475 6.938893903907228e-18 M-0.12376674358094475 6.938893903907228e-18 C-0.12376674358094475 6.938893903907228e-18, -0.12376674358094475 6.938893903907228e-18, -0.12376674358094475 6.938893903907228e-18" stroke="#000000" stroke-width="1" fill="none"></path></g></g><g><g transform="translate(280.9920376405364 29.80000644358364) rotate(0 -23.959255104353474 29.61392731541713)" fill-rule="evenodd"><path d="M-9.9284710953506 -0.8562731239944696 L-41.080370332492706 13.554250644052086 L-38.384856523721986 58.559465534909464 L-8.451458782982268 43.339163735941455 L-7.137517697599746 1.2551897075027227" stroke="none" stroke-width="0" fill="#fab005" fill-rule="evenodd"></path><path d="M-7.316195662555314 0.291143337264657 C-14.262069773282832 3.0235224304021457, -22.941822047545998 6.283810467354769, -38.92302401308548 14.818434750193415 M-9.532401260410465 -0.16927072871476412 C-21.27343898416774 5.373732453712934, -31.693234862583317 9.48508817094649, -39.82127164342087 13.507070830555318 M-39.906076743645784 13.880077873820124 C-38.239017825958896 29.03263892066491, -39.200857984414235 47.7700020322805, -40.56941126823383 59.91739320374916 M-39.821509346744236 14.032893708439229 C-39.93739820992717 28.69102885507691, -39.86535926654301 45.29494976094158, -40.89293055865871 59.317725104204214 M-41.14436768531757 58.1961841545243 C-30.353069498100492 53.613742669395585, -20.880109165082047 50.1549347965896, -9.973005076032319 44.7780519169424 M-39.59392052028286 59.83128754507641 C-32.97445580695907 55.914218308294004, -26.17703804507839 51.676557779341366, -9.091509809810855 43.43604769321571 M-6.7741425233894965 45.07233053861599 C-8.774115592319887 28.087679068348077, -8.259020036806007 11.010430824892786, -9.284847195682145 -0.4870122279971838 M-8.961269607860782 44.260836025201186 C-9.204991052907603 32.55174807426545, -9.619315579818771 19.35713429762749, -9.58602600959412 -0.6895385729148984 M-8.987847195428825 0 C-8.987847195428825 0, -8.987847195428825 0, -8.987847195428825 0 M-8.987847195428825 0 C-8.987847195428825 0, -8.987847195428825 0, -8.987847195428825 0" stroke="#000000" stroke-width="1" fill="none"></path></g></g><g transform="translate(89.54363815031536 81.24515397581484) rotate(0 31.520583274148578 12.521875547264472)"><path d="M32.599055817350745 1.0233593378216028 L61.6197625348869 12.406868675723672 L32.95784585736692 25.221132053100973 L-1.6437487695366144 11.603145698085427" stroke="none" stroke-width="0" fill="#fab005" fill-rule="evenodd"></path><path d="M30.748938063159585 1.9892467763274908 C40.133099894267275 5.239364220409317, 49.64241201832844 6.460651265198958, 62.80045394474298 13.561913838610053 M31.878173823468387 -0.6713673574849963 C41.836740523839126 3.3911308089274392, 51.72648849380527 8.714150926005416, 62.6640374359268 12.600616772659123 M64.50282887989313 12.902408471331 C56.72364946485636 17.484367237108916, 46.516887268946164 18.309472136862542, 33.88818941451609 25.83497920077434 M62.28807350961149 12.445929606445134 C52.05459744253334 18.078044904645278, 40.86102094337085 23.007983267483038, 31.459037001244724 24.21883817859134 M32.254489520564675 25.50739827197185 C21.001395637594968 21.111265090621227, 7.014049754344732 14.6215669235781, 1.8467671070247889 14.295023193582892 M32.6325802160427 24.32335969157657 C22.20994203153377 21.761968838686563, 13.328699842722468 16.816414199325667, 0.263040448538959 12.22549142409116 M-0.09029277227818966 14.477589359506965 C9.434463602816686 9.961289033312351, 19.07999971262179 4.3345834226533775, 32.63019869662821 0.32128494046628475 M0.8173896325752139 13.214954038150609 C10.882321323277429 8.927644488606601, 21.003520379783584 4.410330339074134, 31.57000696193427 -0.1939404709264636" stroke="#000000" stroke-width="1" fill="none"></path></g><g><g transform="translate(87.74658158956356 102.99229222201848) rotate(0 15.83463798670175 28.99859174263355)" fill-rule="evenodd"><path d="M1.4922032030270027 0.48529271222651005 L32.529539604459316 11.225371196460937 L32.97339841660586 57.059994919536045 L0.9738826923485107 43.43357816307948 L-0.020693096335180017 -0.5319737996906042" stroke="none" stroke-width="0" fill="#fab005" fill-rule="evenodd"></path><path d="M-1.1926266392722202 1.0639750864356756 C5.463629676320402 0.31730586134669525, 12.594276288638714 4.724081801583486, 31.10793126446417 8.769191290778135 M0.30252009816174963 -0.7078622383996844 C8.909074902608445 3.667831610919421, 16.014008464908635 5.4830188289195325, 30.337260747116417 9.732648397390758 M32.12434733730963 12.18944361392877 C29.771089139087717 25.991446016906583, 33.48787007028585 43.13105777833387, 32.768733102199704 57.66060321995371 M31.433060431640953 11.079220081274425 C31.487404436701055 29.256430346674712, 30.392104088055028 45.21791983659393, 32.025451306556434 58.70504572366678 M32.1097188771936 58.384947950330904 C20.843697300236954 52.464290811421364, 15.480727784950215 51.49433127355447, -0.490978115755766 45.137510161540966 M31.383404616569248 58.469273352374664 C24.760855415557987 53.732511862526636, 16.85887715915278 50.44500771716828, -0.8590232511569553 43.23077921073095 M0.160417205136568 44.641044955394726 C1.360735348777994 25.84971560335991, 0.42218570312002407 10.904157079383822, 0.6215945044503138 -0.6671962831169367 M-0.5091799875308567 44.514957706138055 C-1.3718442743370218 27.322227800157435, -1.0091224663043654 9.607100121559455, 0.17576116509442785 0.5116796689108014 M-0.12376674358094475 6.938893903907228e-18 C-0.12376674358094475 6.938893903907228e-18, -0.12376674358094475 6.938893903907228e-18, -0.12376674358094475 6.938893903907228e-18 M-0.12376674358094475 6.938893903907228e-18 C-0.12376674358094475 6.938893903907228e-18, -0.12376674358094475 6.938893903907228e-18, -0.12376674358094475 6.938893903907228e-18" stroke="#000000" stroke-width="1" fill="none"></path></g></g><g><g transform="translate(165.89656565357996 101.25003601593329) rotate(0 -24.419227973958357 29.058294205422897)" fill-rule="evenodd"><path d="M-7.423335309562303 0.5532426629215479 L-38.3438201094104 13.570069049948511 L-38.81458549737888 59.11217814303825 L-8.46115179834906 43.447618965492055 L-7.895132060584642 -1.5477259363979101" stroke="none" stroke-width="0" fill="#fab005" fill-rule="evenodd"></path><path d="M-9.846449858930923 -1.6091699097305536 C-21.66183276546657 6.473075705132133, -33.63460730202263 9.754829151947769, -40.60404732395541 14.14219574769741 M-8.205956986595906 0.622270573861897 C-16.50670701264352 2.7315924456268634, -23.960400554120604 5.541431084588478, -39.56605402604323 15.116679266558645 M-41.60415651966464 13.871209667527733 C-37.895152360767064 28.523471026343273, -38.53644463389428 40.86025315069363, -38.85131603643256 58.09232748292277 M-39.20430127755385 15.283601597414968 C-40.35336982739764 24.621359416538173, -39.28738695063903 37.33424378917158, -40.5672193027656 59.72575832057635 M-42.00683599874335 57.988226778729654 C-28.282260285717026 55.764869856359105, -19.79377977396767 50.63968357838065, -9.959654064011016 45.244753197268054 M-39.53535394441294 58.89847136188189 C-32.83433835887869 55.074889465753074, -26.156296361378047 51.59976105994345, -7.7693806142548105 43.934446379043564 M-6.831619949173369 42.5795105253015 C-8.249851175648377 27.85933839550479, -8.293072098696053 10.4277904271026, -7.219629533079482 1.6347792651504278 M-9.189228817913868 44.441807552673325 C-9.150806715148136 29.64893609492988, -8.557478213934756 16.215319299102816, -9.69854920213393 -0.29656566213816404 M-8.987847195428825 0 C-8.987847195428825 0, -8.987847195428825 0, -8.987847195428825 0 M-8.987847195428825 0 C-8.987847195428825 0, -8.987847195428825 0, -8.987847195428825 0" stroke="#000000" stroke-width="1" fill="none"></path></g></g><g transform="translate(12.987481787211323 82.79959369892401) rotate(0 31.520583274148578 12.521875547264472)"><path d="M32.35701976157725 1.700911095365882 L63.72065095478327 12.391785493120551 L32.8775384221226 24.70092537444225 L-0.5403343047946692 14.522773256525397" stroke="none" stroke-width="0" fill="#fab005" fill-rule="evenodd"></path><path d="M31.381995311006904 0.2956576142460108 C38.654691278700334 3.849797609331248, 47.97524640760121 7.599114735400466, 63.670326525956696 11.181281605735421 M31.799441774375737 0.853890891186893 C42.56884596367659 3.33709596488358, 52.259429175906135 8.001985866666898, 62.09536623363972 12.273011173121631 M63.385897452622956 13.505482712760568 C55.45978688822447 15.906899435572498, 47.03745178120347 20.507031091734454, 32.90481328032911 25.28560586091271 M63.78426885014058 13.291212285868824 C55.138982551053424 16.35004438786338, 49.403504701129265 18.537203028882033, 31.636826773174107 24.308918981851548 M31.62857817672193 24.140919638836294 C18.96088374268757 18.5561533541065, 7.993066385505067 17.02102399930596, 0.4541539456695318 11.46511141397059 M32.16477205324918 24.75553348571202 C19.58388851592698 21.45100898995214, 7.623122257091186 15.781239010376588, 0.8720541493967175 13.925845528952777 M0.8174604680389166 12.634252706542611 C9.107596944207327 11.154302408974619, 15.736970855230467 7.994210506565869, 30.491964688524604 1.6274797711521387 M0.5132120149210095 12.257172252051532 C10.800256872503088 9.349034985210746, 20.283881929842757 5.5404444926977146, 32.783838112838566 0.6495448304340243" stroke="#000000" stroke-width="1" fill="none"></path></g><g><g transform="translate(11.098326644339181 104.78943819609196) rotate(0 15.60878941783892 28.742403160935908)" fill-rule="evenodd"><path d="M0.7484166780457423 1.165945341810584 L32.312622257296354 12.408106293124174 L32.77924944770065 57.29511689612024 L-1.4531856119219952 42.419462721488934 L-0.3871741136565282 1.0628390815109015" stroke="none" stroke-width="0" fill="#fab005" fill-rule="evenodd"></path><path d="M-0.4350694743945672 1.1058808956295252 C13.162712339979077 5.757746421249859, 23.157902662954626 5.922773281131336, 31.609418173108608 12.043758466434692 M0.04344173893039682 -0.6793406950309873 C11.755589405443715 3.6425967947032776, 23.61992875300651 7.490278323986402, 30.487365472849817 11.43786427431277 M31.121055383954555 10.283563211155151 C30.775086334178425 29.923489286002273, 32.281949072327095 47.070345063914516, 29.968244641390708 59.28211150908225 M30.073278892573327 11.064547747899805 C31.941715774485694 27.772550028510718, 31.2686664444825 44.485955353444524, 32.31590548001704 57.21845284042262 M30.819618790713218 55.963673455951145 C21.389683968082103 54.187162775332396, 9.818648713306711 46.562254400801685, 0.8375082187767333 44.50136437981532 M30.844621328939763 58.86119618949794 C22.363705769538907 53.91476742216781, 15.593763358683784 51.43637229417488, -1.0660274760384851 42.92983995440559 M0.4568419628258056 45.360523372582655 C-0.9235152783763818 31.57647079892908, -1.970559497013685 17.82590937430642, -0.04773345869327328 -1.7973051872104406 M0.4062232239584631 43.943379507094185 C0.03522380034992023 34.68568386638196, 0.18774238046422642 25.76919739690901, 0.05474313720767954 0.850455547682941 M-0.12376674358094475 6.938893903907228e-18 C-0.12376674358094475 6.938893903907228e-18, -0.12376674358094475 6.938893903907228e-18, -0.12376674358094475 6.938893903907228e-18 M-0.12376674358094475 6.938893903907228e-18 C-0.12376674358094475 6.938893903907228e-18, -0.12376674358094475 6.938893903907228e-18, -0.12376674358094475 6.938893903907228e-18" stroke="#000000" stroke-width="1" fill="none"></path></g></g><g><g transform="translate(89.12236259907581 102.52023828618098) rotate(0 -24.019608714716753 30.375706787648994)" fill-rule="evenodd"><path d="M-7.640252656725265 1.7359777595847845 L-38.53796907831561 13.805191026532707 L-41.241653801649385 58.0980627014477 L-8.827632815670409 45.04243184669356 L-8.682543582704879 1.3106897976249456" stroke="none" stroke-width="0" fill="#fab005" fill-rule="evenodd"></path><path d="M-7.011134262618638 1.9099796805530787 C-18.118117694504747 2.880738919414208, -27.839925925389835 10.5995059532211, -37.97191120628845 13.98473164951211 M-9.442537036214985 -0.33330458868294954 C-21.830662270274104 4.607022636104304, -33.283593319853246 11.643896099508021, -39.09045912363213 14.558213552923558 M-40.35707880501282 15.559573625677881 C-39.11810978045219 29.333390520776497, -41.58928814847314 45.204383970367864, -39.02469151258426 61.08471816398094 M-39.45250560381096 14.212568840475438 C-40.826181546483625 28.533126364955123, -39.68334228097002 43.49108535143629, -39.8922863814603 59.412802648654974 M-39.347954204082065 60.87133687354515 C-31.745444358823853 54.38684222900246, -22.707185118280826 52.52256802586848, -9.352683742623963 44.30913687168102 M-41.028083166814916 59.366176796070135 C-30.767732922265225 55.97568245745406, -23.53226924970031 49.824251864425015, -8.408222695905902 44.38832299920212 M-8.888943870645203 45.496497158393666 C-10.414224509472342 33.22051692604629, -8.949495512636902 17.40612498919009, -10.70653903060875 1.026424029842019 M-7.840474864561298 44.14388983460556 C-8.298992449197602 34.702285357776574, -8.999939407156626 24.976244430415825, -8.648104992185749 -0.30410725343972445 M-8.987847195428825 0 C-8.987847195428825 0, -8.987847195428825 0, -8.987847195428825 0 M-8.987847195428825 0 C-8.987847195428825 0, -8.987847195428825 0, -8.987847195428825 0" stroke="#000000" stroke-width="1" fill="none"></path></g></g><g transform="translate(52.62569472648431 152.97911276152746) rotate(357.7632926436004 31.520583274148578 12.521875547264472)"><path d="M32.61167900823057 -1.642593702301383 L61.40056275823743 11.414450028911233 L31.917345574125648 23.23195971366158 L-0.9817458484321833 11.146150330081582" stroke="none" stroke-width="0" fill="#fab005" fill-rule="evenodd"></path><path d="M32.73941431380808 0.26834183000028133 C45.47401581711462 5.875961546697353, 57.145722544991415 8.926362784211225, 61.77564470344812 12.995027294382453 M32.45818346273154 0.9739295141771436 C41.75034663529174 2.8522728519974767, 50.82748036465686 8.049844795790921, 62.26520910827101 12.758412499912083 M63.246665878832644 12.658184280619025 C53.03507096904936 18.20565185071681, 41.12092622105251 21.312290865039188, 33.626140335574746 24.463889623099476 M63.61258807746351 12.088634391315281 C50.87151124958184 17.748734003385486, 40.19167387618896 21.285880457292862, 31.63497483264655 24.91389777608356 M33.041360119357705 24.53807261031261 C21.29508990350829 20.900417700675188, 14.213119882379637 19.08961522859356, -1.0464427080005407 12.164042105898261 M32.243286724202335 24.737215065435976 C22.32657206694543 21.380744410454753, 14.843960592550633 18.277094584328562, -0.009021674282848835 13.514760692603886 M-0.31055947206914425 13.983723750337958 C10.909848104631529 8.813601952213794, 21.115308340108022 6.337100195400417, 31.9970634970814 -1.7479323837906122 M-0.23035303223878145 13.628780801780522 C11.905936247827485 9.267753261122852, 23.55714915168472 2.5384431701898578, 32.02835064660758 0.51406239438802" stroke="#000000" stroke-width="1" fill="none"></path></g><g><g transform="translate(50.97992202864327 172.71624714736913) rotate(0 14.833959776019753 29.691343299268453)" fill-rule="evenodd"><path d="M0.8228572765335963 -1.5119250509887934 L32.83089143854788 9.779754485529875 L31.609145063278344 59.18637644716852 L-0.4633969604556256 44.50745765461729 L1.2162429252610134 -0.3932753298431635" stroke="none" stroke-width="0" fill="#fab005" fill-rule="evenodd"></path><path d="M0.14457508641933658 1.1284759435802698 C12.328430933557675 4.501468328383954, 22.072053482493974 6.7345554531307705, 30.960055012975246 10.634655668926452 M0.8501627705961988 0.551578844897449 C7.238160983807207 2.9787392174253924, 16.561339125240927 4.574919347116907, 30.723440218504876 11.001911789705073 M30.62321199921182 10.885538294506286 C32.171719180763205 28.035307419571442, 31.439364853148593 49.7544689519231, 30.816955059138206 59.3826865985369 M30.053662109908075 10.142831713487421 C31.282328045890893 25.696381311591225, 30.43231655556506 39.47401212789936, 31.26696321212229 57.726239293192855 M30.89113804635134 56.26966236376517 C21.842007950516344 54.551722644227844, 14.480509108908965 49.14804416927747, -1.3915134496574098 43.39640739529536 M31.090280501474705 57.075113623713484 C18.07177141241725 52.96685592468441, 5.751944235315619 47.01294375957111, -0.040794862951784694 43.9333062625225 M0.4281681947822875 45.24906614392207 C-0.5970237510708858 30.536283440744185, 0.9940681167490215 13.365533885578877, -1.8716991273715569 1.5559020433574915 M0.07322524622485105 43.79799632790641 C0.8654528985732952 28.10400395999457, -0.8025274719416406 13.435745583527396, 0.3902956508070753 0.3058395041152835 M-0.12376674358094475 6.938893903907228e-18 C-0.12376674358094475 6.938893903907228e-18, -0.12376674358094475 6.938893903907228e-18, -0.12376674358094475 6.938893903907228e-18 M-0.12376674358094475 6.938893903907228e-18 C-0.12376674358094475 6.938893903907228e-18, -0.12376674358094475 6.938893903907228e-18, -0.12376674358094475 6.938893903907228e-18" stroke="#000000" stroke-width="1" fill="none"></path></g></g><g><g transform="translate(128.96599045178618 171.02430108675617) rotate(0 -24.547900971308422 29.478346003647346)" fill-rule="evenodd"><path d="M-10.499772246417619 1.8658637199550867 L-40.8127760434581 14.598176633471308 L-39.03342126846271 59.690672155394054 L-7.976681371312775 45.31960243402462 L-9.381122525271989 0.20655314065515995" stroke="none" stroke-width="0" fill="#fab005" fill-rule="evenodd"></path><path d="M-7.859371251848556 0.6622725632041693 C-16.78802438136472 2.5398449184408785, -27.024705779069457 7.861134737313817, -39.95787486006152 13.533200369679985 M-8.436268350531376 -0.7375779552385211 C-20.675095947701323 6.525852679440843, -33.953261079667335 11.34015387700069, -39.5906187392829 15.353406474457739 M-39.70699223448169 15.888419733846245 C-41.323804305100346 24.0729331865533, -38.41812349240978 31.98307565616426, -38.83711111709433 59.77798885844538 M-40.449698815500554 14.699047372208593 C-39.33549679535982 26.03700096929301, -40.25803579559268 38.90260852983634, -40.493558422438376 59.41011259604136 M-41.95013535186606 58.985152192338205 C-31.420755953062027 56.47522285087767, -24.329421073507024 50.41789115588454, -9.087731630634703 45.812534705236956 M-41.144684091917746 58.92292115736643 C-27.285707196458524 53.01354943726925, -15.156650126972078 47.808661095383584, -8.550832763407566 44.45775462637137 M-7.235072882007994 43.50298966510634 C-6.703779840807174 34.60549384409437, -8.69807456662117 21.552767645425632, -7.431945152071334 0.9475349094718695 M-8.686142698023655 44.91190077314566 C-9.117481873826808 33.29438578600619, -8.623400745064911 24.891909058557857, -8.682007691313542 -0.8212968511506915 M-8.987847195428825 0 C-8.987847195428825 0, -8.987847195428825 0, -8.987847195428825 0 M-8.987847195428825 0 C-8.987847195428825 0, -8.987847195428825 0, -8.987847195428825 0" stroke="#000000" stroke-width="1" fill="none"></path></g></g><g transform="translate(175.5747631674467 29.734228642786604) rotate(0 172.96073746380716 77.95413519495543)"><text x="0" y="113.90827038991085" font-family="Virgil, Segoe UI Emoji" font-size="97.44266899369421px" fill="#000000" text-anchor="start" style="white-space: pre;" direction="ltr">amazon</text></g><g transform="translate(178.27836958140074 135.47245263861038) rotate(0 169.90107821626862 43.84543953968219)"><text x="0" y="63.69087907936438" font-family="Virgil, Segoe UI Emoji" font-size="54.806799424602744px" fill="#000000" text-anchor="start" style="white-space: pre;" direction="ltr">web services</text></g></svg>