<svg version="1.1" xmlns="http://www.w3.org/2000/svg" viewBox="0 0 337.2302779956568 345.25938191332955" width="337.2302779956568" height="345.25938191332955">
  <!-- svg-source:excalidraw -->
  
  <defs>
    <style>
      @font-face {
        font-family: "Virgil";
        src: url("https://excalidraw.com/FG_Virgil.woff2");
      }
      @font-face {
        font-family: "Cascadia";
        src: url("https://excalidraw.com/Cascadia.woff2");
      }
    </style>
  </defs>
  <g transform="translate(118.8281382010617 19.865128209732575) rotate(312.07983972361956 43.765908255206725 95.9483373287224)"><text x="0" y="138.89667465744483" font-family="Virgil, Segoe UI Emoji" font-size="121.19789978364942px" fill="#000000" text-anchor="start" style="white-space: pre;" direction="ltr">B</text></g><g><g transform="translate(24.459390502942057 200.88283448903042) rotate(0 144.4808415708966 20.004221150631963)" fill-rule="evenodd"><path d="M-1.6680351085960865 -1.7227270416915417 L48.9798126128552 -36.675891186257786 L103.56970604803223 -75.89040807065999 L123.01744880507655 -88.03711830961862 L133.92089630134018 -93.5296667941699 L147.28394836206974 -94.66019348113946 L156.95127372698568 -93.3020472089319 L165.8812335700189 -87.53766398700445 L188.70457804536352 -76.89211962744594 L265.42191750458204 -21.176057376555825 L293.8120284176579 5.02613363120887 L302.6180170243116 18.555948307443494 L303.1162954853162 23.304634853217067 L298.7321246456552 34.46771778538817 L285.68630400162783 49.58046257476269 L222.14134768769154 98.6636404487255 L196.58563332514552 112.86939598992467 L171.10807307476284 125.67861555732392 L156.5861276170534 130.66624389804508 L143.9899796720007 134.0982208249992 L132.16265324248303 132.35983236820283 L121.98685160769452 127.57382343925137 L95.03863742182921 115.17225227210861 L3.973637483818038 50.61287611389628 L-7.745264006092271 36.64734612620968 L-13.965010150286616 25.916088141696946 L-9.456886156413038 15.490654637742924 L1.8542454652488232 -1.7171469740569592" stroke="none" stroke-width="0" fill="#7950f2" fill-rule="evenodd"></path><path d="M0.7428217895328999 0.7506025426089764 C9.318727732031507 -5.0954014938259435, 33.01415948356721 -21.856252941031784, 50.27217638316131 -34.584334740003534 C67.5301932827554 -47.312416538975285, 88.2888448609726 -65.65392652071624, 104.29092318709749 -75.61788825122153 C120.29300151322238 -85.58184998172682, 132.05283078887226 -94.46858684024531, 146.28464633991064 -94.36810512303524 C160.51646189094902 -94.26762340582516, 174.42095030934405 -84.30674046143366, 189.68181649332772 -75.01499794796109 C204.94268267731138 -65.72325543448852, 221.6684668372729 -50.752210283815394, 237.84984344381257 -38.617650042199855 C254.03122005035226 -26.483089800584317, 276.09642503754355 -12.58894256218759, 286.7700761325658 -2.207636498267857 C297.44372722758806 8.173669565651878, 302.0864753864445 15.233203619705366, 301.89175001394597 23.670186341318548 C301.69702464144746 32.10716906293173, 294.88289171552714 39.31073705092591, 285.6017238975748 48.41425983141123 C276.32055607962246 57.51778261189655, 261.2631852466941 67.25802562141358, 246.20474310623197 78.2913230242305 C231.14630096576988 89.3246204270474, 211.82889406588265 105.26650684830128, 195.25107105480222 114.61404424831271 C178.6732480437218 123.96158164832414, 163.120056807276 134.49460015661617, 146.73780503974942 134.3765474242991 C130.35555327222283 134.25849469198204, 113.0182828287415 122.44533845822794, 96.95756044964264 113.90572785441023 C80.89683807054378 105.36611725059252, 65.99061186095348 93.94794709921669, 50.373470765156256 83.13888380139284 C34.75632966935903 72.32982050356898, 13.805303481077484 59.0973175440833, 3.254713874859317 49.05134806746712 C-7.2958757313588505 39.00537859085093, -12.486583939861202 30.88734070908336, -12.930066872152747 22.863066941695706 C-13.373549804444291 14.838793174308053, -1.7125967457498212 4.795994681525114, 0.5938162811100482 0.9057054631412027 M-0.32633550030179315 0.09906493213959044 C8.154426088985886 -6.150012948906974, 31.689717764539974 -24.002472104745763, 49.080181415430594 -36.43342206938934 C66.47064506632121 -48.86437203403291, 87.70359322360135 -64.97571406866037, 104.01644640504192 -74.48663485572187 C120.32929958648249 -83.99755564278338, 132.82610397856408 -93.51844722607862, 146.95730050407403 -93.49894679175839 C161.08849702958398 -93.47944635743815, 173.4602657497287 -83.44111765297538, 188.80362555810154 -74.36963224980049 C204.14698536647438 -65.2981468466256, 222.53705392707784 -50.924798309919886, 239.017459354311 -39.07003437270908 C255.49786478154417 -27.215270435498276, 277.3598169474688 -13.68805855961939, 287.6860581215006 -3.2410486265356666 C298.0122992955324 7.2059613065480566, 301.60816335603784 15.243183859396582, 300.9749063985016 23.61202522579326 C300.3416494409654 31.98086659218994, 292.8390418500589 37.9938810345303, 283.88651637628334 46.97199957184441 C274.9339909025078 55.95011810915852, 262.03641781403235 66.57728360718616, 247.2597535558482 77.48073644967792 C232.48308929766407 88.38418929216968, 212.1211252933681 102.95008879908687, 195.22653082717855 112.392716626795 C178.331936360989 121.83534445450314, 162.19440317859704 133.4982901929745, 145.89218675871095 134.13650341592677 C129.58997033882486 134.77471663887903, 113.42002788080907 124.6907468115585, 97.41323230786207 116.22199596450854 C81.40643673491508 107.75324511745858, 65.55723548077626 94.64669956488387, 49.85141332102898 83.32399833362697 C34.14559116128169 72.00129710237007, 13.495573702636815 58.25118243454137, 3.178299349378376 48.2857885769671 C-7.138975003880063 38.32039471939283, -11.464456638736346 31.834293307001346, -12.052232798521654 23.531635188181372 C-12.640008958306963 15.228977069361397, -2.3737426465078046 2.452219192911941, -0.3483576093334704 -1.530160135952756" stroke="#000000" stroke-width="1" fill="none"></path></g></g><g><g transform="translate(24.45939050294203 150.88283448903042) rotate(0 143.6742844557991 19.845187197978532)" fill-rule="evenodd"><path d="M1.7551968283951283 1.1061034612357616 L51.45701941671348 -35.426262143215126 L104.41324276026148 -73.52977205244338 L125.27868413905568 -87.94631180304447 L133.2417751423231 -91.3871337079296 L145.49855426718534 -93.41854764579944 L156.43739142523788 -90.91463487693355 L164.6619114622866 -89.43512633266418 L188.29969070440063 -77.20895524695516 L263.44972817501747 -20.72718478798094 L293.3407515159956 4.018813487926456 L302.2673806389304 16.986989570487374 L299.90910387647 24.958484238895835 L295.69582074547293 37.04215208813542 L284.20453191411343 46.960026167137016 L223.0555151887239 98.4430827814105 L194.04647436247853 113.12710909172893 L171.17721026802542 127.00007153518104 L156.58763475774944 131.41743243701364 L144.6119442235091 132.9490866882628 L134.30873884005774 134.05771289707008 L120.37786055846442 127.96688605315585 L96.5640732047982 113.48293196860891 L2.793267249865039 48.961312968676 L-6.349846934213361 34.824822793077416 L-12.988823777946891 23.408467352586285 L-10.81999731710859 16.751816702712464 L-0.5917163901031017 1.2581333331763744" stroke="none" stroke-width="0" fill="#7950f2" fill-rule="evenodd"></path><path d="M-0.16295441463589677 -1.1725488893687726 C8.110488902359169 -7.191948607184918, 32.55432243879172 -23.450241298516126, 49.82940338524556 -35.67971713091988 C67.10448433169941 -47.90919296332364, 87.67684073436425 -64.90512203342824, 103.48753126408715 -74.54940388379131 C119.29822179381006 -84.19368573415439, 130.39423666783335 -93.2654035096498, 144.69354656358303 -93.5454082330983 C158.9928564593327 -93.8254129565468, 173.68350148440194 -85.2989692421205, 189.2833906385852 -76.2294322244823 C204.88327979276843 -67.15989520684408, 222.1929943020799 -51.28695658349944, 238.29288148868247 -39.12818612726903 C254.39276867528503 -26.969415671038625, 275.35779298887707 -13.496563741708675, 285.88271375820045 -3.276809487099854 C296.40763452752384 6.942944767508967, 301.50451872420683 13.603160746382404, 301.44240610462276 22.19033940038389 C301.3802934850387 30.77751805438538, 294.68335354274564 38.60359871671122, 285.51003804069603 48.24626243690907 C276.3367225386464 57.88892615710692, 261.38865436952113 68.97805360609233, 246.40251309232502 80.04632172157099 C231.4163718151289 91.11458983704965, 212.49974249359556 105.7909609785336, 195.59319037751942 114.655871129781 C178.68663826144328 123.5207812810284, 161.44537725227715 133.23780080593727, 144.9632003958681 133.23578262905536 C128.48102353945907 133.23376445217346, 112.45682620655818 123.17272904704792, 96.70012923906515 114.64376206848961 C80.94343227157212 106.11479508993129, 65.86172479023804 92.84015659482071, 50.42301859090994 82.06198075770548 C34.98431239158184 71.28380492059026, 14.449865783607294 59.56422296063156, 4.067892043096526 49.97470704579821 C-6.314081697414242 40.38519113096486, -11.295221739183807 32.73212960761098, -11.868823852154673 24.524885268705383 C-12.442425965125539 16.317640929799786, -1.5076759188974997 4.929227669942262, 0.6262793652713299 0.7312410123646258 M-1.707644211659208 0.8262589983735236 C6.921861873735573 -5.07724729677941, 34.64846627125736 -21.553304349909382, 52.064952593609085 -34.443880215536765 C69.48143891596081 -47.33445608116415, 87.38028693052358 -66.88378722554616, 102.79127372245114 -76.5171961953908 C118.2022605143787 -86.15060516523543, 130.29674794397974 -92.29359264692049, 144.53087334517443 -92.24433403460458 C158.76499874636912 -92.19507542228867, 172.33565629169203 -84.95426654352282, 188.1960261296192 -76.22164452149532 C204.0563959675464 -67.48902249946782, 223.33695831090856 -52.35028641693806, 239.6930923727376 -39.84860190243958 C256.04922643456666 -27.346917387941104, 276.2334030732524 -11.412180858389043, 286.33283050059345 -1.211537434504462 C296.4322579279345 8.989105989380118, 300.11067944612535 13.36736847757906, 300.2896569367837 21.355258640867905 C300.468634427442 29.34314880415675, 296.80474613656713 36.91549507485289, 287.40669544454323 46.7158035452286 C278.00864475251933 56.516112015604314, 259.1777582263436 69.20032628382123, 243.9013527846401 80.15710946312215 C228.6249473429366 91.11389264242308, 211.9241691456303 103.74988134769117, 195.74826279432227 112.45650262103416 C179.57235644301426 121.16312389437715, 163.30051685722373 132.19167118318913, 146.84591467679192 132.39683710318005 C130.39131249636011 132.60200302317097, 113.17380653197951 122.14001745950898, 97.02064971173141 113.6874981409796 C80.86749289148331 105.23497882245022, 65.36068269793523 92.34731904568004, 49.92697375530335 81.68172119200378 C34.49326481267147 71.01612333832752, 15.088531213994777 59.57321319477746, 4.41839605594012 49.693911018922016 C-6.251739102114538 39.81460884306657, -13.30762928270332 30.987596377255972, -14.093837193024592 22.40590813687113 C-14.880045103345864 13.824219896486287, -2.6712383855580146 2.0453995002480916, -0.29885140598751603 -1.7962184233870357" stroke="#000000" stroke-width="1" fill="none"></path></g></g><g><g transform="translate(24.45939050294203 105.38283448903042) rotate(0 144.15574849488638 20.218157879178307)" fill-rule="evenodd"><path d="M-0.6197941116988659 1.9184341840445995 L51.4733401221273 -35.6094911127891 L103.76765245493311 -76.81940055815016 L123.62108516673513 -89.90630468863407 L134.42519484676035 -90.53458081715202 L147.0791449921304 -92.72366382240466 L155.17443051444076 -91.30075996467158 L166.0178012594973 -87.27872517528503 L187.93995855336914 -73.83961768820882 L264.7430264194938 -19.927625671617413 L292.8588574997297 2.512754318157169 L299.2851967056723 15.986347270835275 L301.90465736996975 24.321168965610923 L295.8502640094805 36.17294899746769 L286.9021422923788 47.31059541533648 L221.38369502499708 98.01195952472715 L195.29575100050954 112.95970348641276 L170.34123605156424 125.68866873748206 L157.86318703054607 131.60119260318186 L146.89892532931356 135.8140449745482 L132.71017612262 133.83677945972266 L119.69990636153449 126.43984604842562 L96.81600487212609 114.47644555274587 L4.687487125200732 48.84891529793015 L-7.897811507119855 37.026924023698754 L-11.360320455345573 24.89235264082481 L-10.19324875524946 18.531646204818177 L1.5581797547638416 -1.1050577946007252" stroke="none" stroke-width="0" fill="#7950f2" fill-rule="evenodd"></path><path d="M0.08774071857333188 -0.6677737466990947 C8.41918269279496 -6.633990481116802, 33.75944262082908 -23.49393417342457, 51.03031519325948 -36.06583249117989 C68.30118776568989 -48.63773080893521, 87.77807602870628 -66.57622884876639, 103.71297615315575 -76.09916365323102 C119.64787627760522 -85.62209845769564, 132.39715348073008 -93.26792817166763, 146.63971593995632 -93.20344131796769 C160.88227839918255 -93.13895446426774, 173.81554122210335 -84.80879065706802, 189.16835090851316 -75.71224253103136 C204.52116059492297 -66.61569440499471, 222.40347337083602 -50.85182865762663, 238.75657405841514 -38.62415256174779 C255.10967474599425 -26.39647646586895, 276.61790279493783 -12.73611538126556, 287.2869550339878 -2.346185955758301 C297.95600727303776 8.043743469748957, 303.1073256738223 15.097425635145834, 302.7708874927148 23.715423991295758 C302.4344493116073 32.33342234744568, 294.74379904216585 39.968301227544956, 285.26832594734276 49.361804181141245 C275.7928528525197 58.755307134737535, 260.943554824996 69.17793983274638, 245.91804892377644 80.07644171287347 C230.8925430225569 90.97494359300057, 212.0077893113751 105.91890201475798, 195.1152905400255 114.75281546190381 C178.22279176867593 123.58672890904964, 160.88713683861138 133.21479274548196, 144.5630562956789 133.0799223957485 C128.23897575274643 132.94505204601504, 113.03473996769709 122.44789298366291, 97.17080728243063 113.94359336350303 C81.30687459716417 105.43929374334314, 64.90010913243165 92.69073862225602, 49.37946018408011 82.05412467478922 C33.85881123572857 71.41751072732242, 14.294912113105587 59.79559417263717, 4.0469135923213795 50.12390967870226 C-6.201084928462828 40.45222518476735, -11.57544701613083 32.377786097936905, -12.108530940625133 24.02401771117975 C-12.641614865119436 15.670249324422588, -1.2232313960398338 4.150790532338503, 0.8484100453555585 0.0012993581593037096 M-1.3253341335151345 1.596041090944782 C6.782619904150154 -4.226361154525535, 32.82627454886432 -22.22993598414476, 50.236343100830304 -35.03270613993328 C67.64641165279629 -47.835476295721804, 87.53467075439521 -65.16222511893682, 103.13507717828077 -75.22057984378634 C118.73548360216633 -85.27893456863586, 129.69119608364727 -95.34744275649767, 143.8387816441437 -95.38283448903039 C157.98636720464012 -95.4182262215631, 172.53701689168668 -84.81674420131777, 188.02059054125937 -75.43293023898266 C203.50416419083206 -66.04911627664755, 220.60793889076163 -51.076716329982034, 236.74022354157992 -39.07995071501969 C252.87250819239821 -27.08318510005735, 273.88507052749515 -13.912497108713293, 284.8142984461692 -3.452336549208594 C295.7435263648432 7.007824010296105, 301.944960044289 15.036122432943289, 302.3155910536241 23.6810126420085 C302.68622206295913 32.325902851073714, 296.28692552318296 38.99666640387435, 287.0380845021795 48.41700470518268 C277.7892434811761 57.837343006491004, 262.1589814209427 69.50515277946866, 246.8225449276035 80.20304244985846 C231.48610843426425 90.90093212024826, 211.7839405427441 103.33499142793335, 195.01946554214408 112.60434272752144 C178.25499054154406 121.87369402710954, 162.44920022638343 135.20658389099478, 146.23569492400338 135.81915024738706 C130.02218962162334 136.43171660377934, 114.05512501771635 125.30464246284683, 97.73843372786376 116.27974086587507 C81.42174243801118 107.25483926890331, 63.894218819780484 92.72945663751888, 48.33554718488786 81.66974066555649 C32.77687554999523 70.6100246935941, 14.852226866479672 59.31605429308602, 4.386403918508021 49.92144503410069 C-6.079419029463629 40.526835775115366, -13.734972830047528 33.49722252500301, -14.459390502942043 25.302085111644537 C-15.183808175836557 17.106947698286064, -2.2374604882000737 5.128282865402358, 0.03989788114093251 0.7506205539498478" stroke="#000000" stroke-width="1" fill="none"></path></g></g><g transform="translate(129.6604075372884 38.742067090472574) rotate(312.65909361752114 35.16318488058201 77.08852069973744)"><text x="0" y="112.17704139947494" font-family="Virgil, Segoe UI Emoji" font-size="97.37497351545781px" fill="#fff" text-anchor="start" style="white-space: pre;" direction="ltr">B</text></g></svg>