<svg xmlns="http://www.w3.org/2000/svg" width="246.685" height="275.991" version="1.1" viewBox="0 0 246.685 275.991"><defs><style>@font-face{font-family:&quot;Virgil&quot;;src:url(https://excalidraw.com/FG_Virgil.woff2)}@font-face{font-family:&quot;Cascadia&quot;;src:url(https://excalidraw.com/Cascadia.woff2)}</style></defs><g><g><path fill="none" stroke="#000" stroke-width="1" d="M0.8908989787101744 -1.0153986811637878 C6.665225927293209 4.613524818986225, 26.1665732773588 20.42596055068988, 34.93797418034022 34.308389893588824 C43.70937508332164 48.19081923648777, 50.20665421918797 65.41690847812458, 53.51930439659868 82.27917737622988 C56.83195457400939 99.14144627433518, 57.336440709130905 119.08233756919061, 54.81387524480446 135.48200328222066 C52.29130978047801 151.8816689952507, 45.87256972888552 166.69011172730853, 38.38391161064 180.67717165441013 C30.895253492394474 194.66423158151173, 16.4719794987464 212.97263261678845, 9.881926535331308 219.4043628448303 C3.2918735719162147 225.83609307287216, 5.639498407037037 225.32698470289415, -1.156406169850561 219.26755302266133 C-7.952310746738158 213.2081213424285, -22.462465497816034 196.96535255747838, -30.893500925994275 183.04777276343344 C-39.324536354172515 169.1301929693885, -47.79273495951132 152.85303029920124, -51.742618738920015 135.7620742583917 C-55.69250251832871 118.67111821758216, -57.580339398655575 97.06424448062143, -54.592803602446416 80.50203651857623 C-51.60526780623726 63.93982855653104, -42.878039356355714 49.67847774204645, -33.817403961665065 36.388826486120536 C-24.756768566974415 23.099175230194625, -5.810248460611805 7.012467810950331, -0.22899123430252077 0.7641289830207825 M-0.1005177868064493 1.065913065886125 C5.568134665185494 6.801211617474945, 25.125807120977804 22.31282588362675, 34.45731602668148 35.538654632899195 C43.78882493238516 48.76448338217164, 52.52314041474665 63.55205429126746, 55.88853564741563 80.4208855615208 C59.25393088008461 97.28971683177414, 57.80998692912987 119.9319231395018, 54.649687422695365 136.75164225441927 C51.48938791626086 153.57136136933673, 44.72763421955587 167.7581408752073, 36.926738608808606 181.33920025102555 C29.125842998061344 194.9202596268438, 14.606977720674656 212.14180331552618, 7.844313758211806 218.23799850932875 C1.0816497957489561 224.33419370313132, 2.9282971757902216 223.7623511879292, -3.649245165968496 217.916371413841 C-10.226787507727213 212.0703916397528, -23.89686637106543 197.00079993585115, -31.6209402923405 183.1621198647996 C-39.34501421361557 169.32343979374804, -46.19233352736035 151.55056165890915, -49.99368869361892 134.88429098753159 C-53.795043859877495 118.21802031615402, -56.66407493684581 99.446080499994, -54.42907128989192 83.16449583653421 C-52.19406764293804 66.88291117307443, -45.361548223148255 50.931968799120135, -36.58366681189562 37.19478300677293 C-27.805785400642982 23.457597214425725, -7.813432456162303 6.7478185928436885, -1.7617828223761172 0.741381082450971" transform="translate(123.71035794913837 41.97049728778843) rotate(0 0.8876415391595174 111.50237248409252)"/></g></g><g><g><path fill="none" stroke="#000" stroke-width="1" d="M1.0266427159309386 -0.5294592976570129 C-2.051108699767182 2.4717763418866956, -13.747351615581227 11.526251778395203, -19.589996622373995 18.911978205987076 C-25.432641629166763 26.29770463357895, -34.94514008872196 37.98382019322205, -34.02922732482566 43.784899267894225 C-33.11331456092936 49.5859783425664, -22.38023249883487 52.03285385611456, -14.094520038996189 53.71845265402012 C-5.808807579157504 55.404051451925675, 7.256626720730999 56.50882826927979, 15.685047434206444 53.898492055327566 C24.11346814768189 51.28815584137534, 35.426516226708 43.844782324371124, 36.47600424185648 38.056435370306794 C37.525492257004956 32.26808841624246, 28.049172515970167 25.643636206693532, 21.981975525097322 19.16841033094159 C15.914778534224478 12.693184455189648, 3.799439959638031 2.5042647470915176, 0.0728222966194152 -0.7949198842048645 M0.1064914124552161 1.8069706257339568 C-3.024829835985119 4.888809965855879, -14.639750220993104 13.47316994190897, -20.501164616878793 20.18171546505281 C-26.36257901276448 26.89026098819665, -36.108469115784246 36.248354869809255, -35.06199496285892 42.058243764596995 C-34.01552080993359 47.868132659384734, -23.006858957664143 53.03705970847968, -14.222319699326826 55.04104883377925 C-5.437780440989512 57.04503795907882, 9.017326237498635 56.54520215983432, 17.64524058716497 54.08217851639439 C26.273154936831304 51.61915487295447, 36.7005871845419 45.783987924608596, 37.54516639867119 40.26290697313969 C38.38974561280048 34.74182602167079, 29.12270157907016 27.925041106564507, 22.7127158719407 20.955692807580963 C16.302730164811237 13.98634450859742, 2.6353616315594186 1.7192900643785893, -0.9147478441055864 -1.5531828207615763" transform="translate(121.0970225304568 42.26529480592123) rotate(0 1.2391616388249531 27.36270888636916)"/></g></g><g><g><path fill="none" stroke="#000" stroke-width="1" d="M0.3255436038848025 -0.7154032588005066 C4.834122802679648 4.882503418347748, 20.40331544880636 19.35104216747122, 26.963435041160714 34.37057539356656 C33.52355463351507 49.3901086196619, 38.56453939716112 71.34238448095753, 39.68626115801092 89.40179609777154 C40.80798291886072 107.46120771458554, 38.13093128118875 137.8500657648818, 33.69376560625952 142.7270450944506 C29.256599931330285 147.6040244240194, 19.027387673555424 128.57847116917856, 13.06326710843553 118.66367207518438 C7.099146543315636 108.74887298119019, 1.1559202786730998 96.50557776096795, -2.0909577844598446 83.23825053048546 C-5.337835847592789 69.97092330000297, -6.622675062849103 52.79976664958172, -6.4180012703621365 39.05970869228943 C-6.21332747787517 25.319650734997147, -1.9934843778825908 7.456511634862595, -0.862915029538049 0.7979027867317199 M-0.9626828921616065 1.5234060849901288 C3.4278914877765234 7.1707017295928175, 19.474301573614326 20.59227277293006, 26.20926915892532 35.389274008914526 C32.94423674423631 50.186275244898994, 38.257095500861894 72.29806622091925, 39.447122619704345 90.30541350089692 C40.637149738546796 108.31276078087458, 37.42420097378294 138.66139697880868, 33.34943187198002 143.43335768878055 C29.27466277017711 148.2053183987524, 20.726415138774104 128.60324473998995, 14.998508008886848 118.93717776072802 C9.270600878999591 109.27111078146609, 2.540956914602819 98.39903072441514, -1.018010907343507 85.43695581320898 C-4.5769787292898325 72.47488090200282, -6.744676503141326 55.25824230362312, -6.355298922791106 41.16472829349107 C-5.965921342440886 27.071214283359026, 0.4448118542757272 7.583934149038592, 1.3182545747578156 0.8758717524167152" transform="translate(74.87033708780564 100.90843346891086) rotate(0 16.742752594776277 71.7263158264789)"/></g></g><g><g><path fill="none" stroke="#000" stroke-width="1" d="M0.8887894749641416 0.356745994091034 C-3.052146161214856 7.0042162140210475, -17.647738401484865 25.47969546715418, -23.297165147163554 40.650566565990445 C-28.946591892842243 55.82143766482671, -32.62090867859605 73.9115287343661, -33.007770999108 91.3819725871086 C-33.39463331961994 108.85241643985111, -30.378107931243683 141.66454120079675, -25.618339070235212 145.47322968244552 C-20.85857020922674 149.2819181640943, -9.996260908736623 124.70266515811282, -4.44915783305718 114.23410347700117 C1.097945242622262 103.76554179588952, 4.872911760893359 95.227332897981, 7.664279383841443 82.6618595957756 C10.455647006789526 70.09638629357019, 13.470042171569037 52.47747671206791, 12.299047904631317 38.84126366376876 C11.128053637693597 25.205050615469602, 2.6907849340671994 7.462862225373584, 0.6383137822151184 0.8445813059806822 M-0.10373478001914926 -0.5015663043502718 C-4.190666396401299 5.773943529243892, -18.43088764395118 23.65261237563255, -23.99012320743373 39.13203926435672 C-29.549358770916278 54.61146615308089, -33.15881951947059 74.55732887955072, -33.459148160914445 92.37499502799474 C-33.7594768023583 110.19266117643876, -30.91929972439302 142.26549408914212, -25.79209505609686 146.03803615502082 C-20.664890387800696 149.81057822089952, -8.499387590546867 125.6446074957804, -2.695920151137471 115.01024742326697 C3.1075472882719253 104.37588735075354, 6.951493312141567 95.07739320021432, 9.028709580359521 82.23187571994028 C11.105925848577476 69.38635823966624, 11.280891276325528 51.48461241256754, 9.767377458170252 37.93714254162273 C8.253863640014975 24.38967267067791, 1.8581837521372688 7.111209285672131, -0.052373328572139055 0.9470564942713828" transform="translate(168.6616219292307 100.66070722803612) rotate(0 -10.462241546069095 72.93577360507393)"/></g></g><g><g><path fill="none" stroke="#000" stroke-width="1" d="M-0.7098284840583802 0.6692460179328918 C5.723615856965383 -3.0389684240023294, 23.977191627025604 -17.59963851372401, 37.674531638622284 -22.883272063732147 C51.371871650218964 -28.166905613740283, 68.68263736168544 -31.62858074903488, 81.4742115855217 -31.032555282115936 C94.26578580935796 -30.43652981519699, 108.71199667056402 -21.108715204397836, 114.42397698163987 -19.307119262218475 M1.118372832471505 -0.025003767991438552 C7.577604163720583 -4.029413043741758, 24.03659836226143 -19.687121945206698, 37.34311528527178 -24.68206464597024 C50.64963220828213 -29.67700734673378, 68.11991626087266 -30.568838082635775, 80.9574743705336 -29.9946599725727 C93.79503248019455 -29.42048186250962, 108.75024642182825 -22.954971928779656, 114.36846394323744 -21.236995985591783" transform="translate(122.26076522051517 42.060616443347925) rotate(0 56.85707424879075 -15.211310814189915)"/></g></g><g><g><path fill="none" stroke="#000" stroke-width="1" d="M112.09710563056325 0.6574704051017761 C106.00592822781421 -3.1178254882494607, 88.73843243545416 -18.287312869230906, 75.68554269417156 -23.60235892534256 C62.63265295288896 -28.917404981454215, 46.3398780862235 -31.841681587696073, 33.779767182867644 -31.232805931568144 C21.21965627951179 -30.623930275440216, 5.912655721671204 -21.541407565275826, 0.3248772740364074 -19.94910498857498 M110.62784623191847 -0.042961577558890074 C104.90444634750143 -3.5396700667186334, 90.83360969483415 -17.075825337354715, 77.95330768115785 -22.11867210992612 C65.07300566748155 -27.161518882497525, 46.21452928186325 -30.283816861594097, 33.346034149860635 -30.300042212987318 C20.47753901785802 -30.31626756438054, 6.4808493903291176 -23.614827779118592, 0.7423368891421704 -22.216024218285455" transform="translate(9.675122725963547 41.310616443347925) rotate(0 56.21099145229982 -15.326573019123074)"/></g></g></svg>