<svg xmlns="http://www.w3.org/2000/svg" width="271.888" height="306.315" version="1.1" viewBox="0 0 271.888 306.315"><defs><style>@font-face{font-family:&quot;Virgil&quot;;src:url(https://excalidraw.com/FG_Virgil.woff2)}@font-face{font-family:&quot;Cascadia&quot;;src:url(https://excalidraw.com/Cascadia.woff2)}</style></defs><g><g><path fill="none" stroke="#000" stroke-width="1" d="M-60.08654883473378 -0.2777119968086481 C-104.45552545976065 26.301779776940318, -143.58622102871422 52.49534730464328, -184.83069823708155 74.93893356690997 M-61.22761283691239 -0.5781611604616046 C-109.26156458656814 28.15055834388137, -156.2349088364221 56.72993542925697, -183.4919759326405 74.4032912401005 M-185.70023797478297 73.38625498185748 C-183.8284234108256 111.84867983825086, -184.8305601081804 146.0103296281952, -183.2966292705387 208.68692859829505 M-184.92316904596754 75.28051783121073 C-185.0779437691373 107.05471507621051, -185.65368116465487 139.89299293215208, -184.54598340857774 209.11333131519248 M-186.95390399359167 208.37877210796913 C-152.44987059438316 227.72065139100414, -117.73042089558452 248.02160468377195, -63.3900065472298 282.5459596243069 M-184.97918305266649 210.13331150737693 C-146.19670556590196 231.6087357305192, -105.09185503853037 256.274490069599, -62.112804521242595 284.3649560528189 M-62.31792641188434 284.9261728849575 C-34.87014676490284 264.56384240195473, -5.525393080221356 249.39426771583138, 63.311782809067424 203.76875120778774 M-62.33389936796806 283.8956097679526 C-16.880216163854236 255.47450000936766, 29.562771974146656 227.10607774286098, 62.208597677852865 205.91928234980648 M64.11468264656132 204.54680687566494 C62.389953846396565 170.8595795092076, 62.01391308969414 137.16977912944458, 64.9344973881728 73.15165602483475 M63.29653145661568 205.57071700976437 C64.19506785124833 166.26823862142874, 64.25924074501091 129.54225731103503, 63.27338241329407 73.47070365373665 M61.454056771565135 72.80265175618851 C20.327092113542633 48.94889063281032, -22.89819342868592 20.614028825132912, -60.066104083947955 -1.389146814122796 M63.90008114567017 72.84521418039375 C22.02796031667026 49.93823111971592, -18.341027691232 25.490229617421043, -62.32606439168763 0.0668382840231061" transform="translate(196.95390399359167 11.389146814122796) rotate(0 -61.009703302709454 141.76851303541736)"/></g></g><g><g><path fill="none" stroke="#000" stroke-width="1" d="M-65.22101181762929 -32.117804686641215 C-62.10578556880094 -35.08426411120762, -50.71143499973154 -45.40971950325969, -46.916982293733454 -50.62495641712601 C-43.12252958773537 -55.84019333099233, -35.807118859333464 -58.0150099446948, -42.454295581640814 -63.409226169839144 C-49.101472303948164 -68.80344239498348, -70.59697131165412 -82.19347739771294, -86.80004262757754 -82.99025376799204 C-103.00311394350096 -83.78703013827115, -125.82505101504081 -78.66378084582811, -139.6727234771814 -68.1898843915138 C-153.520395939322 -57.715987937199486, -166.37322009582556 -37.31147746625628, -169.88607740042102 -20.146875042106174 C-173.39893470501647 -2.9822726179560703, -169.59685514529798 20.0536499564504, -160.7498673047542 34.79773015338682 C-151.9028794642104 49.541810350323246, -131.86798940473005 62.36991384301027, -116.8041503571582 68.31760613951235 C-101.74031130958635 74.26529843601443, -84.56443659096611 73.76596831665098, -70.36683301932305 70.48388393239928 C-56.169229447679996 67.20179954814758, -36.78126346505756 54.22495329832815, -31.61852892729987 48.62509983400212 C-26.45579438954218 43.02524636967609, -35.32018883380659 41.405695584236426, -39.39042579277692 36.88476314644308 C-43.46066275174724 32.36383070864973, -51.53408370067668 23.01044169345649, -56.03995068112183 21.499505207242052 C-60.54581766156698 19.988568721027615, -59.90020510427168 25.490027579818896, -66.42562767544781 27.819144229156453 C-72.95105024662395 30.14826087849401, -85.52654926440611 36.40272461362288, -95.19248610817863 35.474205103267394 C-104.85842295195114 34.54568559291191, -118.20103975913986 29.673904736464, -124.42124873808287 22.248027167023523 C-130.64145771702587 14.822149597583046, -133.37456881194902 0.4551374972261435, -132.5137399818367 -9.081060313375458 C-131.65291115172437 -18.61725812397706, -126.35332290582932 -29.190549418112806, -119.25627575740893 -34.96915969658608 C-112.15922860898854 -40.74776997505936, -99.08321858275906 -44.20262849328202, -89.93145709131441 -43.75272198421513 C-80.77969559986977 -43.302815475148236, -68.63224647472609 -34.114455947131766, -64.34570680874104 -32.26972064218473 M-66.72078717066611 -32.91387112702232 C-63.752101271559674 -35.66955197783727, -52.47711219250148 -44.20349170125875, -48.04012593028048 -49.171436178763756 C-43.603139668059484 -54.13938065626876, -33.72488847196615 -56.761981337363586, -40.09886959734014 -62.721537992052376 C-46.47285072271413 -68.68109464674117, -69.4630668265104 -84.14007502515155, -86.28401268252439 -84.92877610689649 C-103.10495853853838 -85.71747718864144, -126.79912510393464 -78.09412583993351, -141.02454473342408 -67.45374448252204 C-155.24996436291352 -56.81336312511058, -167.91643055752402 -38.42367411322232, -171.63653045946103 -21.086487962427697 C-175.35663036139803 -3.749301811633078, -172.2812008430213 21.742475153633002, -163.3451441450461 36.56937242224568 C-154.4090874470709 51.396269690858354, -133.79689620365158 62.3698231020539, -118.02019027160975 67.87489564924834 C-102.24348433956791 73.37996819644279, -82.6945932957123 72.79167351347118, -68.68490855279505 69.59980770541233 C-54.67522380987781 66.40794189735348, -38.895707757207994 53.964526904543575, -33.9620818141063 48.72370080089526 C-29.0284558710046 43.48287469724694, -35.15264320939399 42.81053160466883, -39.08315289418486 38.154851083522445 C-43.01366257897573 33.49917056237606, -53.0945414076869 22.5464666036308, -57.54513992285151 20.789617674016935 C-61.995738438016126 19.032768744403068, -59.90176608014366 25.140161263463128, -65.78674398517256 27.613757505839246 C-71.67172189020147 30.087353748215364, -83.18350607353196 36.6005913001682, -92.85500735302492 35.63119512827363 C-102.52650863251787 34.661798956379066, -116.82821353036478 29.038793938544664, -123.81575166213028 21.79738047447185 C-130.80328979389577 14.555967010399037, -135.89789517607136 1.5482149481795675, -134.78023614361794 -7.81728565616326 C-133.66257711116452 -17.182786260506088, -124.93168793310052 -28.518780826746095, -117.10979746740986 -34.39562315158511 C-109.2879070017192 -40.27246547642413, -96.48154472038374 -43.50361777425837, -87.84889334947398 -43.07833960519736 C-79.21624197856423 -42.65306143613634, -68.80582848436197 -33.88164308000441, -65.31388924195136 -31.843954137219008" transform="translate(229.24700132100338 159.91897110332695) rotate(0 -101.61432158948412 -6.033432407828997)"/></g></g><g><text x="0" y="74.344" fill="#000" direction="ltr" font-family="Virgil, Segoe UI Emoji" font-size="65.76" text-anchor="start" transform="translate(167.6589762876099 93.70607924453742) rotate(0 41.00064086052271 51.672040536549176)" style="white-space:pre">++</text></g></svg>