<svg version="1.1" xmlns="http://www.w3.org/2000/svg" viewBox="0 0 228.48940587091238 250.00895667599264" width="228.48940587091238" height="250.00895667599264">
  <!-- svg-source:excalidraw -->
  
  <defs>
    <style>
      @font-face {
        font-family: "Virgil";
        src: url("https://excalidraw.com/FG_Virgil.woff2");
      }
      @font-face {
        font-family: "Cascadia";
        src: url("https://excalidraw.com/Cascadia.woff2");
      }
    </style>
  </defs>
  <g><g transform="translate(11.49824373004617 12.589161792833366) rotate(0 102.74645920541002 112.41531654516295)"><path d="M1.377211946408987 0.8293763311160438 C53.95792223387943 1.52509394709959, 106.54550555307192 -0.1536208813613666, 206.99116214086627 -2.1274952245721948 M0.6773486553684753 -0.007187844314897924 C50.34604138027671 -0.5441934986995274, 100.47414604429213 -0.3484286251715788, 205.71048053819828 -2.288046808157697 M205.12585565052913 -1.3701194935180512 C200.72950223204595 64.04594889221605, 191.95125100526545 128.8546933684049, 185.7603420904377 193.78091987464322 M206.62843030109988 -2.5891617928333845 C200.82763364877715 55.91769869336238, 195.26966629714462 115.35613785219556, 185.93862282955138 193.5704776314993 M184.7668471029499 192.78437885138882 C164.49429542627703 205.17449880868136, 143.70294817340033 211.65991875558424, 108.79860369757735 226.13096603336678 M185.27691542827574 194.29251065533353 C159.9274490315776 204.6044849936233, 133.4418395429302 216.73136512018408, 106.85720945605063 227.08953329692528 M107.84053961829268 227.41979488315926 C87.35920225114367 218.01526269978163, 61.86289010734491 211.76613629903792, 26.544494596674454 201.57222190002486 M108.63359714754843 227.09978958736107 C86.68044287816984 218.13592020864877, 64.45269260601748 210.64023766844932, 28.785959477900875 199.3235035805641 M27.71726629137428 198.81802897927096 C20.152456489922614 146.5342039166266, 12.358582439044719 93.21953896977881, -1.498243730046148 -0.9102981585376579 M28.24969713888962 199.50656394589154 C19.189383856769748 129.73554582349948, 9.626956707038914 61.39648299070405, 0.8677012769061974 -0.5176169838854768" stroke="#000000" stroke-width="1" fill="none"></path></g></g><g><g transform="translate(116.70717825250063 26.8261570774075) rotate(0 41.384671073406935 94.5231687383825)"><path d="M0.31235532090067863 1.7036951966583729 C1.0806028707415791 51.760858094376225, 3.7821719887197944 102.6031143617643, 0.8710099868476391 188.3911213340695 M0.20984209515154362 -0.7122249398380518 C2.170660108316418 50.94400890640929, 2.3093605618809425 101.47876434210716, 2.3069309685379267 189.73282850594177 M3.872204940766096 191.07274193190887 C27.253534569020403 181.39219935854982, 53.02563477692848 170.68270587454336, 66.73644356057048 166.9756284602442 M1.481374690309167 189.30572212547912 C20.09400405363355 183.64120555649134, 38.785024077502904 176.39817790423314, 66.47892476059496 166.28563484218802 M66.70471004769206 167.16722830613043 C73.39962413541151 99.36594741358681, 79.82662355629373 34.22431700300348, 82.19569961354136 -0.18403823657699547 M67.73501826263964 165.17507204082693 C72.14595997178985 118.3615579483889, 74.43735390465298 70.54626595349814, 81.1960788462311 -0.8780970702207895 M83.25310794636607 -2.02640445514389 C49.08153104478431 -0.42291240288416143, 17.533372326348285 1.683512187563164, -0.4837657995522022 0.14108981564641 M82.27747447229922 -0.829831136230311 C63.55438197803254 -0.6320736402702711, 45.13775914205274 -0.5845067957107118, -0.3657644893974066 0.18233229778707027" stroke="#000000" stroke-width="1" fill="none"></path></g></g><g><g transform="translate(49.43305544548275 51.19118206622574) rotate(0 64.59949718043208 71.61639889549987)" fill-rule="evenodd"><path d="M-0.6103316359221935 -1.541025268025603 L128.37944056466233 -1.1912084961475458 L129.20651211217057 25.484703486178155 L68.38199140504014 51.83181416691853 L127.43651809170854 46.63073615272123 L120.12421043903454 124.67399485715748 L68.48845480598138 144.40027110478746 L13.822431959407936 126.55298935166215 L11.386222337225483 85.60859659521539 L35.15680604839782 87.0656637760432 L37.90043129399418 107.9435722163039 L69.28445647245155 119.09742814909114 L97.81813965326081 108.81403891197974 L102.7342175243326 71.00102173442613 L10.784958023577929 73.60323009588507 L6.74216033890843 47.88566373464059 L67.46952332928788 26.049164955828438 L3.1265928931534273 25.833467407350746 L-1.1075538210570812 1.0468760858104567" stroke="none" stroke-width="0" fill="#ffff" fill-rule="evenodd"></path><path d="M-1.3556919880211353 -0.8305814360453745 C44.632819960203854 -1.0956649216208572, 84.69429049928016 0.12227899220484106, 128.01531390473258 -1.9492099652232255 M0.9415012095123529 -1.0177432970329185 C32.944410927952255 -0.5386133828689847, 64.78909731994851 -0.2816240108201358, 127.9467150066049 -1.2866214862258758 M130.5546863488854 -3.901958263868245 C130.49074412019016 9.655381060356683, 129.15214646489383 20.44308613775544, 126.91255060955893 25.669010919842954 M128.92848599888396 -2.219053184071335 C127.8868494409229 7.494444930809367, 128.55674240767019 17.33198746402503, 129.20348472334456 25.34961746572339 M128.8242680244149 26.18034343174481 C112.80037534017924 33.00290355431229, 99.40336681252688 40.24113346673188, 66.30656389519584 48.870486472562085 M128.41583127714705 24.530116065729494 C106.49745584158157 34.02396424050477, 86.54231762636849 42.89258404330829, 68.20921112038207 51.55469343701018 M68.05644659325492 49.458204482510816 C87.43197759305903 49.447828736470726, 110.3074156238682 49.05633143210714, 129.37496606633078 49.452919143331826 M67.47391057945799 49.862282491117845 C88.48320566764329 50.73987669341614, 108.17919224029635 48.66292577966241, 127.71590835787367 49.0782742100634 M128.460084360093 47.19807733882743 C126.78434115410165 72.46670868152817, 125.02373443814366 99.8868545588015, 120.60478554607256 126.5149866894734 M129.08911306597304 49.04273887452263 C126.57229667937767 72.95309950880802, 122.6098252881686 98.631637667088, 121.28305358939691 125.19170599923552 M120.5534597480379 124.96738975801588 C103.9170143387495 131.1129225315356, 84.02847533684624 141.62401710131257, 69.35825634963439 146.590584779297 M120.55529089026972 125.35845643029631 C108.48209102446552 130.76479998724668, 97.50640183414201 135.68094501878988, 69.53087643563376 147.13475605486798 M68.73005677230285 146.76878740838634 C52.600490005228124 138.1950036394314, 32.94684844800515 131.90038264122146, 16.333344400125156 126.80741521260356 M69.72704867303 146.56482740878033 C57.85368816865639 141.1713206613645, 46.254663211708476 137.58881239271574, 15.288385300161849 125.58670088379299 M17.71909135599674 126.19872208973979 C14.64282574904851 118.44422252480254, 12.779409224873422 107.48263586209121, 11.780852791706131 86.81526483057696 M16.167769817831527 126.3567533168069 C15.317919255598458 116.74036875378019, 12.811612265462877 108.79828000560474, 10.497972632611202 84.90710515922565 M10.802616593280838 86.37573064326007 C17.952470893609355 83.68697681101236, 21.456816661901186 84.22127818148581, 35.75442178959111 86.57510691756322 M10.054221774304317 86.60942382759113 C17.121561730935028 85.19278342460314, 24.054597132960694 87.01738443998015, 35.152914928664366 85.23742312254323 M38.065522749368945 85.7295363532932 C35.704072397617274 91.9817098993279, 37.230148040547014 99.84057855571162, 37.68289725109934 107.35778763947066 M35.11405603813092 85.47991818251027 C36.450494683030655 92.31600804633388, 37.88664491400657 99.27976102430667, 39.55724115110933 109.81218502168532 M39.9679056815803 110.99973538574751 C49.25967799874149 114.05455977368696, 56.552750575633354 117.8603687298059, 69.9821727309178 122.5589405731429 M38.88567657209932 108.71839162950393 C46.94302278936632 112.17660797321389, 54.62606440613813 116.38740292246742, 68.62507483510183 120.08641164052679 M68.95690894460188 120.05071131746664 C77.87331872317532 118.07595785347215, 86.91797092389847 111.96017061302396, 97.49597895478736 109.79496289990479 M69.01758191136526 120.79548995244696 C75.87592050240171 117.92069731670104, 83.16554674140912 115.76489580734994, 98.00892356185149 108.14409049242371 M98.90751326417457 109.9676113297754 C99.29732523641289 99.39998441378626, 100.13114247748665 88.6048054152357, 100.87746276686867 71.59212419296276 M97.39665463713835 109.31082566469544 C97.44705287952425 99.52413372786098, 99.87407911906422 90.24262543594403, 102.1687579059877 71.6997846076138 M100.504115484459 73.74545499588024 C73.354563743225 72.995935396459, 46.64414196051622 72.05297865324451, 8.885239761322737 72.30299277552155 M102.217240324048 71.99458679648708 C75.41057560528432 73.14181982856779, 48.051051772325735 74.5100387571061, 9.355564067140222 73.32755889133301 M9.536581199616194 73.2055606389859 C8.089094307974896 64.93473557920929, 8.868925964765234 58.72899921926291, 8.383394282311198 47.8893457296152 M8.964700171723962 73.93646325305787 C9.423847847634207 65.68784429258685, 7.7095839156231145 54.84411220559437, 6.298843869939443 50.55639013264667 M8.90024475380778 48.77845534112643 C28.712947322319337 40.862963430465875, 48.80650936601043 33.803917266771954, 65.91384784504783 24.037865204129467 M7.102911004796621 49.681056823473085 C24.320361652166056 42.36380273425485, 43.725558066821165 35.273079874628536, 68.46648318506789 24.298363312471757 M66.16827766224753 25.619571251187573 C44.07886366210698 26.304792026026224, 25.382482838489146 26.978420856044625, 4.400306504219769 25.263187190716472 M68.3341336939485 25.656077488649736 C52.53426826272252 26.730357318144208, 36.25972662742339 26.608703965450367, 3.456199297681449 26.264220379491654 M2.2956359796226007 26.712294360821453 C3.636534093397745 17.019235475431607, 2.894814732235932 12.509838777745648, 0.3719450645148754 -2.0624184702708384 M3.990460524335502 25.587892197271195 C3.2504331317297943 18.3937624367304, 1.2877569118548018 11.725185176950715, 0.9067251179367304 0.3055402560905555 M0 -0.22262766782185045 C0 -0.22262766782185045, 0 -0.22262766782185045, 0 -0.22262766782185045 M0 -0.22262766782185045 C0 -0.22262766782185045, 0 -0.22262766782185045, 0 -0.22262766782185045" stroke="#000000" stroke-width="1" fill="none"></path></g></g></svg>