<svg version="1.1" xmlns="http://www.w3.org/2000/svg" viewBox="0 0 221.8957567304014 280.32383420698864" width="221.8957567304014" height="280.32383420698864">
  <!-- svg-source:excalidraw -->
  
  <defs>
    <style>
      @font-face {
        font-family: "Virgil";
        src: url("https://excalidraw.com/FG_Virgil.woff2");
      }
      @font-face {
        font-family: "Cascadia";
        src: url("https://excalidraw.com/Cascadia.woff2");
      }
    </style>
  </defs>
  <g><g transform="translate(11.460190144675096 75.36379240625527) rotate(0 99.4876882205256 -0.9065154417208703)" fill-rule="evenodd"><path d="M-0.42353934049606323 -23.056850725925635 L-1.2428290856239106 24.740477945067767 L0.5577963504952035 29.452252046034694 L9.993914715900473 41.854644737216255 L24.49446636365535 50.012905331332455 L43.846560668759814 56.535210456117206 L66.43334569898427 63.481855402325934 L97.88565922843235 64.72699812845774 L129.1225415131043 60.56222725901547 L155.7808309870874 59.39477808537575 L174.21297089022408 51.87686856541631 L187.1622435877255 45.15000065614496 L195.96797013757313 35.27855765154807 L197.12130750634617 29.547067825340502 L200.97443397728844 -12.944351093293097 L194.82501219901718 -27.768198310309216 L184.53968584951613 -40.77802079971477 L177.84108347131692 -47.542300622272556 L170.76819043841707 -50.648662467344074 L149.27617016479547 -60.90456436797997 L125.82390060647568 -62.70994304759162 L97.11731814824637 -62.054243212938204 L66.7876240122594 -61.70472157376152 L43.116173440244324 -56.15491084005187 L21.73344075825668 -47.090427717822855 L14.866551832804777 -40.96726889879704 L1.8819072842597961 -20.842827135837744" stroke="none" stroke-width="0" fill="#868b8e" fill-rule="evenodd"></path><path d="M0.15363396406173702 -22.324266416347694 C0.2974685650474528 -17.850146674260998, 0.029859074236276595 -3.933060306314079, 0.2721496113578679 4.749117578775012 C0.5144401484794592 13.431295463864103, -2.3479220771401614 22.14939205918496, 1.607377186791285 29.768800894186853 C5.562676450722731 37.388209729188745, 12.902891951684369 45.09329800690287, 24.003945194946546 50.46557058878637 C35.104998438208725 55.83784317066987, 50.5793326250776 60.027801040403645, 68.21369664636434 62.00243638548786 C85.84806066765108 63.97707173057208, 112.3862369415505 64.05301931533747, 129.81012932266697 62.313382659291655 C147.23402170378344 60.573746003245844, 161.6723744185439 56.106050982383024, 172.75705093306314 51.564616449213 C183.84172744758237 47.02318191604297, 192.0812096559369 42.86279107757351, 196.3181884097823 35.06477546027152 C200.5551671636277 27.266759842969524, 198.1906268620529 14.932313770477016, 198.17892345613555 4.776522745401031 C198.1672200502182 -5.379268279674956, 201.05260427941752 -16.34893748505042, 196.2479679742781 -25.8699706901844 C191.4433316691387 -35.39100389531838, 181.29819291149497 -46.11860766291714, 169.35110562529908 -52.34967648540285 C157.4040183391032 -58.58074530788856, 141.56531265336508 -61.6200106402807, 124.56544425710281 -63.25638362509864 C107.56557586084054 -64.89275660991659, 84.36114773646666 -64.64217181682571, 67.35189524772541 -62.16791439431053 C50.342642758984155 -59.693656971795356, 33.68974627382874 -54.91923082351736, 22.5099293246553 -48.410839090007606 C11.330112375481862 -41.90244735649785, 3.862666398529968 -27.289609514647296, 0.272993552684784 -23.11756399325199 M-1.2248469341453165 -23.335703769029227 C-1.201401185219442 -19.211861807534973, -1.0938452382726493 -5.893929424671158, -0.7603016788975447 3.1128856597601855 C-0.4267581195224401 12.11970074419153, -3.3711342916156593 22.732587112440147, 0.7764144221053114 30.705186737558826 C4.923963135826282 38.67778636267751, 13.071307632742913 45.6866383837326, 24.12499060342828 50.94848341047227 C35.178673574113645 56.21032843721194, 49.29266257290125 60.54771243622723, 67.09851224621751 62.27625689799683 C84.90436191953377 64.00480135976643, 113.27922474172584 62.807121578406246, 130.9600886433258 61.319750181089894 C148.64095254492577 59.83237878377354, 162.46271501163793 57.72682022315537, 173.18369565581727 53.35202851409872 C183.90467629999662 48.97723680504207, 190.87323097812208 43.31403427808984, 195.2859725084019 35.07099992674997 C199.69871403868171 26.827965575410097, 199.3411589857322 14.068455893734757, 199.6601448374962 3.8938224060594946 C199.97913068926022 -6.280811081615769, 202.22903605384934 -16.7207538857218, 197.1998876189859 -25.976800999301613 C192.17073918412248 -35.23284811288143, 181.79871610341826 -45.32361033448114, 169.4852542283156 -51.642460275419396 C157.17179235321294 -57.96131021635765, 140.28135358762415 -61.97807302061878, 123.31911636837003 -63.889900644931146 C106.35687914911591 -65.80172826924351, 84.61198643663636 -66.16727592536232, 67.71183091279083 -63.11342602129359 C50.811675388945304 -60.059576117224864, 33.07932310283935 -52.07611765184492, 21.918183225296875 -45.56680122051879 C10.757043347754394 -39.057484789192664, 4.5885761992922784 -27.87761691715116, 0.7449916475359353 -24.05752743333682" stroke="#000000" stroke-width="1" fill="none"></path></g></g><g transform="translate(29.020408671428584 17.5451100502153) rotate(0 81.16118849653117 31.038981436350426)"><path d="M97.19925311324192 1.028649997936757 C109.59923859708007 1.7729073781009599, 123.25513448926942 4.7103972248414205, 133.28900989031823 8.002501161276609 C143.32288529136702 11.294605097711797, 152.7015661756731 16.34632518558922, 157.4025055195347 20.781273616547885 C162.10344486339633 25.21622204750655, 163.52021849466277 29.66361646404959, 161.49464595348792 34.612191747028604 C159.46907341231307 39.56076703000762, 152.93875969368784 46.40678364686249, 145.24907027248565 50.472725314421965 C137.55938085128346 54.538666981981436, 126.96828075205887 57.01951740258763, 115.35650942627473 59.00784175238541 C103.74473810049058 60.99616610218319, 88.49993769211696 62.574838239014724, 75.57844231778074 62.40267141320863 C62.656946943444524 62.230504587402535, 48.96737060019863 60.81861370344517, 37.82753718025744 57.97484079754884 C26.687703760316246 55.13106789165251, 14.98799173127043 49.81753223831472, 8.739441798133612 45.34003397783066 C2.4908918649967946 40.862535717346596, -0.10039059812244727 36.13374657925291, 0.33623758143653504 31.10985123464446 C0.7728657609955174 26.085955890036015, 5.134730022302996 19.565418870195895, 11.359210875487506 15.196661910179982 C17.583691728672015 10.827904950164069, 26.916860464896544 7.266386436298942, 37.68312270054359 4.897309474548983 C48.44938493619064 2.5282325127990246, 64.50418174200308 1.3850697612639735, 75.9567842893698 0.9822001396802307 C87.40938683673653 0.5793305180964878, 99.86737185065039 2.0645997735059343, 106.39873798474397 2.4800917450465256 C112.93010411883756 2.895583716587117, 115.6015076054161 3.2278839323484827, 115.14498109393129 3.475151968923779 M55.727300799232815 1.2158573795390453 C67.0387292718691 -0.3701056009095307, 84.38809338917915 1.0969477501569638, 97.50445948287859 1.8840096390498005 C110.62082557657803 2.671071527942637, 124.6101044958167 3.196535606013134, 134.42549736142948 5.938228712896066 C144.24089022704226 8.679921819778999, 151.86385189182204 13.454708626252978, 156.39681667655526 18.334168280347395 C160.92978146128848 23.21362793444181, 163.09876187552894 30.074289637214772, 161.6232860698289 35.214986637462566 C160.14781026412888 40.35568363771036, 155.21043647215978 45.428670894373376, 147.54396184235515 49.178350281834156 C139.8774872125505 52.928029669294936, 127.72617348016854 55.48049438428033, 115.62443829100104 57.713062962227234 C103.52270310183354 59.94563154017414, 87.74884151208171 62.71303339528883, 74.93355070735012 62.5737617495156 C62.11825990261853 62.43449010374236, 49.79659821690338 59.84401422327256, 38.73269346261151 56.87743308758783 C27.66878870831964 53.910851951903105, 14.948915425839335 49.14540319208198, 8.550122181598894 44.77427493540725 C2.1513289373584525 40.40314667873252, -0.1191265239848131 35.29009953102908, 0.3399339971688562 30.650663547539448 C0.7989945183225255 26.01122756404982, 4.895309658317479 21.26343551625458, 11.30448530852091 16.937659034469462 C17.71366095872434 12.611882552684342, 31.24523714498853 7.252112875994586, 38.794987898389444 4.696004656828734 C46.34473865179036 2.139896437662882, 53.33707675903862 1.9184768552214522, 56.6029898289264 1.6010097194743516 C59.86890289881418 1.283542583727251, 58.163748808518605 2.1498139065230077, 58.39046631771612 2.79120184234613" stroke="none" stroke-width="0" fill="#ffff"></path><path d="M92.69001230726838 1.1195416955308168 C104.95931680025454 1.1766920186071996, 119.7379805829927 3.1850358672353107, 130.14432972596018 6.113294328168614 C140.55067886892766 9.041552789101917, 149.85327818585816 14.109371635424033, 155.12810716507323 18.689092461130635 C160.4029361442883 23.268813286837236, 162.99477198786587 28.50616053781665, 161.79330360125064 33.59161928240822 C160.5918352146354 38.67707802699978, 155.16449926453575 44.88924268179913, 147.91929684538184 49.20184492868003 C140.67409442622792 53.51444717556093, 129.80172046190276 57.368818673652875, 118.32208908632722 59.4672327636936 C106.84245771075169 61.56564685373433, 92.01063145458863 61.925274512771196, 79.04150859192859 61.79232946892438 C66.07238572926855 61.65938442507756, 51.65796289135686 61.15256811347156, 40.507351910367 58.6695625006127 C29.35674092937714 56.18655688775384, 18.728379844077338 51.287393462173554, 12.137842705989414 46.8942957917712 C5.547305567901488 42.501198121368844, 1.509085554976489 37.10117050803828, 0.9641290818394452 32.31097647819855 C0.41917260870240136 27.52078244835882, 3.2172581534435674 22.681563624041694, 8.86810386716715 18.153131612732828 C14.518949580890734 13.624699601423961, 24.241136344922246 8.239951262810512, 34.86920336418094 5.140384410345344 C45.497270383439634 2.040817557880177, 61.12993332586604 0.3625267527783004, 72.63650598271931 -0.4442695020581766 C84.14307863957258 -1.2510657568946537, 97.4105752851824 -0.2876448226326277, 103.90863930530057 0.2996068813264827 C110.40670332541873 0.8868585852855931, 111.92693005865497 2.3342967243187913, 111.6248901034283 3.079240721696486 M115.69663269707465 3.2532181925865977 C127.24081646564628 4.8186452709142475, 137.33664556083195 7.800945566182024, 144.9805557449995 11.654591323087292 C152.62446592916703 15.50823707999256, 159.62047373110897 21.246430506556415, 161.56009380207988 26.3750927340182 C163.49971387305078 31.503754961479984, 161.1514207593798 37.455535713889866, 156.61827617082483 42.42656468785799 C152.08513158226987 47.397593661826114, 144.0911978280499 52.95418266387405, 134.3612262707502 56.20126657782696 C124.63125471345049 59.44835049177986, 111.12907425084998 61.30140011630135, 98.2384468270266 61.909068171575406 C85.34781940320323 62.51673622684946, 69.37966966324808 61.44665878314751, 57.0174617278099 59.84727490947129 C44.65525379237172 58.247891035795064, 33.337340382512025 55.77821956457688, 24.06519921439751 52.31276492951807 C14.793058046282995 48.847310294459255, 4.892887483291203 43.72692976889909, 1.3846147191228226 39.05454709911843 C-2.123658045045557 34.38216442933777, -0.4734806988213349 28.899806259782977, 3.015562629387233 24.278468910834107 C6.5046059575958015 19.657131561885237, 13.747426514259258 15.333993065004385, 22.31887468837423 11.32652300542522 C30.8903228624892 7.319052945846054, 42.16574639755692 2.0555340372071527, 54.444251674077066 0.23364855335911372 C66.7227569505972 -1.5882369304889252, 86.163578835458 -0.14932485968493658, 95.98990634749507 0.3952101023369856 C105.81623385953213 0.9397450643589078, 110.2753378088701 2.838562524067903, 113.40221674629949 3.500858325490647 C116.52909568372887 4.163154126913391, 115.0603308558835 3.8377512803796843, 114.75117997207133 4.368984910873451" stroke="#000000" stroke-width="1" fill="none"></path></g><g><g transform="translate(12.338318574834148 123.91439330798639) rotate(0 98.21876583829538 40.321903449068124)" fill-rule="evenodd"><path d="M1.1634809374809265 -1.6116668581962585 L-0.22359623882520996 39.02543118017704 L4.1043674181163965 54.41238224408644 L13.673062626045398 63.73882335034053 L28.326271814670744 69.77167796077984 L45.18662842548763 77.33848281992762 L68.63534752641775 79.19208597437061 L101.6562160333776 82.83956612291614 L130.68915184387788 81.72076805342581 L153.95935519891543 76.08074499668793 L168.2197659839481 73.88595032272978 L183.937431574075 66.33320932211748 L191.32022974136905 56.85145946402288 L195.30965147836798 53.797070467631876 L195.58016288902047 14.464857389328706 L194.56727090779873 0.482110279709121 L188.33377745542975 6.123590577812869 L180.13072089810763 10.695840937557694 L168.47000864070583 17.571469240041598 L148.2854604602884 22.661795625459682 L127.65143043880224 24.648122906238765 L86.60597995070015 24.51834467959263 L49.513768208935524 21.126118243207433 L27.720429077251545 14.810176316309558 L21.378930367242035 14.149309561447868 L1.4523393511772156 1.8728206753730774" stroke="none" stroke-width="0" fill="#868b8e" fill-rule="evenodd"></path><path d="M-0.80038822889328 -0.3401969075202942 C-0.6870429772727985 3.8021818249594928, -1.157283898519467 16.45590407020552, -0.4120002976616021 25.456058138115264 C0.3332833031962627 34.45621220602501, -0.999367614515319 46.021541173884195, 3.6713133762539085 53.66072749993818 C8.341994367023137 61.29991382599217, 16.434070097287325 66.86276215994035, 27.612085646953762 71.29117609443921 C38.7901011966202 75.71959002893807, 53.54488876146637 78.4958429675076, 70.73940667425252 80.23121110693134 C87.93392458703867 81.96657924635508, 114.26169663819523 82.82545106274114, 130.77919312367067 81.70338493098166 C147.2966896091461 80.58131879922217, 159.7873539020008 77.26075904322974, 169.84438558710514 73.49881431637449 C179.90141727220947 69.73686958951924, 186.87504636166733 66.46780933715063, 191.1213832342966 59.13171656985021 C195.36772010692584 51.795623802549805, 194.61250917795977 38.86990642257308, 195.32240682288077 29.482257712572036 C196.03230446780177 20.09460900257099, 196.1497367803993 6.716285493153065, 195.38076910382264 2.8058243098439504 C194.61180142724598 -1.1046368734651644, 195.65564323472998 3.7592965060865575, 190.70860076342078 6.019490612717348 C185.76155829211157 8.27968471934814, 176.11111509608074 13.271614649814548, 165.69851427596737 16.366988949628695 C155.285913455854 19.46236324944284, 143.56288674131017 23.1604711067755, 128.23299584274054 24.59173641160223 C112.9031049441709 26.02300171642896, 90.39154801009526 26.379220525490524, 73.71916888454955 24.954580778589072 C57.04678975900383 23.52994103168762, 40.51692856318698 20.195754353728848, 28.198721089466204 16.04389793019353 C15.880513615745427 11.892041506658213, 4.609670818266569 2.6830999300560334, -0.19007595777511588 0.04344223737716679 M0.9802692215982827 -1.5644042293075473 C1.567218712742175 2.1482205377348276, 1.534751738317196 14.058129812759812, 1.8563697098477636 23.5046906227059 C2.177987681378331 32.951251432651986, -1.3805487762821906 46.965681525215054, 2.909977050781688 55.114960630368984 C7.200502877845566 63.264239735522914, 16.512969189300343 68.20083272025224, 27.599524672231034 72.40036525362949 C38.686080155161726 76.59989778700674, 52.068905577123175 78.83155153671204, 69.42930994836584 80.31215583063245 C86.7897143196085 81.79276012455286, 114.90004070546517 82.63192224983163, 131.76195089968704 81.28399101715196 C148.6238610939089 79.93605978447229, 160.33802594758373 75.87107137565687, 170.60077111369705 72.2245684345544 C180.86351627981037 68.57806549345193, 188.9516449516185 66.24834487019697, 193.338421896367 59.40497337053715 C197.7251988411155 52.56160187087733, 196.45322485831497 40.64651284872828, 196.9214327821881 31.164339436595483 C197.38964070606124 21.682166024462692, 197.6385337177998 6.5532507514887595, 196.14766943960578 2.511932897740402 C194.65680516141177 -1.5293849560079558, 192.76562835704746 4.721135891631439, 187.9762471130241 6.916432314105336 C183.18686586900074 9.111728736579233, 177.38009473304234 12.817670422929334, 167.41138197546567 15.683711432583777 C157.442669217889 18.549752442238223, 143.88111076512357 22.572324602527935, 128.16397056756415 24.112678372032 C112.44683037000473 25.653032141536066, 89.80164147607354 26.400916763030395, 73.10854079010922 24.92583404960816 C56.41544010414489 23.450751336185924, 40.066010850373736 19.196839145662967, 28.00536645177818 15.262182091498586 C15.944722053182621 11.327525037334205, 5.1636622700608505 3.684469491823239, 0.7446743985358628 1.317891724621877" stroke="#000000" stroke-width="1" fill="none"></path></g></g><g><g transform="translate(12.431096647011486 191.67314098102938) rotate(0 98.36386873990926 38.586475983269466)" fill-rule="evenodd"><path d="M-0.8337165713310242 -0.3326147198677063 L0.9021730187202612 39.9170316858707 L4.11347941858179 52.757008202930905 L13.743862095993213 63.51513115885144 L29.68007223066348 69.06829285490979 L47.71271201408779 75.7501297254109 L69.51596526418783 77.21952285262728 L101.9915876468801 81.26622155932063 L130.1224658096753 76.95625755832826 L153.30176874357028 75.53607592564721 L168.07540508402286 71.37918589456031 L183.32839095613218 65.45272484311444 L190.31157288197116 54.34725341301431 L193.63441060407752 50.7839118547932 L195.26433897639993 12.917896963046648 L194.5548336834106 0.09603186095113625 L191.11166539583655 5.378475104267006 L178.35384122987185 10.619456596021646 L167.58623734038997 16.57317372383999 L149.16064225445496 19.97143813904414 L129.19437880401372 23.636031525056467 L88.39347711351905 24.08454430562202 L50.415565145924354 19.158145000154466 L28.524245514972797 15.370553033747644 L-0.7295753359794617 -1.3310430645942688" stroke="none" stroke-width="0" fill="#868b8e" fill-rule="evenodd"></path><path d="M-0.5824843525886535 -1.1021838068962098 C-0.6761741656654376 2.732879211209587, -0.45905317895312175 14.69484673228939, 0.11837992751997745 23.53366160215361 C0.6958130339930766 32.37247647201783, -1.95599453044702 44.19910359778226, 2.8821142862499416 51.93070541228912 C7.720223102946903 59.66230722679598, 17.84521738179508 65.67850622820207, 29.14703282770175 69.92327248919476 C40.44884827360842 74.16803875018745, 53.672223332351074 76.0348124569968, 70.69300696168996 77.39930297824526 C87.71379059102884 78.76379349949372, 114.9544128313944 79.0309229960492, 131.27173460373507 78.1102156166855 C147.58905637607575 77.18950823732179, 158.37042730345192 75.42948844466584, 168.59693759573398 71.87505870206306 C178.82344788801603 68.32062895946028, 188.1242338073079 63.765822115575176, 192.63079635742739 56.78363716106881 C197.13735890754688 49.801452206562445, 195.12934875372727 38.91291989925485, 195.63631289645102 29.981948975024867 C196.14327703917476 21.050978050794882, 196.73654782223127 7.287297275686161, 195.67258121376986 3.197811615688889 C194.60861460530845 -0.8916740443083828, 194.09052632856393 3.0944797822117214, 189.25251324568245 5.4450350150412365 C184.41450016280098 7.795590247870752, 176.72295207785413 14.463827472116106, 166.64450271648099 17.301143012665978 C156.56605335510784 20.138458553215848, 144.4063406969605 21.29019150541093, 128.7818170774436 22.468928258340462 C113.1572934579267 23.647665011269993, 89.62206327556005 25.454050904628787, 72.89736099937956 24.37356353024317 C56.17265872319906 23.293076155857555, 40.76573072440372 19.946557886962587, 28.433603420360676 15.986004012026758 C16.101476116317635 12.02545013709093, 3.7587667111727585 3.4137983171804698, -1.0954028248786927 0.6102402806282043 M1.312572632962838 0.9335657491441816 C0.9737936504434002 4.84933060091535, -1.6704464143441276 15.88198117304486, -0.9948004467503277 24.603815200259145 C-0.31915447915652784 33.325649227473434, 0.8205951769219633 46.08086800604843, 5.366448438525637 53.26456991242989 C9.912301700129312 60.44827181881135, 15.614968798174663 63.71912628719123, 26.280319122871713 67.7060266385479 C36.94566944756876 71.69292698990456, 51.65309079772234 75.63823339337824, 69.35855038670793 77.1859720205699 C87.06400997569352 78.73371064776157, 115.95643290009389 78.05165918932428, 132.51307665678524 76.99245840169785 C149.0697204134766 75.93325761407141, 158.78721288479667 74.21628553654293, 168.69841292685604 70.83076729481132 C178.6096129689154 67.44524905307972, 187.19665580622035 63.69813161934468, 191.98027690914148 56.67934895130825 C196.7638980120626 49.66056628327182, 196.63140521136043 37.64018630916421, 197.40013954438274 28.718071286592753 C198.16887387740505 19.7959562640213, 197.92342055659356 6.911057676314831, 196.59268290727528 3.146658815879537 C195.261945257957 -0.6177400445557568, 194.64882507514417 3.7632759578462096, 189.41571364847312 6.131678123980988 C184.18260222180206 8.500080290115767, 175.26314613024672 14.230930516124943, 165.19401434724892 17.357071812688208 C155.12488256425112 20.483213109251473, 144.5573780474903 23.71413892961968, 129.0009229504863 24.888525903360577 C113.44446785348232 26.062912877101475, 88.62817725590735 25.981996248695037, 71.855283765225 24.403393655133602 C55.08239027454265 22.824791061572167, 40.44543414622926 19.73043282775096, 28.363562006392247 15.416910341991976 C16.281689866555233 11.103387856232994, 3.866033506742789 1.179287278137624, -0.6359490737970919 -1.4777412594202906" stroke="#000000" stroke-width="1" fill="none"></path></g></g></svg>