<svg version="1.1" xmlns="http://www.w3.org/2000/svg" viewBox="0 0 362.5628772526569 358.9457059593385" width="362.5628772526569" height="358.9457059593385">
  <!-- svg-source:excalidraw -->
  
  <defs>
    <style>
      @font-face {
        font-family: "Virgil";
        src: url("https://excalidraw.com/FG_Virgil.woff2");
      }
      @font-face {
        font-family: "Cascadia";
        src: url("https://excalidraw.com/Cascadia.woff2");
      }
    </style>
  </defs>
  <g><g transform="translate(12.995767017751405 244.72820723355096) rotate(0 168.28567160857705 -65.2553542538817)" fill-rule="evenodd"><path d="M-1.0503937711052322 -60.270450938986976 L60.50150939951583 -62.282139597886946 L67.80714090891678 -98.96388051793623 L75.97920239514157 -123.76638667549842 L95.0582229112766 -142.80389695781798 L100.77678469819256 -149.123738559135 L126.54676753070353 -164.79554909595677 L158.231606996455 -171.40255476591943 L172.2885841515912 -174.24181626421085 L187.6174095830748 -172.41735467223992 L215.69022756526678 -166.1105965791242 L229.59620799592508 -156.36866968913174 L242.47974581572672 -151.4915269926173 L258.54708222195154 -128.83859854753072 L273.7570877377319 -105.45578188951487 L277.4654911670242 -96.54892018837097 L282.85780066911707 -72.24326669681926 L280.39378420940085 -43.60931440297985 L275.7140689220156 -30.056756149751408 L270.34640130460645 -19.547417501156907 L264.5714020959482 -4.886004011506877 L253.41899399499107 7.2860813355126215 L230.49139931740038 28.691883320420832 L209.51073913770955 41.612096675593094 L188.414023446183 47.06971874573196 L171.16260367761242 52.88643079870087 L168.49510787640125 73.2550000461384 L171.252124741363 102.8193601124178 L175.58587122299141 102.5514381678939 L193.90704167606236 103.63640791071073 L214.78659680319652 100.08393697234676 L241.40625977241228 90.59585056691245 L263.8455654105437 78.94763560003649 L288.83875289544306 58.727559227687934 L298.8276033312965 45.50658637152728 L318.473707654588 20.690908653960065 L325.05355432714015 9.015559476725617 L335.0483779955502 -18.414095475080384 L338.17800238811697 -45.90114050971683 L339.18089960019597 -71.53542108980288 L334.79380867090094 -102.751712117917 L323.87084870115024 -132.78325902248952 L314.67736484489046 -148.32625636120292 L295.7784309490504 -175.90761967195684 L274.03989256572686 -197.27845840461856 L261.1327701534918 -206.50072627973657 L233.68984578565681 -221.08537818008094 L203.5539014507815 -231.3739956758293 L172.11607965297094 -236.45038261501628 L144.09358129694078 -234.35773297559507 L116.39460091122112 -226.8290239658444 L90.36216467040695 -215.4883357607327 L63.91679104101868 -204.08836593814425 L44.88937137051272 -185.59669021293797 L30.89962569067609 -166.8755668491588 L15.10284635168059 -145.49032065474586 L8.231020245828292 -122.68214021287552 L1.3948892162351965 -98.65669336880096 L-0.37870673936868116 -81.9686796442306 L-1.1020038832954788 -59.54217647437974" stroke="none" stroke-width="0" fill="#0081ff" fill-rule="evenodd"></path><path d="M-1.1649437581233406 -60.112874290096 C6.679730793248673 -60.32887601196508, 35.55159687279317 -61.866099036829745, 45.981837399634195 -62.44723417823337 C56.41207792647522 -63.028369319637, 58.70688314729712 -61.36989149111077, 61.41649940292283 -63.59968513851776 C64.12611565854854 -65.82947878592475, 59.47825981510403 -65.93675761554105, 62.239534933388455 -75.82599606267532 C65.00081005167289 -85.71523450980958, 69.2126287063359 -109.3290078186525, 77.98415011262938 -122.93511582132334 C86.75567151892285 -136.54122382399416, 99.23728527526008 -148.80767822001616, 114.86866337114932 -157.46264407870032 C130.50004146703856 -166.1176099373845, 152.5687598822319 -174.9103544815295, 171.77241868796483 -174.8649109734284 C190.97607749369777 -174.8194674653273, 213.9820043453187 -166.7905425428643, 230.09061620554698 -157.18998303009366 C246.19922806577526 -147.589423517323, 260.0226149246295 -131.5552235565887, 268.42408984933456 -117.26155389680451 C276.8255647740396 -102.96788423702036, 280.1414236782487 -88.11330606437824, 280.49946575377714 -71.42796507138868 C280.8575078293056 -54.74262407839913, 278.84541910122664 -34.175156638385644, 270.57234230250504 -17.149507938867192 C262.29926550378343 -0.12385923934873944, 244.11269814984064 20.069700676356764, 230.86100496144763 30.72592712572202 C217.60931177305463 41.38215357508727, 200.82983403314068 43.58707769654854, 191.06218317214706 46.78785075732435 C181.29453231115343 49.98862381810016, 175.61275183595262 48.432813257696154, 172.25509979548582 49.93056549037687 C168.89744775501902 51.42831772305759, 171.25464530226304 51.66132577152539, 170.91627092934627 55.77436415340865 C170.5778965564295 59.887402535291905, 170.11039673625294 67.84373611121325, 170.22485355798514 74.6087957816764 C170.33931037971735 81.37385545213957, 170.35771885174347 91.51611072599897, 171.6030118597394 96.36472217618758 C172.84830486773535 101.2133336263762, 170.08130519700188 102.9630627643053, 177.69661160596078 103.70046448280813 C185.31191801491968 104.43786620131095, 202.6803463032277 104.74970796152934, 217.29485031349287 100.78913248720453 C231.90935432375804 96.82855701287971, 249.82543934669783 90.96792906883869, 265.3836356675518 79.93701163685928 C280.94183198840574 68.90609420487988, 299.4078460839396 51.042843134029866, 310.6440282386166 34.60362789532808 C321.8802103932936 18.1644126566263, 328.0397469194087 -0.6020146046792902, 332.800728595614 -18.6982797953514 C337.56171027181927 -36.79454498602351, 340.68568242857145 -54.854746983679746, 339.20991829584847 -73.97396324870458 C337.7341541631255 -93.09317951372941, 332.83823383807214 -114.31881034696525, 323.9461437992762 -133.4135773855004 C315.0540537604802 -152.50834442403553, 300.99040235635493 -173.87517355620318, 285.85737806307264 -188.54256547991537 C270.72435376979035 -203.20995740362756, 251.80529440132435 -213.8498741057946, 233.1479980395826 -221.41792892777352 C214.49070167784086 -228.98598374975242, 193.1334283773888 -232.84705425563845, 173.91359989262213 -233.95089441178877 C154.69377140785545 -235.05473456793908, 135.97512644496743 -233.05141853489852, 117.8290271309825 -228.0409698646753 C99.68292781699756 -223.0305211944521, 79.69698683094921 -214.37444487543013, 65.03700400871249 -203.88820239044958 C50.37702118647575 -193.40195990546903, 39.53092647291355 -178.63022085817903, 29.869130197562093 -165.12351495479206 C20.207333922210637 -151.61680905140508, 12.393615128958942 -136.8131395959547, 7.066226356603763 -122.84796697012774 C1.738837584248584 -108.88279434430078, -0.672439337817262 -91.52622280100258, -2.0952024365689796 -81.33247919983029 C-3.5179655353206973 -71.138735598658, -1.6415516051797 -65.10074915766712, -1.4703522359065437 -61.68550536309405 M0.5721043314088412 -60.94454448215699 C8.301871326902692 -60.91317599880251, 34.80257955016161 -60.6912797845157, 44.869996423483485 -60.98299394898251 C54.93741329680536 -61.27470811344932, 58.04701159861281 -60.34941803162672, 60.976605571340095 -62.694829468957856 C63.90619954406738 -65.04024090628899, 59.83262256995374 -65.10221826485073, 62.44756025984719 -75.05546257296932 C65.06249794974063 -85.0087068810879, 68.21162587877909 -108.5464968131298, 76.66623171070076 -122.41429531766937 C85.12083754262243 -136.28209382220894, 97.23603286070386 -149.84298126332015, 113.17519525137718 -158.26225360020666 C129.1143576420505 -166.68152593709317, 152.895556554306 -173.14819679147942, 172.30120605474062 -172.9299293389885 C191.70685555517522 -172.71166188649758, 213.7658607527506 -166.05789939831453, 229.60909225398487 -156.9526488852611 C245.45232375521914 -147.8473983722077, 258.7998454881192 -132.4286933443037, 267.3605950621463 -118.29842626066804 C275.92134463617333 -104.16815917703238, 280.41130088734394 -89.24054582590773, 280.9735896981472 -72.17104638344718 C281.5358785089504 -55.10154694098662, 279.33489031119785 -33.050380116939465, 270.73432792696553 -15.881429605904724 C262.1337655427332 1.2875209051300125, 242.55016487855585 20.026162489033624, 229.37021539275332 30.842656682761238 C216.1902659069508 41.65915087648885, 201.26799375794062 45.90515351330093, 191.65463101215036 49.01753555646094 C182.0412682663601 52.12991759962095, 175.07050229052558 48.545005949083766, 171.6900389180118 49.51694894172132 C168.309575545498 50.48889193435887, 171.41805127352006 50.980964318947755, 171.37185077706766 54.84919351228626 C171.32565028061526 58.71742270562477, 171.6127193612027 65.69916506003476, 171.4128359392973 72.72632410175235 C171.21295251739193 79.75348314346995, 169.23850741436723 91.84081713867383, 170.17255024563542 97.01214776259187 C171.1065930769036 102.1834783865099, 169.3345514251287 103.1117406735026, 177.01709292690634 103.7543078452606 C184.699634428684 104.3968750170186, 201.99170116540915 105.04026032325797, 216.2677992563013 100.86755079313987 C230.54389734719342 96.69484126302177, 247.06849234908327 89.38940721557242, 262.67368147225915 78.71805066455204 C278.278870595435 68.04669411353166, 298.23946706715094 53.259323727832275, 309.8989339953565 36.83941148701763 C321.5584009235621 20.41949924620298, 327.7744903554155 -1.721615119029746, 332.63048304149277 -19.80142278033584 C337.48647572757005 -37.88123044164193, 340.24925421756603 -52.51092042556478, 339.0348901118201 -71.63943448081893 C337.8205260060742 -90.76794853607309, 334.4700206053444 -115.08976734680176, 325.34429840701733 -134.57250711186077 C316.21857620869025 -154.05524687691977, 299.4350632491674 -174.04921660231813, 284.28055692185757 -188.53587307117297 C269.12605059454773 -203.02252954002782, 252.5534153857874 -213.90183309130026, 234.4172604431583 -221.4924459249898 C216.28110550052924 -229.08305875867933, 195.20123903533522 -232.70878452530707, 175.4636272660832 -234.07955007331023 C155.72601549683117 -235.4503156213134, 134.45327927082775 -234.93636143203764, 115.99158982764615 -229.71703921300872 C97.52990038446457 -224.4977169939798, 79.35839902862664 -213.40625078875738, 64.69349060699368 -202.76361675913677 C50.02858218536072 -192.12098272951616, 37.707684252658936 -178.90543476869723, 28.002139297848384 -165.86123503528506 C18.296594343037835 -152.8170353018729, 11.582940504245805 -138.84794912382682, 6.460220878130382 -124.49841835866376 C1.3375012520149605 -110.14888759350069, -1.573159253417755 -90.65726875242675, -2.734178458844144 -79.76405044430666 C-3.8951976642705333 -68.87083213618658, -1.000672801123726 -62.459998571751605, -0.505894354427951 -59.13910850994325" stroke="#000000" stroke-width="1" fill="none"></path></g></g><g transform="translate(116.7670674810505 228.98742696865042) rotate(0 32.73385706757335 32.73385706757335)"><path d="M1.3496769852936268 -1.7422428913414478 L65.66110619211848 -0.772017914801836 L67.39094873572047 65.92511843199189 L-0.637186985462904 63.814738855308846" stroke="none" stroke-width="0" fill="#0081ff"></path><path d="M0.3902788572013378 -0.8492840342223644 C23.724190543476055 -0.32239966983224294, 45.722694972670695 -1.4682361423435344, 65.49043153280671 0.5915024466812611 M0.5418081376701593 -0.37938652373850346 C21.630584852235078 1.3851094598579596, 41.79090430666816 1.1833094115066718, 66.17354000972863 0.920791944488883 M66.78831838125642 -1.1124360375106335 C66.55147198769372 15.889455114583924, 66.94556705090325 31.93311338703981, 64.99660454744752 64.53680630827601 M65.24993075298424 -0.6216403637081385 C65.63211213746142 20.549988699021426, 64.6242878953464 39.9917193089922, 66.32185597585793 65.74850710721965 M65.13851605410035 66.747143947131 C44.152378052109086 64.62930863574083, 22.18019802741275 65.52063494399125, -0.7317097969353199 65.10410627031978 M66.33829493688698 65.27359494062419 C44.567641802171565 65.62753505710923, 24.234864415136805 66.06956816915833, -0.7076309230178595 65.41542914005275 M-0.31120331957936287 67.37227471972163 C-0.30715161102291366 44.70167558243331, 0.2854984448624013 23.883634581131318, 1.063060324639082 -1.0150693468749523 M0.8362585995346308 64.50657227130885 C0.40556665881462994 40.399107041864596, -0.19109806791953143 15.959082226849056, 0.5440061185508966 -0.2806514296680689" stroke="#000000" stroke-width="1" fill="none"></path></g><g transform="translate(69.19386187617712 294.0186896762294) rotate(0 23.131925661085106 23.131925661085106)"><path d="M1.4017206616699696 -1.5419405288994312 L47.252580817725374 -1.0385200567543507 L47.862191732909395 47.75381811329336 L-1.8130256943404675 45.70055981346579" stroke="none" stroke-width="0" fill="#0081ff"></path><path d="M0.28475693985819817 1.5022438950836658 C13.380216351517342 1.8252711044701988, 28.742075146721408 -0.5711680902090615, 47.359246570553495 -0.17596529051661491 M0.1510018203407526 -0.991130331531167 C17.605797618729728 -0.13141260739561628, 37.86834221167437 -0.45382193919416974, 46.195276366483284 -0.18168596364557743 M47.85140832134695 0.9639072604477406 C47.27712671908253 14.796872607360836, 44.587473918522534 27.69089218401026, 45.80063839622946 46.512703236129 M46.938689814817025 -0.8711214456707239 C46.612225532526004 14.258208752174573, 47.477146804327 29.51713756757358, 45.94525782943876 45.43736368225129 M47.18955918022604 47.10786753514023 C31.045467844455082 48.02550776796658, 12.595266126604045 46.80148526029904, -1.0090533085167408 46.251595910575105 M46.11797730804594 46.779315529327704 C31.388149731809797 46.11635657451882, 16.16834145794182 46.053747199995655, -0.6157368924468756 46.028316019039465 M-1.8513031788170338 46.00810664513321 C-0.6776389565487825 30.629522649729992, -1.0461781706829987 12.794658899688102, -0.8684198446571827 0.505678553134203 M0.35494096018373966 45.618940351467444 C-0.7746251450287471 29.442176515968725, -0.5559174047218929 11.081412665211218, 0.0752121303230524 0.564742824062705" stroke="#000000" stroke-width="1" fill="none"></path></g><g transform="translate(32.96839338806265 258.6661240432502) rotate(0 17.676282816489582 17.676282816489582)"><path d="M1.8235595636069775 1.0436948724091053 L35.547751692901144 1.8262984938919544 L36.60716429151107 36.084411626527796 L-1.0620454140007496 33.3583864027958" stroke="none" stroke-width="0" fill="#0081ff"></path><path d="M-0.25574467703700066 -1.051305253058672 C8.194524764805923 -1.0926028815145274, 14.188514452010176 -0.5411782589788219, 35.85824418611337 1.6094383411109447 M-0.6449109707027674 -0.49746679328382015 C13.504099246171473 -0.40423978888424894, 25.469109447786924 -0.05026860558423063, 35.91730845704187 0.7008603308349848 M36.95090604371835 1.4899667911231518 C33.71431056056308 7.316900493685938, 36.882919583657255 15.123246275106146, 36.07721651143838 34.975119737754355 M35.98951543107141 0.20370371080935 C36.50901034775821 10.80168954325466, 34.94374975863544 23.260097510099385, 35.640718526984344 34.78091215699423 M34.149584179590235 34.23482909596969 C27.49375137806476 36.96495765717707, 17.817429837525616 37.36508375676355, 0.1486898846924305 36.76198962129165 M34.94304329886545 35.299975629742036 C27.17027892465752 36.13074666649085, 19.298353402378304 36.33056974798423, 0.8262354340404272 34.56320219844092 M-0.686931949108839 36.460450200210104 C-1.3291343570552863 22.444202218908888, -1.0789289594493903 11.248919050840094, 1.988855142146349 0.02656654641032219 M-0.8771618399769068 35.87338810771216 C0.39638862953421056 26.596869082107307, 0.08165065393682897 20.11351144871437, 0.6857653465121984 0.5790414903312922" stroke="#000000" stroke-width="1" fill="none"></path></g></svg>