<svg version="1.1" xmlns="http://www.w3.org/2000/svg" viewBox="0 0 606.5204566932325 427.1829645615898" width="606.5204566932325" height="427.1829645615898">
  <!-- svg-source:excalidraw -->
  
  <defs>
    <style>
      @font-face {
        font-family: "Virgil";
        src: url("https://excalidraw.com/FG_Virgil.woff2");
      }
      @font-face {
        font-family: "Cascadia";
        src: url("https://excalidraw.com/Cascadia.woff2");
      }
    </style>
  </defs>
  <g><g transform="translate(703.6031183304642 177.74699464740564) rotate(0 -400.34288998384795 66.66271520153283)"><path d="M-206.64925459707453 -31.150444332558838 C-208.70046149796704 -37.08295765635506, -213.20310232625388 -55.54037674867159, -219.45859294151646 -65.86687093976488 C-225.71408355677903 -76.19336513085817, -234.24168654163176 -86.61683776096116, -244.18219828864994 -93.10940947911858 C-254.12271003566812 -99.601981197276, -270.5554628142708 -109.72618698179117, -279.10166342362555 -104.82230124870938 C-287.6478640329803 -99.91841551562759, -294.42158589276016 -76.78851417979484, -295.4594019447783 -63.68609508062779 C-296.4972179967964 -50.58367598146073, -290.6224195861028 -37.603443356644796, -285.32855973573436 -26.207786653707025 C-280.0346998853659 -14.812129950769252, -262.0789836652396 -2.744824199276721, -263.6962428425676 4.687845136998848 C-265.31350201989557 12.120514473274417, -277.74322816561266 16.056572144967884, -295.0321147997023 18.388229363946387 C-312.32100143379193 20.71988658292489, -343.0388586997865 18.81689487190289, -367.4295626471054 18.677788450869865 C-391.8202665944243 18.538682029836842, -398.75454736574346 17.74944767193051, -441.3763384836159 17.55359083774825 C-483.9981296014883 17.357734003565987, -582.387333752769 16.966778338665684, -623.16030935434 17.502647445776294 C-663.9332849559111 18.038516552886904, -674.7792348371016 13.341543815634694, -686.0141920930421 20.768805480411917 C-697.2491493489825 28.19606714518914, -693.4977512045803 44.34128966195151, -690.5700528899828 62.066217434439636 C-687.6423545753853 79.79114520692777, -680.4984645469775 105.3971683947474, -668.4480022054571 127.11837211534072 C-656.3975398639367 148.83957583593406, -635.8261505381089 175.87710540897615, -618.2672788408603 192.3934397579996 C-600.7084071436117 208.90977410702305, -583.830632768892 218.57366253850162, -563.0947720219655 226.21637820948146 C-542.358911275039 233.8590938804613, -521.9298314559502 237.75414790012093, -493.8521143593016 238.24973378387867 C-465.77439726265305 238.7453196676364, -425.9989714030368 236.69060707729477, -394.62846944207416 229.18989351202782 C-363.2579674811115 221.68917994676087, -330.00533121257865 207.4706151587252, -305.62910259352554 193.24545239227695 C-281.25287397447244 179.0202896258287, -263.07717473438163 162.79951565410568, -248.37109772775565 143.8389169133384 C-233.66502072112968 124.87831817257114, -224.78781820435756 96.90665577498149, -217.39264055376972 79.48185994767336 C-209.99746290318188 62.057064120365226, -212.0137762364218 47.13690040195526, -204.00003182422856 39.2901419494896 C-195.98628741203532 31.443383497023945, -182.0490029970928 36.094980205133304, -169.3101740806104 32.40130923287942 C-156.57134516412802 28.707638260625536, -137.91593418624612 24.937789619053206, -127.56705832533424 17.128116115966293 C-117.21818246442237 9.31844261287938, -105.46942289395281 -5.16872605777256, -107.21691891513915 -14.456731785642054 C-108.96441493632548 -23.74473751351155, -126.1927853256914 -34.14229485033594, -138.05203445245226 -38.59991825125068 C-149.91128357921312 -43.05754165216542, -166.9324881782729 -42.26929817922708, -178.37241367570425 -41.20247219113049 C-189.8123391731356 -40.1356462030339, -201.96427027135297 -33.84541464846499, -206.69158743704034 -32.19896232267114 M-207.83690048666037 -32.22518053053151 C-210.06127181334318 -38.127691178377205, -214.37328547291503 -55.041049228921366, -220.48960528027956 -64.94347537350444 C-226.6059250876441 -74.84590151808752, -234.8629806786384 -85.07612520778227, -244.5348193308475 -91.63973739802994 C-254.20665798305663 -98.2033495882776, -270.3598083159973 -108.53790082134634, -278.5206371935343 -104.3251485149904 C-286.68146607107127 -100.11239620863446, -292.5503350598504 -79.26955879478975, -293.4997925960695 -66.36322355989432 C-294.44925013228857 -53.45688832499891, -289.3070300048453 -38.57296647695309, -284.2173824108488 -26.887137105617892 C-279.12773481685235 -15.201307734282695, -261.0795240669423 -3.8405547925650367, -262.96190703209066 3.751752668116869 C-264.844289997239 11.344060128798775, -278.37469678597813 15.85479848261495, -295.51168020173884 18.666707658473545 C-312.64866361749955 21.47861683433214, -341.50531413828674 20.366423025357776, -365.78380752665475 20.623207723268443 C-390.0623009150228 20.87999242117911, -398.27105194499507 20.66690261639768, -441.182640531947 20.207415845937554 C-484.09422911889897 19.747929075477426, -582.7397093779081 17.91297724905664, -623.2533390483663 17.866287100507673 C-663.7669687188246 17.819596951958705, -673.0916313551588 12.659220675942965, -684.2644185546966 19.92727495464374 C-695.4372057542344 27.195329233344513, -692.8880272638557 43.69563237462765, -690.290062245593 61.47461277271231 C-687.6920972273304 79.25359317079698, -680.7813809564161 104.85916839007402, -668.6766284451202 126.60115734315168 C-656.5718759338242 148.34314629622935, -635.4043761266746 175.62971975444287, -617.6615471778176 191.92654649117833 C-599.9187182289606 208.22337322791378, -582.6135627449436 216.49078854818006, -562.2196547519782 224.38211776356442 C-541.8257467590128 232.27344697894878, -523.090218266616 238.36241024403984, -495.2980992200254 239.27452178348443 C-467.50598017343475 240.18663332292903, -427.4173680935899 237.39395739081485, -395.46694047243426 229.85478700023194 C-363.5165128512786 222.31561660964903, -328.26234728581113 208.61774415191417, -303.5955334930916 194.039499439987 C-278.928719700372 179.46125472805983, -261.7035445099805 161.6240777211133, -247.4660577161169 142.385318728669 C-233.22857092225328 123.1465597362247, -225.37228167827925 95.92030610341463, -218.17061272990992 78.60694548532119 C-210.9689437815406 61.29358486722775, -212.29877244026713 46.355144582252734, -204.25604402590096 38.50515502010833 C-196.2133156115348 30.655165457963932, -182.37417585748238 35.115836339941, -169.91424224371292 31.507008112454777 C-157.45430862994345 27.89817988496856, -139.67945088419492 24.533262932599012, -129.49644234328417 16.852185655191022 C-119.31343380237342 9.171108377783032, -107.60710472424537 -5.268356110303696, -108.81619099824839 -14.579455551993172 C-110.0252772722514 -23.89055499368265, -124.89505105625682 -34.531374973427056, -136.75095998730225 -39.014410994945834 C-148.6068689183477 -43.49744701646461, -167.9591099095598 -42.85688912765418, -179.95164458452095 -41.47767168110584 C-191.9441792594821 -40.0984542345575, -204.29694179570444 -32.67256661792203, -208.7061680370692 -30.73910631565581" stroke="#000000" stroke-width="1" fill="none"></path></g></g><g transform="translate(62.5718298422471 133.64609670640965) rotate(0 27.60816950521746 26.29557824506449)"><path d="M-1.1383430361747742 -0.9566991925239563 C10.255407874282874 1.196846411403547, 20.61870224177177 -1.7275367520486014, 54.771097857194704 -0.2357080578804016 M0.23068150877952576 -0.7728897035121918 C11.26079397869255 0.6026005696380143, 22.37986518883995 0.29146146288752606, 55.761037815051836 -0.8440023362636566 M55.14126082106189 -0.09927922487258911 C54.957638929525814 9.790372391707987, 55.72799987618109 23.260285238757312, 55.23945303602771 52.3282858803687 M55.60244559093074 -0.24925288558006287 C55.490416598826044 12.247369673931345, 56.03750236084997 25.70044364945838, 55.49077318950252 51.803414262813085 M54.7341277186449 51.769890494626516 C34.379008463517614 52.305265318842295, 11.37233891542158 51.76967610070265, 1.7417743802070618 53.78226346520757 M54.570706356006426 53.25729457287168 C38.010459328888345 53.45654597512722, 22.943467917004646 52.57893958322048, -0.4964713156223297 53.424280084651464 M0.03283578157424927 53.60716886071538 C-0.4059604811419053 38.972786723875174, 1.5009971452008681 23.477259567503715, -0.5841819643974304 0.9523965716362 M0.11104974150657654 53.07322875408506 C0.3169078486125602 33.87250298579188, 0.027140583292735998 15.755181758514325, 0.5513182580471039 0.6836341917514801" stroke="#000000" stroke-width="1" fill="none"></path></g><g transform="translate(126.36376508568173 132.85854195031803) rotate(0 26.514343455089943 26.51434345508997)"><path d="M-1.3018472790718079 -1.4700080752372742 C14.173581096993923 2.0595168555098824, 26.799583203528403 0.5789622748214059, 54.11134394934544 0.9379375576972961 M-0.7957349717617035 -0.9228219091892242 C14.208253111872374 -0.7686829090874266, 28.071036361522076 0.5303254603583741, 52.0434616201199 0.1900235116481781 M54.44162043860325 -0.28564947843551636 C52.46029782053831 17.692778019313973, 54.29751133677366 37.04895209909471, 53.32240161230931 54.93107339671025 M53.63113099267849 0.5783062875270844 C52.7074483372541 11.096589282075294, 52.74695620315986 21.04660445435788, 53.67445927789578 53.106648921278804 M51.22347888281712 53.831998079327434 C41.44306259088408 53.659142440973106, 26.871813779419803 51.64721578997213, 0.5698968768119812 54.520827501324504 M53.36344700982937 52.23345708778271 C38.91862919283877 53.152255184509464, 26.209559666863797 53.917144901611515, 0.3150085508823395 52.80644655158886 M-0.3801000714302063 53.21813890269169 C1.5234717214360765 35.19849548066645, 0.21041668298392813 19.56050489067247, -0.8251245617866516 -1.5877220034599304 M0.19125214219093323 52.96084260871777 C-1.0434292559862444 39.11377874223332, -0.7383574252367326 25.790243928483243, 0.9687723219394684 -0.3912476599216461" stroke="#000000" stroke-width="1" fill="none"></path></g><g transform="translate(189.71816990906575 133.73360279041992) rotate(0 26.07681303503898 26.076813035038995)"><path d="M1.067934811115265 -1.7187326550483704 C9.994688759248495 0.4047143689509973, 23.369501789412976 -1.046707368719901, 52.067067549284076 1.7336427569389343 M-0.3360957205295563 0.32347431778907776 C17.82077712362573 0.595989829121651, 34.561725895515394 0.5166317282305377, 51.23649759655771 -0.7085452973842621 M51.48166410690126 -0.2759245038032532 C53.05130602512248 13.8297834095077, 50.6153071084965 28.380986928287403, 52.648276732023334 53.43572883373079 M51.68459482556162 -0.6072040498256683 C51.77155367194735 17.6123094138556, 51.7269951468619 33.37128210605249, 52.95423956280527 52.56753350859461 M53.04676000839052 52.621962354238605 C36.997504758487985 51.222272709657396, 24.900214840616695 54.632301167299, -1.3359443545341492 52.78368835216341 M52.33617468243418 51.9576931155282 C32.099863000673324 51.98732022852238, 12.289424121646839 52.948916717475015, -0.29185572266578674 51.98603726988611 M1.2183006405830383 52.74384765392122 C-1.5406822146200552 35.196680798367936, -2.000240701558532 18.528603298283407, 0.18923455476760864 -1.4588068127632141 M-0.4370202124118805 52.750952736194705 C-0.7369697917736637 31.00446662513284, 0.617946780797137 11.486892867586597, 0.09354981780052185 -0.25674495100975037" stroke="#000000" stroke-width="1" fill="none"></path></g><g transform="translate(251.32245305224376 133.20856628635858) rotate(0 26.07681303503898 26.076813035038995)"><path d="M-0.5837114453315735 -0.33517760038375854 C13.469772051546798 0.2664159939394458, 25.54492302889392 0.9986299679384693, 52.74384765392122 -1.4139263033866882 M0.09461727738380432 -0.7294034063816071 C17.561913806041222 0.2959267879463977, 32.858708625714264 -0.7018788074515515, 52.750952736194705 -0.4444998800754547 M52.340725705679034 -0.5134899020195007 C53.95738100424173 14.52405656682198, 53.181435340789584 28.13075586769471, 51.50702934032259 52.28288404708681 M51.4787588275033 -0.5166663229465485 C51.9953356000109 14.49422246383037, 51.17247774326041 28.434890303341664, 51.872489944751834 51.43172045117197 M51.8309581733304 52.651582167204 C32.6844475535176 51.82353095431498, 12.368198164173549 50.860310358001506, 1.2090532183647156 50.36152975326357 M52.87348939543543 52.676204398925876 C31.404251545109148 51.85185930256052, 11.2664651107985 51.96446630481882, -0.9787822663784027 51.35484571820078 M-1.161842167377472 52.870364592130755 C1.4699899469109892 34.316600569295815, -1.4171617712286593 20.585895628492125, 1.7958433032035828 -0.8479110598564148 M-0.11865195631980896 52.705042556579684 C-0.7107573341377558 41.248492093690345, 0.14991752395550595 29.188517558535388, -0.7368226945400238 0.8317118585109711" stroke="#000000" stroke-width="1" fill="none"></path></g><g transform="translate(313.71429095151586 133.73360279041992) rotate(0 26.07681303503898 26.076813035038995)"><path d="M-0.00014990568161010742 0.7639028429985046 C15.557918922241399 0.6901566594584206, 33.84529683219566 -1.1743510157124777, 53.9413656449872 -0.022979557514190674 M0.4193821847438812 -0.002560228109359741 C12.811570158676473 -0.6140216067102241, 25.39720906034344 -1.0258992388513373, 53.01297159558115 -0.5321384370326996 M50.91064970260439 0.2877656817436218 C51.266284343369705 11.70257142339084, 50.57149636424373 20.781622770506807, 52.30089514022646 52.97891120677767 M52.996225074585055 -0.9034534394741058 C51.24967780576596 19.383592647739317, 52.74857631193051 37.850722963468364, 51.39624090557871 52.41435052519617 M51.004065916593646 53.73545722728548 C40.05118218977531 53.295190959417184, 25.331513794988222 54.104633479558785, -0.8737556338310242 51.095425412710284 M51.938332275207614 51.706853882129764 C37.420579193948655 52.99747374986977, 23.938073915424063 52.220300707572406, 0.05004796385765076 52.018889442737674 M0.7351768612861633 51.8758972144681 C2.105902500074259 33.920980050905925, -1.4249450493642177 20.063902242812503, 1.4922435879707336 0.09023493528366089 M0.690039724111557 53.06114865904627 C-1.47615985206925 37.23411435877414, 0.32846375175155074 21.276617412017647, -0.9302691519260406 0.9777673780918121" stroke="#000000" stroke-width="1" fill="none"></path></g><g transform="translate(250.53489829615307 71.60428314317939) rotate(0 26.51434345509 26.51434345508997)"><path d="M1.581831157207489 0.571789562702179 C16.133391525637975 -1.168847061762349, 32.22224437453721 -0.5689573065133257, 51.970486252812236 -0.40393179655075073 M-0.44677218794822693 -0.1402844488620758 C21.032427756778112 1.084140172299457, 40.95831349252008 0.1642154362765078, 52.893950282839626 0.12826165556907654 M52.75095805457005 1.7504108548164368 C50.75400916725099 10.513606676649392, 53.21195022254884 26.080330330513597, 53.1189218454636 52.7592479877747 M53.93620949914822 -0.9771079123020172 C53.02855730946496 21.810374709185904, 52.01453734333947 41.0354488834082, 54.006454288271755 52.83779478004345 M54.001444428471416 53.00685235789189 C38.082269872930624 52.94302247439179, 25.508981547858586 54.50372765932831, -0.7782362103462219 54.78857728770146 M52.63440686395535 52.73657560279736 C37.494342428496985 51.88595109017265, 23.80291690905425 52.49831395180595, 0.20077553391456604 52.66448450019726 M0.7844621539115906 51.801318376568645 C1.633803021301162 38.934952901016125, -0.17571197808848626 26.12602150749485, -1.5249422192573547 1.5141342282295227 M0.00035896897315979004 52.35647821357617 C-0.5715905265581327 34.96481607002295, -0.573952777839871 16.97754235420411, -0.956923097372055 0.3651667535305023" stroke="#000000" stroke-width="1" fill="none"></path></g><g transform="translate(191.2057733372386 74.66699608353633) rotate(0 25.201752194937 25.20175219493702)"><path d="M-0.7782362103462219 1.759890377521515 C15.456403010592956 1.5203667130607657, 30.769350337000883 -1.248578980908961, 49.81928177510887 -1.0098373293876648 M0.20077553391456604 -0.3642024099826813 C10.024721815634837 0.27212875050602825, 20.259221075870734 0.551758457842454, 49.78982012306839 0.8467570245265961 M48.87856217061668 1.5141342282295227 C51.147600985116966 15.609266981744428, 50.64722905213357 28.310661942290583, 49.05908699666649 50.03151686822563 M49.44658129250198 0.3651667535305023 C51.27292602992108 15.198350631154907, 50.74636333918622 30.083383874013688, 51.13544790779739 50.04905806814819 M51.5797931734243 51.03937514459282 C30.770587295331012 50.26193475804211, 15.973283272706475 49.55146074375988, 1.7788717150688171 50.32006247674614 M51.323214936605986 49.7513056877771 C34.5568366800564 50.80494491309299, 19.640464527022438 49.911784093085664, 0.597255140542984 50.506393540255125 M1.8391286730766296 50.983682471863325 C1.3243611141994254 31.1917517274497, 0.7713768765285269 16.134989440067322, -0.013183414936065674 -0.37662237882614136 M0.15196552872657776 49.93154155050903 C-0.08114873497845243 34.5795616714233, -0.04722558586956571 20.808728032571945, -0.5402103364467621 -0.49315062165260315" stroke="#000000" stroke-width="1" fill="none"></path></g><g transform="translate(127.4138380938042 74.22946566348534) rotate(0 25.201752194937 25.20175219493702)"><path d="M0.6906377673149109 1.775666058063507 C19.98659193239144 0.3729640739352631, 35.73780732793672 -0.8519752723782135, 51.47351952230125 -1.2995426058769226 M-0.35807856917381287 -0.8106125891208649 C20.523830278668857 -0.696405449247815, 38.92469054252715 0.7658109280104858, 50.766702103964384 -0.08314314484596252 M52.196374136559065 -0.3844577670097351 C52.2944928003797 18.711604608774813, 52.23155983224005 35.00572606659061, 51.62671585714012 52.04424079095512 M50.32995741402298 -0.18607130646705627 C50.46055447997817 14.61586396196703, 50.19036996307143 29.62687515813549, 50.31920855080276 51.35905658041626 M49.73287125264793 50.27133734857231 C38.170051803688544 50.57778458096532, 26.621087335197902 48.118348164339345, 1.5587198138237 51.36763747369438 M49.57753222023636 49.900903809420164 C37.08630763000489 51.199970454418704, 22.24098758078905 51.604630679333255, -0.2396446168422699 50.51820479666382 M-1.3736990094184875 48.57862075006157 C-1.330795525663142 31.556710042129108, -2.0908720484902905 11.236764666227899, -1.9097879528999329 0.6257255673408508 M-0.20031508803367615 50.99388991629272 C0.1407087500110712 33.50465977811677, -0.2154743020519171 18.066302442675187, -0.531559556722641 -0.9113625586032867" stroke="#000000" stroke-width="1" fill="none"></path></g><g transform="translate(249.65983745605047 10) rotate(0 26.51434345509 26.51434345508997)"><path d="M1.1026365160942078 1.3672683835029602 C15.548787897552913 -0.9511007950174076, 31.836919259480368 -0.6893458053933842, 51.767414658573955 1.1271427273750305 M0.7814115583896637 -0.48266497254371643 C16.000627944043064 -0.017966293503361708, 33.82668637071209 -0.727808021713811, 52.642275630740016 -0.4588698446750641 M53.69046458533177 0.670157253742218 C54.258060639980116 16.099357906213257, 51.90960521090297 29.152398890715542, 53.88923892310032 52.73490258982548 M53.28512078454861 0.31954964995384216 C54.330850973083564 11.792729609698602, 52.710263624145576 24.980844872177737, 52.410663425234645 52.41704511573681 M51.726839631108135 51.55867883494267 C41.33550625626311 54.37895782875606, 28.09474661188683 52.89840324806758, 1.0826570391654968 53.96662446787724 M52.23295193841824 52.10586500099072 C39.747676852220685 52.74682525931177, 26.121196932038757 54.04583362875757, -0.9852252900600433 53.21871042182812 M1.4129335284233093 52.743037431744426 C-0.603558031978543 32.27640116324298, 1.2336554842568086 13.18751147677279, 0.293714702129364 1.902386486530304 M0.6024440824985504 53.60699319770703 C-0.8331509872967838 42.39363612173792, -0.7936431213910221 30.612011223503185, 0.6457723677158356 0.0779620110988617" stroke="#000000" stroke-width="1" fill="none"></path></g></svg>