<svg version="1.1" xmlns="http://www.w3.org/2000/svg" viewBox="0 0 400.78431372549016 411.00671140939585" width="400.78431372549016" height="411.00671140939585">
  <!-- svg-source:excalidraw -->
  
  <defs>
    <style>
      @font-face {
        font-family: "Virgil";
        src: url("https://excalidraw.com/FG_Virgil.woff2");
      }
      @font-face {
        font-family: "Cascadia";
        src: url("https://excalidraw.com/Cascadia.woff2");
      }
    </style>
  </defs>
  <g transform="translate(10 20.222397683905655) rotate(0 190.39215686274508 190.39215686274508)"><path d="M144.89309367078016 4.965168032616305 C160.69448437583216 -1.9357543476615673, 181.63554647564516 0.004062951048434571, 199.51795741695744 0.8706783366789921 C217.40036835826973 1.7372937223095497, 235.4678712161264 4.487160782628986, 252.18755931865385 10.16486034639965 C268.9072474211813 15.842559910170312, 285.3364117234531 24.611481163269715, 299.8360860321221 34.936875719302975 C314.3357603407911 45.262270275336235, 328.03335716530455 58.11478494701042, 339.185605170668 72.11722768259922 C350.33785317603144 86.11967041818802, 359.8174836315345 102.54494526124824, 366.749574064303 118.95153213283577 C373.68166449707144 135.3581190044233, 379.049006581274 152.7919797013376, 380.7781477672788 170.5567489121244 C382.50728895328365 188.3215181229112, 380.4179226114141 207.69023833715315, 377.1244211803319 225.5401473975566 C373.83091974924974 243.39005645796007, 369.08237963366867 261.6673022597139, 361.0171391807859 277.6562032745452 C352.9518987279031 293.6451042893765, 341.0408962034634 308.7457003128248, 328.732978463035 321.47355348654435 C316.42506072260664 334.2014066602639, 302.7369689475005 345.2019746903879, 287.16963273821557 354.0233223168625 C271.60229652893065 362.8446699433371, 252.90277682096337 369.8550468627619, 235.3289612073255 374.4016392453922 C217.75514559368764 378.9482316280224, 199.32298441948234 381.95885945921896, 181.72673905638848 381.3028766126441 C164.13049369329462 380.6468937660693, 146.5394465144068 376.3459858573567, 129.75148902876236 370.4657421659431 C112.96353154311794 364.58549847452946, 95.85573234485885 356.14223198071375, 80.9989941425219 346.0214144641623 C66.14225594018494 335.9005969476109, 51.66976721550331 323.71333134442034, 40.61105981474063 309.7408370666345 C29.552352413977943 295.7683427888487, 21.163311096875276 278.84636136925894, 14.646749737945782 262.18644879744727 C8.130188379016289 245.52653622563562, 3.3750917065025208 227.50982327191394, 1.5116916611636668 209.7813616357646 C-0.35170838417518735 192.05289999961525, 0.3470035825550233 173.54345017887158, 3.466349465912657 155.81567898055118 C6.58569534927029 138.0879077822308, 12.026871223770135 119.30116207224191, 20.22776696130947 103.41473444584227 C28.428662698848804 87.52830681944263, 40.270665384577164 73.27437813553976, 52.67172389114867 60.49711322215333 C65.07278239772018 47.719848308766906, 77.28365080309425 36.15553298174624, 94.63411800073852 26.751144965523707 C111.9845851983828 17.346756949301174, 144.42378629184847 7.6028912533198305, 156.77452707701434 4.070785124818144 C169.1252678621802 0.5386789963164582, 168.3914740643687 2.6138448234600085, 168.73856271173378 5.558508194513593 M199.8283640909994 1.2562227579929868 C216.9465324911618 -0.5681166664322272, 235.78536656850724 6.198147741466694, 252.84727709375971 11.648485127355684 C269.9091876190122 17.098822513244674, 287.50359932757766 23.63469794852886, 302.19982724251423 33.95824707332693 C316.8960551574508 44.281796198125, 330.32397993840664 59.52404645028965, 341.0246445833791 73.58977987614409 C351.72530922835153 87.65551330199852, 360.1432004239789 102.07796874621079, 366.4038151123491 118.35264762845355 C372.6644298007193 134.62732651069632, 376.7982682306279 153.25390115086537, 378.5883327136002 171.2378531696007 C380.3783971965725 189.22180518833602, 380.2414510527928 208.57681526993426, 377.144202010183 226.25635974086555 C374.0469529675732 243.93590421179684, 368.1250395190833 261.50739521560524, 360.00483845794133 277.3151199951884 C351.88463739679935 293.1228447747716, 340.78653850396546 308.32924908633595, 328.42299564333103 321.1027084183644 C316.0594527826966 333.8761677503928, 301.13295642308935 345.0263457389443, 285.82358129413484 353.95587598735915 C270.5142061651803 362.885406235774, 253.9310281566099 370.1226589758067, 236.56674486960378 374.6798899088535 C219.20246158259766 379.2371208419003, 199.5178203031045 381.95905993101024, 181.63788157209822 381.29926158564 C163.75794284109196 380.6394632402698, 145.9526111504666 376.88757712052984, 129.28711248356623 370.721099836632 C112.62161381666587 364.55462255273414, 96.135690553846 354.8698312907823, 81.64488957069605 344.30039788225304 C67.1540885875461 333.73096447372376, 53.42240217644551 320.97420760523755, 42.34230658466652 307.3044993854563 C31.262210992887525 293.6347911656751, 22.261135598046963 278.77452318316284, 15.164316020022113 262.28214856356556 C8.067496441997264 245.78977394396824, 1.882037465426592 226.1609202650839, -0.23861088348257908 208.35025166787247 C-2.35925923239175 190.53958307066105, -0.9408939770770721 173.08081910849614, 2.4404259265670873 155.418136980297 C5.821745830211247 137.75545485209784, 11.962394236356777 118.23342518173425, 20.049308538382377 102.37415889867759 C28.136222840407974 86.51489261562094, 38.609753979501434 73.24504420627467, 50.96191173872069 60.26253928195709 C63.31406949793994 47.28003435763951, 78.41949761181921 33.854011873000765, 94.16225509369788 24.479129352772105 C109.90501257557655 15.104246832543447, 127.75664699157922 8.128574191984413, 145.4184566299927 4.013244160585145 C163.0802662684062 -0.1020858708141219, 191.06407224776535 -0.14964687818026334, 200.13311292417882 -0.21285083562349882 C209.20215360059228 -0.2760547930667343, 199.8973609528996 0.3113937054198792, 199.83270068847355 3.6340204159257326" stroke="none" stroke-width="0" fill="#a65017"></path><path d="M143.68805943511666 5.683209692027987 C159.24403452079525 -1.4724473089757781, 179.50719634829306 -0.9428464629069282, 197.39477891771534 -0.22966271739858257 C215.28236148713762 0.48352102810976305, 233.80668303795883 4.213168848744776, 251.01355485165027 9.96231216507806 C268.2204266653417 15.711455481411345, 285.96949259585045 24.150575604805375, 300.6360097998639 34.26519718060112 C315.3025270038774 44.379818756396865, 327.85916678810594 56.60664384628024, 339.0126580757312 70.65004161985252 C350.1661493633565 84.69343939342478, 360.67716062678267 101.91832240852118, 367.5569575256156 118.52558382203475 C374.4367544244485 135.1328452355483, 378.5984348663635 152.5533216151981, 380.2914394687287 170.2936101009339 C381.9844440710939 188.03389858666972, 381.0007752483837 207.3782652674246, 377.7149851398069 224.96731473644962 C374.4291950312301 242.55636420547464, 368.60429847146264 259.9738568596862, 360.5766988172679 275.827906915084 C352.5490991630732 291.6819569704818, 341.84487370703863 306.9698666261816, 329.5493872146385 320.09161506883663 C317.25390072223837 333.21336351149165, 302.14656797793486 345.37114186517414, 286.8037798628671 354.5583975710141 C271.4609917477993 363.74565327685406, 254.76639600202333 370.84656950051533, 237.4926585242317 375.2151493038763 C220.21892104644007 379.5837291072372, 201.22562543716262 381.622584886682, 183.16135499611735 380.7698763911799 C165.0970845550721 379.9171678956778, 146.0150387621532 375.961181779015, 129.10703587796013 370.0988983308638 C112.19903299376703 364.23661488271256, 96.26635855295011 355.5423616112275, 81.7133376909588 345.5961757022725 C67.16031682896748 335.6499897933175, 53.08478140575561 324.07869422011834, 41.78891070601222 310.42178287713386 C30.49304000626882 296.7648715341494, 20.57134891825103 280.4978543317256, 13.938113492498417 263.65470764436566 C7.304878066745805 246.8115609570057, 3.8953422280677144 227.3703187913284, 1.989498151496548 209.36290275297412 C0.0836540749253818 191.35548671461984, -0.560495274085369 172.93321224408805, 2.50304903307142 155.61021141423998 C5.566593340228209 138.28721058439191, 12.368336703403903 121.40032954566249, 20.370763994437283 105.42489777388566 C28.37319128547066 89.44946600210884, 38.295776229448755 72.91884636643323, 50.5176127792717 59.75762078357903 C62.73944932909465 46.59639520072483, 77.48906759473542 35.67255090522057, 93.70178329337494 26.457544276760473 C109.91449899201447 17.242537648300377, 138.4194707247908 7.375227402783471, 147.79390697110887 4.467581012818442 C157.16834321742692 1.5599346228534139, 149.3595311183263 5.687913775024057, 149.94840077128322 9.011665936970303 M256.41043560756316 13.372229863640001 C273.0314743724089 16.196082082563183, 289.47067987412896 26.93204997219636, 303.94787614824975 37.72377827198295 C318.42507242237053 48.51550657176954, 332.25409919109796 63.568728494650664, 343.27361325228776 78.12259966235956 C354.29312731347756 92.67647083006847, 363.9591965813237 108.57312183197398, 370.0649605153885 125.04700527823634 C376.17072444945336 141.52088872449872, 378.8463654121957 159.27670513201195, 379.9081968566767 176.96590033993374 C380.97002830115764 194.65509554785552, 380.02567306331645 213.3913333910043, 376.4359491822744 231.18217652576703 C372.8462253012323 248.97301966052976, 367.0320929114145 267.8805509758653, 358.36985357042425 283.71095914851 C349.707614229434 299.5413673211548, 337.3006685747013 313.8471248672276, 324.462513136333 326.1646255616356 C311.6243576979646 338.4821262560436, 297.0410912936864 349.4079666100013, 281.3409209402141 357.615963314958 C265.64075058674183 365.82396001991464, 248.0193121055859 371.52862862586136, 230.26149101549933 375.41260579137565 C212.50366992541277 379.29658295688995, 192.76133440725903 382.2928323036155, 174.79399439969475 380.91982630804387 C156.82665439213048 379.5468203124722, 139.2006306634498 373.5877433458604, 122.45745097011361 367.1745698179458 C105.71427127677742 360.76139629003114, 88.29518967491096 353.19252866381805, 74.33491623967767 342.44078514055605 C60.37464280444438 331.68904161729404, 49.142658705901454 316.76555681083613, 38.695810358713885 302.66410867837357 C28.248962011526316 288.562660545911, 18.12219895898124 274.23380701088973, 11.653826156552242 257.83209634578066 C5.185453354123244 241.43038568067155, 1.0895108980740247 222.0959663741581, -0.11442645586009803 204.25384468771895 C-1.3183638097942207 186.4117230012798, 0.6471827341635503 168.15768035154008, 4.430202032947506 150.77936622714574 C8.21322133173146 133.4010521027514, 14.006419270825802 115.72291251075706, 22.583689336843634 99.98395994135286 C31.160959402861465 84.24500737194867, 42.948812635131794 69.26892191376218, 55.893822429054495 56.3456508107206 C68.8388322229772 43.42237970767901, 84.38871974596155 31.13369224916282, 100.25374810037985 22.444333323103365 C116.11877645479815 13.75497439704391, 133.52866898319837 7.743639117516324, 151.0839925555643 4.209497254363868 C168.63931612793021 0.6753553912114114, 187.9985019801853 -0.12931741445158207, 205.58568953457535 1.239482144188628 C223.1728770889654 2.6082817028288376, 248.22795103728856 10.10918432608083, 256.6071178819047 12.422294606205128 C264.9862847265208 14.735404886329425, 256.8995891596315 12.384519150750686, 255.86069060227214 15.118143824934407" stroke="#000000" stroke-width="1" fill="none"></path></g><g transform="translate(10 9.999999999999972) rotate(0 190.39215686274508 190.39215686274508)"><path d="M148.06751125381328 5.792731971583578 C164.22678366571768 -1.0672200544570059, 184.61293768015318 -0.663120365444442, 202.1889383976591 0.09364229350654796 C219.764939115165 0.8504049524575379, 236.7466066172739 4.26697908314831, 253.52351555884871 10.333307925289517 C270.3004245004235 16.399636767430724, 288.22779457589735 25.73503339216677, 302.85039204710796 36.4916153463538 C317.47298951831857 47.248197300540824, 330.4121421671048 60.904376221393115, 341.2591003861123 74.8727996504117 C352.10605860511987 88.84122307943026, 361.33061203888786 103.88021767716477, 367.93214136115307 120.30215592046525 C374.5336706834183 136.72409416376573, 379.43597889745564 155.2974749802246, 380.86827631970345 173.4044291102146 C382.30057374195127 191.51138324020462, 380.2752152256477 211.3111124317181, 376.52592589464 228.9438807004053 C372.77663656363234 246.57664896909247, 366.7379585489329 263.6319906971008, 358.3725403336574 279.20103872233767 C350.0071221183819 294.77008674757457, 338.53857741005635 309.5808755628937, 326.3334166029869 322.3581688518268 C314.1282557959175 335.1354621407599, 300.597425019408 346.7984532902556, 285.1415754912407 355.8647984559361 C269.6857259630734 364.9311436216166, 250.99502857548973 372.5833957723558, 233.59831943398308 376.7562398459098 C216.20161029247643 380.92908391946384, 198.51388149855305 382.1669774080936, 180.76132064220087 380.9018628972601 C163.0087597858487 379.63674838642663, 144.1222380076038 375.2378806542393, 127.08295429587008 369.165552780909 C110.04367058413636 363.09322490757876, 93.09233671913096 354.70422301745043, 78.52561837179854 344.46789565727863 C63.95890002446614 334.23156829710683, 50.44808902994466 321.6876168557226, 39.68264421187564 307.7475886198784 C28.91719939380662 293.8075603840342, 20.437581139168557 277.7522718975103, 13.932949463384432 260.8277262422136 C7.428317787600307 243.9031805869169, 2.390396992912585 224.04677199169288, 0.6548541571708881 206.20031468809813 C-1.0806886785708087 188.35385738450339, -0.017730934803026344 171.0432251237032, 3.5196924489342507 153.74898242064506 C7.057115832671528 136.45473971758693, 13.590241970403198 118.2307605112201, 21.87939445959455 102.4348584697494 C30.168546948785902 86.6389564282787, 40.747541775717956 71.79070807980905, 53.25460738408236 58.97357017182088 C65.76167299244678 46.156432263832706, 78.85356147462944 35.10214570048846, 96.921788109781 25.53203102182036 C114.99001474493257 15.961916343152263, 148.4492485879158 5.10830462265036, 161.6639671949917 1.552882099812308 C174.8786858020676 -2.0025404230257444, 175.59833965190091 1.1210955520973491, 176.2100997522363 4.199495884792043 M141.67226370819486 5.187418421963571 C157.49489165335436 -2.2435377664580898, 177.94663254743494 0.6229097227487207, 195.65548776694487 1.1343685118765734 C213.3643429864548 1.645827301004426, 231.01330570611952 2.96913264355463, 247.92539502525443 8.256171156730687 C264.83748434438934 13.543209669906744, 282.0733479663067 22.753897649861216, 297.12802368175426 32.856599590932916 C312.1826993972018 42.959301532004616, 326.7744233692776 55.393394545449745, 338.25344931793984 68.87238280316087 C349.7324752666021 82.35137106087201, 359.1118881967866 97.24436212683395, 366.0021793737277 113.73052913719971 C372.8924705506688 130.21669614756547, 377.7611677762257 150.02044453895738, 379.5951963795866 167.7893848653555 C381.42922498294746 185.5583251917536, 379.83853533305177 202.78031457996326, 377.00635099389297 220.34417109558842 C374.17416665473417 237.90802761121358, 370.0729810450846 256.9644982340002, 362.6020903446339 273.1725239591065 C355.1311996441832 289.38054968421284, 344.37905517539 304.4538931825293, 332.1810067911889 317.5923254462263 C319.9829584069878 330.7307577099233, 304.82858360911035 342.6212182893963, 289.4138000394271 352.00311754128836 C273.9990164697438 361.3850167931804, 257.02733866274076 368.84720317127193, 239.69230537308937 373.8837209575785 C222.357272083438 378.920238743885, 202.91044027369446 382.47618064994975, 185.40360030151888 382.22222425912764 C167.8967603293433 381.96826786830553, 151.47684005879228 378.19064917961066, 134.65126554003587 372.3599826126457 C117.82569102127944 366.52931604568073, 99.4881709264882 357.29093033188155, 84.45015318898032 347.23822485733785 C69.41213545147245 337.18551938279415, 55.66012892443554 325.37372734763517, 44.423159114988636 312.0437497653834 C33.18618930554173 298.7137721831316, 24.37515839136871 283.41157298784896, 17.028334332298897 267.25835936382725 C9.681510273229083 251.10514573980555, 2.943487345443799 233.24317622594484, 0.3422147605697603 215.12446802125322 C-2.2590578243042785 197.0057598165616, -1.5643530805727912 176.49188853346763, 1.4206988230546642 158.54611013567754 C4.40575072668212 140.60033173788744, 10.103823246486902 123.43532799612206, 18.252526182334492 107.44979763451262 C26.40122911818208 91.46426727290319, 38.402200738192796 75.85315243248824, 50.312916438140206 62.6329279660209 C62.223632138087616 49.41270349955356, 74.51132495229731 37.40815980083834, 89.71682038201895 28.128450835708577 C104.92231581174059 18.848741870578813, 132.81778940807294 10.038641364579542, 141.54588901647003 6.954674175242303 C150.27398862486712 3.870706985905064, 141.22474806245788 6.503823969461834, 142.08541803240144 9.624647699685141" stroke="none" stroke-width="0" fill="#f08621"></path><path d="M149.97974770068626 4.33598585931739 C165.99981307819627 -2.2203600531490126, 186.53989145230966 -0.8253898839252163, 204.34833184817614 0.5535479554459357 C222.15677224404263 1.9324857948170877, 240.02683288762117 6.391635949083299, 256.83039007588513 12.609612895544302 C273.6339472641491 18.827589842005306, 290.78638821443076 27.077811503434106, 305.16967497776 37.86140963421195 C319.55296174108923 48.6450077649898, 332.6125280309468 62.98661270747658, 343.13011065586073 77.3112016802114 C353.64769328077466 91.63579065294621, 362.0157859559212 107.13823181825164, 368.27517072724373 123.80894347062086 C374.53455549856625 140.47965512299007, 379.29878131929416 159.41265541488912, 380.68641928379583 177.3354715944267 C382.0740572482975 195.2582877739643, 380.55633396586427 213.87716164089187, 376.60099851425366 231.34584054784636 C372.64566306264305 248.81451945480086, 365.58414392348897 266.49092723252215, 356.95440657413207 282.1475450361536 C348.32466922477516 297.804162839785, 337.3540754588033 312.8258919180373, 324.82257441811237 325.28554736963486 C312.2910733774214 337.7452028212324, 297.38885003413003 348.44171201739454, 281.7654003299862 356.90547774573866 C266.1419506258424 365.3692434740828, 248.71042713548303 372.2203196687184, 231.0818761932495 376.0681417396996 C213.453325251016 379.91596381068086, 194.04387697917323 381.30220667234016, 175.99409467658518 379.99241017162626 C157.94431237399712 378.68261367091236, 139.6315157008733 374.60514122075494, 122.78318237772119 368.20936273541633 C105.93484905456906 361.8135842500777, 89.01663858158523 352.2461763949304, 74.90409473767241 341.6177392595947 C60.79155089375959 330.98930212425904, 48.49198071537841 318.5289695123427, 38.1079193142443 304.43873992340235 C27.723857913110187 290.348510334462, 18.9081914707362 273.8333010923191, 12.599726330867725 257.07636172595244 C6.291261190999251 240.3194223595858, 1.5354497720352829 221.7515974665925, 0.25712847503345415 203.8971037252024 C-1.0211928219683746 186.04260998381233, 1.0003797237386371 167.49091463612564, 4.929798548856752 149.94939927761186 C8.859217373974866 132.40788391909808, 15.314331829603 114.23100072241083, 23.833641425742144 98.64801157411976 C32.35295102188129 83.0650224258287, 43.3350339158236 69.13260904536168, 56.04565612569161 56.451464387865514 C68.75627833555961 43.770319730369344, 81.9897743344735 31.772143227764268, 100.09737468495018 22.561143629142748 C118.20497503542687 13.350144030521227, 151.68858720531648 4.364787554149819, 164.6912582285517 1.1854667961363816 C177.69392925178693 -1.9938539618770554, 177.90760931119104 0.40427485102527294, 178.11340082436146 3.4852190810621266 M149.32704004996458 3.1918980999170685 C165.16627166501058 -3.6727561851035135, 184.73798849317993 -1.6718890766611831, 202.74343017005222 -0.16232472760700034 C220.74887184692452 1.3472396214471825, 240.27768512767193 5.839473118572433, 257.35969011119835 12.249284194242165 C274.44169509472476 18.659095269911898, 290.9958132512412 27.832738689632862, 305.23546007121075 38.29654172641139 C319.4751068911803 48.76034476318992, 332.30364919697496 60.987634734774645, 342.79757103101576 75.03210241491333 C353.29149286505657 89.076570095052, 361.9789828723779 105.98447754944459, 368.1989910754555 122.56334780724347 C374.41899927853314 139.14221806504236, 378.48836120183137 156.43346374377637, 380.11762024948143 174.50532396170664 C381.7468792971315 192.5771841796369, 381.7345013230408 213.3723513893098, 377.97454536135604 230.99450911482512 C374.2145893996713 248.61666684034043, 366.2126434125248 264.8086919306442, 357.5578844793731 280.23827031479846 C348.9031255462214 295.6678486989527, 338.5669827892578 310.77916797798565, 326.045991762446 323.5719794197506 C313.52500073563425 336.3647908615156, 298.0464078129661 348.39720766909903, 282.43193831850243 356.99513896538815 C266.81746882403877 365.59307026167727, 249.86691956117457 371.3609950996563, 232.35917479566416 375.1595671974852 C214.85143003015375 378.95813929531414, 195.4956617773922 380.8972015794752, 177.38546972543992 379.7865715523616 C159.27527767348764 378.67594152524794, 140.37783388588466 374.6209647679904, 123.69802248395047 368.49578703480324 C107.01821108201626 362.37060930161607, 91.63238250388609 353.79942103894786, 77.30660131383473 343.03550515323866 C62.98082012378338 332.27158926752946, 48.744893726842804 318.0139021349883, 37.74333534364234 303.9122917205482 C26.741776960441882 289.81068130610805, 17.28633501166047 274.7241085591831, 11.297251014631968 258.42584266659776 C5.308167017603466 242.12757677401243, 3.1842034016520318 224.24550545125052, 1.8088313614713343 206.12269636503612 C0.4334593212906366 187.99988727882172, -0.4316045569707918 167.1582098465906, 3.045018773547781 149.68898814931137 C6.521642104066354 132.21976645203213, 14.208066704380448 116.67118281294745, 22.668571344582773 101.30736618136076 C31.129075984785096 85.94354954977408, 41.04838476396807 70.46915726251535, 53.808046614761736 57.50608835979122 C66.5677084655554 44.54301945706709, 83.24976114600875 32.59304292112417, 99.22654244934476 23.528952765015987 C115.20332375268077 14.464862608907803, 141.26350330466187 5.792632663255915, 149.66873443477783 3.1215474231421183 C158.0739655648938 0.4504621830283213, 148.9533355767492 4.263093483817144, 149.65792923004048 7.502441324333205" stroke="#000000" stroke-width="1" fill="none"></path></g><g><g transform="translate(60.208666626928334 145.9382965284932) rotate(0 127.53234107128173 57.53933745522676)" fill-rule="evenodd"><path d="M-0.2774839214980602 -8.319213254419717 L1.4905631355558178 102.98508557590573 L61.17666586634982 101.87190304664564 L62.22783628919712 58.559148344032245 L178.27008247744675 141.65529054876043 L172.19802108510353 160.02040415135946 L210.67920989723322 168.06189253516857 L211.18435151310084 184.4915384424529 L253.01948374969925 180.91185674266745 L253.92639274684376 134.44533115840778 L210.79899940297167 133.80953510375713 L210.6501729066763 147.04477190246791 L192.32015947197442 119.64360716349947 L184.76289494088863 131.74404967754668 L82.06199456364985 54.67048279819637 L168.52860549648025 57.60103170143309 L170.4311563912666 69.3857249433231 L208.46557933283736 56.80756060348692 L206.7491289992421 79.96333178328035 L255.5833862142238 79.85379703356338 L254.4017432459969 31.73721396792332 L206.48635872048249 32.10928296912114 L205.91478922039093 45.84955186743831 L170.8377757098374 28.85200749770166 L171.09784693378094 41.78237299911843 L85.82887980696779 37.90304352833376 L181.55878396990278 -19.455911368337965 L188.04129799563913 -4.8202720854909415 L208.5607765254206 -30.815209791686897 L205.0337408204167 -19.62809810680942 L252.47796571121862 -17.67734571694078 L253.39373383315814 -67.79645081138632 L204.17351373332255 -65.88758609027752 L204.0076591273055 -48.47525321614288 L171.32564045443917 -43.00339705126294 L174.41436403851606 -25.963521493703205 L62.19965410749645 39.92219185028893 L58.08543527276632 -9.354593498674783 L1.6303265281021595 -8.401000602213296" stroke="none" stroke-width="0" fill="#fff" fill-rule="evenodd"></path><path d="M1.7183287553489208 -8.44548917379752 C2.2751700832414645 18.09066064733552, -0.33090697548807624 44.15450797398735, -0.6545157395686367 101.88270444336264 M0.269016632810235 -10.190956238699707 C0.719688731722762 23.664898727035528, 1.1601350073832042 57.82709427228137, 1.960698874628975 102.90734637628226 M1.0971674955998203 101.384149259952 C19.437336699462293 104.09076822848179, 40.415700486458924 101.53064960308394, 58.22577558604348 103.44718237934303 M1.9591172057752153 102.55860913644462 C23.471085896434285 103.17938826328859, 45.76251184759173 102.77587800145477, 61.03130896349717 103.34884544616234 M61.272655354415065 103.38048144397926 C62.008451615455506 88.89200511521713, 59.071532361097674 72.49586020247018, 60.351192892283116 59.105735908083396 M60.822314574916845 102.98071428542626 C61.34944093298765 92.39420590209482, 61.13641047224488 80.80730220525005, 61.93412503482393 60.823188495643215 M61.31533950635782 59.4269439082665 C99.7072091506035 87.32881223192162, 138.29841615048414 116.31161130155317, 177.7759669087493 142.20267395402863 M61.011370270267044 60.527948570258694 C98.25338791796341 83.28120679866404, 132.18697238327871 108.17710812653074, 178.85051404867704 143.66766540620102 M179.32910364363056 141.4963890954456 C177.76361799964755 149.7809654040261, 173.20097509924457 155.45109926985236, 171.13643778262136 159.32421802876232 M180.3504457429627 143.49752733429014 C177.13996360705084 148.63741417650604, 174.35998827519742 154.17382164585234, 171.44614803419213 159.25241400513934 M170.9487656886778 157.21316328523483 C180.02171623506734 161.85131578131882, 188.56406643840225 163.63851405889892, 211.76757094444153 164.33800232746069 M170.07011743552007 157.98333510821487 C184.4809909736152 161.58364950668283, 199.2946782461695 164.61358579331565, 209.84177607291755 166.29375899359945 M211.2811520634167 165.39917145553213 C210.1628709923996 171.33619674842157, 211.10585562980384 175.2586472407583, 211.68317745011018 181.44916319751195 M210.49021828605913 165.55014492239127 C209.64611394284253 172.293575839767, 210.3017429304484 178.92208874144626, 209.3935358011612 182.16136213991427 M210.48771128238556 180.97096158542251 C226.98092574268185 181.89952136358957, 243.03455155636914 181.1469375103112, 255.9605545671102 181.34128398643662 M209.6192762851101 182.7452081011287 C223.23457765894403 181.68667286625006, 236.9485848868707 182.58416533050067, 253.86808925395871 179.94815285140504 M253.93584009720053 182.3491069768541 C255.1591233799304 163.68455441842636, 253.1982183163232 149.54056600695972, 255.47254846034235 132.9277774489604 M254.98444276576902 181.44852144652833 C255.18325168188974 169.56767213008823, 255.27465338284406 158.70014806060937, 255.15646338810808 135.1852556283705 M252.7537727111358 134.90358749992475 C245.05614206806356 135.8366623535482, 232.8372428794674 136.19599944781706, 210.38254439488213 135.10983961345647 M255.44284558644182 135.14035139634535 C242.14794993845535 135.49446741753567, 229.87827199643615 135.28165819711404, 211.02885755367737 135.29232781836782 M210.64940001614377 134.6036217636372 C209.21887031642063 139.248471609474, 209.1794847191306 143.15371975126644, 210.69879390083906 149.8690569948861 M209.8481027712773 134.67956080353625 C210.81975108399286 139.24932235056275, 210.16260864583967 143.35916679064653, 210.63702628951668 148.8058934918509 M211.43000934527254 150.52949938198537 C203.41842246311217 139.77234804923333, 201.53903732613506 132.63541837782836, 195.23047429268127 119.45031750358211 M209.15503705360925 149.34200850335867 C204.71760747067435 137.85492703346222, 197.81927666847156 126.83820635927475, 193.56154218074744 120.42834234579968 M194.2350559749058 122.2234005095721 C190.59022335622703 124.21358069744144, 188.32950831348748 127.48068016444817, 186.05532476162492 133.97320660870395 M192.78709535774541 120.69531671648335 C190.93916513450145 124.88737524885612, 188.5026733687258 127.78881695310595, 185.48432755960212 132.63192928244942 M186.75565538308595 132.28335498451776 C146.6241172957862 103.57575811700161, 108.84170500855151 76.035854603374, 84.25290611744995 56.16209628311544 M183.89498722865258 132.97087233133203 C151.44892045737146 107.34043666007966, 115.7146734041604 81.02896774284976, 83.22398233586128 56.9822352162525 M83.30112865925904 56.91241194931417 C104.98959979072987 56.35472438563172, 129.46216294540136 57.63468288898603, 168.33395558406332 57.65510942356529 M83.56216812306221 55.548369192235164 C107.73559831692988 57.25459714169612, 133.33040004409915 55.88799348921461, 170.17292281609693 56.442366917970205 M169.31638451656056 56.632868983375296 C168.0965293109161 60.07368334096778, 169.41866840133386 61.37399655596773, 169.91895244304584 69.40852642011029 M169.8087672287395 56.37400428480689 C169.00049337526906 58.741331276672646, 169.5919490492591 61.447148017658904, 169.02375436755148 68.83458290285527 M170.21678687817217 69.5549583623242 C175.4170191268865 65.203616840649, 184.6535599399643 61.66920054379455, 206.245450103709 56.94954134838524 M169.40673695503534 67.63511862438735 C182.9256609590271 63.2675034045166, 197.01280239564164 59.21537612302038, 207.24696671223035 57.15775128209832 M208.86871537012746 56.587216633724594 C206.58723992570881 62.958510995495786, 205.30313522085194 68.1965236495033, 207.31583973211934 79.65711850123165 M206.4150627777516 56.32293005788567 C207.0083431950171 63.81255194801308, 206.63411346584152 70.2398779244442, 206.31355278944363 78.26410860204754 M208.93742653174093 79.27352303461788 C222.16947294581976 78.40844361940698, 236.1160532291544 76.5919443745585, 255.98105769768088 79.85397499068094 M207.2976736352383 78.76145595693646 C221.7402846085552 77.96702336991244, 237.34792873588628 78.91538128780024, 254.86185189313917 78.67058395794047 M253.7230363430056 78.90516345961404 C254.88062341131683 58.63888677600259, 256.7053842863621 39.5304574179705, 255.47771892485804 30.15920827407042 M254.9056498629573 78.84238504818094 C254.00484737123776 64.77516485295276, 254.68807834019086 52.92682613831275, 253.72436517825014 30.02050576414565 M256.49340972838587 30.5699853660504 C239.88862148814727 32.104650649630486, 226.91204903770355 30.791051420771538, 208.2271421958219 29.468421077911056 M253.8058676158417 30.22467074598769 C243.45330954275087 29.608400998419906, 232.8486858110907 29.543277738398697, 206.85384453241636 31.01691082920531 M206.82031933004035 30.56202258490756 C205.50465314858485 34.89951679836837, 206.1448532530951 36.59330985887033, 206.32359628916484 46.203366468565996 M207.17735268706102 30.189488062780928 C206.63491846849496 35.54774310772698, 206.12738523496608 40.82727292088262, 206.45292489412506 45.30501020573046 M208.43005780696691 44.37949447680806 C196.05133592068057 39.53823312282957, 183.46936438917416 36.742192701974226, 168.104013706356 31.42633744761707 M205.9859175794554 45.28657226797735 C197.9118992824204 42.06922257244047, 188.61082859581504 38.191191488626735, 168.46190708203585 29.297474889684334 M169.13308646604978 29.590512361547027 C169.45690909396924 34.371750704665395, 170.35637714094383 35.896158209876724, 169.79289523265308 40.68286889528311 M168.72250190262076 29.718170033184457 C169.0663960746192 33.796561927927044, 170.1735653579249 36.5926258371122, 170.11792864283032 40.09618071100186 M170.95148202884081 40.602046634183985 C143.18129430336012 39.49538964184425, 119.75323319154731 41.86238673186196, 85.63494610396248 40.52926575882778 M169.51996213118616 39.70506694644855 C135.758264971554 39.51583221217824, 100.84037122537023 38.8028680373316, 84.79671576042693 38.31235295465634 M83.41275238600593 41.01630627854214 C107.03140148732027 26.158005721203025, 130.35524507416253 12.093224891585159, 182.80739091249683 -15.950185410884714 M83.44027569313567 39.593864738256194 C109.87602606949967 24.273547671678187, 137.2620691673211 8.662246669938881, 182.26087398553767 -16.86876665635178 M181.6004891311413 -18.362026946704773 C185.51104406198058 -13.597390254377435, 186.89682575084032 -9.980137723263049, 188.18456293524207 -7.246549267533065 M181.4628761437339 -17.255396944296702 C183.60562143994366 -14.843165537903342, 186.04172400392926 -11.680050985526332, 188.92686131826395 -6.016177672899876 M188.45824228335647 -6.502559681657075 C195.6406758120429 -14.464941150186089, 203.1916901140201 -24.48497829816165, 207.81364353118605 -31.671974488225345 M189.12078048211066 -7.121167618084073 C194.6786253764547 -15.41991873828546, 201.24752192960895 -25.376118724599426, 206.22867576709157 -31.65091509247995 M206.43917734386008 -32.738440801694 C205.3329809004215 -27.33539658363898, 206.0071494484914 -24.329013332193906, 205.64580785939236 -17.474886007728536 M206.91962432453482 -33.16721855644024 C207.29601007548263 -27.063820558758568, 207.5569327630671 -21.552259891627592, 206.5090871457948 -18.187415400014704 M207.70047434611013 -17.734079359896942 C218.25927556259654 -18.604816960066003, 228.16165952646165 -16.706683507939974, 253.34516968445232 -16.874353753017804 M207.450595490688 -17.63630944197671 C224.28079999620667 -17.657046858823108, 240.61056192498216 -18.743143785362374, 254.62622343429675 -17.128795012446663 M254.4055992575114 -16.878432618069073 C253.5536027825043 -29.269188670315387, 254.7583573669404 -37.02687414336656, 251.8508402073623 -64.81466160243771 M252.93877445587268 -17.978432520838997 C253.8519768503822 -33.16155865147874, 252.5758723618116 -48.8687166228763, 253.2656235938759 -65.80581120489559 M254.9340053761245 -65.3488002819421 C237.15050579990285 -67.3321559957862, 218.3839444307331 -67.66802791937047, 203.9096628283214 -66.23462140144 M253.84292986447525 -66.65482310293636 C241.54869933215875 -66.83897918531353, 230.14596733522546 -65.89486620006505, 205.68923778692894 -66.37179445617983 M206.53632668948035 -65.75857128376688 C205.24654749605287 -61.53876515184287, 205.30513524521044 -58.30741974003818, 204.88642432867857 -47.782525925439614 M205.32556092186275 -67.6665331906752 C205.33495933907804 -62.225222110952394, 205.91468389803447 -57.37147649276388, 205.63784076148374 -47.89313443515245 M203.62724871684168 -47.2661767147138 C196.64623989808683 -45.99443769899389, 188.09160560130462 -44.76406072328052, 170.20487407550002 -39.51727482305773 M204.35359929066453 -47.59762771163427 C193.1394687139204 -45.20361245120355, 179.4568676801385 -42.70021555835319, 169.8122472814449 -42.00525065699526 M169.9273489291698 -39.92694035061615 C171.61492522129123 -36.428426671313524, 173.66052984215148 -32.29170123843725, 177.04752546062215 -28.153617537362845 M170.45703271511948 -41.077665112654024 C172.12108035657204 -36.44465394420325, 174.77011072426467 -31.44476267297772, 176.4111551214533 -27.917037964828516 M175.27608295391894 -25.929756080836135 C136.41243174522853 -3.1822709646381924, 98.6734415531264 16.76041572253602, 60.890642908916185 36.64262518231494 M176.03463469866313 -27.87848553444453 C147.73782256368585 -9.767903670957665, 119.15562850823896 6.215733274978923, 61.32061874452264 38.006185741543 M60.63729074369402 39.08025774304492 C62.41737476390739 26.13046717591465, 61.64316901137212 16.270306900057953, 60.276070737851825 -9.190058356193456 M60.26711141648919 38.15395423901004 C60.64807289288856 23.397992946739336, 60.53218039215256 8.855108383230995, 59.74451940470752 -9.704460565043243 M60.68412604333278 -7.9524074849166 C44.73406069093983 -11.12179786066891, 33.586893745529295 -9.885565699146998, -1.4287275858223438 -8.002133851913365 M58.21455638819751 -10.54923051972464 C46.035041200939524 -8.743742896982225, 34.286626859018455 -9.502574576803239, 0.4529326055198908 -10.383037570906433 M0 -9.892838621554526 C0 -9.892838621554526, 0 -9.892838621554526, 0 -9.892838621554526 M0 -9.892838621554526 C0 -9.892838621554526, 0 -9.892838621554526, 0 -9.892838621554526" stroke="#000000" stroke-width="1" fill="none"></path></g></g></svg>