<svg version="1.1" xmlns="http://www.w3.org/2000/svg" viewBox="0 0 477.30689904225346 138.70481306422533" width="477.30689904225346" height="138.70481306422533">
  <!-- svg-source:excalidraw -->
  
  <defs>
    <style>
      @font-face {
        font-family: "Virgil";
        src: url("https://excalidraw.com/FG_Virgil.woff2");
      }
      @font-face {
        font-family: "Cascadia";
        src: url("https://excalidraw.com/Cascadia.woff2");
      }
    </style>
  </defs>
  <g><g transform="translate(122.40555901574544 69.61402991528365) rotate(0 116.25598083236576 5.8353735835673035)" fill-rule="evenodd"><path d="M-16.966341959916342 -7.955377814482529 L-30.60461628089206 -24.17658239287026 L-34.8808848450549 -27.92898088958393 L-48.73815130899625 -36.222288505353546 L-66.18438625461259 -37.37007487848026 L-84.8227410859882 -34.574789860707725 L-99.23645824315112 -23.06622676243842 L-109.40600485025607 -8.888206908673421 L-111.91863950900733 11.062185142639372 L-107.16690702388244 30.19508816831609 L-99.64119716071639 46.158292089063565 L-90.38980175691827 50.86403884656774 L-80.58425754379465 53.90759566771256 L-65.9655753081003 59.147319527300354 L-49.34866008032475 54.21245394638372 L-33.71522291249094 51.48407664314036 L-29.531065769891434 44.960558822007116 L-12.24332791236036 25.20653807911456 L88.96936929462011 23.121333361773193 L226.49959728724303 22.68191597256536 L236.03266245561116 25.057741067721324 L236.6791048248266 53.64425122219093 L241.80287241425597 61.011800788746264 L330.38318711390366 8.900306160141168 L338.2190985287229 4.5307944840931 L346.96886086440986 -6.963456884603522 L343.4979787982136 -11.34828451261301 L338.758899636487 -13.433307443284692 L332.05109741215585 -17.38920955068729 L289.3156894512163 -22.168916536045774 L233.617335860553 -44.911097246435425 L235.38836052585538 -47.48349192759106 L233.02717310553476 -35.66035013786521 L230.8334866600041 -7.877008454141675 L224.9028082406753 -8.52173365190468 L184.55095564086622 -6.398307445808026 L-16.294553029023398 -8.031894681166488" stroke="none" stroke-width="0" fill="#fff" fill-rule="evenodd"></path><path d="M-16.49750137352227 -6.95143198625334 C-19.56136100638421 -10.765435623579505, -27.5940245245396 -23.9613579985924, -35.73681281382517 -29.227961399073703 C-43.87960110311074 -34.49456479955501, -55.04133489626332 -39.39566493934029, -65.35423110923567 -38.55105238914115 C-75.66712732220802 -37.706439838942, -89.77499888290244 -32.45663201667814, -97.61419009165924 -24.160286097878817 C-105.45338130041604 -15.86394017907949, -112.29090320114196 -0.3412993289273132, -112.38937836177647 11.227023123654815 C-112.48785352241097 22.795345576236944, -106.34648848592279 37.620217650437155, -98.20504105546627 45.24964861761395 C-90.06359362500974 52.879079584790745, -74.11140434441475 56.13009951536859, -63.54069377903731 57.00360892671561 C-52.96998321365988 57.87711833806262, -42.60359751433873 55.0819698032635, -34.78077766320166 50.49070508569603 C-26.95795781206459 45.89944036812856, -22.050705223482115 33.477603532743, -16.603774672214882 29.45602062131079 C-11.15684412094765 25.43443770987858, -19.45852852957751 27.202480523895055, -2.099194355598273 26.36120761710279 C15.260139818380965 25.519934710310523, 54.19846130085282 24.881361126147254, 87.55223037166054 24.40838318055719 C120.90599944246827 23.935405234967128, 173.61902645632418 23.617646538816356, 198.02342006924803 23.523339943562398 C222.4278136821719 23.42903334830844, 227.815041955582 22.769488559232453, 233.97859204920366 23.842543609033445 C240.14214214282532 24.915598658834437, 234.3689981826529 24.34429481662368, 235.0047206309781 29.961670242368356 C235.64044307930334 35.57904566811303, 235.2497750936434 53.67498801319773, 237.7929267391551 57.5467961635015 C240.3360783846668 61.41860431380526, 241.46437275323805 57.30386002952065, 250.26363050404825 53.19251914419093 C259.0628882548584 49.081178258861215, 276.1249562316331 41.225503393209195, 290.58847324401626 32.878750851523215 C305.0519902563994 24.531998309837235, 328.75348457087 10.973509839639217, 337.0447325783471 3.112003894075066 C345.33598058582425 -4.749502051489084, 348.0582108666169 -9.74089606031696, 340.33596128887916 -14.290284821861686 C332.61371171114143 -18.839673583406412, 307.4428872893993 -19.04369890224353, 290.7112351119207 -24.184328675193296 C273.9795829344421 -29.32495844814306, 249.80718968385483 -42.178282013103065, 239.94604822400728 -45.134063459560274 C230.08490676415974 -48.08984490601748, 232.87298302509635 -47.36378602722992, 231.54438635283543 -41.91901735393656 C230.21578968057452 -36.4742486806432, 232.49289384815327 -18.026385028475698, 231.97446819044174 -12.46545141980012 C231.4560425327302 -6.904517811124543, 234.624306404287 -9.503811029526776, 228.43383240656627 -8.553415701883099 C222.24335840884552 -7.603020374239422, 217.80345291833353 -7.078807357637961, 194.8316242041173 -6.763079453938056 C171.85979548990107 -6.447351550238151, 126.12642740946086 -6.547880917164559, 90.60286012126892 -6.6590482796836685 C55.07929283307697 -6.770215642202778, -0.249781351755896 -7.467816528241713, -18.309779525034415 -7.430083629052717 M-17.559853912748682 -7.990852984424312 C-20.800111963560298 -11.64288947058547, -28.76138112165023 -22.681657125768808, -36.847815524808325 -27.619823267052872 C-44.93424992796642 -32.55798940833694, -56.060502828460784 -38.28092004252607, -66.07846033169726 -37.61984983212871 C-76.09641783493373 -36.958779621731345, -89.52408476334588 -31.86116690263598, -96.95556054422717 -23.653402004668713 C-104.38703632510845 -15.445637106701447, -110.67438327189686 0.2222052619863426, -110.66731501698494 11.626739555674884 C-110.66024676207303 23.031273849363426, -104.3563804929608 36.923145919272095, -96.9131510147557 44.77380375746254 C-89.4699215365506 52.62446159565298, -76.71093941261378 57.7628224795809, -66.00793814775439 58.730686584817526 C-55.30493688289499 59.698550690054155, -41.24339202248299 55.111267171715454, -32.69514342559931 50.580988388882325 C-24.14689482871563 46.050709606049196, -19.977432679262026 35.666585580703156, -14.718446566452283 31.54901388781877 C-9.459460453642539 27.431442194934384, -18.276091444589753 26.89300996803823, -1.1412267487408538 25.87555823157601 C15.993637947108043 24.858106495113795, 55.155259536105326 25.9389749995545, 88.0907416086411 25.444303469045458 C121.02622368117687 24.949631938536417, 172.02830969743223 23.278978065974975, 196.47166568647378 22.907529048521766 C220.91502167551533 22.536080031068558, 228.46918942923017 22.132189031035995, 234.75087754289046 23.215609364326216 C241.03256565655076 24.299029697616437, 233.69347261161954 23.82945546537196, 234.16179436843552 29.40805104826309 C234.6301161252515 34.98664663115422, 234.77945082180057 52.5020618875968, 237.5608080837864 56.687182861672994 C240.34216534577226 60.872303835749186, 241.70736387055157 58.8880838696828, 250.84993794035057 54.51877689272025 C259.99251201014954 50.14946991575769, 277.75394469916256 39.05781950565299, 292.4162525025804 30.471340999897652 C307.0785603059982 21.88486249414231, 331.0645483457686 10.392987972289472, 338.8237847608576 2.9999058581881823 C346.5830211759466 -4.393176255913108, 346.84715202713187 -9.642136843129197, 338.97167099311434 -13.887151684710087 C331.0961899590968 -18.132166526290977, 307.6990601598714 -17.053068344780957, 291.57089855675264 -22.47018319129716 C275.44273695363387 -27.887298037813363, 252.24482895971857 -43.43279679322213, 242.20270137440184 -46.3898407638073 C232.1605737890851 -49.34688473439247, 233.00003189788012 -45.80764788138081, 231.31813304485215 -40.212447014808184 C229.63623419182417 -34.61724614823556, 232.83733213047913 -17.956058876702365, 232.11130825623394 -12.818635564371544 C231.38528438198875 -7.681212252040724, 232.9679786548708 -10.450603100466912, 226.96198979938103 -9.387907140823266 C220.95600094389127 -8.32521118117962, 218.66339656698477 -6.898943313523015, 196.07537512329543 -6.442459806509664 C173.4873536796061 -5.985976299496313, 127.0137008820829 -6.370083978819722, 91.43386113724499 -6.649006098743159 C55.85402139240707 -6.9279282186665965, 0.6062294918340037 -7.9283856000859325, -17.40366334573208 -8.115992526050288" stroke="#000000" stroke-width="1" fill="none"></path></g></g><g><g transform="translate(122.40852112881839 56.45874636396749) rotate(0 115.62639293106258 8.628648892485089)" fill-rule="evenodd"><path d="M-15.701330563657265 -8.59026899294149 L-29.436691671856792 -23.2877796521474 L-35.48378741020634 -30.638703315372606 L-49.749366552484815 -36.59330694115961 L-63.61530104777617 -37.05805567562207 L-83.34379991735214 -32.60563862831616 L-98.33731946842832 -24.73843211745684 L-108.43069694234691 -5.800184225857675 L-109.97571730799973 9.859749980720927 L-105.91460798705178 27.921895021282594 L-96.94759761252556 44.902082808721666 L-92.86797313901766 51.053253526911575 L-83.00242266502214 54.65902889492378 L-65.53226459448128 59.48877662974808 L-46.87286782507212 55.180407244624575 L-33.641563526005115 51.09632169991849 L-26.849930029760287 46.06387069225417 L-14.276039213359283 28.199327559949715 L85.91039869052821 23.55130324250308 L226.7328560923591 22.511150429924125 L235.3705028081945 25.71890940421826 L234.8739731986924 63.73043208868806 L328.52325831613405 10.586200006815499 L338.5758802904343 5.677891198142865 L344.2271649191898 -1.55303469502145 L329.04136997609567 -7.394803153673816 L234.17427221027268 -45.03655992376521 L235.17946314010902 -47.16919928437184 L232.2473539411095 -34.31123610354036 L229.9170375564996 -9.791683715967032 L221.61324467050366 -7.044829404948603 L184.19586045925212 -7.1978191429513725 L-17.523685834043008 -7.501525783102624" stroke="none" stroke-width="0" fill="#fff" fill-rule="evenodd"></path><path d="M-16.68733305581687 -7.1165680292357125 C-19.88008232090385 -10.962008801304615, -28.574024158418048 -24.72368494619209, -36.61874361435249 -29.70963365402355 C-44.66346307028693 -34.69558236185501, -54.52542247894097 -38.18736836990353, -64.95564979142351 -37.03226027622446 C-75.38587710390605 -35.877152182545395, -91.29129559968193 -30.81544767849597, -99.20010748924774 -22.77898509194915 C-107.10891937881355 -14.742522505402329, -112.68171480763854 -0.0083565249782378, -112.40852112881839 11.186515243056466 C-112.13532744999824 22.38138701109117, -105.66439905806422 36.75898981248712, -97.56094541632686 44.39024551625908 C-89.4574917745895 52.021501220031034, -74.4403700284412 56.227565873165965, -63.78779927839427 56.9740494656882 C-53.135228528347334 57.72053305821044, -41.40504027680301 53.43838288976718, -33.64552091604527 48.86914707139252 C-25.88600155528754 44.299911253017854, -22.43460660124943 33.374197326224525, -17.230683113847864 29.558634555440214 C-12.026759626446296 25.7430717846559, -19.779523379825605 26.86006419793843, -2.42197999163586 25.975770446686635 C14.935563396553883 25.09147669543484, 53.419991050633705 24.54391279964896, 86.9145772152906 24.25287204792944 C120.4091633799475 23.96183129620992, 174.81436607272425 24.220030022387117, 198.54553699630554 24.22952593636951 C222.27670791988683 24.2390218503519, 223.3722855107399 23.22069414477782, 229.3016027567783 24.309847531823788 C235.23092000281667 25.399000918869756, 232.9994786838694 24.598760374419296, 234.12144047253574 30.76444625864532 C235.24340226120208 36.930132142871344, 234.5372597422225 56.75863108012271, 236.0333734887763 61.30396283717993 C237.52948723533012 65.84929459423715, 233.92378191937638 63.02804071182872, 243.0981229518586 58.036436800988646 C252.27246398434085 53.04483289014857, 275.2365101362079 39.86474651038074, 291.0794196836697 31.354339372139467 C306.92232923113147 22.843932233898197, 330.440428148475 12.846173257294458, 338.1555802366292 6.9739939715410255 C345.8707323247834 1.101814685787593, 345.3841155013247 1.383528583898003, 337.3703322125947 -3.8787363423811243 C329.3565489238647 -9.14100126866025, 306.4017708364251 -17.6605521153331, 290.0728805042491 -24.599595586133738 C273.7439901720731 -31.538639056934375, 248.9365727032127 -42.93055458696156, 239.39699021953857 -45.51299716718495 C229.85740773586443 -48.095439747408335, 233.92357030146556 -45.2653684031438, 232.8353856022042 -40.09425106747405 C231.74720090294286 -34.92313373180429, 233.61002611029375 -19.734959243798468, 232.86788202397048 -14.486293153166407 C232.12573793764722 -9.237627062534347, 234.43835856064584 -9.792171426299433, 228.38252108426454 -8.602254523681694 C222.32668360788324 -7.412337621063956, 219.55874030704575 -7.601266832589021, 196.53285716568263 -7.346791737459978 C173.5069740243195 -7.092316642330935, 125.68511204834851 -7.281677171710041, 90.22722223608581 -7.075403952907435 C54.76933242382311 -6.8691307341048295, 1.8712154848169895 -6.029518318485133, -16.21448170789359 -6.109152424644343 M-17.84934722824795 -8.242685449972413 C-20.676161968202745 -11.942663566616243, -26.59588056331487 -23.23420572085831, -34.532759995612494 -28.354373455851366 C-42.46963942791012 -33.47454119084442, -54.663736392044164 -40.09826777413498, -65.47062382203369 -38.96369185993075 C-76.2775112520232 -37.829115945726514, -91.8364372564346 -29.968360786908146, -99.37408457554963 -21.54691797062595 C-106.91173189466465 -13.125475154343757, -110.66037097180413 0.7299430380087024, -110.69650773672387 11.564965037762423 C-110.73264450164362 22.399987037516144, -106.97619411547645 35.60977346639832, -99.5909051650681 43.46321402789638 C-92.20561621465974 51.31665458939443, -77.21261208075414 57.911458675221894, -66.38477403427376 58.685608406750745 C-55.55693598779338 59.4597581382796, -43.07559223524102 53.2147971286336, -34.62387688618582 48.108112417069506 C-26.17216153713062 43.001427705505414, -21.17288228035719 31.848891115762523, -15.67448193994258 28.045500137366172 C-10.176081599527972 24.24210915896982, -18.765608591218097 25.7608250709544, -1.633474843698175 25.287766546691397 C15.498658903821749 24.814708022428395, 53.96809240452118 25.424366301644614, 87.11832054517696 25.207148991788152 C120.26854868583274 24.98993168193169, 173.55536090488607 24.271573305309474, 197.26789400023648 23.984462687552632 C220.9804270955869 23.69735206979579, 223.35809545585016 22.302554560769217, 229.39351911727948 23.484485285247093 C235.4289427787088 24.66641600972497, 232.2336190045318 24.846179069567377, 233.4804359688125 31.07604703441989 C234.72725293309318 37.3059149992724, 235.13509323522055 56.16917158821043, 236.87442090296366 60.86369307436216 C238.61374857070678 65.55821456051389, 234.53464782192316 64.08602254808437, 243.9164019752712 59.24317595133025 C253.29815612861927 54.40032935457614, 277.63772803219626 40.38380376522788, 293.16494582305194 31.80661349383746 C308.6921636139076 23.229423222447043, 329.90317687472754 13.599938190101993, 337.0797087204052 7.780034322987744 C344.2562405660829 1.9601304558734949, 343.97118705384344 2.0344402167301423, 336.22413689711817 -3.112809708848034 C328.4770867403929 -8.26005963442621, 306.407199276642 -16.404314403966833, 290.5974077800535 -23.103465230481316 C274.787616283465 -29.8026160569958, 250.91713806423937 -40.310012468356334, 241.36538791758704 -43.307714667934924 C231.81363777093472 -46.305416867513514, 234.60217749434327 -46.26756100464948, 233.28690690013963 -41.08967842795284 C231.971636305936 -35.9117958512562, 234.5409588302434 -17.511634555069566, 233.4737643523653 -12.240419207755112 C232.4065698744872 -6.969203860440657, 233.29440819331808 -10.280352705545196, 226.88374003287095 -9.462386344066108 C220.47307187242382 -8.644419982587019, 217.68020983477086 -7.695694012823364, 195.0097553896825 -7.3326210388805775 C172.33930094459416 -6.969548064937791, 126.34069495638656 -7.489123267001566, 90.86101336234076 -7.2839485004093865 C55.38133176829495 -7.078773733817207, 0.18074966760765676 -6.344980830207131, -17.868334174592327 -6.1015724393275" stroke="#000000" stroke-width="1" fill="none"></path></g></g></svg>