<svg version="1.1" xmlns="http://www.w3.org/2000/svg" viewBox="0 0 343.5 343.5" width="343.5" height="343.5">
  <!-- svg-source:excalidraw -->
  
  <defs>
    <style>
      @font-face {
        font-family: "Virgil";
        src: url("https://excalidraw.com/FG_Virgil.woff2");
      }
      @font-face {
        font-family: "Cascadia";
        src: url("https://excalidraw.com/Cascadia.woff2");
      }
    </style>
  </defs>
  <g transform="translate(10 10) rotate(0 161.75 161.75)"><path d="M50.74590782330873 45.43775766259579 C50.74590782330873 45.43775766259579, 50.74590782330873 45.43775766259579, 50.74590782330873 45.43775766259579 M50.74590782330873 45.43775766259579 C50.74590782330873 45.43775766259579, 50.74590782330873 45.43775766259579, 50.74590782330873 45.43775766259579 M22.141885103856403 84.56151643073217 C39.77201327588226 64.86174291943023, 54.435925514361315 48.50472272449738, 63.84126761858258 36.36841803180787 M21.455929237616438 84.78589716138349 C34.25112738489641 71.38575705088516, 45.52595434493486 58.50715857194194, 64.07395895221177 34.611783646482856 M19.458769573689004 93.97238791257777 C43.289649350899445 69.44886152406468, 64.5567324966642 39.16503673713758, 79.25672679040817 23.435985949422694 M17.242119848587116 96.07350751933345 C43.653525483340324 65.98427947590758, 67.43764648291041 38.34336555745354, 80.14047265537319 24.732633675980843 M13.221235479678839 104.04476413990676 C42.34976770513913 73.87564256784437, 68.77084103427308 42.53672105549255, 89.75110750734471 16.025947822228524 M13.977745693627625 105.54930166176825 C34.75917605512369 82.58126101332577, 54.16712167871782 60.54722055786857, 91.68249241444879 17.906798643030676 M11.157073890491638 116.36141865778569 C34.4503174432615 87.89686692786006, 60.8392651874598 60.313886318003355, 99.48326855002945 11.650307829623571 M9.425662538669322 115.40405484273884 C47.81346443346234 73.2632160492904, 83.94663603042825 32.477949328284836, 100.05898076984143 11.854870373514942 M1.4731644128216246 130.72823812694938 C39.0202737595955 88.09799500864062, 74.21061760809347 47.5477325365447, 106.84153917914712 13.491102427119898 M2.6412912501720527 131.3788038694644 C27.52136363932464 101.61431785629523, 52.20268459360594 71.97841600179646, 106.57809730450147 10.888371406930077 M4.5073328581731715 136.2534019786772 C42.07378854038186 95.17270323535567, 77.98283589999109 51.44199618071319, 112.84710457028754 9.517256643001843 M2.280725461905817 137.6877767572087 C34.11825823869398 101.04981120174654, 65.6993290266701 65.25807951660629, 112.55683407878436 9.870361293044795 M0.45607688030695215 145.25623268526346 C45.26522644310585 94.79372764157195, 85.24221299637124 49.92020197006056, 117.90744329211643 10.506856522335944 M1.9847072123969127 143.77099299975038 C31.2932645791838 109.59741898493037, 61.94298652008098 75.08168947868094, 118.73070310862144 10.081459035910008 M2.867309076879181 149.02573171155183 C48.46166956982314 97.02665390723733, 97.083929503178 43.689160731012834, 126.28335856729002 9.69226290496595 M2.527620046567179 149.89654952091752 C41.76045516246688 106.39987655138593, 81.94832144853963 60.605146149919534, 125.37701762643458 7.708706871853842 M1.9862076705461646 156.5598848973861 C44.23651636955116 109.28248192866064, 84.51359237494083 63.37630541883381, 129.9954192434646 7.952321005735584 M0.8195896968385483 156.74367605703827 C26.156324522658505 125.79998834355837, 52.07579373805475 96.9648514040809, 130.87758305214567 6.881529849704393 M1.3441784556031404 163.00280146952846 C42.84743354706495 117.89399209198329, 80.42701185149382 72.42114348892977, 139.23058547532113 4.4505678285759425 M1.173515914557084 163.606445835334 C35.74176919907766 123.05917419880195, 69.98060131340775 84.64174037526563, 137.94583334582802 6.847265866435063 M0.9882194147615306 167.500133310491 C39.29465410974023 128.42083976165776, 76.2160079382128 85.54901748105272, 144.42159949720931 3.418752489204221 M1.9394187389352318 169.22154889922078 C49.12436412819141 114.58720194310844, 94.97120733598283 60.8738166169295, 145.39559267055824 4.038016015301453 M2.7734588522899197 175.682872530916 C59.49688772523446 108.28741895121294, 114.12250730488289 43.16015911277218, 152.34614046987323 -0.8818243160325319 M2.4416121798737893 174.77317073188289 C38.48584343101858 131.39225198492207, 77.41172127380538 86.70421708210621, 153.97558268357844 0.9471758483579164 M2.74171145814203 180.12260870499367 C58.26339044703274 115.89442149459883, 115.72962751233771 49.770537924224264, 158.88847153336673 0.11991521864922594 M1.3516556717561 182.17238726975071 C55.37122621558404 118.94726733896529, 108.19268961139892 57.87077160206324, 158.2684228747065 1.7126554293542446 M4.086481449345155 186.15601879610603 C51.187075511556074 131.88677387918077, 98.74500548231923 77.54264360140488, 161.69698750510676 2.3204871200267507 M3.2397473378844763 185.6683164777048 C35.4650770341755 146.14628331050363, 70.22614669587195 108.25899004615114, 163.39469704239568 1.7863775930805563 M3.079541622261556 189.89134998822072 C55.03701527116601 131.97797832255333, 104.19819375556028 71.92590547189545, 169.38078315438815 2.3784840206571074 M4.3870662318420965 191.03645505051676 C57.31480554360571 131.11075409760554, 109.86928371982452 71.0385980589002, 168.18294674906045 2.5710984466172366 M4.0560168272572 193.8658726573475 C52.564153130086574 140.80504002667791, 96.77650829461568 88.87864696030735, 173.1234698453694 3.2603247974923386 M5.128614842097963 196.01304703582127 C72.01639673056482 119.42290755406736, 139.7240273356991 42.54891287556621, 172.988161592445 2.8596478837165558 M8.30672502703336 198.52217239695088 C55.10436060724894 141.85924413960643, 106.4163767347814 83.76984188745669, 176.2159597305712 1.6952878131620441 M6.665972650157899 199.19798424152418 C73.47046294074335 125.77873293340221, 139.072145600849 50.43225679144548, 176.77605940543467 2.6157571470377916 M9.552534649217845 205.37576638995733 C60.38268395463658 145.55528416475715, 113.49325171004472 84.35793702727123, 182.13765206262073 4.335570615828641 M8.45414960838358 204.53582347912376 C46.290048984275934 160.42056929343116, 84.52193402672809 116.00872145017581, 183.03101361644454 3.5908672438676428 M10.873633897293548 209.85930579603664 C47.84696360046242 165.28601910446673, 83.44455594514051 121.38081289640606, 188.09896726310285 2.7586043254393156 M10.445503203188352 208.3282362440846 C48.471808011004526 163.85279673371443, 88.14220212301007 118.27103285770212, 187.338480960832 3.4152466084576787 M10.232397806659305 214.0525859155577 C73.08138329934745 141.3582492127382, 136.47220740726195 68.52030471259465, 192.94198998019363 4.728780252500353 M10.446685864339264 213.4742757848413 C57.787806550870826 155.93856042611094, 106.02446444282252 100.78699908134628, 192.82962380269868 3.7194775944595952 M13.28018506996822 216.9620114252198 C68.76393345254004 150.19093796386846, 128.3677370045499 82.22159567387658, 197.47984634602426 6.121876903763069 M11.909319388576733 218.8541305768097 C80.50674047658606 141.26755196740945, 147.86378588991082 62.87598339093262, 196.94542643732873 4.009757061395798 M13.386302356693433 223.1693776825442 C74.42109364031276 155.55978782732637, 131.62131652375768 87.60003764115169, 202.63954270586873 6.284417776863924 M13.61527836455727 221.91079247780726 C61.81951260355997 166.88019765865548, 108.97053072109091 113.60387220207836, 201.82441796459267 6.528394839773892 M13.12858879581109 228.73299545609433 C79.8110654787949 151.0410342725258, 147.9134591088798 75.418870132947, 205.18259789225726 6.664038338620915 M14.099273612596253 227.91095289271837 C77.04350228015888 156.05858361866987, 139.03152654816827 84.92386627534441, 205.79171598069667 7.388286997461636 M18.246658481479113 230.02792871929063 C81.1016021529307 159.04261126932758, 147.9601047495187 84.3474024994809, 208.71925177485463 9.543742796783425 M16.88322994234257 229.76911925923542 C72.86885915079621 166.49733107589046, 128.58189182098837 101.74771979927108, 209.66115804794362 9.618404674833629 M18.574264364373462 232.9442162762968 C94.96548856807313 147.41334996354874, 169.31223765359024 60.39837242001393, 213.73944199529433 10.973275243260474 M19.95972137465827 233.13322453436712 C69.43564966384317 175.48420570577326, 120.20402618084513 118.09964011077817, 213.285874557581 11.311118183582028 M20.20910156229434 238.20129905815674 C66.5286823471307 185.51699641178286, 115.30302479844764 132.8226302792199, 217.91466554055245 13.029568817350231 M21.60328448317292 237.034281588264 C63.10396387049319 189.72316779288914, 103.30506844846468 142.64921057642442, 217.05028531120877 12.592037369619797 M25.136930322339637 241.74942556938166 C102.34636256455616 152.47420244025992, 177.02233836272353 65.20630174956703, 219.88201158990242 15.238081793068957 M23.69696851388174 240.82464149818847 C79.0519223105473 176.38662915094838, 135.28120172282658 113.9209835152925, 220.1437681611697 14.367325434987933 M25.64094562728786 244.79115388834202 C83.71064234489084 180.40777258150715, 139.2594681592701 116.97185145775532, 224.93610297943428 14.873843485785146 M26.355142086271062 243.7387334665172 C75.37592195526835 191.74120229303244, 121.21124296534379 137.44417312006976, 224.62915182897535 16.230979683059925 M29.276949100379653 246.64504746501484 C83.518404263804 185.91253710976798, 137.97233874558373 121.95682231394389, 228.19616804347257 19.008373680485644 M29.25218357091049 247.2158872589232 C100.42710206656778 164.92964643449506, 172.22836416555705 80.9396459261653, 227.87823065191895 18.210561995988304 M32.25652313490154 251.62892783434944 C77.65043268760702 196.07020479566427, 126.43308334528936 144.23082199299017, 232.44996723267334 18.52182880939006 M30.427599938074085 251.4510697760958 C93.83885525677925 178.3781425931038, 157.01648665202913 106.71731272119617, 232.81082246710116 18.746806674228786 M32.428576111731296 254.18747272708217 C80.95756751132045 197.23469083697572, 131.65377490275637 138.57244371157378, 237.1304233093342 20.582022107531543 M33.01620704595422 255.66321860182686 C78.47309880504612 200.09340206960394, 126.34415983952742 143.88018961931354, 235.96146257255504 20.809537040390946 M35.0868231349882 259.3228675246828 C90.96346390736473 192.2369537238449, 147.58499681847843 127.31616867974456, 241.26967445158178 22.61580074128276 M35.73174917600858 258.1877032192101 C115.94531487721866 164.82206155209056, 196.445496262533 73.927385528464, 240.25938031889595 22.50910986336359 M36.515253931712465 262.9592249647356 C93.00938183665778 200.19853386445334, 145.70186553679207 139.12166675671864, 244.16885007038815 24.372780943935684 M37.77998188775807 261.86526164209226 C96.27784083254187 192.66151913578605, 156.25615510299627 124.17281497360666, 243.21338015669 24.648060020041008 M38.49346669796475 266.4642254928571 C109.12533681010741 183.68246926488507, 179.6141620382552 105.1370501826058, 248.49768288460388 25.265261172888415 M39.452124025690125 265.52288252434727 C106.62591687131307 188.49598334316374, 173.39421381739976 112.91114124011919, 248.38570965611794 25.826560127340226 M40.87471666079144 267.7364570634632 C114.46805314232839 183.65766587610756, 186.79697545260865 98.0354936906717, 252.38149286891831 27.67864441719917 M41.610471647618645 268.5212997992299 C99.64114018599375 201.50931551872762, 156.95749060206575 137.06785526157248, 250.84663031190155 28.503785061135893 M44.18413694070165 273.5062073527776 C111.3576155512208 196.03938838761076, 177.47055795668692 119.94312103201304, 254.5304024242622 29.305058003860267 M44.47324690946531 273.0855863434763 C120.85082519167673 183.97242489740455, 197.600123991259 94.78675749104725, 254.7394037905669 30.49533569839731 M46.29401689309451 274.83371609068024 C110.18870838914636 201.10140625249372, 172.03106372910037 129.9981723387077, 256.77196449154764 32.61001472140157 M46.877655967327684 275.815295600238 C128.21138169346716 183.3638726478565, 208.87153620483258 90.24179001860085, 257.99600266715487 32.94519265791783 M51.55212450775821 275.8759899236085 C107.26868793542351 214.78113036381689, 163.6993101481129 150.0405349074507, 261.7173325295243 36.856422675888815 M50.26666482241288 276.72821861912576 C113.44946899369731 204.73797285664563, 176.42132127720836 131.39713204910723, 261.0175683334806 35.71216344999753 M54.95994409438147 279.3415121971076 C132.21284711826624 188.7670020510691, 211.9078530161813 97.38606648627395, 262.63580926003414 37.642881497823154 M53.8208635932254 279.28737289239467 C134.15603718257267 185.16748558220976, 217.5713246865606 89.7399048342266, 263.96622148806887 38.22495696061496 M56.37424220907709 283.75790305136 C106.55199144145382 224.96637177484598, 155.01212404272738 167.07299360600706, 267.6263124291388 39.811829730222726 M56.52886880352347 281.986215572644 C120.55848700274646 209.24754347056447, 183.5964006746602 137.12982789589617, 266.9277146200455 40.37351098581788 M59.68510591876216 285.4059392428413 C102.74207502573014 235.7145337112283, 143.27015602843252 184.6613143543125, 268.5653685947876 44.514778527946305 M60.31973117071659 285.0594587351124 C126.84865377374015 208.26770463741084, 192.79274700817777 132.3829356931347, 268.70322690366254 44.86360302989347 M62.664895351409335 289.06875333684746 C107.09889863669501 235.86931972356587, 150.60535306674626 183.88442452801468, 270.7235691009501 47.898717479955735 M63.166113260337866 287.12558242595117 C117.46956803795018 227.1989091831458, 169.27361677967437 167.04717237766087, 272.39188515077666 46.68821465705045 M64.35844714625591 290.1298555581807 C125.00711806477317 223.08670598612042, 184.28341955428166 154.8348808861698, 275.22942940910696 48.731262499965965 M66.24749284621541 290.2893311025283 C138.17815935743167 209.7150801345438, 208.09970043003116 128.68446027468661, 275.2971700105777 49.06626809453078 M68.29105763879994 291.70266313306155 C145.57274775449517 200.36575804193208, 222.66216030393807 110.1866585497413, 277.8643361969436 52.717183347010184 M69.1945362438033 293.3273364497804 C121.31807701154355 230.2214466718236, 175.77488604642375 168.14808916770252, 278.71816223992596 52.910102548364705 M73.03964981922697 295.11775370802326 C130.59794031209108 229.35198155468115, 186.25312420984937 164.50209016732654, 280.0295263468332 53.91181145043413 M71.6454467537119 295.39239422998764 C132.0547564442298 226.73777514229593, 191.68063276372837 158.98904418020288, 281.13305460583814 54.969585876926295 M76.0914964240325 296.66670867678846 C122.40829553133119 239.889516617583, 174.14157524163537 184.42772305429756, 284.93301195214747 56.07342435631166 M74.75546343221413 296.8578806118402 C139.90382971369067 223.02985582286885, 205.12829295303672 150.29661592264858, 283.96534720284484 57.14979956993396 M78.62373888810704 300.76178040086893 C142.53586617736872 227.02745944929075, 208.682679627112 152.47933788212777, 286.7473533862606 58.95159401388142 M78.73504429254693 300.43713411890764 C150.95605201799475 215.2551599296554, 225.5507269713212 130.1967772811508, 286.8267151039091 59.695013023861534 M81.42785694027809 301.6500643329083 C149.40074371314105 225.54031997741313, 217.8446972315047 147.3091059013652, 288.61078466815866 63.53928647921766 M82.01105124933787 302.62372815722944 C128.1328821757998 248.60676226975838, 174.32100115421406 195.48111111679344, 289.82306313565863 62.83640716853838 M84.72423925948645 304.2834028403498 C143.2262876915859 239.14910157450714, 201.2626718106934 173.41568061993217, 290.2827332863091 68.07389516206703 M85.0340355396663 303.8874802023034 C126.25210832355029 255.00357115071225, 167.76654745926567 208.51856759292085, 291.5037184284896 68.3079525559662 M90.75773271436317 305.67608761483734 C146.50494729223158 238.95031004399158, 205.4105141840326 169.74685702744986, 293.43266217253904 71.80070393270066 M89.08419201459064 305.4329768948236 C153.35456545243926 231.47393579287484, 216.30227951405914 157.8181468576154, 293.8899316634779 71.00596024166505 M93.5562192742128 308.64778611701496 C167.15094579378007 223.35200642653922, 237.91642970716435 141.55702385728154, 295.88700197460486 73.3830518130214 M92.96051304567989 308.00979820525924 C140.53104137016464 254.2318879225933, 187.68780226803713 200.53889896315943, 295.8241361200588 74.29075982118216 M97.53570632615519 309.0743452488208 C175.9254276603395 221.91922455164962, 251.36533750202867 134.31273160903314, 298.2910439855798 78.99933912831989 M97.75503498292444 308.97209615708783 C159.2013336652376 235.85237626617752, 220.99061277741433 164.49469232213454, 297.9542925078762 78.72187889779013 M99.78969003097758 309.3852343307838 C154.56903801824646 249.70854845370275, 209.08187427768718 189.14528354361636, 300.74522368041954 83.1606583005613 M101.75629533103576 310.6886750394469 C162.6013244711927 238.3312182000548, 224.69820519196918 166.09181646389922, 299.8168765104716 81.36303854437138 M104.40213763222407 312.9799073203033 C179.11980025062073 226.80148564037864, 252.25153336726737 140.5481402405733, 303.61039057551085 86.45132241862058 M105.12008037507772 311.853019609062 C153.24313539965385 256.4334014853052, 202.1791115395829 200.760255400318, 301.8318796299077 85.61122320757603 M111.03678820949285 313.7195302836747 C154.08910968671677 263.43623663464666, 193.55280894026282 214.69610232045684, 304.0462337165844 90.75768872368855 M109.83803532815043 312.20511260355795 C162.48994164820303 252.31043892798388, 216.18403021268495 191.81295937948127, 303.8304206282192 88.93795144493566 M114.25144732458747 314.3900558169656 C165.33925622614018 253.36544646382293, 219.07234700682912 193.70501419493465, 305.7291561364646 92.9040963239569 M113.82507707313731 314.9046600660874 C184.09241671733693 235.33769159812832, 252.51241861102287 155.51026918664255, 305.68444694573935 93.27485002655683 M119.21154379794658 314.6162409541838 C186.62051973736402 238.2486346193399, 256.04711926158893 156.35813749605575, 309.50403167084846 95.42964932924882 M117.40073350619201 316.34814046977374 C192.4662284812417 231.00285688055078, 267.005255332705 146.5053952985055, 308.7013002799855 96.50131778393624 M122.72112902797024 316.42092902747737 C197.02798695869353 233.0689361799014, 270.182658075753 146.72284741164555, 311.2251404007777 100.21934329152526 M121.13743859907197 317.5509060792633 C159.15033005175502 273.45840186261097, 197.19881962693594 230.20165910751146, 310.3435154180319 99.98142756758479 M126.299781630809 320.0220802771881 C189.025923549454 245.19343893476128, 253.01626734811254 168.74393442053034, 313.7390848382193 102.77654421426054 M125.30602406203 319.12849934656964 C184.31985498427113 252.69115041560795, 240.9074704967289 187.71756426520045, 313.7113420540322 102.83829271815904 M128.38306717100392 321.09627262740617 C178.46383280645844 265.2208173059513, 223.9363751444779 211.52730042070618, 315.01152424219913 109.12989524865105 M130.03307162025533 320.00829524239776 C188.1390872535349 251.78075722011963, 250.12930376420886 180.54663731563622, 313.8346106994129 107.43413781577642 M135.24858523996744 320.947370805475 C198.85894564844634 246.01347947284458, 264.28314537085475 173.12958133974973, 315.9913651981619 111.9484996545948 M133.78019440477243 320.6747171064385 C194.01854528093307 255.05800650385353, 253.13737412682087 187.80576361650827, 315.1511864533557 112.02526031613816 M139.55984621419998 322.3707404229001 C193.30903469255918 261.9191179240813, 246.90150718214664 197.08927346686983, 315.93500388217143 118.32997822243064 M139.9529261611583 321.8538488482809 C176.6483683491633 280.3987684627799, 214.12666828937537 236.91332849624092, 317.54126374988635 116.28501268976046 M145.34879472128054 323.0277809491437 C192.0431118018168 268.12285773962407, 237.95209728401133 214.1542549388197, 318.50213825209744 123.19616004363522 M144.7478788518112 321.61432579512905 C196.31221878072168 263.8805867844387, 247.0695836733408 205.62626450294155, 318.01950741725074 122.26962716048648 M148.53787553647243 323.4834183152817 C186.01088650398785 282.07761729780077, 222.46491005584173 243.28836854890432, 318.9087445968613 125.0528264685251 M149.11612776656327 321.83945543019115 C202.19827792080534 260.90698280063634, 254.7783835563821 200.73801307199025, 319.6027036998382 126.12450546421559 M154.74402178330553 322.8776056341175 C208.38540064467963 259.15553456384305, 261.9378911180832 195.66198239036686, 321.2324904736618 132.22700025000307 M154.3704777576755 323.0148460468837 C209.11690484179408 259.45407754389845, 264.9888451136397 196.5384899797392, 320.8453077086952 130.08176214700197 M160.63040272596763 322.4870977157788 C217.73409403373753 257.5593091417368, 272.4341535744216 193.82085659359754, 322.6797225571181 134.8942638912669 M159.91924033998419 322.7311055092589 C193.71253463019852 281.97084003013845, 228.62865408223502 241.75206833479342, 321.98366838183546 136.29548162469524 M166.117359949254 323.7913258312896 C198.7755313228179 283.89106332320034, 232.8689352316654 245.94662987791727, 324.33648938651214 139.52377349792843 M165.65440347510435 322.4571861529428 C213.78073281332087 264.2666505554452, 264.2827395419519 208.08385632943828, 323.465133584264 140.75298877747446 M169.01296185225905 321.82939462776017 C221.20542720941694 264.5139134201706, 268.55266407869846 210.28630726368445, 324.079127955039 144.84638038145897 M170.33285774872994 322.6790131735253 C218.9051360961811 266.25651745985954, 266.77776530300946 210.4609684749162, 325.0789367252306 145.5240143022769 M174.55353422797347 322.65226837821353 C206.70846917117458 287.3556675633538, 237.8214100540987 247.86590122373522, 324.37915435377334 151.13492961308546 M175.76160922017365 322.661973673361 C230.88163133462464 260.3509497520855, 283.9809483460527 198.0957686844512, 325.94662684451924 150.07639760744493 M179.13179161589926 324.14912056148626 C214.36791560803343 285.21485089253207, 250.13870019153717 245.36304073311737, 325.9262991442338 157.78213979562193 M179.45609883410302 324.53407287507434 C222.9565985667703 272.6422373166927, 266.83731910906727 223.3535755315371, 324.428483280958 157.9252692121823 M187.8158585699453 322.0104814165458 C221.95384981924454 282.6032641040527, 254.7433448439509 243.1274158285882, 324.1956958991538 162.90422363135144 M186.88326209018314 321.4527908160062 C237.63511112770686 261.60049716032177, 289.2238468133496 203.23425846710745, 324.07374236644085 164.2030420427708 M193.96715992572615 322.3730967892392 C224.72326038783157 282.9177772987979, 255.45273938577736 246.7136209348317, 324.4929323207251 171.35608358308045 M193.44094051255848 320.3020317721732 C229.1037970849619 279.63501224186024, 264.76106206669226 237.8871869219137, 324.2231799604467 170.96373258481006 M199.58484485215976 320.61208916340246 C228.50638389202533 283.88276001621995, 258.5051775591471 252.39590001891787, 321.2293889867356 176.94358884741715 M199.10051790933593 319.66623211443647 C233.61649906949816 278.8021019653184, 267.70217652532426 237.174885018614, 322.4364829864567 176.57804938511154 M205.24220276954526 316.31527775733616 C247.67699357666487 266.63565665657495, 292.4751509895851 219.2891480976919, 324.48525428572486 183.9975746443354 M206.30970912850404 317.9147310566425 C236.10374119432248 282.536063357388, 266.3517662339185 248.14265145739301, 322.29238505555134 184.00696493795593 M214.34934568332855 315.2099294852805 C250.0390933637566 274.37320575343904, 290.2404181005965 231.8870013798408, 320.8705467770371 191.0116590443036 M211.99329109510754 316.0989014687356 C234.63332212981084 291.8686750928695, 256.8355486307383 266.3858890545166, 322.45286328089713 191.0116168730861 M220.58718966217526 314.175692892302 C250.70657131241728 278.5130473462208, 281.92178551745883 244.20964525380396, 319.6851321833285 199.80414038716543 M219.81255707507768 313.88608110476673 C247.29279449784235 284.12710861583685, 271.9071386663664 253.21922557339184, 320.613199644916 198.54857867683012 M225.23997542874176 312.79649131824436 C252.05178991068328 281.40890811346816, 281.9871505813069 248.71847272247612, 313.6144057362934 208.60863970865583 M227.09560155083645 311.72503095106396 C252.5931620702035 283.08639940349826, 278.1964171928566 252.74582254601236, 314.8239322015678 209.6606449689073 M238.3501815626082 304.5150558361692 C252.7854626476667 289.00211016055084, 269.8268932128225 271.0516205336461, 309.16450052454996 221.45508577772733 M238.64848342422965 303.84421816467324 C255.6209479667089 286.72506672008956, 270.3209926818314 267.99091867032604, 309.58231342423636 223.70156653975454 M250.1916668334975 296.4287455974797 C269.7437719699577 275.7522701806565, 285.67384824445617 255.77973243102824, 304.66419720373557 236.15431089877825 M251.88461834974578 294.8913864184821 C265.2839064919421 280.198073960813, 280.814785325793 264.63813025318257, 304.4904699158247 234.16439615275453" stroke="#ffff" stroke-width="0.5" fill="none"></path><path d="M104.13263329007128 9.684338119753505 C117.93327371091655 1.6734479717376747, 136.57511331240573 1.0316898515486863, 153.0110339017716 0.29542440372708256 C169.4469544911375 -0.4408410440945213, 186.71792623125125 1.0044426895105927, 202.74815682626664 5.266745432823882 C218.77838742128202 9.52904817613717, 235.33921400822965 16.895493702057728, 249.1924174718639 25.86924086360682 C263.04562093549816 34.84298802515591, 275.6112328944819 46.57646560895476, 285.8673776080721 59.10922840211845 C296.12352232166234 71.64199119528213, 304.39889570892217 86.0263862217298, 310.7292857534052 101.06581762258891 C317.0596757978882 116.10524902344802, 322.30608664776537 133.08550045167803, 323.84971787497017 149.34581680727317 C325.39334910217497 165.6061331628683, 323.9572137518218 182.64237656060214, 319.99107311663386 198.62771575615966 C316.0249324814459 214.61305495171717, 308.8215339269666 231.2196541946835, 300.0528740638423 245.25785198061828 C291.284214200718 259.2960497665531, 279.899573877084 271.9175676750387, 267.37911393788806 282.8569024717684 C254.85865399869215 293.79623726849815, 239.93742514814807 304.3387190482087, 224.9301144286668 310.89386076099663 C209.92280370918553 317.44900247378456, 193.5145641920879 320.7860261426049, 177.33524962100037 322.1877527484959 C161.15593504991284 323.58947935438687, 144.0295490578457 322.6981615788338, 127.85422700214163 319.30422039634254 C111.67890494643753 315.9102792138513, 94.61766130567533 309.96258470370014, 80.28331728677577 301.8241056535486 C65.94897326787621 293.68562660339705, 52.70770378589498 282.75791539073316, 41.848162888744255 270.4733460954332 C30.988621991593533 258.18877680013327, 21.927782562593546 242.92379837052607, 15.126071903871434 228.11668988174898 C8.324361245149323 213.3095813929719, 3.0684120957690717 197.8696492950809, 1.0378989364115796 181.63069516277076 C-0.9926142229459125 165.39174103046062, -0.1941714844360689 147.0458324137664, 2.9429929477264807 130.68296508788808 C6.08015737988903 114.32009776200977, 11.879495401689422 97.67740431933429, 19.860885529386877 83.45349120750093 C27.842275657084333 69.22957809566758, 39.072953457105356 56.4672916926931, 50.83133371391122 45.33948641688795 C62.589713970717085 34.2116811410828, 78.79312185327946 23.34423518720935, 90.41116707022205 16.686659552670022 C102.02921228716464 10.029083918130695, 112.93474104396459 7.395453134308013, 120.53960501556676 5.394032609651987 C128.14446898716892 3.3926120849959602, 135.46869009068843 2.149556857012025, 136.04035089983506 4.678136404733863 M137.23516978841388 0.8646606205702199 C151.98860051862155 -3.993212566244428, 170.97588864721016 -0.6634400906298858, 187.13428302410884 2.264748921306875 C203.29267740100752 5.192937933243636, 219.3739155881306 10.794842279397642, 234.18553604980593 18.433794692190787 C248.99715651148128 26.072747104983932, 264.20897896098506 36.58086879547269, 276.0040057941609 48.098463398065746 C287.7990326273367 59.6160580006588, 297.4966955146795 73.16056124908002, 304.95569704886077 87.53936230774912 C312.414698583042 101.91816336641821, 318.1702683891797 118.30743808947108, 320.7580149992483 134.37126975008033 C323.3457616093169 150.43510141068958, 322.6198362056141 167.45460154979594, 320.4821767092724 183.92235227140466 C318.34451721293067 200.3901029930134, 314.61479923275124 218.1236700805593, 307.9320580211979 233.17777407973273 C301.2493168096446 248.23187807890616, 291.5912391689038 262.39133009161185, 280.3857294399523 274.24697626644524 C269.18021971100075 286.10262244127864, 255.29938535437964 296.8506015452035, 240.6989996474888 304.31165112873316 C226.09861394059794 311.7727007122628, 209.31939674282387 316.0244149170943, 192.78341519860723 319.01327376762316 C176.2474336543906 322.002132618152, 157.96625865049634 323.69363459256704, 141.48311038218898 322.2448042319064 C124.99996211388161 320.7959738712458, 108.61514397681356 317.1098041437794, 93.884525588763 310.3202916036596 C79.15390720071244 303.5307790635398, 64.9861563558794 292.57385759112356, 53.0994000538856 281.5077289911877 C41.212643751891804 270.4416003912519, 30.931237487997365 257.87479402188836, 22.563987776800218 243.9235200040444 C14.196738065603071 229.97224598620045, 6.765814979496293 214.09563735711734, 2.895901786702723 197.80008488412403 C-0.9740114060908476 181.50453241113073, -2.3164900181344166 162.80663081036414, -0.6554913799612052 146.15020516608453 C1.0055072582120061 129.49377952180492, 6.284320822188318 112.6763451455832, 12.861893615741991 97.86153101844644 C19.439466409295665 83.04671689130969, 28.23590163216182 69.53919030299377, 38.80994538136083 57.26132040326398 C49.38398913055985 44.98345050353419, 62.07489105941372 32.96196815982306, 76.30615611093607 24.194311620067708 C90.53742116245841 15.426655080312356, 114.06990237830932 8.625914742066598, 124.19753569049492 4.655381164731864 C134.3251690026805 0.6848475873971296, 134.51400198271563 0.11616797405637652, 137.07195598404962 0.3711101560593022 C139.62990998538362 0.6260523380622278, 138.87119778416832 3.4004310039966157, 139.54525969849897 6.185034256749418" stroke="#000000" stroke-width="1" fill="none"></path></g><g><g transform="translate(117.5943370274166 76.06723644453444) rotate(0 40.639297607562014 97.7218972441533)" fill-rule="evenodd"><path d="M-9.215796179180622 -1.3861044302351107 C-9.215796179180622 -1.3861044302351107, -9.215796179180622 -1.3861044302351107, -9.215796179180622 -1.3861044302351107 M-9.215796179180622 -1.3861044302351107 C-9.215796179180622 -1.3861044302351107, -9.215796179180622 -1.3861044302351107, -9.215796179180622 -1.3861044302351107 M-9.243711261088603 5.505115076785892 C-8.396557699948062 3.2655858015679176, -6.762468340358479 2.3306683624714486, -5.525913795243017 0.2260010230596573 M-9.685665438986026 4.934993790255844 C-8.001808191735785 3.321754922320898, -6.823171654737321 1.9669195501036478, -5.813122939757071 0.5533861851561279 M-11.53395448216753 11.734826644127974 C-7.544315296953997 8.931204974912138, -4.571434098452222 5.979628233924295, -1.4079163222167954 1.6014738920781204 M-10.280745872403998 12.767628539623479 C-8.449898916425857 9.436600618480464, -5.088162341003357 6.678232307874843, -0.9525203024562762 1.2227437521036157 M-7.282423416414154 13.470550007605473 C-3.330162933091013 10.833626829186311, 0.4654220380416545 8.60875904171726, 1.5983749128116265 4.785230350279632 M-7.363851080677328 14.375768359936322 C-3.6396183695089475 10.713683950235355, -0.030939932008267057 5.671271360466067, 2.6741559967102453 3.8139312205085636 M-6.841386525953152 18.18223177593693 C-1.9097018454337147 14.961368262298222, 1.8518973338534357 9.652182042660941, 8.245517985646392 6.547951577521681 M-6.928560733856597 20.196042068754583 C-4.009419388003902 17.257913693791785, -1.3580242002846 12.786182559640107, 6.760278300133313 4.5430921756772396 M-13.956704663736975 34.621618891306035 C-12.772845043720745 33.6890897098926, -12.172000391678491 32.870638588579595, -11.414874985171947 31.361640979674743 M-13.716355549982046 34.51368895544093 C-12.830554724671055 33.05740904364862, -12.095061736243437 32.22106706154711, -11.240711423298809 31.21093615791677 M-4.690833031117114 22.589825350569907 C-0.32752690936888484 18.74002151894362, 2.6538390984254976 14.606349122835347, 9.116381455517859 9.658252106355715 M-5.476985961116048 24.20174137201381 C-2.585206183858404 21.167643842251035, 1.2659502777764091 15.65465148465018, 9.300172615170032 7.441319676423656 M-17.70242942828223 42.461941757437714 C-10.335515096917128 35.6776744921505, -5.8644373856234555 29.649533171090845, 12.180713319556988 12.301309521393824 M-15.345492736022024 42.153013849829264 C-9.341689158430086 34.68967082070309, -1.0508082438057702 26.30384676076024, 12.861536018887735 10.293828915888417 M-17.09848433095958 52.05597088721089 C-8.210450059381644 38.196461099617935, 2.0168073217087787 26.750498573654482, 13.882624147829516 13.51854944680791 M-17.263765061423143 49.789830680493935 C-4.010294523890908 35.101384942050984, 9.464402538718577 20.548869748650265, 15.861327347715301 13.500711133563627 M-16.22580358416303 56.40843779088727 C-1.801265404324905 42.59905097158405, 8.866934648322992 26.425778375223185, 18.31599387618868 18.368453435476994 M-17.7352555108489 55.65448473727128 C-9.309818157922175 48.02976736257994, -1.557537316161664 39.09153116917068, 17.243615746490345 15.603754767093932 M-16.380941281029838 64.31690860156866 C-4.214253454408427 50.31725209965659, 6.360907184160737 37.401601755032644, 23.59427710539281 12.99717286305238 M-17.729766468452173 63.176286538028734 C-1.937242288466928 45.64714315596497, 13.134769116499307 27.85423548560434, 26.049193462455566 14.264644639396263 M-17.621171994744728 70.94016717624297 C-6.312183040624282 54.705813646745, 6.5151780839536 45.60737848557986, 31.918350289371077 12.332897174195262 M-18.650672360933314 69.92799088701983 C-1.7504609891633827 49.74739239816256, 16.90046352682261 30.713497718412192, 31.327173033524517 11.615580204897435 M-16.231522039454465 75.15310131778924 C-4.737622802572627 60.730170630736126, 9.353830718319657 44.32583332740402, 37.07154648897672 13.025904796784667 M-15.958200918454711 74.63693309688924 C2.2873735036384737 52.70502481695139, 20.267150708034762 31.829613813585276, 38.47377204203481 11.855576463742105 M-16.319092383296308 81.84507403430925 C0.3632487995522524 58.70831827561232, 18.523639750661257 38.09394856376906, 40.92080119804402 12.539320623254069 M-15.92000608766925 80.13965024800436 C-2.1599598851651596 65.71038635398413, 8.969390970890474 51.09313687356896, 43.57720894080509 11.997471443129369 M-15.407381561426519 86.21829479845927 C5.938650304779145 59.605796690743475, 30.943285174670418 33.69088355061049, 46.542034285407205 11.221035171036949 M-17.361740944748817 85.33650244778708 C4.935942929355988 61.60081954103483, 24.26821820293513 37.82088400527583, 47.38683499515398 12.596095357758333 M-16.686667618039294 88.84090038700445 C5.232026215972256 65.03990946054863, 25.30104999309618 44.951053323561815, 54.00159096591005 11.620914162789553 M-15.073689637403234 90.9010036702682 C5.609162748466561 66.18790763605966, 27.883735561209825 42.17579624111275, 52.93832525390962 12.72173019005087 M-45.28454096063721 131.56142525681906 C-45.28454096063721 131.56142525681906, -45.28454096063721 131.56142525681906, -45.28454096063721 131.56142525681906 M-45.28454096063721 131.56142525681906 C-45.28454096063721 131.56142525681906, -45.28454096063721 131.56142525681906, -45.28454096063721 131.56142525681906 M-14.173675685152752 93.89443507872544 C12.490231764528854 64.9297474103035, 38.575240979351776 35.334244591343484, 59.22752146183756 11.271139538312461 M-13.49045607443933 95.5882638263332 C8.170086237683732 70.5335537093494, 31.966073947111873 43.71852732450726, 58.478056263581486 11.836554519297685 M-42.1274382711785 133.94499650016084 C-41.71844194658814 133.9364941386514, -41.43570233113182 133.40288256666378, -40.557376112810154 131.6751491557623 M-42.263847692583326 134.3258158679179 C-41.54117284734464 133.40402138099986, -41.155216793084236 132.80254929598655, -40.18473057390452 131.94795766969236 M-14.096940160957608 98.41486582757531 C8.851776076392536 76.1063313064581, 27.714762237305468 52.46367654582681, 64.35893925445816 14.078761566812044 M-12.181709053223464 100.5356672624275 C11.03136833394074 71.99342237871193, 35.57621517769104 45.77182962366631, 62.69185596032731 12.301070575984067 M-39.22537163133539 137.28341674927253 C-38.227803402977806 135.99165312483677, -37.82678949456642 134.5826635507038, -35.48896197072065 132.61365437789138 M-39.29434976983622 136.63969317596968 C-38.14513288744853 135.58100241285538, -37.31634496928581 134.2431103453274, -35.7636004300399 133.04058457843277 M-9.512018768722868 102.81513675435858 C12.170483066019752 77.59905555258294, 30.84571217963415 54.93957470236943, 68.48110259151237 11.164558949315534 M-10.663211375149643 103.59683192748057 C20.17200557995458 67.11934784236078, 51.465794091471736 30.00792555639532, 68.13446501376258 12.622043389262245 M-35.08500664460778 138.7412414785634 C-33.487059090583486 137.03824892816795, -32.02069127742489 134.6710336430005, -31.15019763238143 133.84638478942813 M-35.354708276300954 138.5737780175797 C-34.199696576256535 137.06216688250268, -32.539817295479125 135.15568384538824, -31.061198099054135 133.3428580313515 M-7.411014376670025 107.4379898809935 C12.429193324491898 81.55777749608954, 34.864240716856315 52.902937865555046, 74.36696069175017 11.560269967072937 M-8.15289598656436 108.07079867153568 C16.98534232060578 75.20826110899026, 45.9246152792018 44.53608787564676, 72.78269006451231 13.232822568507228 M-32.645617876014285 141.35613863745414 C-30.362845399805252 138.87180321685, -29.288217338568778 138.2532506838872, -27.51672679439096 136.59685380958595 M-32.77757814167867 141.50215475198522 C-31.609246583193098 140.1214198637517, -30.435631902476686 138.85455927895887, -27.958124685165494 135.77926823209614 M-8.818043737058595 111.76357890850734 C12.471461546893845 86.8073954775701, 31.714798145347196 63.104380908097, 79.78927180291205 14.699173321111473 M-6.666334717852131 110.90964502374511 C10.665016181677831 89.29051938646603, 29.936003659907822 68.18671256641133, 78.34752178219199 13.983923142871234 M-29.40795449499403 143.8848522483712 C-28.03966534017344 142.60321870287072, -26.619426327592123 140.37503738929246, -25.390828511942484 139.31249426223889 M-29.52854344315258 144.13573568713537 C-27.82480663544193 142.24612933082128, -26.448836678744872 140.6715399740607, -25.115867654638674 138.54803717460103 M-4.757414573157561 114.67359795770454 C30.33165086187534 73.14051657914426, 67.54286463944189 36.34089042978165, 85.55242611475755 10.680216872903905 M-3.984915370406938 113.9826139330383 C18.90905290723846 87.5600383729177, 41.619524847450855 59.24949621492254, 85.30595777843614 13.407154301952026 M-26.83054791378708 146.73768005245836 C-26.450564527797116 146.59166555704235, -25.33626236644927 144.34227446195843, -22.426639380631627 140.7657001508266 M-26.90574800695212 147.15398288281173 C-26.068561201567448 146.1634366804404, -24.272667121852994 144.40400294406683, -21.602920523238957 140.89866535233858 M-2.1899797531884317 116.97953905050342 C40.10333756138749 73.227647224925, 79.77740719790988 23.946301770215896, 102.61362633887526 -0.8261739600868765 M-0.5921958905752902 117.60437124945854 C21.17130488805045 92.88468489659013, 42.191852265174354 70.48319751900371, 101.02218318670836 -1.3785722086625043 M-24.296051634265453 150.06733520382406 C-23.812651543198687 148.98206603098475, -22.959924569718094 146.9514292591415, -18.199606843120364 144.33296673935408 M-24.605619257524953 150.52859284451552 C-23.127075672309303 148.70936387640225, -21.348919540313815 146.92823921863538, -18.89300411517261 143.45324750551524 M1.8595710575607995 118.36617714726287 C26.95405404895706 94.2408033458545, 50.662256569184656 64.70069577854224, 110.78299179530944 -2.767263909704944 M3.1988039782298188 118.47849076148975 C30.19504175654444 85.13338099036966, 58.16320712821388 52.45516867762754, 109.44767474892791 -3.85640979269143 M-21.698676090389135 153.84196002119396 C-20.520545945971755 152.97436878690812, -18.908456959143134 149.80816293242424, -16.504661548212404 146.31694562389063 M-22.143909033555182 154.00256045292306 C-20.288135218978454 151.27202536922817, -17.429807579172063 148.5029387819603, -15.945357817951823 146.46730903238537 M5.117884990868632 121.95750426990125 C29.229225284495406 93.43973283495131, 50.83135264554725 67.5063903894553, 113.14463490574369 0.3869682437403057 M7.060776289661888 119.26338831917528 C32.48234463371978 91.90334237202462, 57.07211700546881 63.63948405938674, 112.54227730865338 -0.016600902319147792 M-19.788979372368072 157.4719819795436 C-17.889600031740592 155.87252277515472, -15.142339501239206 151.87202089763161, -13.283706800961458 150.10319855675556 M-20.398039095601877 157.25008176058557 C-17.751702175840542 155.11829209972564, -16.87232203199867 153.05585435103126, -12.510578440963812 148.98226400307834 M12.623536265485058 120.76963369966853 C39.76599703271317 87.1575099902603, 68.06105248832382 57.86075179970955, 110.50218197589949 4.341632040830547 M12.21271518434591 122.0252260318901 C48.889233282459934 77.24701988507307, 87.26367641109752 33.452632922430325, 111.71972459348127 4.341325331161016 M-16.987929726662205 160.79917621009864 C-13.869931831356736 158.24833715220257, -11.919174188372969 155.32568241591568, -10.289681062671226 152.19925994651823 M-18.137569876099096 160.51952274192936 C-15.00853591179852 158.87385067427672, -13.577145980321692 155.8731000051464, -10.336088965470774 151.24338390959858 M16.102790071169572 122.72963829803749 C41.366850652134964 92.3779412470484, 70.32676713012957 59.49264769842633, 114.65906834048889 11.203377441924687 M15.79568077391638 122.25675058923198 C45.075655608306384 89.42480222814906, 74.91127051004615 56.18977878610529, 112.12793435999862 10.83500519623297 M-14.75814909291951 162.999893967013 C-13.728899923291563 161.80539386481806, -8.272212748912173 157.2327979536879, -5.873159364365261 155.01770927526587 M-15.569827279630434 164.28214324400494 C-11.575373130541612 160.0702098829298, -8.317789588054977 156.6181630987357, -6.218837503750097 153.98824302984931 M18.593838684653193 125.65671218581258 C39.37004595731643 98.2778105598536, 63.82443056801385 75.03253077230282, 115.13824321826189 15.25394272827274 M18.497035256979316 124.8584549401304 C47.8522432238572 92.42521984842821, 75.65751762931068 61.50827860894137, 112.36871324883043 17.272788302271728 M-11.521528185681106 166.2073556540598 C-9.882989581346422 164.54742564128094, -7.257931036269012 159.26234690965137, -2.7375826358437507 156.3415221379388 M-12.231361145256685 166.36056398130663 C-8.574258208352635 162.0887103876099, -5.513519731345399 159.14837879860767, -2.5671116686534106 156.14557938284872 M24.5104472956954 123.79042822446658 C52.507176989269816 95.63809336572754, 80.31871715666516 61.65626378160544, 111.15034679897798 22.686025761347473 M23.614088745169198 125.66683577418311 C44.75001934818138 102.84585660274803, 66.58300232751174 79.39009329464378, 113.46593387161118 22.389608838875056 M-7.7900761097911335 171.0101593215639 C-6.430403075178628 165.5244142618468, -2.4325567170036164 163.06300193078314, 0.6242259418713183 158.90292742357386 M-9.91091253536377 168.91506050496048 C-6.270874472265507 165.6984731800073, -3.0649585413158196 161.9899911133448, 0.9373739628242587 158.07104684293998 M28.266190123046194 126.77189969524947 C46.40919720653524 104.31588697930769, 67.09258068600559 79.67042365416651, 114.84218247533016 23.56560734106224 M28.678335379111026 125.43555520076511 C46.8634701211058 103.65346862062836, 65.84046686862919 80.7667752263408, 115.1140070429089 24.809308934081308 M-6.590254275772031 171.2895576398134 C-3.928273622521247 168.13142621299232, -2.1292076336538828 166.76292857836043, 5.656178493413751 157.784093329803 M-6.516506237854491 171.3810959573615 C-2.279694700796562 168.7621600387598, 0.6938648416331493 164.08382842275114, 5.263810178951968 159.17318594509635 M30.962332356465083 127.15319945963407 C60.16044851990708 95.28254741510487, 86.974348029928 62.42050422070176, 117.48765432111597 27.416723649780927 M31.14333527043931 128.3448599094742 C62.203557177729216 91.4364243900142, 94.59757581243483 56.90526529619126, 118.86881925839609 27.62941109837937 M-1.0093744123137496 171.46089905478874 C1.1016658307681901 169.093005879623, 3.3043991492882068 164.75782243310712, 10.084605505114515 159.14363159523714 M-2.565985261208093 173.49861207596842 C0.4686314049588659 169.05343080528488, 5.606483896288813 165.07909659164832, 9.554819120124076 157.9250417217649 M32.80098530225449 133.1894879851109 C32.80098530225449 133.1894879851109, 32.80098530225449 133.1894879851109, 32.80098530225449 133.1894879851109 M32.80098530225449 133.1894879851109 C32.80098530225449 133.1894879851109, 32.80098530225449 133.1894879851109, 32.80098530225449 133.1894879851109 M37.07110962051862 129.45996500781337 C58.153883878409 104.79994618792101, 76.98503429689836 83.86139347773775, 123.51933130367775 30.77599727136964 M36.07302111074292 128.72950962508628 C53.943011495427044 108.862065780611, 71.8341170438494 88.55384728471536, 122.63113096009124 30.45721200721288 M1.4966743510197205 174.84030432623794 C7.21231331198552 168.70679448972433, 8.478229070658257 165.9157335906595, 15.35713652558313 161.6079730566557 M2.1775088222678107 175.40106594280323 C5.280085663933174 170.97794617813014, 9.629731521240764 167.27283626604145, 15.216095514033597 159.41730454917658 M30.877290338757618 143.21043523945553 C55.46384527966042 112.47305914422141, 80.34322318458352 82.90326142362713, 122.77644050108827 32.3538118382896 M30.448632835890336 143.4841143329133 C56.98624817207545 111.69018418715598, 84.53190889088452 81.0044495414929, 124.56615924729593 33.86741002797882 M6.931814289085921 173.23951117759094 C52.03784784021414 126.23162013700023, 94.16201610467414 75.01438483192246, 127.87595197560341 37.91204250312873 M8.220087503448482 175.4758416728069 C51.64553157296436 124.18617696233747, 96.03018650055266 73.24908108088523, 126.33920448927284 37.57412984024265 M10.317076161789657 176.73482087993742 C43.84280417843012 134.58304630588654, 82.37661488751084 97.8537663702689, 129.05957561747698 43.64870372521883 M11.684438868711652 176.7000467115429 C47.779485316068985 135.33395619393804, 83.43340989550391 95.04103769813581, 127.01295792979714 41.36630173227942 M18.72934300305434 171.88647808217098 C53.838080315224545 133.2504759952186, 88.66105744630168 91.56661046297484, 128.49150386256215 46.67696455743892 M18.83833849934973 173.208079757063 C47.2926067511186 140.28391283432575, 74.19654470454148 109.6793513189938, 129.1838324637064 48.07087039173378 M25.630255161761653 171.05615557783904 C61.406012328675445 132.63813194864076, 91.78599189778495 96.31857685808077, 127.70097255070272 52.74005009744527 M28.052209703228783 169.22382673768016 C65.55055277920833 127.10406732531351, 101.40667191307455 84.0138418026347, 130.01543282732877 52.052063113527616 M31.066201245831323 172.50913010637996 C58.34443517643462 140.87827216795708, 81.29646233621587 114.98343432669536, 128.01976092573295 58.77374148767134 M31.733372484752906 171.5320040900984 C64.37105452479744 132.86180244835808, 99.36608451565229 94.010727046187, 129.5198055984829 57.43013979986002 M31.290644528088123 176.4108482300045 C61.23493237740871 145.06812870537527, 90.20215571000784 113.10737361161708, 132.3636326064871 62.22358549555062 M31.792119950731248 177.13097463629413 C71.9905162886516 132.1822247539751, 110.9883488816119 86.17863007149646, 131.1826301674874 64.05485254043012 M32.60920974332829 182.67239339525497 C40.80519365721306 169.68828087885126, 52.460501530755764 159.11279766391272, 78.56087715159676 131.00299925222942 M32.330555107444425 183.73446464507526 C43.34794154474577 171.50180133038458, 53.70934191634472 158.74648941787774, 77.13551030195823 129.11980035114982 M76.09824068080208 129.0779175223405 C99.0901705114484 106.56262289781202, 118.16264116609366 84.3811145848916, 131.03546876966047 68.22705834415453 M78.20489845312706 129.55524542141654 C90.71906248923295 114.39056487362359, 102.69051622835566 99.71584049963293, 130.68288285697835 68.55246726573156 M30.6242849732143 187.54895350962852 C49.11268465354475 169.7084680742161, 65.59155171068662 148.43413650647744, 82.27438030841772 133.79353053897546 M30.888722766968343 190.22569581095104 C50.18560616739954 166.72834279391125, 70.27207645140032 145.12923535975926, 81.6130817642716 132.25150606159048 M85.52571641976921 126.75837370079677 C102.0861927958046 107.64867145227736, 120.43417132515106 88.07869941884121, 132.49340746390192 75.5659063613601 M84.9983254321569 129.0680106671221 C101.0253363970802 109.35391390404966, 116.29144017644639 91.76490314737512, 130.70791224135576 75.92601883566007 M29.35729433017788 198.5839577478265 C43.4833254720018 177.2914719209713, 59.23338431431418 160.32597862387195, 85.75011338467228 135.18450280472538 M29.88103777988819 196.20401871417664 C43.491665903012276 180.59970944212648, 57.81800709483946 164.86603736357188, 83.69934539577442 134.5629107161229 M92.36581270316994 125.04513023325696 C105.11721624238311 112.9212431270199, 118.57054024079048 97.60441335035594, 131.119581936952 82.81403324819462 M91.9346242678762 127.14817016941949 C103.24505514553125 114.25213859851297, 113.44354324089063 100.72918162373115, 131.28902149023514 81.83070977936791 M33.21990232287412 197.43392358887127 C49.0576850955688 180.54313324180663, 63.72119236783754 166.1557962097023, 86.63602559911043 139.3326543307292 M34.18083457673406 198.5947496618994 C49.14717292657714 180.77492326303167, 66.80952701002865 162.47528929662067, 86.93360783709169 137.92486392412212 M98.39147874975426 125.96992540097105 C108.3511256730087 110.76172692898339, 119.74399133446927 99.49680994507295, 131.98381640756065 87.45630228590802 M99.49060160090995 123.72907353768366 C107.37734870313679 114.66446852286136, 116.14086726546947 105.63908409075478, 130.37957974424148 87.34832720623002 M39.47057899610995 199.98697179534935 C49.824954875588105 185.13808249036262, 60.651675835990076 172.9411446459226, 86.29958005452013 144.56981171912804 M38.742628124187874 199.0704332448309 C48.95748312409981 187.59425886881317, 59.53284907790823 177.21178334710908, 87.30906461288637 143.39892861585423 M107.71941377827216 122.72074748518902 C111.72824586127722 114.6733849520292, 122.01703617638469 104.38592772136847, 128.1875670364969 96.64324591619587 M105.22118907188315 122.9159453812896 C115.22403056728376 112.05507831631914, 123.63092794824848 103.16952029657834, 128.19896308601875 96.74195238606697 M45.33578051065439 199.26863480895636 C57.72755915552 180.98966039004168, 71.84466996730528 165.37227640654584, 87.70046208561344 148.3463749302808 M44.72329450489366 199.9566507327917 C56.08237854202718 185.43638421758783, 69.42888711150411 171.41075259287123, 88.14550847974552 149.18086607980317 M48.91088437133301 201.2464480658457 C56.72826302102881 189.42859308900694, 68.25974501514946 180.75723566581684, 87.17527753699983 156.34316709030483 M48.86026068528015 199.59049860829714 C64.12118044423548 183.30119367237944, 78.49934501963234 167.55892561057263, 86.54391015068109 155.60806209825043 M54.340905522110546 200.5566737060132 C60.132161716075295 190.114735686998, 70.14273213060162 185.06554863413524, 89.2564140870789 160.68561626251332 M54.81302729632952 200.34683703022773 C62.6598449794708 190.34242894023157, 71.00016159900238 182.0112893392957, 86.95516425423267 161.05493494241975 M60.899411398840215 200.95310578233799 C68.20566459581916 189.5206230649162, 79.17510798154092 178.54561948092126, 89.00473951771335 167.28261670500808 M59.24831973287937 199.10729818622818 C67.18535258729177 191.54495112013086, 75.40726855861134 181.90340730604433, 88.05888246874736 167.81700606767856 M64.72501284136577 197.3195943924762 C75.74794501102198 189.87341412608046, 83.74221233556185 179.1032183719403, 86.25184210172792 171.97148997999977 M66.65005523125781 199.0407968712203 C70.91445621834573 192.3276566712647, 76.77950218694117 186.30733530014498, 87.85129540103425 173.18170079600316 M70.60280506453098 198.98725525908418 C75.78226999464854 194.6646031781556, 76.46174728550248 192.19408698273102, 86.78905837098542 179.1181615955902 M70.944533840293 198.576990067626 C75.61238787609243 191.6025302679394, 81.63457469032002 185.16485162029994, 87.67803035444054 178.68477495776096 M77.60939514530864 199.03639891634356 C80.68222737896885 194.10348588850653, 84.57765456917488 189.88746729113637, 88.06717444470087 186.05919622049686 M76.15123383212875 199.3316504103377 C78.68832448184135 195.8609918738542, 81.88522521378796 192.6143471792226, 87.80652383591914 186.19365971784129 M82.39912902615488 198.23981770337687 C84.25264535992369 196.43118098563895, 86.75937469548822 192.99192548516282, 88.10366746048845 190.99369958985906 M81.63573555360072 198.073504041416 C83.95106762765677 196.01052397664836, 86.46379007526625 194.0166280067456, 87.62151029525727 191.6851767154162" stroke="#ffff" stroke-width="0.5" fill="none"></path><path d="M-9.593573748791144 -0.8160444281350214 C-6.817155040839973 0.4627786837908572, 2.7476973797827613 2.4422372343878975, 7.334186686457844 5.336155081452019 C11.920675993132928 8.23007292851614, 13.810099616278045 15.60482845388475, 17.925362091259352 16.547462654249706 C22.04062456624066 17.490096854614663, 23.265785979914583 12.018839434100816, 32.025761536345684 10.991960283641763 C40.785737092776785 9.96508113318271, 61.80301487771638 10.218105352796329, 70.48521542984595 10.38618775149539 C79.16741598197552 10.554270150194451, 80.03170586880682 12.900353295914341, 84.1189648491231 12.000454675836131 C88.20622382943938 11.100556055757922, 91.1319267498792 7.607208104229194, 95.00876931174366 4.986796031026137 C98.88561187360813 2.3663839578230808, 104.53860189664172 -4.203996650941727, 107.38002022030992 -3.7220177633822065 C110.22143854397811 -3.2400388758226852, 111.28254977590879 3.9304435049740465, 112.05727925375285 7.878669356383265 C112.83200873159691 11.826895207792482, 110.218558954055 15.815772921425339, 112.02839708737426 19.967337345073105 C113.83823522069352 24.11890176872087, 120.171950518793 25.064084338963703, 122.91630805366839 32.78805589826986 C125.66066558854378 40.51202745757602, 128.05989481892456 54.8805698440926, 128.49454229662663 66.31116670091005 C128.9291897743287 77.74176355772751, 128.2305012124485 92.98828668379859, 125.52419291988076 101.37163703917459 C122.81788462731303 109.75498739455058, 117.3875575122764 113.00943552577553, 112.25669254122026 116.611268833166 C107.12582757016412 120.21310214055646, 100.94764568701402 120.9737063321075, 94.73900309354389 122.98263688351734 C88.53036050007375 124.99156743492719, 77.12849178169374 126.99601212849329, 75.00483698039949 128.6648521416251 C72.88118217910524 130.33369215475687, 80.1643312809367 130.64148004449706, 81.99707428577835 132.99567696230812 C83.82981729062001 135.3498738801192, 85.13092452202143 135.75724283981782, 86.00129500944948 142.7900336484915 C86.87166549687753 149.82282445716515, 87.01330007460467 166.5101162173659, 87.21929721034661 175.1924218143501 C87.42529434608855 183.8747274113343, 88.05072787794171 191.01969385249666, 87.23727782390108 194.8838672303967 C86.42382776986045 198.74804060829675, 91.07954996133626 197.72375380044798, 82.33859688610283 198.37746208175042 C73.59764381086941 199.03117036305287, 43.630097830084146 199.86587408978153, 34.79155937250059 198.8061169182114 C25.95302091491704 197.74635974664125, 30.486276459367623 196.72884392427278, 29.307366140601502 192.01891905232952 C28.12845582183538 187.30899418038626, 29.525713140476224 173.77292017363524, 27.718097459903863 170.54656768655187 C25.9104817793315 167.3202151994685, 23.12873669518015 172.11211788562812, 18.46167205716733 172.6608041298293 C13.794607419154508 173.20949037403048, 5.479606117619625 175.22088781665278, -0.28429036817307374 173.83868515175888 C-6.048186853965772 172.45648248686499, -11.931912888792517 168.54595906650758, -16.12170685758886 164.36758814046593 C-20.3115008263852 160.18921721442427, -22.312887762230744 153.02785046977, -25.423054180951127 148.76845959550903 C-28.53322059967151 144.50906872124807, -31.130924237762162 141.77648155564577, -34.78270536991116 138.81124289490018 C-38.43448650206016 135.84600423415458, -47.84559800138885 132.11320733861555, -47.333740973845124 130.97702763103536 C-46.8218839463014 129.84084792345516, -36.146060379672456 130.6247775579534, -31.711563204648826 131.99416464941902 C-27.277066029625196 133.36355174088465, -24.35428315800763 135.94319874654, -20.726757923703335 139.19335017982908 C-17.09923268939904 142.44350161311817, -13.957908237129672 148.23087624109948, -9.946411798823059 151.4950732491535 C-5.934915360516444 154.75927025720753, -1.5289436873691424 158.07976389858055, 3.3422207061363483 158.77853222815318 C8.213385099641838 159.4773005577258, 15.326106341184227 157.1747903528418, 19.280574562209885 155.68768322658931 C23.235042783235542 154.20057610033683, 25.642255211542093 152.22855690018105, 27.069030032290296 149.8558894706382 C28.4958048530385 147.48322204109536, 27.0490980649804 144.31004248458805, 27.84122348669911 141.45167864933217 C28.633348908417823 138.59331481407628, 30.157168318016282 135.05374933507647, 31.82178256260258 132.7057064591029 C33.486396807188875 130.35766358312935, 40.37899265037033 128.78676292002865, 37.828908954216885 127.36342139349073 C35.27882525806344 125.94007986695281, 23.146623005436986 126.07124325814924, 16.52128038568191 124.16565729987543 C9.895937765926831 122.26007134160163, 2.734203527046553 119.72228958451807, -1.9231467643135727 115.92990564384793 C-6.580497055673698 112.1375217031778, -8.61221982865047 109.40367525345545, -11.422821362478846 101.4113536558546 C-14.233422896307221 93.41903205825375, -18.28651084271077 79.31439942087005, -18.786755967283828 67.97597605824281 C-19.287001091856887 56.637552695615575, -16.632634008678444 40.582458694129635, -14.42429210991721 33.380813480091206 C-12.215950211155977 26.179168266052777, -6.449053129261806 28.22741136983691, -5.536704574716426 24.76610477401223 C-4.624356020171046 21.30479817818755, -8.365559600051492 17.102540113154554, -8.950200782644929 12.612973905143125 C-9.534841965238366 8.123407697131697, -9.140933292615383 -0.013156119715560965, -9.044551670277045 -2.1712924740563473 M-11.152655588971005 -1.6755517501856525 C-8.45280974149919 -0.6152768371981434, 2.1098656278177756 1.005738132533037, 6.916243980446609 3.7237932130928706 C11.722622333075442 6.441848293652704, 13.401953980293207 13.236833829769223, 17.685614526801995 14.63277873317335 C21.969275073310783 16.028723636577475, 23.557285299326402 12.842486761784683, 32.618207259499336 12.09946263351763 C41.67912921967227 11.356438505250578, 63.243169505613224 9.82214856141777, 72.05114628783961 10.17463396357104 C80.859123070066 10.52711936572431, 82.05142923444895 15.306936207189668, 85.46606795285766 14.21437504643725 C88.88070667126637 13.12181388568483, 89.06563692119875 6.610887869952839, 92.53897859829186 3.61926699905653 C96.01232027538498 0.627646128160221, 103.25457314274269 -4.765976111397205, 106.30611801541639 -3.735350178940604 C109.35766288809009 -2.7047242464840036, 110.27201412956705 5.41425894279013, 110.8482478343341 9.803022593796134 C111.42448153910115 14.191786244802138, 107.7235577742183 18.613821024541792, 109.76352024401866 22.597231727095426 C111.80348271381902 26.58064242964906, 120.22193605308098 26.535809954487465, 123.0880226531362 33.70348680911795 C125.95410925319143 40.87116366374843, 127.02708176612875 53.941698336708704, 126.96003984434999 65.60329285487832 C126.89299792257124 77.26488737304793, 125.21396828503224 95.16734737327026, 122.68577112246366 103.67305391813562 C120.15757395989509 112.17876046300098, 116.38609899887496 113.56553512444405, 111.79085686893858 116.63753212407046 C107.1956147390022 119.70952912369687, 101.17137301493452 120.41555238239229, 95.11431834284538 122.10503591589405 C89.05726367075624 123.7945194493958, 77.75918507941519 125.38218644039193, 75.44852883640378 126.77443332508096 C73.13787259339237 128.16668020977, 79.14454094060996 127.70196213308523, 81.25038088477696 130.45851722402824 C83.35622082894396 133.21507231497125, 86.75182276196928 135.75618336274934, 88.08356850140576 143.31376387073902 C89.41531424084225 150.8713443787287, 89.32128250182176 167.41986041237269, 89.24085532139586 175.80400027196637 C89.16042814096996 184.18814013156006, 88.85276505059448 189.95605497488876, 87.60100541885038 193.61860302830112 C86.34924578710627 197.2811510817135, 90.56728895126312 197.0725365606136, 81.73029753093121 197.77928859244057 C72.8933061105993 198.48604062426753, 43.382713785295365 199.00064809068698, 34.57905689685892 197.85911521926295 C25.77540000842248 196.7175823478389, 29.842074166545324 195.54996709896247, 28.908356200312543 190.93009136389628 C27.974638234079762 186.3102156288301, 31.002478587474407 173.12781222273176, 28.97674909946224 170.1398608088658 C26.95101961145007 167.15190939499982, 21.50283863352469 172.39678371483217, 16.753979272239544 173.00238288070042 C12.005119910954399 173.60798204656868, 5.743847625008275 175.2826909742431, 0.4835929317513594 173.77345580407538 C-4.776661761505556 172.26422063390766, -10.161692845990121 168.31764518084114, -14.807548887301952 163.94697185969414 C-19.453404928613782 159.57629853854715, -24.1724627664731 152.01282068678185, -27.391543316119616 147.54941587719335 C-30.610623865766133 143.08601106760486, -31.003578857835898 140.14531597634914, -34.12203218518105 137.1665430021632 C-37.2404855125262 134.18777002797725, -46.4692762299087 130.2614384566017, -46.10226328019053 129.67677803207775 C-45.735250330472354 129.0921176075538, -36.22176407058131 131.84191369689177, -31.91995448687199 133.6585804550196 C-27.618144903162676 135.47524721314744, -23.62572046407647 137.66299749767813, -20.291405777934635 140.57677858084477 C-16.9570910917928 143.4905596640114, -16.08239204745762 148.46286790076311, -11.914066370020986 151.1412669540194 C-7.745740692584352 153.81966600727566, -0.7095400648834449 156.04202490567343, 4.718548286685171 156.6471729003824 C10.146636638253787 157.25232089509137, 16.8871797222282 155.68796672634588, 20.654463739390714 154.7721549222732 C24.421747756553227 153.8563431182005, 25.818980628060842 153.50113767665644, 27.322252389660257 151.1523020759462 C28.82552415125967 148.80346647523598, 28.845759307562304 143.81488315567285, 29.674094308987208 140.6791413180118 C30.50242931041211 137.54339948035076, 31.041202253421595 134.54584528498708, 32.29226239820969 132.33785104997992 C33.54332254299778 130.12985681497275, 39.502590784031185 128.70227286305942, 37.180455177715764 127.43117590796888 C34.858319571400344 126.16007895287834, 24.77708304395738 126.58776267617276, 18.359448760317186 124.71126931943667 C11.941814476676992 122.83477596270058, 3.9530309407023703 120.09037416448503, -1.3253505241253913 116.1722157675523 C-6.603731988953153 112.25405737061958, -10.311460243411478 109.16961432489467, -13.310840028649384 101.2023189378403 C-16.31021981388729 93.23502355078594, -19.14159340076897 79.53423939338842, -19.32162923555283 68.36844344522613 C-19.501665070336692 57.20264749706385, -16.51732057374234 41.54727649491225, -14.39105503735255 34.20754324886661 C-12.26478950096276 26.867810002820963, -7.308991551368012 27.929837881146955, -6.564036017214097 24.330043968952264 C-5.819080483060181 20.730250056757573, -9.375432153064757 16.574533609833324, -9.921321832429053 12.608779775698466 C-10.467211511793348 8.643025941563607, -9.652855111728575 2.888713467251371, -9.839374093399867 0.5355209641431136" stroke="#000000" stroke-width="1" fill="none"></path></g></g></svg>