<svg version="1.1" xmlns="http://www.w3.org/2000/svg" viewBox="0 0 343.5 343.5" width="343.5" height="343.5">
  <!-- svg-source:excalidraw -->
  
  <defs>
    <style>
      @font-face {
        font-family: "Virgil";
        src: url("https://excalidraw.com/FG_Virgil.woff2");
      }
      @font-face {
        font-family: "Cascadia";
        src: url("https://excalidraw.com/Cascadia.woff2");
      }
    </style>
  </defs>
  <g transform="translate(10 10) rotate(0 161.75 161.75)"><path d="M207.5523971133255 7.330867648972941 C223.16081906380384 9.183214683010613, 237.7961121506912 19.206793559992732, 251.20625839218445 28.161122505410788 C264.6164046336777 37.11545145082884, 277.7869930487136 48.14855998521076, 288.01327456228506 61.056841321481286 C298.2395560758565 73.9651226577518, 306.603809255408 90.1563244657668, 312.5639474736131 105.61081052303393 C318.5240856918182 121.06529658030107, 322.9596175016045 137.4765809187401, 323.7741038715154 153.78375766508407 C324.58859024142635 170.09093441142804, 321.7918512351109 187.58194128885225, 317.45086569307875 203.4538710010978 C313.1098801510466 219.32580071334337, 306.40946005860906 235.0936802650183, 297.72819061932233 249.01533593855746 C289.0469211800356 262.9369916120966, 277.8349233152715 276.3920179448049, 265.3632490573585 286.98380504233285 C252.8915747994454 297.5755921398608, 238.34130304107595 306.53760612899634, 222.89814507184397 312.5660585237254 C207.454987102612 318.5945109184545, 189.19766010562014 322.1297895588345, 172.70430124196665 323.1545194107071 C156.21094237831315 324.17924926257973, 139.64804821099278 322.7332292415707, 123.93799188992304 318.7144376349611 C108.22793556885331 314.69564602835146, 92.4921254359419 307.5138286421984, 78.44396331554825 299.0417697710495 C64.39580119515459 290.56971089990054, 50.6416124044527 280.0700382904454, 39.64901916756109 267.8820844080673 C28.656425930669485 255.6941305256893, 19.029124339640543 241.12540736129912, 12.488403894198598 225.91404647678132 C5.947683448756652 210.70268559226352, 1.9107592313872648 193.0947864028252, 0.40469649490941606 176.6139191009605 C-1.1013662415684327 160.13305179909577, -0.06859151832479427 142.88194074948947, 3.452027475331505 127.02884266559306 C6.972646468987804 111.17574458169665, 13.312616728451411 95.60936538229015, 21.52841045684721 81.49533059758201 C29.744204185243014 67.38129581287387, 40.51115705485746 53.65420966262193, 52.7467898457063 42.34463395734424 C64.98242263655514 31.035058252066555, 80.01674928938642 20.3668106655731, 94.94220720194026 13.6378763659159 C109.8676651144941 6.9089420662587, 125.94410970593935 3.846816971302573, 142.29953732102936 1.971028159401044 C158.65496493611937 0.09523934749951479, 181.00541420366093 1.3684731021687213, 193.07477289248033 2.383143494506726 C205.14413158129972 3.3978138868447303, 210.1070588892955 5.962234771736945, 214.71568945394574 8.05905051342907 C219.32432001859598 10.155866255121197, 221.80097526645352 12.434804934344418, 220.72655628038174 14.96403794465948 M141.5084120613633 1.655118898559607 C156.5855068776669 -2.8305212424094277, 174.23979766983038 1.3115675623882908, 190.64474124921585 4.123108000465919 C207.04968482860133 6.934648438543547, 225.32568911932464 10.903407881138872, 239.93807353767608 18.524361527025377 C254.55045795602751 26.145315172911882, 267.02695119836824 37.69109981092387, 278.3190477593246 49.84882987578496 C289.6111443202809 62.00655994064604, 300.3235524167104 76.78915952119529, 307.6906529034141 91.4707419161919 C315.0577533901178 106.15232431118851, 320.3301961389451 121.95679652701507, 322.5216506795466 137.93832424576462 C324.7131052201481 153.91985196451415, 323.8267627673011 170.95776666410225, 320.839380147023 187.35990822868916 C317.8519975267449 203.76204979327608, 312.1697554519196 221.49408157681535, 304.59735495787817 236.35117363328615 C297.0249544638367 251.20826568975696, 287.06790113772547 265.17379418589553, 275.40497718277413 276.50246056751394 C263.7420532278228 287.83112694913234, 249.2179843098266 296.9698372900992, 234.61981122817016 304.32317192299655 C220.02163814651374 311.6765065558939, 203.81028958930168 317.62774374575406, 187.8159386928355 320.6224683648982 C171.8215877963693 323.6171929840424, 154.92543598491184 324.4849405609645, 138.65370584937304 322.2915196378617 C122.38197571383422 320.0980987147589, 104.85471963673955 314.6727229396726, 90.18555787960261 307.46194282628153 C75.51639612246568 300.25116271289045, 62.383360017085025 290.1831772557867, 50.638735306551425 279.02683895751517 C38.894110596017825 267.87050065924365, 27.579574271729136 254.7961719803983, 19.717809616401013 240.52391303665252 C11.85604496107289 226.25165409290673, 6.631849839983479 209.87485005047006, 3.468147374582685 193.39328529504056 C0.30444490918189127 176.91172053961105, -1.2278005505448562 158.05056819047547, 0.7355948239962515 141.63452450407556 C2.698990198537359 125.21848081767564, 8.315001400834884 109.82874776646352, 15.248519621829331 94.89702317664101 C22.182037842823778 79.9652985868185, 31.330030174583577 64.15462698076911, 42.33670414996294 52.044176965140466 C53.343378125342305 39.93372694951183, 66.95551424833616 30.48171958328419, 81.28856347410553 22.234323082869196 C95.6216126998749 13.9869265824542, 118.27560786707788 5.814457421230765, 128.33499950457917 2.5597979626504923 C138.39439114208045 -0.6948614959297807, 139.544641114001 2.16340839028679, 141.64491329911328 2.7063663313875566 C143.74518548422557 3.249324272488323, 140.7717525517069 3.618606593314894, 140.93663261525293 5.817545609255092" stroke="none" stroke-width="0" fill="#868e96"></path><path d="M104.13263329007128 9.684338119753505 C117.93327371091655 1.6734479717376747, 136.57511331240573 1.0316898515486863, 153.0110339017716 0.29542440372708256 C169.4469544911375 -0.4408410440945213, 186.71792623125125 1.0044426895105927, 202.74815682626664 5.266745432823882 C218.77838742128202 9.52904817613717, 235.33921400822965 16.895493702057728, 249.1924174718639 25.86924086360682 C263.04562093549816 34.84298802515591, 275.6112328944819 46.57646560895476, 285.8673776080721 59.10922840211845 C296.12352232166234 71.64199119528213, 304.39889570892217 86.0263862217298, 310.7292857534052 101.06581762258891 C317.0596757978882 116.10524902344802, 322.30608664776537 133.08550045167803, 323.84971787497017 149.34581680727317 C325.39334910217497 165.6061331628683, 323.9572137518218 182.64237656060214, 319.99107311663386 198.62771575615966 C316.0249324814459 214.61305495171717, 308.8215339269666 231.2196541946835, 300.0528740638423 245.25785198061828 C291.284214200718 259.2960497665531, 279.899573877084 271.9175676750387, 267.37911393788806 282.8569024717684 C254.85865399869215 293.79623726849815, 239.93742514814807 304.3387190482087, 224.9301144286668 310.89386076099663 C209.92280370918553 317.44900247378456, 193.5145641920879 320.7860261426049, 177.33524962100037 322.1877527484959 C161.15593504991284 323.58947935438687, 144.0295490578457 322.6981615788338, 127.85422700214163 319.30422039634254 C111.67890494643753 315.9102792138513, 94.61766130567533 309.96258470370014, 80.28331728677577 301.8241056535486 C65.94897326787621 293.68562660339705, 52.70770378589498 282.75791539073316, 41.848162888744255 270.4733460954332 C30.988621991593533 258.18877680013327, 21.927782562593546 242.92379837052607, 15.126071903871434 228.11668988174898 C8.324361245149323 213.3095813929719, 3.0684120957690717 197.8696492950809, 1.0378989364115796 181.63069516277076 C-0.9926142229459125 165.39174103046062, -0.1941714844360689 147.0458324137664, 2.9429929477264807 130.68296508788808 C6.08015737988903 114.32009776200977, 11.879495401689422 97.67740431933429, 19.860885529386877 83.45349120750093 C27.842275657084333 69.22957809566758, 39.072953457105356 56.4672916926931, 50.83133371391122 45.33948641688795 C62.589713970717085 34.2116811410828, 78.79312185327946 23.34423518720935, 90.41116707022205 16.686659552670022 C102.02921228716464 10.029083918130695, 112.93474104396459 7.395453134308013, 120.53960501556676 5.394032609651987 C128.14446898716892 3.3926120849959602, 135.46869009068843 2.149556857012025, 136.04035089983506 4.678136404733863 M137.23516978841388 0.8646606205702199 C151.98860051862155 -3.993212566244428, 170.97588864721016 -0.6634400906298858, 187.13428302410884 2.264748921306875 C203.29267740100752 5.192937933243636, 219.3739155881306 10.794842279397642, 234.18553604980593 18.433794692190787 C248.99715651148128 26.072747104983932, 264.20897896098506 36.58086879547269, 276.0040057941609 48.098463398065746 C287.7990326273367 59.6160580006588, 297.4966955146795 73.16056124908002, 304.95569704886077 87.53936230774912 C312.414698583042 101.91816336641821, 318.1702683891797 118.30743808947108, 320.7580149992483 134.37126975008033 C323.3457616093169 150.43510141068958, 322.6198362056141 167.45460154979594, 320.4821767092724 183.92235227140466 C318.34451721293067 200.3901029930134, 314.61479923275124 218.1236700805593, 307.9320580211979 233.17777407973273 C301.2493168096446 248.23187807890616, 291.5912391689038 262.39133009161185, 280.3857294399523 274.24697626644524 C269.18021971100075 286.10262244127864, 255.29938535437964 296.8506015452035, 240.6989996474888 304.31165112873316 C226.09861394059794 311.7727007122628, 209.31939674282387 316.0244149170943, 192.78341519860723 319.01327376762316 C176.2474336543906 322.002132618152, 157.96625865049634 323.69363459256704, 141.48311038218898 322.2448042319064 C124.99996211388161 320.7959738712458, 108.61514397681356 317.1098041437794, 93.884525588763 310.3202916036596 C79.15390720071244 303.5307790635398, 64.9861563558794 292.57385759112356, 53.0994000538856 281.5077289911877 C41.212643751891804 270.4416003912519, 30.931237487997365 257.87479402188836, 22.563987776800218 243.9235200040444 C14.196738065603071 229.97224598620045, 6.765814979496293 214.09563735711734, 2.895901786702723 197.80008488412403 C-0.9740114060908476 181.50453241113073, -2.3164900181344166 162.80663081036414, -0.6554913799612052 146.15020516608453 C1.0055072582120061 129.49377952180492, 6.284320822188318 112.6763451455832, 12.861893615741991 97.86153101844644 C19.439466409295665 83.04671689130969, 28.23590163216182 69.53919030299377, 38.80994538136083 57.26132040326398 C49.38398913055985 44.98345050353419, 62.07489105941372 32.96196815982306, 76.30615611093607 24.194311620067708 C90.53742116245841 15.426655080312356, 114.06990237830932 8.625914742066598, 124.19753569049492 4.655381164731864 C134.3251690026805 0.6848475873971296, 134.51400198271563 0.11616797405637652, 137.07195598404962 0.3711101560593022 C139.62990998538362 0.6260523380622278, 138.87119778416832 3.4004310039966157, 139.54525969849897 6.185034256749418" stroke="#000000" stroke-width="1" fill="none"></path></g><g><g transform="translate(117.5943370274166 76.06723644453444) rotate(0 40.639297607562014 97.7218972441533)" fill-rule="evenodd"><path d="M-10.813334413343593 -1.4830830394576628 L6.313379531236143 5.153965374739058 L17.846029349909415 16.67670495151166 L30.680692668096032 10.372621004556365 L82.92991620496784 11.433352657092378 L105.55670036935928 -4.616157255086716 L108.10229259628099 -6.112157263433943 L107.63946615168734 -3.737581242035487 L110.33320855349484 8.461897201664627 L111.41971666402512 19.954621858636024 L120.61863584117506 29.203822290614582 L125.676543374869 39.82346173318463 L130.58423837388403 67.63051199261399 L129.33873643733108 85.29337269300083 L123.51522048145594 103.06306183441475 L119.72109327619026 111.10122516287052 L102.73863573187887 120.59135773690022 L76.71166193274786 129.3676334455609 L82.64029795934674 135.1626327244465 L88.55781384204363 140.51060180100856 L89.15768368301022 194.92271235530325 L56.7509079655391 198.67236727532622 L30.31451122694563 197.79673626513218 L30.7811844409335 195.08496601937927 L27.821032157919316 170.50737559040792 L25.717231344978746 170.50006083798226 L16.507016425535717 172.2788096402489 L9.538018007728846 172.95652777155664 L0.012901613053132088 173.1928109219403 L-7.823770865123045 171.81778599086113 L-17.0039641842812 164.12417137438865 L-29.090859729853335 141.96772728428436 L-45.764508148655295 129.81473236926487 L-31.266144127818677 130.41842231752676 L-10.960058862644614 151.3376555189115 L2.2309641938818716 158.91542919231577 L11.997477541413108 159.37566023961784 L26.37720792711359 152.41798380598678 L29.16528622059353 151.8383550559594 L28.237492525763756 141.75446333884798 L32.3415301811884 131.04300321545986 L37.91692128148634 130.37398287135272 L-3.1181973697000682 116.0421330323193 L-7.463466500325296 112.12137132289301 L-12.890224794460648 102.7802884622909 L-16.195905470592596 85.30446121704584 L-21.211910709137303 68.13143204912353 L-18.372128254519218 50.3015726154731 L-15.670440883199976 35.7333783476771 L-9.557831774032437 28.7538800223971 L-3.8507937142673505 25.36924951134529 L-11.350584978538931 14.067453905728442 L-10.24044341641061 0.5382299125839631" stroke="none" stroke-width="0" fill="#fff" fill-rule="evenodd"></path><path d="M-9.593573748791144 -0.8160444281350214 C-6.817155040839973 0.4627786837908572, 2.7476973797827613 2.4422372343878975, 7.334186686457844 5.336155081452019 C11.920675993132928 8.23007292851614, 13.810099616278045 15.60482845388475, 17.925362091259352 16.547462654249706 C22.04062456624066 17.490096854614663, 23.265785979914583 12.018839434100816, 32.025761536345684 10.991960283641763 C40.785737092776785 9.96508113318271, 61.80301487771638 10.218105352796329, 70.48521542984595 10.38618775149539 C79.16741598197552 10.554270150194451, 80.03170586880682 12.900353295914341, 84.1189648491231 12.000454675836131 C88.20622382943938 11.100556055757922, 91.1319267498792 7.607208104229194, 95.00876931174366 4.986796031026137 C98.88561187360813 2.3663839578230808, 104.53860189664172 -4.203996650941727, 107.38002022030992 -3.7220177633822065 C110.22143854397811 -3.2400388758226852, 111.28254977590879 3.9304435049740465, 112.05727925375285 7.878669356383265 C112.83200873159691 11.826895207792482, 110.218558954055 15.815772921425339, 112.02839708737426 19.967337345073105 C113.83823522069352 24.11890176872087, 120.171950518793 25.064084338963703, 122.91630805366839 32.78805589826986 C125.66066558854378 40.51202745757602, 128.05989481892456 54.8805698440926, 128.49454229662663 66.31116670091005 C128.9291897743287 77.74176355772751, 128.2305012124485 92.98828668379859, 125.52419291988076 101.37163703917459 C122.81788462731303 109.75498739455058, 117.3875575122764 113.00943552577553, 112.25669254122026 116.611268833166 C107.12582757016412 120.21310214055646, 100.94764568701402 120.9737063321075, 94.73900309354389 122.98263688351734 C88.53036050007375 124.99156743492719, 77.12849178169374 126.99601212849329, 75.00483698039949 128.6648521416251 C72.88118217910524 130.33369215475687, 80.1643312809367 130.64148004449706, 81.99707428577835 132.99567696230812 C83.82981729062001 135.3498738801192, 85.13092452202143 135.75724283981782, 86.00129500944948 142.7900336484915 C86.87166549687753 149.82282445716515, 87.01330007460467 166.5101162173659, 87.21929721034661 175.1924218143501 C87.42529434608855 183.8747274113343, 88.05072787794171 191.01969385249666, 87.23727782390108 194.8838672303967 C86.42382776986045 198.74804060829675, 91.07954996133626 197.72375380044798, 82.33859688610283 198.37746208175042 C73.59764381086941 199.03117036305287, 43.630097830084146 199.86587408978153, 34.79155937250059 198.8061169182114 C25.95302091491704 197.74635974664125, 30.486276459367623 196.72884392427278, 29.307366140601502 192.01891905232952 C28.12845582183538 187.30899418038626, 29.525713140476224 173.77292017363524, 27.718097459903863 170.54656768655187 C25.9104817793315 167.3202151994685, 23.12873669518015 172.11211788562812, 18.46167205716733 172.6608041298293 C13.794607419154508 173.20949037403048, 5.479606117619625 175.22088781665278, -0.28429036817307374 173.83868515175888 C-6.048186853965772 172.45648248686499, -11.931912888792517 168.54595906650758, -16.12170685758886 164.36758814046593 C-20.3115008263852 160.18921721442427, -22.312887762230744 153.02785046977, -25.423054180951127 148.76845959550903 C-28.53322059967151 144.50906872124807, -31.130924237762162 141.77648155564577, -34.78270536991116 138.81124289490018 C-38.43448650206016 135.84600423415458, -47.84559800138885 132.11320733861555, -47.333740973845124 130.97702763103536 C-46.8218839463014 129.84084792345516, -36.146060379672456 130.6247775579534, -31.711563204648826 131.99416464941902 C-27.277066029625196 133.36355174088465, -24.35428315800763 135.94319874654, -20.726757923703335 139.19335017982908 C-17.09923268939904 142.44350161311817, -13.957908237129672 148.23087624109948, -9.946411798823059 151.4950732491535 C-5.934915360516444 154.75927025720753, -1.5289436873691424 158.07976389858055, 3.3422207061363483 158.77853222815318 C8.213385099641838 159.4773005577258, 15.326106341184227 157.1747903528418, 19.280574562209885 155.68768322658931 C23.235042783235542 154.20057610033683, 25.642255211542093 152.22855690018105, 27.069030032290296 149.8558894706382 C28.4958048530385 147.48322204109536, 27.0490980649804 144.31004248458805, 27.84122348669911 141.45167864933217 C28.633348908417823 138.59331481407628, 30.157168318016282 135.05374933507647, 31.82178256260258 132.7057064591029 C33.486396807188875 130.35766358312935, 40.37899265037033 128.78676292002865, 37.828908954216885 127.36342139349073 C35.27882525806344 125.94007986695281, 23.146623005436986 126.07124325814924, 16.52128038568191 124.16565729987543 C9.895937765926831 122.26007134160163, 2.734203527046553 119.72228958451807, -1.9231467643135727 115.92990564384793 C-6.580497055673698 112.1375217031778, -8.61221982865047 109.40367525345545, -11.422821362478846 101.4113536558546 C-14.233422896307221 93.41903205825375, -18.28651084271077 79.31439942087005, -18.786755967283828 67.97597605824281 C-19.287001091856887 56.637552695615575, -16.632634008678444 40.582458694129635, -14.42429210991721 33.380813480091206 C-12.215950211155977 26.179168266052777, -6.449053129261806 28.22741136983691, -5.536704574716426 24.76610477401223 C-4.624356020171046 21.30479817818755, -8.365559600051492 17.102540113154554, -8.950200782644929 12.612973905143125 C-9.534841965238366 8.123407697131697, -9.140933292615383 -0.013156119715560965, -9.044551670277045 -2.1712924740563473 M-11.152655588971005 -1.6755517501856525 C-8.45280974149919 -0.6152768371981434, 2.1098656278177756 1.005738132533037, 6.916243980446609 3.7237932130928706 C11.722622333075442 6.441848293652704, 13.401953980293207 13.236833829769223, 17.685614526801995 14.63277873317335 C21.969275073310783 16.028723636577475, 23.557285299326402 12.842486761784683, 32.618207259499336 12.09946263351763 C41.67912921967227 11.356438505250578, 63.243169505613224 9.82214856141777, 72.05114628783961 10.17463396357104 C80.859123070066 10.52711936572431, 82.05142923444895 15.306936207189668, 85.46606795285766 14.21437504643725 C88.88070667126637 13.12181388568483, 89.06563692119875 6.610887869952839, 92.53897859829186 3.61926699905653 C96.01232027538498 0.627646128160221, 103.25457314274269 -4.765976111397205, 106.30611801541639 -3.735350178940604 C109.35766288809009 -2.7047242464840036, 110.27201412956705 5.41425894279013, 110.8482478343341 9.803022593796134 C111.42448153910115 14.191786244802138, 107.7235577742183 18.613821024541792, 109.76352024401866 22.597231727095426 C111.80348271381902 26.58064242964906, 120.22193605308098 26.535809954487465, 123.0880226531362 33.70348680911795 C125.95410925319143 40.87116366374843, 127.02708176612875 53.941698336708704, 126.96003984434999 65.60329285487832 C126.89299792257124 77.26488737304793, 125.21396828503224 95.16734737327026, 122.68577112246366 103.67305391813562 C120.15757395989509 112.17876046300098, 116.38609899887496 113.56553512444405, 111.79085686893858 116.63753212407046 C107.1956147390022 119.70952912369687, 101.17137301493452 120.41555238239229, 95.11431834284538 122.10503591589405 C89.05726367075624 123.7945194493958, 77.75918507941519 125.38218644039193, 75.44852883640378 126.77443332508096 C73.13787259339237 128.16668020977, 79.14454094060996 127.70196213308523, 81.25038088477696 130.45851722402824 C83.35622082894396 133.21507231497125, 86.75182276196928 135.75618336274934, 88.08356850140576 143.31376387073902 C89.41531424084225 150.8713443787287, 89.32128250182176 167.41986041237269, 89.24085532139586 175.80400027196637 C89.16042814096996 184.18814013156006, 88.85276505059448 189.95605497488876, 87.60100541885038 193.61860302830112 C86.34924578710627 197.2811510817135, 90.56728895126312 197.0725365606136, 81.73029753093121 197.77928859244057 C72.8933061105993 198.48604062426753, 43.382713785295365 199.00064809068698, 34.57905689685892 197.85911521926295 C25.77540000842248 196.7175823478389, 29.842074166545324 195.54996709896247, 28.908356200312543 190.93009136389628 C27.974638234079762 186.3102156288301, 31.002478587474407 173.12781222273176, 28.97674909946224 170.1398608088658 C26.95101961145007 167.15190939499982, 21.50283863352469 172.39678371483217, 16.753979272239544 173.00238288070042 C12.005119910954399 173.60798204656868, 5.743847625008275 175.2826909742431, 0.4835929317513594 173.77345580407538 C-4.776661761505556 172.26422063390766, -10.161692845990121 168.31764518084114, -14.807548887301952 163.94697185969414 C-19.453404928613782 159.57629853854715, -24.1724627664731 152.01282068678185, -27.391543316119616 147.54941587719335 C-30.610623865766133 143.08601106760486, -31.003578857835898 140.14531597634914, -34.12203218518105 137.1665430021632 C-37.2404855125262 134.18777002797725, -46.4692762299087 130.2614384566017, -46.10226328019053 129.67677803207775 C-45.735250330472354 129.0921176075538, -36.22176407058131 131.84191369689177, -31.91995448687199 133.6585804550196 C-27.618144903162676 135.47524721314744, -23.62572046407647 137.66299749767813, -20.291405777934635 140.57677858084477 C-16.9570910917928 143.4905596640114, -16.08239204745762 148.46286790076311, -11.914066370020986 151.1412669540194 C-7.745740692584352 153.81966600727566, -0.7095400648834449 156.04202490567343, 4.718548286685171 156.6471729003824 C10.146636638253787 157.25232089509137, 16.8871797222282 155.68796672634588, 20.654463739390714 154.7721549222732 C24.421747756553227 153.8563431182005, 25.818980628060842 153.50113767665644, 27.322252389660257 151.1523020759462 C28.82552415125967 148.80346647523598, 28.845759307562304 143.81488315567285, 29.674094308987208 140.6791413180118 C30.50242931041211 137.54339948035076, 31.041202253421595 134.54584528498708, 32.29226239820969 132.33785104997992 C33.54332254299778 130.12985681497275, 39.502590784031185 128.70227286305942, 37.180455177715764 127.43117590796888 C34.858319571400344 126.16007895287834, 24.77708304395738 126.58776267617276, 18.359448760317186 124.71126931943667 C11.941814476676992 122.83477596270058, 3.9530309407023703 120.09037416448503, -1.3253505241253913 116.1722157675523 C-6.603731988953153 112.25405737061958, -10.311460243411478 109.16961432489467, -13.310840028649384 101.2023189378403 C-16.31021981388729 93.23502355078594, -19.14159340076897 79.53423939338842, -19.32162923555283 68.36844344522613 C-19.501665070336692 57.20264749706385, -16.51732057374234 41.54727649491225, -14.39105503735255 34.20754324886661 C-12.26478950096276 26.867810002820963, -7.308991551368012 27.929837881146955, -6.564036017214097 24.330043968952264 C-5.819080483060181 20.730250056757573, -9.375432153064757 16.574533609833324, -9.921321832429053 12.608779775698466 C-10.467211511793348 8.643025941563607, -9.652855111728575 2.888713467251371, -9.839374093399867 0.5355209641431136" stroke="#000000" stroke-width="1" fill="none"></path></g></g></svg>