<svg xmlns="http://www.w3.org/2000/svg" width="325.515" height="447.194" version="1.1" viewBox="0 0 325.515 447.194"><defs><style>@font-face{font-family:&quot;Virgil&quot;;src:url(https://excalidraw.com/FG_Virgil.woff2)}@font-face{font-family:&quot;Cascadia&quot;;src:url(https://excalidraw.com/Cascadia.woff2)}</style></defs><g><g><path fill="none" stroke="#000" stroke-width="1" d="M-24.913975107039757 -0.6736159555613994 C-38.86377144293135 2.2938658603957887, -86.66782459925538 1.5967660483365993, -107.56621574693916 16.93692529361343 C-128.46460689462296 32.277084538890264, -144.6660787291423 57.17929465836713, -150.30432199314248 91.36733951609959 C-155.94256525714266 125.55538437383206, -144.5347465665094 179.4715049747934, -141.39567533094032 222.0651944400082 C-138.25660409537124 264.65888390522304, -143.86192346759728 316.0564343508927, -131.4698945797281 346.9294763073886 C-119.07786569185895 377.8025182638845, -96.93771606763674 397.31120072799223, -67.04350200372534 407.3034461789838 C-37.14928793981393 417.29569162997535, 18.410920125324072 415.73969264130716, 47.89538980374035 406.882949013338 C77.37985948215663 398.0262053853689, 101.03953307969907 386.28308955437876, 109.86331606677234 354.1629844111691 C118.68709905384561 322.0428792679594, 102.92817176453427 258.7073628368596, 100.83808772618002 214.16231815407986 C98.74800368782577 169.61727347130008, 104.22559492900446 120.67629316559507, 97.32281183664688 86.89271631449051 C90.4200287442893 53.109139463385965, 79.81068659877694 26.10757225954368, 59.421389172034516 11.460857047452558 C39.03209174529209 -3.1858581646385637, -11.079875355838354 1.1163672555757944, -25.012972723807643 -0.9875749580562114 M-23.116093547766532 1.5871317224297674 C-36.718451611718365 4.7874383422757525, -83.98276880380375 3.575068293784012, -105.33505143533087 18.18941093784405 C-126.68733406685799 32.80375358190408, -145.21838873711118 55.072899990751004, -151.2297893369292 89.27318758678999 C-157.24118993674722 123.47347518282896, -144.45174706394926 180.3104930545294, -141.4034550342389 223.39113651407797 C-138.35516300452855 266.47177997362655, -144.99832653069524 317.18417554884564, -132.94003715866708 347.75704834408145 C-120.88174778663893 378.32992113931726, -99.30234967834166 397.2021783911013, -69.05371880206997 406.8283732854928 C-38.805087925798276 416.45456817988423, 18.92369606367664 414.3770128582106, 48.551748098963095 405.51421771043033 C78.17980013424955 396.65142256265005, 99.68372322676183 385.75567842103914, 108.71459340964876 353.6516023988111 C117.74546359253569 321.5475263765831, 104.58535432732322 257.34685122218866, 102.7369691962847 212.88976157706233 C100.88858406524619 168.43267193193603, 104.81944314627387 120.35358897707869, 97.62428262341768 86.90906452805325 C90.4291221005615 53.464540079027806, 79.70680272539435 26.419120208867106, 59.5660060591476 12.22261488290966 C39.42520939290084 -1.9738904430477877, -9.29881356451709 3.5900961242484186, -23.22049737406286 1.7300325723085552" transform="translate(183.64771935909357 10.9875749580562) rotate(0 -20.147595690281378 206.5869967713575)"/></g></g><g><g><path fill="none" stroke="#000" stroke-width="1" d="M-3.7975443719142694 -12.985667667935058 C-1.7746536076149408 -16.82647315975402, 1.3639250674211487 -28.864562709165252, 6.319602512427539 -36.19374751273158 C11.27527995743393 -43.52293231629791, 26.074203538043808 -51.811250930105864, 25.936520298124073 -56.960776489333035 C25.798837058204338 -62.11030204856021, 12.227260955861333 -66.44972778743974, 5.49350307290913 -67.09090086809461 C-1.240254810043072 -67.73207394874947, -9.616802593803456 -65.00005623846008, -14.466026999589136 -60.80781497326224 C-19.315251405374816 -56.6155737080644, -22.96486169086566 -47.87300124738211, -23.60184336180496 -41.93745327690761 C-24.23882503274426 -36.00190530643311, -21.627127216414944 -30.148873516616295, -18.28791702522492 -25.19452715041521 C-14.948706834034898 -20.24018078421413, -5.843034532747925 -14.212973190011523, -3.5665822146648187 -12.21137507970111 M-4.7750617125538755 -13.94521768236199 C-2.255478659438572 -17.592549738242596, 3.688952484505352 -27.696112637642287, 8.720856110005574 -34.721338823461785 C13.752759735505796 -41.746565009281284, 26.01760602313691 -50.79989300098602, 25.416360040447458 -56.09657479727898 C24.815114057758006 -61.39325659357195, 11.485857499670729 -65.85596156394018, 5.113380213868854 -66.50142960121956 C-1.259097071933021 -67.14689763849893, -7.707428046957078 -63.94130541709875, -12.818503674363797 -59.969383020955235 C-17.929579301770517 -55.99746062481172, -24.773963758673354 -48.23891639235275, -25.553073550571455 -42.66989522435847 C-26.332183342469555 -37.10087405636419, -21.087090094204456 -31.656947294163402, -17.493162425752413 -26.55525601298954 C-13.89923475730037 -21.453564731815675, -5.862350509108738 -14.054468102805384, -3.989507539859192 -12.059747537315278" transform="translate(45.28927745112492 87.58284842791036) rotate(0 0.16138226628402208 -39.62185878655703)"/></g></g><g><g><path fill="none" stroke="#000" stroke-width="1" d="M-3.1275978021072737 -9.669692973390726 C-0.7501183272670073 -13.881171462464705, 6.375109513736466 -28.752664915123205, 12.27280153171368 -35.73270112344892 C18.170493549690896 -42.71273733177463, 31.83156025893367 -46.81658649823514, 32.258554305756014 -51.549910223345 C32.68554835257836 -56.283233948454864, 21.41164961702544 -62.41416419736079, 14.834765812647735 -64.13264347410811 C8.25788200827003 -65.85112275085542, -1.8444105337477072 -64.9278590371236, -7.202748520510207 -61.86078588382891 C-12.561086507272707 -58.79371273053422, -16.03027310884002 -52.16364194505577, -17.315262107927264 -45.73020455433996 C-18.600251107014508 -39.29676716362415, -17.253171602478524 -29.295035814503994, -14.912682515033662 -23.26016153953403 C-12.5721934275888 -17.22528726456407, -5.193137263551732 -11.819418174872272, -3.272327583258092 -9.520958904520182 M-1.0774979297286413 -10.358753384424878 C1.1298863442749658 -14.435671459840238, 6.304280768995308 -28.05700231549814, 11.697700502166748 -34.67449838337385 C17.091120235338188 -41.291994451249565, 30.78090676049083 -45.35160983273645, 31.2830204693 -50.06372979167915 C31.785134178109168 -54.77584975062185, 20.810269904233323 -60.954280385467854, 14.71038275502177 -62.94721813703006 C8.610495605810216 -64.94015588859227, 0.3670733504359829 -65.22928560622593, -5.316302425969328 -62.02135630105241 C-10.99967820237464 -58.813426995878885, -17.882190247507797 -50.03584257732807, -19.389871903410093 -43.69964230598892 C-20.89755355931239 -37.363442034649765, -16.839892018102383 -29.716218393781077, -14.362392361383096 -24.004154673017485 C-11.884892704663809 -18.292090952253893, -6.637421547638629 -11.696095333524145, -4.524873963094368 -9.427259981407357" transform="translate(258.9961836012392 73.12888268468899) rotate(101.52537890672733 6.287375275902605 -37.20335420151672)"/></g></g><g><g><path fill="none" stroke="#000" stroke-width="1" d="M-1.9497263609269084 -2.7896997107433745 C-3.9207099995457737 -4.549090090154059, -11.680105478083044 -9.983506102245451, -12.088805325246607 -13.51941003587539 C-12.49750517241017 -17.055313969505328, -7.948677671648015 -23.381770343335926, -4.401925443908288 -24.005123312523004 C-0.855173216168561 -24.628476281710082, 8.810442972241695 -20.891252640722158, 9.191708041191758 -17.25952785099786 C9.57297311014182 -13.62780306127356, -0.4008200354855507 -4.640773132697767, -2.114335030207914 -2.2147745741772127 M-0.18292010818844728 -3.565073772497348 C-1.86272777726624 -5.209238434780709, -9.122031857147142 -9.091749905320034, -9.890140251294902 -12.337625313061054 C-10.658248645442661 -15.583500720802073, -8.085295884863859 -22.309540485285805, -4.7915704730750015 -23.04032621894346 C-1.4978450612861445 -23.771111952601114, 9.14792090972213 -19.74373252265512, 9.872212219438241 -16.72233971500699 C10.596503529154353 -13.700946907358858, 1.1427991786524656 -7.127687476522376, -0.44582261477833685 -4.911969373054675" transform="translate(48.21560291475794 61.00571357330011) rotate(0 -1.1082965529042212 -13.14027627730627)"/></g></g><g><g><path fill="none" stroke="#000" stroke-width="1" d="M-0.1322291024029254 1.1689979083836077 C2.034987620187837 1.5528307413747848, 9.303909559447936 1.0573756473590343, 12.4833961146953 2.806352382565107 C15.662882669942663 4.55532911777118, 18.63166099895204 8.313021772562891, 18.944690229081257 11.662858319620044 C19.257719459210474 15.012694866677197, 17.489449249829903 25.0459207324963, 14.361571495470603 22.905371664908024 C11.233693741111301 20.76482259731975, 2.576069442594581 2.8293491169307785, 0.17742370292544374 -1.180436085909605 M-1.660788110503927 0.7371178649459034 C0.3849770562983186 0.712901230433056, 8.108178664783633 -0.5386406931854131, 11.481819333264086 0.9335359164813568 C14.85546000174454 2.4057125261481267, 18.026886577936285 6.246944921085046, 18.581055900378793 9.570177522946523 C19.1352252228213 12.893410124808, 18.103751562701344 22.70286534983664, 14.806835267919126 20.872931527650223 C11.509918973136907 19.042997705463808, 1.0396930782051466 1.9258636745401128, -1.2004418683145195 -1.4094254101719708" transform="translate(254.56119311026532 29.365067541375225) rotate(0 8.658046798162673 10.895877445631243)"/></g></g><g><g><path fill="none" stroke="#000" stroke-width="1" d="M-9.253821476961207 0.9741018064320086 C-12.584850319732718 1.784715949788578, -23.31493309424453 1.7102885542892907, -28.508462651304203 4.01327649754219 C-33.701992208363876 6.31626444079509, -38.92673716277767 11.713832281057066, -40.414998819319244 14.792029465949405 C-41.90326047586082 17.870226650841744, -39.48315168747087 22.288863312863683, -37.438032590553654 22.48245960689622 C-35.392913493636435 22.67605590092876, -28.94429025877329 15.913513368132353, -28.144284237815945 15.953607230144641 C-27.3442782168586 15.993701092156929, -32.251513380075714 20.76073873540209, -32.637996464809596 22.723022778969952 C-33.02447954954348 24.685306822537814, -32.286882675471745 27.4456723834381, -30.46318274621925 27.727311491551816 C-28.63948281696675 28.008950599665532, -24.393466778116995 25.682349725616874, -21.69579688929461 24.412857427652252 C-18.998127000472223 23.14336512968763, -16.573233807451086 21.424780930712068, -14.277163413284933 20.110357703764084 C-11.981093019118783 18.7959344768161, -8.741218632278843 19.701859071703076, -7.919374524297703 16.52631806596436 C-7.097530416316564 13.350777060225646, -9.040267814210313 3.7668504947412638, -9.346098765398096 1.0571116693317888 M-7.29554744494399 0.4399013094697146 C-10.80219931033141 1.461590760255121, -24.30328685851962 2.5557332314726957, -29.420651518197033 5.144482713767591 C-34.53801617787445 7.733232196062486, -36.69672484265592 12.868536878062686, -37.99973540300847 15.972398203239086 C-39.302745963361026 19.076259528415484, -39.20754962915895 23.73582008776342, -37.23871488031235 23.76765066482599 C-35.269880131465754 23.79948124188856, -26.613809073614572 16.420802164447323, -26.1867269099289 16.163381665614523 C-25.75964474624323 15.905961166781722, -34.08402646017531 20.541849247727633, -34.67622189819832 22.22312767182919 C-35.26841733622133 23.904406095930746, -31.831342209321477 25.419513923068767, -29.739899538066968 26.251052210223868 C-27.64845686681246 27.08259049737897, -24.4485072662204 27.902948486171443, -22.127565870671273 27.212357394759803 C-19.806624475122145 26.521766303348162, -18.370463077948422 23.89066475375853, -15.814251164772203 22.107505661754033 C-13.258039251595985 20.324346569749537, -7.87319635657209 20.375129712383647, -6.790294391613965 16.513402842732823 C-5.707392426655839 12.651675973082002, -9.113171522588166 1.6919433873973675, -9.31683937502345 -1.0628555561508983" transform="translate(50.5881822840405 216.6368662136787) rotate(355.93979457950434 -23.732805841296226 13.337182908464202)"/></g></g><g><g><path fill="none" stroke="#000" stroke-width="1" d="M-38.90030074723193 -1.0915039770305157 C-36.24975426569205 -0.12646911765066549, -27.47575866384082 3.2111321941158364, -22.993375412718258 5.516265017543569 C-18.510992161595695 7.821397840971302, -13.49212146630075 10.106673154250014, -12.006001240496552 12.73929296353588 C-10.519881014692354 15.371912772821744, -12.197438528800594 20.918220176575876, -14.07665405789307 21.311983873258757 C-15.955869586985544 21.70574756994164, -22.511968761767196 15.50940309471828, -23.281294415051402 15.101875143633169 C-24.050620068335608 14.694347192548058, -19.08569899923178 17.235368018250874, -18.6926079775983 18.866816166748087 C-18.29951695596482 20.4982643152453, -19.57331028072349 23.957033413381243, -20.922748285250506 24.89056403461645 C-22.272186289777522 25.824094655851656, -24.592659855541164 25.413529269127416, -26.789236004760387 24.467999894159327 C-28.98581215397961 23.522470519191238, -32.11524504859657 20.752671281729274, -34.10220518056584 19.217387784807904 C-36.08916531253511 17.682104287886535, -37.79523427564089 18.33524584289041, -38.71099679657602 15.256298912631102 C-39.62675931751115 12.177351982371798, -39.531839328386596 3.252445235652498, -39.59678030617663 0.7437062032520771 M-40.12713795059489 0.949852489689365 C-37.13264032632668 1.6304979882241262, -25.318916275190418 1.8900747376913762, -20.69537037735698 3.9773269416528043 C-16.071824479523542 6.064579145614232, -13.57660053140048 10.927721725130683, -12.385862563594273 13.473365713457932 C-11.195124595788066 16.019009701785183, -12.071873548153999 18.90540096838044, -13.550942570519732 19.251190871616306 C-15.030011592885465 19.59698077485217, -20.607967563514535 15.27124394901474, -21.260276697788672 15.548105132873115 C-21.91258583206281 15.824966316731489, -17.585821254775027 19.043970690181443, -17.464797376164558 20.91235797476655 C-17.34377349755409 22.780745259351658, -18.843733520351346 26.126833337287348, -20.534133426125862 26.758428840383765 C-22.22453333190038 27.39002434348018, -25.090532984054036 26.16974282417471, -27.607196810811654 24.701930993345048 C-30.123860637569273 23.234119162515388, -33.3707293609316 19.529430557532617, -35.634116386671565 17.951557855405806 C-37.89750341241153 16.373685153278995, -40.55823197249693 18.483420905138892, -41.187518965251456 15.23469478058418 C-41.816805958005986 11.985968656029469, -39.543409531849214 1.0171538917344276, -39.409838343198764 -1.5407988919224591" transform="translate(326.7837413778893 210.86575480466223) rotate(355.93979457950434 -26.36848928182144 12.693598390658977)"/></g></g><g><g><path fill="none" stroke="#000" stroke-width="1" d="M-1.9552103044031062 -0.5956025831401348 C-0.39081523585187705 0.5086293143353628, 4.219962363648314 4.571583925485888, 7.246381869561436 7.399494025750021 C10.272801375474558 10.227404126014154, 14.690683729640153 13.721027122241809, 16.203306731075624 16.37185801844466 C17.715929732511096 19.02268891464751, 18.095656922901416 23.08363266950241, 16.322119878174263 23.30447940296712 C14.548582833447112 23.525326136431833, 6.109931266539957 17.58077489856854, 5.562084462712717 17.69693841923293 C5.0142376588854765 17.81310193989732, 12.69023239411963 22.17368060053704, 13.03503905521082 24.001460526953455 C13.379845716302011 25.82924045336987, 9.666805367006562 28.193158318744093, 7.630924429259858 28.663617977731427 C5.595043491513154 29.13407763671876, 3.182474609451153 27.78164467479256, 0.8197534287305946 26.82421848087746 C-1.542967751989964 25.866792286962358, -3.4122087520907467 25.640190886084344, -6.5454026550634925 22.919060814240826 C-9.678596558036238 20.197930742397308, -18.563350524378805 14.285463577861384, -17.97940998910588 10.497438049816344 C-17.395469453832952 6.709412521771304, -5.411526041743857 1.9934437281974908, -3.041759443425933 0.19090764597058296 M-2.832345194819743 1.7061021153721958 C-0.9608794004103021 2.4413419145758466, 5.995039932676676 3.770918493578488, 9.573883758274304 5.903164084605807 C13.152727583871933 8.035409675633126, 17.53962012751116 11.509888753406136, 18.640717758766023 14.499575661536113 C19.741815390020886 17.489262569666092, 18.61545485614277 23.19966816282599, 16.18046954580349 23.841285533385676 C13.745484235464213 24.482902903945362, 4.30922948904265 18.455273326088115, 4.030805896730359 18.34927988489423 C3.752382304418069 18.243286443700345, 13.803827191512937 21.168145572863573, 14.509927991929747 23.205324886222375 C15.216028792346556 25.242504199581177, 10.715484541033035 30.065567750687762, 8.267410699231213 30.57235576504705 C5.81933685742939 31.079143779406337, 2.47816396234163 27.672398050987766, -0.1785150588811908 26.24605297237809 C-2.835194080104011 24.819707893768417, -4.315986433242152 24.61774402661471, -7.672663428105709 22.01428529338899 C-11.029340422969266 19.410826560163272, -21.14570398323969 14.08165090388474, -20.318577028062535 10.625300573023784 C-19.491450072885378 7.168950242162829, -5.783111568368552 3.1984880275708942, -2.709901697042758 1.2761833082232625" transform="translate(261.653388701827 405.3634494015064) rotate(9.529215850092593 -0.6317383021294063 15.008638754161979)"/></g></g><g><g><path fill="none" stroke="#000" stroke-width="1" d="M-4.672870503260778 -0.9042083390057087 C-6.940087935694541 0.28869692702385086, -14.804356554064604 4.3541380166053205, -18.1327683967754 7.0380914736862366 C-21.461180239486197 9.722044930767153, -24.332172504742047 12.104121317175565, -24.643341559525556 15.199512403479787 C-24.954510614309065 18.29490348978401, -22.030122209259577 25.23951577570174, -19.999782725476443 25.610437991511567 C-17.96944324169331 25.981360207321394, -12.889048224902426 17.730627343847814, -12.461304656826757 17.42504569833875 C-12.033561088751087 17.119464052829684, -16.81366054870306 21.842069015414815, -17.433321317022422 23.776948118457177 C-18.052982085341785 25.71182722149954, -17.96188883887429 28.398007415923125, -16.17926926674294 29.034320316592925 C-14.396649694611586 29.670633217262726, -9.639283792220903 28.83963739111387, -6.737603884234306 27.594825522475983 C-3.835923976247709 26.350013653838094, -2.061556236896191 24.465565902019637, 1.2308101811766439 21.56544910476559 C4.523176599249479 18.665332307511544, 14.003140143612622 13.782782002669336, 13.016594624202703 10.194124738951695 C12.030049104792784 6.605467475234054, -1.808906651253365 1.8494194588446238, -4.688462935282872 0.03350552245974536 M-2.822211936281086 1.2354783376771956 C-4.6476956892414485 2.644825464203753, -12.013834444170525 6.0769047138351375, -15.757198236298912 8.585307834376309 C-19.5005620284273 11.09371095491748, -24.700930524221036 13.365763046770706, -25.282394689051408 16.28589706092422 C-25.86385885388178 19.206031075077735, -21.17219292227485 25.814127815448458, -19.245983225281133 26.106111919297398 C-17.319773528287417 26.398096023146337, -14.161277611144532 18.53592405112221, -13.725136507089115 18.037801684017857 C-13.288995403033697 17.539679316913507, -16.296303706514895 20.964198280307826, -16.629136600948627 23.11737771667128 C-16.96196949538236 25.270557153034737, -17.300143188376094 30.212302614365537, -15.722133873691508 30.956878302198596 C-14.14412455900692 31.701453990031656, -9.765759778435259 29.39730683800132, -7.161080712841105 27.584831843669633 C-4.556401647246952 25.772356849337946, -3.0496855328730237 22.976319804337592, -0.09405948012659326 20.082028336208474 C2.861566572619837 17.187736868079355, 11.344758933671043 13.393396912618117, 10.572675603637478 10.219083034894911 C9.800592273603913 7.0447691571717055, -1.996588513639308 2.9882402269643915, -4.726559460327984 1.0361450698692352" transform="translate(91.81623639038526 404.07106266881794) rotate(359.84348169846226 -6.145041998867839 15.094060689672219)"/></g></g><g><path fill="none" stroke="#000" stroke-width="1" d="M20.670553291667417 3.3199808303928293 C27.12605873909432 -0.17298947524800434, 37.29903666871188 -0.7674093540999252, 45.193915988299494 0.3947673627729884 C53.08879530788711 1.556944079645902, 62.4169212389427 5.528941947289514, 68.0398292091931 10.29304113163031 C73.66273717944351 15.057140315971107, 77.77924106631352 22.011227356931464, 78.93136380980192 28.97936246881777 C80.08348655329033 35.94749758070407, 78.76930263494371 46.025405415572436, 74.95256567012358 52.10185180294813 C71.13582870530344 58.17829819032383, 63.20766578399492 62.51387344341255, 56.030942020881085 65.43804079307195 C48.85421825776725 68.36220814273135, 39.767408629721324 70.89418512565518, 31.892223091440556 69.64685590090453 C24.017037553159792 68.39952667615387, 14.24127304783833 63.25784693997083, 8.779828791196497 57.95406544456803 C3.3183845345546628 52.65028394916523, -0.3733661584339405 44.73729680431, -0.8764424484104509 37.8241669284877 C-1.3795187383869614 30.911037052665403, 1.6662295143437396 22.146621098015093, 5.761371051337434 16.475286189634247 C9.856512588331128 10.8039512812534, 20.273120542105154 6.005275896690181, 23.694406773551716 3.796157478202616 C27.115693004998278 1.5870390597150519, 25.9406481083208 2.9229798638897573, 26.289088440016812 3.2205756787088617 M41.28058337936269 -0.7515861516123152 C48.666416509377015 -0.7882954393640199, 57.36832771063065 3.55554645617823, 63.616279955318355 7.762623768519088 C69.86423220000606 11.969701080859945, 76.46300221888988 17.694097675180036, 78.76829684748893 24.490877722432835 C81.07359147608797 31.287657769685634, 80.16250499625136 41.65928626706578, 77.4480477269126 48.54330405203588 C74.73359045757385 55.42732183700598, 69.46607972321489 62.23409340203992, 62.48155323145646 65.79498443225343 C55.49702673969803 69.35587546246694, 43.536898316928635 70.61822355725306, 35.540888776362 69.90865023331693 C27.544879235795374 69.1990769093808, 20.179983358047988 66.08194759279623, 14.50549598805668 61.53754448863671 C8.831008618065372 56.9931413844772, 3.055297992555581 49.46384826214809, 1.4939645564141628 42.64223160835983 C-0.0673688797272558 35.82061495457157, 1.624855657066174 26.927202136595927, 5.137495371208168 20.60784456590715 C8.650135085350161 14.288486995218374, 16.399046288452496 8.363304041517083, 22.569802841266124 4.7260861842271815 C28.740559394079753 1.0888683269372805, 39.26707564947071 -0.32550914699196853, 42.162034688089946 -1.2154625778322554 C45.05699372670918 -2.105416008672542, 40.002650313234604 -1.555490041062622, 39.93955707298155 -0.61363440081454" transform="translate(66.63547152677631 36.70778705679416) rotate(0 40.15329311812087 34.75956717688071)"/></g><g><path fill="none" stroke="#000" stroke-width="1" d="M57.12121625828601 3.8945164796801137 C64.05414253846493 6.588474775920885, 71.70619515085768 13.112718893479723, 75.42212637237166 19.40375312964735 C79.13805759388565 25.694787365814975, 80.50513281677371 34.37763660621187, 79.41680358736988 41.64072189668586 C78.32847435796606 48.90380718715985, 74.40858047500842 57.67818088743595, 68.89215099594868 62.98226487249128 C63.37572151688895 68.28634885754661, 54.337742857582256 72.42981553942926, 46.3182267130115 73.46522580701783 C38.29871056844074 74.5006360746064, 27.793993712168675 72.90624490119899, 20.775054128524125 69.19472647802274 C13.756114544879576 65.4832080548465, 7.445461900714154 57.71036049575547, 4.204589211144196 51.19611526796034 C0.9637165215742378 44.68187004016521, -0.08824739710619944 37.147501961388606, 1.3298179911043775 30.109255111251983 C2.7478833793149544 23.071008261115363, 6.937957098249029 13.810631424466642, 12.712981540407657 8.966634167140612 C18.488005982566285 4.122636909814581, 26.63619629624243 1.0002451101232979, 35.979964644056146 1.0452715672957993 C45.32373299186986 1.0902980244683007, 62.34417312435741 6.1546014073656625, 68.77559162728993 9.23679291017562 C75.20701013022244 12.318984412985577, 75.00730216734064 18.994476399319954, 74.56847566165126 19.53842058415554 M32.09638420087633 -0.2950256029337197 C39.68410367966389 -1.7257018450561628, 51.22800139092634 0.34851623634070394, 58.613472799756806 3.8780183697612216 C65.99894420858728 7.40752050318174, 72.73929277037848 14.608530047903411, 76.40921265385916 20.881987197589385 C80.07913253733983 27.15544434727536, 82.10158481404288 34.50710380453863, 80.63299210064082 41.518761267877075 C79.16439938723876 48.53041873121552, 73.31084332610487 57.5916658378457, 67.59765637344682 62.951931977620056 C61.884469420788776 68.31219811739442, 54.136560963131856 72.81121976372897, 46.35387038469255 73.6803581065232 C38.57117980625324 74.54949644931743, 28.006399140425756 71.96157277974761, 20.901512902810964 68.16676203438546 C13.796626665196172 64.3719512890233, 6.8763495193951325 57.37779869937331, 3.724552959003802 50.91149363435027 C0.5727563986124706 44.445188569327236, 0.2967725044957781 36.029731905827575, 1.9907335404629762 29.36893164424725 C3.684694576430174 22.708131382666924, 8.683777422564969 15.932933933510487, 13.888319174806991 10.946692064868312 C19.092860927049013 5.9604501962261365, 29.782661879697187 1.1169000788704786, 33.21798405391511 -0.5485195676058012 C36.65330622813303 -2.213939214082081, 34.45312160091389 -0.03464786618373472, 34.50025222011452 0.9541741860106328" transform="translate(159.5274182925791 30.71475823319406) rotate(0 40.153293118120814 36.55747582396077)"/></g><g><path fill="none" stroke="#000" stroke-width="1" d="M12.161517588127737 -0.2406104034776071 C14.128722112034492 -0.3026827803401095, 15.843716384857498 1.8664004928871594, 17.54219833145524 3.597390743986548 C19.24068027805298 5.328380995085936, 21.863337027771724 7.828684767668072, 22.352409267714187 10.145331103118723 C22.84148150765665 12.461977438569374, 22.04010889976496 15.673476496830439, 20.47663177111001 17.49726875669045 C18.913154642455062 19.32106101655046, 15.158346760690025 20.568406382465003, 12.971546495784493 21.088084662278778 C10.78474623087896 21.607762942092553, 9.186674242448776 21.409708105110315, 7.355830181676821 20.6153384355731 C5.524986120904867 19.820968766035886, 3.1899216580892915 18.39355574356232, 1.9864821311527674 16.321866645055497 C0.783042604216243 14.250177546548674, -0.28683033012190967 10.560278891997292, 0.13519302005767564 8.185203844532158 C0.557216370237261 5.810128797067023, 2.2689726563441215 3.4349918541923374, 4.518622232230279 2.0714163602646902 C6.768271808116436 0.7078408663370428, 11.58326438489923 0.0015198839300444669, 13.63309047537462 0.0037508809662725184 C15.682916565850011 0.00598187800250057, 16.832398795653653 1.7469508257992008, 16.817578775082623 2.0848023424820585 M6.364386883917498 0.21683157613774107 C8.322182823717178 -0.8644034705163786, 11.155287112898193 0.06861390808859491, 13.3658415217361 0.9869206527435317 C15.576395930574005 1.9052273973984684, 18.535933178684623 3.755843856778985, 19.62771333694493 5.726672044067362 C20.719493495205235 7.697500231355739, 20.183244064484963 10.416354829074233, 19.916522471297935 12.811889776473794 C19.649800878110906 15.207424723873356, 19.51098113014908 18.38533809700045, 18.027383777822763 20.099881728464723 C16.543786425496446 21.814425359928997, 13.62979562837047 23.294302448658478, 11.014938357340025 23.099151565259433 C8.40008108630958 22.90400068186039, 4.2898811382647875 20.712078359252196, 2.3382401516400897 18.928976428070463 C0.38659916501539215 17.14587449688873, -0.5600549110612917 14.561648648155362, -0.6949075624081598 12.400539978169041 C-0.8297602137550278 10.23943130818272, 0.062150390113768994 7.898432590442674, 1.529124243558881 5.962324408152538 C2.996098097003993 4.026216225862402, 7.265356414046949 1.6480889650547401, 8.106935558262512 0.7838908844282244 C8.948514702478075 -0.08030719619829119, 6.4193347843674395 0.8272666157019657, 6.5785991088522575 0.7771359243934448" transform="translate(77.85878005097379 66.01914621222033) rotate(0 10.78745188248024 11.087103323660244)"/></g><g><path fill="none" stroke="#000" stroke-width="1" d="M13.668096891239138 0.8901011689832625 C15.923307945674534 1.4219499752525393, 18.912948075511366 2.343013194269579, 20.212309927988613 4.390822301994941 C21.51167178046586 6.438631409720303, 21.8778693857889 10.738350345939452, 21.46426800610263 13.176955815335434 C21.050666626416355 15.615561284731417, 19.288948543599503 17.56678149753935, 17.730701649870966 19.022455118370832 C16.17245475614243 20.478128739202315, 14.487032895844472 21.60777487975551, 12.114786643731417 21.910997540324335 C9.742540391618363 22.21422020089316, 5.39157937612504 22.19040358496706, 3.497224137192643 20.841791081783775 C1.6028688982602466 19.49317857860049, 1.1875894384779964 16.17459520806658, 0.7486552101370378 13.819322521224608 C0.3097209817960794 11.464049834382633, 0.031232572537078007 8.816708205294885, 0.8636187671468925 6.7101549607319315 C1.696004961756707 4.603601716168978, 3.269860846500974 2.132600507351153, 5.742972377795924 1.1800030538468853 C8.216083909090875 0.22740560034261736, 13.803424317783566 0.8148261268177285, 15.702287954916592 0.9945702397063236 C17.601151592049618 1.1743143525949187, 17.361522672768498 2.0175783012511954, 17.136154200594085 2.258467731178456 M7.009063083908991 0.4934246592107101 C9.110045933510078 -0.4059129662961497, 14.216787201350344 -1.031448230413267, 16.677846664027896 0.09081415404930127 C19.138906126705447 1.2130765385118696, 20.981874669234628 4.766026907480397, 21.7754198599743 7.2269989659861205 C22.56896505071397 9.687971024491844, 21.989070046551387 12.559537598534318, 21.439117808465912 14.856646505083647 C20.889165570380438 17.15375541163298, 20.46951244089614 19.989754312131435, 18.475706431461457 21.009652405282097 C16.481900422026776 22.02955049843276, 11.911772371784048 21.11089324007846, 9.476281751857833 20.976035063987617 C7.040791131931618 20.841176887896772, 5.392557690656527 21.488378198667952, 3.8627627119041703 20.20050334873704 C2.332967733151814 18.91262849880613, 0.5770360037157907 16.008512520916653, 0.29751187934369305 13.248785964402135 C0.017987754971595382 10.489059407887614, 1.0758671806977627 5.5359286844060325, 2.185617965671584 3.6421440096499182 C3.2953687506454057 1.748359334893804, 6.1291756961242765 2.1640392586695794, 6.956016589186622 1.8860779158654495 C7.782857482248968 1.6081165730613198, 6.827533213780605 2.0950236346550333, 7.146663324045656 1.97437595282514" transform="translate(172.11277882213903 60.67990235119461) rotate(0 10.78745188248024 11.087103323660244)"/></g><g><path fill="none" stroke="#000" stroke-width="1" d="M10.512037204768742 -0.09063024366762917 C13.602567890144778 -0.9834963829044288, 18.503279653590173 -0.14638520913991881, 22.113468435686247 0.7147433530584006 C25.72365721778232 1.57587191525672, 29.981550269001254 3.3500341676135754, 32.17316989734518 5.076141129522288 C34.36478952568911 6.802248091431, 35.79991836488985 8.907327443848533, 35.26318620574983 11.071385124510677 C34.72645404660982 13.23544280517282, 31.813097813502104 16.310813758245594, 28.952776942505075 18.060487213495147 C26.092456071508046 19.8101606687447, 21.69638723921825 21.238202204517627, 18.10126097976765 21.569425856008007 C14.506134720317046 21.900649507498386, 10.301884527019828 21.50534229834139, 7.382019385801467 20.04782912243742 C4.462154244583106 18.59031594653345, 1.5133147987941062 15.005834224557995, 0.5820701324574848 12.824346800584191 C-0.34917453387913644 10.642859376610387, 0.03753672671369768 8.952432709718325, 1.7945513877817394 6.9589045785945975 C3.5515660488497813 4.96537644747087, 9.328259642537049 2.060335978861705, 11.124158098865735 0.8631780138418268 C12.92005655519442 -0.33397995117805146, 12.273357948528075 -0.24929985390706655, 12.569942125753851 -0.22404321152467155 M13.456439339296132 0.554036284189154 C17.164858412296248 -0.011382273212351302, 22.57554839903755 0.176078551789284, 26.03535841858469 0.9106031462775306 C29.495168438131827 1.6451277407657772, 32.848409191875454 2.8758186226186466, 34.215299456578954 4.9611838511186335 C35.582189721282454 7.04654907961862, 35.22800067608027 11.0500816261315, 34.236700006805705 13.422794517277453 C33.24539933753114 15.795507408423406, 31.542963356938237 18.015647521929708, 28.26749544093155 19.197461197994357 C24.992027524924865 20.379274874059007, 18.2894742292774 20.583964902521302, 14.583892510765592 20.513676573665347 C10.878310792253785 20.44338824480939, 8.549885207491027 20.110648218905943, 6.034005129860706 18.775731224858628 C3.5181250522303853 17.440814230811313, 0.08474073457033915 14.770807916965527, -0.5113879550163318 12.504174609381458 C-1.107516644603003 10.237541301797389, 0.2102740703183401 7.21205011931311, 2.45723299234068 5.175931379354213 C4.704191914363021 3.139812639395316, 11.132037190374241 0.8415399555176916, 12.970365577117708 0.287462169628073 C14.808693963861174 -0.2666156162615455, 13.316383820237004 1.6490196649528184, 13.48720331280148 1.8514646640165022" transform="translate(138.51186388448764 97.47709932809948) rotate(0 17.37978358844032 10.787451882480212)"/></g><g><g><path fill="none" stroke="#000" stroke-width="1" d="M-4.261185338364589 0.8109283693134783 C-6.74270631673779 2.051315957244304, -15.958547525410903 3.684376981158627, -18.70804476821225 6.496598036951227 C-21.457542011013597 9.308819092743827, -22.136226244647464 14.672754384635567, -20.758168795172672 17.684254704069076 C-19.38011134569788 20.695755023502585, -14.244824764839837 23.731106545288746, -10.439700071363507 24.56559995355228 C-6.634575377887177 25.400093361815813, -1.6917629480153589 23.482244008784868, 2.0725793656853098 22.69121515365027 C5.836921679385979 21.90018629851567, 8.927258093799317 20.179921583686216, 12.146353810840504 19.819426822744685 C15.36544952788169 19.458932061803154, 17.26858167225522 19.569790716779018, 21.38715366793243 20.528246588001085 C25.505725663609642 21.486702459223153, 32.53861491833525 25.221581252218726, 36.85778578490376 25.570162050077098 C41.176956651472274 25.91874284793547, 45.06208274123466 25.02830447971802, 47.30217886734352 22.619731375151325 C49.54227499345238 20.21115827058463, 51.295169552213686 14.293902885804146, 50.29836254155693 11.118723422676918 C49.30155553090018 7.943543959549691, 44.756680775216694 5.272860558190677, 41.32133680340301 3.568654596387961 C37.88599283158932 1.8644486345852442, 33.18791684154073 0.9604671671858883, 29.68629871067483 0.8934876518606193 C26.184680579808926 0.8265081365353503, 23.91960552010296 2.5637514461263793, 20.31162801820758 3.1667775044363466 C16.703650516312198 3.769803562746314, 11.959163207413395 4.859449026934078, 8.038433699302551 4.511644001720423 C4.117704191191708 4.163838976506769, -1.254543273786714 1.7617190082318377, -3.2127490304574846 1.0799473531544208 M-2.486466767515662 0.19106181786395604 C-5.065393490977916 1.6787282120639504, -16.37210996435526 4.711886698215155, -19.486349788106867 7.794982703999457 C-22.600589611858474 10.87807870978376, -22.764674208997224 15.711067257293118, -21.171905710025307 18.68963785256977 C-19.57913721105339 21.66820844784642, -13.554148712129797 24.904846911697348, -9.929738794275357 25.66640627565937 C-6.305328876420917 26.42796563962139, -2.8205360384170235 24.366397230043763, 0.5745537971013297 23.258994036341907 C3.969643632619683 22.15159084264005, 6.857401481852719 19.65140630946886, 10.44080021883476 19.021987113448233 C14.0241989558168 18.392567917427606, 17.287779926443747 18.4287186509581, 22.07494621899357 19.482478860218137 C26.862112511543394 20.536239069478174, 34.66892567682722 25.06220441849114, 39.16379797413371 25.344548369008454 C43.658670271440194 25.626892319525766, 47.132941877061704 23.609649987229886, 49.04418000283249 21.17654256332201 C50.95541812860328 18.74343513941413, 51.92416265764571 14.050095194775805, 50.63122672875842 10.745903825561179 C49.33829079987113 7.441712456346552, 44.95562714613686 3.0331312455416812, 41.28656442950878 1.3513943480342563 C37.617501712880696 -0.33034254947316843, 32.014265961820506 -0.061147807839988966, 28.616850428989938 0.6554824405166305 C25.21943489615937 1.37211268887325, 24.39314604597708 5.028475915916614, 20.902071232525362 5.651175838173973 C17.410996419073644 6.273875760431332, 11.61404445185489 5.151999462307637, 7.670401548279624 4.391681974060783 C3.72675864470436 3.6313644858139296, -1.0124773566915448 2.1156031091551526, -2.7597861889262227 1.0892709086928516" transform="translate(143.24134227719424 113.2380607201788) rotate(0 14.528133150031067 12.959417809851786)"/></g></g><g><g><path fill="none" stroke="#000" stroke-width="1" d="M0.6943150050938129 -2.5623435183145373 C0.9731386643469826 0.7175783296202876, 1.4657682376514078 13.86013535451767, 2.633538875323829 18.811492583904702 C3.8013095129962506 23.762849813291734, 5.198018216289493 26.210675973228923, 7.700938831128341 27.145799858007653 C10.20385944596719 28.080923742786382, 16.113173981473185 29.89251129651978, 17.651062564356916 24.42223589257709 C19.188951147240648 18.9519604886344, 16.650965983667632 -5.768325771914857, 16.928270328430735 -5.675852565648478 C17.205574673193837 -5.583379359382099, 17.216937493199154 19.436209425545822, 19.314888632935524 24.977075130175365 C21.412839772671894 30.517940834804907, 26.985093295174174 28.082595049011395, 29.51597716684896 27.569341662128775 C32.046861038523744 27.056088275246154, 33.58185694692726 26.693623700239755, 34.500191862984245 21.89755480887965 C35.41852677904123 17.101485917519547, 37.70007662265588 3.4583803404238838, 35.02598666319086 -1.207071686031842 C32.351896703725835 -5.872523712487568, 24.433389022825285 -6.151010674298578, 18.4556521061941 -6.095157349854707 C12.477915189562918 -6.0393040254108366, 2.4024211393691437 -1.6771394210787096, -0.8404348365962505 -0.8719517393686149 M-0.4003083465714008 -0.32615174984524864 C-0.39007466583433303 3.046917147337794, 0.32740975794111193 15.44796125882928, 1.5263946563705026 20.192899487888724 C2.7253795547998934 24.937837716948167, 4.0622452421243365 27.3134400469603, 6.7936010440049435 28.14347762451142 C9.524956845885551 28.97351520206254, 15.957777068807143 30.818139994214988, 17.914529467654145 25.173124953195444 C19.871281866501146 19.5281099121759, 18.063832429177353 -6.062134572371904, 18.53411543708695 -5.726612621605841 C19.004398444996546 -5.391090670839778, 18.822330631158916 21.848371881285278, 20.73622751511173 27.186256657791823 C22.65012439906454 32.524141434298365, 27.848994294330932 27.22772534488594, 30.017496740803825 26.300696037433426 C32.18599918727672 25.37366672998091, 33.136369107375614 25.890120702902845, 33.74724219394909 21.624080813076727 C34.35811528052257 17.35804092325061, 36.066892172713096 5.451797152368801, 33.68273526024467 0.7044566984767231 C31.29857834777624 -4.042883755415355, 25.216318415906283 -6.236277261613707, 19.44230071913851 -6.859961910275743 C13.66828302237074 -7.483646558937779, 2.158984850861488 -3.9502219741059075, -0.961370920361951 -3.0376511934954946" transform="translate(141.90285706056852 139.56148692659676) rotate(0 17.651941518621584 11.297529649217537)"/></g></g></svg>