<svg xmlns="http://www.w3.org/2000/svg" width="227.349" height="255.455" version="1.1" viewBox="0 0 227.349 255.455"><defs><style>@font-face{font-family:&quot;Virgil&quot;;src:url(https://excalidraw.com/FG_Virgil.woff2)}@font-face{font-family:&quot;Cascadia&quot;;src:url(https://excalidraw.com/Cascadia.woff2)}</style></defs><g><g><path fill="none" stroke="#000" stroke-width="1" d="M-0.008861788272576549 0.03803798953029569 C61.824850210253075 1.737277124769512, 120.67574437268358 0.8622615551367525, 205.80530893194685 -1.3813043594004226 M0.07734376597285257 0.7955279124947464 C45.46755022426144 0.2904509022334772, 92.26646355787452 -0.08585080485592622, 205.47583209788456 -0.70249186086156 M205.91582781877992 -1.9295299655656735 C199.9463070043474 56.13381538269887, 194.0120133427203 117.6259994989569, 186.0161826087216 203.556099015606 M206.15839697444952 -2.3541405829447926 C198.1851413451796 65.39538987196026, 192.51254295706303 129.9135401311263, 185.40731175713918 202.36982395741413 M184.78608378679553 202.17166328315434 C169.5385787777264 210.8597636896062, 150.11043521206375 214.75891398772808, 106.09184627131545 233.10077572781654 M184.48305159532526 202.50474882197378 C168.10367679282922 208.97253831647777, 150.37156845974684 214.68895272032185, 107.97074575432562 231.4577201118699 M106.35811690882765 230.25071907956215 C78.3043320542639 220.00169635789433, 48.34121773596001 210.81988338089525, 28.624285784914505 203.5248604072116 M108.66353054054998 230.87213594820412 C88.9094342338741 226.10409886826648, 69.97213273147234 219.13442869395547, 27.168056185721767 203.86587777452988 M27.54768620716265 205.29862334832495 C20.299555787098758 143.36846630064144, 9.16026512491323 81.95907880391242, -1.1910687811376475 2.0716937842053937 M28.463868921732367 203.9206917931253 C21.809680557555247 153.79663581023854, 15.501014208739129 104.0715705994325, 0.3454167177480751 0.8890328258308856" transform="translate(11.191068781137574 12.354140582944751) rotate(0 102.48366409665596 115.37331757243588)"/></g></g><g><g><path fill="none" stroke="#000" stroke-width="1" d="M-0.10076077654957771 0.17614151281758936 C-1.3866445569063577 78.1104458835302, 0.7706898069760748 152.81821559805135, 3.6563243434272863 193.6851956513477 M-0.47090511582791805 0.9387402080510536 C0.14201590119738738 51.51506198771692, 0.5049077156771407 104.46719521074834, 2.8689467158608295 196.17973539091176 M3.7643613383613683 196.73897811442143 C17.86997250392477 189.21955672927493, 33.33660526475308 184.51901910139838, 65.00869257901513 169.10206356325415 M3.0815221514992572 195.40858909345692 C26.80465979645799 186.16298697505073, 52.54378798026422 176.8853634775695, 66.71681521800065 171.88997003303137 M65.13165266965234 172.50859871187475 C71.19981926698446 108.0426062827313, 77.39232780913458 42.176978987303556, 82.79078489081826 0.4494824663686927 M67.01055215266251 170.8655430959281 C72.56979841115081 114.01465797009723, 77.36633077526788 54.66739043947854, 81.96033301303055 -0.29311022414384524 M83.20698838965859 -0.9914250119638268 C64.20964180372076 -1.0315446776257784, 50.15270220749952 1.1841766902434312, -1.357010681182146 -0.26300500588968606 M81.75075879046585 -0.6504076446455542 C55.92350127353843 -0.006175990721118074, 28.48900317592097 -0.5738019886151433, 0.4510087464004755 0.642783834836332" transform="translate(115.90000330359203 28.513069413980446) rotate(0 40.92498885423822 97.8737765512288)"/></g></g><g><g fill-rule="evenodd"><path fill="#fff" fill-rule="evenodd" stroke="none" stroke-width="0" d="M1.6413019113242626 -0.7154384665191174 L-128.93021734431386 2.8468697674588483 L-123.82078643515706 77.32645218280226 L-29.875498134642832 76.3756356928328 L-34.14647646620869 111.99423184900546 L-61.26787670329213 124.02590840794718 L-95.33088536933064 114.89206924944185 L-94.75872023776172 95.64653766745151 L-120.18163033202289 94.85337758654178 L-114.81189592555164 129.39181030813987 L-61.81882854178548 149.4572749358924 L-11.203770954161882 131.61704548763328 L-4.175097186118364 48.50225947746391 L-100.02321251109242 51.514519490432534 L-100.99555345252156 23.66092924210779 L-0.6715877838432771 22.882980787658717 L-1.8378145284950733 -1.1451049856841564" transform="translate(178.01715657515774 50.2385234532785) rotate(0 -64.55834044050425 74.8296959231303)"/><path fill="none" stroke="#000" stroke-width="1" d="M1.644096989184618 -1.7942350693047047 C-37.142480927151155 0.5365801785322657, -70.95090071913275 1.5201116787632563, -130.18447993323207 2.3374400965885442 M-0.7953694853931665 0.7195705864578485 C-35.358952570224815 -0.31696917090590593, -71.53972213480871 0.32300799783267986, -130.76077787019312 3.8597250495121997 M-129.22716353461146 4.957317911835126 C-127.62621988156997 25.017794909868407, -125.85592865595781 42.781054592913314, -121.95220575854182 75.58429307696491 M-129.8418454322964 3.6474347624943775 C-126.88492719310398 30.854396064054107, -124.15970992672318 56.43069119147029, -121.36686418391764 76.60744176079601 M-123.71733198687434 75.17612523791462 C-98.08365550000319 76.9417507828276, -73.17580541163781 76.85773246625678, -29.107272129505866 75.41312965935263 M-121.84330222941935 76.46654734780162 C-86.19847710169978 75.93611299985972, -51.70616933610417 74.45032141995439, -31.06422285176813 75.44481533764097 M-29.32628629729151 75.38023647850547 C-29.759895004838267 83.57098282808582, -33.28754047764794 93.51802994968489, -31.536275725811713 112.99417155145669 M-31.499996224418275 76.22834414242003 C-30.707111128535367 86.68389999479085, -33.059346197288725 97.97391144318398, -33.64100084640085 113.80787559322083 M-33.47187314555048 111.77112334131265 C-43.75046504068321 116.01948079452664, -48.95424083772248 119.89460896725394, -60.918781977146864 123.17743416615403 M-33.584449389949434 113.60322995952332 C-43.704916936898265 116.10981224297407, -53.44191491305236 120.69224844380003, -60.020110765472054 122.93549292088127 M-60.36490796133876 123.23005123921311 C-71.80890363908443 119.26487944414971, -86.68595592339594 114.42602780931321, -94.1023250631988 114.72660653947852 M-61.503949323669076 122.5644501924572 C-67.71106594965792 121.73603839706266, -75.11185693952254 118.7206997494549, -93.32173083163798 112.79075821212493 M-92.39051469589586 115.54063999313202 C-95.57032891498031 104.99202945046028, -95.63160896774552 99.95584745141493, -95.48037711959475 91.88485596079882 M-94.3581456704314 113.31089264071184 C-94.51199968557069 109.91693577196004, -93.85450679494899 104.93222788598845, -96.92054475667102 94.3004842113367 M-96.45142696425317 95.00014319860757 C-100.50361664863301 92.0629467588515, -107.23449819702654 94.20715244828173, -120.35250220820306 94.69704249346078 M-95.02606801129876 94.50216126100541 C-101.85341639658435 93.49043046739334, -105.49769936744123 94.40268641021484, -119.53454242087899 94.43393641368867 M-119.40638576075433 92.68407729112924 C-120.15462230740692 102.83245452973277, -117.82076709939744 116.02373964612426, -114.8290483765304 129.42584911261136 M-119.17959008552133 94.33811646358491 C-117.85076235633656 106.47787519560217, -117.07417511668369 120.59362144820983, -114.7349185142666 129.16843044843907 M-115.88174174353479 130.86433044348294 C-103.7297609920424 132.66563691053673, -87.67577117586477 140.80113703020734, -60.67645559832454 148.9416287389906 M-114.89496556855737 129.53707277860875 C-95.71274862527176 136.79822640816107, -77.16078075603842 143.40588268640786, -59.56117389537394 150.7047118672492 M-61.17815409228206 151.4536269155653 C-39.52885557334607 142.98166948466204, -20.89667902007436 134.06644043756432, -9.707101803272963 133.3336280466824 M-59.19081018306315 150.5314688214423 C-43.89512932343716 144.49891877570752, -27.432700535155178 137.59241386979585, -10.557314911857247 132.69666357467167 M-9.639250736683607 132.57246338146024 C-10.188457074441434 108.83197037918428, -5.5176987520944785 90.26441268994128, -3.6513336710631847 47.090894706038185 M-10.095505276694894 132.70956249663823 C-9.422809928922982 110.13786039280691, -7.070339762407423 90.14042960650045, -3.339613536372781 48.13351634652669 M-2.5266283564269543 49.74113751151914 C-25.323703239683777 46.566251739793756, -49.559436840110244 49.31190651971405, -100.5324666313827 49.308878958356175 M-4.209697822108865 48.29495958001668 C-29.500871394524626 48.439191441138306, -56.40669995643785 48.32327854229388, -98.65910736657679 50.23395040458122 M-98.3948523811996 50.08634954704026 C-98.51662905889164 45.70652399767904, -99.36705711970637 39.0424022512089, -99.04178486391902 26.024469675455016 M-98.76880041696131 51.24071529334465 C-100.23455825062481 43.590440251448484, -100.07686893144636 36.38142592747328, -100.46409962512553 25.46863147612266 M-101.46645699068904 24.676238359842223 C-62.842880537063806 22.463178825215962, -23.621944661700155 24.614948551911276, -2.4135412983596307 25.044881568753745 M-101.70549128390849 24.251870363909525 C-74.25571189491629 24.54747836132755, -48.55001207875638 23.97401757252309, -1.4626591596752387 23.07659800303879 M-1.5069451145827752 23.349268661344077 C-3.0059133702011325 17.371218526325325, -2.4073521030189022 9.993790860903141, 0.20004238560795784 0.245995681732893 M-1.2122142706066352 22.301838233599092 C-1.7863488208623888 17.860463932293214, -1.541624914866901 12.726607659194457, -0.18512044288218021 0.05110163427889347 M0 0 C0 0, 0 0, 0 0 M0 0 C0 0, 0 0, 0 0" transform="translate(178.01715657515774 50.2385234532785) rotate(0 -64.55834044050425 74.8296959231303)"/></g></g></svg>