<svg version="1.1" xmlns="http://www.w3.org/2000/svg" viewBox="0 0 587.6833880618706 422.8550172448158" width="587.6833880618706" height="422.8550172448158">
  <!-- svg-source:excalidraw -->
  
  <defs>
    <style>
      @font-face {
        font-family: "Virgil";
        src: url("https://excalidraw.com/FG_Virgil.woff2");
      }
      @font-face {
        font-family: "Cascadia";
        src: url("https://excalidraw.com/Cascadia.woff2");
      }
    </style>
  </defs>
  <g><g transform="translate(160.26164998672903 121.87288678716868) rotate(0 -58.806041655596346 90.85342611884698)" fill-rule="evenodd"><path d="M-0.2925729248672724 1.2123437318950891 L26.044282307848334 34.551282146945596 L-95.05948478914797 102.60974303819239 L31.906196584925056 141.01535091735423 L20.00413160584867 180.43674592114985 L-148.83764017559588 128.271083811298 L-148.51334483362734 73.33153597451746 L0.5730259325355291 0.5347894225269556" stroke="none" stroke-width="0" fill="#000000" fill-rule="evenodd"></path><path d="M-0.6534645762294531 0.6114408280700445 C8.204124454408884 13.964698788383977, 17.03115189773962 25.44566492927261, 25.31883696652949 32.57921134494245 M-0.6165267275646329 -0.3616662723943591 C9.058733060099184 11.794279063446448, 17.60216577684507 25.226097126444802, 24.12369569670409 33.91497560311109 M26.631014147773385 32.68392716906965 C-7.931166492654015 53.52937365545891, -39.10134367045947 72.80485404961743, -94.23612179420888 99.16487174294889 M24.742147053591907 33.180423934943974 C-13.116365593979133 56.88857946169563, -51.98230534254573 77.38467572095803, -93.21340555418283 100.70049404073507 M-94.97291006706655 101.65815263055265 C-47.29150212388486 113.57423489985987, -5.715229748561981 127.72689256889745, 30.29665176011622 142.67711257003248 M-94.54837674368173 100.30620573926717 C-57.207081483304506 112.75006527585909, -20.66097384933383 124.66679477451369, 32.075411583296955 141.19253732729703 M31.48111287690699 141.7996811773628 C29.276590509852397 152.6738312320877, 23.581468339497224 163.63891000199132, 19.32639835216105 181.57485716603696 M32.649566675536335 140.23299481440336 C26.669527951674535 157.18772267348132, 21.303779306216164 174.47473742880857, 18.75574159156531 181.4023664491251 M18.38669870235026 181.33306114934385 C-26.739300877554342 165.4126929230802, -67.22235394711606 153.4088398213312, -147.22787567041814 125.2135132458061 M18.734384293667972 182.46423964668065 C-36.70104412273504 165.7706133380346, -91.54494343311526 146.39579128444194, -148.17732885945588 126.15862520504743 M-148.8527712430805 125.87932526133955 C-149.2797707297001 111.76629382716492, -148.22552126423454 93.55669523905962, -148.3748983349651 72.28247289918363 M-148.41602471936494 126.07077153492719 C-150.25269306461325 107.04651790196075, -148.8452546374034 88.29614904224871, -148.28047091234475 74.38859020639211 M-150.26164998672903 72.89349060319364 C-110.59588316801933 51.314244472878045, -69.89380328861994 34.21704699256456, 1.5113679561764002 -0.7573874089866877 M-148.22551900614053 74.97205459047109 C-102.9599214953929 49.46634109682404, -57.483808543216426 27.42625586288981, 0.5566364778205752 -0.6005791230127215 M0 0 C0 0, 0 0, 0 0 M0 0 C0 0, 0 0, 0 0" stroke="#000000" stroke-width="1" fill="none"></path></g></g><g><g transform="translate(534.8230828838423 121.87288678716868) rotate(0 -54.004890840010376 91.28605029918253)" fill-rule="evenodd"><path d="M-117.13935633898367 -1.2531979773193598 L-142.7298075042562 35.565602293238044 L-14.796100892313456 101.27935152314603 L-148.4226262178272 139.40983926318586 L-133.9250947809452 183.65658943913877 L43.30678492747281 127.20936035178602 L40.11150932274793 75.06064467690885 L-116.83906068802466 -1.6818305347114801" stroke="none" stroke-width="0" fill="#000000" fill-rule="evenodd"></path><path d="M-114.37835354880085 -0.8875130619853735 C-122.35455064836412 9.399817625077468, -125.26668065142208 15.536795989999574, -141.06086647211475 33.01816479302943 M-114.28106562663456 -0.7022221731022 C-126.61674523169037 12.328582210597649, -136.27995603629458 26.601602587421493, -141.7781994322212 34.63884749542922 M-141.05730116068287 33.11931292153895 C-106.31638316506212 53.34006737191238, -70.70671466981473 71.71754617402338, -14.02002718690846 99.13318512775004 M-140.73158502372814 33.76295986305922 C-109.87226378228969 50.94359278514544, -78.07625166137777 67.45219526284868, -15.038901147619521 101.06822764407843 M-14.226041343250012 102.623844364658 C-47.91713340362865 109.55099501634537, -81.32244857282045 117.53639273146688, -150.74209089018404 140.53063992597163 M-16.39591985680226 100.41811668407172 C-52.889457742762474 111.32943811111198, -89.81116525658288 123.52460602141963, -149.30865396093577 141.9646516693756 M-150.87008685804904 142.03727511502802 C-146.0015064415855 156.97848953409445, -139.59165896913177 170.0335846729609, -137.16654817896426 183.45961366035044 M-149.8732608659193 141.82474120985717 C-144.71217587893392 155.9327375013441, -138.12209798242955 169.5586287236832, -136.2587905102083 181.8300421787426 M-135.6633033021027 182.59306464530528 C-82.44926470822753 164.95194359905173, -29.415503218609047 149.862607438947, 40.486081909016114 125.05395642854273 M-135.09275318911762 181.61756854783744 C-95.01323539955659 169.02197678778035, -54.208118866111676 157.65377630265144, 41.11047656331245 127.20831396710128 M40.93941528685425 127.909438053146 C42.0098143382467 114.50452081663533, 41.67406405643594 102.12808601725845, 42.76645399220322 75.89478395320475 M41.43757803235237 126.7233259929344 C43.18723665724542 112.97935593044386, 43.50571556936052 100.71697899997234, 41.366006712057036 74.90412401687354 M41.754348527267915 72.55188606120646 C-21.596094682018233 46.79342622484151, -84.07709084405963 14.959500600463485, -113.64844406918277 0.5729775819927454 M41.52677975092117 73.57948302756995 C7.623744659982805 60.39807398789949, -23.736392734888916 44.002974448030955, -115.15935893227001 -0.7983785020187497 M-115.21825975515534 0 C-115.21825975515534 0, -115.21825975515534 0, -115.21825975515534 0 M-115.21825975515534 0 C-115.21825975515534 0, -115.21825975515534 0, -115.21825975515534 0" stroke="#000000" stroke-width="1" fill="none"></path></g></g><g><g transform="translate(203.26164998672903 410.8728867871687) rotate(0 83.72362503642216 -199.44537816476077)" fill-rule="evenodd"><path d="M-1.1596313212066889 -0.5635059680789709 L111.00341485999525 -398.16129316948354 L168.21741585992277 -401.1190256681293 L58.51197372935712 -0.5161102022975683 L-0.155575105920434 -1.7659378852695227" stroke="none" stroke-width="0" fill="#228be6" fill-rule="evenodd"></path><path d="M-0.30562037756765154 0.7784897228487313 C26.810693027814008 -89.27809408311325, 52.02822186280066 -176.45288832530522, 111.3174830834835 -400.59859025050423 M0.15069739701959983 0.4088036333459411 C33.649280231857446 -113.98500098756881, 65.5743316346532 -227.3242106804467, 112.4189722866007 -399.4741459923492 M112.11197433806956 -398.88672704435885 C127.86280688159167 -400.9349809475243, 148.09396512396634 -401.35613848641515, 168.27047506906092 -399.8979413602501 M111.43264334928244 -400.8728867871687 C125.40517480727286 -400.00484024379404, 137.48542854767294 -399.2398185918108, 168.79903497826308 -399.7825642628595 M167.06060453405425 -400.7244699721164 C134.41069179660388 -285.79567661595985, 105.01410997171307 -171.17009878900976, 59.298075425417096 0.4271420161201175 M168.2714644009845 -400.422621725708 C126.4691023588119 -247.07649425167799, 85.08367521355903 -95.02549811274513, 59.15491608930373 1.1445789470160532 M58.679026344791055 -0.7193105909973383 C43.94588557743467 -1.1994297095853836, 30.800393125703557 0.4296350743342191, -1.3517849054187536 -0.009169468656182289 M58.7485235882923 1.9821304576471448 C37.63709127197973 -0.5212271542008966, 14.75270673011429 -0.697761358851567, -0.7797171222046018 0.2747940616682172 M0 0 C0 0, 0 0, 0 0 M0 0 C0 0, 0 0, 0 0" stroke="#000000" stroke-width="1" fill="none"></path></g></g></svg>