<svg version="1.1" xmlns="http://www.w3.org/2000/svg" viewBox="0 0 357.02147948091124 472.82246674720795" width="357.02147948091124" height="472.82246674720795">
  <!-- svg-source:excalidraw -->
  
  <defs>
    <style>
      @font-face {
        font-family: "Virgil";
        src: url("https://excalidraw.com/FG_Virgil.woff2");
      }
      @font-face {
        font-family: "Cascadia";
        src: url("https://excalidraw.com/Cascadia.woff2");
      }
    </style>
  </defs>
  <g><g transform="translate(182.35749943202336 11.180778380092235) rotate(0 -28.894457901532576 114.7872886569452)"><path d="M6.238053230247185 -0.8370136264711618 C6.532100356271477 7.396814786278648, 12.657153964573505 35.410760095411035, 9.665107414024316 49.00554004428353 C6.673060863475127 62.60031999315602, 1.1237368064108448 68.07617926403037, -11.714226073047946 80.73166606676378 C-24.55218895250674 93.38715286949719, -57.63324004956794 109.17946872535524, -67.36266986272842 124.93846086068395 C-77.0920996758889 140.69745299601266, -78.50678091669567 158.0060377130029, -70.09080495201086 175.28561887873607 C-61.67482898732604 192.56520004446924, -20.694303513445025 225.77032498884188, -16.866814074619505 228.615947855083 C-13.039324635793983 231.4615707213241, -40.74869652116286 202.42283842807694, -47.12586831905773 192.3593560761827 C-53.5030401169526 182.29587372428847, -54.73657605341582 177.34524184745214, -55.12984486198871 168.23505374371763 C-55.5231136705616 159.1248656399831, -55.28600579797839 147.5161252386119, -49.4854811704951 137.69822745377567 C-43.68495654301181 127.88032966893945, -29.69788539060407 118.4913285760151, -20.326697097088953 109.32766703470027 C-10.955508803573833 100.16400549338543, 0.3906385743387242 92.60016704919008, 6.741648590595615 82.71625820588665 C13.092658606852506 72.83234936258322, 17.700570517213652 63.8491942997658, 17.779363000452395 50.02421397487973 C17.85815548369114 36.19923364999366, 8.8858427238243 8.125849172031142, 7.214403490028069 -0.23362374342977998 M7.827607931079998 1.3379502742923797 C7.965108900101842 9.792234021824791, 12.280142430579277 36.97700266004826, 8.987561170934134 50.43083983808201 C5.694979911288991 63.88467701611576, 0.7885744093652018 69.97211147383877, -11.927879626790862 82.0609733424949 C-24.644333662946927 94.14983521115104, -57.91954038928536 107.34577022587311, -67.31116304600225 122.96401105001885 C-76.70278570271914 138.5822518741646, -76.40704941835367 157.80519418004206, -68.2776155670922 175.77041828736935 C-60.148181715830724 193.73564239469664, -22.132483067210828 228.2150851597375, -18.53455993843341 230.75535569398264 C-14.936636809655994 233.29562622822777, -40.50048721935216 201.50404613293765, -46.690076794427696 191.01204149284018 C-52.879666369503234 180.52003685274272, -55.449454721742704 176.89904304041005, -55.67209738888665 167.80332785339783 C-55.89474005603059 158.70761266638561, -53.51862052680542 146.2905500290725, -48.025932797291375 136.43775037076693 C-42.53324506777733 126.58495071246136, -31.978825066192236 118.0122482599074, -22.715971011802367 108.68652990356436 C-13.4531169574125 99.36081154722133, 0.9846997385800069 90.27662614021641, 7.551191529047829 80.48344023270877 C14.11768331951565 70.69025432520114, 16.71735344947652 63.538117560652026, 16.68297973100456 49.92741445851853 C16.648606012532603 36.31671135638503, 8.920568962652451 7.206123645776518, 7.344949218216076 -1.1807783800922333" stroke="#000000" stroke-width="1" fill="none"></path></g></g><g><g transform="translate(183.2496292734147 248.91048590635162) rotate(355.731347096947 27.966370659723225 -62.08459745812807)"><path d="M2.410789250508971 16.259964801382072 C4.998654253106032 12.09501817942381, 16.1743421436831 -2.0629812921376995, 18.166659507199277 -10.10579640896322 C20.158976870715456 -18.14861152578874, 18.72035287453886 -24.767191752140352, 14.364693431606044 -31.996925899571057 C10.009033988673227 -39.226660047001765, -3.406260005745974 -44.98283938799228, -7.967297150397627 -53.48420129354746 C-12.52833429504928 -61.985563199102636, -14.571143506060327 -73.66459436707996, -13.001529436303873 -83.00509733290212 C-11.431915366547418 -92.34560029872429, -5.504716209084522 -102.13074605394759, 1.450387268141097 -109.52721908848045 C8.405490745366716 -116.92369212301331, 17.23054826986502 -122.23574829245456, 28.72909142704984 -127.38393554009929 C40.227634584234664 -132.53212278774402, 69.1416470563473 -141.39874374538564, 70.44164621125002 -140.41634257434885 C71.74164536615274 -139.43394140331205, 46.16574415168518 -128.3105972644337, 36.52908635646619 -121.48952851387847 C26.892428561247193 -114.66845976332323, 17.371908184929456 -107.41620873295764, 12.621699439936055 -99.48993007101744 C7.871490694942653 -91.56365140907724, 5.7633962379553765 -81.82845648697977, 8.027833886505775 -73.93185654223726 C10.292271535056173 -66.03525659749474, 20.91309977232239 -59.06538793960841, 26.20832533123844 -52.11033040256233 C31.503550890154493 -45.15527286551626, 38.63508359268354 -39.61955595785307, 39.79918724000208 -32.20151131996081 C40.96329088732061 -24.783466682068543, 39.733125797854605 -15.411834647112794, 33.19294721514963 -7.602062575208734 C26.65276863244465 0.20770949669532612, 6.028259198233479 10.783621653478617, 0.5581157437722162 14.657121111463555 M1.450745717641987 15.838589779168167 C3.8631220736125753 11.861181850757156, 15.700368636975401 -0.9181235794330105, 17.73296221974035 -8.767559338801371 C19.7655558025053 -16.61699509816973, 17.847002842548303 -23.466585968361173, 13.646307214231689 -31.258024777041996 C9.445611585915074 -39.04946358572282, -2.844471201233504 -46.89545676650655, -7.4712115501593335 -55.5161921908863 C-12.097951899085164 -64.13692761526606, -15.784621767907375 -74.36377198598214, -14.114134879323291 -82.98243732332053 C-12.443647990739208 -91.60110266065891, -4.737558236052077 -99.62822980480873, 2.551709781345165 -107.22818421491665 C9.840977798742406 -114.82813862502458, 18.492410451867535 -123.06636084907228, 29.62147322506016 -128.5821637839681 C40.750535998252786 -134.09796671886392, 68.44292656301202 -141.2856775325341, 69.32608642050091 -140.3230018242916 C70.2092462779898 -139.3603261160491, 44.23490470905581 -129.4613324266136, 34.92043236999355 -122.80610953451308 C25.605960030931286 -116.15088664241256, 17.904894598151262 -108.18905610314633, 13.439252386127336 -100.39166447168842 C8.97361017410341 -92.5942728402305, 6.157989860025183 -84.09972555538108, 8.126579097849987 -76.02175974576564 C10.095168335674792 -67.94379393615019, 19.993898972838586 -59.18717982240277, 25.250787813076162 -51.92386961399572 C30.507676653313737 -44.66055940558867, 37.92910922659608 -39.71818136594745, 39.667912139275444 -32.441898495323365 C41.406715051954805 -25.165615624699278, 42.226051674214986 -15.986856854890743, 35.68360528915234 -8.2661723902512 C29.14115890408969 -0.5454879256116572, 6.2212675489447955 10.24971883940699, 0.4132338288995401 13.882208292513884" stroke="#000000" stroke-width="1" fill="none"></path></g></g><g><g transform="translate(122.27308458951984 252.6234015151155) rotate(0 35.97137811885989 21.505277171035274)"><path d="M9.188786192308699 1.0552985731512308 C-0.8028033479301069 3.1536091590840405, -35.90538176814343 9.127324932215881, -50.46691408594741 13.449211592551341 C-65.02844640375139 17.7710982528868, -79.73418178015093 22.68485739528667, -78.1804077145152 26.986618535163984 C-76.62663364887946 31.2883796750413, -57.43662482908698 36.75197767211066, -41.14426969213299 39.25977843181522 C-24.85191455517899 41.76757919151978, -3.1424999555802593 42.53931343432279, 19.573723107208792 42.03342309339135 C42.28994616999785 41.527532752459905, 73.47210628018527 39.690581467153685, 95.15306868460131 36.22443638622658 C116.83403108901734 32.75829130529947, 150.54755080207224 22.5224382484751, 149.65949753370498 21.236552607828695 C148.77144426533772 19.95066696718229, 110.38733942324339 26.83853567223059, 89.82474907439783 28.509122542348152 C69.26215872555227 30.179709412465712, 44.95953791727567 31.28451450381056, 26.28395544063157 31.26007382853405 C7.608372963987467 31.23563315325754, -11.1681979118221 30.32001979764058, -22.22874578546679 28.362478490689096 C-33.28929365911148 26.404937183737612, -45.2094013667915 24.159040271517313, -40.07933180123657 19.514825986825155 C-34.949262235681644 14.870611702132997, 0.34002142017968495 3.6281821063620727, 8.551671607862746 0.49719278253614907 M7.724934364664886 0.5637263787165283 C-2.421827031262014 2.2513910446111147, -37.3175731605875 7.6866202643124, -51.248311643466785 11.74771257473903 C-65.17905012634607 15.80880488516566, -77.06920614917468 20.143540250319052, -75.85949653261082 24.930280241276307 C-74.64978691604696 29.717020232233562, -59.63652956085983 37.61067026534991, -43.99005394408367 40.468152520482555 C-28.34357832730751 43.3256347756152, -4.822331703849752 42.870992717368026, 18.01935716804612 42.07517377207219 C40.861046039941996 41.279354826776355, 71.04277815659344 39.41272756543216, 93.06007928729159 35.693238848707544 C115.07738041798973 31.973750131982932, 150.86186080175423 21.000432898742165, 150.12316395223502 19.758241471724528 C149.3844671027158 18.51605004470689, 109.45710246471731 26.570310660069755, 88.62789819017632 28.240090286601728 C67.79869391563534 29.9098699131337, 43.58997590148145 29.776450101133438, 25.1479383049891 29.776919230916363 C6.705900708496749 29.777388360699288, -11.134979539022643 29.854093200186924, -22.02432738877779 28.24290506529927 C-32.91367523853294 26.631716930411613, -45.60218705211467 24.761224036354996, -40.18814879354179 20.109790421590436 C-34.77411053496891 15.458356806825876, 2.192533899939436 3.638092589387087, 10.4599021626595 0.334303376711905" stroke="#000000" stroke-width="1" fill="none"></path></g></g><g><g transform="translate(98.55357927206217 302.22771611563724) rotate(356.02019383861546 70.68561028484066 20.443789579100823)"><path d="M3.209447632566157 -0.6286929901689291 C-0.12948507413262877 2.825255809574903, -16.11324734333796 13.6402261247195, -17.139328444376588 19.649100047570947 C-18.165409545415216 25.657973970422393, -14.395352314501984 31.785364801163496, -2.947038973665615 35.42455054693974 C8.501274367170755 39.06373629271599, 32.20055536386276 41.055136537140726, 51.55055160064162 41.48421452222842 C70.90054783742048 41.913292507316115, 95.58685574599504 40.29719741506732, 113.15293844700754 37.99901845746592 C130.71902114802006 35.70083949986452, 150.94021542299782 30.692776379595983, 156.94704780671668 27.69514077662001 C162.95388019043554 24.69750517364404, 152.1128007315496 21.106360900888884, 149.1939327493207 20.013204839610083 C146.2750647670918 18.92004877833128, 148.75205040531935 20.048744379434254, 139.4338399133432 21.136204408947208 C130.11562942136706 22.223664438460162, 110.33958852372649 25.508575518812012, 93.28466979746376 26.537965016687817 C76.22975107120104 27.567354514563622, 53.085836314448045 28.671814788640866, 37.10432755576685 27.31254139620204 C21.122818797085657 25.953268003763213, 3.0286449376707187 22.960802986535437, -2.6043827546234164 18.382324662054852 C-8.23741044691755 13.803846337574267, 2.4389882767226614 2.930680701818777, 3.3061614020020396 -0.15832855068147178 M5.165302790574792 1.6556392446532846 C1.768320144005172 4.83094053935218, -16.368224216102487 12.39160090819818, -17.8980213413015 17.724272585098927 C-19.427818466500515 23.056944261999675, -15.583179015271348 30.032691963153603, -4.013479960619291 33.65166930605776 C7.556219094032766 37.27064664896192, 31.70999178827459 38.75077932074529, 51.52017298661084 39.43813664252389 C71.33035418494708 40.125493964302485, 97.12966312182097 39.89203590909249, 114.84760722939819 37.775813236729356 C132.56555133697543 35.65959056436622, 151.96916051201765 29.37116845605104, 157.8278376320742 26.740800608345072 C163.68651475213073 24.110432760639103, 153.13672329359002 23.06235315248623, 149.99966994973735 21.993606150493548 C146.86261660588468 20.924859148500865, 148.17402726075383 19.823533057089413, 139.0055175689581 20.328318596388975 C129.8370078771624 20.833104135688536, 111.88384761597547 23.979217469143638, 94.988611798963 25.022319386290913 C78.09337598195054 26.06542130343819, 53.81342077247881 27.48118839147074, 37.63410266688332 26.58693009927262 C21.454784561287834 25.6926718070745, 3.291827138497423 24.198819092388458, -2.087296834609929 19.656769633102193 C-7.466420807717281 15.114720173815929, 4.634433907906345 2.7867435694229723, 5.3593588282392055 -0.6653666564449667" stroke="#000000" stroke-width="1" fill="none"></path></g></g><g><g transform="translate(118.22983945730903 351.0885176461186) rotate(357.8522053648726 55.49824057320342 21.054592164344115)"><path d="M1.7043888819611461 0.028698157891631215 C-1.3516007767223854 2.256051708334527, -14.899991775046443 7.916115623785537, -15.981808648368041 13.81271881691421 C-17.06362552168964 19.709322010042882, -15.066244484327807 30.65989029228173, -4.786512357968446 35.40831731666367 C5.493219768390915 40.15674434104561, 28.75375331467464 42.02442819081758, 45.69658410978812 42.30328096320586 C62.6394149049016 42.582133735594134, 83.37194595341346 39.993954533429736, 96.87047241271243 37.081433950993315 C110.3689988720114 34.16891336855689, 123.85724555403142 27.996865108518975, 126.68774286558197 24.828157468587346 C129.5182401771325 21.659449828655717, 117.80004872685701 19.970823104336233, 113.85345628201569 18.069188111403534 C109.90686383717436 16.167553118470835, 108.31841729933811 13.192388561825915, 103.00818819653396 13.418347510991147 C97.69795909372982 13.644306460156379, 91.25103206425003 17.541950121148076, 81.9920816651908 19.424941806394923 C72.73313126613156 21.30793349164177, 60.40287982764687 24.92637458025105, 47.45448580217857 24.716297622472233 C34.506091776710264 24.506220664693416, 11.936981522129093 22.153355219728233, 4.301717512380967 18.164480059722017 C-3.333546497367159 14.1756048997158, 1.7766512312442206 3.6854708856185194, 1.6429017436898143 0.7830466624349355 M3.4068207657544702 -1.001839254554361 C0.26179730968763026 1.3450808062082444, -15.186447598248128 9.337073855193685, -16.67324482885904 15.07685033583323 C-18.16004205946995 20.816626816472777, -15.891456181567236 28.77605284781612, -5.513962617911007 33.43681962928291 C4.863530945745222 38.0975864107497, 28.716471515339613 42.424692489454046, 45.59171655307833 43.04145102463396 C62.46696159081704 43.65820955981387, 82.06990543427652 40.28605527441754, 95.73750760852128 37.13737084036236 C109.40510978276605 33.988686406307174, 124.54211377648784 27.01083130263083, 127.59732959854692 24.149344420302846 C130.652545420606 21.287857537974862, 118.34220470015363 21.761810105118276, 114.06880254087577 19.968449546394446 C109.7954003815979 18.175088987670616, 107.02193204932331 13.182885096847727, 101.95691664287975 13.389181067959866 C96.89190123643618 13.595477039072005, 93.14927410212375 19.343360323252675, 83.67871010221441 21.20622537306728 C74.20814610230507 23.069090422881885, 58.344745618710625 24.96997501880489, 45.133532643423706 24.56637136684749 C31.922319668136787 24.16276771489009, 11.373750954535964 22.750626931871206, 4.41143225049291 18.784603461322884 C-2.5508864535501434 14.818579990774563, 3.3994680847488485 3.847806407513958, 3.359620419165382 0.7702305435575547" stroke="#000000" stroke-width="1" fill="none"></path></g></g><g><g transform="translate(275.70208432356276 258.8246191011019) rotate(7.898677094155006 33.128835947234734 38.71316435516374)"><path d="M-0.8170021947473287 1.6222619829419118 C3.047236926540717 0.9817368433986513, 16.750734634731657 -2.451827507656399, 24.088007854655288 -0.6005363119172914 C31.42528107457892 1.2507548838218163, 39.30810531620486 5.976554909098474, 43.20663712479445 12.730009157376557 C47.105168933384036 19.48346340565464, 48.963705481935094 30.913705088340137, 47.479198706192825 39.92018917775121 C45.99469193045056 48.926673267162286, 41.320094572837164 58.734513568975494, 34.29959647034084 66.768913693843 C27.279098367844508 74.8033138187105, 4.070766146922875 87.0299175443225, 5.356210091214847 88.12658992695626 C6.64165403550682 89.22326230959001, 32.40700656999272 80.05476094827333, 42.01226013609267 73.3489479896455 C51.617513702192625 66.64313503101766, 58.96749079559076 57.118001779662514, 62.98773148781456 47.89171217518927 C67.00797218003835 38.665422570716025, 67.58552074014311 26.424593085069596, 66.13370428943541 17.991210362806015 C64.68188783872772 9.557827640542435, 60.588727276021054 2.061550802860048, 54.27683278356837 -2.7085841583922132 C47.96493829111569 -7.478719119644475, 37.34062023834648 -11.44207248899767, 28.262337334719348 -10.629599404707552 C19.184054431092214 -9.817126320417433, 4.550717272964128 -0.16636016293591416, -0.19286463819444188 2.1662543473484974 M0.9549329236708584 3.8623631472419064 C5.117400172319248 3.341773818860641, 19.442495959118705 -0.8009380206692552, 26.351309779699797 0.9066875114698846 C33.26012360028089 2.6143130436090245, 38.76453167262105 7.963205475277779, 42.40781584715741 14.108116340076744 C46.05110002169377 20.25302720487571, 49.24318552318196 28.94477611557805, 48.21101482691795 37.77615270026367 C47.17884413065395 46.607529284949294, 43.159650374567775 58.782618906911935, 36.21479166957339 67.09637584819046 C29.269932964579002 75.41013278946899, 5.47353367639186 86.85133254162079, 6.5418625969516455 87.65869434793484 C7.610191517511431 88.46605615424889, 33.36034115480628 78.66850448387021, 42.6247651929321 71.94054668607478 C51.88918923105793 65.21258888827936, 57.95169759245667 55.95429329401821, 62.12840682570658 47.29094756116228 C66.30511605895649 38.62760182830635, 68.87321020362069 28.43268461141774, 67.68502059243154 19.9604722889392 C66.4968309812424 11.488259966460662, 61.59479562727119 1.4469339984577263, 54.99926915857168 -3.542326373708956 C48.40374268987217 -8.531586745875638, 37.56285493388164 -10.84108431161994, 28.111861780234474 -9.975089944060892 C18.66086862658731 -9.109095576501845, 2.991027473398306 -0.5226750047241768, -1.7066897633112967 1.6536398316453258" stroke="#000000" stroke-width="1" fill="none"></path></g></g><g><g transform="translate(77.27388664477928 387.71263995504097) rotate(358.7170044765501 91.58961999537371 24.890949560115615)"><path d="M6.980947289078985 -0.8503346856683492 C0.09281601002923079 0.29762933819902393, -20.92904505390036 1.8020324989689396, -33.31968640544125 6.45820733536258 C-45.710327756982146 11.11438217175622, -67.5244747856201 21.06931577490484, -67.36290082016636 27.086714332693493 C-67.20132685471262 33.10411289048214, -51.944307883396675 38.77600531016538, -32.35024261271882 42.56259868209449 C-12.75617734204097 46.3491920540236, 22.042881987704277 48.76447025048305, 50.201490803900754 49.806274564268136 C78.36009962009723 50.84807887805322, 111.43951623439585 50.30007328026013, 136.60141028446003 48.813424564805004 C161.7633043345242 47.32677584934988, 184.004919561059 43.997242595304584, 201.17285510428584 40.88638227153738 C218.34079064751268 37.77552194777017, 231.38080925938294 34.21272897856073, 239.60902354382094 30.14826262220175 C247.83723782825894 26.083796265842764, 250.45352578388128 19.982900852858283, 250.54214081091382 16.499584133383475 C250.63075583794637 13.016267413908668, 240.53741849938373 9.055483811771996, 240.1407137060162 9.248362305352904 C239.74400891264864 9.441240798933812, 250.8073403622308 14.635220618550806, 248.16191205070848 17.656855094868924 C245.51648373918616 20.67848957118704, 238.68878602976815 24.40764894327125, 224.26814383688222 27.37816916326161 C209.84750164399628 30.34868938325197, 184.73329829895545 33.749233426620314, 161.63805889339292 35.47997641481107 C138.5428194878304 37.210719403001825, 113.41675199007811 38.21121470595387, 85.69670740350709 37.76262709240614 C57.97666281693607 37.31403947885841, 15.40574670096752 35.42382192602062, -4.682208626033213 32.78845073352469 C-24.770163953033943 30.15307954102876, -32.043291382179575 26.10610220080306, -34.8310245584973 21.950399937430554 C-37.61875773481502 17.794697674058046, -28.51976001569615 11.502329092683418, -21.408607683939536 7.854237153289651 C-14.297455352182922 4.2061452138958835, 3.107391573933259 1.2938519176564174, 7.835889432042395 0.06184830106794825 M5.468210614271019 1.317635659016669 C-1.5982134768877296 2.133266369657342, -22.161173997366014 0.045802468573849175, -33.903178114934356 4.549898393901434 C-45.6451822325027 9.05399431922902, -65.31427198703749 22.338606156239564, -64.98381409113902 28.342211210982178 C-64.65335619524056 34.34581626572479, -50.86831047502898 36.90690462709466, -31.920430739543615 40.57152872235713 C-12.972551004058253 44.2361528176196, 20.373809481015744 49.145499888199765, 48.70346432177315 50.32995578255698 C77.03311916253055 51.51441167691419, 112.57115845773167 48.96183592278527, 138.05749830500082 47.67826408850041 C163.54383815226998 46.394692254215556, 184.3194368919216 45.64332066298727, 201.62150340538807 42.628524776847854 C218.92356991885453 39.61372889070844, 233.92521437019664 34.19183306557821, 241.86989738579956 29.589488771663913 C249.81458040140248 24.987144477749617, 249.43691020449225 18.512268164715923, 249.28960149900564 15.014459013362071 C249.14229279351903 11.51664986200822, 241.62692917956008 8.085526602803297, 240.9860451528799 8.602633863540806 C240.34516112619974 9.119741124278315, 247.92290623416244 15.135424629417388, 245.44429733892466 18.117102577787126 C242.96568844368687 21.098780526156865, 240.08659457056686 23.71372183846286, 226.1143917814533 26.492701553759233 C212.14218899233973 29.271681269055605, 185.06802209315498 32.881503231954824, 161.61108060424323 34.79098086956537 C138.15413911533147 36.70045850717591, 113.11252529213401 38.42427824607728, 85.3727428479828 37.949567379422476 C57.6329604038316 37.47485651276767, 15.575891997757221 34.41744326190704, -4.8276140606640245 31.942715669636556 C-25.231120119085272 29.467988077366073, -34.637786808856745 26.97736106725474, -37.04829350254469 23.101201825799578 C-39.45880019623263 19.225042584344415, -26.623017526619 12.459019335830732, -19.29065422279169 8.685760220905577 C-11.95829091896438 4.912501105980422, 2.8121185379077938 1.74912993245786, 6.9458863204191665 0.46164713624864806" stroke="#000000" stroke-width="1" fill="none"></path></g></g><g><g transform="translate(76.82564075086873 449.34720688299655) rotate(358.97490120456854 134.47086044740468 -6.1039097395542115)"><path d="M1.1817431923002004 -0.3249290356499901 C11.617031647168398 0.7445402376466947, 38.43989254146378 3.6696816065635343, 62.33508195707381 4.8533713343738025 C86.23027137268384 6.037061062184071, 120.17327004926454 7.832001082146601, 144.5528796859604 6.777209331211619 C168.93248932265624 5.7224175802766375, 190.61222044770454 2.4606503558532324, 208.61273977724892 -1.4753791712360884 C226.6132591067933 -5.41140869832541, 242.40494699426367 -12.927258906651959, 252.5559956632267 -16.838967831324307 C262.70704433218975 -20.750676755996658, 269.0224333243999 -26.10478115140321, 269.5190317910271 -24.94563271927018 C270.01563025765427 -23.78648428713715, 261.7904183489573 -14.331175714597904, 255.53558646298993 -9.884077238526137 C249.28075457702255 -5.436978762454369, 243.62503899234292 -1.9250276239376307, 231.9900404752229 1.7369581371604295 C220.3550419581029 5.39894389825849, 202.82009295201087 10.146039764543058, 185.72559536026995 12.087837328062225 C168.63109776852903 14.029634891581392, 148.95202850475482 13.754658309695403, 129.42305492477738 13.38774351827543 C109.89408134479993 13.020828726855457, 90.14584191880112 12.46905567840868, 68.55175388040524 9.88634857954239 C46.95766584200936 7.303641480676102, 11.343325026821562 -0.27063617218118985, -0.1414733055979014 -2.1084990749222987 M0.3430196389183404 -0.9895743314264169 C11.180322412491144 0.30307313186317275, 40.63241097006511 5.286748621101286, 64.60200953317613 6.23439736928776 C88.57160809628715 7.182046117474234, 120.15512880107562 6.3458097551335255, 144.16061101758447 4.696318157692425 C168.16609323409332 3.0468265602513247, 190.77067419954423 -0.13829459011545575, 208.63490283222924 -3.6625522153588443 C226.49913146491426 -7.186809840602233, 241.02346013974767 -12.759213247027917, 251.3459828136946 -16.449227593767908 C261.66850548764154 -20.139241940507898, 269.75446903644087 -26.688925222184974, 270.5700388759109 -25.802638295798786 C271.3856087153809 -24.9163513694126, 262.83197764226463 -15.612528474830889, 256.2394018505146 -11.131506035450787 C249.6468260587645 -6.650483596070685, 242.47594978592304 -2.620110718214119, 231.01458412541047 1.0834963404818265 C219.5532184648979 4.787103399177772, 204.79404913166698 9.084787943583908, 187.47120788743925 11.090136316724886 C170.14836664321152 13.095484689865863, 146.815378985587 13.255718558867555, 127.07753666004413 13.115586579327694 C107.33969433450126 12.975454599787833, 90.49512970770631 12.339913921479223, 69.04415393418203 10.249344439485721 C47.59317816065776 8.15877495749222, 9.931576284993657 2.61584705300796, -1.6283179811015727 0.572169687366689" stroke="#000000" stroke-width="1" fill="none"></path></g></g></svg>