<svg version="1.1" xmlns="http://www.w3.org/2000/svg" viewBox="0 0 228.44276017072445 252.43941188568" width="228.44276017072445" height="252.43941188568">
  <!-- svg-source:excalidraw -->
  
  <defs>
    <style>
      @font-face {
        font-family: "Virgil";
        src: url("https://excalidraw.com/FG_Virgil.woff2");
      }
      @font-face {
        font-family: "Cascadia";
        src: url("https://excalidraw.com/Cascadia.woff2");
      }
    </style>
  </defs>
  <g><g transform="translate(84.04348387853838 54.931074021105665) rotate(1.8703846654698248 4.342562503058332 65.87131562172858)" fill-rule="evenodd"><path d="M-1.5379770936474166 0.3806056554194682 L24.233979794414253 -2.6957480497658253 L30.147716642421813 131.41475134148178 L-17.554337196987326 123.70789859240094 L-21.452729258065467 91.72478016273205 L0.06489493661447199 91.71395843574962 L1.2356289927873476 108.49268596342463 L8.786035250398697 109.80279345099274 L2.139218455363814 -1.7130480234745746" stroke="none" stroke-width="0" fill="#ffff" fill-rule="evenodd"></path><path d="M1.3606847805872597 1.6879368374820942 C5.874725478358585 1.2078855670598483, 13.618134590544345 -0.387682607595753, 22.025189752907963 0.8001584000885487 M-0.630534354414042 -0.45092881035542554 C6.296605929386354 -0.653192196986685, 12.459930535161822 0.2725028318638525, 23.42680736746034 -1.715969542041421 M24.972399111123295 -2.456911187618971 C26.463955191929987 32.83046463575586, 27.177966636854567 65.41936475004032, 30.07887783001098 132.49643745823678 M22.602120840208144 -0.15932653285562992 C26.339864260842617 48.09118355057101, 28.44967590311645 98.83280507915079, 28.870446852472753 132.3247207104313 M31.464838408929438 134.19954243107614 C13.276518339157672 127.72343288631791, -4.873847809184099 126.84634175619438, -18.40687742922848 122.73834807966986 M29.836882761743993 133.15249714246866 C18.476937742223686 129.7328139577279, 7.187234560349587 127.5896866219413, -16.34451478999501 123.04530651849845 M-17.491345317106898 120.38893230055609 C-19.90899569598416 112.06995445846987, -18.93162830011666 103.53900835227134, -22.779713402812725 92.87312906787817 M-17.077679100450332 122.47087652963737 C-19.213487906018187 110.61325945250752, -21.59862873275248 99.10161613451743, -21.530375582476502 93.65905451768164 M-20.228449923904314 92.93253107918368 C-19.033711092450517 91.68581722084454, -14.177900115579124 94.56520396355069, -2.8449298731208708 92.0001739184337 M-21.22294404041291 92.5349658908969 C-13.913383367485187 92.72364055659041, -7.757417952382859 93.25272508995482, -1.2292820900897352 91.6070127798245 M-2.3907837250341886 91.51932212718609 C-1.1605269301795123 98.53290360542155, 2.018205692210624 104.37769105121744, 1.0346163193778042 111.06791034796828 M-1.4397102204265164 92.7187492346458 C0.20072233805181416 98.8634534327717, 0.17526410070981968 105.66578109297724, 1.4169881619017366 109.22498110729715 M1.6281901399446181 109.15706091008731 C3.362236866015712 110.01036101203906, 4.1509086953193535 109.44299535795133, 7.652394542276961 110.29441615598923 M1.0173375749126876 109.68629660477919 C3.343371250186372 110.01204277729906, 5.576643735758324 109.6555261092736, 8.148925632385437 110.23522022208803 M8.826449844512524 108.65566591952387 C6.772650165088104 82.80077379838325, 2.901626087087502 51.90211182221648, 0.92304935883433 0.5884934018131488 M7.514586152035179 109.68336634558085 C4.11796155075681 78.0049004699815, 2.7184776749783435 47.586507431797344, 0.9080312812671103 -0.3491288454506404 M0.25621603633910794 -0.12281676505243842 C0.25621603633910794 -0.12281676505243842, 0.25621603633910794 -0.12281676505243842, 0.25621603633910794 -0.12281676505243842 M0.25621603633910794 -0.12281676505243842 C0.25621603633910794 -0.12281676505243842, 0.25621603633910794 -0.12281676505243842, 0.25621603633910794 -0.12281676505243842" stroke="#000000" stroke-width="1" fill="none"></path></g></g><g><g transform="translate(176.95604787634068 53.48131676744987) rotate(0 -26.182392776829943 68.30120259887342)" fill-rule="evenodd"><path d="M2.072099148307977 -0.7453434057533742 L2.526897873957097 25.366993922981163 L-28.92864566929582 27.238818422954616 L-29.34063008573655 50.58647579076074 L0.20992393900626993 46.983903532930825 L-7.157967202700441 117.05682708658672 L-52.875265780551445 138.56489528325923 L-50.52976161585569 111.54401723475961 L-26.3925015046895 99.13040752432758 L-28.596221532701286 71.70573686206575 L-53.34178755804896 73.84801159348089 L-51.01904818501832 0.9258700378370541 L2.0774096837388853 -0.40048762038350116" stroke="none" stroke-width="0" fill="#ffff" fill-rule="evenodd"></path><path d="M0.3995890235649924 1.5184251256287098 C1.4102844315161849 6.981198682618746, -0.13371691371798367 15.40479174092291, 0.4445676694106453 25.205690261217494 M1.2159022586541752 -0.22540388442575943 C0.6507641776618491 9.158057915420114, 0.849354236149574 15.72352505697662, 0.43267311364823513 25.043589053916474 M2.4384994397353523 26.2861756051506 C-6.322937047857962 26.355625526952473, -14.526075504021826 25.054452580771862, -26.323203599824936 26.532953851919707 M1.1473695209663504 24.153866706656952 C-5.018894918145954 25.413591796216203, -11.74573162683836 25.207784715798837, -27.26233691796604 25.62855386274689 M-27.743059671297104 24.660527818899688 C-29.42835844857302 34.04654555663264, -29.330230008291146 39.5410921711657, -29.426390656799114 46.83795002969287 M-27.666186042874486 25.427445407088932 C-27.718824753033648 32.88345278264663, -27.448112847756963 40.809685335587304, -28.235589962050355 47.97828624705158 M-30.075464257568157 47.406167307219725 C-21.29735430616296 47.65949171384654, -16.772800714603765 47.828089859930564, 0.7243959691094766 49.06326864481828 M-28.545582275435365 48.33932683924518 C-22.833272441929154 47.68995277582536, -15.680912256338573 48.307356368395254, -1.8682165675145974 47.06351326414308 M-2.9380748484564414 45.93443392039201 C-4.6113634764505615 72.9079758670349, -7.02546679134602 94.61004211756496, -7.995479673482244 117.49234997816778 M-0.13757472562616968 46.87586306043825 C-2.2912687522354105 63.943680686393435, -3.949795358909598 78.98796946022688, -7.944825830273096 116.6040155269245 M-9.424277395345037 115.99751793928839 C-19.910197295379106 120.94758203057432, -34.59012579398409 130.00114941673576, -50.67469469801904 138.33162020502218 M-7.992397489361231 116.27245968357123 C-25.70552207310407 124.27666359024312, -41.31669137036606 131.6768513585288, -53.216021133301865 137.96326266770788 M-50.59149901167871 138.27059553918966 C-52.819374480238594 126.7982114922573, -53.19082430838648 119.09086116724876, -51.47281626955986 109.35282828094272 M-53.12627894961656 137.90821134095617 C-53.11601992822003 129.6147350301943, -51.33338739848446 124.32250040339241, -52.8177490361911 110.10325022408573 M-51.5680568625164 111.99416567565707 C-44.68376705373119 106.67139089916196, -34.2389775625553 103.71456479536097, -28.64673102793102 101.21709113291914 M-53.44079066598236 109.26073857018558 C-44.23071467708191 106.53189584553233, -34.910523089638744 102.99286290345758, -28.61022869829838 99.22104483007902 M-26.579587587684436 100.29809527568037 C-27.689624347802795 92.0726242487808, -25.97575333888198 84.12505018337416, -28.22907740253094 70.12004431480403 M-28.0617767978162 99.54273300528044 C-27.797528288573474 88.76621230183721, -26.859788611703944 77.23464378399694, -28.16888419355336 71.70643487157162 M-28.627479616581233 70.84676989311214 C-34.782409649755614 72.18408349587382, -46.83458187988687 74.58005468263558, -54.734686095267534 73.24272151585419 M-26.330286419047745 70.6596080321246 C-32.92851613268222 71.88661791675247, -39.701495380538375 73.0165584187452, -54.80328499339521 73.90530999485154 M-52.1953136511147 71.28997321720917 C-51.067434670936265 47.45715817302467, -51.62966656829754 20.85609098974477, -53.78143305417659 1.84585089908364 M-53.82151400111616 72.97287829700608 C-53.311986933594184 48.22874987900834, -51.9264849559086 23.603486622301205, -51.490498940390964 1.5264574449640769 M-51.86971563932063 2.3571834109854954 C-38.97281478166966 1.9121215159938276, -23.624749155427846 2.403471543622522, -0.30599502565986114 -1.729215007275343 M-52.278152386588474 0.7069560449701804 C-33.688467473949416 1.6318062062509864, -13.359265321913263 1.0451153620634297, 1.5966521995263676 0.9549919571727513 M1.5124410791444163 -1.1102230246251565e-16 C1.5124410791444163 -1.1102230246251565e-16, 1.5124410791444163 -1.1102230246251565e-16, 1.5124410791444163 -1.1102230246251565e-16 M1.5124410791444163 -1.1102230246251565e-16 C1.5124410791444163 -1.1102230246251565e-16, 1.5124410791444163 -1.1102230246251565e-16, 1.5124410791444163 -1.1102230246251565e-16" stroke="#000000" stroke-width="1" fill="none"></path></g></g><g><g transform="translate(11.345797564412806 13.95411195239798) rotate(0 102.87558252094942 112.26559399044201)"><path d="M-1.3457975644127769 -1.2095347664159084 C64.01236646331031 1.191824035628259, 127.49430694998559 0.9534624792011723, 207.0969626063116 -0.8265549539189281 M0.514056845751781 0.7369569755283811 C58.72136940244818 -2.091708866698957, 116.91385165339744 -2.197608595318784, 205.33073642685304 -1.5513696149545007 M204.315460506603 -3.954111952397999 C201.8566333743406 50.56662703970885, 196.1083829467257 102.47205488408751, 185.61580831469087 192.9910307997812 M206.15559274494635 -2.930834880162057 C201.80161443338756 49.526567155670016, 195.3663634358658 100.37572032750745, 185.03866780647127 193.84155853148295 M184.03088838518647 195.3211136931528 C167.86957221381854 198.92300613888753, 153.7304119395022 204.89067809264003, 105.89242388949715 225.9254501942073 M185.9962965334305 193.53783758040262 C161.07070246458986 204.6293248399795, 135.60974321970818 215.44310802442507, 106.9458712571206 226.88333274568365 M107.20224883303963 228.485299933282 C80.20061866912083 218.04474786222806, 56.684483223205255 208.6200739187422, 28.86498815323354 202.11669056365773 M107.51203575068139 226.20960141862676 C78.23189401891455 218.24666267526092, 47.03738282272612 207.75241434334174, 28.603392369478357 200.62661291720852 M28.081847492124094 201.41302595824536 C19.224772032791876 138.41129608105737, 11.085418702595902 78.60755334772713, 1.1899592901349514 1.2756205672755894 M28.755117331960594 199.8453259430771 C18.601526463949796 122.10627168105712, 6.332253414403999 42.19300999345937, 0.43181063580830686 0.7774738937915348" stroke="#000000" stroke-width="1" fill="none"></path></g></g><g><g transform="translate(116.55473208686726 28.191107236972115) rotate(0 40.793553006180616 95.35620226368734)"><path d="M0.04684438183903694 1.2251557521522045 C-1.4223036808480076 51.02108472456964, 0.9544058202247567 100.05383359647904, 1.6602306552231312 188.86200448744847 M0.4960680212825537 -0.30054466985166073 C2.240735303431786 70.08402726394692, 1.9345770964473852 140.2764879227357, 1.6306619253009558 189.54984241411938 M3.9722223468124866 191.0129491972263 C23.130142357287557 184.75531175497423, 41.045196280762184 175.247168966071, 66.00091089680791 166.07841597725536 M2.5797762479633093 190.24731164858594 C15.327320634379065 185.05660446240847, 29.30007217502316 180.18400031154223, 65.82504787109792 164.994301930488 M65.43225683644414 164.57826815773632 C71.48937125054948 130.20176308018662, 71.88145476370413 97.7617387018348, 81.74062754586339 1.032182879906216 M66.91101827286184 165.871565476478 C69.54298178350618 116.87420753120496, 73.64161214273953 66.98227963420999, 81.68926986120641 -0.05461319706209622 M80.2473824210465 0.5967628435902981 C65.09068885464862 0.739451554837247, 46.055385877547664 2.605132778311698, 1.563096422702074 0.22742025181651115 M82.00438149832189 0.6992220042013315 C49.22673931695145 -0.08029598296932206, 18.453586828690923 0.05122758401904348, 0.025024672970175743 -0.034011056646704674" stroke="#000000" stroke-width="1" fill="none"></path></g></g></svg>