<svg xmlns="http://www.w3.org/2000/svg" width="370.981" height="421.19" version="1.1" viewBox="0 0 370.981 421.19"><defs><style>@font-face{font-family:&quot;Virgil&quot;;src:url(https://excalidraw.com/FG_Virgil.woff2)}@font-face{font-family:&quot;Cascadia&quot;;src:url(https://excalidraw.com/Cascadia.woff2)}</style></defs><g><g fill-rule="evenodd"><path fill="#000" fill-rule="evenodd" stroke="none" stroke-width="0" d="M-1.0304786749184132 1.763883013278246 L1.4592958778297822 32.40639952510261 L2.7767887128584903 48.62389156468021 L4.6891507024165 55.53431312583216 L7.753147762952771 59.61522191525112 L21.30530326671397 63.715484291505064 L37.04077390454982 66.49395079633148 L56.92760058489921 65.79030594576223 L67.4336750867855 67.78953650022314 L72.24602067208446 62.632079768526665 L70.47562713260584 58.50392934860445 L62.759117653519496 54.61834953604024 L34.77849023115353 29.246936550731828 L0.2696370296180248 -0.35094330832362175" transform="translate(247.98927369981345 11.380855242900111) rotate(0 35.1453656863867 33.03514167838205)"/><path fill="none" stroke="#000" stroke-width="1" d="M-0.8731560699641705 0.6833467595279217 C-0.5433345522705728 5.953674147799053, -0.5605846997093784 21.514448395292575, 1.2937910959279457 31.32507234155797 C3.14816689156527 41.135696287823365, 4.183835320575206 53.774028663060356, 10.253098703859774 59.5470904371203 C16.32236208714434 65.32015221118024, 27.538659381029248 65.1990090750143, 37.70937139563535 65.96344298591764 C47.880083410241454 66.72787689682097, 69.58624345405714 68.20110844667246, 71.2773707914964 64.13369390254032 C72.96849812893565 60.06627935840817, 56.0289049441351 49.372951029768835, 47.8561354202709 41.55895572112475 C39.683365896406706 33.74496041248066, 30.21249617161024 24.374078188192343, 22.240753648311223 17.24972205067579 C14.269011125012206 10.125365913159236, 3.6023175480266953 1.7754215332036285, 0.025680280476808592 -1.1871811039745808 M0.8692982639651747 -0.0035001370590179715 C1.1212981213189401 5.437460987166875, -1.0681981201678887 22.387029442531357, 0.4672459477620492 32.50422522556634 C2.002690015691987 42.62142100860132, 3.9335665838234553 55.021836919330724, 10.081962671544801 60.69967456115085 C16.230358759266146 66.37751220297098, 27.39099780776636 65.97720610228218, 37.35762247409013 66.57125107648709 C47.324247140413895 67.16529605069199, 67.98494670228789 68.57560379274366, 69.8817106694874 64.26394440638025 C71.77847463668692 59.952285020016824, 56.583755146961884 48.74709168141398, 48.738206277287276 40.70129475830656 C40.89265740761267 32.65549783519914, 31.095891734108136 22.521275524271896, 22.808417451439748 15.989162867735738 C14.520943168771359 9.45705021119958, 2.894927444118439 3.9277157777929124, -0.9866394187230617 1.5086188190896066" transform="translate(247.98927369981345 11.380855242900111) rotate(0 35.1453656863867 33.03514167838205)"/></g></g><g><g><path fill="none" stroke="#000" stroke-width="1" d="M0.2314291723072528 -0.6824235565960407 C-33.824419218751686 -0.8486647494137287, -170.5895035855616 -0.2703605778515339, -205.20824641631782 -0.3141003973782063 M-1.1062092415709048 1.5737001308519392 C-35.144584054474805 1.5245500600058584, -171.54853547556837 1.341276906998828, -205.56172961487303 1.0584221452195197" transform="translate(247.88738413569763 11.522745691881) rotate(0 -102.66515022128289 0.43118699399325067)"/></g></g><g><g><path fill="none" stroke="#000" stroke-width="1" d="M1.1324995525181294 -0.3141003973782063 C0.9038810499012471 66.05648302124736, -0.975453471392393 331.15709860855327, -1.140281843394041 397.54107695515734 M0.26792308825068156 -1.5246070513408632 C0.37125858294777553 65.02738071023408, 1.1088145871739834 331.8205536661165, 0.9730247251968831 398.58244940765667" transform="translate(42.02791591364149 11.524607051340837) rotate(0 -0.0038911454379615407 198.5289211781579)"/></g></g><g><g><path fill="none" stroke="#000" stroke-width="1" d="M-1.140281843394041 -0.9448624737560749 C45.16724602221758 -0.9752073653042317, 232.48357042964852 -0.7115195877850056, 278.9776667461879 -0.49616974666714664 M0.4619314594846218 1.1734807821828874 C46.52490314098322 1.3315725707728419, 231.4838909125265 1.278509416850284, 278.10497417582746 0.7807663875538857" transform="translate(41.65673365576731 409.9378579287144) rotate(0 138.91869245139694 0.1534795262471107)"/></g></g><g><g><path fill="none" stroke="#000" stroke-width="1" d="M0.14352932050824174 -0.49616974666714664 C0.20280037328190129 -56.27700108022233, -0.7743671007659776 -279.7434199288855, -0.7846555267520837 -335.62985047508715 M-1.240256515564397 -1.8022628090064974 C-0.7175932101667025 -57.87566772777391, 1.3169524960293877 -282.1351630198112, 1.3971322904560128 -337.57012602306656" transform="translate(320.1366028590162 411.3453849513679) rotate(0 0.0784378874458298 -169.03314788486688)"/></g></g><g><g><path fill="none" stroke="#000" stroke-width="1" d="M-1.0098413698375224 0.34723657295107846 C11.239223544832374 11.616878166938116, 61.16844755230499 56.21752513122702, 73.63791880852762 67.12167981725507 M0.6608531816583127 -0.5160681715887041 C12.726791622603367 11.015560250546695, 60.5489423227406 57.58058882886501, 72.61459512869115 68.74433043116093" transform="translate(246.140886351772 10.932360097640014) rotate(0 36.314038719345035 34.11413112978612)"/></g></g><g><g fill-rule="evenodd"><path fill="#fff" fill-rule="evenodd" stroke="none" stroke-width="0" d="M-3.7706226220930974 -0.5235052891075611 L244.54644104248231 1.875083394580981 L292.95414091470167 4.480416116782267 L300.7871131386122 15.651374864827012 L302.4187795196215 30.415200242533757 L306.87312232953366 64.65831390419176 L301.1842372827783 87.33185359021559 L301.5377739846919 96.23369420157785 L291.7350270504154 107.37251658753941 L271.42530214175974 106.21718501056532 L32.3394162192041 109.28706800232291 L-5.210681803774452 107.31132530177955 L-24.05109049053927 105.93591981624022 L-29.214896928759966 100.99781303995027 L-39.904961036222936 89.92752275292052 L-43.25502112963136 76.71319428027878 L-43.971185042713245 53.19657615116742 L-42.457035041121486 31.610837347030497 L-39.40032784324402 16.704350609135844 L-30.86690282472147 6.130438096768207 L-23.195502920947007 4.448167648465899 L-4.887986671050922 -0.8035125322639942" transform="translate(55.31766770338322 243.99827952410334) rotate(0 130.17262960788946 54.30560507057899)"/><path fill="none" stroke="#000" stroke-width="1" d="M-4.8870551532710955 0.1617822177708148 C16.602403990746254 0.20872218683361998, 78.058692759472 -0.26771998250997125, 123.95318059824602 -0.23066165372729297 C169.84766843702005 -0.1936033249446147, 242.14698300282572 -0.8339190940486356, 270.47987187937304 0.3841321904668844 C298.81276075592035 1.6021834749824044, 288.47658402952686 1.9741909157034838, 293.95051385752987 7.077646053365827 C299.4244436855329 12.18110119102817, 301.4736234056269 19.872872685354366, 303.32345084739126 31.004863016440943 C305.17327828915563 42.13685334752752, 306.0439591697021 62.33493026069226, 305.0494785081163 73.86958803988529 C304.0549978465305 85.40424581907831, 302.8438766699725 94.78295439674521, 297.35656687787645 100.2128096915991 C291.8692570857804 105.642664986453, 300.59778510652285 105.02552636106229, 272.12561975554024 106.44871980900864 C243.65345440455766 107.87191325695498, 173.01201296525008 108.70613514654245, 126.52357477198092 108.75197037927717 C80.03513657871176 108.79780561201189, 19.939737486111355 108.4508939404361, -6.805009404074763 106.72373120541695 C-33.54975629426088 104.9965684703978, -27.95241068218216 103.80704187158761, -33.94490656913579 98.3889939691623 C-39.937402456089416 92.97094606673699, -41.11971820284011 85.55822098749425, -42.75998472579654 74.21544379086505 C-44.40025124875297 62.87266659423585, -45.5216255407712 41.40307083714086, -43.78650570687437 30.332330789387083 C-42.05138587297755 19.261590741633306, -38.6175503633151 13.014472903004808, -32.34926572241558 7.791003504342384 C-26.080981081516065 2.567534105679959, -10.86977368213806 0.4882760237813901, -6.176797861477271 -1.0084856025874613 M-6.190881481051356 -0.7988860632386059 C15.104691872558337 -0.5229348622169345, 76.9689222672964 0.8208522093933965, 122.89458799249688 1.1856662292871625 C168.82025371769737 1.5504802491809284, 240.87525837028505 0.24634353296625489, 269.3631128701515 1.3899980561239904 C297.85096737001794 2.5336525792817257, 287.85385266529715 3.028508184143983, 293.8217149916956 8.047593368233576 C299.7895773180941 13.066678552323168, 303.62248829699763 20.660044043233782, 305.1702868285424 31.50450916066155 C306.7180853600871 42.348974278089315, 304.282575366951 61.887387663348115, 303.108506180964 73.11438407280018 C301.93443699497703 84.34138048225225, 303.3751602707405 92.85364707246426, 298.1258717126204 98.86648761737393 C292.8765831545003 104.87932816228361, 300.41393474018935 107.75449307670547, 271.6127748322433 109.19142734225827 C242.8116149242973 110.62836160781106, 171.56434377730756 108.04676397316996, 125.31891226494422 107.48809321069069 C79.07348075258086 106.92942244821143, 20.70382762254065 107.26586951893233, -5.859814241936793 105.83940276738268 C-32.423456106414235 104.41293601583303, -27.77626109053693 103.7539801782862, -34.062938921920434 98.92929270139274 C-40.349616753303934 94.10460522449928, -41.92071555589656 87.93499159980301, -43.57988123023782 76.89127790602195 C-45.23904690457908 65.8475642122409, -46.27739878483364 44.132806699166856, -44.01793296796801 32.667010538706414 C-41.75846715110237 21.20121437824597, -36.297754506699576 13.28026759117931, -30.023086329044016 8.09650094325932 C-23.74841815138846 2.912734295339331, -10.324380810797324 3.0075685124848945, -6.369923902034671 1.5644106511864813" transform="translate(55.31766770338322 243.99827952410334) rotate(0 130.17262960788946 54.30560507057899)"/></g></g><g><text x="0" y="87.553" fill="#000" direction="ltr" font-family="Virgil, Segoe UI Emoji" font-size="77.507" text-anchor="start" transform="translate(80.48451253102712 234.26146894194517) rotate(0 105.81261397451641 60.776666704370996)" style="white-space:pre">JSON</text></g><g><g><path fill="none" stroke="#000" stroke-width="1" d="M0.7809300430119037 -0.525893772393465 C26.04119826418818 -0.1516419537365437, 126.31015508386795 0.9307904832065104, 151.58728960753447 1.0583298079669474 M-0.2682204137463122 1.8124080517608672 C25.387679363642867 1.9775098234135657, 128.62942777848363 -0.4869677248876542, 153.97464336130798 -0.5086217916291207" transform="translate(71.0910799400433 81.54234412553649) rotate(0 76.85321147378087 0.6432571396836977)"/></g></g><g><g><path fill="none" stroke="#000" stroke-width="1" d="M-0.6182872049510478 1.0583298079669474 C32.18542608557663 1.1858691327273845, 164.65828937284755 0.30277804061770436, 197.60320978617796 0.23934217616915698 M1.2579732831101866 0.5683490118104966 C33.85617293865814 0.3572142302710565, 164.30306330616693 -1.4446866998355836, 196.78019851812664 -1.7575779301207513" transform="translate(71.28323252738414 109.61686006700938) rotate(0 98.49246129061342 -0.3447374757936359)"/></g></g><g><g><path fill="none" stroke="#000" stroke-width="1" d="M0.23816037252545352 0.23934217616915698 C33.18308078585587 0.1759063117206096, 164.26967316858577 0.609982120245695, 197.05123527503142 0.6777146212756633 M-1.0959441612381489 -0.6806071266811342 C31.71759635658397 -0.5729790717642755, 163.1004235946677 -0.9762004784028978, 195.93843738862813 -1.0890599513333292" transform="translate(71.35251393215253 138.25022097310222) rotate(0 97.97764555689665 -0.20567266502885673)"/></g></g><g><g><path fill="none" stroke="#000" stroke-width="1" d="M-0.31381413862109186 0.6777146212756633 C32.46774796782456 0.7454471223056316, 164.11780089132594 0.7832865111529826, 196.92753301119933 0.6457371823489666 M1.7222947092633696 -0.01208914789371196 C34.28671380908622 -0.314429335622117, 162.8688183718465 -1.321911282269284, 195.7497914362842 -1.1378255456965416" transform="translate(71.36804049440934 166.90896772781167) rotate(0 98.30685943628913 -0.21024717880692378)"/></g></g><g><g><path fill="none" stroke="#000" stroke-width="1" d="M-0.43751640245318413 0.6457371823489666 C32.3722157174202 0.5081878535449506, 163.69405437700559 0.11529375240206724, 196.5445785806192 -0.14758135154843322 M1.5336487569194288 -0.060854742256924554 C34.75102712721957 -0.06624972048215572, 165.88260493750792 1.3193997606355696, 198.8257859296495 1.3123636901099234" transform="translate(71.12978016509919 198.92656855669486) rotate(0 99.19413476359813 0.5823911692807542)"/></g></g></svg>