<svg version="1.1" xmlns="http://www.w3.org/2000/svg" viewBox="0 0 440.7481889844187 527.5980181706861" width="440.7481889844187" height="527.5980181706861">
  <!-- svg-source:excalidraw -->
  
  <defs>
    <style>
      @font-face {
        font-family: "Virgil";
        src: url("https://excalidraw.com/FG_Virgil.woff2");
      }
      @font-face {
        font-family: "Cascadia";
        src: url("https://excalidraw.com/Cascadia.woff2");
      }
    </style>
  </defs>
  <g><g transform="translate(40.19183903426563 297.23073254413373) rotate(0 193.62803292880227 -161.09718137541716)" fill-rule="evenodd"><path d="M1.2714230231940746 -86.97752794938035 L23.32809302169172 -133.21831741960298 L34.188052371390825 -148.28958267140456 L60.77388638046544 -181.89359199189647 L75.27143323874532 -196.1416100783431 L94.19455150748774 -205.62823593491223 L114.06194291956831 -218.60988623495098 L133.22222956557982 -224.16691345132375 L158.2659089473577 -231.18897118310142 L179.57644731673733 -234.1711817793548 L203.37702860406904 -234.14656784040062 L224.98597976230917 -231.68680183043512 L249.99393470220227 -222.87818401934857 L270.28449608449284 -215.91248342703125 L291.65054649944034 -207.00435738399813 L307.91489716496073 -193.93864603512625 L326.3204968082832 -177.2955957468492 L350.4940760888113 -155.39054685163865 L373.04327840024877 -123.42168159806522 L388.56059087808785 -87.2244435062296 L362.923603085585 -119.14949108901035 L338.89533859469424 -134.37587419377826 L311.9498737428599 -150.50465959477492 L284.93639348535135 -160.63929342073436 L252.25463529341783 -171.04987011480534 L218.27121963032903 -175.18252474141224 L182.69249497529356 -178.24539406546202 L147.293858802207 -173.52130518599932 L132.44488093957827 -167.68869514287383 L115.86872874406369 -162.11407477524233 L85.91960738945025 -152.3854283206563 L60.964452218227095 -139.01074436098168 L38.72500797558328 -126.3696338146085 L19.19427299711124 -109.94566728068652 L-0.5994520969688892 -87.99045333580918" stroke="none" stroke-width="0" fill="#fd7e14" fill-rule="evenodd"></path><path d="M-0.5885801307857036 -87.98977370725817 C4.826352348343891 -98.30529389721121, 17.28311779795159 -129.35541493586575, 32.90884176368333 -149.06482732015917 C48.534565729415064 -168.77423970445258, 68.87207927747666 -192.10291647875724, 93.16576366360471 -206.24624801301863 C117.45944804973276 -220.38957954728002, 149.1491769872774 -232.13743445577484, 178.67094808045164 -233.92481652572752 C208.19271917362587 -235.7121985956802, 243.31497435738868 -228.82825915324986, 270.2963902226502 -216.9705404327347 C297.2778060879117 -205.11282171221956, 320.8903486848974 -183.69810700582258, 340.55944327202076 -162.77850420263664 C360.2285378591441 -141.8589013994507, 384.7177698571686 -98.9039180609809, 388.3109577453904 -91.45292361361906 C391.9041456336122 -84.00192916625723, 374.7328463168974 -108.44183076855131, 362.1185706013516 -118.07253751846564 C349.50429488580585 -127.70324426837996, 330.9085200114684 -140.5312803737366, 312.6253034521156 -149.23716411310502 C294.3420868927628 -157.94304785247346, 274.1452042802239 -165.92593378886423, 252.41927124523488 -170.30783995467627 C230.69333821024588 -174.6897461204883, 205.3298079466901 -176.41609165213396, 182.2697052421817 -175.5286011079773 C159.20960253767328 -174.64111056382063, 134.07616748859417 -170.56953355464097, 114.0586550181845 -164.98289668973638 C94.04114254777483 -159.3962598248318, 77.65657261232846 -151.0041621332567, 62.16463041972369 -142.00877991854975 C46.672688227118925 -133.0133977038428, 31.289596870167962 -120.00790593480511, 21.1070018625559 -111.01060340149465 C10.924406854943841 -102.01330086818419, 4.4921406529645385 -91.72669301376905, 1.0690603740513323 -88.024964718687 M1.3032765712123364 -89.11491155986546 C6.5299640348995585 -99.28557216852684, 16.79698606074732 -127.7005015231141, 31.99955855695038 -147.53449952608227 C47.20213105315344 -167.36849752905044, 68.1274262114059 -193.91106877994764, 92.5187115484307 -208.11889957767445 C116.9099968854555 -222.32673037540127, 148.929446224466 -231.33108612378513, 178.34727057909913 -232.78148431244307 C207.76509493373226 -234.231882501101, 241.8553078331852 -228.37104898011796, 269.02565767622946 -216.82128870962217 C296.1960075192737 -205.27152843912637, 321.4426159347479 -184.66568946962164, 341.36936963736457 -163.48292268946835 C361.29612333998125 -142.30015590931507, 385.314659813492 -97.26883637269417, 388.5861798919294 -89.72468802870252 C391.8576999703668 -82.18053968471087, 373.90102160596024 -108.05245241894721, 360.998490107989 -118.21803262551848 C348.0959586100178 -128.38361283208974, 329.1608337502597 -141.90479518024372, 311.1709909041022 -150.71816926813005 C293.1811480579447 -159.53154335601639, 274.5619793733304 -166.60541444244637, 253.0594330310442 -171.0982771528365 C231.55688668875797 -175.5911398632266, 204.99917888317137 -179.15161676416497, 182.1557128503849 -177.6753455304708 C159.31224681759844 -176.19907429677662, 135.97348463885726 -168.56337320377992, 115.99863683432542 -162.24064975067142 C96.02378902979358 -155.91792629756293, 78.24286902500317 -148.2400259123228, 62.30662602319383 -139.7390048118198 C46.370383021384484 -131.2379837113168, 31.049117568981686 -119.74425349765276, 20.381178823469366 -111.23452314765329 C9.713240077957048 -102.72479279765382, 1.9889344336173447 -92.54410712216276, -1.7010064498800785 -88.68062271182298" stroke="#000000" stroke-width="1" fill="none"></path></g></g><g><g transform="translate(37.52863690012816 546.8900306773004) rotate(180 196.29154513968112 -161.3512888432017)" fill-rule="evenodd"><path d="M0.9984141997992992 -89.38644203858323 L22.903385130587075 -132.74608221681368 L33.85356373755114 -148.60172552037307 L62.05149183313444 -178.3587652363728 L77.81232045390966 -193.33159106207722 L93.75479527778413 -206.81792700165417 L115.85736442143137 -215.27731472845073 L137.41970910369923 -225.49323171533132 L157.4721031166864 -229.5584565613668 L180.33778900249146 -234.671236615628 L203.69704852174357 -232.06771947843163 L227.82594211052253 -230.02270261397393 L252.75583344910294 -225.8256112921452 L274.31105496775956 -218.3713395328357 L291.7372964303296 -208.07766966656038 L313.8161089881895 -194.43256683819632 L328.24007027792334 -177.21940241417707 L352.6780207357956 -155.45664172697434 L375.10382309316157 -122.54559202515873 L395.0242087198518 -88.02482182883092 L368.27556615029954 -117.44811465086948 L342.17124642535146 -132.6976453386452 L317.5386864927673 -147.57760566639968 L288.21240271861 -160.89456676286693 L257.0333920543627 -170.12174807119573 L222.3116532863442 -173.40840965581043 L187.23250977611067 -178.16581328161803 L150.5384683601392 -173.37991104766314 L131.27242460652474 -166.93226499379546 L114.90519608990428 -162.89251095917177 L87.08387549615335 -153.05175818134356 L61.31514024872373 -139.62112024217674 L39.75563804459236 -126.18333306006139 L20.375647027446778 -112.92509223414721 L-0.4213805980980396 -88.30113134102768" stroke="none" stroke-width="0" fill="#fd7e14" fill-rule="evenodd"></path><path d="M0.5394602783024312 -87.5511866139049 C6.090245975873499 -98.06454921108451, 18.1828595439028 -130.11344039134062, 33.946462542990616 -149.88348815161058 C49.71006554207843 -169.65353591188054, 70.25929458294733 -192.3140882965368, 95.12107827282931 -206.17147317552474 C119.98286196271128 -220.02885805451268, 153.505041143522 -231.38231904210906, 183.11716468228244 -233.0277974255383 C212.72928822104288 -234.67327580896753, 245.65070706233544 -227.50929791438875, 272.79381950539204 -216.04434347610018 C299.9369319484486 -204.5793890378116, 325.98958151857084 -185.13961634801618, 345.975839340622 -164.2380707958068 C365.9620971626731 -143.33652524359744, 389.11792860756884 -98.25208939047918, 392.71136643769864 -90.63507016284392 C396.30480426782844 -83.01805093520865, 380.1245202890551 -108.76473049160428, 367.5364663214006 -118.53595542999517 C354.9484123537461 -128.30718036838607, 335.8423548950729 -140.91884989659425, 317.1830426317715 -149.26241979318925 C298.5237303684701 -157.60598968978425, 277.51719274433333 -163.9899895177766, 255.58059274159234 -168.5973748095652 C233.64399273885132 -173.2047601013538, 209.00668761086035 -177.59032499335098, 185.56344261532547 -176.9067315439209 C162.1201976197906 -176.22313809449082, 135.50051552652187 -170.60951091441268, 114.921122768383 -164.49581411298465 C94.34173001024413 -158.3821173115566, 77.65868065250156 -149.2873249178331, 62.087086066492304 -140.22455073535272 C46.51549148048305 -131.16177655287234, 31.923039412508672 -118.8335705504362, 21.491555252327473 -110.11916901810231 C11.060071092146272 -101.40476748576842, 3.2784214050246527 -91.61605086670484, -0.5018188945949077 -87.93814154134935 M-0.636461804928258 -88.44606624250173 C4.762398533572507 -98.30843652218361, 17.448149613510815 -128.85649034271327, 33.371910545535776 -148.7829572940457 C49.29567147756074 -168.70942424537813, 70.41509187288321 -193.62310580206147, 94.9061037872215 -208.00486795049628 C119.39711570155978 -222.38663009893108, 150.3410319616928 -233.83953511794482, 180.31798203156546 -235.07353018465452 C210.29493210143812 -236.3075252513642, 246.91351039487097 -227.57963309085477, 274.76780420645736 -215.4088383507545 C302.62209801804374 -203.23804361065424, 327.7702783266986 -182.59399121646686, 347.4437449010838 -162.04876174405285 C367.117211475469 -141.50353227163885, 389.5586536244887 -99.32479765017905, 392.8086036527687 -92.13746151627042 C396.05855368104864 -84.95012538236179, 379.724116316815 -109.15487449660301, 366.9434450707634 -118.92474494060103 C354.1627738247118 -128.69461538459905, 334.5710896014431 -142.49583870260167, 316.1245761764591 -150.7566841802585 C297.67806275147507 -159.01752965791533, 277.95053795968187 -164.2630994290377, 256.26436452085943 -168.48981780654208 C234.57819108203702 -172.71653618404645, 209.28816112502795 -176.67232260952096, 186.00753554352457 -176.1169944452848 C162.72690996202118 -175.56166628104864, 137.28358538569688 -171.0643386774318, 116.58061103183915 -165.15784882112507 C95.87763667798143 -159.25135896481834, 77.747731956095 -149.89184915880185, 61.78968942037824 -140.67805530744434 C45.831646884661474 -131.46426145608683, 31.203403610029216 -118.5633920364902, 20.832355817538577 -109.87508571297998 C10.461308025047938 -101.18677938946976, 3.1654680929536125 -92.37537784788985, -0.4365973345655949 -88.54821736638307" stroke="#000000" stroke-width="1" fill="none"></path></g></g><g transform="translate(62.83218743902728 142.00180136155097) rotate(0 183 86.5)"><text x="0" y="125" font-family="Virgil, Segoe UI Emoji" font-size="109.66752378721166px" fill="#000000" text-anchor="start" style="white-space: pre;" direction="ltr">jupyter</text></g><g transform="translate(343.44650299342607 10.000000000000114) rotate(0 38.37936234949092 38.37936234949092)"><path d="M30.83441757032276 -0.33984074808490305 C37.95208319588263 -2.014863825244137, 48.79536707208918 0.11445227545425185, 55.79315229847526 3.7502312655390213 C62.79093752486135 7.386010255623791, 69.57204087239477 14.786452859570055, 72.82112892863925 21.474833192423713 C76.07021698488374 28.16321352527737, 76.65998635919556 36.64318936177541, 75.28768063594218 43.88051326266097 C73.9153749126888 51.117837163546525, 69.73304119080025 59.4996103456771, 64.58729458911904 64.89877659773705 C59.44154798743782 70.29794284979701, 51.71630608167843 75.06835649754275, 44.41320102585488 76.2755107750207 C37.11009597003133 77.48266505249866, 27.442359738203127 75.86226204958413, 20.76866425417775 72.14170226260478 C14.094968770152374 68.42114247562543, 7.7105270770021175 60.78298991932293, 4.371028121702629 53.95215205314463 C1.0315291664031405 47.12131418696633, -0.7601038469473291 38.50630044317997, 0.7316705223808171 31.15667506553499 C2.2234448917089633 23.807049687890014, 6.955622443032625 15.003790014837573, 13.321674337671507 9.854399787274772 C19.68772623231039 4.705009559711971, 33.47757275788302 1.5702623733173244, 38.927981890214106 0.2603337001581849 C44.378391022545195 -1.0495949730009546, 46.114361318551964 1.4171733223176375, 46.02412913165806 1.9948277483199348 M42.96027541463954 -0.6995324560904166 C49.91631673557171 -0.32449164242569023, 58.48943444794657 4.700261297218968, 63.88994739205066 10.11254750825021 C69.29046033615474 15.52483371928145, 74.06544033922007 24.215453872481774, 75.36335307926404 31.774184810097033 C76.66126581930801 39.33291574771229, 74.93335758876546 48.84688402935374, 71.67742383231447 55.46493313394176 C68.42149007586349 62.08298223852979, 62.44140227652813 68.15893833236909, 55.827750540558114 71.48247943762517 C49.2140988045881 74.80602054288126, 39.47152868934205 76.60913533918513, 31.99551341649439 75.40617976547827 C24.519498143646725 74.20322419177141, 16.385456508868188 69.71947934544501, 10.971658903472136 64.26474599538405 C5.557861298076085 58.810012645323084, 0.5012971095296764 49.933127735053745, -0.4872722158819158 42.677779665112496 C-1.4758415412935082 35.42243159517125, 1.4654802114679466 27.138406691100087, 5.040242951002583 20.732657575736564 C8.615005690537219 14.32690846037304, 14.897985229968324 7.8254601931527255, 20.9613042213259 4.243284972931363 C27.024623212683476 0.6611097527100003, 38.05191755390657 -0.022724460188071505, 41.42015689914805 -0.7603937455916139 C44.788396244389524 -1.4980630309951564, 41.217316831412624 -0.8588585273470374, 41.17074029277475 -0.18273073948989094" stroke="none" stroke-width="0" fill="#ced4da"></path><path d="M55.60039078097182 2.7830147176443845 C62.240496909444836 5.1563176041198275, 67.82277191581255 12.393401101599522, 71.35492138798222 19.142809862998252 C74.88707086015188 25.892218624396982, 77.62810779962913 35.74309395356, 76.79328761398982 43.27946728603677 C75.9584674283505 50.81584061851354, 71.73739053904978 58.81073314875828, 66.34600027414633 64.36104985785889 C60.95461000924289 69.91136656695949, 51.90398324098109 75.34830228157647, 44.444946024569155 76.5813675406404 C36.98590880815722 77.81443279970433, 28.200796783665105 75.1337934018056, 21.591776975674737 71.7594414122425 C14.982757167684369 68.38508942267939, 8.453052019417648 62.94449712761541, 4.790827176626948 56.3352556032617 C1.1286023338362479 49.72601407890799, -1.4735320505686136 39.67407951284518, -0.3815720810694643 32.1039922661202 C0.710387888429685 24.53390501939522, 5.596238141955678 16.206217846269944, 11.342586993621843 10.914732122911808 C17.08893584528801 5.623246399553671, 26.52835414616049 1.1584817305204616, 34.096521028927526 0.3550779259713792 C41.664687911694564 -0.448325878577703, 52.37136000323188 4.930430388945726, 56.75158829022406 6.094309295617315 C61.13181657721625 7.2581882022889035, 60.42963541643603 6.938378420549131, 60.37789075088064 7.338351366000914 M44.01522403206109 0.19640481471655136 C51.24219821558356 0.6102717610581057, 58.69080404719287 5.77429298027645, 63.80055084415816 10.820485631732211 C68.91029764112345 15.866678283187973, 73.08414419586687 23.23497425830958, 74.67370481385285 30.473560723451115 C76.26326543183883 37.712147188592645, 76.25948224213089 47.24807657733055, 73.33791455207401 54.25200442258141 C70.41634686201714 61.255932267832264, 64.11089789110517 68.71360928956335, 57.144298673511585 72.49712779495626 C50.177699455918 76.28064630034916, 39.48658301271778 78.05160809427775, 31.5383192465125 76.95311545493885 C23.59005548030722 75.85462281559995, 14.599976992606862 71.35073664753018, 9.454716076279905 65.90617195892281 C4.309455159952948 60.46160727031545, 1.4918294718698544 51.68592824502301, 0.6667537485507609 44.28572732329466 C-0.15832197476833265 36.88552640156631, 0.913583072904661 28.102353332837197, 4.504261736365343 21.504966428552724 C8.094940399826026 14.90757952426825, 16.00477493794455 8.251911852058441, 22.210825729314855 4.701405897587826 C28.41687652068516 1.1508999431172096, 38.48213750765772 0.7698233745586833, 41.74056648458718 0.20193070172902594 C44.998995461516635 -0.36596197110063144, 41.722478461961934 0.6511980148744575, 41.761399590891614 1.2940498606098814" stroke="#000000" stroke-width="1" fill="none"></path></g><g transform="translate(10 82.63191154312278) rotate(0 25.173560250741332 25.173560250741332)"><path d="M23.37622782422288 0.20306588156278949 C28.33157026161431 -0.5860371291321792, 35.255170225655185 1.4788095390002804, 39.62177743120729 4.600767282388514 C43.9883846367594 7.722725025776747, 48.18410119153931 13.755018463891911, 49.57587105753551 18.93481234189219 C50.967640923531704 24.11460621989247, 50.3419866890941 30.833774232667633, 47.97239662718445 35.67953055039019 C45.602806565274804 40.525286868112744, 40.46455173857923 45.81345426862083, 35.35833068607762 48.00935024822753 C30.252109633576016 50.20524622783422, 22.645158123406826 50.3903782412672, 17.335070312174814 48.85490642803036 C12.024982500942802 47.31943461479352, 6.493848788976724 43.34110785437556, 3.497803818685547 38.796519368806486 C0.5017588483943705 34.251930883237414, -1.22755473482909 26.852156963879622, -0.641199509572246 21.58737551461593 C-0.05484428431540189 16.322594065352234, 2.252184786726554 10.872696501814128, 7.015935170226612 7.207830673224311 C11.77968555372667 3.5429648446344957, 23.809937820188413 0.7219641273496886, 27.941302791428104 -0.40181945692296495 C32.07266776266779 -1.5256030411956185, 31.99387337256521 0.12100796776074851, 31.80412499766475 0.4651291675883904 M14.898263684228857 0.5551134832457052 C19.4843014674537 -1.6420494648967465, 26.364658583131344 -1.0612974584928343, 31.408057883649615 0.8533286276814742 C36.451457184167886 2.767954713855783, 41.83941127803342 7.568090978409433, 45.158659487338475 12.042870000291556 C48.477907696643534 16.51764902217368, 51.80932935582231 22.286479065285736, 51.32354713947995 27.70200275897421 C50.83776492313759 33.11752645266269, 46.59296381751086 40.722074061087966, 42.243966189284315 44.53601216242241 C37.89496856105777 48.34995026375685, 30.47009880554147 50.3233172401932, 25.22956137012071 50.58563136698088 C19.98902393469995 50.847945493768556, 15.142239876265116 49.611639065817535, 10.800741576759764 46.1098969231485 C6.459243277254413 42.60815478047946, 0.5368532915095623 34.91544940237671, -0.8194284269113936 29.575178510966666 C-2.1757101453323493 24.234907619556623, -0.06393394066895164 18.55467614069927, 2.663051266234028 14.068271574688236 C5.390036473137007 9.5818670086772, 13.560838839406536 4.423133969754874, 15.542482814506485 2.656751114900448 C17.524126789606434 0.8903682600460225, 14.526867346178504 3.2550724034736205, 14.552915116833722 3.4699744455616823" stroke="none" stroke-width="0" fill="#ced4da"></path><path d="M32.587371183466765 0.06468947320409058 C37.46180051525383 1.4098258003583555, 42.601833490097796 6.93622339524279, 45.399879240704564 11.750347698335654 C48.19792499131133 16.56447200142852, 49.87365489627349 23.73122462054038, 49.37564568710738 28.949435291761276 C48.877636477941266 34.16764596298217, 46.12835375982573 39.66241051387463, 42.4118239857079 43.059611725661014 C38.69529421159007 46.456812937447395, 32.378310387917004 48.9168522429467, 27.07646704240038 49.33264256247955 C21.774623696883758 49.748432882012395, 14.929619261739361 48.635284667663555, 10.60076391260816 45.554353642858075 C6.271908563476958 42.473422618052595, 2.2589526962454665 36.12323339139889, 1.1033349476131704 30.84705641364669 C-0.052282801019125635 25.57087943589449, 1.1912971951557827 18.85239085945159, 3.667057420814384 13.897291776344874 C6.142817646472985 8.942192693238159, 10.75405697174174 3.2457016046642146, 15.957896301564778 1.116461915006397 C21.161735631387817 -1.0127777746514206, 31.334644670777156 0.7851683672621299, 34.89009339975261 1.121853638397969 C38.44554212872806 1.458538909533808, 37.44815668238586 2.621448869818179, 37.29058867541749 3.1365735418214307 M31.838084249207583 0.25608408894269985 C36.649448172598376 1.742385843505627, 42.21835016410639 7.908970708245861, 45.21195211214234 12.777738594595435 C48.205554060178294 17.64650648094501, 50.16895950333676 24.508240719576897, 49.79969593742331 29.468691407040147 C49.43043237150986 34.4291420945034, 47.12052248083512 39.242629402253186, 42.996370716661644 42.54044271937494 C38.87221895248817 45.83825603649669, 30.845267666928567 48.71710923416428, 25.054785352382464 49.255571309770644 C19.26430303783636 49.794033385377006, 12.369786873527 48.80545689136627, 8.253476829385015 45.771215173013125 C4.13716678524303 42.73697345465998, 1.2308893632605376 36.313050363204304, 0.35692508753055563 31.050120999651796 C-0.5170391881994263 25.787191636099283, 0.6129988075050607 19.07576916951818, 3.0096911750051234 14.193638991698057 C5.406383542505186 9.311508813877936, 9.65982566238158 3.6972989483328016, 14.73707929253093 1.757339932731071 C19.81433292268028 -0.18261908287065953, 30.475318950797732 2.4404331240963404, 33.473212955901225 2.5538848980876736 C36.471106961004715 2.667336672079007, 32.84253526218776 2.0681163421833904, 32.72444332315188 2.438050576679071" stroke="#000000" stroke-width="1" fill="none"></path></g><g transform="translate(21.059859257702584 425.1574034794392) rotate(0 46.22030734562345 46.22030734562345)"><path d="M25.159543278354068 5.290877642893548 C32.175462235431304 0.9134107933156823, 42.809615046088254 -1.2390873761257537, 51.27248006672613 -0.49288708964103023 C59.73534508736401 0.25331319684369313, 69.48596804128819 4.301586172564552, 75.93673340218133 9.768079361801888 C82.38749876307448 15.234572551039225, 87.48628591206987 24.208201344066783, 89.977072232085 32.30607204578298 C92.46785855210014 40.40394274749919, 93.1972764705264 50.10931984898001, 90.88145132227216 58.35530357209909 C88.56562617401791 66.60128729521817, 82.44438836726823 76.30642012147672, 76.08212134255953 81.78197438449746 C69.71985431785083 87.2575286475182, 60.75718178504148 90.21977589464254, 52.70784917401992 91.20862915022349 C44.65851656299836 92.19748240580444, 35.34074793462312 91.02711877682565, 27.786125676430178 87.71509391798315 C20.231503418237235 84.40306905914066, 12.095674464475202 78.2937720250584, 7.38011562486227 71.33647999716854 C2.6645567852493395 64.37918796927868, -0.551630135412644 54.388762844268996, -0.5072273612474092 45.97134175064394 C-0.46282458708217433 37.55392065701888, 2.0629014466823863 28.28249668949637, 7.6465322698536795 20.83195343541817 C13.230163093024974 13.381410181339973, 27.027503843549052 4.660597006587098, 32.99455757778035 1.2680822261747409 C38.96161131201164 -2.124432554237616, 42.97399491029465 -0.2252686868882634, 43.448854675241456 0.4768647529440315 M48.6359020138812 1.1489113451646347 C56.44203296475324 1.0104354976313228, 65.4773118785216 3.05217997562918, 72.51087674641256 7.964121654835459 C79.54444161430352 12.876063334041739, 87.5560274320828 22.46589087281027, 90.83729122122698 30.62056142040231 C94.11855501037115 38.77523196799435, 94.07420508507798 48.709262425737734, 92.19845948127761 56.89214494038771 C90.32271387747724 65.07502745503768, 85.86166755136622 74.109831448269, 79.58281759842477 79.71785650830216 C73.30396764548331 85.32588156833532, 62.841839229670555 88.77982886472257, 54.52535976362888 90.54029530058662 C46.2088802975872 92.30076173645067, 37.55401774780021 93.3452744846148, 29.683940802174703 90.28065512348641 C21.813863856549197 87.21603576235802, 12.35306512593112 79.2166406657461, 7.3048980898758415 72.15257913381627 C2.2567310538205616 65.08851760188645, -0.4729288872067864 56.33339256539635, -0.6050614141569781 47.89628593190748 C-0.7371939411071698 39.459179298418604, 1.7634976247059315 28.81279345714401, 6.512102928174691 21.52993933288305 C11.260708231643452 14.247085208622089, 20.96776712704212 7.527166652723393, 27.88657040665558 4.199161186341712 C34.805373686269036 0.871155719960031, 44.61485603889138 2.2805575587187925, 48.02492260585545 1.5619065345929641 C51.43498917281952 0.8432555104671356, 48.364656027458864 -0.8686271558883037, 48.34696980843999 -0.11274495841325916" stroke="none" stroke-width="0" fill="#ced4da"></path><path d="M62.82477167885078 2.545031279414978 C70.76215419166044 5.020018373971519, 79.75288397380709 12.692350034903978, 84.78270404436091 19.75195389483676 C89.81252411491474 26.81155775476954, 92.75359172460897 36.590676484448736, 93.00369210217369 44.90265443901168 C93.25379247973841 53.21463239357462, 90.79879824724514 62.40107157507448, 86.28330630974926 69.62382162221442 C81.76781437225338 76.84657166935436, 73.51992296196808 84.54336022219492, 65.91074047719843 88.2391547218513 C58.30155799242878 91.9349492215077, 48.90970057672128 92.96085346777012, 40.62821140113139 91.79858862015271 C32.3467222255415 90.6363237725353, 22.588497901352465 86.69024957004653, 16.2218054236591 81.26556563614689 C9.855112945965733 75.84088170224724, 4.787713225555919 67.43592181698801, 2.4280565349711836 59.250485016754865 C0.0683998443864482 51.065048216521724, -0.4005379657200123 40.17890678117841, 2.0638652801506865 32.152944834748034 C4.528268526021385 24.126982888317656, 10.73030162376379 16.38353142237426, 17.214476010195376 11.094713338172596 C23.698650396626963 5.805895253970932, 32.39927302506638 1.3127345725683668, 40.968911598740206 0.4200363295380498 C49.538550172414034 -0.47266191349226716, 63.14882382970332 4.152642009655967, 68.63230745223836 5.738523879990694 C74.11579107477341 7.324405750325422, 74.0940647320216 9.33891501046302, 73.86981333395049 9.935327551546415 M51.732404396677794 -0.5088160097030467 C59.79503162056391 -0.1468631470383599, 69.85960812294347 4.582543167715214, 76.19496628512977 10.019297963806778 C82.53032444731606 15.456052759898341, 87.28614864799516 23.74498192356384, 89.7445533697956 32.11171276684634 C92.20295809159603 40.478443610128835, 93.42331619585178 51.8553536414292, 90.94539461593239 60.21968302350177 C88.46747303601299 68.58401240557436, 81.68915625119355 77.14311566147272, 74.87702389027919 82.2976890592818 C68.06489152936483 87.45226245709087, 58.56503338107131 90.48267654191822, 50.07260045044624 91.14712341035622 C41.58016751982117 91.8115702787942, 31.425608830291228 90.04712300009702, 23.922426306528774 86.28437026990974 C16.41924378276632 82.52161753972247, 9.118880027387327 75.91053645195169, 5.053505307871511 68.5706070292326 C0.9881305883556957 61.230677606513524, -0.9241147429966798 50.58615028722496, -0.4698220105661193 42.24479373359525 C-0.015529278135558655 33.90343717996554, 2.88317989710466 24.998093553473893, 7.779261702454875 18.52246770745435 C12.675343507805088 12.046841861434807, 21.28028023835387 6.518119338206274, 28.90666882153517 3.391038657477992 C36.53305740471647 0.26395797674971, 49.6519726792761 -0.041832559799342306, 53.53759320154267 -0.24001637691534228 C57.42321372380924 -0.43820019403134225, 52.71079274264992 1.2855853267597142, 52.2203919551346 2.201935754781992" stroke="#000000" stroke-width="1" fill="none"></path></g></svg>