<svg xmlns="http://www.w3.org/2000/svg" width="440.748" height="527.598" version="1.1" viewBox="0 0 440.748 527.598"><defs><style>@font-face{font-family:&quot;Virgil&quot;;src:url(https://excalidraw.com/FG_Virgil.woff2)}@font-face{font-family:&quot;Cascadia&quot;;src:url(https://excalidraw.com/Cascadia.woff2)}</style></defs><g><g><path fill="none" stroke="#000" stroke-width="1" d="M-0.5885801307857036 -87.98977370725817 C4.826352348343891 -98.30529389721121, 17.28311779795159 -129.35541493586575, 32.90884176368333 -149.06482732015917 C48.534565729415064 -168.77423970445258, 68.87207927747666 -192.10291647875724, 93.16576366360471 -206.24624801301863 C117.45944804973276 -220.38957954728002, 149.1491769872774 -232.13743445577484, 178.67094808045164 -233.92481652572752 C208.19271917362587 -235.7121985956802, 243.31497435738868 -228.82825915324986, 270.2963902226502 -216.9705404327347 C297.2778060879117 -205.11282171221956, 320.8903486848974 -183.69810700582258, 340.55944327202076 -162.77850420263664 C360.2285378591441 -141.8589013994507, 384.7177698571686 -98.9039180609809, 388.3109577453904 -91.45292361361906 C391.9041456336122 -84.00192916625723, 374.7328463168974 -108.44183076855131, 362.1185706013516 -118.07253751846564 C349.50429488580585 -127.70324426837996, 330.9085200114684 -140.5312803737366, 312.6253034521156 -149.23716411310502 C294.3420868927628 -157.94304785247346, 274.1452042802239 -165.92593378886423, 252.41927124523488 -170.30783995467627 C230.69333821024588 -174.6897461204883, 205.3298079466901 -176.41609165213396, 182.2697052421817 -175.5286011079773 C159.20960253767328 -174.64111056382063, 134.07616748859417 -170.56953355464097, 114.0586550181845 -164.98289668973638 C94.04114254777483 -159.3962598248318, 77.65657261232846 -151.0041621332567, 62.16463041972369 -142.00877991854975 C46.672688227118925 -133.0133977038428, 31.289596870167962 -120.00790593480511, 21.1070018625559 -111.01060340149465 C10.924406854943841 -102.01330086818419, 4.4921406529645385 -91.72669301376905, 1.0690603740513323 -88.024964718687 M1.3032765712123364 -89.11491155986546 C6.5299640348995585 -99.28557216852684, 16.79698606074732 -127.7005015231141, 31.99955855695038 -147.53449952608227 C47.20213105315344 -167.36849752905044, 68.1274262114059 -193.91106877994764, 92.5187115484307 -208.11889957767445 C116.9099968854555 -222.32673037540127, 148.929446224466 -231.33108612378513, 178.34727057909913 -232.78148431244307 C207.76509493373226 -234.231882501101, 241.8553078331852 -228.37104898011796, 269.02565767622946 -216.82128870962217 C296.1960075192737 -205.27152843912637, 321.4426159347479 -184.66568946962164, 341.36936963736457 -163.48292268946835 C361.29612333998125 -142.30015590931507, 385.314659813492 -97.26883637269417, 388.5861798919294 -89.72468802870252 C391.8576999703668 -82.18053968471087, 373.90102160596024 -108.05245241894721, 360.998490107989 -118.21803262551848 C348.0959586100178 -128.38361283208974, 329.1608337502597 -141.90479518024372, 311.1709909041022 -150.71816926813005 C293.1811480579447 -159.53154335601639, 274.5619793733304 -166.60541444244637, 253.0594330310442 -171.0982771528365 C231.55688668875797 -175.5911398632266, 204.99917888317137 -179.15161676416497, 182.1557128503849 -177.6753455304708 C159.31224681759844 -176.19907429677662, 135.97348463885726 -168.56337320377992, 115.99863683432542 -162.24064975067142 C96.02378902979358 -155.91792629756293, 78.24286902500317 -148.2400259123228, 62.30662602319383 -139.7390048118198 C46.370383021384484 -131.2379837113168, 31.049117568981686 -119.74425349765276, 20.381178823469366 -111.23452314765329 C9.713240077957048 -102.72479279765382, 1.9889344336173447 -92.54410712216276, -1.7010064498800785 -88.68062271182298" transform="translate(40.19183903426563 297.23073254413373) rotate(0 193.62803292880227 -161.09718137541716)"/></g></g><g><g><path fill="none" stroke="#000" stroke-width="1" d="M0.5394602783024312 -87.5511866139049 C6.090245975873499 -98.06454921108451, 18.1828595439028 -130.11344039134062, 33.946462542990616 -149.88348815161058 C49.71006554207843 -169.65353591188054, 70.25929458294733 -192.3140882965368, 95.12107827282931 -206.17147317552474 C119.98286196271128 -220.02885805451268, 153.505041143522 -231.38231904210906, 183.11716468228244 -233.0277974255383 C212.72928822104288 -234.67327580896753, 245.65070706233544 -227.50929791438875, 272.79381950539204 -216.04434347610018 C299.9369319484486 -204.5793890378116, 325.98958151857084 -185.13961634801618, 345.975839340622 -164.2380707958068 C365.9620971626731 -143.33652524359744, 389.11792860756884 -98.25208939047918, 392.71136643769864 -90.63507016284392 C396.30480426782844 -83.01805093520865, 380.1245202890551 -108.76473049160428, 367.5364663214006 -118.53595542999517 C354.9484123537461 -128.30718036838607, 335.8423548950729 -140.91884989659425, 317.1830426317715 -149.26241979318925 C298.5237303684701 -157.60598968978425, 277.51719274433333 -163.9899895177766, 255.58059274159234 -168.5973748095652 C233.64399273885132 -173.2047601013538, 209.00668761086035 -177.59032499335098, 185.56344261532547 -176.9067315439209 C162.1201976197906 -176.22313809449082, 135.50051552652187 -170.60951091441268, 114.921122768383 -164.49581411298465 C94.34173001024413 -158.3821173115566, 77.65868065250156 -149.2873249178331, 62.087086066492304 -140.22455073535272 C46.51549148048305 -131.16177655287234, 31.923039412508672 -118.8335705504362, 21.491555252327473 -110.11916901810231 C11.060071092146272 -101.40476748576842, 3.2784214050246527 -91.61605086670484, -0.5018188945949077 -87.93814154134935 M-0.636461804928258 -88.44606624250173 C4.762398533572507 -98.30843652218361, 17.448149613510815 -128.85649034271327, 33.371910545535776 -148.7829572940457 C49.29567147756074 -168.70942424537813, 70.41509187288321 -193.62310580206147, 94.9061037872215 -208.00486795049628 C119.39711570155978 -222.38663009893108, 150.3410319616928 -233.83953511794482, 180.31798203156546 -235.07353018465452 C210.29493210143812 -236.3075252513642, 246.91351039487097 -227.57963309085477, 274.76780420645736 -215.4088383507545 C302.62209801804374 -203.23804361065424, 327.7702783266986 -182.59399121646686, 347.4437449010838 -162.04876174405285 C367.117211475469 -141.50353227163885, 389.5586536244887 -99.32479765017905, 392.8086036527687 -92.13746151627042 C396.05855368104864 -84.95012538236179, 379.724116316815 -109.15487449660301, 366.9434450707634 -118.92474494060103 C354.1627738247118 -128.69461538459905, 334.5710896014431 -142.49583870260167, 316.1245761764591 -150.7566841802585 C297.67806275147507 -159.01752965791533, 277.95053795968187 -164.2630994290377, 256.26436452085943 -168.48981780654208 C234.57819108203702 -172.71653618404645, 209.28816112502795 -176.67232260952096, 186.00753554352457 -176.1169944452848 C162.72690996202118 -175.56166628104864, 137.28358538569688 -171.0643386774318, 116.58061103183915 -165.15784882112507 C95.87763667798143 -159.25135896481834, 77.747731956095 -149.89184915880185, 61.78968942037824 -140.67805530744434 C45.831646884661474 -131.46426145608683, 31.203403610029216 -118.5633920364902, 20.832355817538577 -109.87508571297998 C10.461308025047938 -101.18677938946976, 3.1654680929536125 -92.37537784788985, -0.4365973345655949 -88.54821736638307" transform="translate(37.52863690012816 546.8900306773004) rotate(180 196.29154513968112 -161.3512888432017)"/></g></g><g><text x="0" y="125" fill="#000" direction="ltr" font-family="Virgil, Segoe UI Emoji" font-size="109.668" text-anchor="start" transform="translate(62.83218743902728 142.00180136155097) rotate(0 183 86.5)" style="white-space:pre">jupyter</text></g><g><path fill="none" stroke="#000" stroke-width="1" d="M55.60039078097182 2.7830147176443845 C62.240496909444836 5.1563176041198275, 67.82277191581255 12.393401101599522, 71.35492138798222 19.142809862998252 C74.88707086015188 25.892218624396982, 77.62810779962913 35.74309395356, 76.79328761398982 43.27946728603677 C75.9584674283505 50.81584061851354, 71.73739053904978 58.81073314875828, 66.34600027414633 64.36104985785889 C60.95461000924289 69.91136656695949, 51.90398324098109 75.34830228157647, 44.444946024569155 76.5813675406404 C36.98590880815722 77.81443279970433, 28.200796783665105 75.1337934018056, 21.591776975674737 71.7594414122425 C14.982757167684369 68.38508942267939, 8.453052019417648 62.94449712761541, 4.790827176626948 56.3352556032617 C1.1286023338362479 49.72601407890799, -1.4735320505686136 39.67407951284518, -0.3815720810694643 32.1039922661202 C0.710387888429685 24.53390501939522, 5.596238141955678 16.206217846269944, 11.342586993621843 10.914732122911808 C17.08893584528801 5.623246399553671, 26.52835414616049 1.1584817305204616, 34.096521028927526 0.3550779259713792 C41.664687911694564 -0.448325878577703, 52.37136000323188 4.930430388945726, 56.75158829022406 6.094309295617315 C61.13181657721625 7.2581882022889035, 60.42963541643603 6.938378420549131, 60.37789075088064 7.338351366000914 M44.01522403206109 0.19640481471655136 C51.24219821558356 0.6102717610581057, 58.69080404719287 5.77429298027645, 63.80055084415816 10.820485631732211 C68.91029764112345 15.866678283187973, 73.08414419586687 23.23497425830958, 74.67370481385285 30.473560723451115 C76.26326543183883 37.712147188592645, 76.25948224213089 47.24807657733055, 73.33791455207401 54.25200442258141 C70.41634686201714 61.255932267832264, 64.11089789110517 68.71360928956335, 57.144298673511585 72.49712779495626 C50.177699455918 76.28064630034916, 39.48658301271778 78.05160809427775, 31.5383192465125 76.95311545493885 C23.59005548030722 75.85462281559995, 14.599976992606862 71.35073664753018, 9.454716076279905 65.90617195892281 C4.309455159952948 60.46160727031545, 1.4918294718698544 51.68592824502301, 0.6667537485507609 44.28572732329466 C-0.15832197476833265 36.88552640156631, 0.913583072904661 28.102353332837197, 4.504261736365343 21.504966428552724 C8.094940399826026 14.90757952426825, 16.00477493794455 8.251911852058441, 22.210825729314855 4.701405897587826 C28.41687652068516 1.1508999431172096, 38.48213750765772 0.7698233745586833, 41.74056648458718 0.20193070172902594 C44.998995461516635 -0.36596197110063144, 41.722478461961934 0.6511980148744575, 41.761399590891614 1.2940498606098814" transform="translate(343.44650299342607 10.000000000000114) rotate(0 38.37936234949092 38.37936234949092)"/></g><g><path fill="none" stroke="#000" stroke-width="1" d="M32.587371183466765 0.06468947320409058 C37.46180051525383 1.4098258003583555, 42.601833490097796 6.93622339524279, 45.399879240704564 11.750347698335654 C48.19792499131133 16.56447200142852, 49.87365489627349 23.73122462054038, 49.37564568710738 28.949435291761276 C48.877636477941266 34.16764596298217, 46.12835375982573 39.66241051387463, 42.4118239857079 43.059611725661014 C38.69529421159007 46.456812937447395, 32.378310387917004 48.9168522429467, 27.07646704240038 49.33264256247955 C21.774623696883758 49.748432882012395, 14.929619261739361 48.635284667663555, 10.60076391260816 45.554353642858075 C6.271908563476958 42.473422618052595, 2.2589526962454665 36.12323339139889, 1.1033349476131704 30.84705641364669 C-0.052282801019125635 25.57087943589449, 1.1912971951557827 18.85239085945159, 3.667057420814384 13.897291776344874 C6.142817646472985 8.942192693238159, 10.75405697174174 3.2457016046642146, 15.957896301564778 1.116461915006397 C21.161735631387817 -1.0127777746514206, 31.334644670777156 0.7851683672621299, 34.89009339975261 1.121853638397969 C38.44554212872806 1.458538909533808, 37.44815668238586 2.621448869818179, 37.29058867541749 3.1365735418214307 M31.838084249207583 0.25608408894269985 C36.649448172598376 1.742385843505627, 42.21835016410639 7.908970708245861, 45.21195211214234 12.777738594595435 C48.205554060178294 17.64650648094501, 50.16895950333676 24.508240719576897, 49.79969593742331 29.468691407040147 C49.43043237150986 34.4291420945034, 47.12052248083512 39.242629402253186, 42.996370716661644 42.54044271937494 C38.87221895248817 45.83825603649669, 30.845267666928567 48.71710923416428, 25.054785352382464 49.255571309770644 C19.26430303783636 49.794033385377006, 12.369786873527 48.80545689136627, 8.253476829385015 45.771215173013125 C4.13716678524303 42.73697345465998, 1.2308893632605376 36.313050363204304, 0.35692508753055563 31.050120999651796 C-0.5170391881994263 25.787191636099283, 0.6129988075050607 19.07576916951818, 3.0096911750051234 14.193638991698057 C5.406383542505186 9.311508813877936, 9.65982566238158 3.6972989483328016, 14.73707929253093 1.757339932731071 C19.81433292268028 -0.18261908287065953, 30.475318950797732 2.4404331240963404, 33.473212955901225 2.5538848980876736 C36.471106961004715 2.667336672079007, 32.84253526218776 2.0681163421833904, 32.72444332315188 2.438050576679071" transform="translate(10 82.63191154312278) rotate(0 25.173560250741332 25.173560250741332)"/></g><g><path fill="none" stroke="#000" stroke-width="1" d="M62.82477167885078 2.545031279414978 C70.76215419166044 5.020018373971519, 79.75288397380709 12.692350034903978, 84.78270404436091 19.75195389483676 C89.81252411491474 26.81155775476954, 92.75359172460897 36.590676484448736, 93.00369210217369 44.90265443901168 C93.25379247973841 53.21463239357462, 90.79879824724514 62.40107157507448, 86.28330630974926 69.62382162221442 C81.76781437225338 76.84657166935436, 73.51992296196808 84.54336022219492, 65.91074047719843 88.2391547218513 C58.30155799242878 91.9349492215077, 48.90970057672128 92.96085346777012, 40.62821140113139 91.79858862015271 C32.3467222255415 90.6363237725353, 22.588497901352465 86.69024957004653, 16.2218054236591 81.26556563614689 C9.855112945965733 75.84088170224724, 4.787713225555919 67.43592181698801, 2.4280565349711836 59.250485016754865 C0.0683998443864482 51.065048216521724, -0.4005379657200123 40.17890678117841, 2.0638652801506865 32.152944834748034 C4.528268526021385 24.126982888317656, 10.73030162376379 16.38353142237426, 17.214476010195376 11.094713338172596 C23.698650396626963 5.805895253970932, 32.39927302506638 1.3127345725683668, 40.968911598740206 0.4200363295380498 C49.538550172414034 -0.47266191349226716, 63.14882382970332 4.152642009655967, 68.63230745223836 5.738523879990694 C74.11579107477341 7.324405750325422, 74.0940647320216 9.33891501046302, 73.86981333395049 9.935327551546415 M51.732404396677794 -0.5088160097030467 C59.79503162056391 -0.1468631470383599, 69.85960812294347 4.582543167715214, 76.19496628512977 10.019297963806778 C82.53032444731606 15.456052759898341, 87.28614864799516 23.74498192356384, 89.7445533697956 32.11171276684634 C92.20295809159603 40.478443610128835, 93.42331619585178 51.8553536414292, 90.94539461593239 60.21968302350177 C88.46747303601299 68.58401240557436, 81.68915625119355 77.14311566147272, 74.87702389027919 82.2976890592818 C68.06489152936483 87.45226245709087, 58.56503338107131 90.48267654191822, 50.07260045044624 91.14712341035622 C41.58016751982117 91.8115702787942, 31.425608830291228 90.04712300009702, 23.922426306528774 86.28437026990974 C16.41924378276632 82.52161753972247, 9.118880027387327 75.91053645195169, 5.053505307871511 68.5706070292326 C0.9881305883556957 61.230677606513524, -0.9241147429966798 50.58615028722496, -0.4698220105661193 42.24479373359525 C-0.015529278135558655 33.90343717996554, 2.88317989710466 24.998093553473893, 7.779261702454875 18.52246770745435 C12.675343507805088 12.046841861434807, 21.28028023835387 6.518119338206274, 28.90666882153517 3.391038657477992 C36.53305740471647 0.26395797674971, 49.6519726792761 -0.041832559799342306, 53.53759320154267 -0.24001637691534228 C57.42321372380924 -0.43820019403134225, 52.71079274264992 1.2855853267597142, 52.2203919551346 2.201935754781992" transform="translate(21.059859257702584 425.1574034794392) rotate(0 46.22030734562345 46.22030734562345)"/></g></svg>