<svg version="1.1" xmlns="http://www.w3.org/2000/svg" viewBox="0 0 296 439.6578947368421" width="296" height="439.6578947368421">
  <!-- svg-source:excalidraw -->
  
  <defs>
    <style>
      @font-face {
        font-family: "Virgil";
        src: url("https://excalidraw.com/FG_Virgil.woff2");
      }
      @font-face {
        font-family: "Cascadia";
        src: url("https://excalidraw.com/Cascadia.woff2");
      }
    </style>
  </defs>
  <g transform="translate(42.526315789473756 10) rotate(0 49 49)"><path d="M46.06222626204717 -0.6299927913562868 C54.18003160144308 -1.7851845810967835, 65.2462278411626 0.8666312273703403, 72.85566854834423 5.309890939390712 C80.46510925552586 9.753150651411083, 87.52782526373964 18.303872412527085, 91.71887050513698 26.029565480765946 C95.90991574653431 33.75525854900481, 98.56209701194734 43.219164389550215, 98.00193999672824 51.66404934882387 C97.44178298150914 60.10893430809753, 93.61498587315441 69.6696530685742, 88.35792841382231 76.69887523640789 C83.1008709544902 83.72809740424157, 74.47216913179916 90.49092021480237, 66.45959524073564 93.83938235582599 C58.44702134967211 97.1878444968496, 48.82182471663633 98.23118216383534, 40.28248506744117 96.78964808254959 C31.743145418246016 95.34811400126384, 21.656694349707013 91.11797475168123, 15.223557345564693 85.19017786811152 C8.790420341422372 79.2623809845418, 3.9030086725051767 69.78744828029821, 1.6836630425872414 61.22286678113127 C-0.5356825873306938 52.658285281964346, -0.6110991939861985 41.88794186228999, 1.9074835660570812 33.80268887310994 C4.426066326100361 25.717435883929895, 10.263036894303195 18.119401444441188, 16.79515960284692 12.711348846050967 C23.327282311390643 7.3032962476607475, 34.35791741725318 3.2326459008871957, 41.10021981731943 1.354373282768627 C47.84252221738568 -0.5238993353499417, 52.951627181154265 1.0703274428717258, 57.248974003244406 1.4417131373395549 C61.54632082533455 1.813098831807384, 67.10840365546048 3.0243370528103894, 66.88430074986026 3.5826874495756016 M39.87405809704844 2.374410286470571 C47.86791568379022 -0.3563113405007807, 56.852165286732415 -0.5482785944331803, 64.62388734540755 2.3381681720312812 C72.39560940408269 5.224614938495742, 81.15084033539624 12.548177701827306, 86.50439044909926 19.69309088525734 C91.85794056280228 26.838004068687376, 95.59865862685797 36.639396076632245, 96.74518802762572 45.20764727261149 C97.89171742839346 53.77589846859073, 96.96873918363605 63.522202837210145, 93.3835668537057 71.10259806113281 C89.79839452377536 78.68299328505547, 82.809961307163 86.43202929579873, 75.23415404804368 90.69001861614748 C67.65834678892436 94.94800793649624, 56.938940571046665 96.90475660790625, 47.928723298989794 96.65053398322533 C38.918506026932924 96.39631135854441, 28.534005761727226 93.72085859311474, 21.172850415702463 89.16468286806199 C13.8116950696777 84.60850714300923, 7.269537725948233 77.2504671898273, 3.761791222841218 69.31347963290877 C0.2540447197342033 61.37649207599022, -1.2750673578659868 50.356882438945284, 0.1263713970603746 41.54275752655072 C1.527810151986736 32.72863261415616, 6.371946122702965 22.9605482421984, 12.170423752399387 16.428730158541413 C17.968901382095808 9.896912074884426, 30.56032118090076 4.857848065478921, 34.91723717523891 2.3518490246088035 C39.27415316957706 -0.15415001626131408, 37.58460234925981 1.2717547087496885, 38.31191971842828 1.3927359133207062 C39.039237087596746 1.513717117891724, 38.93156199688129 2.3761057593933095, 39.281141390249715 3.07773625203491" stroke="none" stroke-width="0" fill="#ffff"></path><path d="M59.59829762717268 2.342321005657027 C67.71686486195557 3.593376551698438, 78.28954067389462 8.439273604144496, 84.50023136521298 14.598461733712163 C90.71092205653134 20.75764986327983, 95.16174976958146 30.59195614960308, 96.86244177508284 39.29744978306302 C98.56313378058422 48.00294341652297, 97.59705360479195 58.62576562508813, 94.70438339822127 66.83142353447181 C91.81171319165058 75.03708144385548, 86.42824450041718 83.2381639436859, 79.50642053565873 88.5313972393651 C72.58459657090029 93.8246305350443, 61.982519807149345 97.93128088863905, 53.17343960967055 98.59082330854702 C44.36435941219176 99.25036572845498, 34.40164692406189 96.70866599001658, 26.651939350785977 92.48865175881289 C18.90223177751006 88.2686375276092, 11.220527041567017 80.78543414104522, 6.675194170015047 73.2707379213249 C2.1298612984630774 65.75604170160457, -0.7704694954910719 55.8904809214886, -0.6200578785258415 47.400474440490925 C-0.46964626156061107 38.910467959493246, 2.7640412422556464 29.506908055661714, 7.577663871806429 22.33069903533884 C12.39128650135721 15.154490015015963, 20.09958573153439 7.826981530037191, 28.261677898778853 4.343220318553676 C36.423770066023316 0.8594591070701618, 49.8521006935527 1.5159926637704035, 56.55021687527319 1.428131766437751 C63.24833305699369 1.3402708691050986, 65.69063927415793 2.905562135648014, 68.45037498910183 3.816054934557762 C71.21011070404573 4.72654773346751, 73.42370434121256 6.251129844037, 73.10863116493658 6.8910885598962395 M48.7210298641392 0.7026692501517573 C56.864344880861914 -0.481724683766495, 66.3806953295655 2.0753971663040955, 73.57473122477974 6.160957695572272 C80.76876711999398 10.246518224840447, 87.9905836409577 17.47984699560002, 91.88524523542468 25.216032425760815 C95.77990682989166 32.95221785592161, 97.54596883471146 43.67278910295351, 96.94270079158163 52.578070276537034 C96.3394327484518 61.48335145012056, 93.56877469721601 71.52952244058395, 88.26563697664565 78.64771946726196 C82.96249925607529 85.76591649393998, 73.47982758699722 92.23333744261329, 65.12387446815947 95.28725243660517 C56.76792134932173 98.34116743059705, 46.61991852150691 98.5905042373412, 38.12991826361921 96.97120943121323 C29.63991800573151 95.35191462508526, 20.470464711266477 91.6835700486807, 14.18387292083326 85.57148359983736 C7.897281130400041 79.45939715099402, 2.1272421983210483 68.77127175994269, 0.41036752101990004 60.2986907381532 C-1.306507156281248 51.826109716363696, 0.8109745639420365 42.72984710759769, 3.8826248570263715 34.735997469100354 C6.954275150110707 26.742147830603013, 12.187198210957316 18.280283375728562, 18.84026927952591 12.33559290716915 C25.493340348094502 6.390902438609739, 39.23701019459564 0.8790298044953968, 43.801051268437924 -0.9321453422561135 C48.36509234228021 -2.7433204890076235, 45.57871323087657 1.2880284388802086, 46.22451572257959 1.4685420266600886 C46.870318214282605 1.6490556144399686, 47.671781958670074 -0.6192093079283438, 47.67586621865603 0.15093618442316625" stroke="#000000" stroke-width="1" fill="none"></path></g><g transform="translate(10 137.15789473684208) rotate(0 81 81)"><path d="M113.12762907544672 7.3957715105565285 C123.6263812667462 10.674324066497103, 134.22089843480248 19.596001873507866, 141.7461090945099 27.910513606453243 C149.27131975421733 36.22502533939862, 154.9557384788107 46.4183131433827, 158.27889303369122 57.282841908228804 C161.60204758857174 68.1473706730749, 163.44121821547913 81.75051623081194, 161.68503642379295 93.09768619552987 C159.92885463210678 104.44485616024781, 154.14173402845958 115.86307092107438, 147.74180228357415 125.3658616965364 C141.3418705386887 134.86865247199842, 133.08979440181014 144.02617410871105, 123.28544595448037 150.11443084830196 C113.4810975071506 156.20268758789288, 100.42175374483561 160.74894387371052, 88.9157115995955 161.89540213408185 C77.40966945435538 163.04186039445318, 65.086520317063 160.78108633251696, 54.24919308303966 156.99318041053002 C43.41186584901631 153.20527448854307, 32.20776172887609 147.02353412236747, 23.8917481954554 139.16796660216013 C15.575734662034703 131.3123990819528, 8.312111704980422 120.57453491010409, 4.353111882515478 109.85977528928606 C0.3941120600505328 99.14501566846803, -1.0055269429272873 86.23779933912517, 0.13774926066572846 74.87940887725193 C1.2810254642587442 63.5210184153787, 5.571953157416934 51.58738293422753, 11.212769104073573 41.70943251804663 C16.85358505073021 31.83148210186574, 24.883946320852857 22.4341960339316, 33.98264494060556 15.61170638016658 C43.08134356035826 8.789216726401563, 54.638831802248426 2.9223272829862807, 65.80496082258978 0.774494595456531 C76.97108984293112 -1.3733380920732188, 92.74939376507605 1.6125920405628118, 100.97941906265365 2.724710254988082 C109.20944436023125 3.8368284694133523, 112.4355019415893 6.131535317777716, 115.18511260805535 7.447203882008154 C117.9347232745214 8.76287244623859, 117.86353913555646 9.38781650866944, 117.47708306144997 10.618721640370708 M66.67403557698591 -0.2945336389811075 C77.24937671163207 -3.3811290796669184, 90.77698687445296 1.014501772677658, 101.84610204480856 4.145299257813875 C112.91521721516416 7.276096742950092, 124.12831001254646 11.32163655846962, 133.0887265991195 18.490251271836193 C142.04914318569254 25.658865985202766, 150.851318551955 36.54809521409355, 155.60860156424678 47.15698753801331 C160.36588457653858 57.76587986193307, 161.70452221628108 70.62631625207703, 161.63242467287023 82.14360521535474 C161.56032712945938 93.66089417863245, 160.1447521108028 106.10332922225811, 155.17601630378164 116.26072131767951 C150.20728049676046 126.41811341310091, 140.77549681689575 136.06050072547632, 131.82000983074315 143.0879577878831 C122.86452284459054 150.1154148502899, 112.2520898029906 155.60494834306581, 101.44309438686595 158.42546369212027 C90.6340989707413 161.24597904117473, 78.16456494852355 162.19567848725598, 66.96603733399527 160.0110498822099 C55.76750971946701 157.82642127716383, 43.51745327893988 152.09865768725123, 34.25192869969633 145.31769206184376 C24.986404120452775 138.53672643643628, 17.001768076634814 129.33497055785966, 11.372889858533938 119.32525612976508 C5.744011640433062 109.3155417016705, 1.2935967272080902 96.581767694987, 0.47865939109107103 85.25940549327626 C-0.3362779450259481 73.93704329156553, 2.6087024568152017 62.08885242677096, 6.483265841831823 51.39108291950072 C10.357829226848445 40.693313412230474, 15.694282849304221 28.76505440266433, 23.7260397011908 21.072788449654816 C31.757796553077377 13.380522496645302, 47.642099593546035 8.537572127856304, 54.6738069531513 5.237487201443642 C61.70551431275656 1.9374022750309798, 63.59478469479776 1.7118996838363973, 65.9162838588224 1.2722788911788427 C68.23778302284703 0.8326580985212881, 68.05491384010685 1.3156583725865119, 68.6028019372991 2.599762445498314" stroke="none" stroke-width="0" fill="#ffff"></path><path d="M87.58477843662794 -0.005427143454369343 C98.50907178576193 -0.34254676012292623, 112.39839615312331 4.433869080658959, 122.40171780444487 10.264200436245062 C132.40503945576643 16.094531791831166, 141.28288053858068 25.47020725891027, 147.60470834455725 34.97656099006225 C153.92653615053382 44.48291472121422, 158.28272307292457 56.086403062719036, 160.33268464030425 67.3023228231569 C162.38264620768393 78.51824258359476, 162.8862575708078 91.1092925002938, 159.9044777488354 102.2720795526894 C156.922697926863 113.434866605085, 150.09970386155797 125.37932272777464, 142.44200570846985 134.27904513753046 C134.78430755538173 143.17876754728627, 124.37809784990715 151.01821826870847, 113.95828883030661 155.67041401122435 C103.53847981070608 160.32260975374024, 91.34654543603972 162.6239320794398, 79.92315159086664 162.1922195926258 C68.49975774569356 161.7605071058118, 55.727127675196684 158.1696041171795, 45.417925759268115 153.08013909034034 C35.10872384333955 147.9906740635012, 25.307016421906315 140.43904280640788, 18.067940095295228 131.65542943159085 C10.82886376868414 122.87181605677382, 4.8384230381865745 111.58527400772842, 1.9834677996015984 100.3784588414382 C-0.8714874389833773 89.17164367514799, -1.2261482128223924 75.50116714394531, 0.9382086637853746 64.4145384338496 C3.1025655403931416 53.32790972375388, 8.041675652678443 42.789401674949275, 14.9696090592482 33.8586865808639 C21.897542465817956 24.92797148677853, 32.32995387921048 16.527892290656442, 42.50580910320391 10.83024786933737 C52.68166432719734 5.1326034480182985, 67.55694104977334 1.1925083108764127, 76.02474040320878 -0.32717994705052433 C84.49253975664422 -1.8468682049774614, 89.99381771577023 0.9989936866410479, 93.31260522381652 1.7121183217757476 C96.6313927318628 2.4252429569104472, 96.25578861561262 2.9114460526994153, 95.93746545148652 3.951567863757674 M105.6346808427628 5.018273603345875 C115.90320015976313 7.4100762394858215, 127.33436817759608 14.558711520433423, 135.96879390651748 22.255634642598302 C144.60321963543888 29.95255776476318, 152.9307023238015 40.56351309811449, 157.4412352162912 51.19981233633516 C161.9517681087809 61.83611157455582, 163.78268785470175 74.3629462008277, 163.03199126145557 86.0734300719223 C162.2812946682094 97.78391394301691, 158.81409531834313 111.17704157122445, 152.93705565681412 121.46271556290282 C147.0600159952851 131.7483895545812, 137.47244434391826 141.32570821208014, 127.76975329228145 147.7874740219925 C118.06706224064463 154.24923983190484, 106.05839082848769 158.21117040728524, 94.72090934699324 160.23331042237697 C83.38342786549879 162.2554504374687, 70.54373063649828 162.60385014095772, 59.74486440331474 159.920314112543 C48.9459981701312 157.23677808412828, 38.50951707441858 151.53349232707222, 29.92771194789198 144.1320942518886 C21.34590682136538 136.73069617670495, 13.407395585897273 126.16173952912392, 8.254033644155143 115.5119256614411 C3.100671702413014 104.86211179375827, -0.6194184362575232 91.61010638497045, -0.9924597025607937 80.23321104579163 C-1.3655009688640642 68.85631570661282, 0.8696648196430141 57.31995770952608, 6.015786046335521 47.250553626368195 C11.161907273028028 37.18114954321031, 21.174736204749465 27.109308634636317, 29.884267657594243 19.816786546844313 C38.59379911043902 12.524264459052308, 47.559317996024895 6.648412299769349, 58.27297476340419 3.4954210996161663 C68.98663153078348 0.34242989946298286, 86.25897279074147 0.800629869044838, 94.16620826187001 0.8988393459252109 C102.07344373299856 0.9970488228055837, 103.77664780083101 3.0865238935172434, 105.71638759017546 4.084677960898404 C107.6561273795199 5.082832028279564, 106.23427037337026 5.7100411817077825, 105.80464699793669 6.887763750212173" stroke="#000000" stroke-width="1" fill="none"></path></g><g transform="translate(44.5 331.6578947368421) rotate(0 49 49)"><path d="M46.38418193577124 -0.08669698825817562 C54.85045428350967 -1.2767050590708031, 66.24694972338446 1.1440031242415563, 73.9648451439949 5.557919496946745 C81.68274056460535 9.971835869651933, 88.73231487301265 18.68431912644797, 92.69155445943389 26.39680124797296 C96.65079404585512 34.109283369497945, 98.34842722251743 43.249285519506074, 97.7202826625223 51.83281222609668 C97.09213810252716 60.41633893268728, 93.91334713018485 70.71371799421425, 88.9226870994631 77.8979614875166 C83.93202706874136 85.08220498081894, 75.95982187518268 91.88787920866496, 67.77632247819182 94.93827318591079 C59.59282308120094 97.98866716315662, 48.62448792903448 97.92835669669685, 39.82169071751785 96.20032535099159 C31.018893506001227 94.47229400528633, 21.22658352677417 90.44079685222853, 14.959539209092071 84.57008511167919 C8.692494891409972 78.69937337112985, 4.413748923384679 69.34096909704853, 2.219424811425263 60.976054907695534 C0.025100699465847587 52.61114071834255, -0.6779053743080712 42.59016620875863, 1.7935945373355793 34.38059997556125 C4.26509444897923 26.17103374236388, 10.193318402004586 17.37082423337962, 17.048424281287165 11.718657508511285 C23.903530160569744 6.0664907836429505, 37.67473232202372 2.3570376817103726, 42.924229813031054 0.4675996263512445 C48.17372730403839 -1.4218384290078834, 47.0391802221888 0.44315505738136096, 48.54540922733117 0.382029176356518 C50.05163823247354 0.32090329533167505, 51.863746299649094 -0.5317865398872547, 51.96160384388528 0.1008443402021868 M68.07093833123903 3.5384484750884226 C75.6097354437238 6.1669068231742585, 83.45090495143481 14.39508043321635, 88.22788311883573 21.74303095747055 C93.00486128623666 29.090981481724747, 96.39692383459365 38.98762506290016, 96.7328073356446 47.62615162061361 C97.06869083669554 56.26467817832707, 94.35217630198095 66.10351258879575, 90.24318412514143 73.57419030375127 C86.1341919483019 81.04486801870678, 79.72754085826625 88.19178345908226, 72.0788542746075 92.45021791034671 C64.43016769094874 96.70865236161116, 52.807024917574424 99.5671521187084, 44.351064623188854 99.12479701133799 C35.895104328803285 98.68244190396757, 27.949260823608235 95.05974518810231, 21.34309250829409 89.79608726612418 C14.736924192979949 84.53242934414604, 7.886871221329747 76.01808918096413, 4.714054731304003 67.54284947946913 C1.541238241278259 59.06760977797413, 0.8745317715919871 47.8608973977617, 2.3061935681396264 38.944649057154194 C3.737855364687266 30.02840071654669, 7.4832129253239215 20.320679098323744, 13.304025510589838 14.045359435824096 C19.124838095855754 7.770039773324448, 28.63883507882118 3.4255667742833715, 37.23106907973513 1.2927310821563012 C45.823303080649076 -0.8401046099707692, 59.67586064667907 0.7512710686809025, 64.85742951607352 1.2483452830616741 C70.03899838546798 1.7454194974424457, 67.91195486949667 3.70099985809363, 68.32048229610184 4.275176368440931 C68.72900972270702 4.849352878788232, 67.57990777734716 3.881667356500923, 67.30859407570455 4.693404345145481" stroke="none" stroke-width="0" fill="#ffff"></path><path d="M41.3285026414566 0.18322008201013773 C49.632697190461926 -1.6312956989275047, 61.638666273723246 0.8625355053272554, 69.65918453742786 4.43332418785414 C77.67970280113248 8.004112870381025, 84.89602646716133 14.49510360444419, 89.45161222368432 21.607952177171445 C94.00719798020731 28.7208007498987, 96.83764664459642 38.32834695802403, 96.99269907656581 47.11041562421767 C97.14775150853521 55.89248429041132, 94.77287510904227 66.79890292440436, 90.38192681550072 74.30036417433331 C85.99097852195916 81.80182542426226, 78.30677029418463 88.21149423251146, 70.64700931531648 92.1191831237914 C62.987248336448324 96.02687201507135, 53.130829379288826 98.51355523183011, 44.42336094229179 97.74649752201302 C35.71589250529475 96.97943981219592, 25.450792928786182 92.88231282960521, 18.402198693334245 87.51683686488886 C11.353604457882309 82.1513609001725, 4.872852610975489 73.81089828816557, 2.1317955295801667 65.55364173371493 C-0.6092615518151558 57.29638517926428, -0.16062880276921954 46.40676975714459, 1.9558562049623092 37.973297538184944 C4.072341212693837 29.5398253192253, 8.741348250346046 21.06417175017119, 14.83070557596934 14.952808419957059 C20.920062901592633 8.841445089742926, 33.65106139160633 3.814203395321016, 38.492000158702076 1.30511755690015 C43.33293892579782 -1.2039682815207158, 42.52497192361587 0.01866122928524898, 43.87633817854379 -0.10170661056813657 C45.22770443347171 -0.22207445042152213, 46.546253362904324 -0.41065124101256834, 46.600197688269596 0.5829105177798368 M68.39077656468369 3.037008337111864 C76.13520456677878 5.804270937067313, 85.39695092700818 13.252293508421907, 90.48298322955681 20.81271924806568 C95.56901553210544 28.373144987709452, 98.79524674496318 39.35679951497522, 98.90697037997546 48.3995627749745 C99.01869401498774 57.442326034973775, 95.81955888366961 67.69691768360909, 91.15332503963046 75.06929880806135 C86.4870911955913 82.44167993251361, 78.91209684720653 88.98485513597915, 70.90956731574053 92.63384952168803 C62.90703778427453 96.28284390739692, 51.88628451441719 97.857615876476, 43.13814785083445 96.96326512231468 C34.39001118725171 96.06891436815336, 25.08515910269288 92.49511397525129, 18.420747334244066 87.26774499672007 C11.75633556579525 82.04037601818885, 6.16115451855276 73.57342155273177, 3.1516772401415665 65.59905125112735 C0.14219996173037375 57.624680949522926, -1.2658648555043044 47.76403830136195, 0.3638836637769103 39.42152318709354 C1.993632183058125 31.079008072825133, 6.722087228203342 21.938399223670032, 12.930168355828854 15.543960565516905 C19.138249483454366 9.149521907363777, 28.931463065044767 3.1360732186873257, 37.61237042952999 1.0548912381747755 C46.29327779401521 -1.0262907423377747, 59.61534656232565 2.3944669098415807, 65.01561254274019 3.0568686824416034 C70.41587852315472 3.719270455041626, 69.46528604212456 4.490592664619854, 70.0139663120172 5.029301873774912 C70.56264658190985 5.568011082929971, 68.94126814441488 5.769848692672375, 68.30769416209601 6.289123937371954" stroke="#000000" stroke-width="1" fill="none"></path></g><g transform="translate(188 243.15789473684208) rotate(0 49 49)"><path d="M60.9064146796738 2.0504187157245326 C69.2728897308191 3.364551335570357, 79.6430246324345 9.052716282324361, 85.68854972209496 15.236905584322635 C91.73407481175542 21.42109488632091, 95.57915748162205 30.505079982729292, 97.17956521763655 39.155554527714166 C98.77997295365105 47.80602907269904, 98.4298735837703 59.06716161483636, 95.290996138182 67.13975285423189 C92.15211869259369 75.21234409362741, 85.56034437428599 82.46441348154872, 78.3463005441067 87.59110196408733 C71.1322567139274 92.71779044662594, 60.75475547995019 97.02417251123637, 52.006733157106254 97.89988374946357 C43.25871083426232 98.77559498769077, 33.50215729147253 97.02171055729968, 25.858166607043064 92.84536939345048 C18.2141759226136 88.66902822960128, 10.555269869770676 80.35738417429378, 6.1427890505294585 72.84183676636836 C1.73030823128824 65.32628935844293, -1.2062923396238632 56.487067340724224, -0.6167183084042449 47.75208494589792 C-0.02714427718462653 39.017102551071616, 4.534787233991339 27.630529940201026, 9.680233237847169 20.431942397410534 C14.825679241703 13.233354854620043, 22.297070373607614 7.7106327827688546, 30.255957714730734 4.560559689154978 C38.21484505585386 1.410486595541101, 51.29423293021184 1.5200278217259016, 57.433557284585895 1.5315038357272712 C63.57288163895995 1.5429798497286409, 64.30512987806736 3.703820341877646, 67.09190384097505 4.6294157731631955 C69.87867780388274 5.555011204448745, 74.41439830529477 6.4885244260293575, 74.15420106203204 7.085076423440569 M48.031009647200335 1.2825091725105153 C56.4505413837972 0.4637981533874864, 66.24738187196023 2.303105874864065, 73.6832633178068 6.665128033194499 C81.11914476365338 11.027150191524932, 88.55716066705358 19.91015365286753, 92.64629832227982 27.45464212249312 C96.73543597750606 34.99913059211871, 99.15537834746021 43.59409395232526, 98.21808924916425 51.93205885094805 C97.28080015086829 60.270023749570846, 92.13758164317973 70.24329028681969, 87.02256373250403 77.48243151422987 C81.90754582182832 84.72157274164006, 75.5927320651339 91.9686905739666, 67.52798178511003 95.36690621540916 C59.46323150508616 98.76512185685172, 47.61969988004698 99.91793569651315, 38.63406205236083 97.8717253628852 C29.648424224674685 95.82551502925725, 20.04453107161172 89.42547597515012, 13.614154818993129 83.08964421364145 C7.183778566374538 76.75381245213278, 1.8930056513997187 67.90798235612586, 0.05180453664928564 59.85673479383316 C-1.7893965781011474 51.80548723154047, -0.5973656151337745 42.80122376727234, 2.5669481304905304 34.78215883988529 C5.731261876114836 26.763093912498242, 12.346080279564397 17.284316673861998, 19.037687010395114 11.742345229510853 C25.72929374122583 6.200373785159709, 37.90516529886001 3.676380506293692, 42.71658851547484 1.5303301737784238 C47.52801173208967 -0.6157201587368442, 47.00525083595711 -1.0513038309089613, 47.90622631008409 -1.1339567655807556 C48.80720178421106 -1.21660970025255, 48.02603791797006 0.1674480671148887, 48.122441360236664 1.0344125657476582" stroke="none" stroke-width="0" fill="#ffff"></path><path d="M39.185969035122994 0.45553920252282865 C47.07622400410479 -1.76342684115574, 58.07277329079071 -0.3604707886467673, 66.2100365750617 2.966196530531917 C74.34729985933268 6.292863849710601, 82.86757439241504 13.322791847887668, 88.00954874074893 20.415543117594936 C93.15152308908281 27.508294387302204, 96.21455638672519 37.01258482568045, 97.06188266506504 45.52270414877553 C97.90920894340489 54.032823471870614, 97.077732136099 63.78075025097032, 93.093506410788 71.47625905616545 C89.10928068547699 79.17176786136056, 80.79318205905264 87.15656382617631, 73.15652831319898 91.69575697994628 C65.51987456734531 96.23495013371625, 55.83154900200848 99.09736631528455, 47.273583935665975 98.7114179787853 C38.71561886932347 98.32546964228607, 29.168517320783135 94.52196696109328, 21.808737915143965 89.38006696095087 C14.448958509504795 84.23816696080846, 6.711130990117139 75.73164572235184, 3.114907501830949 67.86001797793082 C-0.4813159864552419 59.988390233509804, -1.1477318738171682 50.719920134262864, 0.2313969854268194 42.150300494424734 C1.610525844670807 33.5806808545866, 5.6221883347340125 23.151004403157657, 11.389680657294875 16.44230013890205 C17.157172979855737 9.73359587464644, 29.514824037705772 4.436209897462778, 34.83635092079199 1.8980749088910898 C40.157877803878215 -0.6400600796805982, 41.23667513085066 1.4095091891687233, 43.318841955812196 1.2134902074719207 C45.401008780773736 1.0174712257751182, 47.17621617742901 -0.10119148069078088, 47.32935187056125 0.7219610187102745 M28.41988585962316 6.233197164599005 C35.53854655279799 2.111846969824387, 46.07218894158063 -0.30185325130158114, 54.48408331608199 0.23227603602429525 C62.89597769058336 0.7664053233501716, 71.99418130786198 4.262304873111288, 78.89125210663136 9.437972888554263 C85.78832290540073 14.61364090399724, 92.737625439413 23.13923142401429, 95.86650810869826 31.286284128682148 C98.99539077798352 39.433336833350005, 99.62591362101263 49.614183573338345, 97.66454812234292 58.32028911656141 C95.70318262367321 67.02639465978447, 90.33990840612003 77.30407507988188, 84.09831511668001 83.52291738802055 C77.85672182724 89.7417596961592, 68.55306582286595 93.44535456897701, 60.21498838570284 95.63334296539337 C51.87691094853974 97.82133136180973, 42.108861321207335 99.11867757788411, 34.069850493701395 96.6508477665187 C26.030839666195455 94.18301795515328, 17.4989746512806 87.6424966645696, 11.980923420667182 80.82636409720084 C6.462872190053761 74.01023152983207, 2.2704722870134537 64.62395552589237, 0.9615431100208696 55.75405236230606 C-0.34738606697171437 46.884149198719754, 0.6662929211475532 35.56948939458574, 4.127348358711679 27.606945115682986 C7.588403796275804 19.644400836780235, 17.93010889255466 11.550757838184072, 21.727875735405622 7.9787866888895635 C25.525642578256583 4.406815539595055, 26.098950563079875 6.469623220057449, 26.913949415817456 6.175118219915937 C27.728948268555037 5.880613219774426, 26.13699278978566 5.7254134808979975, 26.617868851831098 6.211756688040495" stroke="#000000" stroke-width="1" fill="none"></path></g><g transform="translate(188 88.15789473684208) rotate(0 49 49)"><path d="M39.95856308629026 1.4968786647334298 C48.00106196852001 -0.5622621655311661, 59.32914516270846 0.8847370251880942, 67.35740684048751 4.216383824689856 C75.38566851826657 7.548030624191618, 83.14105620130115 14.426660047893566, 88.12813315296461 21.486759461744004 C93.11521010462806 28.54685887559444, 96.8178119748439 37.894010158971014, 97.27986855046828 46.576980307792475 C97.74192512609265 55.259950456613936, 95.08668309421999 66.14360491508756, 90.90047260671082 73.58458035467277 C86.71426211920165 81.02555579425797, 79.8301328371243 87.20616953862225, 72.16260562541322 91.22283294530365 C64.49507841370215 95.23949635198505, 53.43884666576164 98.25411246668928, 44.895309336444356 97.68456079476121 C36.351772007127074 97.11500912283314, 27.786007007331794 92.75856658119662, 20.901381649509535 87.80552291373522 C14.016756291687276 82.85247924627382, 6.956720858558963 75.84045747401076, 3.587557189510811 67.96629878999278 C0.21839352046265814 60.09214010597479, -0.8524296366231898 49.17166181671416, 0.6863996352206172 40.5605708096273 C2.225228907064424 31.94947980254044, 6.86824860967281 22.896060983790104, 12.820532820573654 16.299752747471622 C18.772817031474496 9.70344451115314, 30.498212036343393 3.806031383386197, 36.40010490062568 0.9827213917164102 C42.301997764907966 -1.8405885999533766, 44.830840170264494 -0.8876950085143195, 48.23189000626736 -0.6401072025470995 C51.63293984227023 -0.39251939657987955, 56.64064698802166 1.5455034237648313, 56.80640391664288 2.46824822751973 M38.05528860920832 0.756048229238047 C46.095651128538805 -1.6701087727450403, 57.48375116598219 0.09192464619012464, 65.82534230326564 3.198428214095756 C74.16693344054909 6.304931782001388, 82.7214245053593 12.873438038719211, 88.10483543290901 19.395069636671835 C93.48824636045873 25.91670123462446, 97.09846468433047 33.986768388997625, 98.12580786856392 42.3282178018115 C99.15315105279738 50.66966721462537, 98.27535851027162 61.45377979662275, 94.26889453830978 69.44376611355506 C90.26243056634794 77.43375243048736, 81.56471770030858 85.72616322416263, 74.08702403679291 90.26813570340535 C66.60933037327725 94.81010818264807, 57.982556876246406 96.54714586690133, 49.40273255721578 96.69560098901135 C40.82290823818515 96.84405611112138, 29.892501975575318 95.42715452471876, 22.608078122609164 91.15886643606544 C15.323654269643011 86.89057834741212, 9.165801313184344 79.0423383591401, 5.696189439418859 71.08587245709138 C2.226577565653374 63.12940655504267, 1.0834858598125208 52.19698953004661, 1.7904068800162563 43.42007102377316 C2.4973279002199917 34.643152517499715, 4.786532826943766 25.433718032763405, 9.937715560641273 18.424361419450715 C15.08889829433878 11.415004806138025, 28.206223129487167 4.285836441737711, 32.697503282201296 1.3639313438970149 C37.18878343491542 -1.5579737539436818, 36.112760386469695 0.5831742360071566, 36.88539647692605 0.8929308324065346 C37.6580325673824 1.2026874288059126, 36.94386056209831 2.2830542048688236, 37.333319824939416 3.222470922293283" stroke="none" stroke-width="0" fill="#ffff"></path><path d="M70.15794850171082 4.172480908118388 C77.8559867759521 7.056385720526601, 85.41283669049795 14.292305761452955, 90.02833441526874 21.61225946253331 C94.64383214003954 28.932213163613664, 97.62780993889564 39.37626848259511, 97.8509348503356 48.09220311460051 C98.07405976177557 56.80813774660591, 96.0188016826729 66.5652596726973, 91.36708388390856 73.90786725456573 C86.71536608514423 81.25047483643417, 77.99893252185923 88.04434496183228, 69.94062805774956 92.14784860581108 C61.8823235936399 96.25135224978987, 51.61365374390633 99.3076802477753, 43.01725709925059 98.52888911843851 C34.42086045459485 97.75009798910173, 25.087092818245686 92.91221837261557, 18.36224818981512 87.47510182979042 C11.637403561384552 82.03798528696527, 5.508811957649634 74.05243885695215, 2.6681893286671894 65.90618986148758 C-0.17243330031525517 57.759940866023, -0.5775598983474322 47.345980754993136, 1.318512415920452 38.59760785700296 C3.214584730188336 29.84923495901279, 7.774562383007883 19.66893906227393, 14.044623214274495 13.415952473546547 C20.314684045541107 7.162965884819161, 30.468384468618105 2.9420675411216806, 38.938877403520124 1.0796883246386457 C47.40937033842214 -0.7826908918443891, 59.14357935407486 1.4092317127719034, 64.86758082368661 2.2416771746483377 C70.59158229329836 3.074122636524772, 71.63117202442655 4.896987789791523, 73.28288622119062 6.0743610958972525 C74.9346004179547 7.251734402002982, 75.30542076247654 8.666209981264284, 74.77786600427108 9.305917011282716 M29.729820330185046 3.815398317390759 C37.03545623920094 0.39368332042081144, 47.77313640608892 0.4843109493256783, 56.45675013602995 1.938715892635173 C65.14036386597098 3.393120835944668, 75.13499432736252 7.080032950802291, 81.83150270983124 12.541827977247728 C88.52801109229996 18.003623003693164, 94.40274706494117 26.473084355933658, 96.6358004308423 34.70948605130779 C98.86885379674342 42.945887746681926, 97.67607098070762 53.634762257759185, 95.22982290523804 61.960238149492525 C92.78357482976845 70.28571404122587, 88.38352535359667 78.76319740913286, 81.95831197802477 84.66234140170785 C75.53309860245287 90.56148539428284, 65.27053580064387 95.60249895106593, 56.678542651806616 97.35510210494246 C48.08654950296937 99.107705258819, 38.43568615644781 98.61537953638316, 30.406353085001285 95.17796032496707 C22.377020013554763 91.74054111355099, 13.717293271945884 83.75743366018199, 8.50254422312748 76.73058683644592 C3.287795174309074 69.70374001270986, -0.4132489573125966 61.87824457582761, -0.8821412079091502 53.01687938255067 C-1.3510334585057038 44.15551418927373, 1.3572162208846281 31.197908505074672, 5.689190719548158 23.56239567678431 C10.021165218211689 15.926882848493946, 21.160310537232 10.608997599840475, 25.109705784072027 7.2038024128085 C29.059101030912053 3.7986072257765247, 28.390040964443724 3.55743867130874, 29.385562200588325 3.131224554592457 C30.381083436732926 2.7050104378761737, 30.759474882062918 3.6947445476564424, 31.082833200939625 4.6465177125108" stroke="#000000" stroke-width="1" fill="none"></path></g><g><g transform="translate(91.47344594948777 110.55337859789694) rotate(0 0.08780754368837052 13.769796247672474)"><path d="M-1.1055014189332724 0.3410066720098257 C-1.3262988607644162 4.828261631737835, -1.2011407234068314 23.53898838316742, -0.866697152664733 28.06516126586906 M0.5149716067872943 -0.5255687705241143 C0.630213371341763 4.150217629104293, 1.374537288647582 22.132308261764233, 1.3901162915138183 26.446925208725403" stroke="#000000" stroke-width="1" fill="none"></path></g></g><g><g transform="translate(166 184.15789473684208) rotate(0 15.789105821028386 -8.972913140431046)"><path d="M-0.3461960490792989 -0.029485106840729802 C4.793355109666785 -2.922167941307028, 26.650843547160427 -15.164468352372447, 31.924407691136004 -17.916341174021362 M1.6729122958146037 -1.0905687332712115 C6.552706524090221 -3.810042307631423, 25.578917540467035 -13.934737449145565, 30.9366762653552 -16.859995039161294" stroke="#000000" stroke-width="1" fill="none"></path></g></g><g><g transform="translate(166 257.1578947368421) rotate(0 14.910704708471883 5.971905120695013)"><path d="M-1.0900562223047017 -0.5039068702608347 C4.001650749022763 1.6833060777435702, 25.555252518629036 11.594326742117604, 30.91146563924849 13.757872163876891 M0.5385255316458641 -1.8140619224868715 C5.432857374108086 -0.02169442857926107, 24.95564122195666 9.477425069951762, 29.916939636226743 12.033180301133543" stroke="#000000" stroke-width="1" fill="none"></path></g></g><g><g transform="translate(94 299.1578947368421) rotate(0 0.2664006949495388 15.745150620089838)"><path d="M-0.7872872170060873 0.8587478991597892 C-0.5566768941438491 5.92117123560359, 1.0026698886571845 26.23583763769517, 1.320088606905165 31.226314639300103 M1.0002482647262516 0.2639866008795799 C1.0626359951154596 4.94364867168789, 0.4190940954318664 24.928722858360654, 0.27745932292190445 29.688147483337666" stroke="#000000" stroke-width="1" fill="none"></path></g></g><g transform="translate(65.6447368421052 32.42392579041183) rotate(0 26.25 26.25)"><path d="M28.12768729753104 0.9176902747339639 C33.56890076597957 0.8330119280166587, 40.57622512211358 2.76160328322614, 44.47504609919423 6.582508904364957 C48.373867076274884 10.403414525503774, 51.09609066802442 18.03947812848095, 51.52061316001496 23.843124001566867 C51.945135652005504 29.646769874652783, 50.216528413245996 36.797293689716184, 47.02218105113748 41.40438414288045 C43.827833689028964 46.01147459604472, 37.714277239656525 50.08941704657481, 32.354528987363864 51.48566672055246 C26.994780735071203 52.88191639453011, 19.75493418626185 52.213108542393286, 14.86369153738152 49.78188218674637 C9.972448888501189 47.35065583109946, 5.187950888020302 41.82977539214043, 3.0070730940818784 36.89830858667098 C0.8261953001434548 31.966841781201527, 0.5710500843791972 25.64710774255772, 1.7784247737509773 20.193081353929667 C2.985799463122757 14.739054965301616, 4.900999418504219 7.25137007980649, 10.25132123031256 4.174150254902674 C15.601643042120898 1.0969304299988578, 29.223113377915617 1.9002502820721698, 33.88035564460102 1.7297624045067685 C38.53759791128642 1.5592745269413673, 38.34932498838738 2.9849386906802486, 38.194774830424976 3.1512229895102664 M22.96129419725149 -0.7990572012428991 C28.49143208023684 -1.8632001796246829, 37.272635558515205 -0.08524895704518975, 42.265392578665306 3.200120174221368 C47.25814959881541 6.485489305487926, 51.819958756218924 13.313682936157615, 52.91783631815208 18.913157586356448 C54.01571388008523 24.51263223655528, 51.22759246109999 31.397643392961182, 48.8526579502642 36.79696807541436 C46.477723439428416 42.19629275786754, 43.465130775279356 48.80127289516577, 38.668229253137376 51.30910568107552 C33.8713277309954 53.81693846698527, 25.787858567221246 53.551302089230255, 20.071248817412325 51.843964790872846 C14.354639067603404 50.13662749251544, 7.8320884850712655 45.486478462164015, 4.368570754283841 41.06508189093107 C0.9050530234964156 36.64368531969812, -0.9773051435447933 31.006090608569544, -0.7098575673122269 25.315585363475186 C-0.4424099910796606 19.62508011838083, 2.0834659561240607 11.070202819637341, 5.973256211679239 6.922050420364926 C9.863046467234417 2.773898021092511, 19.784772502441587 1.3095599845274255, 22.62888396601884 0.4266709678406997 C25.472995429596093 -0.45621804884602624, 22.817690469184804 1.2018228007895797, 23.03792499314275 1.6247163202445698" stroke="none" stroke-width="0" fill="#ffff"></path><path d="M13.910582677131528 1.9538789402196244 C18.624572966230062 -0.6555750443642268, 26.51171964478502 0.28796257232218925, 32.15743193720309 1.6158835825358295 C37.80314422962117 2.94380459274947, 44.54972387252556 5.780700848056125, 47.784856431639966 9.921405001501466 C51.01998899075437 14.062109154946807, 52.01244036147842 20.61130606697232, 51.56822729188954 26.460108503207874 C51.124014222300666 32.30891093944343, 48.813208795992566 40.84651105356745, 45.119578014106715 45.014219618914794 C41.425947232220864 49.18192818426214, 34.99565519659714 50.87122809185903, 29.406442600574415 51.46635989529196 C23.81723000455169 52.061491698724886, 16.343743298165688 51.49782811085561, 11.58430243797035 48.585010439512374 C6.824861577775015 45.67219276816914, 2.289187283252055 39.34564100888001, 0.8497974394023977 33.98945386723257 C-0.5895924044472594 28.63326672558513, 0.07745801224154425 21.84495593172588, 2.9479633748724083 16.44788758962774 C5.818468737503272 11.0508192475296, 15.062641977331664 4.294689411064615, 18.072829615187583 1.6070438146437276 C21.0830172530435 -1.0806017817771596, 21.053856238403267 -0.035893997614217354, 21.009089202007925 0.3220140111024179 M36.76154409457238 2.3348086140158237 C41.430449421539834 4.3825720842867675, 46.42103257828754 9.215573449282896, 48.88640098282835 14.234073085538832 C51.35176938736916 19.252572721794767, 52.819081500587714 26.737743878426663, 51.55375452181727 32.44580643155143 C50.28842754304682 38.1538689846762, 46.09300203424527 45.145917798288714, 41.29443911020566 48.48244840428744 C36.49587618616604 51.818979010286164, 28.275443077075295 53.15200800021485, 22.762376977579578 52.464990067543795 C17.24931087808386 51.77797213487274, 12.183753389664176 48.18503784677317, 8.216042513231365 44.3603408082611 C4.248331636798554 40.53564376974903, -0.42385233972413694 35.24011681807035, -1.0438882810172885 29.516807836471365 C-1.66392422231044 23.793498854872386, 0.9665594184204274 14.998465141698464, 4.495826865472456 10.020486918667213 C8.025094312524484 5.042508695635963, 14.43216874196202 1.1375488729496208, 20.13171640129488 -0.3510615017161385 C25.831264060627742 -1.8396718763818978, 35.70353755482832 0.36671337430994144, 38.69311282146961 1.0888246706726576 C41.6826880881109 1.8109359670353737, 38.5009165538975 3.304993298720801, 38.06916800114263 3.981606276460159" stroke="#000000" stroke-width="1" fill="none"></path></g><g transform="translate(210.6447368421052 110.54892579041183) rotate(0 26.25 26.25)"><path d="M29.332238028310623 -0.6263542908955912 C34.63097846585507 -0.5734598991540091, 40.411142781375176 3.4690264712242573, 44.25742903274981 7.749371015427791 C48.10371528412445 12.029715559631324, 51.707478453158885 19.272011777748887, 52.40995553655844 25.05571297432561 C53.112432619958 30.83941417090233, 51.6861217691524 37.9061080834851, 48.47229153314716 42.45157819488812 C45.25846129714191 46.99704830629114, 38.647502896367925 51.02792772659256, 33.126974120526995 52.328533642743736 C27.606445344686065 53.62913955889491, 20.618631730065793 52.91667826680372, 15.349118878101569 50.25521369179518 C10.079606026137347 47.59374911678663, 3.9335611670940627 41.55085763558948, 1.5098970087416603 36.359746192692455 C-0.913767149610742 31.168634749795434, -0.7502226264429483 24.558821778302118, 0.8071339279871559 19.108545034413044 C2.36449048241726 13.65826829052397, 5.597290604162585 6.72585895892168, 10.854036335322286 3.658085729358003 C16.11078206648199 0.5903124997943259, 28.11019713971855 1.0025437416467764, 32.34760831494536 0.7019056570309807 C36.58501949017217 0.401267572415185, 36.494919725718084 1.3673743596096706, 36.27850338668314 1.8542572216632287 M12.76246049842189 2.7692918981605104 C17.516677967077218 -0.06317184876783921, 27.196291378109883 -1.9269929601872213, 32.90553496933605 -0.882242353989426 C38.61477856056222 0.1625082522083694, 43.7865323537097 4.158076926251162, 47.01792204577891 9.037795535347282 C50.24931173784812 13.917514144443402, 52.289696328481284 22.624768289393515, 52.293873121751275 28.396069300587293 C52.29804991502127 34.16737031178107, 50.65483366114314 39.61733548734911, 47.04298280539885 43.66560160250995 C43.431131949654564 47.713867717670794, 36.59923978864335 51.99395333571108, 30.622767987285563 52.685665991552355 C24.646296185927778 53.37737864739363, 16.133526258042323 50.79982126602036, 11.18415199725213 47.81587753755758 C6.234777736461936 44.83193380909481, 2.708818794601032 39.85846144165883, 0.9265224225444015 34.7820036207757 C-0.8557739495122287 29.70554579989256, -1.5693931973339592 22.776024754827336, 0.4903737649123485 17.357130612258757 C2.5501407271586563 11.938236469690178, 11.145132654199392 4.383144001777254, 13.285124196022247 2.2686387653642264 C15.425115737845102 0.15413352895119914, 13.108275721014902 4.384106443603113, 13.330323015849478 4.670099193780594" stroke="none" stroke-width="0" fill="#ffff"></path><path d="M17.452031550397447 0.5684843088962737 C22.316646686016455 -1.3638447273087, 31.08839944149412 0.4407720728901694, 36.38515785178121 2.6082343820233227 C41.6819162620683 4.775696691156476, 46.64239733803293 8.850255361828358, 49.232582012119984 13.573258163695193 C51.82276668620704 18.296260965562027, 53.11024765376847 25.401911493470198, 51.92626589630355 30.946251193224334 C50.74228413883863 36.49059089297847, 46.5983229735072 43.32279096785209, 42.128691467330455 46.839296362220004 C37.65905996115371 50.355801756587915, 30.798626663556426 52.09851467748798, 25.108476859243083 52.045283559431795 C19.41832705492974 51.99205244137561, 12.282126096738189 50.07110634085632, 7.987792641450405 46.51990965388293 C3.6934591861626194 42.968712966909536, 0.022686155390118756 36.59753832428506, -0.6575238724836296 30.738103437591427 C-1.337733900357378 24.878668550897792, 0.09232415981764897 16.326482685561075, 3.906532474207914 11.36330033372112 C7.72074078859818 6.400117981881167, 18.28484202220472 2.734224060420572, 22.22772601385796 0.9590093265517048 C26.1706100055112 -0.8162054073171621, 27.457266826699502 0.4559177302898956, 27.56383642412736 0.71201193050792 M20.19594125093837 -0.6120638066305624 C25.36457797278571 -1.9937042088710577, 33.35304498108762 0.6592941386444262, 38.36692808165051 3.7973703501370473 C43.38081118221339 6.935446561629668, 48.173882766828164 12.945559379234458, 50.279239854315676 18.216393462325165 C52.38459694180319 23.48722754541587, 52.7123606866986 30.1403546223022, 50.99907060657557 35.42237484868129 C49.28578052645254 40.70439507506037, 44.682863314926216 47.17378039360183, 39.9994993735775 49.90851482059967 C35.31613543222878 52.64324924759751, 28.536914634330582 53.05925387731109, 22.898886958483274 51.83078141066834 C17.260859282635966 50.60230894402558, 9.819453700209655 46.96405955414976, 6.171333318493662 42.53768002074315 C2.5232129367776692 38.11130048733654, 1.1794399267447826 30.740986249146943, 1.0101646681873149 25.27250421022866 C0.8408894096298472 19.80402217131038, 1.7771812300061405 13.711691703309677, 5.155681767148856 9.726787787233466 C8.534182304291571 5.741883871157254, 18.311561289006306 2.7088854111316385, 21.28116789104361 1.3630807137713923 C24.25077449308091 0.01727601641114629, 22.84367945264448 1.2499780420054716, 22.97332137937268 1.6519596030719903" stroke="#000000" stroke-width="1" fill="none"></path></g><g transform="translate(211.2697368421052 265.5489257904118) rotate(0 26.25 26.25)"><path d="M30.556434482683247 0.9759067704697415 C36.09101868732949 1.2809534399276312, 42.53280478418151 3.9427483125552527, 46.16494570078598 7.912047036555251 C49.79708661739045 11.881345760555249, 52.27307342398858 19.005558385358942, 52.34927998231005 24.79169911446973 C52.425486540631525 30.577839843580517, 50.204416488183206 38.23984100814062, 46.62218505071483 42.62889141121998 C43.03995361324646 47.01794181429934, 36.22984121834564 49.97112006893572, 30.85589135749982 51.126001532945885 C25.481941496654002 52.28088299695605, 19.193519020324587 52.24855542300602, 14.378485885639911 49.55818019528096 C9.563452750955236 46.867804967555905, 3.979359693766037 40.106876678432954, 1.9656925493917612 34.983750166595534 C-0.04797459498251477 29.860623654758115, 0.5087948601508436 23.974680614498084, 2.2964830193942554 18.819421124256454 C4.084171178637667 13.664161634014825, 7.637996637642002 6.994082632453811, 12.691821504852232 4.05219322514575 C17.745646372062463 1.1103038178376896, 28.802857163473796 1.268743503285321, 32.61943222265564 1.1680846804080929 C36.43600728183748 1.0674258575308648, 35.685182926464236 3.030253401249564, 35.5912718599433 3.4482402878823812 M27.154425248793498 -1.2745062860802818 C32.52616143630976 -1.4313595378010493, 39.964143921686734 2.0128395464356283, 44.1943239797434 5.954316618451294 C48.42450403780007 9.89579369046696, 51.87119169623293 16.49261490124623, 52.53550559713352 22.374356146013714 C53.19981949803412 28.256097390781196, 50.997217108238175 36.18858002283517, 48.18020738514696 41.2447640870562 C45.36319766205574 46.300948151277225, 41.11537043394489 51.058693979497804, 35.63344725858623 52.711460531339895 C30.151524083227567 54.36422708318199, 20.720152665315467 53.34110653642066, 15.28866833299498 51.16136339810876 C9.857184000674494 48.98162025979686, 5.657374110814331 44.63275044710776, 3.0445412646633088 39.6330017014685 C0.43170841851228703 34.63325295582924, -1.6054067385849278 27.077248934551218, -0.38832874391114913 21.162870924273207 C0.8287492507626295 15.248492913995197, 5.786805693170893 7.847569917618905, 10.34700923270598 4.146733639800445 C14.907212772241067 0.4458973619819844, 24.229704103895564 -0.5690518754241616, 26.972892493299373 -1.0421467426375557 C29.71608088270318 -1.5152416098509498, 26.99939312986267 0.6168664399820827, 26.806139569128828 1.3081644365200802" stroke="none" stroke-width="0" fill="#ffff"></path><path d="M38.712040772837526 3.2475911357431713 C43.418655746094316 5.165053052567087, 47.548601989242414 10.2495227826866, 49.62285084107857 15.367214869405132 C51.69709969291472 20.484906956123663, 52.780947241866585 28.61581598847905, 51.15753388385445 33.953743656054364 C49.53412052584231 39.29167132362968, 44.602169321301034 44.34453570078037, 39.88237069300574 47.39478087485701 C35.162572064710446 50.445026048933656, 28.235458536053986 52.89453885399885, 22.838742114082695 52.2552147005142 C17.442025692111404 51.61589054702955, 11.426902142775413 47.633732660743505, 7.502072161177988 43.5588359539491 C3.577242179580564 39.483939247154694, -0.19538195035468442 33.34510925740259, -0.7102377755018523 27.805834459747754 C-1.22509360064902 22.266559662092916, 1.0102390762808309 14.992006097414466, 4.412937210294981 10.323187168020079 C7.815635344309131 5.6543682386256915, 12.986467079425232 0.097545079289719, 19.705951028583048 -0.20707911661856926 C26.425434977740863 -0.5117033125268575, 39.97753032127407 6.0195046369448395, 44.72984090524188 8.495441992570349 C49.48215148920969 10.971379348195859, 48.629962150827495 14.481653034383347, 48.21981453238993 14.64854501713449 M36.60447060371893 2.2120208982839316 C41.302071129469155 3.7710755643056526, 45.6989689639379 8.046427625786873, 48.2102357286299 12.995786516572755 C50.72150249332189 17.945145407358638, 52.83861359179823 26.111762065326666, 51.6720711918709 31.908174242999223 C50.50552879194357 37.70458642067178, 45.66846557494561 44.46825305812806, 41.2109813290659 47.77425958260811 C36.7534970831862 51.08026610708816, 30.463296501041388 51.84502226947468, 24.927165716592665 51.7442133898795 C19.391034932143942 51.64340451028431, 12.203651330776733 50.97995909559979, 7.994196622373572 47.169406305037 C3.7847419139704117 43.35885351447421, 0.35785106483836004 34.69589866784862, -0.3295625338262944 28.88089664650278 C-1.016976132490949 23.065894625156943, 0.6471991624319373 16.775579871569988, 3.8697150303856453 12.27939417696197 C7.092230898339354 7.783208482353953, 13.65160980303132 3.4351585804181504, 19.005532673895953 1.90378247885468 C24.359455544760586 0.3724063772912094, 33.26698932892335 3.211872281265005, 35.99325225557344 3.0911375675811463 C38.719515182223525 2.9704028538972875, 35.747446340773784 1.0727859107538549, 35.36311023379649 1.179374196751528" stroke="#000000" stroke-width="1" fill="none"></path></g><g transform="translate(67.5197368421052 355.5489257904118) rotate(0 26.25 26.25)"><path d="M15.084648821136508 3.5815089953786483 C19.91235802439983 1.1770665885692329, 28.09666441545973 -0.11600014158204264, 33.63519067345426 1.1761623768782314 C39.17371693144879 2.4683248953385055, 45.16496262337043 6.8059118231221625, 48.31580636910368 11.334484106140293 C51.46665011483694 15.863056389158423, 53.20260077872672 22.880012777929434, 52.54025314785378 28.347596074987013 C51.877905516980846 33.8151793720446, 48.3006114591937 40.16315761810417, 44.34172058386608 44.13998388848577 C40.38282970853845 48.116810158867374, 34.392502847551114 51.50443876466246, 28.786907895888017 52.20855369727662 C23.181312944224924 52.91266862989078, 15.421353061643607 51.632537898651954, 10.708150873887519 48.364673484170744 C5.994948686131431 45.096809069689535, 1.8440076107020424 38.11463078435252, 0.5076947693514917 32.60136721038936 C-0.828618071999059 27.088103636426204, -0.12376616404932372 20.53929576628316, 2.690273825784214 15.285092040391797 C5.504313815617751 10.030888314500434, 14.521111548691678 3.308696033403167, 17.391934708352718 1.0761448550411856 C20.262757868013757 -1.156406323320796, 19.86544781125422 1.3263949042503196, 19.915212783750448 1.8897849702199068 M14.622874934084814 0.6591015343870055 C19.12065166453699 -1.4434627318530695, 27.240727445105847 -0.011348998963131685, 33.070580071128425 2.0334241548261183 C38.900432697151004 4.078197308615368, 46.49194958262909 8.542098586353738, 49.60199069022029 12.927740457122505 C52.71203179781149 17.313382327891272, 52.441023666010985 22.86206340690527, 51.73082671667564 28.347275379438724 C51.02062976734029 33.832487351972176, 49.41401905330319 41.67342321071822, 45.34080899420821 45.83901229232322 C41.26759893511323 50.00460137392822, 33.038947547165506 52.94833487589013, 27.291566362105748 53.34080986906871 C21.544185177045993 53.73328486224728, 15.432890396024511 51.80361481733323, 10.856521883849672 48.19386225139468 C6.280153371674831 44.58410968545613, 1.1389905047050404 37.31680310773358, -0.1666447109432987 31.68229447343739 C-1.4722799265916378 26.047785839141206, 0.35619190800747935 19.18451028149541, 3.0227105899596367 14.386810445617563 C5.689229271911794 9.589110609739716, 13.790702874237493 4.662938535265293, 15.832467380769646 2.8960954581703113 C17.8742318873018 1.1292523810753299, 15.243535696538427 3.336888738311634, 15.27329762915256 3.7857519830476747" stroke="none" stroke-width="0" fill="#ffff"></path><path d="M27.404249616674395 0.2438444116146954 C32.88065464220294 0.003955423649601414, 39.35610486930435 1.77289259273106, 43.64265049459367 5.5795768064278946 C47.92919611988298 9.38626102012473, 52.24956391771824 17.3488785929089, 53.12352336841029 23.083949693795702 C53.99748281910234 28.819020794682505, 52.07670500677874 35.293822890607586, 48.88640719874597 39.99000341174872 C45.696109390713204 44.68618393288985, 39.453102596043465 49.325249802464995, 33.98173652021367 51.2610328206425 C28.510370444383877 53.19681583882, 21.280610895899294 53.63180779789293, 16.058210743767205 51.604701520813734 C10.835810591635115 49.577595243734535, 5.227608322238117 44.15409658830562, 2.6473356074211303 39.09839515816732 C0.067062892604143 34.04269372802902, -0.5405829718059991 26.84145202851275, 0.5765744548652805 21.27049293998393 C1.69373188153656 15.699533851455111, 4.7471438374781 9.168006717467494, 9.350280167448808 5.67264062699439 C13.953416497419518 2.1772745365212867, 24.649335153092014 1.045423402137318, 28.19539243468953 0.298296397145311 C31.741449716287047 -0.44883060784669604, 30.577459351486052 0.803532654887875, 30.626623857033906 1.1898785970423482 M33.10392598116322 1.8343691668555095 C38.07217060559931 3.068310387983538, 45.368777995050536 8.579831595604382, 48.39860110370446 13.297758754470966 C51.42842421235838 18.01568591333755, 51.98966306616824 24.98510917018255, 51.282864633086774 30.141932120055017 C50.57606620000531 35.29875506992749, 48.1878126139445 40.69514468767654, 44.15781050521564 44.23869645370577 C40.127808396486785 47.782248219735, 32.827461445350316 50.79222061102993, 27.10285198071364 51.40324271623042 C21.378242516076966 52.01426482143091, 14.461697342741235 51.05490369723207, 9.810153717395586 47.9048290849087 C5.158610092049936 44.754754472585326, 0.2671819449556818 38.27085003041921, -0.8064097713602614 32.502795042290195 C-1.8800014876762046 26.734740054161175, 0.7742451828189734 18.391195237194417, 3.3686034194999266 13.296499156134587 C5.96296165618088 8.201803075074757, 9.766000647802038 4.195555654595385, 14.759739648725457 1.9346185559312126 C19.753478649648876 -0.32631854273296, 30.081306038105392 -0.47070732041480134, 33.331037425040435 -0.2691234358504495 C36.580768811975474 -0.06753955128609768, 34.346712190746274 2.3384141754266814, 34.258127970335714 3.1441218633173236" stroke="#000000" stroke-width="1" fill="none"></path></g><g transform="translate(46.8947368421052 173.0489257904119) rotate(0 45.625 45.625)"><path d="M29.915448949966844 1.6233388546886829 C37.1393562899679 -1.6330797377548145, 48.53681686970626 -1.922510466270603, 56.76081706161656 0.4625924663807197 C64.98481725352686 2.8476953990320424, 73.6147714104928 9.541075543209544, 79.25945010142863 15.933956450596618 C84.90412879236445 22.326837357983692, 89.30841702681369 30.62194260156329, 90.62888920723145 38.81987791070316 C91.94936138764922 47.017813219843035, 90.80390281815957 57.45747912253442, 87.18228318393525 65.12156830543586 C83.56066354971094 72.78565748833729, 76.20158280345005 80.35948110086784, 68.89917140188555 84.8044130081118 C61.596760000321055 89.24934491535575, 51.645718905381145 92.21435226788081, 43.36781477454827 91.79115974889959 C35.0899106437154 91.36796722991836, 25.831785578869095 87.13466443529384, 19.231746616888326 82.26525789422443 C12.631707654907558 77.39585135315502, 6.721498484392072 70.20402712987223, 3.767581002663654 62.5747205024831 C0.8136635209352368 54.945413875093976, 0.0010447022269772788 44.56705226171833, 1.5082417265178236 36.489418129889685 C3.01543875080867 28.41178399806104, 7.313972047182137 19.9019070402355, 12.810763148408732 14.108915711511216 C18.307554249635327 8.315924382786932, 30.489089258383785 3.7595570472343396, 34.488988333877394 1.7314701575439813 C38.488887409371 -0.29661673214637707, 36.55023995479423 1.097769922058427, 36.81015760137038 1.9403943733690667 M49.17799441320176 -0.32185104272325304 C57.26604537400793 -0.38086278807487045, 65.19223165806467 3.896021406838585, 71.67381176491847 8.859921327870893 C78.15539187177227 13.8238212489032, 85.23340300430729 21.78836345871048, 88.06747505432455 29.461548483470594 C90.9015471043418 37.1347335082307, 90.46566950958507 46.779462371304845, 88.67824406502203 54.89903147643156 C86.89081862045899 63.018600581558275, 83.39857576643537 72.2000068652896, 77.34292238694626 78.1789631142309 C71.28726900745714 84.1579193631722, 60.36254220743688 89.03169191064498, 52.34432378808737 90.77276897007933 C44.32610536873786 92.51384602951367, 36.78879906979966 92.17510857972637, 29.233611870849213 88.62542547083697 C21.678424671898764 85.07574236194758, 12.131553261685957 76.73726437657375, 7.013200594384685 69.47467031674296 C1.894847927083413 62.21207625691217, -1.803410869869823 53.253110212763055, -1.4765041329584179 45.04986111185226 C-1.1495973960470127 36.84661201094146, 4.336681887643332 27.273021983130707, 8.974641015853116 20.255175711278177 C13.6126001440629 13.237329439425647, 19.84365492711894 6.398450616250518, 26.35125063630029 2.9427834807370843 C32.85884634548164 -0.5128836547763491, 44.4979536154114 -0.38075352747762164, 48.0202152709412 -0.47882710180242327 C51.542476926471004 -0.576900676127225, 47.50256358087847 1.2682424489414323, 47.4848205694791 2.3543420347882744" stroke="none" stroke-width="0" fill="#ffff"></path><path d="M57.24363134236367 1.7722953528394996 C65.29182635278374 3.3498373661743246, 75.39993989887263 9.151894409195041, 80.91063301325421 15.463098197451 C86.4213261276358 21.77430198570696, 89.23766923343933 31.160218500393796, 90.30779002865319 39.63951808237525 C91.37791082386704 48.1188176643567, 90.84726244663696 58.863634446781795, 87.33135778453729 66.33889568933972 C83.81545312243762 73.81415693189766, 76.53253046085027 80.39684402949162, 69.2123620560552 84.49108553772281 C61.89219365126012 88.585327045954, 51.94184218503498 91.06355439132741, 43.41034735576684 90.90434473872688 C34.8788525264987 90.74513508612634, 24.86619929924022 88.29523281812256, 18.023393080446336 83.53582762211954 C11.180586861652454 78.77642242611653, 5.266461774625164 70.35072027032624, 2.3535100430035456 62.34791356270879 C-0.5594416886180729 54.345106855091345, -1.2611459513305576 43.69011353369126, 0.5456826907166246 35.51898737641486 C2.3525113327638065 27.347861219138466, 7.036698286694723 19.171325044929777, 13.19448189528664 13.32115661905042 C19.352265503878556 7.470988193171064, 29.091800465284877 2.077367353214391, 37.49238434226812 0.4179768211387298 C45.89296821925136 -1.241413710936931, 58.60423727183106 2.171895347711019, 63.59798515718607 3.3648134265964558 C68.5917330425411 4.557731505481892, 67.84674307625069 6.997111050909623, 67.4548716543982 7.575485294451347 M35.32584387068044 0.468572668635332 C43.27294715178699 -1.8573957137428114, 54.22093516001232 0.2601986458183396, 62.12850885886606 3.2031247928760394 C70.03608255771981 6.146050939933739, 77.9088295623506 11.708030131660657, 82.77128606380293 18.12612955098153 C87.63374256525526 24.544228970302406, 91.08280534005003 33.52236199842006, 91.30324786758004 41.711721308801295 C91.52369039511005 49.90108061918253, 88.38245995715577 59.779659779062996, 84.09394122898303 67.26228541326894 C79.80542250081028 74.74491104747489, 72.61762135540214 82.7490508780979, 65.57213549854356 86.60747511403699 C58.52664964168498 90.46589934997607, 49.876191237715624 91.31826042029911, 41.82102608783157 90.41283082890348 C33.765860937947515 89.50740123750785, 24.05038076727514 86.36893530780397, 17.241144599239234 81.1748975656632 C10.431908431203329 75.98085982352244, 3.34589069744217 67.32145940255027, 0.9656090796161436 59.24860437605886 C-1.4146725382098828 51.17574934956744, 0.1747319443982569 41.009105262751746, 2.959454892283077 32.7377674067147 C5.744177840167897 24.46642955067766, 12.351608779098878 14.915495374812249, 17.673946766925063 9.620577239836607 C22.996284754751247 4.325659104860964, 32.25781346968779 2.2306333141724624, 34.89348281924019 0.9682585968608493 C37.52915216879259 -0.2941161204507641, 33.51327332731816 1.1978437248142968, 33.48796286423948 2.046328935966926" stroke="#000000" stroke-width="1" fill="none"></path></g></svg>