<svg version="1.1" xmlns="http://www.w3.org/2000/svg" viewBox="0 0 461.713868601355 453.8769636893983" width="461.713868601355" height="453.8769636893983">
  <!-- svg-source:excalidraw -->
  
  <defs>
    <style>
      @font-face {
        font-family: "Virgil";
        src: url("https://excalidraw.com/FG_Virgil.woff2");
      }
      @font-face {
        font-family: "Cascadia";
        src: url("https://excalidraw.com/Cascadia.woff2");
      }
    </style>
  </defs>
  <g><g transform="translate(244.79905298536528 11.783508978889245) rotate(0 -13.942118684687784 215.1549728658099)"><path d="M-14.798686731455726 -1.7835089788892735 C-60.44558040533948 21.209597273822663, -104.30027843178127 41.706414103047855, -194.82026376080998 88.40667254708751 M-14.624747474884105 -0.7324142479063603 C-76.49322736448006 30.14347305115314, -138.07930508659138 58.60844305393478, -196.87437165515712 86.59196238064378 M-194.56294136849988 88.91523381977818 C-205.169007057307 130.16054287164434, -215.50889499625345 172.1230261746802, -232.46214936301112 274.59831600231377 M-195.6615071835165 86.04477715216122 C-206.69242888739308 134.5867330035939, -217.06639259527824 180.9800472473122, -234.3173205051571 273.6321134731665 M-233.62314341769928 271.3358224409002 C-200.63340624216573 312.9731580697947, -171.92213654922023 353.4342188029207, -109.54971390806227 432.09345471050904 M-234.79905298536528 273.5645446920909 C-197.40409311908297 319.7240766593817, -159.877349790836 365.35534847211306, -109.01794166975453 431.0739538670782 M-108.75897300291267 431.84955224622536 C-55.366431968502624 429.3575925077064, -5.706955369862658 429.7306445086799, 103.11637264954176 431.1612329868047 M-107.83509604762722 430.90091585402445 C-50.23290928969942 430.2638091526469, 9.494133740160143 430.4228645357458, 102.48592150962635 429.7887921058639 M102.70344103987509 431.2334688999723 C136.16686879004658 374.2260698797116, 171.0555225046508 315.8133374291113, 205.8693444227208 259.1670072722295 M101.95912511947745 430.3596753855269 C137.8108320692519 372.47096183935946, 172.78125581074931 315.10632867517916, 206.91481561598968 261.10697755506726 M205.12844915141952 259.41136628864797 C199.2880423127127 221.76005233886562, 189.16914993040558 185.75412667020788, 163.4958368021403 77.10845687770374 M205.81249256072235 260.8707767455885 C193.82158859425942 213.5737371902742, 184.7573127971491 167.77556578066643, 165.1035803652708 78.49799274996944 M167.0842567163859 77.72613742732533 C122.44046113204911 61.248092744330584, 79.33568066842513 43.07906451435211, -14.94761860867611 0.14207641407847404 M166.19719542035503 78.39031672076412 C127.43656139479944 61.82902444539681, 90.91282104217484 46.243846731528905, -15.02187872243694 -0.46787493489682674" stroke="#000000" stroke-width="1" fill="none"></path></g></g><g><g transform="translate(195.80864016128805 118.77736576490122) rotate(0.5801223728874558 40.30668989860749 107.9721697101867)"><path d="M-0.42974079921841624 -0.8181190721690654 C3.732674083842214 -2.0624712848692432, 19.966323881023506 -3.8650324367793387, 24.17744615291581 -7.135787195133742 C28.388568424808113 -10.406541953488144, 24.93439308649403 -12.421891505809311, 24.83699283213541 -20.442647622295482 C24.739592577776794 -28.46340373878165, 21.472699727660963 -49.52298887687512, 23.593044626764094 -55.260323894050764 C25.713389525867225 -60.99765891122641, 35.20317409466907 -60.866212730008854, 37.55906222675419 -54.86665772534938 C39.91495035883931 -48.8671027206899, 36.59112021187051 -27.190375155370443, 37.72837341927482 -19.26299386609391 C38.86562662667912 -11.335612576817379, 39.283892016763794 -9.9784466292035, 44.38258147118002 -7.302369989690192 C49.48127092559624 -4.6262933501768835, 58.24149251272976 -6.160909332614885, 68.32051014577218 -3.2065340290140605 C78.39952777881459 -0.25215872541323536, 94.81312312845782 5.1529365381833525, 104.85668726943452 10.423881831914759 C114.90025141041122 15.694827125646166, 122.63738743786872 25.73643376335821, 128.5818949916324 28.419137733374377 C134.52640254539608 31.101841703390544, 134.8457836075984 30.10701107192768, 140.52373259201656 26.520105652011765 C146.2016815764347 22.93320023209585, 157.81024794079545 8.98476763567021, 162.6495888981413 6.897705213878878 C167.48892985548716 4.810642792087547, 172.29835041276533 9.448241462747642, 169.55977833609165 13.997731121263774 C166.82120625941798 18.547220779779906, 150.52100397399244 29.365351699354758, 146.21815643809927 34.19464316497567 C141.9153089022061 39.02393463059659, 141.5574458942163 36.61228448931708, 143.74269312073275 42.97347991498928 C145.9279403472492 49.33467534066148, 155.17412940768872 61.87282569035055, 159.32963979719796 72.36181571900887 C163.4851501867072 82.8508057476672, 166.97873411793006 94.80005875952159, 168.6757554577882 105.90742008693921 C170.37277679764634 117.01478141435683, 168.40066660382638 132.28883877485404, 169.5117678363467 139.0059836835146 C170.62286906886703 145.72312859217513, 169.17262253006717 144.39695677238274, 175.3423628529102 146.2102895389025 C181.51210317575325 148.02362230542224, 201.63712717647698 147.3666931580232, 206.53020977340492 149.88598028263303 C211.42329237033286 152.40526740724286, 209.91140238997423 160.5204062519689, 204.7008584344778 161.32601228656154 C199.49031447898136 162.13161832115418, 181.76037043395297 155.32978601226017, 175.2669460404264 154.71961649018883 C168.77352164689984 154.10944696811748, 169.62770925965305 152.743943016135, 165.74031207331834 157.6649951541335 C161.85291488698363 162.58604729213198, 157.50096791707355 175.57078593027023, 151.9425629224182 184.24592931817972 C146.38415792776286 192.9210727060892, 140.56013935816887 202.013842102015, 132.3898821053863 209.71585548159047 C124.21962485260374 217.41786886116594, 107.15219879538625 225.4205981825101, 102.92101940572282 230.4580095956326 C98.68984001605938 235.4954210087551, 103.07609064252074 233.9700639171975, 107.00280576740565 239.9403239603255 C110.92952089229055 245.91058400345347, 125.300245156746 260.75582298580105, 126.48131015503229 266.27956985440045 C127.66237515331858 271.80331672299985, 118.5501812352825 276.54929294852246, 114.08919575712335 273.082805171922 C109.6282102789642 269.6163173953216, 104.08987315025657 251.42991668731818, 99.71539728607742 245.48064319479778 C95.34092142189827 239.53136970227737, 95.23785631785549 237.29871993582253, 87.84234057204847 237.38716421679965 C80.44682482624145 237.47560849777676, 67.92393988333764 244.83912090933865, 55.34230281123532 246.0113088806605 C42.760665739133 247.18349685198234, 24.3497413311835 246.43358447721792, 12.352518139434554 244.42029204473076 C0.35529494768561065 242.4069996122436, -10.38672003759503 234.94286551537613, -16.641036339258335 233.93155428573752 C-22.89535264092164 232.9202430560989, -21.39867355852295 232.93512233505322, -25.17337967054527 238.35242466689905 C-28.94808578256759 243.7697269987449, -35.035221886638226 262.7855176041536, -39.28927301139225 266.43536827681254 C-43.54332413614627 270.0852189494715, -51.68861291075024 265.7506229900256, -50.6976864190694 260.25152870285274 C-49.70675992738856 254.7524344156799, -36.42144705116961 239.45940395870525, -33.34371406130723 233.44080255377534 C-30.26598107144486 227.42220114884543, -28.96300223154147 228.3546343608129, -32.231288479895156 224.13992027327325 C-35.499574728248845 219.9252061857336, -46.09037691684639 215.59289339234596, -52.953431551429354 208.1525180285375 C-59.81648618601232 200.71214266472901, -68.45363825597832 187.2955476839798, -73.40961628739294 179.49766809042237 C-78.36559431880755 171.69978849686493, -79.19276803117093 164.69112701876122, -82.68929973991702 161.36524046719288 C-86.18583144866311 158.03935391562453, -87.47218066482117 158.40246460414784, -94.38880653986945 159.54234878101224 C-101.30543241491773 160.68223295787664, -118.9427663903095 169.18450766699019, -124.18905499020669 168.20454552837927 C-129.43534359010386 167.22458338976836, -130.76014453613558 156.40597129665568, -125.86653813925253 153.6625759493467 C-120.97293174236948 150.9191806020377, -101.20122949434148 153.51200563009382, -94.82741660890841 151.7441734445253 C-88.45360372347534 149.97634125895678, -88.79333551960251 150.87194087144428, -87.62366082665413 143.05558283593552 C-86.45398613370575 135.23922480042677, -89.19898452986017 116.27280224846155, -87.80936845121818 104.84602523147278 C-86.41975237257618 93.41924821448401, -83.2898626169253 83.66496959013782, -79.28596435480215 74.4949207340029 C-75.28206609267899 65.32487187786799, -65.20412842358299 55.59168562000868, -63.78597887847924 49.82573209466332 C-62.3678293333755 44.05977856931796, -64.7161853425045 44.18446523285448, -70.77706708417969 39.89919958193074 C-76.83794882585488 35.613933931007, -96.48913059745063 28.63371081458845, -100.15126932853035 24.114138189120883 C-103.81340805961007 19.594565563653315, -98.24463880142812 11.364478263330646, -92.74989947065802 12.781763829125337 C-87.25516013988792 14.199049394920028, -73.8012269797974 29.082967296634, -67.18283334390969 32.61785158388903 C-60.56443970802197 36.15273587114405, -59.067558926283255 36.918368624005794, -53.0395376553317 33.9910695526555 C-47.011516384380144 31.06377048130521, -39.68510299161304 20.692810597194793, -31.01470571820036 15.054057155787262 C-22.34430844478768 9.415303714379732, -6.138630824021325 2.737123734171078, -1.0171540148556233 0.15854890421032897 M1.54550655185245 1.3667644696030767 C5.669889812443655 -0.27203596472099845, 19.249874771251285 -5.540010251623217, 23.530891035984833 -9.017836570300858 C27.81190730071838 -12.495662888978499, 27.100292757651854 -11.888865046582925, 27.23160414025374 -19.50019344246277 C27.362915522855626 -27.111521838342615, 22.302913044479663 -48.91597272144407, 24.318759331596155 -54.68580694557992 C26.334605618712647 -60.45564116971577, 36.85001290674276 -59.849915120789525, 39.3266818629527 -54.119198787277874 C41.80335081916263 -48.38848245376622, 38.763014838031594 -27.944875733704997, 39.178773068855755 -20.301508944510005 C39.594531299679915 -12.658142155315012, 36.586475229457946 -11.014186669734883, 41.821231247897664 -8.258998052107923 C47.05598726633738 -5.503809434480964, 60.33399602239094 -7.23399447766182, 70.58730917949408 -3.770377238748247 C80.84062233659722 -0.3067599998346737, 93.65008656788326 7.215121044251359, 103.34111019051652 12.522705381373516 C113.03213381314977 17.830289718495674, 122.99567984659397 25.53929533974587, 128.73345091529362 28.075128783984695 C134.47122198399327 30.61096222822352, 132.32693741627224 30.83250956703892, 137.7677366027144 27.73770604680648 C143.20853578915654 24.64290252657404, 156.048105455555 11.384862592733183, 161.37824603394643 9.50630766259005 C166.70838661233785 7.627752732446916, 172.4420227996109 12.288026885439718, 169.748580073063 16.466376465947675 C167.05513734651512 20.64472604645563, 149.4331427431627 30.245878317427515, 145.21758967465914 34.57640514563779 C141.00203660615557 38.90693197384807, 142.47782688456323 35.943069524221336, 144.45526166204164 42.449537435209336 C146.43269643952004 48.95600534619734, 153.20854927105245 62.93405012086133, 157.08219833952964 73.6152126115658 C160.95584740800683 84.29637510227026, 165.8132193035141 95.60445208736313, 167.69715607290476 106.53651237943615 C169.58109284229542 117.46857267150916, 166.83099484257252 132.4932512903248, 168.38581895587356 139.2075743640039 C169.9406430691746 145.92189743768301, 170.5391568190305 145.24361931998038, 177.026100752711 146.82245082151076 C183.51304468639148 148.40128232304113, 202.84496226320078 146.40416440206965, 207.30748255795652 148.6805633731861 C211.77000285271225 150.95696234430253, 209.0558237568651 159.1242074422353, 203.80122252124545 160.4808446482094 C198.5466212856258 161.8374818541835, 182.1176257826559 157.40272324959182, 175.77987514423862 156.82038660903072 C169.44212450582134 156.23804996846962, 170.0610924954261 152.61611701807647, 165.77471869074185 156.9868248048429 C161.4883448860576 161.35753259160936, 155.90221563316325 174.12928929669027, 150.06163231613309 183.0446333296293 C144.22104899910292 191.95997736256834, 138.44613982018495 202.6821440807316, 130.7312187885609 210.47888900247713 C123.01629775693685 218.27563392422266, 107.48701342567675 224.46761693491555, 103.77210612638873 229.8251028601025 C100.05719882710072 235.18258878528945, 104.94828800454694 236.30892628388315, 108.44177499283279 242.6238045535989 C111.93526198111864 248.93868282331462, 123.6955474394575 262.4723117521825, 124.73302805610382 267.7143724783969 C125.77050867275014 272.9564332046113, 118.56942323749215 277.9599816104647, 114.66665869271074 274.0761689108854 C110.76389414792934 270.19235621130605, 105.90227376501552 250.77999171676026, 101.31644078741542 244.41149628092103 C96.73060780981531 238.0430008450818, 94.86960251682817 235.85949054640275, 87.15166082711008 235.86519629584998 C79.43371913739199 235.8709020452972, 67.72208320117677 243.13521632201952, 55.00879064910686 244.44573077760433 C42.29549809703694 245.75624523318913, 23.12140684990506 245.80983868591122, 10.8719055146906 243.72828302935875 C-1.3775958205238616 241.64672737280628, -12.73981220423676 232.43088955256778, -18.488217362179913 231.95639683828952 C-24.236622520123067 231.48190412401127, -20.290374280660416 234.9495640374284, -23.618525432968323 240.88132674368916 C-26.94667658527623 246.81308944994993, -34.23980653391559 264.5100088782217, -38.45712427602734 267.54697307585405 C-42.674442018139096 270.5839372734864, -49.84032236794839 264.9634145777453, -48.92243188563884 259.1031119294832 C-48.004541403329284 253.2428092812211, -36.138716233831154 238.12868770310936, -32.949781382170016 232.3851571862815 C-29.76084653050888 226.64162666945364, -26.237376101595732 228.62355297163344, -29.788822775672017 224.64192882851603 C-33.340269449748305 220.66030468539861, -47.0501139982344 215.93423771163924, -54.25846142662773 208.4954123275771 C-61.466808855021064 201.05658694351496, -68.47200165027785 187.7661414517513, -73.038907346032 180.0089765241432 C-77.60581304178616 172.2518115965351, -78.48100393322144 165.35589913859067, -81.65989560115266 161.95242276192857 C-84.83878726908387 158.54894638526648, -85.00718437834885 158.87820890881412, -92.11225735361924 159.5881182641706 C-99.21733032888963 160.29802761952706, -119.05943584355231 167.3233301840965, -124.29033345277499 166.21187889406738 C-129.52123106199767 165.10042760403826, -128.1884212974681 155.22842501425438, -123.49764300895536 152.9194105239958 C-118.80686472044262 150.6103960337372, -102.5178272879001 154.12991276231148, -96.14566372169854 152.3577919525159 C-89.77350015549698 150.58567114272032, -86.64815624091027 150.4309026241067, -85.26466161174602 142.28668566522234 C-83.88116698258177 134.14246870633798, -88.82622176145189 114.99439608471879, -87.84469594671303 103.49249019920975 C-86.86317013197417 91.99058431370072, -83.03379264397248 82.11863399608909, -79.37550672331288 73.27525035216817 C-75.71722080265329 64.43186670824726, -66.95958874951884 56.19629237032747, -65.8949804227555 50.43218833568426 C-64.83037209599215 44.66808430104105, -67.333740704649 43.13957915641345, -72.98785676273282 38.69062614430892 C-78.64197282081663 34.2416731322044, -96.6549264826354 27.990537060084502, -99.8196767712584 23.738470263057124 C-102.9844270598814 19.486403466029746, -97.3149424616216 11.526497064909897, -91.97635849447082 13.178225362144655 C-86.63777452732003 14.829953659379413, -74.16165594772966 30.266256239516792, -67.78817296835372 33.64884004646567 C-61.414689988977784 37.03142385341455, -60.036997031071095 36.83161241011168, -53.735460618215185 33.47372820383793 C-47.433924205359276 30.115843997564177, -39.034303874385024 19.136998310767545, -29.978954491218257 13.501534808823157 C-20.92360510805149 7.8660713068787675, -4.58350895354271 1.9649336074036965, 0.5966356807854027 -0.3390528078284114" stroke="#000000" stroke-width="1" fill="none"></path></g></g><g><g transform="translate(157.8987862782917 162.73806466403533) rotate(0 33.416038152645115 3.990641161409144)"><path d="M-0.5977718822658061 3.4059015965218835 C2.7914488047561457 0.5195708280371565, 12.451866479905082 -10.045292706266089, 19.44035454031909 -15.142237838643377 C26.428842600733095 -20.239182971020664, 33.95006633616832 -24.736190519496084, 41.33315648021823 -27.175769197741836 C48.71624662426814 -29.615347875987588, 59.38490988953586 -34.93617340630137, 63.738895404618525 -29.779709908117887 C68.09288091970119 -24.623246409934403, 67.56469439303584 -7.408019394649374, 67.45706957071418 3.7630117913590695 C67.34944474839253 14.934042977367513, 69.44300604989347 33.96532551087446, 63.093146470688644 37.246477207932784 C56.74328689148382 40.52762890499111, 40.04106076216393 29.30600457800773, 29.35791209548525 23.449921973709014 C18.67476342880657 17.593839369410297, 3.8787838836259514 5.299732016861686, -1.005745529383421 2.109981582140475 M1.2892591502051802 2.4408700034990156 C5.1567714962842714 -0.16878641776386027, 15.234424927055592 -9.046490303827495, 21.84032773345606 -13.736231923714985 C28.44623053985653 -18.425973543602474, 33.990834449630576 -23.168585583013698, 40.92467598860799 -25.697579715825928 C47.8585175275854 -28.226573848638157, 59.252798830732594 -33.84909289919988, 63.44337696732051 -28.91019672058837 C67.63395510390843 -23.97130054197686, 65.86785268911241 -7.463909482013618, 66.0681448081355 3.9357973558431443 C66.26843692715859 15.335504193699906, 70.74259889059294 36.36133891542449, 64.64512968145905 39.4880443065522 C58.54766047232516 42.614749697679905, 40.074111796702006 28.47249276544188, 29.483329553332176 22.6960297026094 C18.892547309962346 16.91956663977692, 6.280079517565978 8.03127793586465, 1.1004362212400882 4.829265929557308" stroke="#000000" stroke-width="1" fill="none"></path></g></g><g><g transform="translate(229.2977066233932 157.99239186330666) rotate(56.61573969620872 34.3166920865616 0.3574841655365333)"><path d="M0.3884890906512737 -0.8431051723659038 C3.459645219106883 -3.6580379560684557, 12.352891430850928 -12.538160211253597, 18.960459483172958 -17.614744544831154 C25.568027535494988 -22.69132887840871, 32.89660221045673 -28.764965590942076, 40.03389740458345 -31.30261117383124 C47.17119259871017 -33.84025675672041, 57.00925473656995 -37.968963707066926, 61.784230647933285 -32.840618042166156 C66.55920655929663 -27.712272377265386, 68.00166870925317 -12.165762554833218, 68.68375287276346 -0.5325371844266271 C69.36583703627376 11.100688185979966, 72.31076590050021 33.572362669268216, 65.87673562899506 36.95873418027339 C59.44270535748991 40.34510569127856, 41.09067758019749 26.14185720741025, 30.079571243732552 19.78569188160441 C19.06846490726761 13.42952655579857, 4.903532128343876 2.1330648985467717, -0.18990238979458818 -1.1782577745616436 M-0.866692866096273 1.328660666802898 C2.545903399686054 -1.809403218925163, 14.5931398214268 -14.30809872339076, 21.289282000409653 -19.623015012341604 C27.985424179392506 -24.937931301292448, 32.4646828376206 -28.005011763670836, 39.31016020780085 -30.560837066902163 C46.155637577981096 -33.11666237013349, 57.67045094649797 -40.0967142715732, 62.36214622149112 -34.95796683172956 C67.05384149648428 -29.819219391885913, 67.20416942673477 -11.633629000603705, 67.46033185775977 0.27164757215970115 C67.71649428878477 12.176924144923106, 69.9995621133131 33.35435136007104, 63.89912080764113 36.473692604850875 C57.79867950196917 39.59303384963071, 41.72677132348266 24.812939325573133, 30.857684023727977 18.98769504083871 C19.988596723973295 13.162450756104285, 3.6184579689805916 4.938318273430676, -1.3154029908869416 1.5222268964443355" stroke="#000000" stroke-width="1" fill="none"></path></g></g><g><g transform="translate(281.6003976950417 209.3548838370653) rotate(107.76551663161719 33.88705052122896 1.8497725134085385)"><path d="M1.122757541388273 -0.17071964666247363 C4.393896597774068 -3.302278655251281, 14.335618600131337 -12.692464056196094, 20.753545026637553 -17.73771802249799 C27.17147145314377 -22.782971988799886, 32.16542488773606 -27.992892404458715, 39.63031610042558 -30.442243444473842 C47.095207313115104 -32.89159448448897, 60.95988131569191 -37.59064799180128, 65.5428923027747 -32.433824262588764 C70.1259032898575 -27.277000533376246, 67.98441093835245 -11.208774085638098, 67.12838202292235 0.4986989308012779 C66.27235310749225 12.206171947240652, 66.73610007455754 34.162625707779924, 60.406718810194114 37.811013836047486 C54.07733754583069 41.45940196431505, 39.320076919079646 28.852653790037742, 29.1520944367418 22.38902770040665 C18.98411195440395 15.925401610775559, 4.444332263421172 2.6357662262738315, -0.6011760838329792 -0.9707427017390727 M0.2530665212776513 -1.305951406499371 C3.3368914997496857 -4.2953653902521145, 13.820845651648334 -15.047460279338464, 20.22126593977021 -19.681520196222387 C26.621686227892084 -24.315580113106307, 30.972737582365706 -27.171809936416565, 38.655588250008904 -29.110310907802905 C46.3384389176521 -31.048811879189245, 61.81169617832131 -36.27541400809646, 66.31836994562939 -31.312526024540436 C70.82504371293746 -26.349638040984406, 66.45403835373196 -10.67380630134324, 65.69563085385734 0.6670169935332741 C64.93722335398272 12.007840288409787, 67.81601577167581 33.23324130366641, 61.767924946381655 36.73241374471864 C55.7198341210875 40.23158618577087, 39.415505955538606 28.087672700216658, 29.407085902092412 21.662051639846677 C19.39866584864622 15.236430579476696, 6.572145509811024 1.8289827107702015, 1.717404625704512 -1.821312617501244" stroke="#000000" stroke-width="1" fill="none"></path></g></g><g><g transform="translate(271.0004214915166 280.7762335199612) rotate(163.11582915884097 31.8954005083624 1.4823450695438112)"><path d="M-0.868680227547884 0.736736036092043 C1.3452501118479785 -1.9017174800087722, 6.142302351790309 -9.742157379903684, 12.262817052929767 -14.77723698979599 C18.383331754069225 -19.812316599688295, 28.337786993919238 -26.531671448442584, 35.854407979288865 -29.47374162326179 C43.37102896465849 -32.415811798080995, 52.63861920424403 -37.7913687464371, 57.36254296514753 -32.429658038711224 C62.086466726051036 -27.06794733098535, 63.74955949022218 -9.241130514352434, 64.19795054470987 2.6965226230934523 C64.64634159919756 14.634175760539339, 66.04902583704639 35.71714112040566, 60.05288929207363 39.1962607859641 C54.05675274710087 42.67538045152254, 38.35666440195975 30.12035872187499, 28.221131274873322 23.571240616444094 C18.085598147786897 17.022122511013198, 3.972546451294473 3.8136623032148256, -0.7603094704449176 -0.09844784662127504 M0.8761239236500113 0.0779185097012669 C3.0025547526980305 -1.8993990071372153, 5.395665550567971 -8.337189183442707, 11.202000643779629 -13.606123076131395 C17.008335736991285 -18.875056968820083, 28.03759836174949 -28.057134913885466, 35.71413448291996 -31.535684846430865 C43.390670604090424 -35.01423477897626, 52.761678810935855 -39.73109412547757, 57.26121737080243 -34.47742267140379 C61.760755930669 -29.22375121733001, 62.09578782794782 -12.083040160734992, 62.71136584211939 -0.013656121988196324 C63.32694385629097 12.055727916758599, 66.67848530471633 34.23510501651073, 60.95468545583189 37.93888156107698 C55.230885606947446 41.642658105643235, 38.281893289597825 28.613993899496606, 28.36856674881273 22.20900314540934 C18.455240208027632 15.804012391322075, 5.916205424412763 3.4159536962061443, 1.4747262111213058 -0.49106296344660216" stroke="#000000" stroke-width="1" fill="none"></path></g></g><g><g transform="translate(208.05791032636466 317.59191500877176) rotate(216.28421746585929 33.208431435024295 -0.0663341945587348)"><path d="M-0.08210167810320845 -0.7301037199795246 C2.85993087656254 -3.5883936941161383, 11.395399876677665 -11.281802915000295, 17.783522171047593 -16.271698828509226 C24.171644465417522 -21.261594742018158, 31.3266448410914 -27.178135604208443, 38.24663208811637 -30.669479201033106 C45.16661933514134 -34.16082279785777, 55.10987061959671 -42.17886104912483, 59.30344565319742 -37.2197604094572 C63.49702068679813 -32.26065976978957, 62.285049579183365 -13.480486192348728, 63.40808228972064 -0.9148753630273134 C64.53111500025791 11.650735466294101, 71.29370640428975 34.78819801717719, 66.04164191642107 38.173904566471286 C60.78957742855239 41.559611115765385, 43.02652986860252 25.857967095180676, 31.895695362508558 19.399363932737284 C20.764860856414597 12.940760770293892, 4.381283722614293 2.7946610281829325, -0.7433651201426983 -0.5777144081890583 M-1.5843437884468585 1.5009878816921263 C1.2899680046217337 -1.2261851487870885, 10.852116882673695 -9.045206480464838, 17.44622646331329 -14.712806870985926 C24.040336043952887 -20.380407261507013, 31.003136302217538 -28.968815584603806, 37.98031369539071 -32.5046144614344 C44.95749108856389 -36.040413338265, 54.746536955088175 -41.178180540688196, 59.30929082235235 -35.92760013196949 C63.87204468961653 -30.677019723250783, 64.58387232399804 -13.197771242977437, 65.35683689897576 -1.0011320091221572 C66.12980147395348 11.195507224733122, 69.4670275059832 33.55109786105064, 63.94707827221865 37.25223527116218 C58.427129038454105 40.95337268127371, 42.64489348420291 27.618055741713647, 32.2371414963885 21.205692451547037 C21.829389508574096 14.793329161380427, 6.860340515497495 2.145110293247605, 1.5005663453321905 -1.2219444698374717" stroke="#000000" stroke-width="1" fill="none"></path></g></g><g><g transform="translate(138.88582018317675 289.3479548397268) rotate(272.70762780618236 33.90059717481745 -3.361975574826147)"><path d="M0.665758491307497 0.8281339041888713 C2.9494805939770004 -2.2157643202349737, 8.066806900420648 -13.196304970155417, 13.397493291810907 -18.76240809986305 C18.728179683201166 -24.32851122957068, 26.185233522627982 -30.016781103981966, 32.64987683964905 -32.56848487405691 C39.114520156670125 -35.12018864413185, 47.14013604403721 -38.61465488880129, 52.18535319393734 -34.072630720312695 C57.230570343837464 -29.5306065518241, 60.779067888291394 -15.759467481117937, 62.921179739049805 -5.316339863125324 C65.06329158980822 5.12678775486729, 70.53596113948142 24.158387378943885, 65.03802429848778 28.586134987642986 C59.54008745749415 33.013882596342086, 40.96821578455141 26.201811598872915, 29.933558693088024 21.250145789069272 C18.898901601624637 16.29847997926563, 3.8589818110576815 2.3840801881969536, -1.1699182502925396 -1.1238598711788654 M-0.44385703009553246 0.2173002585489301 C1.7480400209682696 -2.6236640246894405, 6.751623250789431 -11.736256318637118, 12.686584606214247 -17.495570536227266 C18.62154596163906 -23.254884753817414, 28.47369096249576 -31.217701246392288, 35.165911102453364 -34.33858504699196 C41.85813124241097 -37.45946884759163, 47.923941755334525 -41.08916485594773, 52.839905445959886 -36.220873339825296 C57.75586913658525 -31.35258182370286, 62.39844376242146 -16.31664734921815, 64.66169324620552 -5.128835950257346 C66.92494272998957 6.058975448703458, 72.09654807419507 26.730312941387098, 66.41940234866422 30.90599505393952 C60.74225662313337 35.08167716649194, 41.527040480822166 24.808725284196587, 30.598818893020407 19.925256725057178 C19.67059730521865 15.041788165917769, 5.679486069956701 5.105161502702963, 0.8500728218536824 1.6051836991030726" stroke="#000000" stroke-width="1" fill="none"></path></g></g><g><g transform="translate(119.97782493117722 222.56761507503188) rotate(323.4456150347969 37.69676819083014 -2.5367353760569102)"><path d="M1.0383560054004193 0.8827366836369037 C3.417222904441383 -2.226695894043167, 8.40633966765688 -12.410097709963978, 13.92826002778188 -18.121296044978614 C19.45018038790688 -23.83249437999325, 27.59883319901548 -30.071637834813384, 34.16987816615042 -33.38445332645092 C40.74092313328536 -36.697268818088446, 47.99905391055596 -42.344768713924005, 53.35452983059152 -37.998188994803805 C58.710005750627076 -33.651609275683604, 62.87827310496285 -19.23901860428963, 66.30273368636377 -7.304975011729721 C69.72719426776469 4.629068580830187, 79.18355207905118 29.091345968699574, 73.90129331899702 33.60607256055563 C68.61903455894286 38.12079915241169, 46.82211148453482 25.524098042843022, 34.60918112603881 19.783384539406626 C22.396250767542803 14.04267103597023, 6.31867063713249 2.417199942382033, 0.6237111680209637 -0.8382084600627422 M0.12435417889617395 0.30056949720717974 C2.4613470444264527 -2.640334674746935, 7.879410720824685 -11.14729024684517, 13.496003878569981 -16.517874652528505 C19.11259703631528 -21.88845905821184, 27.177885406923142 -28.532509924070848, 33.82391312536795 -31.922936936892825 C40.469940843812765 -35.3133639497148, 48.122433363520244 -40.935194674634275, 53.372170189238844 -36.86043672946036 C58.62190701495744 -32.785678784286446, 62.20672365941381 -19.13230470133003, 65.32233407967954 -7.474389265849341 C68.43794449994526 4.183526169631346, 77.18036184190717 28.785408790275948, 72.06583271083318 33.08705588342376 C66.95130357975918 37.388702976571565, 46.658571797577444 24.119868923432282, 34.635159293235546 18.335493293037516 C22.611746788893647 12.55111766264275, 5.864847561381646 1.6035103734545204, -0.07464231521822517 -1.61919789894484" stroke="#000000" stroke-width="1" fill="none"></path></g></g><g transform="translate(224.4940515062807 221.37350664814585) rotate(0 14.722222222222229 14.722222222222229)"><path d="M15.0204855742568 -0.35731821978894196 C18.20709348220838 -0.21508582987646405, 22.924765149088937 1.687431246482371, 25.30185636696483 4.055988043044206 C27.678947584840724 6.424544839606041, 28.90440769274522 10.683113576674122, 29.283032881512156 13.854022559582065 C29.661658070279092 17.024931542490005, 29.35986986710105 20.575104758541098, 27.57360749956645 23.081441940491857 C25.78734513203185 25.587779122442615, 21.618642286519357 28.174647201459102, 18.56545867630455 28.892045651286608 C15.512275066089746 29.609444101114114, 12.216154207879537 28.763221519223325, 9.25450583827762 27.385832639456904 C6.292857468675702 26.008443759690483, 2.4025279262740398 23.154520837827828, 0.7955684586930509 20.627712372688084 C-0.8113910088879377 18.10090390754834, -1.1039453879171273 15.07709231805949, -0.38725096720831154 12.224981848618441 C0.3294434535005042 9.372871379177392, 1.867043612970292 5.560628205452955, 5.095734982945945 3.5150495560417916 C8.324426352921598 1.4694709066306282, 16.01419774167311 -0.10537195648555109, 18.984897252645606 -0.048490047848540385 C21.9555967636181 0.008391860788470318, 22.846451817594627 3.352816317608256, 22.919932048780908 3.856341007863856 M18.57712799115412 -0.5591846923025603 C21.360191797217112 -0.2089399499558029, 24.702464681576703 2.280084965744202, 26.24570649821292 5.343011194581399 C27.788948314849133 8.405937423418596, 28.118542569568266 14.23763632974112, 27.83657889097141 17.81837268072062 C27.554615212374554 21.399109031700124, 26.86510069437472 24.76675938915371, 24.553924426631774 26.827429300458412 C22.242748158888826 28.888099211763116, 16.97175741043962 30.40795840893264, 13.969521284513725 30.18239214854885 C10.967285158587831 29.95682588816506, 9.017828892086385 27.356266619390155, 6.540507671076412 25.474031738155666 C4.063186450066439 23.591796856921178, -0.1896452111683793 21.714583450687176, -0.8944060415461159 18.888982861141912 C-1.5991668719238525 16.063382271596648, 0.6699792563952387 11.255245798779704, 2.3119426888099923 8.520428200884083 C3.9539061212247457 5.785610602988463, 6.3753204584941905 3.786774555023289, 8.957374552942406 2.48007727376819 C11.539428647390622 1.173379992513091, 16.356984183232232 0.8471834943030467, 17.804267255499283 0.6802445133534896 C19.251550327766335 0.5133055324039324, 17.470274297428325 1.0642914000368953, 17.641072986544724 1.478443388070847" stroke="#000000" stroke-width="1" fill="none"></path></g></svg>