<svg xmlns="http://www.w3.org/2000/svg" width="673.885" height="428.15" version="1.1" viewBox="0 0 673.885 428.15"><defs><style>@font-face{font-family:&quot;Virgil&quot;;src:url(https://excalidraw.com/FG_Virgil.woff2)}@font-face{font-family:&quot;Cascadia&quot;;src:url(https://excalidraw.com/Cascadia.woff2)}</style></defs><g><g fill-rule="evenodd"><path fill="#003545" fill-rule="evenodd" stroke="none" stroke-width="0" d="M0.21250371262431145 1.766712088137865 L20.167013061168838 -26.271259720207308 L27.839736364220382 -40.074800629836304 L48.0820255897392 -55.600330037265365 L67.79632005818604 -68.55034650894943 L97.85522033329367 -77.85886879783507 L184.39401767025728 -96.42518845660517 L230.26384277724281 -114.71458931408289 L248.74363577075474 -123.57256637493823 L266.98638300269874 -131.28064597745862 L281.02925262515754 -144.3288964456645 L296.18234055325087 -165.14403060609993 L344.759939313726 -240.415586456457 L362.26081736629243 -256.7193409540165 L376.88124691484177 -268.3382900833591 L389.8541311122015 -274.0537647798253 L407.3997752218095 -278.17316226193714 L454.97717996521266 -280.91565213358854 L496.54768307768313 -295.67486192904914 L498.5494433822893 -296.29639166521906 L506.44292969985537 -288.4207069227443 L508.9888702348452 -286.49847367195605 L511.11769835693815 -281.4343567911453 L512.7777163788685 -267.5855522485748 L505.415889032278 -248.26986433816842 L500.73852568159987 -242.34920609769756 L480.0637120514586 -218.861413963936 L454.67943781602736 -205.46247328318827 L437.93014094456566 -197.10967671664167 L425.3803106212476 -182.05648556116148 L416.29335352955536 -170.88733084122995 L408.0427325827423 -134.5374613574081 L380.70259445183984 -24.34965979565139 L370.763084580489 3.3841053379628345 L358.732677374532 28.165500645940867 L342.402642311095 45.55223063745334 L329.3369516015318 52.72596928287099 L324.9415242633048 50.757622235150876 L328.9896018552142 41.15438645570465 L326.37247358478083 18.955885914460055 L324.0182304403498 38.486670790512235 L314.02816710066816 51.24781293355762 L302.94070582083043 68.58630668438525 L289.2430857934796 82.76659959605955 L271.8171731685564 94.32982548802592 L246.9493785820623 107.47986966904259 L227.91287048055062 111.12242615829072 L239.02857604925714 88.49922984006417 L244.80770812558706 67.56276452825487 L248.50276720302236 48.5937364485318 L249.56318320040916 28.8807953222218 L247.93958894951587 -0.8557958561029011 L244.8512061521219 2.921903753120043 L240.08089585566844 30.737736990807235 L235.09750732208187 41.57401125387746 L230.79988629928368 49.00551672292181 L226.88299701065225 52.12355713699853 L205.23358817229223 45.711672055609014 L119.36187006752903 21.753693532436223 L104.34775868510023 18.504181830599364 L71.02746129847444 18.578253616359596 L43.04609977974253 28.313554956324822 L30.870563401226793 34.17734835306362 L-22.317960647009706 66.29730302022142 L-59.690977147096916 86.04746984782659 L-77.05550286803435 94.67031092812229 L-99.62809111670448 99.65871561400422 L-113.08799874116623 98.32007582303632 L-110.86313140418503 91.81915815337247 L-109.29643296197193 84.63335505649306 L-96.3045264832771 46.523837023424164 L-127.135798517285 20.021919469306496 L-141.49106670710165 12.622193218120586 L-139.09368622802978 11.596371142488124 L-122.81634099586282 2.425969960934273 L-107.14188757901192 -3.279144421017193 L-92.18386462699056 -3.77242532104227 L-69.37945976117862 -4.586631301816624 L-20.514223072346546 4.897252742253315 L-12.450292377525987 5.832185467111973 L1.8313258104026318 -0.07180605456233025" transform="translate(150.72298149833716 305.20262375630864) rotate(0 186.21974704411912 -91.12780683214135)"/><path fill="none" stroke="#000" stroke-width="1" d="M-0.28259694501757626 0.3628670565783978 C4.648507048220238 -5.781081679574646, 16.834409884707735 -26.20331398372062, 28.485420470868352 -37.85728862575887 C40.13643105702897 -49.51126326779712, 53.2685253603678 -61.622801101061256, 69.62346657194612 -69.5609807956511 C85.97840778352445 -77.49916049024095, 107.60198261802712 -80.89559350169343, 126.61506774033828 -85.48636679329796 C145.62815286264942 -90.0771400849025, 166.61674018964948 -92.44511671822028, 183.70197730581302 -97.10562054527828 C200.78721442197656 -101.7661243723363, 215.2603773872035 -107.30536193436166, 229.12649043731943 -113.44938975564601 C242.99260348743536 -119.59341757693036, 255.62030233280285 -125.78806469176845, 266.89865560650856 -133.96978747298445 C278.17700888021426 -142.15151025420045, 285.9557012765091 -148.9896737432292, 296.79661007955366 -162.539726442942 C307.6375188825982 -176.0897791426548, 321.1900525746339 -199.74512043631904, 331.94410842477606 -215.27010367126132 C342.6981642749182 -230.7950869062036, 351.5012206433038 -245.497955369104, 361.3209451804065 -255.6896258525956 C371.14066971750924 -265.8812963360872, 380.6587807041122 -272.1186749594262, 390.86245564739255 -276.4201265722109 C401.0661305906729 -280.7215781849956, 411.4094829830408 -280.8570085782993, 422.5429948400887 -281.4983355293039 C433.6765066971366 -282.1396624803085, 448.1006921028692 -279.0893881111503, 457.66352678967985 -280.2680882782385 C467.2263614764905 -281.4467884453267, 472.7389281215475 -286.21608525137924, 479.9200029609526 -288.57053653183306 C487.10107780035776 -290.9249878122869, 495.455485098471 -295.55366321282804, 500.74997582611076 -294.3947959609616 C506.0444665537505 -293.2359287090951, 510.7630474634077 -289.0923978535583, 511.6869473267911 -281.6173330206342 C512.6108471901745 -274.1422681877101, 511.67373530683346 -259.8966610438688, 506.29337500641105 -249.54440696341686 C500.91301470598864 -239.19215288296493, 488.3118552066211 -226.9505128950486, 479.40478552425645 -219.50380853792254 C470.4977158418918 -212.05710418079647, 461.7092364365629 -210.86582243269243, 452.85095691222307 -204.86418082066052 C443.99267738788325 -198.86253920862862, 433.27574747695644 -192.57078352790046, 426.2551083782175 -183.4939588657312 C419.2344692794786 -174.41713420356194, 416.06616376665977 -167.2881732667098, 410.72712231978977 -150.40323284764506 C405.3880808729198 -133.5182924285803, 399.0860172934029 -103.1016947385959, 394.2208596969974 -82.18431635134264 C389.35570210059194 -61.266937964089394, 387.5262653884281 -43.12966386335941, 381.53617674135677 -24.89896252412553 C375.54608809428544 -6.668261184891644, 367.34330027553926 14.206612451615788, 358.28032781456926 27.19989168406066 C349.21735535359926 40.19317091650553, 332.32256903295297 50.76712161331185, 327.15834197553664 53.0607128705437 C321.9941149181203 55.354304127775556, 327.31855270105456 46.51595548141823, 327.29496547007136 40.96143922745176 C327.27137823908816 35.406922973485294, 327.93337012440344 20.059108161340554, 327.0168185896374 19.733615346744887 C326.1002670548714 19.40812253214922, 325.71793950399535 31.06085628730025, 321.7956562614753 39.00848233987776 C317.87337301895525 46.95610839245527, 311.9991037301066 58.33199844842602, 303.48311913451727 67.41937166220994 C294.96713453892795 76.50674487599386, 283.13885179700736 85.97256534205702, 270.69974868793935 93.53272162258126 C258.26064557887133 101.0928779031055, 235.44991414256066 111.54651514739122, 228.84850048010927 112.78030934535535 C222.24708681765787 114.01410354331948, 228.1346011895626 108.28896042314317, 231.09126671323105 100.93548681036602 C234.0479322368995 93.58201319758886, 243.33354075266152 80.48541338216242, 246.58849362211998 68.65946766869247 C249.84344649157845 56.83352195522252, 250.35253224855364 41.988333680864585, 250.62098392998192 29.979812529546304 C250.8894356114102 17.97129137822802, 249.49454378024734 -0.5363323089646443, 248.1992037106896 -3.391659239217239 C246.90386364113186 -6.246986169469833, 244.31929884367088 7.275391028024674, 242.84894351263557 12.847850948030734 C241.37858818160026 18.420310868036793, 241.2996121640413 23.759589875634738, 239.37707172447767 30.043100280819118 C237.45453128491405 36.3266106860035, 234.98660911089843 47.32033034588623, 231.31370087525386 50.548913379137005 C227.6407926396093 53.777496412387784, 228.38134275705977 52.05318304045652, 217.33962231061025 49.414598480323775 C206.29790186416074 46.77601392019103, 183.92289595129745 39.942503385581766, 165.0633781965567 34.717406018340554 C146.20386044181595 29.492308651099343, 124.39631823908135 19.44864422406468, 104.18251578216568 18.064014276876506 C83.96871332525001 16.679384329688332, 61.801674596502 20.14116632544212, 43.78056345506268 26.40962633521152 C25.759452313623367 32.67808634498092, 10.091851407051745 47.215108164302926, -3.944151066470225 55.67477433549289 C-17.980153539992195 64.13444050668285, -28.516626487847745 70.58789375837085, -40.43545138606914 77.1676233623513 C-52.354276284290535 83.74735296633176, -64.63798382889028 91.1153786108999, -75.45710045579861 95.15315195937563 C-86.27621708270694 99.19092530785137, -99.22339527019551 101.69623178087681, -105.3501511475191 101.39426345320575 C-111.47690702484269 101.09229512553469, -113.14263080535548 100.62477349276358, -112.21763571974012 93.34134199334926 C-111.29264063412475 86.05791049393494, -102.27224001301447 65.40095807265178, -99.8001806338269 57.69367445671984 C-97.32812125463933 49.986390840787905, -96.18164990491695 50.39065829728593, -97.38527944461467 47.09764029775764 C-98.58890898431238 43.804622298229354, -102.18528461556322 42.685255883783, -107.02195787201322 37.935566459550124 C-111.85863112846322 33.18587703531725, -120.82228872639968 22.479834409177762, -126.40531898331464 18.59950375236037 C-131.9883492402296 14.719173095542978, -139.4115973682055 16.61963907853092, -140.520139413503 14.653582518645774 C-141.6286814588005 12.687525958760627, -138.33235926480933 9.561319308429423, -133.05657125509967 6.803164393049497 C-127.78078324539003 4.04500947766957, -119.48596531281268 -0.3156462583538229, -108.86541135524512 -1.8953469736337893 C-98.24485739767755 -3.475047688913756, -84.32988275799624 -3.6856100046397122, -69.33324750969423 -2.6750398986303026 C-54.336612261392226 -1.664469792620893, -30.500050823447626 3.6917961006841904, -18.885599865433075 4.168073662422668 C-7.2711489074185245 4.644351224161147, -2.846499953363753 0.6939475086915114, 0.3534582383930682 0.18262547180056576 M1.7699009295087307 -0.492231684057042 C6.705461647569065 -6.935616512288771, 16.682701401635736 -28.573500352124576, 27.934111257556008 -39.86432442585638 C39.185521113476284 -51.155148499588186, 52.782336132993535 -60.80299568447539, 69.27836006503037 -68.23717612644788 C85.7743839970672 -75.67135656842036, 107.51924663492176 -79.76423398131584, 126.91025484977699 -84.46940707769132 C146.30126306463222 -89.17458017406679, 168.38214833635683 -91.51846700815925, 185.62440935416174 -96.46821470470073 C202.86667037196665 -101.4179624012422, 216.68853174311505 -108.20644772851061, 230.36382095660636 -114.16789325694019 C244.03911017009767 -120.12933878536977, 256.2479329680327 -124.179671510681, 267.67614463510955 -132.23688787527817 C279.1043563021864 -140.29410423987534, 288.4329455487691 -148.53140748099406, 298.9330909590672 -162.51119144452323 C309.4332363693653 -176.4909754080524, 320.20079692610847 -200.58453040743518, 330.67701709689834 -216.1155916564532 C341.1532372676882 -231.64665290547123, 351.78250489752503 -245.77571985535545, 361.7904119838064 -255.6975589386314 C371.79831907008776 -265.6193980219074, 380.3292648628349 -271.23784925675704, 390.72445961458646 -275.646626156109 C401.119654366338 -280.05540305546094, 412.8769765231173 -281.30633554368904, 424.16158049431573 -282.1502203347429 C435.44618446551414 -282.9941051257968, 448.7187457731246 -279.64067120948846, 458.43208344177685 -280.7099349024322 C468.1454211104291 -281.779198595376, 475.2824882396546 -286.18562410234046, 482.44160650622905 -288.56580249240534 C489.6007247728035 -290.9459808824702, 496.39561034782514 -296.3377516377472, 501.3867930412237 -294.9910052428215 C506.3779757346223 -293.64425884789574, 511.210688190002 -288.0868844223054, 512.3887026666204 -280.48532412285095 C513.5667171432387 -272.8837638233965, 514.1825753161335 -259.540572121724, 508.454879900934 -249.38164344609484 C502.7271844857344 -239.22271477046573, 487.5202160604403 -227.0537381895771, 478.0225301754232 -219.53175206907625 C468.52484429040607 -212.0097659485754, 460.0010442499372 -210.00086304061978, 451.46876459083126 -204.24972672308968 C442.9364849317253 -198.49859040555958, 433.82056221501955 -193.81856248198727, 426.8288522207876 -185.0249341638956 C419.83714222655567 -176.23130584580394, 414.96827104151805 -168.44790858262687, 409.5185046254398 -151.48795681453973 C404.0687382093615 -134.5280050464526, 398.85258266101033 -104.29483496179913, 394.1302537243181 -83.26522355537273 C389.40792478762586 -62.23561214894633, 386.8845511454613 -44.0978861159649, 381.18453100528643 -25.31028837598133 C375.4845108651116 -6.522690635997762, 368.67694475627246 16.319341923956806, 359.93013288326887 29.460362884528678 C351.1833210102653 42.60138384510055, 333.97692840613314 51.58842439453796, 328.7036597672649 53.53583738744992 C323.4303911283967 55.48325038036187, 328.3251052667764 46.84485543818289, 328.2905210500597 41.144840842000406 C328.25593683334296 35.44482624581792, 329.38318311098413 19.911783396137036, 328.4961544669647 19.335749810355015 C327.60912582294526 18.759716224572994, 327.1641983648497 29.98232859158668, 322.9683491859431 37.68863932730828 C318.7725000070365 45.39495006302988, 312.3487039406224 55.96376025575038, 303.321059393525 65.57361422468462 C294.2934148464276 75.18346819361885, 281.2430531514197 87.70614418118214, 268.8024819033589 95.3477631409137 C256.3619106552981 102.98938210064526, 234.4740575508275 110.27297559541975, 228.6776319051603 111.42332798307399 C222.8812062594931 112.57368037072823, 231.33688797423943 109.47434355864259, 234.02392802935577 102.24987746683912 C236.7109680844721 95.02541137503566, 241.81287444577654 80.48211373829012, 244.79987223585832 68.0765314322532 C247.7868700259401 55.670949126216286, 251.67542288848276 39.89241369849274, 251.94591476984647 27.81638363061762 C252.21640665121018 15.740353562742497, 247.901074708589 -2.141890328124006, 246.42282352404055 -4.379648974997523 C244.9445723394921 -6.61740762187104, 243.98815600212131 8.799286587754683, 243.07640766255585 14.389831749376514 C242.1646593229904 19.980376910998345, 242.82217589126927 23.14326689702084, 240.9523334866478 29.163621994733468 C239.08249108202634 35.18397709244609, 235.89010843942043 47.09641743190999, 231.85735323482703 50.51196233565227 C227.82459803023363 53.92750723939455, 228.06107221011496 52.31361146743935, 216.75580225908732 49.656891417187154 C205.45053230805968 47.00017136693496, 182.6534948397226 39.82144655630993, 164.0257335286612 34.57164203413908 C145.39797221759977 29.321837511968234, 125.32211245818593 19.521394620914265, 104.98923439271876 18.158064284162055 C84.65635632725159 16.794733947409846, 60.29608092294309 20.11894996350408, 42.028465135858156 26.39166001362582 C23.760849348773217 32.66437006374756, 9.025844295709119 47.115836544508035, -4.616460329790865 55.79432458489251 C-18.25876495529085 64.47281262527697, -27.896985606996665 71.90285332061474, -39.82536261714176 78.46258825593264 C-51.75373962728685 85.02232319125055, -65.02495475389544 91.28185768716804, -76.18672239066143 95.15273419679995 C-87.34849002742742 99.02361070643187, -100.65190473025918 102.05608504836954, -106.79596843773766 101.68784731372416 C-112.94003214521614 101.31960957907879, -113.78555566395725 99.96892392702104, -113.0511046355323 92.9433077889277 C-112.31665360710734 85.91769165083436, -104.94662797103629 66.84983640067898, -102.38926226718795 59.53415048516408 C-99.8318965633396 52.218464569649186, -96.53587770376816 52.60057995067772, -97.70691041244218 49.049192295838324 C-98.8779431211162 45.49780464099893, -104.73715374030543 43.02073545184908, -109.4154585192321 38.225824556127726 C-114.09376329815878 33.430913660406375, -120.63805860887192 24.291837592067658, -125.7767390860022 20.279726921510203 C-130.91541956313247 16.26761625095275, -139.08595609014907 16.359772140359013, -140.24754138201382 14.153160532782998 C-141.40912667387857 11.946548925206983, -137.8493317609929 10.091956030399936, -132.7462508371907 7.040057276054117 C-127.6431699133885 3.9881585217082978, -120.57075907415731 -2.39530012482182, -109.62905583920069 -4.158231993291922 C-98.68735260424407 -5.921163861762024, -82.41167103470026 -5.177514784787309, -67.09603142745098 -3.537533934766498 C-51.7803918202017 -1.897553084745686, -28.75569332811176 5.142453458080748, -17.735218195704988 5.681653106832948 C-6.714743063298215 6.220852755585147, -3.655201064116052 0.922630384445823, -0.9731806330103427 -0.3023360422533006" transform="translate(150.72298149833716 305.20262375630864) rotate(0 186.21974704411912 -91.12780683214135)"/></g></g></svg>