<svg xmlns="http://www.w3.org/2000/svg" width="242.417" height="505.656" version="1.1" viewBox="0 0 242.417 505.656"><defs><style>@font-face{font-family:&quot;Virgil&quot;;src:url(https://excalidraw.com/FG_Virgil.woff2)}@font-face{font-family:&quot;Cascadia&quot;;src:url(https://excalidraw.com/Cascadia.woff2)}</style></defs><g><g><path fill="none" stroke="#000" stroke-width="1" d="M-44.00682282429797 -1.106821607798338 C-42.99024720522263 38.38325676325713, -37.92380597750578 169.25651051312042, -36.746029183126275 238.07325130350915 C-35.56825238874677 306.8899920938979, -28.446539763750394 387.5379484054163, -36.94016205802096 411.793623134534 C-45.433784352291525 436.04929786365176, -71.2469476338883 401.95462517846744, -87.70776294874968 383.6072996782155 C-104.16857826361105 365.25997417796356, -125.58005802072435 331.6306360614456, -135.70505394718924 301.7096701330224 C-145.83004987365413 271.78870420459924, -149.3541805624905 236.47925707175085, -148.45773850753903 204.08150410767638 C-147.56129645258756 171.6837511436019, -140.44930644338106 133.4545452093471, -130.3264016174804 107.32315234857553 C-120.20349679157975 81.19175948780396, -100.16830814929396 61.404738841870696, -87.72030955213512 47.29314694304697 C-75.27231095497628 33.181555044223245, -62.93893965503623 30.341257365877695, -55.63841003452731 22.653600955633202 C-48.33788041401839 14.965944545388709, -46.02993602584518 4.813601097195989, -43.9171318290816 1.1672084815800188 M-42.39638895479639 0.9264931027684362 C-41.01730742919878 40.539185210513, -35.417095927856074 167.40731715381435, -34.551635414378005 236.0548625511772 C-33.686174900899935 304.70240794854004, -28.389186827640863 388.12152734843977, -37.203625873927976 412.81176548694555 C-46.01806492021509 437.5020036254513, -70.81778894854124 402.73352556665793, -87.43826969210068 384.1962913822119 C-104.05875043566012 365.65905719776583, -126.42941967599876 331.6841743105899, -136.92651033528463 301.5883603802694 C-147.4236009945705 271.4925464499489, -151.5793561165071 236.18008913620997, -150.42081364781595 203.6214078002888 C-149.26227117912478 171.06272646436764, -140.80472293814728 132.38492634768116, -129.9752555231377 106.23627236474248 C-119.1457881081281 80.0876183818038, -97.56037962632902 60.902470882464094, -85.44400915775837 46.72948390265673 C-73.32763868918772 32.55649692284937, -64.23560817099599 28.765323472564063, -57.277032711713815 21.19835048589831 C-50.31845725243164 13.631377499232556, -46.124900168147235 5.109488034883163, -43.69255640206536 1.327645982662216" transform="translate(160.60792042275784 11.106821607798338) rotate(0 -91.41047767952324 209.99478024957398)"/></g></g><g><g><path fill="none" stroke="#000" stroke-width="1" d="M-1.061333215981722 1.1843313463032243 C1.1282322530837725 5.401957107064857, 6.332625814744666 18.091495139556244, 12.96581749388091 25.59345812709769 C19.599009173017155 33.09542111463914, 27.978899161375445 36.746636996724106, 38.73781685883575 46.196109271551904 C49.496734556296055 55.6455815463797, 66.52157394204602 65.27424435530544, 77.51932367864273 82.29029177606448 C88.51707341523945 99.30633919682352, 98.8702212407851 122.06191164662309, 104.72431527841609 148.29239379610615 C110.57840931604707 174.52287594558922, 113.83243102444767 210.86241451812433, 112.64388790442867 239.6731846729629 C111.45534478440966 268.4839548278015, 105.27041202504337 298.2839095623813, 97.59305655830202 321.15701472513757 C89.91570109156068 344.0301198878938, 78.05779184136193 360.9327346683199, 66.57975510398057 376.91181564950034 C55.101718366599215 392.8908966306808, 37.95651679366666 415.54800929579017, 28.724836134013884 417.0315006122203 C19.49315547436111 418.5149919286505, 14.99165215012291 420.0556337356587, 11.189671146063946 385.8127635480813 C7.387690142004981 351.5698933605039, 7.888981679289833 275.7269890661301, 5.9129501096601 211.57427948675584 C3.9369185400303675 147.42156990738158, 0.17820781593015977 36.062738778751815, -0.6665182717144489 0.8965060718357563 M0.5823281162884086 0.7605013577733191 C2.703996659844927 4.605635874755293, 6.150077975600421 16.584751807715982, 12.468441166803984 23.820773796762804 C18.786804358007547 31.056795785809626, 27.681527900097272 34.338483838307134, 38.492507263509786 44.17663329205425 C49.3034866269223 54.01478274580136, 65.99046399641165 65.35605863814928, 77.33431734727905 82.84967051924548 C88.67817069814646 100.34328240034168, 100.48746839593551 123.07933791151446, 106.55562736871425 149.13830457863145 C112.623786341493 175.19727124574842, 115.06566359726213 210.76193684442424, 113.74327118395155 239.2034705219474 C112.42087877064097 267.6450041994705, 106.62262484851443 296.8791113336499, 98.62127288885078 319.7875066437703 C90.61992092918713 342.6959019538907, 77.64249274897043 360.5802458379417, 65.73515942596961 376.6538423826697 C53.82782610296881 392.72743892739777, 36.158185603756706 414.73314115259865, 27.177272950845936 416.22908591213877 C18.196360297935165 417.7250306716789, 15.321512150276913 420.1177011695617, 11.849683508504993 385.6295109399106 C8.377854866733074 351.14132071025944, 8.116083610703468 273.41432033373474, 6.346301100214418 209.2999445342319 C4.576518589725367 145.18556873472912, 2.0358263577873874 35.8173727689893, 1.2309884455706923 0.943256142893806" transform="translate(118.33134379141552 12.359595060473765) rotate(0 56.51238247964159 209.20111475941988)"/></g></g><g><g><path fill="none" stroke="#000" stroke-width="1" d="M-6.964320731248331 0.92867269590497 C-6.317220916190796 7.692330231978876, -3.6765599106464473 29.931984181541026, -2.1547958240955634 39.55637522989144 C-0.6330317375446792 49.18076627824185, -0.5943456273491132 55.48660367549265, 2.1662637880569733 58.67501898600745 C4.92687320346306 61.86343429652225, 13.96441865059295 56.3851429071989, 14.408860668340955 58.68686709298023 C14.85330268608896 60.98859127876156, 7.001347717984679 66.42740268858003, 4.832915894545002 72.48536410069543 C2.6644840711053264 78.54332551281084, 2.0990755555505203 87.15726486671663, 1.3982697277028988 95.03463556567266 C0.6974638998552772 102.91200626462869, 2.448954724639261 116.32569253779798, 0.6280809274592729 119.7495882944316 C-1.1927928697207155 123.17348405106523, -7.813343598900882 119.6264297449199, -9.52697305537703 115.57801010547446 C-11.24060251185318 111.52959046602902, -8.856479258781595 102.19680213240997, -9.65369581139762 95.45907045775897 C-10.450912364013645 88.72133878310797, -12.09709351006721 80.95181667215186, -14.310272371073182 75.15162005756842 C-16.523451232079154 69.35142344298498, -22.88850888634848 63.19071149108996, -22.932768977433444 60.65789077025835 C-22.97702906851841 58.12507004942674, -16.865378905118046 63.10460601341524, -14.575832917582975 59.95469573257879 C-12.286286930047904 56.80478545174234, -10.570438649442178 51.88130065212388, -9.195493052223023 41.758429085239634 C-7.820547455003868 31.635557518355387, -6.765704345413058 6.0983770434682345, -6.326159334268045 -0.7825336687266826 M-5.020090407674756 0.37062191591598115 C-4.502871980864234 7.399787380420922, -4.298974053592229 31.508890045729473, -2.7039966725948763 40.922217319553766 C-1.109019291597524 50.33554459337806, 1.698624613204728 53.74308544995131, 4.549773878309358 56.850585558861745 C7.400923143413987 59.95808566777218, 14.546153544650686 56.91021396816374, 14.402898918032903 59.56721797301636 C14.259644291415121 62.224221977868986, 6.166531551663863 66.99623821648622, 3.690246118602662 72.79260958797748 C1.213960685541461 78.58898095946874, -0.08115688454301206 86.18714911182357, -0.45481368033430203 94.34544620196394 C-0.828470476125592 102.5037432921043, 2.6013502822421284 118.21165358581429, 1.4483053438549223 121.74239212881963 C0.2952604054677159 125.27313067182497, -5.2775948028942175 120.07656178262845, -7.37308331065754 115.529877459996 C-9.468571818420862 110.98319313736356, -10.002887030050454 101.29727521329278, -11.124625702725016 94.46228619302495 C-12.246364375399578 87.62729717275712, -12.151006216302637 80.0415739820152, -14.103515346704912 74.51994333838904 C-16.056024477107186 68.99831269476289, -22.533404472878225 63.72585411368933, -22.83968048513867 61.33250233126801 C-23.145956497399112 58.93915054884669, -18.295843410531592 63.58246519608037, -15.941171420267583 60.15983264386111 C-13.586499430003574 56.737200091641846, -10.209832221215724 51.05419757138368, -8.711648543554617 40.79670701795244 C-7.21346486589351 30.539216464521203, -7.3585147555345145 5.387070070675862, -6.952069354300943 -1.3851106767263264" transform="translate(135.00987372801478 372.7671029072584) rotate(0 -4.261954154546174 60.75173261101121)"/></g></g></svg>