<svg version="1.1" xmlns="http://www.w3.org/2000/svg" viewBox="0 0 396.7813989220191 298.62024646883424" width="396.7813989220191" height="298.62024646883424">
  <!-- svg-source:excalidraw -->
  
  <defs>
    <style>
      @font-face {
        font-family: "Virgil";
        src: url("https://excalidraw.com/FG_Virgil.woff2");
      }
      @font-face {
        font-family: "Cascadia";
        src: url("https://excalidraw.com/Cascadia.woff2");
      }
    </style>
  </defs>
  <g><g transform="translate(327.4686616749537 320.50869721141385) rotate(0 -79.2684971547607 -213.82527088857626)"><path d="M-98.6552667850037 -142.5428678941449 C-102.31791268970613 -145.62178540587325, -114.54829223210072 -154.913741880337, -120.21094184147601 -159.92422859443587 C-125.87359145085131 -164.93471530853475, -129.75129635986423 -168.50195534750478, -132.63116444125544 -172.60578817873815 C-135.51103252264664 -176.70962100997153, -136.24196803809787 -184.889869709508, -137.49015032982328 -184.54722558183607 C-138.7383326215487 -184.20458145416416, -140.54054550017122 -176.1625626392485, -140.1202581916079 -170.5499234127067 C-139.69997088304456 -164.9372841861649, -134.6847336358786 -154.14353499215295, -134.96842647844326 -150.87139022258535 C-135.25211932100794 -147.59924545301774, -138.33059804356037 -149.15346054240487, -141.8224152469959 -150.91705479530114 C-145.3142324504314 -152.6806490481974, -152.24364452679183 -156.99649292580344, -155.9193296990564 -161.45295573996296 C-159.59501487132096 -165.90941855412248, -162.1644015019695 -170.89513562405733, -163.8765262805833 -177.65583168025825 C-165.5886510591971 -184.41652773645916, -166.25818050521832 -195.609275631119, -166.19207837073927 -202.01713207716847 C-166.12597623626021 -208.42498852321793, -162.76197752470895 -212.52472865191856, -163.47991347370893 -216.102970356555 C-164.1978494227089 -219.68121206119145, -166.8911303588635 -219.08030131743772, -170.49969406473917 -223.4865823049871 C-174.10825777061484 -227.8928632925365, -181.01912613484762 -235.80353070270726, -185.1312957089629 -242.54065628185137 C-189.2434652830782 -249.27778186099547, -192.569894482362 -257.75810069628477, -195.1727115094309 -263.9093357798517 C-197.77552853649982 -270.0605708634186, -197.30493725670527 -273.94461649945384, -200.7481978713764 -279.4480667832529 C-204.1914584860475 -284.95151706705195, -213.47461837268492 -291.8889740891621, -215.8322751974576 -296.93003748264607 C-218.18993202223027 -301.97110087613004, -217.84023838793158 -307.81430408667086, -214.89413882001236 -309.6944471441568 C-211.94803925209314 -311.57459020164276, -203.13628562167148 -309.82758399311916, -198.15567778994222 -308.2108958275616 C-193.17506995821296 -306.59420766200407, -188.57643829546126 -302.3167740921849, -185.0104918296368 -299.9943181508115 C-181.44454536381235 -297.67186220943813, -181.81237538517368 -295.3508779996325, -176.75999899499544 -294.27616017932144 C-171.7076226048172 -293.2014423590104, -163.86024089676494 -295.52061673119124, -154.69623348856734 -293.5460112289452 C-145.53222608036975 -291.57140572669914, -133.13379423529963 -289.5201153971954, -121.77595454580982 -282.4285271658453 C-110.41811485632002 -275.3369389344952, -95.8092846973424 -262.0584702042545, -86.54919535162851 -250.99648184084447 C-77.28910600591462 -239.93449347743444, -74.36100711684475 -227.84055932847502, -66.21541847152643 -216.05659698538514 C-58.06982982620812 -204.27263464229526, -43.52807015942421 -186.73340503475185, -37.675663479718644 -180.29270778230514 C-31.823256800013077 -173.85201052985843, -35.112766303318836 -177.8193006226133, -31.10097839329304 -177.41241347070493 C-27.08919048326725 -177.00552631879657, -20.10540914958826 -178.44826730500483, -13.604936019563892 -177.85138487085501 C-7.104462889539524 -177.2545024367052, 1.4917184325997894 -176.6958602208935, 7.901860386853172 -173.8311188658061 C14.312002341106554 -170.9663775107187, 22.856509026883273 -162.90194092322858, 24.855915705956402 -160.66293674033065 C26.85532238502953 -158.42393255743272, 22.135719415515737 -160.75276463276015, 19.898300461291942 -160.39709376841856 C17.660881507068147 -160.04142290407697, 15.62595977568388 -159.95873035013548, 11.431401980613634 -158.52891155428117 C7.236844185543388 -157.09909275842685, -1.5912640071171418 -153.4954978657466, -5.269046309129532 -151.81818099329266 C-8.946828611141923 -150.14086412083873, -12.667870611140714 -150.39544546285936, -10.635291831460705 -148.46501031955754 C-8.602713051780697 -146.53457517625571, 0.30330557236476885 -142.76415316552138, 6.926426368950522 -140.23557013348164 C13.549547165536275 -137.7069871014419, 22.380379812369103 -135.64567902609562, 29.103432948053815 -133.29351212731908 C35.82648608373853 -130.94134522854253, 42.22986113322352 -128.8145133344191, 47.26474518305879 -126.12256874082236 C52.29962923289406 -123.4306241472256, 57.362556159967646 -118.52573361425334, 59.31273724706542 -117.14184456573855 M-99.7878357982137 -143.60170455470697 C-103.68909823172521 -146.02908420908162, -115.46664654425426 -153.62474384353328, -121.09538383379055 -158.8036396092293 C-126.72412112332684 -163.9825353749253, -130.91706180953906 -170.05597659977744, -133.56025953543147 -174.67507914888296 C-136.20345726132388 -179.29418169798848, -136.17183649121498 -187.3099701244379, -136.95457018914507 -186.51825490386238 C-137.73730388707517 -185.72653968328686, -138.77767458192895 -175.68046816707678, -138.2566617230121 -169.92478782542983 C-137.73564886409523 -164.16910748378288, -133.37246743387772 -154.91169820665579, -133.8284930356439 -151.9841728539807 C-134.2845186374101 -149.05664750130563, -137.68712531092888 -150.68118368776874, -140.99281533360926 -152.35963570937943 C-144.29850535628964 -154.03808773099013, -149.57759438531014 -158.12011346349985, -153.66263317172618 -162.0548849836449 C-157.74767195814223 -165.98965650378997, -163.57137664519536 -169.29227427971801, -165.50304805210556 -175.9682648302498 C-167.43471945901575 -182.6442553807816, -165.64822790161182 -195.62714694141084, -165.2526616131873 -202.11082828683573 C-164.8570953247628 -208.5945096322606, -162.1079966207575 -211.29251401141855, -163.1296503215585 -214.8703529027992 C-164.1513040223595 -218.44819179417985, -167.83821878220687 -218.86558452550804, -171.3825838179933 -223.57786163511963 C-174.92694885377972 -228.29013874473122, -180.32486289740294 -236.42279601037026, -184.395840536277 -243.14401556046877 C-188.46681817515108 -249.86523511056728, -193.16556068344872 -257.72129335309796, -195.8084496512377 -263.90517893571075 C-198.4513386190267 -270.08906451832354, -197.02767428617017 -274.9437658003849, -200.25317434301095 -280.2473290561454 C-203.47867439985174 -285.55089231190595, -212.4805236140272 -290.84087892146374, -215.1614499922824 -295.7265584702741 C-217.8423763705376 -300.61223801908443, -219.0083984214277 -307.59728097675617, -216.33873261254215 -309.56140634900754 C-213.6690668036566 -311.5255317212589, -204.7137469275002 -309.1022776534361, -199.14345513896907 -307.5113107037823 C-193.57316335043794 -305.92034375412857, -186.6541154568289 -301.9710304680919, -182.91698188135524 -300.0156046510848 C-179.1798483058816 -298.0601788340777, -181.27189679143868 -296.6986798162729, -176.72065368612724 -295.77875580173986 C-172.1694105808158 -294.85883178720684, -164.84173194656316 -297.0150815403686, -155.60952324948664 -294.4960605638866 C-146.37731455241013 -291.9770395874046, -132.90459803966928 -287.8505561242486, -121.3274015036681 -280.6646299428477 C-109.75020496766693 -273.47870376144675, -95.61362028284904 -262.53151819493235, -86.14634403347962 -251.3805034754809 C-76.6790677841102 -240.22948875602944, -72.83056512870627 -225.67534989581162, -64.52374400745154 -213.75854162613894 C-56.21692288619681 -201.84173335646625, -42.05354606463585 -185.97082550594138, -36.30541730595127 -179.8796538574447 C-30.55728854726669 -173.78848220894804, -33.54633109377818 -177.50530088588513, -30.034971455344053 -177.21151173515887 C-26.523611816909924 -176.9177225844326, -21.284117545220244 -178.41123285649851, -15.2372594753465 -178.11691895308707 C-9.190401405472755 -177.82260504967562, -0.4584177192820986 -178.0880477115337, 6.246176963898419 -175.44562831469014 C12.950771647078938 -172.80320891784658, 22.524148333396866 -165.12497620560012, 24.990308623736606 -162.26240257202576 C27.456468914076346 -159.3998289384514, 23.399604057667855 -159.15720330798305, 21.04313870593687 -158.27018651324397 C18.686673354205883 -157.3831697185049, 15.196668090190217 -157.8176808147399, 10.851516513350695 -156.9403018035912 C6.506364936511174 -156.06292279244252, -1.6891409271932294 -154.43230685854786, -5.027770755100261 -153.0059124463519 C-8.366400583007293 -151.57951803415597, -11.414762119513213 -150.70544611183286, -9.180262454091494 -148.38193533041562 C-6.945762788669775 -146.05842454899837, 1.7619789720795227 -141.56047553467778, 8.379227237430058 -139.06484775784844 C14.996475502780594 -136.5692199810191, 24.073298263527434 -135.2491231623557, 30.523227138011716 -133.40816866943956 C36.973156012496 -131.56721417652344, 42.52795972302941 -130.5074848144888, 47.07880048433576 -128.01912080035171 C51.629641245642105 -125.53075678621462, 55.72624171634772 -120.6102415914987, 57.82827170584981 -118.47798458461705" stroke="#000000" stroke-width="1" fill="none"></path></g></g><g><g transform="translate(154.87362970031626 42.729506506039115) rotate(6.664668244565448 7.044184377367145 7.338070509765544)" fill-rule="evenodd"><path d="M-1.3817735724151134 0.40788595005869865 L8.05153567005674 8.348124519841075 L10.965618889876685 15.312247376293838 L13.67636477541301 8.373584705253528 L12.949203132761852 1.8817658114129339 L8.545706310014262 2.0393662568158994 L1.0115219540894032 -0.8237541504204273" stroke="none" stroke-width="0" fill="#fff" fill-rule="evenodd"></path><path d="M0.4542059294879437 0.974422312527895 C1.8111454912100902 2.182305404064755, 6.229089904654411 3.548113760805182, 8.128288420632284 6.080147551850678 C10.027486936610156 8.612181342896175, 10.780532250018908 15.678435546010983, 11.849397025355183 16.166625058800875 C12.918261800691457 16.65481457159077, 14.446342825336183 11.154944192509191, 14.54147707264993 9.009284628590034 C14.636611319963675 6.863625064670878, 13.412185800706913 4.838036051666372, 12.420202509237663 3.292667675285939 C11.428219217768413 1.7472992989055056, 10.679633024709977 0.3653687109973129, 8.589577323834433 -0.26292562969256544 C6.4995216229588895 -0.8912199703824437, 1.2473583444771392 -0.5903411509472944, -0.12013169601559648 -0.47709836885333057 M-0.7664746868703514 0.44039008126594137 C0.5333133221150357 1.875671016700144, 5.817931890258206 4.859600841567344, 7.7784531748646755 7.142999103631155 C9.738974459471146 9.426397365694966, 9.903407720379649 13.630265329340723, 10.99665302076847 14.140779653648808 C12.08989832115729 14.651293977956893, 13.831813935223767 11.900889576126843, 14.337924977197606 10.206085049479665 C14.844036019171444 8.511280522832486, 15.31179840850452 5.918227049991496, 14.0333192726115 3.97195249376573 C12.75484013671848 2.025677937539964, 8.929313176789067 -1.0740102792263184, 6.667050161839485 -1.471562287874933 C4.404787146889902 -1.8691142965235477, 1.6441212595724537 1.292333414973312, 0.4597411829140037 1.5866404418740423" stroke="#000000" stroke-width="1" fill="none"></path></g></g><g transform="translate(10 137.32023562906966) rotate(0 53.08447813082262 73.80037203553388)"><text x="0" y="107.60074407106782" font-family="Virgil, Segoe UI Emoji" font-size="93.22152257120068px" fill="#000000" text-anchor="start" style="white-space: pre;" direction="ltr">My</text></g><g transform="translate(132.07580336704848 141.01950239776647) rotate(0 89.3372924640673 73.80037203553388)"><text x="0" y="107.60074407106782" font-family="Virgil, Segoe UI Emoji" font-size="93.22152257120057px" fill="#000000" text-anchor="start" style="white-space: pre;" direction="ltr">SQL</text></g><g transform="translate(315.66107540842233 219.44714073704074) rotate(0 9.834514866582055 25.48033397250805)"><text x="0" y="36.96066794501605" font-family="Virgil, Segoe UI Emoji" font-size="32.18568501790489px" fill="#000000" text-anchor="start" style="white-space: pre;" direction="ltr">®</text></g></svg>