<svg version="1.1" xmlns="http://www.w3.org/2000/svg" viewBox="0 0 208.8888554165186 234.403867833473" width="208.8888554165186" height="234.403867833473">
  <!-- svg-source:excalidraw -->
  
  <defs>
    <style>
      @font-face {
        font-family: "Virgil";
        src: url("https://excalidraw.com/FG_Virgil.woff2");
      }
      @font-face {
        font-family: "Cascadia";
        src: url("https://excalidraw.com/Cascadia.woff2");
      }
    </style>
  </defs>
  <g><g transform="translate(133.68920415168748 10.685630580410383) rotate(0 -29.24477644342818 106.5163033363261)" fill-rule="evenodd"><path d="M-27.050404921284546 1.6680852081626405 L-121.62362266233313 52.3673906515771 L-120.49397189071513 156.928324054921 L-26.930587528488132 212.42992055152374 L63.85094882293018 154.25563920776304 L63.164435577824435 49.31170579989741 L-28.233321443310608 1.1046504881232728" stroke="none" stroke-width="0" fill="#40c057" fill-rule="evenodd"></path><path d="M-29.19625550892078 -0.6856305804103862 C-59.752028801395625 17.53628103928481, -90.60535432363899 34.177572637260916, -123.6892041516875 52.6833180266851 M-28.444360111950566 0.057076568715249465 C-53.77614416235319 13.818394011248241, -78.77906901632043 28.430783901605523, -122.15436684707302 54.814849072457235 M-120.2927860570525 53.1811641532415 C-123.47319070480651 89.82280520380974, -121.14497385404887 127.66761130869928, -120.19650220399834 156.0875715613309 M-122.52024328330654 53.5933956441888 C-122.12775955965101 85.99475903046746, -121.99267412592944 119.0608820526714, -121.12441691378243 156.71661557349745 M-122.76259326463676 156.30598348378572 C-85.81962763176183 177.1785898352438, -48.81112711588038 200.48073028994125, -27.91188566594431 212.1875274043234 M-122.21277412394173 156.6257239738423 C-98.29929567223846 171.34076872981018, -74.80715634930634 184.5667734623833, -27.27312676909426 213.7182372530626 M-26.121638225606176 213.22171996642666 C-0.05453188467918224 197.4919338467931, 25.80444352814966 176.571379072385, 62.292081439181885 154.16815829391535 M-28.153544831304345 213.05795631014573 C-0.03084295030420492 193.52944776309067, 28.894343093956465 175.28855681655966, 63.480644397683164 153.29072810917106 M65.02314003674658 153.09772133941706 C64.7573916896714 125.47712055016324, 63.44161707009208 96.20098120194945, 64.17768385378989 51.81923492824028 M64.9807729052973 151.99391915111747 C64.66942575212602 120.74271687170507, 65.50298702355508 87.23455181610859, 63.49253460044386 50.979626662221946 M65.19965126483115 51.208133300890424 C41.82863688001326 37.30031292935814, 17.79387712891122 24.63179216547838, -29.19431752350055 0.8628636393695821 M63.538004599757215 49.86196351715664 C41.0465548223113 36.42336905835465, 16.75245339429111 23.225421840444113, -28.099943553208043 -0.6112163709476839 M-27.620471174007882 -2.4868995751603507e-14 C-27.620471174007882 -2.4868995751603507e-14, -27.620471174007882 -2.4868995751603507e-14, -27.620471174007882 -2.4868995751603507e-14 M-27.620471174007882 -2.4868995751603507e-14 C-27.620471174007882 -2.4868995751603507e-14, -27.620471174007882 -2.4868995751603507e-14, -27.620471174007882 -2.4868995751603507e-14" stroke="#000000" stroke-width="1" fill="none"></path></g></g><g><g transform="translate(75.0908006667454 93.82272244595161) rotate(0 29.119541464283543 20.519714729678412)" fill-rule="evenodd"><path d="M-1.4385426733642817 0.10661403276026249 L-1.0071327321108117 59.72464695039016 L0.03949880443616971 65.92752719535132 L-5.24593408854432 70.36161297656992 L-9.280562726650766 72.18974029214516 L-11.231066751931499 69.31891512437414 L-17.461391431434855 64.44715908055399 L-21.11659328372284 41.77911720489716 L-20.137437787527798 -8.85773262241203 L-14.751599584965772 -22.208861816127634 L-9.465558153598668 -25.35404877195527 L-7.931095299196953 -28.865786998936187 L2.781797354832352 -23.53265815626774 L17.3128339549021 -12.065049796242402 L43.42333507465199 31.54003586843186 L54.42085879435588 42.76242357359538 L55.0575336636303 41.16753877772167 L58.564032622728504 29.402319215666324 L58.23275530734092 -21.774053280260766 L62.5573947621086 -27.000238652399133 L66.92218710371093 -29.674506687154146 L72.12534285319671 -29.00892557888038 L76.7678069066148 -24.424547896932427 L77.29781701113775 -5.222556575238022 L75.70703813060736 41.89887295483217 L74.26364494315331 62.648009548758886 L69.91284486713045 68.0227337626331 L65.31267191103667 68.02015412934512 L51.635740200100926 66.71631628471688 L43.08657172767335 58.4095540985725 L24.17626632820289 32.20332960319208 L1.0909541752189398 1.4489919934421778" stroke="none" stroke-width="0" fill="#ffff" fill-rule="evenodd"></path><path d="M-0.5645431336015463 0.9383979197591541 C-0.4185434043624269 6.119923861876244, 0.5272467381694579 20.218750178560967, 0.30233526626630636 30.997212984368886 C0.07742379436315486 41.775675790176805, 0.6812759710093672 59.96957304534461, -1.9140119650204552 65.60917475460668 C-4.5092999010502774 71.24877646386877, -12.326840187698384 73.33675404297419, -15.269392349912629 64.83482323994134 C-18.211944512126873 56.332892436908494, -19.830519188524498 29.259644603128848, -19.569324938305922 14.597589936409598 C-19.308130688087346 -0.06446473030965372, -17.584508203832137 -16.548393086075958, -13.70222684860117 -23.137504760374163 C-9.8199454933702 -29.72661643467237, -3.5608573077315095 -30.304971046010998, 3.7243631930798897 -24.937080109379625 C11.009583693891289 -19.569189172748253, 21.055517016441065 -1.8542901804048206, 30.009096156267226 9.069840859414082 C38.96267529609339 19.993971899232985, 52.32401087121707 45.80462213479711, 57.44583803203684 40.60770612953379 C62.56766519285661 35.41079012427047, 57.99200430270889 -11.367164743088356, 60.740059121185844 -22.111655172165836 C63.488113939662796 -32.85614560124331, 71.09790730170424 -30.448608473131756, 73.93416694289853 -23.859236444931096 C76.77042658409282 -17.269864416730435, 77.73618337611137 3.091196685918854, 77.75761696835161 17.424576997038127 C77.77905056059186 31.7579573081574, 78.62333438525964 54.28286621034115, 74.06276849633997 62.14104542178454 C69.5022026074203 69.99922463322793, 58.76235033287269 69.4792949231537, 50.3942216348336 64.57365226569847 C42.026092936794505 59.66800960824324, 32.43454569338706 43.656752610538895, 23.853996308105394 32.707189477053156 C15.273446922823728 21.757626343567416, 3.0538549428734854 4.307180932941018, -1.0890746768563986 -1.1237265352159738 M1.3399329919181766 0.38545288229361185 C1.3611306151344613 5.73451899615314, -0.5842869403212106 21.1965557555001, -0.7475682329383591 32.26540287596428 C-0.9108495255555075 43.334249996428454, 3.2542804000330796 61.74636644898872, 0.3602452362152859 66.79853560507868 C-2.5337899276025078 71.85070476116864, -15.13245288263612 71.26635670352958, -18.11177921584512 62.578417812504064 C-21.091105549054124 53.89047892147855, -17.93049151917295 29.135271871700255, -17.51571276303873 14.670902258925592 C-17.100934006904513 0.20653264615092937, -19.240626993464012 -17.938487406235367, -15.623106679039813 -24.207799864143915 C-12.005586364615615 -30.477112322052463, -3.2337857223929456 -28.502475168249607, 4.189409123506458 -22.944972488525696 C11.61260396940586 -17.387469808801786, 20.254032436680486 -1.2464398034225805, 28.91606239635661 9.137216214199555 C37.57809235603274 19.52087223182169, 51.269558181014325 44.68881335819869, 56.16158888156321 39.35696361720711 C61.0536195821121 34.02511387621552, 55.33654912019754 -12.47427974892052, 58.26824659964994 -22.853882231749946 C61.199944079102345 -33.233484714579376, 70.74946077724437 -29.6607906754523, 73.75177375827764 -22.920651279769455 C76.7540867393109 -16.18051188408661, 76.17909516103965 3.5759669595037273, 76.2821244858496 17.58695414234713 C76.38515381065953 31.59794132519053, 78.28921060063931 53.403658803123676, 74.36994970713724 61.145271817290954 C70.45068881363517 68.88688483145823, 61.64159653824357 68.81287438057456, 52.76655912483716 64.03663222735078 C43.89152171143075 59.260390074127, 30.018534855515483 43.237597711437196, 21.119725226698773 32.48781889794829 C12.220915597882064 21.738040084459378, 2.7477204045023695 4.7968792208043025, -0.6262986480630934 -0.46204065358266244" stroke="#000000" stroke-width="1" fill="none"></path></g></g></svg>