<svg version="1.1" xmlns="http://www.w3.org/2000/svg" viewBox="0 0 208.8888554165186 234.40386783347296" width="208.8888554165186" height="234.40386783347296">
  <!-- svg-source:excalidraw -->
  
  <defs>
    <style>
      @font-face {
        font-family: "Virgil";
        src: url("https://excalidraw.com/FG_Virgil.woff2");
      }
      @font-face {
        font-family: "Cascadia";
        src: url("https://excalidraw.com/Cascadia.woff2");
      }
    </style>
  </defs>
  <g><g transform="translate(133.68920415168748 10.685630580410354) rotate(0 -29.24477644342818 106.51630333632613)"><path d="M-29.19625550892078 -0.6856305804103613 C-59.75202880139561 17.536281039284827, -90.60535432363896 34.17757263726093, -123.68920415168748 52.68331802668511 M-28.444360111950566 0.057076568715274334 C-53.77614416235319 13.818394011248262, -78.77906901632042 28.430783901605537, -122.15436684707299 54.81484907245724 M-120.29278605705247 53.181164153241504 C-123.4731907048065 89.82280520380974, -121.14497385404887 127.66761130869926, -120.19650220399835 156.08757156133086 M-122.52024328330651 53.59339564418881 C-122.127759559651 85.99475903046746, -121.99267412592944 119.06088205267139, -121.12441691378244 156.71661557349742 M-122.76259326463678 156.3059834837857 C-85.81962763176185 177.17858983524377, -48.81112711588038 200.48073028994125, -27.91188566594431 212.1875274043234 M-122.21277412394174 156.62572397384227 C-98.29929567223847 171.34076872981015, -74.80715634930635 184.5667734623833, -27.27312676909426 213.7182372530626 M-26.121638225606176 213.22171996642666 C-0.05453188467918224 197.4919338467931, 25.80444352814966 176.571379072385, 62.292081439181885 154.16815829391533 M-28.153544831304345 213.05795631014573 C-0.03084295030420492 193.52944776309067, 28.894343093956465 175.28855681655963, 63.480644397683164 153.29072810917103 M65.02314003674658 153.09772133941703 C64.75739168967141 125.47712055016322, 63.441617070092086 96.20098120194945, 64.17768385378989 51.819234928240284 M64.9807729052973 151.99391915111744 C64.66942575212602 120.74271687170506, 65.50298702355508 87.23455181610859, 63.49253460044386 50.97962666222195 M65.19965126483115 51.20813330089043 C41.82863688001326 37.30031292935816, 17.79387712891122 24.631792165478398, -29.19431752350055 0.862863639369607 M63.538004599757215 49.861963517156646 C41.0465548223113 36.423369058354666, 16.75245339429111 23.22542184044413, -28.099943553208043 -0.611216370947659" stroke="#000000" stroke-width="1" fill="none"></path></g></g><g><g transform="translate(75.2327886367433 91.49918106708898) rotate(0 28.97755349428553 22.843256108541013)"><path d="M-0.7065311035995253 3.2619392986217495 C-0.5605313743604059 8.443465240738838, 0.38525876817147875 22.542291557423567, 0.16034729626832733 33.32075436323149 C-0.06456417563482411 44.099217169039406, 0.5392880010113879 62.29311442420721, -2.055999935018434 67.93271613346928 C-4.651287871048256 73.57231784273137, -12.468828157696361 75.66029542183679, -15.411380319910606 67.15836461880394 C-18.35393248212485 58.656433815771095, -19.972507158522475 31.58318598199145, -19.7113129083039 16.921131315272195 C-19.450118658085323 2.259076648552943, -17.726496173830117 -14.224851707213361, -13.844214818599148 -20.813963381511567 C-9.96193346336818 -27.403075055809772, -3.7028452777294887 -27.9814296671484, 3.5823752230819106 -22.61353873051703 C10.86759572389331 -17.245647793885656, 20.913529046443088 0.4692511984577745, 29.86710818626925 11.393382238276677 C38.82068732609541 22.317513278095582, 52.18202290121909 48.1281635136597, 57.30385006203886 42.93124750839638 C62.42567722285863 37.73433150313306, 57.85001633271092 -9.043623364225759, 60.59807115118787 -19.78811379330324 C63.34612596966481 -30.53260422238072, 70.95591933170626 -28.12506709426916, 73.79217897290054 -21.5356950660685 C76.62843861409483 -14.946323037867838, 77.59419540611339 5.414738064781451, 77.61562899835363 19.748118375900724 C77.63706259059387 34.081498687019995, 78.48134641526165 56.60640758920375, 73.92078052634199 64.46458680064714 C69.36021463742232 72.32276601209053, 58.620362362874715 71.8028363020163, 50.25223366483562 66.89719364456107 C41.88410496679653 61.99155098710584, 32.29255772338908 45.98029398940149, 23.712008338107417 35.03073085591575 C15.131458952825751 24.08116772243001, 2.911866972875506 6.630722311803614, -1.2310626468543775 1.1998148436466218 M1.1979450219201977 2.7089942611562075 C1.2191426451364824 8.058060375015735, -0.7262749103191897 23.5200971343627, -0.8895562029363381 34.58894425482688 C-1.0528374955534865 45.657791375291055, 3.1122924300351005 64.06990782785132, 0.2182572662173069 69.12207698394128 C-2.675777897600487 74.17424614003124, -15.274440852634097 73.58989808239217, -18.2537671858431 64.90195919136666 C-21.2330935190521 56.21402030034114, -18.072479489170927 31.458813250562848, -17.65770073303671 16.994443637788187 C-17.24292197690249 2.5300740250135245, -19.38261496346199 -15.61494602737277, -15.765094649037792 -21.88425848528132 C-12.147574334613594 -28.153570943189866, -3.3757736923909265 -26.17893378938701, 4.047421153508479 -20.6214311096631 C11.470615999407883 -15.063928429939189, 20.11204446668251 1.0771015754400164, 28.774074426358634 11.46075759306215 C37.436104386034756 21.844413610684285, 51.12757021101635 47.01235473706129, 56.019600911565234 41.6805049960697 C60.91163161211412 36.348655255078114, 55.19456115019956 -10.150738370057923, 58.126258629651964 -20.53034085288735 C61.05795610910437 -30.909943335716775, 70.60747280724638 -27.337249296589704, 73.60978578827965 -20.597109900906858 C76.61209876931292 -13.856970505224012, 76.03710719104167 5.899508338366324, 76.14013651585161 19.910495521209725 C76.24316584066155 33.921482704053126, 78.14722263064132 55.72720018198627, 74.22796173713925 63.46881319615355 C70.30870084363718 71.21042621032082, 61.49960856824559 71.13641575943716, 52.62457115483918 66.36017360621338 C43.74953374143277 61.5839314529896, 29.876546885517506 45.56113909029979, 20.977737256700795 34.81136027681088 C12.078927627884086 24.06158146332197, 2.6057324345043913 7.120420599666898, -0.7682866180610725 1.8615007252799332" stroke="#000000" stroke-width="1" fill="none"></path></g></g></svg>