<svg version="1.1" xmlns="http://www.w3.org/2000/svg" viewBox="0 0 643.6666666666663 354.66666666666697" width="643.6666666666663" height="354.66666666666697">
  <!-- svg-source:excalidraw -->
  
  <defs>
    <style>
      @font-face {
        font-family: "Virgil";
        src: url("https://excalidraw.com/FG_Virgil.woff2");
      }
      @font-face {
        font-family: "Cascadia";
        src: url("https://excalidraw.com/Cascadia.woff2");
      }
    </style>
  </defs>
  <g transform="translate(10 10) rotate(0 311.83333333333314 167.33333333333337)"><path d="M241.3876870554183 3.650520566721525 C264.09225314627827 -1.7732461013871257, 293.4396964831914 -0.4369218972062375, 319.1029219965657 -0.00013581348355273803 C344.76614750994 0.436650270239132, 370.62182596611274 2.4852996563244574, 395.3670401356642 6.271237069057634 C420.11225430521563 10.05717448179081, 445.3817576407336 15.764000787162068, 467.57420701387423 22.715488662915504 C489.76665638701485 29.66697653866894, 510.1183899474061 38.62305974875064, 528.5217363745079 47.98016432357825 C546.9250828016096 57.33726889840586, 564.3626401995978 67.17645071367483, 577.9942855764848 78.85811611188115 C591.6259309533718 90.53978151008747, 602.673096696137 104.86719478561712, 610.3116086358303 118.07015671281613 C617.9501205755237 131.27311864001513, 622.4850315802644 144.60339788276988, 623.8253572146448 158.07588767507522 C625.1656828490252 171.54837746738056, 623.5669096269191 185.25093669875, 618.3535624421127 198.90509546664816 C613.1402152573062 212.55925423454633, 603.7421776079757 227.47424929902937, 592.5452741058061 240.0008402824642 C581.3483706036366 252.52743126589903, 567.5383161687854 263.5824425292924, 551.172141429095 274.0646413672572 C534.8059666894045 284.546840205222, 515.0962890395563 294.70426715426925, 494.3482256676634 302.89403331025295 C473.60016229577064 311.08379946623666, 450.34468953875944 318.2824537368441, 426.68376119773825 323.20323830315954 C403.02283285671706 328.12402286947497, 377.78045091799487 330.5454307202641, 352.38265562153634 332.4187407081455 C326.9848603250778 334.2920506960269, 299.86836072092893 335.9491745054189, 274.296989418987 334.443098230448 C248.725618117045 332.9370219554771, 222.7412380160874 328.58378348140684, 198.95442780988452 323.38228305831996 C175.16761760368163 318.1807826352331, 152.21798070958798 311.2082103518045, 131.57612818176966 303.23409569192665 C110.93427565395135 295.2599810320488, 91.82431053624867 285.91229550971343, 75.10331264297466 275.53759509905285 C58.38231474970064 265.16289468839227, 42.500876943042904 253.40767216430683, 31.25014082212556 240.985893227963 C19.999404701208213 228.56411429161918, 12.682104846337825 214.28477832849856, 7.5988959174706 201.00692148098983 C2.515686988603373 187.7290646334811, -0.23980278883249184 174.90863453475552, 0.7508872489221972 161.31875214291057 C1.7415772866768862 147.72886975106562, 6.278840544851438 132.96110032306575, 13.543036143998734 119.46762712992015 C20.80723174314603 105.97415393677456, 31.197273516320074 92.30523433868936, 44.33606084380597 80.357912984037 C57.47484817129186 68.41059162938464, 74.22770579903487 57.18140882529443, 92.37576010891408 47.783699002005946 C110.5238144187933 38.38598917871746, 131.2445502202809 30.74492668309444, 153.22438670308125 23.971654044306064 C175.2042231858816 17.198381405517686, 206.1418437924321 10.95545213275904, 224.2547790057162 7.144063169275682 C242.36771421900028 3.332674205792325, 251.84070533120104 1.7771020944626628, 261.90199798278576 1.1033202634059194 C271.9632906343705 0.429538432349176, 283.5277243681029 0.05576362555871617, 284.6225349152246 3.101372182935222 M448.92272007849965 18.800994611012555 C473.333170192873 21.991650428043602, 496.53325156477547 31.72915143362294, 516.0692898384775 40.30668332798223 C535.6053281121796 48.88421522234152, 551.5845817496574 59.178241650509094, 566.1389497207119 70.2661859771683 C580.6933176917664 81.35413030382752, 594.3311491730836 93.96921969149808, 603.3954976648042 106.83434928793748 C612.4598461565248 119.69947888437689, 617.3733680406391 133.4328388409926, 620.5250406710354 147.45696355580475 C623.6767133014317 161.4810882706169, 625.5250483373663 177.09402223314984, 622.3055334471821 190.97909757681037 C619.0860185569979 204.8641729204709, 610.9380760959299 218.29109773286226, 601.2079513299304 230.76741561776788 C591.477826563931 243.2437335026735, 579.1551057568549 254.80274686079738, 563.9247848511854 265.83700488624413 C548.694463945516 276.8712629116909, 529.5889421223275 287.972910541701, 509.82602589591323 296.9729637704484 C490.06310966949906 305.9730169991958, 468.43181096434944 313.824020471995, 445.34728749270033 319.8373242587285 C422.2627640210512 325.8506280454619, 396.5020415991739 330.6496449424236, 371.31888506601865 333.05278649084926 C346.1357285328634 335.4559280392749, 320.03954497643446 335.07890760429865, 294.24834829376886 334.25617354928227 C268.45715161110326 333.4334394942659, 240.96462896580087 332.10677862549585, 216.57170497002517 328.1163821607511 C192.17878097424946 324.1259856960063, 169.61695377234176 317.5864425678909, 147.89080431911464 310.31379476081366 C126.1646548658875 303.0411469537364, 103.9926553072623 294.68228630854236, 86.21480825066237 284.4804953182874 C68.43696119406245 274.27870432803246, 53.49777733553501 261.2844791609315, 41.22372197951512 249.10304881928397 C28.949666623495226 236.92161847763649, 19.235147346986178 224.3884862269746, 12.570476114542998 211.39191326840248 C5.90580488209982 198.39534030983035, 1.8397683918891992 184.9450188204761, 1.2356945848560486 171.12361106785113 C0.631620777822898 157.30220331522617, 3.3748068073632567 141.6877491527634, 8.946033272344096 128.46346675265266 C14.517259737324935 115.23918435254194, 22.796518393595306 103.94748790283646, 34.66305337474108 91.77791666718683 C46.52958835588686 79.6083454315372, 62.99220368836802 65.96235822181094, 80.14524315921875 55.4460393387549 C97.29828263006948 44.929720455698856, 116.39077877928266 36.1937466489951, 137.58129019984545 28.68000336885055 C158.77180162040824 21.166260088705997, 183.14106939111412 15.157455114883529, 207.28831168259552 10.363579657887584 C231.43555397407692 5.56970420089164, 257.3487590234164 1.2785406502883963, 282.4647439487339 -0.08324937312511338 C307.5807288740514 -1.445039396538623, 332.8593043129457 -0.2231315636819411, 357.9842212345003 2.192839517406526 C383.1091381560549 4.608810598494992, 417.97690547658226 11.88495631737167, 433.2142454780613 14.412577113405689 C448.4515854795403 16.940197909439707, 446.9192705447973 16.188990264558058, 449.40826124337457 17.35856429361064 C451.8972519419518 18.528138322663224, 450.1154801737986 18.68795450079106, 448.148189669525 21.43002128772119" stroke="none" stroke-width="0" fill="#777bb3"></path><path d="M300.34932558732976 0.7040020868587078 C324.64710609489293 -2.4950425017528866, 352.6465786364377 0.5228742800899653, 377.4598831402977 3.13137022893892 C402.27318764415764 5.739866177787874, 426.244135698382 10.003037382678443, 449.2291526104897 16.354977779952435 C472.21416952259733 22.706918177226427, 495.93647637847033 32.2225283080592, 515.3699846129434 41.24301261258287 C534.8034928474165 50.26349691710654, 551.333384691304 59.296574134128534, 565.8302020173282 70.47788360709447 C580.3270193433525 81.6591930800604, 592.993076118455 95.33275308569728, 602.3508885690887 108.33086945037847 C611.7087010197225 121.32898581505967, 618.9507896387993 134.89338856135797, 621.9770767211312 148.46658179518167 C625.0033638034631 162.03977502900537, 623.857681596704 176.14984722389045, 620.5086110630799 189.77002885332064 C617.1595405294559 203.39021048275083, 611.3868365945634 217.38717612711866, 601.8826535193865 230.18767157176273 C592.3784704442096 242.9881670164068, 578.5672946134912 255.51646499291672, 563.4835126120184 266.573001521185 C548.3997306105457 277.6295380494533, 531.0447666358892 287.9185099553432, 511.3799615105502 296.5268907413724 C491.7151563852112 305.13527152740164, 468.9388993369262 312.2758137414427, 445.4946818599843 318.2232862373604 C422.0504643830424 324.17075873327815, 395.97127404869326 329.38400996412923, 370.71465664889865 332.21172571687896 C345.45803924910405 335.0394414696287, 319.5421861174085 335.9350682597441, 293.95497746121674 335.1895807538588 C268.367768805025 334.4440932479735, 241.43740984111105 331.9330441398389, 217.19140471174813 327.738800681567 C192.94539958238522 323.5445572232951, 170.1817498846506 317.4052419633107, 148.4789466850393 310.0241200042273 C126.77614348542798 302.64299804514394, 105.05740621742389 293.40733156989603, 86.97458551408025 283.4520689270667 C68.8917648107366 273.4968062842374, 52.47196058216411 262.32338793249966, 39.98202246497743 250.29254414725125 C27.492084347790758 238.2617003620028, 18.69312123072591 224.46419221532537, 12.034956810960182 211.26700621557615 C5.376792391194452 198.06982021582692, 0.6319677828631143 184.63596241955017, 0.03303594638305185 171.1094281487559 C-0.5658958900970106 157.58289387796165, 2.686780059630242 143.68683894326833, 8.441365792079807 130.10780059081065 C14.195951524529374 116.52876223835297, 22.989131444044915 102.03982239057503, 34.56055034108044 89.63519803400982 C46.13196923811597 77.23057367744461, 60.72300919197012 65.88836321472962, 77.86987917429298 55.68005445141941 C95.01674915661583 45.471745688109195, 116.18322003956492 36.06438373613981, 137.44177023501757 28.385345454148535 C158.70032043047024 20.706307172157256, 181.23486056098605 14.254824131512322, 205.42118034700894 9.605824759471744 C229.60750013303183 4.9568253874311665, 264.0442266983583 2.2278699911185527, 282.55968895115495 0.49134922190506813 C301.07515120395163 -1.2451715473084164, 308.33890304484856 -1.4766351262883717, 316.51395386378897 -0.8132998558091629 C324.6890046827294 -0.14996458532995405, 331.7605264246589 1.5222202713947013, 331.6099938647974 4.471360844780321 M285.6751682803223 -0.420919227310776 C309.3927037318503 -4.287350239873447, 335.29191393130407 -0.38099780563228114, 360.3226496340769 2.1794926127297742 C385.3533853368498 4.73998303109183, 411.96724671984447 9.235629575853661, 435.85958249695955 14.942023282861555 C459.7519182740746 20.64841698986945, 483.4612940491767 28.046684667105573, 503.6766642967675 36.41785485477715 C523.8920345443584 44.78902504244872, 541.5254281847913 54.76905879085535, 557.1518039825045 65.16904440889101 C572.7781797802177 75.56903002692667, 587.2622283240958 86.4915070467035, 597.4349190830467 98.81776856299113 C607.6076098419976 111.14403007927876, 613.8825674763696 125.24573641769072, 618.1879485362097 139.1266135066168 C622.4933295960498 153.00749059554286, 625.4087384998218 168.10420150084667, 623.2672054420871 182.10303109654757 C621.1256723843524 196.10186069224847, 613.8130185129511 210.29664871986097, 605.3387501898017 223.11959108082226 C596.8644818666522 235.94253344178355, 586.0850528589659 247.8362935295847, 572.4215955031907 259.0406852623154 C558.7581381474155 270.245076995046, 542.2258299920045 281.14592098890466, 523.3580060551502 290.3459414772062 C504.49018211829593 299.5459619655078, 482.17054629897837 307.67420480493394, 459.214651882065 314.24080819212486 C436.2587574651517 320.8074115793158, 410.6470457198746 326.49314324592495, 385.62263955367035 329.74556180035165 C360.5982333874661 332.99798035477835, 334.480492576677 333.86867497348686, 309.06821488483945 333.75531951868504 C283.6559371930019 333.6419640638832, 257.85825219060195 332.2981920243873, 233.1489734026448 329.0654290715406 C208.43969461468765 325.83266611869396, 183.07140812798508 321.0107088537243, 160.81254215709657 314.3587418016053 C138.55367618620807 307.70677474948627, 118.25078589569712 298.4277496099866, 99.59577757731378 289.15362675882653 C80.94076925893044 279.87950390766645, 62.61569173218221 270.08543859057465, 48.88249224679657 258.71400469464476 C35.14929276141093 247.34257079871486, 25.252790912410866 234.02067169428963, 17.196580664999942 220.92502338324707 C9.140370417589017 207.8293750722045, 2.4406910729629674 194.12646206039946, 0.5452307623310162 180.1401148283893 C-1.3502295483009352 166.15376759637914, 1.0329771190643653 150.48345432479556, 5.823818801208233 137.00693999118616 C10.6146604833521 123.53042565757674, 18.908839162463714 111.67607176980658, 29.290280855194226 99.28102882673281 C39.67172254792474 86.88598588365903, 52.49626600978544 73.60270843986034, 68.11246895759129 62.63668233274355 C83.72867190539714 51.67065622562675, 102.36830110209993 41.789745583291435, 122.98749854202933 33.48487218403204 C143.60669598195872 25.17999878477265, 167.90835154025265 18.21893590797111, 191.82765359716763 12.807441937187207 C215.7469556540826 7.395947966403303, 250.9260304624364 3.214307561186606, 266.50331088351913 1.0159083593286198 C282.08059130460185 -1.1824908425293663, 282.01949127847627 -1.0511671504174651, 285.29133612366405 -0.3829532739607089 C288.56318096885184 0.28526060249604746, 285.94413559041163 1.8733360245029567, 286.13437995464585 5.025191618069158" stroke="#000000" stroke-width="2" fill="none"></path></g><g><g transform="translate(110.12121212121167 281.6455768805022) rotate(0 82.1738101515208 -91.63386364464452)" fill-rule="evenodd"><path d="M-1.0888151712715626 1.8028675504028797 L27.418389423992316 -183.2368327749081 L44.55762416262837 -184.4034601523195 L52.02956979930369 -184.90526678851165 L112.37032959446469 -185.47318766322218 L125.00279067962822 -180.8728053973827 L147.19415231309375 -171.08711813453942 L153.36528228515604 -158.4172713528573 L161.31937474890796 -148.32732084469714 L165.4754526182191 -136.79792000883282 L166.4737457091171 -116.70274862780249 L164.62907307212467 -102.92568218621138 L158.7992225077645 -86.70606491866465 L156.16661224539143 -78.17932984314416 L148.22734822776593 -67.03835844660924 L129.1073606514935 -56.47637870513327 L120.69635527011863 -51.393494757000305 L93.39864045530508 -45.24929911725129 L51.0554496196453 -44.116838351570465 L44.74924854246565 -10.677730979551642 L39.24475660995938 -3.0280251840583787 L37.036457869015386 1.153137210417659 L24.75327989566614 -0.39640459219799595 L-0.0694933719933033 1.4854405112564564" stroke="none" stroke-width="0" fill="#000" fill-rule="evenodd"></path><path d="M-0.5712323181331157 -0.35522860363125797 C3.879993312509958 -27.18430046496853, 19.918759245258627 -129.36213840519173, 25.854840209049605 -159.8572007653454 C31.790921172840584 -190.35226312549906, 26.69233745847248 -179.10275195482228, 35.045253464612756 -183.3256027645533 C43.39816947075303 -187.54845357428434, 60.92668603780199 -185.6044821940303, 75.97233624589127 -185.1943056237315 C91.01798645398055 -184.7841290534327, 110.95677041321028 -186.91231993435525, 125.31915471314844 -180.86454334276053 C139.6815390130866 -174.8167667511658, 156.4639228664272 -164.41280082517974, 162.14664204552022 -148.9076460741631 C167.82936122461325 -133.40249132314645, 165.07062486138273 -103.37362648578208, 159.41546978770654 -87.83361483666059 C153.76031471403036 -72.29360318753909, 139.46808502882598 -62.7754638340538, 128.21571160346312 -55.667576179434135 C116.96333817810026 -48.55968852481447, 103.93481778779334 -47.052371179915994, 91.90122923552941 -45.18628890894259 C79.86764068326549 -43.32020663796919, 62.805169157586306 -45.406916865851265, 56.014180289879604 -44.47108255359372 C49.2231914221729 -43.53524824133617, 53.88524595213433 -46.5408091779159, 51.155296029289204 -39.571283035397315 C48.425346106444074 -32.60175689287873, 44.3915020784793 -9.226791686203299, 39.63448075280883 -2.653925698482226 C34.877459427138355 3.918940289238847, 29.24262575788802 -0.4280133687364393, 22.61316807526638 -0.13408710907087884 C15.983710392644738 0.15983915059468162, 3.5866809259409544 -0.8533986196338902, -0.14226534292101856 -0.890368140488863 M1.3297319855075331 -1.5873275658767672 C5.764037750244368 -28.24524658725537, 19.83101504744111 -131.53231125466618, 25.305833656083294 -161.59251900217137 C30.78065226472548 -191.65272674967656, 25.678720476099997 -178.18810805669096, 34.17864363736065 -181.9485740509079 C42.678566798621304 -185.70904004512482, 60.792292735031666 -184.48360022070224, 76.3053726236472 -184.15531496747298 C91.81845251226274 -183.8270297142437, 113.25050493242186 -185.7033430723997, 127.25712296905388 -179.97886253153231 C141.2637410056859 -174.25438199066494, 154.9160263250981 -164.94674732220102, 160.3450808434393 -149.80843172226878 C165.77413536178048 -134.67011612233654, 165.39926714896302 -104.80176269729469, 159.83145007910107 -89.1489689319389 C154.26363300923913 -73.4961751665831, 138.5250191036134 -63.02073977035746, 126.93817842426753 -55.891669130133984 C115.35133774492165 -48.76259848991051, 101.96009647380826 -48.15491855297055, 90.3104060030258 -46.37454509059805 C78.66071553224334 -44.594171628225546, 63.450924441446794 -46.5236096361517, 57.04003559957275 -45.209428355898986 C50.6291467576987 -43.895247075646274, 54.46853077993107 -46.038886601367366, 51.84507295178151 -38.489457409081766 C49.22161512363195 -30.940028216796165, 46.14619465265065 -6.201543860996111, 41.29928863067538 0.08714679781461188 C36.452382608700105 6.375837456625334, 29.800396334094987 -0.4845292822210574, 22.7636368199299 -0.7573134562174346 C15.726877305764813 -1.0300976302138118, 2.7570211099422055 -1.4923766951959352, -0.9212684543151409 -1.5495582461636515" stroke="#fff" stroke-width="4" fill="none"></path></g></g><g><g transform="translate(165.6749557565903 191.80470929799935) rotate(0 34.18128116589726 -25.49377868719546)" fill-rule="evenodd"><path d="M1.172967355698347 5.163425768589075 L4.840516421481398 -39.55572217199587 L11.4377190600533 -54.036591766030405 L13.573263602848362 -57.75562635998307 L46.012999966751615 -56.54223382507403 L51.798119546804486 -52.023696776251725 L56.624949229836815 -51.154946882682765 L64.52202836991572 -43.403903752285906 L67.09808375283075 -31.11086740466564 L65.06010772522666 -19.042544570530552 L59.337225350338734 -5.076496443125093 L48.3384130554227 -0.9183105319505862 L30.60741060941617 6.472905005191858 L0.022639792412519455 5.701618398403223" stroke="none" stroke-width="0" fill="#777bb3" fill-rule="evenodd"></path><path d="M0.7600741155445576 5.593830305015143 C2.392947637454391 -3.3840447155445954, 5.8236962853616845 -39.080047764371514, 9.226008813325883 -49.366279873313076 C12.628321341290082 -59.65251198225464, 13.976816784544006 -55.53730579383542, 21.17394928332975 -56.12356234863423 C28.371081782115496 -56.70981890343304, 44.445980099841975 -56.933227380555294, 52.408803806040346 -52.88381920210593 C60.37162751223872 -48.83441102365657, 67.73579011441514 -39.648913686541185, 68.95089152051997 -31.82711327793806 C70.16599292662481 -24.005312869334933, 65.83755302153347 -12.1039932316767, 59.69941224266938 -5.953016750487173 C53.561271463805305 0.19795973070235462, 42.046209583431576 3.2152494529722455, 32.122046847335504 5.078745609199102 C22.197884111239432 6.942241765425959, 5.426224505726166 5.355844598685797, 0.15443582609295836 5.227960186873968 M-0.3000257031340152 4.935482871628772 C1.2079907694894525 -3.797018251080453, 4.7113161497342215 -37.80157463766019, 8.177051819833563 -47.76931274110048 C11.642787489932905 -57.73705084454077, 13.12311626685792 -53.67499501879198, 20.494388317462036 -54.87094574901298 C27.865660368066152 -56.06689647923398, 44.49940222187156 -58.87397489033098, 52.40468412345825 -54.945017122426485 C60.30996602504494 -51.01605935452199, 66.51274573240735 -39.2942775846974, 67.92607972698217 -31.29719914158604 C69.33941372155698 -23.300120698474686, 66.78682512308289 -12.820379339059995, 60.884688090907176 -6.9625464637583585 C54.98255105873146 -1.1047135884567219, 42.792420084355484 1.8423395513551513, 32.513257533927884 3.849798110223781 C22.234094983500285 5.857256669092411, 4.782363546939484 4.673503006793033, -0.7902872116584332 5.082204889453422" stroke="#fff" stroke-width="4" fill="none"></path></g></g><g><g transform="translate(268.12121212121167 231.81379548572454) rotate(0 71.0394357280869 -95.26413849050505)" fill-rule="evenodd"><path d="M0.03796486184000969 0.6018458791077137 L23.11909707511463 -186.17589158932765 L29.35310328130927 -193.1034572544845 L39.35322404031979 -191.19396251850958 L56.413689495374754 -191.62535171987935 L61.51753187303734 -186.86283235190626 L62.583004754036594 -181.7790931168375 L59.83402578160174 -149.79851491634832 L60.077194890628334 -143.01737207762176 L62.512992224345666 -140.26138314511425 L88.80185886348282 -139.36106461745032 L103.89036870126915 -135.2333234458349 L125.9868143809336 -124.13366006678044 L130.01172812903894 -115.20937558947503 L139.34527758881427 -102.29334507411258 L142.53559915348876 -80.53786149363157 L142.03838129962477 -66.97453089535225 L134.76894792045164 -1.9872283860894062 L130.7897583258649 -0.6302088134641508 L113.6229072424274 1.2378288506035604 L97.71887481336807 -1.6272776400792281 L94.55027659858273 -4.012950980903678 L101.81498857463389 -60.84545921464682 L100.32156380141775 -78.97608191729725 L97.36944075549647 -83.60505238959786 L88.3322766634326 -93.20504813269281 L82.15794750178861 -93.13165838482934 L65.68104799712705 -98.10564192734854 L57.185391626010414 -95.71550836499068 L56.02901061500117 -93.03282870644783 L52.37853094066185 -89.5483135693515 L45.59458899622162 -16.767496533232872 L38.33078992490971 -3.126949805258013 L37.247249286621866 3.6057155839398196 L31.651218057920623 4.4670838184171915 L1.090832632035017 -0.41801903769373894" stroke="none" stroke-width="0" fill="#000" fill-rule="evenodd"></path><path d="M-0.4606975547969341 0.06833239719271655 C3.116708621134361 -26.717099590697693, 16.3674466299514 -127.71777663325085, 20.873144889622928 -159.77673521622305 C25.378843149294458 -191.83569379919524, 23.691896950619043 -187.20721869384516, 26.57349200323224 -192.2854191006405 C29.455087055845436 -197.36361950743583, 32.1309693449904 -191.1960326612084, 38.162715205302106 -190.245937656995 C44.194461065613815 -189.29584265278163, 59.08950051011306 -194.32803126929826, 62.763967165102486 -186.58484907536027 C66.43843382009192 -178.84166688142227, 57.478663948592285 -151.36575199890143, 60.20951513523865 -143.78684449336703 C62.94036632188501 -136.20793698783262, 71.9465255241427 -142.3544776491416, 79.14907428498066 -141.11140404215388 C86.35162304581861 -139.86833043516617, 95.01971012825764 -140.44968827074328, 103.42480770026637 -136.3284028514407 C111.8299052722751 -132.20711743213812, 123.08951279131878 -125.3953264900088, 129.57965971703305 -116.38369152633845 C136.06980664274732 -107.3720565626681, 141.1313431270419 -99.30080122595213, 142.36568925455202 -82.25859306941864 C143.60003538206215 -65.21638491288515, 139.0463919991421 -27.859686301431843, 136.9857364820938 -14.130442587137532 C134.92508096504554 -0.40119887284322076, 136.79218707688983 -2.3224307572541267, 130.00175615226232 0.11686921634723157 C123.21132522763482 2.55616918994859, 101.9131483906675 3.958655706685682, 96.24315093432878 0.5053572544706184 C90.57315347799006 -2.947941197744445, 95.22669944307846 -8.533256528662669, 95.98177141423 -20.602921496943146 C96.73684338538153 -32.672586465223624, 102.0204894311725 -59.84059966298184, 100.77358276123798 -71.91263255521224 C99.52667609130344 -83.98466544744265, 95.6940599131088 -88.72770513910726, 88.5003313946228 -93.03511885032557 C81.30660287613681 -97.34253256154389, 63.756067030380265 -100.09825019039735, 57.611211650321955 -97.75711482252214 C51.466356270263645 -95.41597945464693, 53.57705928559103 -88.72751149503513, 51.63119911427295 -78.9883066430743 C49.68533894295488 -69.24910179111346, 47.80892198690105 -52.06713996505975, 45.93605062241352 -39.321885710757165 C44.06317925792599 -26.576631456454578, 44.82654391469229 -9.287626360272085, 40.39397092734778 -2.5167811172587644 C35.96139794000327 4.254064125754556, 26.258372877124405 1.0568730156546866, 19.34061269834649 1.3031857473227577 C12.422852519568576 1.5494984789908288, 2.2725268212457688 -0.6932076681807107, -1.1125901453197002 -1.0389047272503376 M1.49829749959521 -0.9413970396202058 C5.045820629078275 -28.111364130056824, 16.281737241723263 -129.52565579347436, 20.38350049304776 -161.2814022961467 C24.485263744372254 -193.03714879881903, 23.2069538006631 -186.3180102171807, 26.108877007542176 -191.4758760556543 C29.010800214421252 -196.63374189412792, 31.893346416995 -193.17238992709616, 37.79503973432222 -192.22859732698845 C43.696733051649446 -191.28480472688074, 57.58791884098922 -193.78678154633877, 61.51903691150551 -185.81312045500803 C65.4501549820218 -177.8394593636773, 58.29404092534866 -152.14370699173028, 61.38174815741996 -144.38663077900395 C64.46945538949126 -136.62955456627762, 73.20106668076063 -140.51830654530465, 80.04528030393331 -139.27066317865 C86.88949392710599 -138.02301981199537, 93.95506344256609 -140.5098532875714, 102.44702989645606 -136.90077057907612 C110.93899635034603 -133.29168787058086, 124.18398548186939 -126.66408092149307, 130.99707902727312 -117.6161669276785 C137.81017257267686 -108.56825293386395, 142.24618094998394 -99.5042499896188, 143.32559116887847 -82.61328661618877 C144.405001387773 -65.72232324275875, 139.87112104509754 -29.973908985217328, 137.47354034064034 -16.27038668709838 C135.07595963618314 -2.5668643889794343, 135.8690180678283 -3.103667166379976, 128.94010694213526 -0.39215282747510183 C122.01119581644221 2.319361511429773, 101.57044347678124 3.449757502837752, 95.90007358648208 -0.0013006536691317905 C90.22970369618292 -3.4523588101760154, 94.04150149965739 -9.103183407649551, 94.91788760034031 -21.098501766516403 C95.79427370102323 -33.09382012538325, 102.07011385547919 -60.090013955434685, 101.15839019057958 -71.97321080687024 C100.24666652567997 -83.8564076583058, 96.39674892125346 -88.16659298813829, 89.44754561094264 -92.39768287512975 C82.49834230063182 -96.6287727621212, 65.4607064541958 -99.59862319077887, 59.463170328714654 -97.359750128819 C53.465634203233506 -95.12087706685914, 55.401957869507974 -88.71796724007463, 53.462328858055756 -78.96444450337059 C51.52269984660354 -69.21092176666654, 50.4396531848226 -51.791485093474904, 47.82539626000135 -38.83861370859475 C45.21113933518009 -25.885742323714595, 42.15285018686931 -8.307562103065688, 37.77678730912821 -1.247216194089673 C33.40072443138711 5.813129714886342, 28.100132487030404 3.1950027883196657, 21.56901899355475 3.523461745261346 C15.037905500079095 3.8519207022030266, 2.4347831324519156 1.0411905637447323, -1.4098936517257243 0.7235375475604089" stroke="#fff" stroke-width="4" fill="none"></path></g></g><g><g transform="translate(398.7878787878783 281.6455768805022) rotate(0 81.59585772913394 -92.15052114547143)" fill-rule="evenodd"><path d="M-1.7645731754601002 -1.7117526344954967 L29.187444194461982 -181.19400743368342 L41.77967041869374 -187.00863362090928 L53.70106750190226 -184.0396646528534 L115.85101995453397 -185.06881675925337 L124.3906961581057 -183.28745381104085 L145.70057662091693 -167.47935520176202 L155.68981038326243 -159.12144765958186 L162.02487284823505 -149.22856822686114 L165.36306817970438 -133.70715155237377 L164.9579074436981 -119.7316586686579 L164.11249094073887 -102.86174631031874 L161.0478877213494 -89.38753996196147 L154.68479726488454 -78.87025389156793 L144.63260676410474 -68.80355083609746 L129.50552766561552 -56.556440021623445 L120.05654697296134 -51.57980683642993 L91.928254307806 -46.25902504555787 L50.57516433274192 -43.9679224646915 L45.06802407709547 -11.063898863424628 L42.534834177059906 -3.6937836746208177 L36.208359929524114 0.03750002722826684 L23.83081016052057 -0.9329898039518412 L-1.574249941855669 1.381056685000658" stroke="none" stroke-width="0" fill="#000" fill-rule="evenodd"></path><path d="M-1.1098849050700663 -0.054252637177705676 C3.104949276598398 -26.934957951884122, 18.728063506466206 -131.0361456540702, 24.665716888470076 -161.62900845978052 C30.603370270473945 -192.22187126549085, 25.888426845412482 -179.87195497396445, 34.51603538695315 -183.6114294714396 C43.143643928493816 -187.35090396891476, 61.12774902703692 -184.49292883499862, 76.43136813771409 -184.06585544463147 C91.73498724839126 -183.6387820542643, 112.34896423130262 -186.72452679871228, 126.33775005101617 -181.04898912923667 C140.3265358707297 -175.37345145976107, 154.62637348993948 -165.55875326448793, 160.3640830559954 -150.0126294277779 C166.1017926220513 -134.4665055910679, 166.0004270168774 -103.29377860160392, 160.76400744735162 -87.77224610897656 C155.52758787782582 -72.2507136163492, 140.6053021928656 -63.76573847795181, 128.94556563884063 -56.88343447201378 C117.28582908481567 -50.00113046607576, 103.18748218694036 -48.489159953452685, 90.80558812320183 -46.47842207334842 C78.4236940594633 -44.46768419324415, 61.57428176840326 -45.97208012058911, 54.65420125640945 -44.81900719138821 C47.73412074441564 -43.66593426218731, 51.68977650118371 -46.84667601541742, 49.28510505123897 -39.55998449814298 C46.880433601294236 -32.27329298086854, 44.6933890423236 -7.641159958030996, 40.22617255674102 -1.0988580877415643 C35.75895607115844 5.443443782547868, 29.271776363089742 -0.49914967645280905, 22.48180613774349 -0.30617327640638914 C15.691835912397238 -0.11319687635996925, 3.3659711490625965 0.06496168519856839, -0.5136487953364849 0.059000312536954924 M0.508286790428683 -1.1283392170350999 C4.582095595479238 -27.864999254801646, 17.405204045782668 -130.42517230920586, 23.49242059219951 -160.63452573618494 C29.579637138616356 -190.84387916316402, 28.1127567911835 -178.14114266088276, 37.03158606892975 -182.3844597789095 C45.950415346675996 -186.62777689693624, 62.318913793614925 -186.44848134817892, 77.005396258677 -186.0944284443454 C91.69187872373907 -185.74037554051188, 111.1036005050127 -186.6369585405441, 125.15048085930218 -180.2601423559084 C139.19736121359168 -173.88332617127273, 155.77376352595434 -163.03432479214595, 161.28667838441393 -147.83353133653134 C166.79959324287353 -132.63273788091672, 163.7672154360924 -104.67999467392298, 158.2279700100598 -89.05538162222075 C152.6887245840272 -73.43076857051852, 139.03927527877383 -61.48090860230192, 128.05120582821823 -54.08585302631795 C117.06313637766263 -46.690797450333974, 104.4804096825075 -46.076021432613985, 92.29955330672625 -44.685048166316925 C80.118696930945 -43.294074900019865, 62.18382117294265 -46.775483599626924, 54.96606757353076 -45.74001342853559 C47.748313974118865 -44.70454325744426, 51.120439867231376 -45.895333528557195, 48.99303171025491 -38.47222713976891 C46.865623553278446 -31.049120750980627, 46.606572272513205 -7.44345547553335, 42.20161863167197 -1.2013750958058789 C37.796664990830735 5.040705283921593, 29.844851007027614 -1.203012151488521, 22.563309865207497 -1.0197448614040878 C15.28176872338738 -0.8364775713196545, 2.4204387002027117 -0.09187723032643598, -1.4876282192487271 -0.10177135529927916" stroke="#fff" stroke-width="4" fill="none"></path></g></g><g><g transform="translate(454.3416224232569 191.80470929799935) rotate(0 33.88848857481089 -25.08897713786098)" fill-rule="evenodd"><path d="M0.5668377093970776 6.679269160007532 L8.116863581820754 -39.001945430968036 L10.794785214533281 -53.0962488628932 L12.865540938968968 -56.23633448223649 L43.751230672012845 -54.40786016021807 L52.14929580870634 -52.39435851178639 L56.412313235879296 -51.30701120610806 L64.22507230759882 -45.769987851101824 L69.85254980965448 -30.279838466372183 L67.65798808869101 -16.75951978262772 L59.226762207943715 -5.242842993112886 L46.624098594668304 -0.5916456073290042 L31.0499870178024 6.078714216922815 L0.039099257439374924 4.216454709743555" stroke="none" stroke-width="0" fill="#777bb3" fill-rule="evenodd"></path><path d="M0.21481063440442094 5.980332189475591 C1.7100193613923793 -3.0148585049122723, 4.9010524331277985 -40.02143894631732, 8.458473603670122 -50.258385166587004 C12.015894774212445 -60.49533138685669, 14.083073078794495 -54.8397260285156, 21.559337657658364 -55.44134513214253 C29.035602236522234 -56.04296423576946, 45.718831853076836 -57.906246980469845, 53.31606107685333 -53.86809978834861 C60.913290300629825 -49.82995259622737, 65.90668263913437 -39.29585296419011, 67.14271300031734 -31.21246197941511 C68.37874336150031 -23.12907099464011, 66.43168163023708 -11.32192249956, 60.73224324395112 -5.367753879698598 C55.03280485766516 0.5864147401628044, 42.98251958861956 2.6355098823545706, 32.94608268260161 4.512549739753302 C22.909645776583666 6.389589597152034, 6.017411219898529 5.729724412833747, 0.5136218078434467 5.894485264693793 M-1.1315525118727239 5.524898245430958 C0.7765251484948845 -3.234009279866159, 6.964284275077544 -38.62719619012754, 10.666560625108527 -49.12977331334322 C14.36883697513951 -59.6323504365589, 13.895157115589917 -56.88118587667925, 21.082105588313173 -57.49056449386314 C28.269054061036428 -58.09994311104703, 45.83050114555473 -57.30782978020066, 53.788251461448056 -52.786045016446565 C61.746001777341384 -48.264260252692466, 67.99335683260418 -38.14585998311201, 68.82860748367314 -30.359855911338546 C69.6638581347421 -22.57385183956508, 64.6428712513559 -12.237721472582027, 58.79975536786183 -6.070020585805782 C52.956639484367756 0.0976803009704641, 43.61029284226717 4.618236706163195, 33.76991218270871 6.646349409318935 C23.929531523150246 8.674462112474675, 5.683923286052337 6.463669723368656, -0.2425285894889384 6.098655633128654" stroke="#fff" stroke-width="4" fill="none"></path></g></g></svg>