<svg version="1.1" xmlns="http://www.w3.org/2000/svg" viewBox="0 0 643.6666666666663 354.66666666666697" width="643.6666666666663" height="354.66666666666697">
  <!-- svg-source:excalidraw -->
  
  <defs>
    <style>
      @font-face {
        font-family: "Virgil";
        src: url("https://excalidraw.com/FG_Virgil.woff2");
      }
      @font-face {
        font-family: "Cascadia";
        src: url("https://excalidraw.com/Cascadia.woff2");
      }
    </style>
  </defs>
  <g transform="translate(10 10) rotate(0 311.83333333333314 167.33333333333337)"><path d="M300.34932558732976 0.7040020868587078 C324.64710609489293 -2.4950425017528866, 352.6465786364377 0.5228742800899653, 377.4598831402977 3.13137022893892 C402.27318764415764 5.739866177787874, 426.244135698382 10.003037382678443, 449.2291526104897 16.354977779952435 C472.21416952259733 22.706918177226427, 495.93647637847033 32.2225283080592, 515.3699846129434 41.24301261258287 C534.8034928474165 50.26349691710654, 551.333384691304 59.296574134128534, 565.8302020173282 70.47788360709447 C580.3270193433525 81.6591930800604, 592.993076118455 95.33275308569728, 602.3508885690887 108.33086945037847 C611.7087010197225 121.32898581505967, 618.9507896387993 134.89338856135797, 621.9770767211312 148.46658179518167 C625.0033638034631 162.03977502900537, 623.857681596704 176.14984722389045, 620.5086110630799 189.77002885332064 C617.1595405294559 203.39021048275083, 611.3868365945634 217.38717612711866, 601.8826535193865 230.18767157176273 C592.3784704442096 242.9881670164068, 578.5672946134912 255.51646499291672, 563.4835126120184 266.573001521185 C548.3997306105457 277.6295380494533, 531.0447666358892 287.9185099553432, 511.3799615105502 296.5268907413724 C491.7151563852112 305.13527152740164, 468.9388993369262 312.2758137414427, 445.4946818599843 318.2232862373604 C422.0504643830424 324.17075873327815, 395.97127404869326 329.38400996412923, 370.71465664889865 332.21172571687896 C345.45803924910405 335.0394414696287, 319.5421861174085 335.9350682597441, 293.95497746121674 335.1895807538588 C268.367768805025 334.4440932479735, 241.43740984111105 331.9330441398389, 217.19140471174813 327.738800681567 C192.94539958238522 323.5445572232951, 170.1817498846506 317.4052419633107, 148.4789466850393 310.0241200042273 C126.77614348542798 302.64299804514394, 105.05740621742389 293.40733156989603, 86.97458551408025 283.4520689270667 C68.8917648107366 273.4968062842374, 52.47196058216411 262.32338793249966, 39.98202246497743 250.29254414725125 C27.492084347790758 238.2617003620028, 18.69312123072591 224.46419221532537, 12.034956810960182 211.26700621557615 C5.376792391194452 198.06982021582692, 0.6319677828631143 184.63596241955017, 0.03303594638305185 171.1094281487559 C-0.5658958900970106 157.58289387796165, 2.686780059630242 143.68683894326833, 8.441365792079807 130.10780059081065 C14.195951524529374 116.52876223835297, 22.989131444044915 102.03982239057503, 34.56055034108044 89.63519803400982 C46.13196923811597 77.23057367744461, 60.72300919197012 65.88836321472962, 77.86987917429298 55.68005445141941 C95.01674915661583 45.471745688109195, 116.18322003956492 36.06438373613981, 137.44177023501757 28.385345454148535 C158.70032043047024 20.706307172157256, 181.23486056098605 14.254824131512322, 205.42118034700894 9.605824759471744 C229.60750013303183 4.9568253874311665, 264.0442266983583 2.2278699911185527, 282.55968895115495 0.49134922190506813 C301.07515120395163 -1.2451715473084164, 308.33890304484856 -1.4766351262883717, 316.51395386378897 -0.8132998558091629 C324.6890046827294 -0.14996458532995405, 331.7605264246589 1.5222202713947013, 331.6099938647974 4.471360844780321 M285.6751682803223 -0.420919227310776 C309.3927037318503 -4.287350239873447, 335.29191393130407 -0.38099780563228114, 360.3226496340769 2.1794926127297742 C385.3533853368498 4.73998303109183, 411.96724671984447 9.235629575853661, 435.85958249695955 14.942023282861555 C459.7519182740746 20.64841698986945, 483.4612940491767 28.046684667105573, 503.6766642967675 36.41785485477715 C523.8920345443584 44.78902504244872, 541.5254281847913 54.76905879085535, 557.1518039825045 65.16904440889101 C572.7781797802177 75.56903002692667, 587.2622283240958 86.4915070467035, 597.4349190830467 98.81776856299113 C607.6076098419976 111.14403007927876, 613.8825674763696 125.24573641769072, 618.1879485362097 139.1266135066168 C622.4933295960498 153.00749059554286, 625.4087384998218 168.10420150084667, 623.2672054420871 182.10303109654757 C621.1256723843524 196.10186069224847, 613.8130185129511 210.29664871986097, 605.3387501898017 223.11959108082226 C596.8644818666522 235.94253344178355, 586.0850528589659 247.8362935295847, 572.4215955031907 259.0406852623154 C558.7581381474155 270.245076995046, 542.2258299920045 281.14592098890466, 523.3580060551502 290.3459414772062 C504.49018211829593 299.5459619655078, 482.17054629897837 307.67420480493394, 459.214651882065 314.24080819212486 C436.2587574651517 320.8074115793158, 410.6470457198746 326.49314324592495, 385.62263955367035 329.74556180035165 C360.5982333874661 332.99798035477835, 334.480492576677 333.86867497348686, 309.06821488483945 333.75531951868504 C283.6559371930019 333.6419640638832, 257.85825219060195 332.2981920243873, 233.1489734026448 329.0654290715406 C208.43969461468765 325.83266611869396, 183.07140812798508 321.0107088537243, 160.81254215709657 314.3587418016053 C138.55367618620807 307.70677474948627, 118.25078589569712 298.4277496099866, 99.59577757731378 289.15362675882653 C80.94076925893044 279.87950390766645, 62.61569173218221 270.08543859057465, 48.88249224679657 258.71400469464476 C35.14929276141093 247.34257079871486, 25.252790912410866 234.02067169428963, 17.196580664999942 220.92502338324707 C9.140370417589017 207.8293750722045, 2.4406910729629674 194.12646206039946, 0.5452307623310162 180.1401148283893 C-1.3502295483009352 166.15376759637914, 1.0329771190643653 150.48345432479556, 5.823818801208233 137.00693999118616 C10.6146604833521 123.53042565757674, 18.908839162463714 111.67607176980658, 29.290280855194226 99.28102882673281 C39.67172254792474 86.88598588365903, 52.49626600978544 73.60270843986034, 68.11246895759129 62.63668233274355 C83.72867190539714 51.67065622562675, 102.36830110209993 41.789745583291435, 122.98749854202933 33.48487218403204 C143.60669598195872 25.17999878477265, 167.90835154025265 18.21893590797111, 191.82765359716763 12.807441937187207 C215.7469556540826 7.395947966403303, 250.9260304624364 3.214307561186606, 266.50331088351913 1.0159083593286198 C282.08059130460185 -1.1824908425293663, 282.01949127847627 -1.0511671504174651, 285.29133612366405 -0.3829532739607089 C288.56318096885184 0.28526060249604746, 285.94413559041163 1.8733360245029567, 286.13437995464585 5.025191618069158" stroke="#000000" stroke-width="2" fill="none"></path></g><g><g transform="translate(110.12121212121167 281.6455768805022) rotate(0 82.1738101515208 -91.63386364464452)"><path d="M-0.5712323181331157 -0.35522860363125797 C3.879993312509958 -27.18430046496853, 19.918759245258627 -129.36213840519173, 25.854840209049605 -159.8572007653454 C31.790921172840584 -190.35226312549906, 26.69233745847248 -179.10275195482228, 35.045253464612756 -183.3256027645533 C43.39816947075303 -187.54845357428434, 60.92668603780199 -185.6044821940303, 75.97233624589127 -185.1943056237315 C91.01798645398055 -184.7841290534327, 110.95677041321028 -186.91231993435525, 125.31915471314844 -180.86454334276053 C139.6815390130866 -174.8167667511658, 156.4639228664272 -164.41280082517974, 162.14664204552022 -148.9076460741631 C167.82936122461325 -133.40249132314645, 165.07062486138273 -103.37362648578208, 159.41546978770654 -87.83361483666059 C153.76031471403036 -72.29360318753909, 139.46808502882598 -62.7754638340538, 128.21571160346312 -55.667576179434135 C116.96333817810026 -48.55968852481447, 103.93481778779334 -47.052371179915994, 91.90122923552941 -45.18628890894259 C79.86764068326549 -43.32020663796919, 62.805169157586306 -45.406916865851265, 56.014180289879604 -44.47108255359372 C49.2231914221729 -43.53524824133617, 53.88524595213433 -46.5408091779159, 51.155296029289204 -39.571283035397315 C48.425346106444074 -32.60175689287873, 44.3915020784793 -9.226791686203299, 39.63448075280883 -2.653925698482226 C34.877459427138355 3.918940289238847, 29.24262575788802 -0.4280133687364393, 22.61316807526638 -0.13408710907087884 C15.983710392644738 0.15983915059468162, 3.5866809259409544 -0.8533986196338902, -0.14226534292101856 -0.890368140488863 M1.3297319855075331 -1.5873275658767672 C5.764037750244368 -28.24524658725537, 19.83101504744111 -131.53231125466618, 25.305833656083294 -161.59251900217137 C30.78065226472548 -191.65272674967656, 25.678720476099997 -178.18810805669096, 34.17864363736065 -181.9485740509079 C42.678566798621304 -185.70904004512482, 60.792292735031666 -184.48360022070224, 76.3053726236472 -184.15531496747298 C91.81845251226274 -183.8270297142437, 113.25050493242186 -185.7033430723997, 127.25712296905388 -179.97886253153231 C141.2637410056859 -174.25438199066494, 154.9160263250981 -164.94674732220102, 160.3450808434393 -149.80843172226878 C165.77413536178048 -134.67011612233654, 165.39926714896302 -104.80176269729469, 159.83145007910107 -89.1489689319389 C154.26363300923913 -73.4961751665831, 138.5250191036134 -63.02073977035746, 126.93817842426753 -55.891669130133984 C115.35133774492165 -48.76259848991051, 101.96009647380826 -48.15491855297055, 90.3104060030258 -46.37454509059805 C78.66071553224334 -44.594171628225546, 63.450924441446794 -46.5236096361517, 57.04003559957275 -45.209428355898986 C50.6291467576987 -43.895247075646274, 54.46853077993107 -46.038886601367366, 51.84507295178151 -38.489457409081766 C49.22161512363195 -30.940028216796165, 46.14619465265065 -6.201543860996111, 41.29928863067538 0.08714679781461188 C36.452382608700105 6.375837456625334, 29.800396334094987 -0.4845292822210574, 22.7636368199299 -0.7573134562174346 C15.726877305764813 -1.0300976302138118, 2.7570211099422055 -1.4923766951959352, -0.9212684543151409 -1.5495582461636515" stroke="#000000" stroke-width="2" fill="none"></path></g></g><g><g transform="translate(165.6749557565903 191.80470929799935) rotate(0 34.18128116589726 -25.49377868719546)"><path d="M0.7600741155445576 5.593830305015143 C2.392947637454391 -3.3840447155445954, 5.8236962853616845 -39.080047764371514, 9.226008813325883 -49.366279873313076 C12.628321341290082 -59.65251198225464, 13.976816784544006 -55.53730579383542, 21.17394928332975 -56.12356234863423 C28.371081782115496 -56.70981890343304, 44.445980099841975 -56.933227380555294, 52.408803806040346 -52.88381920210593 C60.37162751223872 -48.83441102365657, 67.73579011441514 -39.648913686541185, 68.95089152051997 -31.82711327793806 C70.16599292662481 -24.005312869334933, 65.83755302153347 -12.1039932316767, 59.69941224266938 -5.953016750487173 C53.561271463805305 0.19795973070235462, 42.046209583431576 3.2152494529722455, 32.122046847335504 5.078745609199102 C22.197884111239432 6.942241765425959, 5.426224505726166 5.355844598685797, 0.15443582609295836 5.227960186873968 M-0.3000257031340152 4.935482871628772 C1.2079907694894525 -3.797018251080453, 4.7113161497342215 -37.80157463766019, 8.177051819833563 -47.76931274110048 C11.642787489932905 -57.73705084454077, 13.12311626685792 -53.67499501879198, 20.494388317462036 -54.87094574901298 C27.865660368066152 -56.06689647923398, 44.49940222187156 -58.87397489033098, 52.40468412345825 -54.945017122426485 C60.30996602504494 -51.01605935452199, 66.51274573240735 -39.2942775846974, 67.92607972698217 -31.29719914158604 C69.33941372155698 -23.300120698474686, 66.78682512308289 -12.820379339059995, 60.884688090907176 -6.9625464637583585 C54.98255105873146 -1.1047135884567219, 42.792420084355484 1.8423395513551513, 32.513257533927884 3.849798110223781 C22.234094983500285 5.857256669092411, 4.782363546939484 4.673503006793033, -0.7902872116584332 5.082204889453422" stroke="#000000" stroke-width="2" fill="none"></path></g></g><g><g transform="translate(268.12121212121167 231.81379548572454) rotate(0 71.0394357280869 -95.26413849050505)"><path d="M-0.4606975547969341 0.06833239719271655 C3.116708621134361 -26.717099590697693, 16.3674466299514 -127.71777663325085, 20.873144889622928 -159.77673521622305 C25.378843149294458 -191.83569379919524, 23.691896950619043 -187.20721869384516, 26.57349200323224 -192.2854191006405 C29.455087055845436 -197.36361950743583, 32.1309693449904 -191.1960326612084, 38.162715205302106 -190.245937656995 C44.194461065613815 -189.29584265278163, 59.08950051011306 -194.32803126929826, 62.763967165102486 -186.58484907536027 C66.43843382009192 -178.84166688142227, 57.478663948592285 -151.36575199890143, 60.20951513523865 -143.78684449336703 C62.94036632188501 -136.20793698783262, 71.9465255241427 -142.3544776491416, 79.14907428498066 -141.11140404215388 C86.35162304581861 -139.86833043516617, 95.01971012825764 -140.44968827074328, 103.42480770026637 -136.3284028514407 C111.8299052722751 -132.20711743213812, 123.08951279131878 -125.3953264900088, 129.57965971703305 -116.38369152633845 C136.06980664274732 -107.3720565626681, 141.1313431270419 -99.30080122595213, 142.36568925455202 -82.25859306941864 C143.60003538206215 -65.21638491288515, 139.0463919991421 -27.859686301431843, 136.9857364820938 -14.130442587137532 C134.92508096504554 -0.40119887284322076, 136.79218707688983 -2.3224307572541267, 130.00175615226232 0.11686921634723157 C123.21132522763482 2.55616918994859, 101.9131483906675 3.958655706685682, 96.24315093432878 0.5053572544706184 C90.57315347799006 -2.947941197744445, 95.22669944307846 -8.533256528662669, 95.98177141423 -20.602921496943146 C96.73684338538153 -32.672586465223624, 102.0204894311725 -59.84059966298184, 100.77358276123798 -71.91263255521224 C99.52667609130344 -83.98466544744265, 95.6940599131088 -88.72770513910726, 88.5003313946228 -93.03511885032557 C81.30660287613681 -97.34253256154389, 63.756067030380265 -100.09825019039735, 57.611211650321955 -97.75711482252214 C51.466356270263645 -95.41597945464693, 53.57705928559103 -88.72751149503513, 51.63119911427295 -78.9883066430743 C49.68533894295488 -69.24910179111346, 47.80892198690105 -52.06713996505975, 45.93605062241352 -39.321885710757165 C44.06317925792599 -26.576631456454578, 44.82654391469229 -9.287626360272085, 40.39397092734778 -2.5167811172587644 C35.96139794000327 4.254064125754556, 26.258372877124405 1.0568730156546866, 19.34061269834649 1.3031857473227577 C12.422852519568576 1.5494984789908288, 2.2725268212457688 -0.6932076681807107, -1.1125901453197002 -1.0389047272503376 M1.49829749959521 -0.9413970396202058 C5.045820629078275 -28.111364130056824, 16.281737241723263 -129.52565579347436, 20.38350049304776 -161.2814022961467 C24.485263744372254 -193.03714879881903, 23.2069538006631 -186.3180102171807, 26.108877007542176 -191.4758760556543 C29.010800214421252 -196.63374189412792, 31.893346416995 -193.17238992709616, 37.79503973432222 -192.22859732698845 C43.696733051649446 -191.28480472688074, 57.58791884098922 -193.78678154633877, 61.51903691150551 -185.81312045500803 C65.4501549820218 -177.8394593636773, 58.29404092534866 -152.14370699173028, 61.38174815741996 -144.38663077900395 C64.46945538949126 -136.62955456627762, 73.20106668076063 -140.51830654530465, 80.04528030393331 -139.27066317865 C86.88949392710599 -138.02301981199537, 93.95506344256609 -140.5098532875714, 102.44702989645606 -136.90077057907612 C110.93899635034603 -133.29168787058086, 124.18398548186939 -126.66408092149307, 130.99707902727312 -117.6161669276785 C137.81017257267686 -108.56825293386395, 142.24618094998394 -99.5042499896188, 143.32559116887847 -82.61328661618877 C144.405001387773 -65.72232324275875, 139.87112104509754 -29.973908985217328, 137.47354034064034 -16.27038668709838 C135.07595963618314 -2.5668643889794343, 135.8690180678283 -3.103667166379976, 128.94010694213526 -0.39215282747510183 C122.01119581644221 2.319361511429773, 101.57044347678124 3.449757502837752, 95.90007358648208 -0.0013006536691317905 C90.22970369618292 -3.4523588101760154, 94.04150149965739 -9.103183407649551, 94.91788760034031 -21.098501766516403 C95.79427370102323 -33.09382012538325, 102.07011385547919 -60.090013955434685, 101.15839019057958 -71.97321080687024 C100.24666652567997 -83.8564076583058, 96.39674892125346 -88.16659298813829, 89.44754561094264 -92.39768287512975 C82.49834230063182 -96.6287727621212, 65.4607064541958 -99.59862319077887, 59.463170328714654 -97.359750128819 C53.465634203233506 -95.12087706685914, 55.401957869507974 -88.71796724007463, 53.462328858055756 -78.96444450337059 C51.52269984660354 -69.21092176666654, 50.4396531848226 -51.791485093474904, 47.82539626000135 -38.83861370859475 C45.21113933518009 -25.885742323714595, 42.15285018686931 -8.307562103065688, 37.77678730912821 -1.247216194089673 C33.40072443138711 5.813129714886342, 28.100132487030404 3.1950027883196657, 21.56901899355475 3.523461745261346 C15.037905500079095 3.8519207022030266, 2.4347831324519156 1.0411905637447323, -1.4098936517257243 0.7235375475604089" stroke="#000000" stroke-width="2" fill="none"></path></g></g><g><g transform="translate(398.7878787878783 281.6455768805022) rotate(0 81.59585772913394 -92.15052114547143)"><path d="M-1.1098849050700663 -0.054252637177705676 C3.104949276598398 -26.934957951884122, 18.728063506466206 -131.0361456540702, 24.665716888470076 -161.62900845978052 C30.603370270473945 -192.22187126549085, 25.888426845412482 -179.87195497396445, 34.51603538695315 -183.6114294714396 C43.143643928493816 -187.35090396891476, 61.12774902703692 -184.49292883499862, 76.43136813771409 -184.06585544463147 C91.73498724839126 -183.6387820542643, 112.34896423130262 -186.72452679871228, 126.33775005101617 -181.04898912923667 C140.3265358707297 -175.37345145976107, 154.62637348993948 -165.55875326448793, 160.3640830559954 -150.0126294277779 C166.1017926220513 -134.4665055910679, 166.0004270168774 -103.29377860160392, 160.76400744735162 -87.77224610897656 C155.52758787782582 -72.2507136163492, 140.6053021928656 -63.76573847795181, 128.94556563884063 -56.88343447201378 C117.28582908481567 -50.00113046607576, 103.18748218694036 -48.489159953452685, 90.80558812320183 -46.47842207334842 C78.4236940594633 -44.46768419324415, 61.57428176840326 -45.97208012058911, 54.65420125640945 -44.81900719138821 C47.73412074441564 -43.66593426218731, 51.68977650118371 -46.84667601541742, 49.28510505123897 -39.55998449814298 C46.880433601294236 -32.27329298086854, 44.6933890423236 -7.641159958030996, 40.22617255674102 -1.0988580877415643 C35.75895607115844 5.443443782547868, 29.271776363089742 -0.49914967645280905, 22.48180613774349 -0.30617327640638914 C15.691835912397238 -0.11319687635996925, 3.3659711490625965 0.06496168519856839, -0.5136487953364849 0.059000312536954924 M0.508286790428683 -1.1283392170350999 C4.582095595479238 -27.864999254801646, 17.405204045782668 -130.42517230920586, 23.49242059219951 -160.63452573618494 C29.579637138616356 -190.84387916316402, 28.1127567911835 -178.14114266088276, 37.03158606892975 -182.3844597789095 C45.950415346675996 -186.62777689693624, 62.318913793614925 -186.44848134817892, 77.005396258677 -186.0944284443454 C91.69187872373907 -185.74037554051188, 111.1036005050127 -186.6369585405441, 125.15048085930218 -180.2601423559084 C139.19736121359168 -173.88332617127273, 155.77376352595434 -163.03432479214595, 161.28667838441393 -147.83353133653134 C166.79959324287353 -132.63273788091672, 163.7672154360924 -104.67999467392298, 158.2279700100598 -89.05538162222075 C152.6887245840272 -73.43076857051852, 139.03927527877383 -61.48090860230192, 128.05120582821823 -54.08585302631795 C117.06313637766263 -46.690797450333974, 104.4804096825075 -46.076021432613985, 92.29955330672625 -44.685048166316925 C80.118696930945 -43.294074900019865, 62.18382117294265 -46.775483599626924, 54.96606757353076 -45.74001342853559 C47.748313974118865 -44.70454325744426, 51.120439867231376 -45.895333528557195, 48.99303171025491 -38.47222713976891 C46.865623553278446 -31.049120750980627, 46.606572272513205 -7.44345547553335, 42.20161863167197 -1.2013750958058789 C37.796664990830735 5.040705283921593, 29.844851007027614 -1.203012151488521, 22.563309865207497 -1.0197448614040878 C15.28176872338738 -0.8364775713196545, 2.4204387002027117 -0.09187723032643598, -1.4876282192487271 -0.10177135529927916" stroke="#000000" stroke-width="2" fill="none"></path></g></g><g><g transform="translate(454.3416224232569 191.80470929799935) rotate(0 33.88848857481089 -25.08897713786098)"><path d="M0.21481063440442094 5.980332189475591 C1.7100193613923793 -3.0148585049122723, 4.9010524331277985 -40.02143894631732, 8.458473603670122 -50.258385166587004 C12.015894774212445 -60.49533138685669, 14.083073078794495 -54.8397260285156, 21.559337657658364 -55.44134513214253 C29.035602236522234 -56.04296423576946, 45.718831853076836 -57.906246980469845, 53.31606107685333 -53.86809978834861 C60.913290300629825 -49.82995259622737, 65.90668263913437 -39.29585296419011, 67.14271300031734 -31.21246197941511 C68.37874336150031 -23.12907099464011, 66.43168163023708 -11.32192249956, 60.73224324395112 -5.367753879698598 C55.03280485766516 0.5864147401628044, 42.98251958861956 2.6355098823545706, 32.94608268260161 4.512549739753302 C22.909645776583666 6.389589597152034, 6.017411219898529 5.729724412833747, 0.5136218078434467 5.894485264693793 M-1.1315525118727239 5.524898245430958 C0.7765251484948845 -3.234009279866159, 6.964284275077544 -38.62719619012754, 10.666560625108527 -49.12977331334322 C14.36883697513951 -59.6323504365589, 13.895157115589917 -56.88118587667925, 21.082105588313173 -57.49056449386314 C28.269054061036428 -58.09994311104703, 45.83050114555473 -57.30782978020066, 53.788251461448056 -52.786045016446565 C61.746001777341384 -48.264260252692466, 67.99335683260418 -38.14585998311201, 68.82860748367314 -30.359855911338546 C69.6638581347421 -22.57385183956508, 64.6428712513559 -12.237721472582027, 58.79975536786183 -6.070020585805782 C52.956639484367756 0.0976803009704641, 43.61029284226717 4.618236706163195, 33.76991218270871 6.646349409318935 C23.929531523150246 8.674462112474675, 5.683923286052337 6.463669723368656, -0.2425285894889384 6.098655633128654" stroke="#000000" stroke-width="2" fill="none"></path></g></g></svg>