<svg version="1.1" xmlns="http://www.w3.org/2000/svg" viewBox="0 0 266.8195631373219 262.2456070827034" width="266.8195631373219" height="262.2456070827034">
  <!-- svg-source:excalidraw -->
  
  <defs>
    <style>
      @font-face {
        font-family: "Virgil";
        src: url("https://excalidraw.com/FG_Virgil.woff2");
      }
      @font-face {
        font-family: "Cascadia";
        src: url("https://excalidraw.com/Cascadia.woff2");
      }
    </style>
  </defs>
  <g><g transform="translate(147.53072753358492 19.752184784694464) rotate(0 -14.120945964923976 111.37061875665722)" fill-rule="evenodd"><path d="M16.941379493291947 2.375863243272156 L-5.260687875307459 -7.0773228510758495 L-16.053144820157083 -5.714877734622014 L-36.91401674403373 2.0242336304586375 L-43.41489631180353 2.2691207263924458 L-83.22932758296866 -8.41002259459264 L-97.4219848759721 -5.069975502434856 L-105.8408167119132 -5.854875298197529 L-116.03951851329263 -0.24979944209332006 L-125.73831026733046 7.623389217800419 L-132.90741196124674 17.892827833406336 L-136.21550135009323 27.666499998490828 L-135.80014363231044 45.30979466983281 L-133.58949052171425 73.63858271988697 L-121.0090850313079 105.71025800511323 L-107.84032287421726 135.12393733213244 L-96.75558891103974 156.06522204918826 L-88.33941122336996 162.72876558148602 L-81.1610070855853 166.9550897873318 L-72.20776733548581 160.4978914371895 L-53.21251210627926 132.82946257218518 L-48.153632603351866 129.82868158692924 L-43.55897518295666 130.5913287621291 L-30.457339984055 136.34333846265307 L-31.003609463992344 136.66194852517216 L-38.68997276359954 145.67407126946264 L-61.61038519057547 160.63079148351355 L-40.16321610756655 161.62938847293583 L-14.186469750160299 158.92250616810117 L-12.25029620120051 171.71248743853803 L-9.83714597391678 205.6568870512815 L-3.4012227993621647 222.4448129144412 L0.06076653275943178 227.47525429813157 L6.887929104551534 230.10397193477905 L13.17279109117743 231.87498202518333 L25.07759298814186 231.7153427577647 L38.32916314883299 225.23893719545794 L46.75501722242001 213.86926491837454 L49.63279380299445 200.21678981741678 L50.67230280063626 165.40892782401468 L54.24795323190128 154.43340767444016 L62.87856690549475 151.96919212746383 L80.32482741660668 152.30909401821074 L94.03592383347987 145.91301906001559 L99.32460449029783 136.3323259898894 L79.62974369814317 137.68516871873487 L69.1028747435362 133.3365176031907 L65.52695006068855 129.68951887793793 L65.03850598541777 126.37278159102549 L92.7839820468246 75.56972047920215 L100.61833968203683 53.126060471328096 L107.11068876734998 32.76929331399748 L105.72740824212168 19.428409884099594 L104.59991771311518 10.069070773587246 L100.91358915814087 4.347429682652727 L93.10268024041977 0.8264830089775232 L75.5893620380109 -3.9941909754129243 L59.01408212062738 -10.194208617153814 L41.16329490276815 -9.2524619230988 L18.03509134631929 0.9407207261823123" stroke="none" stroke-width="0" fill="#336791" fill-rule="evenodd"></path><path d="M17.474608653600786 1.8806605111859744 C13.538684919397369 0.796214039325239, 0.4388936019764689 -4.318611942734302, -6.791768407381434 -5.065686593904219 C-14.022430416739336 -5.812761245074135, -19.941146686812253 -3.736349128552848, -25.909363402546624 -2.601787395833523 C-31.877580118280996 -1.467225663114198, -31.151105183944004 2.5168276978896, -42.60106870178766 1.741683802411733 C-54.05103221963132 0.9665399069338659, -79.64756027701908 -9.694596337968665, -94.60914450960857 -7.252650768700725 C-109.57072874219806 -4.810705199432785, -126.06731545576537 2.7956466170822747, -132.3705740973246 16.393357218019375 C-138.67383273888385 29.991067818956473, -136.07691731235238 54.69767357679892, -132.428696358964 74.33361283692189 C-128.78047540557563 93.96955209704485, -118.96656532867014 118.74232482228527, -110.48124837699436 134.2089927787572 C-101.99593142531857 149.67566073522912, -91.3841283954699 167.2910159967635, -81.51679464890927 167.1336205757534 C-71.64946090234864 166.97622515474333, -58.74758306944942 138.81574935786847, -51.27724589763058 133.26462025269666 C-43.80690872581174 127.71349114752483, -40.34551127143078 132.79086165259054, -36.69477161799624 133.82684594472246 C-33.0440319645617 134.8628302368544, -29.232533176332996 137.51847600591512, -29.37280797702335 139.48052600548831 C-29.513082777713702 141.4425760050615, -34.775777924493845 143.530611158542, -37.53642042213836 145.5991459421616 C-40.29706291978288 147.66768072578122, -42.22046003927014 149.55889698964614, -45.93666296289047 151.89173470720607 C-49.65286588651081 154.224572424766, -60.97835567463642 157.7801386401886, -59.83363796386038 159.5961722475211 C-58.68892025308435 161.41220585485362, -45.064041775128885 162.56014168681105, -39.068356698234275 162.7879363512012 C-33.072671621339666 163.01573101559137, -28.03412365832324 160.58064054865804, -23.85952750249271 160.96294023386216 C-19.684931346662182 161.34523991906627, -16.832286167127734 157.53691611226623, -14.020779763251104 165.0817344624259 C-11.209273359374476 172.6265528125856, -10.311823029556209 195.3313209852055, -6.990489079232942 206.2318503348203 C-3.6691551289096753 217.1323796844351, -1.9677049417958399 227.58052305236137, 5.907223938688497 230.48491056011474 C13.782152819172833 233.3892980678681, 32.82150904681996 228.60961903379476, 40.259084203673076 223.6581753813405 C47.69665936052619 218.70673172888624, 48.52429093759584 210.66233108905095, 50.532674879807196 200.7762486453892 C52.54105882201855 190.89016620172742, 51.55783578945537 172.4831836430619, 52.30938785694119 164.34168071936992 C53.06093992442702 156.20017779567794, 50.38723937712878 154.1435788823134, 55.041987284722154 151.92723110323735 C59.69673519231553 149.7108833241613, 72.65727632526094 153.45203624400617, 80.23787530250145 151.04359404491362 C87.81847427974196 148.63515184582107, 100.79620774162336 139.9324959497243, 100.52558114816526 137.47657790868212 C100.25495455470715 135.02065986763992, 84.31775127951275 138.24889823183696, 78.6141157417528 136.30808579866041 C72.91048020399285 134.36727336548387, 65.31781376053178 132.6709228022265, 66.30376792160551 125.8317033096229 C67.28972208267925 118.99248381701929, 78.56974248955292 107.2715051999024, 84.52984070819517 95.27276884303878 C90.48993892683741 83.27403248617514, 98.3117185492639 68.06582748342723, 102.06435723345895 53.83928516844113 C105.816995917654 39.612742853455025, 111.44503977421869 19.91281508031337, 107.04567281336541 9.913514953122158 C102.64630585251214 -0.08578517406905206, 86.18568174524282 -2.9619607779895833, 75.66815546833928 -6.156515594706137 C65.15062919143574 -9.351070411422691, 53.48995155344031 -10.531855718813484, 43.940515151944176 -9.253813947177168 C34.391078750448045 -7.975772175540852, 22.844922293624162 -0.19413125238236195, 18.371537059362502 1.5117350351117556 M19.46548266654228 1.2401392100710427 C15.43087010965219 -0.19246717014397507, -0.7578963473270255 -6.196254771640257, -7.93549452624965 -6.669170481600857 C-15.113092705172274 -7.142086191561457, -17.81814080616398 -3.129484355899641, -23.600106406993472 -1.597355049692557 C-29.382072007822963 -0.06522574348547305, -30.631664440980074 3.430931309513468, -42.62728813122659 2.523605355641646 C-54.62291182147311 1.6162794017698237, -80.27212358127015 -9.709855840880605, -95.57384854847258 -7.041310772923491 C-110.87557351567501 -4.372765704966376, -128.3387805180316 4.665625964585084, -134.4376379344412 18.534875763384335 C-140.5364953508508 32.40412556218359, -136.53383400407847 56.44204726749907, -132.16699304693023 76.174188019872 C-127.80015208978199 95.90632877224493, -116.94414154132032 121.9909639861724, -108.23659219155178 136.92772027762194 C-99.52904284178324 151.86447656907148, -89.58304839990294 166.49348201040925, -79.92169694831901 165.7947257685693 C-70.26034549673508 165.09596952672933, -57.45063837529359 137.88308095380154, -50.26848348204827 132.7351828265822 C-43.08632858880294 127.58728469936285, -40.16204398645893 133.78017452867164, -36.82876758884705 134.90733700525325 C-33.49549119123517 136.03449948183487, -30.150691865837484 137.91037493471202, -30.268825096376986 139.49815768607192 C-30.38695832691649 141.08594043743182, -34.832585970661555 142.3494145967044, -37.53756697208406 144.43403351341263 C-40.24254797350656 146.51865243012085, -42.3296965005575 149.57567418728098, -46.498711104912 152.0058711863212 C-50.66772570926649 154.43606818536142, -63.97624864514438 156.9885592502346, -62.55165459821102 159.015215507654 C-61.127060551277665 161.0418717650734, -44.172774243977926 163.75513787441412, -37.95114682331186 164.1658087308376 C-31.72951940264579 164.57647958726108, -29.003151869028386 161.78988160054612, -25.22189007421461 161.4792406461948 C-21.440628279400833 161.16859969184347, -18.147470476973524 154.75509554612427, -15.263576054429196 162.3019630047296 C-12.37968163188487 169.84883046333493, -11.48237126897172 195.15725615905043, -7.918523538948651 206.76044539782683 C-4.354675808925581 218.36363463660322, -1.7509282737296799 229.2670672739172, 6.11951032570922 231.92109843738794 C13.98994892514812 234.57512960085867, 31.837627767524655 228.0363861698675, 39.30410805768475 222.68463237865126 C46.77058834784485 217.332878587435, 48.67071630482639 209.14123267490368, 50.918392066669796 199.8105756900904 C53.1660678285132 190.4799187052771, 51.89628648645457 174.85677849178967, 52.79016262874518 166.7006904697715 C53.68403877103579 158.54460244775333, 51.53418231711991 153.50623519421842, 56.28164892041345 150.87404755798133 C61.029115523707 148.24185992174424, 74.24010829207272 153.20390621597252, 81.27496224850645 150.90756465234895 C88.30981620494019 148.61122308872538, 98.75162453031504 139.56630288459326, 98.49077265901583 137.09599817623985 C98.22992078771662 134.62569346788644, 84.86230433699893 137.6995361477816, 79.70985102071124 136.08573640222858 C74.55739770442355 134.47193665667555, 66.70065432620765 134.5278685421272, 67.57605276128966 127.41319970292163 C68.45145119637166 120.29853086371607, 78.92755323591909 105.31404304072139, 84.96224163120327 93.39772336699518 C90.99693002648745 81.48140369326897, 100.07583272255144 69.60108624558383, 103.78418313299474 55.91528166056436 C107.49253354343804 42.2294770755449, 112.01074783501414 21.346617737058907, 107.21234409386311 11.282895856878405 C102.41394035271207 1.2191739766979008, 85.78372550911318 -1.4814349911967235, 74.99376068608852 -4.467049620518659 C64.20379586306386 -7.452664249840595, 52.19020583155809 -7.857596694932898, 42.472555155715135 -6.630791919053209 C32.75490447987218 -5.40398714317352, 20.722264033392324 1.7489890965833872, 16.687856631030787 2.8937790347594774" stroke="#000000" stroke-width="1" fill="none"></path></g></g><g><g transform="translate(167.46614157000704 22.495387708996645) rotate(0 -56.1420806521362 77.80869018346314)"><path d="M-55.45944480403385 -0.37272505760192864 C-58.053591432339886 2.298342612419264, -67.19140063931093 7.799707754998734, -71.46399284779582 15.626430291138508 C-75.73658505628072 23.45315282727828, -80.07099136913467 35.36179081150356, -81.09499805494318 46.58761015923672 C-82.11900474075168 57.813429506969875, -77.45580259876824 73.62334814727444, -77.60803296264687 82.98134637753745 C-77.7602633265255 92.33934460780046, -82.02355850729435 96.93962798874216, -82.00838023821498 102.73559954081473 C-81.99320196913561 108.5315710928873, -80.30020291439922 113.87196332848113, -77.51696334817066 117.75717568997293 C-74.7337237819421 121.64238805146472, -69.94212092695882 123.54165025539673, -65.30894284084366 126.04687370976553 C-60.67576475472849 128.55209716413435, -54.79216510848343 130.72830380202447, -49.71789483147969 132.78851641618576 C-44.64362455447595 134.84872903034704, -38.035855881841265 135.83213282833674, -34.86332117882121 138.40814939473321 C-31.69078647580115 140.9841659611297, -30.287897297536507 145.10740904283546, -30.68268661335934 148.24461581456464 C-31.077475929182174 151.38182258629382, -36.250370055700195 155.97072734947412, -37.232057073758206 157.23139002510837 M-56.51350088914915 -1.61400965818204 C-59.20819646282252 1.1989161851499095, -67.61623912539193 8.371146139567054, -71.89294745034096 16.578810835299933 C-76.16965577528998 24.786475531032814, -81.20872987182152 36.90652761489178, -82.1737508388433 47.631978516215234 C-83.13877180586509 58.35742941753869, -78.0455662458533 71.65233970455031, -77.6830732524717 80.93151624324065 C-77.32058025909011 90.21069278193099, -80.18209724346451 96.79629431905546, -79.99879287855374 103.30703774835726 C-79.81548851364298 109.81778117765906, -79.05977236061089 115.88522524443867, -76.58324706300712 119.9959768190514 C-74.10672176540335 124.10672839366414, -69.95617573981298 125.96177897243737, -65.13964109293111 127.97154719603368 C-60.32310644604926 129.98131541963, -52.45886483960055 130.5055830477941, -47.684039181715974 132.0545861606293 C-42.9092135238314 133.6035892734645, -39.43938333723636 134.7183334520632, -36.490687145623674 137.26556587304486 C-33.54199095401099 139.81279829402652, -29.937589396994113 144.37007612470373, -29.991862032039872 147.3379806865192 C-30.04613466708563 150.30588524833465, -35.557661192149396 153.77027981000117, -36.81632295589824 155.07299324393762" stroke="#000000" stroke-width="1" fill="none"></path></g></g><g><g transform="translate(164.49344046438182 20.881428163320948) rotate(0 23.7146308147108 63.00231105485088)"><path d="M-0.37272505760192864 0.9887444972991941 C1.714361176545014 1.214972239253044, 6.566858057042 -0.718621503895633, 12.12254167589301 2.1289524407215117 C17.678225294744017 4.976526385338657, 27.68351637686063 9.85601794801634, 32.961376655504125 18.074188165002063 C38.23923693414762 26.292358381987786, 42.47767156731407 40.71646914919507, 43.789703347753985 51.43797374263585 C45.1017351281939 62.159478336076624, 40.3366865930782 73.21780930687076, 40.83356733814361 82.40321572564675 C41.33044808320902 91.58862214442273, 46.692469260872045 99.64619525188785, 46.77098781814646 106.55041225529177 C46.84950637542087 113.4546292586957, 42.21682807438919 120.74411013945293, 41.30467868179008 123.82851774607032 M1.6324555578175932 0.46223141304217297 C4.109010928262238 0.7731373814073654, 9.201100784435287 0.2520724973375721, 14.249451505205945 3.3533232054296582 C19.297802225976604 6.454573913521744, 26.8736499049088 10.901550361355582, 31.92255988244155 19.069735661594688 C36.971469859974306 27.237920961833794, 43.27279586588103 41.82148527455185, 44.54291137040246 52.362435006864295 C45.813026874923885 62.903384739176744, 39.00007369013329 72.92637125323861, 39.543252909570136 82.3154340554694 C40.08643212900698 91.70449685770018, 47.46618238311511 101.49231904671731, 47.80198668702353 108.69681182024901 C48.13779099093195 115.90130459378071, 42.26852828787552 122.86511533802663, 41.55807873302064 125.54239069665961" stroke="#000000" stroke-width="1" fill="none"></path></g></g><g><g transform="translate(248.3908527518197 411.93549078311537) rotate(0 -52.03359448945281 -290.8827384034994)"><path d="M-46.635495868228254 -238.31751505262625 C-46.729376468901776 -240.71695632690688, -48.24985741852459 -248.93188604406743, -47.41593798057016 -251.97251688532177 C-46.582018542615735 -255.0131477265761, -43.867584081086655 -255.1740399103291, -41.63197924050168 -256.5613001001524 C-39.3963743999167 -257.94856028997566, -33.71251912296085 -258.47001039107147, -34.00230893706029 -260.2960780242615 C-34.292098751159735 -262.1221456574515, -40.603971156314465 -264.17020003277116, -43.37071812509833 -267.5177058992924 C-46.13746509388219 -270.8652117658137, -48.0724632224877 -275.2902522229786, -50.60279074976346 -280.38111322338904 C-53.133118277039216 -285.47197422379946, -55.472842405586455 -290.5414631791647, -58.552683288752895 -298.0628719017551 C-61.632524171919336 -305.5842806243455, -68.13189439335127 -317.7945314886995, -69.08183604876209 -325.5095655589317 C-70.0317777041729 -333.2245996291639, -68.7716395435665 -341.3519893355771, -64.25233322121778 -344.35307632314846 C-59.73302689886907 -347.3541633107198, -45.79026202443629 -343.4184525980348, -41.96599811466983 -343.5160874843597 M-47.57554373648564 -236.2881637050252 C-47.337135147760875 -238.4961435345107, -45.82635907446642 -247.0233200120992, -45.0170379307105 -250.70821010977605 C-44.207716786954585 -254.3931002074529, -44.566654943087464 -257.0136195513378, -42.719616873950145 -258.3975042910864 C-40.872578804812825 -259.78138903083504, -34.111370256312995 -257.49306843248945, -33.934809515886585 -259.01151854826776 C-33.758248775460174 -260.52996866404607, -39.03868844320484 -264.31835551794853, -41.66025243139168 -267.5082049857562 C-44.281816419578526 -270.6980544535639, -46.855888221372716 -273.37837340180863, -49.66419344500763 -278.15061535511376 C-52.47249866864255 -282.9228573084189, -55.11026571056708 -288.23181789870847, -58.510083773201195 -296.141656705587 C-61.90990183583531 -304.0514955124656, -69.42456149354797 -317.8781250838112, -70.06310182081232 -325.60964819638514 C-70.70164214807667 -333.3411713089591, -67.16806918249429 -339.55709001952886, -62.34132573678734 -342.53079538103066 C-57.51458229108039 -345.50450074253246, -44.735377059379736 -343.17630435314163, -41.10264114657058 -343.4518803653959" stroke="#000000" stroke-width="1" fill="none"></path></g></g><g><g transform="translate(87.75090717429885 100.45728231352882) rotate(0 19.265488439316186 13.336242175474808)"><path d="M-1.11437087059021 -18.67055415778547 C0.980682017154064 -20.01899497463522, 7.049505642636734 -23.855967065932568, 12.197592268863714 -25.176160301559744 C17.345678895090693 -26.49635353718692, 25.45569415868279 -28.466980858597722, 29.77414888677167 -26.591713571548517 C34.09260361486055 -24.716446284499312, 36.89768480404083 -20.38471629729397, 38.10832063739701 -13.924556579264523 C39.318956470753186 -7.464396861235075, 38.12740820138283 4.616159471141721, 37.03796388690873 12.169244736628173 C35.94851957243463 19.722330002114624, 33.00289875281753 24.416337834541746, 31.57165475055242 31.393955013654185 C30.14041074828731 38.37157219276663, 28.76947088679267 50.300060614477914, 28.450499873318066 54.034947811302814 M0.5014456930104645 -16.369212589637705 C2.4255709885368164 -17.653457357810485, 6.14087601742992 -22.446605424013327, 10.976428329560926 -23.960674386399937 C15.811980641691932 -25.474743348786546, 24.921511242333988 -27.23053593152557, 29.514759565796503 -25.45362636395736 C34.108007889259014 -23.676716796389147, 36.98075950391394 -19.555878722657408, 38.535918270336005 -13.299216980990664 C40.09107703675807 -7.042555239323921, 39.835973482947196 4.300865864836226, 38.84571216432891 12.086344086043102 C37.85545084571062 19.871822307249978, 34.285228780272995 26.639093137244753, 32.594350358626265 33.41365234625059 C30.903471936979535 40.18821155525643, 29.320687663694528 49.405098443972015, 28.700441634448534 52.73369934007813" stroke="#000000" stroke-width="1" fill="none"></path></g></g><g><g transform="translate(203.62020821486112 72.4910909516077) rotate(358.18735542929625 -12.605264863005857 3.6815194679596743)" fill-rule="evenodd"><path d="M-11.614817628690794 0.7645947933197021 L-18.244731664657593 1.822853905069235 L-11.10633412661126 9.322297937980837 L-4.28410536573642 0.6129515869215307 L-12.837504396268919 0.45163702964782715" stroke="none" stroke-width="0" fill="#336791" fill-rule="evenodd"></path><path d="M-12.352496251890257 -0.5202256679534912 C-13.660122966624957 0.37040891748458193, -18.713460842240103 2.8049604424723107, -18.613217782974242 4.229436642038229 C-18.512974723708382 5.653912841604148, -13.753688869617898 8.628494521594241, -11.751037896295099 8.02663152944202 C-9.7483869229723 7.424768537289798, -6.446089269513773 2.0796947275580058, -6.597311943037445 0.6182586891248999 C-6.748534616561117 -0.8431773493082059, -11.607974007462314 -0.5141795995699833, -12.658373937437132 -0.7419847011566162 M-10.464689467742861 1.8210519110318275 C-11.460509170813648 2.4879465252494075, -15.851294857495896 1.9392100300435589, -16.223202582662925 2.6131708696713325 C-16.595110307829952 3.287131709299106, -14.261847217885798 6.076865281891642, -12.69613581874503 5.8648169487984685 C-11.130424419604264 5.652768615705295, -7.121118953586134 2.4418148706493117, -6.828934187818328 1.3408808711122897 C-6.536749422050523 0.23994687157526795, -10.066546847026027 -0.7637181795349935, -10.9430272241382 -0.7407870484236627" stroke="#000000" stroke-width="1" fill="none"></path></g></g><g><g transform="translate(122.78565508597421 79.20917707604826) rotate(14.802012269513854 -10.63472048037272 2.847690106393827)" fill-rule="evenodd"><path d="M-13.043734967466293 0.302990198135376 L-16.360145807266235 4.503036027945466 L-13.099391053599307 6.142762062391127 L-6.462370390386938 7.003800312551895 L-2.971234265035358 0.1614952681603545 L-11.339106976743636 0.4007303714752197" stroke="none" stroke-width="0" fill="#336791" fill-rule="evenodd"></path><path d="M-12.121775948759018 -0.6132177829742431 C-12.841722748475023 -0.05390457216279565, -17.051943407667 1.605282817506764, -17.035601949691774 2.75958500484366 C-17.019260491716548 3.9138871921805563, -13.589631461468269 5.917431135735125, -12.023727200907656 6.312595341047134 C-10.457822940347043 6.707759546359142, -8.70076009425282 6.334006263293238, -7.6401763863281 5.130570236715713 C-6.579592678403379 3.9271342101381883, -4.875233984213945 -0.06706421528283957, -5.660224953359332 -0.9080208184180145 C-6.44521592250472 -1.7489774215531895, -11.436360792624695 -0.04203301869924661, -12.350122201200424 0.08483061790466317 M-10.194033153774065 1.6792389356251807 C-10.890108961723618 2.465195704879221, -17.074889477270784 3.2055569731589144, -17.477338436907157 4.117610631002002 C-17.87978739654353 5.029664288845089, -14.225863976510917 6.877697512087061, -12.6087269115923 7.151560882683704 C-10.991589846673682 7.4254242532803465, -9.232507209870437 7.138988285256461, -7.774516047395451 5.760790854581856 C-6.316524884920464 4.3825934239072515, -3.2680517974371734 -0.005726313714799369, -3.8607799367423774 -1.1176237013639247 C-4.453508076047582 -2.2295210890130504, -10.264514201753702 -0.8352450850758286, -11.330884883226675 -0.9105934713128955" stroke="#000000" stroke-width="1" fill="none"></path></g></g></svg>