<svg xmlns="http://www.w3.org/2000/svg" width="264.508" height="263.642" version="1.1" viewBox="0 0 264.508 263.642"><defs><style>@font-face{font-family:&quot;Virgil&quot;;src:url(https://excalidraw.com/FG_Virgil.woff2)}@font-face{font-family:&quot;Cascadia&quot;;src:url(https://excalidraw.com/Cascadia.woff2)}</style></defs><g><g><path fill="none" stroke="#000" stroke-width="1" d="M17.612702708880875 0.6188029363803571 C13.507646682406797 -0.6505237325285655, 1.2638918730692401 -5.227068023513736, -5.918761849335689 -5.7661231677523475 C-13.101415571740617 -6.305178311990959, -19.624621990834683 -3.9727495953376835, -25.4832196255487 -2.6155279290513107 C-31.341817260262715 -1.2583062627649382, -29.238037354707615 3.014012767584715, -41.070347657619784 2.3772068299658873 C-52.902657960531954 1.7404008923470595, -81.2270610241186 -8.975159578839499, -96.47708144302172 -6.436363554764277 C-111.72710186192484 -3.8975675306890554, -126.53551553176429 3.9097780740683437, -132.57047017103852 17.609982974417218 C-138.60542481031277 31.310187874766093, -136.6373571377829 56.10686022053349, -132.68680927866714 75.76486584732898 C-128.73626141955137 95.42287147412446, -117.71808561703325 120.50648524712871, -108.86718301634394 135.55801673519014 C-100.01628041565463 150.60954822325158, -89.19626077823531 166.2487675275449, -79.58139367453128 166.07405477569756 C-69.96652657082726 165.8993420238502, -58.323440721055626 139.79104867488567, -51.17798039411975 134.50974022410608 C-44.032520067183874 129.2284317733265, -40.07217953428499 133.58714541661016, -36.70863171291604 134.38620407102007 C-33.345083891547084 135.18526272543, -31.018960185811206 137.30030148317252, -30.99669346590601 139.30409215056568 C-30.974426746000812 141.30788281795884, -33.87816523394077 144.59279684574122, -36.575031393484856 146.40894807537907 C-39.27189755302894 148.22509930501693, -43.05515324499927 148.0831632389601, -47.17789042317054 150.20099952839274 C-51.30062760134181 152.31883581782537, -62.52223504092997 157.17924828425885, -61.311454462512486 159.11596581197483 C-60.100673884095 161.05268333969082, -46.24241285923783 161.40954066374798, -39.91320695266564 161.8213046946886 C-33.58400104609345 162.2330687256292, -27.496107935467315 161.13759852704075, -23.336219023079323 161.58654999761856 C-19.17633011069133 162.03550146819637, -17.51371165549541 157.24716711614255, -14.953873478337684 164.51501351815543 C-12.394035301179958 171.7828599201683, -11.585614915304713 194.12320401909207, -7.977189960132967 205.1936284096958 C-4.36876500496122 216.26405280029954, -1.3817762040511505 227.74662272624352, 6.696676252692799 230.9375598617778 C14.77512870943675 234.12849699731208, 33.41886701096312 229.67590618812656, 40.49352478033073 224.33925122290145 C47.56818254969834 219.00259625767634, 47.27151768807399 208.8448034197553, 49.14462286889847 198.91763007042718 C51.017728049722955 188.99045672109906, 50.47971121823628 172.73200632653035, 51.73215586527762 164.77621112693276 C52.984600512318956 156.82041592733518, 51.70699308321148 153.17472520040633, 56.6592907511465 151.18285887284168 C61.61158841908152 149.19099254527703, 74.3211969896757 154.96642820905268, 81.44594187288774 152.82501316154477 C88.57068675609979 150.68359811403687, 99.61075250243172 141.2226449295223, 99.40776005041877 138.3343685877942 C99.20476759840582 135.4460922460661, 85.89915510680746 137.39304557465292, 80.22798716081004 135.49535511117625 C74.55681921481263 133.5976646476996, 64.85419883143688 133.91468046179588, 65.38075237443428 126.94822580693413 C65.90730591743169 119.98177115207238, 77.19572756322367 105.79699636042928, 83.38730841879448 93.69662718200574 C89.57888927436528 81.59625800358221, 98.69552834188684 68.14832718458445, 102.53023750785907 54.346010736392934 C106.3649466738313 40.543694288201415, 110.58811433401158 20.864890842242524, 106.39556341462787 10.882728492856641 C102.20301249524417 0.9005661434707584, 87.83478582745467 -2.2588083296781356, 77.37493199155683 -5.546963359922369 C66.915078155659 -8.835118390166603, 53.36178399535141 -10.10805222804064, 43.63644039924087 -8.846201688608762 C33.91109680313033 -7.584351149176883, 23.463225389546036 0.3146119923997286, 19.0228704148936 2.024139876668901 M19.676076100844416 -0.6841935915075239 C15.383536798241568 -2.3987422722210274, 1.1102260160894524 -7.581650294828893, -6.60415952522989 -7.737336256719253 C-14.318545066549232 -7.893022218609613, -20.99544064479819 -3.4899950677465146, -26.61023714707164 -1.6183093628496836 C-32.22503364934509 0.2533763420471471, -28.934236001394588 4.189138540798519, -40.29293853887059 3.4927779726617314 C-51.651641076346586 2.796417404524944, -79.6308622205969 -8.002714783208626, -94.76245237192762 -5.796472771670407 C-109.89404252325835 -3.5902307601321883, -124.78278563392993 3.31467643648884, -131.0824794468549 16.730230041891044 C-137.38217325977988 30.14578364729325, -136.16850473786 54.93105689919429, -132.56061524947748 74.69684886074282 C-128.95272576109497 94.46264082229135, -118.09020998107404 119.80130863405864, -109.43514251655989 135.3249818111822 C-100.78007505204575 150.84865498830575, -90.51655028362018 167.9540530948509, -80.63021046239257 167.83888792348412 C-70.74387064116496 167.72372275211734, -57.413821293993045 140.59041241225276, -50.117103589194244 134.63399078298158 C-42.82038588439544 128.6775691537104, -40.35521308731161 131.33450726880153, -36.849904233599744 132.10035814785707 C-33.34459537988788 132.8662090269126, -29.21499305529176 136.9676587875295, -29.085250466923046 139.22909605731488 C-28.955507878554332 141.49053332710025, -33.46372661756813 143.35924776968326, -36.07144870338747 145.66898176656926 C-38.67917078920681 147.97871576345526, -40.55260363929442 150.98518021748475, -44.73158298183909 153.08750003863085 C-48.91056232438376 155.18981985977695, -62.06066467874204 156.68220145744175, -61.14532475865548 158.28290069344592 C-60.22998483856891 159.8835999294501, -45.35979014724408 162.000471314243, -39.2395434613197 162.69169545465587 C-33.11929677539532 163.38291959506876, -28.7926778916731 162.02924251757977, -24.423844643109188 162.43024553592332 C-20.055011394545275 162.83124855426686, -15.52664434673423 157.97322832703566, -13.02654396993623 165.09771356471708 C-10.526443593138229 172.2221988023985, -12.814903894738192 193.92487778572743, -9.42324238232119 205.17715696201194 C-6.031580869904188 216.42943613829644, -0.8573869486690295 229.52036927658745, 7.32342510456578 232.61138862242407 C15.50423715780059 235.7024079682607, 32.748598662842966 229.0524740802235, 39.66162993708767 223.7232730370317 C46.57466121133237 218.3940719938399, 46.76023709930557 210.63950297922779, 48.801612750033996 200.63618236327332 C50.84298840076242 190.63286174731886, 50.862146515345465 171.5762330840791, 51.90988384145823 163.70334934130486 C52.957621167571 155.83046559853062, 49.886806718896025 155.07873332931015, 55.08803670671058 153.3988799066279 C60.28926669452514 151.71902648394567, 75.55758730530525 156.1233539626685, 83.11726376834555 153.62422880521146 C90.67694023138586 151.12510364775443, 101.21380529054775 141.53378007878513, 100.44609548495242 138.40412896188576 C99.67838567935709 135.2744778449864, 84.22394517362336 137.00436084557603, 78.51100493477355 134.84632210381528 C72.79806469592374 132.68828336205453, 65.38364155933792 132.15459897297052, 66.16845405185353 125.45589651132126 C66.95326654436914 118.75719404967201, 77.44218047326697 106.72541706052486, 83.2198798898672 94.6541073339198 C88.99757930646743 82.58279760731473, 97.0011426563014 67.28689828984858, 100.83465055145491 53.02803815169086 C104.66815844660843 38.76917801353314, 110.09393653869827 19.138533274000867, 106.22092726078834 9.10094650497349 C102.34791798287841 -0.9366402640538887, 88.29860923448626 -4.069127507521765, 77.59659488399531 -7.1974824624734115 C66.89458053350435 -10.325837417425058, 51.99475030547252 -10.871296371504313, 42.00884115784259 -9.66918322473639 C32.02293201021266 -8.467070077968467, 21.665176254673185 -1.7451774551239252, 17.68113999821571 0.015196418134123535" transform="translate(146.37320316174907 20.256686844298088) rotate(0 -14.119437577583142 111.56444624309643)"/></g></g><g><g><path fill="none" stroke="#000" stroke-width="1" d="M-55.847119463151905 -1.0161953452974557 C-58.457099505058856 1.7601643946356944, -67.49916471016452 8.520243581309252, -71.61825019858334 16.669850426740865 C-75.73733568700216 24.819457272172478, -79.48611953424562 36.9101327410436, -80.56163239366481 47.881445727292224 C-81.637145253084 58.85275871354085, -77.8425217715887 73.50215693138676, -78.07132735509852 82.49772834423263 C-78.30013293860834 91.49329975707849, -82.0447406208077 95.6578265858008, -81.93446589472379 101.85487420436738 C-81.82419116863987 108.05192182293395, -80.1357242961201 115.41934627889137, -77.40967899859501 119.68001405563204 C-74.68363370106992 123.94068183237272, -70.21972167393318 125.07599305659508, -65.57819410957323 127.4188808648114 C-60.93666654521329 129.76176867302772, -54.53080846228838 131.87497228347874, -49.560513612435365 133.7373409049299 C-44.59021876258235 135.59970952638108, -38.80158760358521 135.9961925265459, -35.75642501045514 138.5930925935184 C-32.71126241732507 141.1899926604909, -30.96220504285909 146.3982345763298, -31.289538053654915 149.3187413067649 C-31.61687106445074 152.2392480372, -36.81104274977233 154.9391117938152, -37.72042307523009 156.11613297612897 M-57.10470474430418 1.0646981530822814 C-59.823546273718954 4.038194403029965, -68.08557933344365 10.68996327469059, -72.12818991029192 18.170026542093524 C-76.1708004871402 25.650089809496457, -80.31680032361571 35.60774905744034, -81.3603682053938 45.94507775749989 C-82.40393608717189 56.28240645755944, -78.63531298440448 70.85752310032163, -78.38959720096045 80.19399874245082 C-78.14388141751643 89.53047438458, -80.21439996657236 95.45154717956991, -79.88607350472967 101.96393161027504 C-79.55774704288697 108.47631604098017, -78.80894246773526 115.1949842438143, -76.41963842990427 119.26830532668157 C-74.03033439207327 123.34162640954884, -70.37951687894886 124.03165174426488, -65.55024927774372 126.40385810747863 C-60.72098167653857 128.77606447069238, -52.67029595415309 131.6442524820118, -47.44403282267337 133.5015435059641 C-42.21776969119365 135.35883452991638, -36.947124212895865 134.9685244918322, -34.19267048886541 137.54760425119227 C-31.43821676483495 140.12668401055234, -30.355908708611054 145.72858506328262, -30.917310478490627 148.97602206212457 C-31.4787122483702 152.22345906096652, -36.412687050609385 155.85706608762126, -37.561081108142844 157.03222624424401" transform="translate(166.3086171981712 22.99988976860027) rotate(0 -56.35620398857645 78.00801544947329)"/></g></g><g><g><path fill="none" stroke="#000" stroke-width="1" d="M0.49520526565611367 0.053378486260771796 C2.459300188252916 0.5660063913882971, 6.691862664853571 -0.2211978315920753, 12.269822840196431 2.7380345312036276 C17.847783015539292 5.6972668939993305, 28.821602141879684 9.593981183022077, 33.962966317713274 17.80877266303499 C39.10433049354686 26.023564143047903, 42.10098852921347 41.049536995120754, 43.11800789519797 52.02678341128111 C44.13502726118247 63.004029827441464, 39.45467727199954 74.54587151896543, 40.06508251362028 83.67225115999712 C40.67548775524102 92.7986308010288, 46.38350928242568 99.83907566743176, 46.780439344922414 106.78506125747127 C47.17736940741915 113.73104684751078, 43.147366794654225 122.37867605275763, 42.44666288860068 125.34816470023424 M-0.7039506992138922 -0.9642017537914217 C1.5850429211167893 -0.21653553658637414, 8.78173281134793 1.0106435976004975, 14.474055280768663 4.282173393414885 C20.166377750189397 7.553703189229273, 28.609230696562868 10.50194429473933, 33.449984117310514 18.664977021094902 C38.29073753805816 26.828009747450473, 42.08835423277761 42.32941373958852, 43.518575805254535 53.26036975154832 C44.94879737773146 64.19132576350812, 41.31500947548834 74.95166612668298, 42.03131355217206 84.25071309285372 C42.74761762885578 93.54976005902445, 47.605018415984404 102.3964616804218, 47.81640026535686 109.05465154857276 C48.02778211472932 115.71284141672373, 44.29759983627969 121.69782835581627, 43.2996046484068 124.19985230175956" transform="translate(163.3359160925462 21.385930222924628) rotate(0 23.556224783071457 62.191981473221404)"/></g></g><g><g><path fill="none" stroke="#000" stroke-width="1" d="M-48.79098734510678 -236.44659545584986 C-48.52620909558728 -238.82467906268437, -47.24596671900389 -247.7239294800135, -45.85608198859569 -251.3639282855356 C-44.46619725818749 -255.00392709105768, -42.59628063561334 -256.88542346802126, -40.4516789626576 -258.2865882889824 C-38.307077289701866 -259.6877531099435, -32.708232481705835 -258.5495503699482, -32.988471950861275 -259.7709172113024 C-33.268711420016714 -260.9922840526566, -39.27829151397989 -262.2881849002396, -42.133115777590255 -265.6147893371077 C-44.98794004120062 -268.9413937739758, -47.72000079330696 -274.3763332394148, -50.11741753252348 -279.73054383251093 C-52.51483427174001 -285.08475442560706, -53.28958679832421 -290.21004502291333, -56.517616212889415 -297.7400528956846 C-59.74564562745462 -305.27006076845583, -68.2460739863034 -317.3576628810741, -69.48559401991474 -324.9105910691385 C-70.72511405352608 -332.4635192572029, -68.68708085956017 -339.61975366585995, -63.954736414557495 -343.05762202407107 C-59.22239196955483 -346.4954903822822, -44.64224910582988 -345.28685854847674, -41.091527349898726 -345.5378012184053 M-47.202668238725394 -237.09501131994125 C-47.02730490345626 -239.2704207065714, -47.34542575769734 -246.401186251917, -46.29825754294943 -249.78011249510217 C-45.251089328201516 -253.15903873828734, -43.23791718874065 -255.3534794768184, -40.91965895023793 -257.3685687790522 C-38.60140071173521 -259.38365808128606, -31.969833128399088 -260.0543669002764, -32.38870811193308 -261.87064830850517 C-32.807583095467066 -263.6869297167339, -40.677026988644606 -265.108282440838, -43.43290885144187 -268.2662572284246 C-46.18879071423914 -271.42423201601116, -46.31838301687209 -276.25464695187384, -48.92399928871667 -280.8184970340247 C-51.529615560561254 -285.38234711617554, -55.44080090949214 -288.3364052104252, -59.066606482509386 -295.6493577213295 C-62.69241205552663 -302.96231023223385, -69.59868537279996 -316.6019004571825, -70.67883272682013 -324.6962120994505 C-71.7589800808403 -332.7905237417185, -70.08911718938464 -341.1854306232102, -65.54749060663039 -344.21522757493767 C-61.00586402387614 -347.24502452666513, -47.25465735850497 -342.9756234275656, -43.42907323029465 -342.87499380981546" transform="translate(247.23332837998362 412.439992842719) rotate(0 -51.692326997070836 -290.99653622580263)"/></g></g><g><g><path fill="none" stroke="#000" stroke-width="1" d="M0.8967742200940847 -18.685881736195977 C2.8932213200843 -19.43430322921989, 6.83918779215129 -22.10892784880322, 11.520054815316595 -23.386580474593817 C16.2009218384819 -24.664233100384415, 24.78574420952257 -28.02097677149233, 28.98197635908591 -26.351797490939553 C33.17820850864925 -24.682618210386778, 35.16097346848611 -19.977594859133433, 36.69744771269663 -13.371504791277172 C38.233921956907146 -6.7654147234209105, 39.086349648745134 5.6787650969052565, 38.200821824349006 13.284742916198013 C37.31529399995288 20.89072073549077, 32.83905998443963 25.355149464924875, 31.384280766319876 32.26436212447936 C29.929501548200122 39.173574784033846, 29.74568111104859 50.943795671966, 29.472146515630474 54.74001887352494 M-0.09155804369598619 -16.39258714671373 C2.2921934255054257 -17.37180244605211, 8.870141295439618 -23.442370617891072, 13.603183712901568 -24.891565150276897 C18.33622613036352 -26.34075968266272, 24.509837569864658 -27.160379698689844, 28.306696461075717 -25.08775434102869 C32.103555352286776 -23.015128983367532, 34.942274717192994 -18.93501852946259, 36.38433706016793 -12.455813004309954 C37.826399403142865 -5.976607479157321, 37.63835919017471 6.531339444125617, 36.95907051892533 13.787478809887109 C36.27978184767595 21.0436181756486, 33.4253746584967 24.410780873579032, 32.308605032671636 31.081023190258993 C31.19183540684657 37.75126550693895, 30.809408255684804 49.77679440664134, 30.258452763974955 53.80893270996687" transform="translate(86.593382802463 100.96178437313245) rotate(0 19.232723187625197 13.966492228238593)"/></g></g><g><g><path fill="none" stroke="#000" stroke-width="1" d="M-10.717999325001433 0.6809321824461221 C-12.099241745703083 1.267824037266672, -18.85751456404055 1.5877554131188114, -19.122621143236756 2.8198334102654488 C-19.387727722432963 4.051911407412086, -14.657660792388041 8.199810484042956, -12.308638800178676 8.073400165325946 C-9.95961680796931 7.946989846608936, -5.053265907535838 3.4562007644505393, -5.0284891899805615 2.0613714979633864 C-5.003712472425285 0.6665422314762337, -11.085067167987278 -0.0781313001232814, -12.159978494847014 -0.2955754335969687 M-11.632081654237405 -0.0071823671087623 C-12.740165308907791 0.8065045829170946, -17.29097678324158 3.132972360279472, -17.00004270706326 4.123525941217842 C-16.709108630884938 5.114079522156212, -11.980404400110263 6.643122124625935, -9.886477197167483 5.936139118521458 C-7.792549994224704 5.229156112416981, -4.387063326569783 0.8809865769104249, -4.436479489406581 -0.11837209540901816 C-4.4858956522433795 -1.1177307677284611, -8.659113916826596 -0.09874452287877308, -10.18297417418827 -0.06001291539520026" transform="translate(202.46268384302505 72.99559301121135) rotate(358.18735542929625 -11.77955031632166 3.7597981022463216)"/></g></g><g><g><path fill="none" stroke="#000" stroke-width="1" d="M-12.724649744611082 0.46578264199197283 C-13.799860194744415 1.2934265579692834, -17.613898924824912 2.6505140879243347, -17.40608840547502 3.8078778916819767 C-17.19827788612513 4.965241695439619, -13.230977134895253 6.920429141706437, -11.477786628511735 7.409965464537825 C-9.724596122128217 7.899501787369212, -7.784013853026028 7.791816521786065, -6.886945367173909 6.745095828670301 C-5.9898768813217895 5.698375135554538, -5.316246276941773 2.228553519730526, -6.09537571339902 1.1296413058432453 C-6.874505149856266 0.030729091955964627, -10.472673962446791 0.48494649886493085, -11.561721985917387 0.1516225453466178 M-11.113415692448465 -0.3352854163013399 C-12.351268567284443 0.24987567833064128, -17.931871640936603 0.5295346605457105, -18.04233028197661 2.056257283430435 C-18.15278892301662 3.5829799063151597, -13.678916128487069 8.407269471193313, -11.776167538688519 8.825050321007009 C-9.873418948889968 9.242831170820704, -7.83446919199958 5.702148929458023, -6.6258387431853105 4.562942382312604 C-5.417208294371041 3.423735835167186, -3.940595543847111 2.8850907321805837, -4.5243848458029 1.9898110381344971 C-5.10817414775869 1.0945313440884106, -8.794891785732402 -0.6416013207904578, -10.128574554920046 -0.8087357819639147" transform="translate(121.62813071413836 79.71367913565194) rotate(14.802012269513854 -11.222531359034974 4.014627420018655)"/></g></g></svg>