<svg version="1.1" xmlns="http://www.w3.org/2000/svg" viewBox="0 0 301.85237689615417 315.5770761447977" width="301.85237689615417" height="315.5770761447977">
  <!-- svg-source:excalidraw -->
  
  <defs>
    <style>
      @font-face {
        font-family: "Virgil";
        src: url("https://excalidraw.com/FG_Virgil.woff2");
      }
      @font-face {
        font-family: "Cascadia";
        src: url("https://excalidraw.com/Cascadia.woff2");
      }
    </style>
  </defs>
  <g><g transform="translate(257.0814687610914 137.89444563014075) rotate(0 -139.89119394878622 -24.69525839110497)"><path d="M-109.1122341302055 -57.874339399890175 C-121.20203959694624 -58.33688723534179, -168.2842226464952 -59.83173334866653, -182.14179963624304 -60.80805809757072 C-195.99937662599086 -61.78438284647491, -190.99120369995512 -57.851982975222555, -192.2576960686925 -63.7322878933153 C-193.52418843742987 -69.61259281140805, -191.98420921265136 -87.15162233046539, -189.74075384866725 -96.08988760612722 C-187.49729848468314 -105.02815288178905, -185.44229544600412 -112.58685417395078, -178.79696388478786 -117.36187954728632 C-172.1516323235716 -122.13690492062186, -161.22042276263537 -123.0040832832934, -149.8687644813696 -124.74003984614046 C-138.51710620010383 -126.47599640898753, -123.39858064251786 -127.52333643104575, -110.68701419719318 -127.77761892436867 C-97.9754477518685 -128.03190141769159, -83.95553153004262 -128.01840727045615, -73.59936580942153 -126.26573480607793 C-63.243200088800435 -124.51306234169971, -54.94097635990488 -122.15926897215408, -48.55001987346664 -117.26158413809938 C-42.1590633870284 -112.36389930404468, -37.81876635289881 -107.63947660368743, -35.2536268907921 -96.87962580174974 C-32.688487428685384 -86.11977499981205, -33.13264012559473 -66.24514527048953, -33.15918310082634 -52.70247932647321 C-33.185726076057946 -39.159813382456896, -32.54825624412892 -25.309565503591905, -35.41288474218175 -15.623630137651846 C-38.27751324023458 -5.937694771711788, -43.627535690035316 0.3207709253211366, -50.34695408914333 5.413132869167133 C-57.066372488251346 10.50549481301313, -64.95174444590984 13.390863623676067, -75.72939513682987 14.930541525424134 C-86.50704582774989 16.470219427172204, -102.20475795885658 14.259931935512101, -115.01285823466348 14.651200279655537 C-127.82095851047039 15.042468623798973, -142.44915528816117 15.326948824079427, -152.5779967916713 17.27815159028475 C-162.70683829518143 19.229354356490074, -170.34063746211228 20.838549764104194, -175.78590725572425 26.358416876887475 C-181.23117704933622 31.878283989670756, -183.3831013638581 42.97791536317275, -185.24961555334318 50.39735426698443 C-187.11612974282826 57.81679317079611, -186.2314249740987 66.33259375531047, -186.98499239263484 70.87505029975756 C-187.73855981117097 75.41750684420465, -185.37780603917992 76.56899081405882, -189.77102006455996 77.65209353366696 C-194.16423408994 78.73519625327509, -206.4017415043762 78.93336062418264, -213.34427654491512 77.37366661740639 C-220.28681158545405 75.81397261063013, -226.69123737504742 73.36120363668354, -231.42623030779356 68.29392949300941 C-236.1612232405397 63.22665534933529, -239.14502773250896 56.53545062640798, -241.75423414139192 46.97002175536163 C-244.36344055027487 37.40459288431528, -247.0668056515455 22.062415476812674, -247.08146876109134 10.901356266731318 C-247.09613187063718 -0.25970294335003885, -244.91077287078542 -11.569703042244397, -241.84221279866694 -19.996333505126515 C-238.77365272654845 -28.42296396800863, -235.04979884338945 -34.935533788179626, -228.67010832838045 -39.65842651056139 C-222.29041781337145 -44.381319232943156, -216.23066374095015 -46.78477164874007, -203.56406970861292 -48.33368983941712 C-190.8974756762757 -49.88260803009417, -166.66248442560578 -48.96327243132324, -152.67054413435707 -48.9519356546237 C-138.67860384310836 -48.94059887792417, -126.89841336001943 -48.12265676030365, -119.61242796112069 -48.26566917921991 C-112.32644256222194 -48.40868159813618, -110.43631658012518 -48.008034232771905, -108.95463174096463 -49.810010168121295 C-107.47294690180408 -51.611986103470684, -110.67835781121025 -57.623978815467225, -110.72231892615734 -59.077524791316264 M-110.31858403815134 -58.390745853607676 C-122.01358347449943 -58.821400605606115, -165.96118141231116 -59.198318050074235, -179.77772703368416 -59.859459977823825 C-193.59427265505715 -60.520601905573415, -191.09132535107932 -56.484204391923186, -193.2178577663894 -62.357597420105236 C-195.34439018169945 -68.23099044828729, -195.2242147688287 -85.89982456722579, -192.53692152554447 -95.09981814691614 C-189.84962828226026 -104.29981172660648, -184.46246610764354 -112.47486217049875, -177.09409830668403 -117.55755889824732 C-169.72573050572453 -122.64025562599589, -159.53442412955988 -124.20406609556764, -148.32671471978745 -125.59599851340757 C-137.119005310015 -126.98793093124749, -122.16891193271448 -125.73504551244594, -109.8478418480494 -125.90915340528686 C-97.52677176338432 -126.08326129812778, -84.37459979841249 -127.84278975309286, -74.40029421179695 -126.64064587045311 C-64.4259886251814 -125.43850198781337, -56.577795717013196 -123.51645594809887, -50.00200832835614 -118.69629010944841 C-43.426220939699085 -113.87612427079796, -37.79128218372483 -108.35114640622277, -34.94556987985462 -97.7196508385504 C-32.0998575759844 -87.08815527087802, -32.65567830828175 -68.4512617553588, -32.92773450513487 -54.90731670341421 C-33.19979070198799 -41.36337165146962, -33.65709736873431 -26.899491330249468, -36.57790706097335 -16.455980526882843 C-39.49871675321239 -6.012469723516219, -43.78711427728051 2.582786012459997, -50.452592658569124 7.753748116785539 C-57.11807103985774 12.92471022111108, -65.35147316593034 13.575819513985133, -76.57077734870504 14.569792099070412 C-87.79008153147973 15.563764684155691, -105.17897684995195 13.609839870904214, -117.76841775521729 13.717583627297214 C-130.35785866048263 13.825327383690215, -142.23320597554505 13.086218117756488, -152.10742278029704 15.216254637428417 C-161.98163958504904 17.346291157100346, -171.3425623766623 21.080999519307174, -177.0137185837293 26.49780274532879 C-182.68487479079627 31.914605971350408, -184.22096796086603 40.229411191931675, -186.13436002269896 47.71707399355811 C-188.04775208453188 55.204736795184544, -187.9962749520204 66.69930949719443, -188.49407095472688 71.42377955508738 C-188.99186695743336 76.14824961298032, -185.33222955838522 75.30129525492598, -189.1211360389378 76.06389434091575 C-192.9100425194904 76.82649342690553, -204.27407640589902 77.4153292149302, -211.22750983804238 75.99937407102607 C-218.18094327018574 74.58341892712194, -225.81539339933582 72.0057552119978, -230.84173663179794 67.56816347749096 C-235.86807986426007 63.13057174298412, -238.88593573817496 59.00510912351426, -241.3855692328152 49.37382366398506 C-243.8852027274554 39.742538204455855, -245.44149183411523 21.31569665422539, -245.83953759963927 9.78045072031572 C-246.23758336516332 -1.7547952135939529, -246.79505798144905 -11.566279885971776, -243.7738438259594 -19.83765193947298 C-240.75262967046976 -28.109023992974187, -234.57062240775122 -35.009809095704576, -227.71225266670137 -39.84778160069151 C-220.85388292565153 -44.68575410567845, -215.33403327777842 -47.66568388518099, -202.62362537966035 -48.86548696939461 C-189.9132174815423 -50.06529005360823, -165.22704966558288 -47.421971365509485, -151.44980527799305 -47.046600105973226 C-137.67256089040322 -46.67122884643697, -126.7546654644918 -45.94799174602551, -119.9601590541213 -46.61325941217707 C-113.16565264375082 -47.278527078328636, -112.67141235985332 -49.24641749003058, -110.6827668157701 -51.038206102882604 C-108.69412127168687 -52.82999471573463, -108.28656894511872 -55.85362371172489, -108.0282857896219 -57.36399108928921" stroke="#000000" stroke-width="1" fill="none"></path></g></g><g><g transform="translate(322.59655110738186 225.87402340625187) rotate(180 -139.47465816177885 -24.455509113054433)"><path d="M-108.24288759553049 -60.00391011054921 C-120.54219556723069 -60.28777409285141, -167.2833378732959 -58.90184284716736, -180.8946006539078 -59.57752329370338 C-194.50586343451968 -60.2532037402394, -188.22193240218343 -57.82255824825952, -189.91046427920193 -64.05799278976535 C-191.59899615622044 -70.29342733127119, -193.24159361450197 -88.35072734288221, -191.02579191601876 -96.99013054273838 C-188.80999021753556 -105.62953374259456, -183.73237600953792 -111.06950601559126, -176.6156540883027 -115.89441198890239 C-169.4989321670675 -120.71931796221352, -159.65463993932963 -124.08975216900126, -148.32546038860747 -125.93956638260515 C-136.9962808378853 -127.78938059620904, -121.51621613002077 -126.93344570066475, -108.6405767839698 -126.99329727052574 C-95.76493743791885 -127.05314884038674, -81.12058223507348 -127.81383338883, -71.07162431230168 -126.29867580177113 C-61.022666389529874 -124.78351821471225, -54.5632876239334 -123.07784152912659, -48.34682924733895 -117.90235174817248 C-42.13037087074451 -112.72686196721837, -36.54335520689142 -106.13131090188814, -33.77287405273501 -95.24573711604646 C-31.002392898578606 -84.36016333020477, -31.625710050040254 -66.20410718220785, -31.723942322400507 -52.58890903312237 C-31.82217459476076 -38.9737108840369, -31.725552415138253 -23.771758050922198, -34.36226768689653 -13.554548221533613 C-36.99898295865481 -3.3373383921450284, -41.37357047693675 3.883621946428062, -47.544233952950165 8.714349943209134 C-53.71489742896358 13.545077939990207, -60.09924810656255 14.285460443036712, -71.38624854297703 15.429819759152824 C-82.6732489793915 16.574179075268937, -101.997867819775 15.50139362549693, -115.26623657143703 15.580505839905813 C-128.53460532309907 15.659618054314697, -141.2799477067313 13.496976475184374, -150.99646105294923 15.904493045606124 C-160.71297439916717 18.312009616027876, -167.44745809162401 24.527186549842938, -173.56531664874464 30.025605262436315 C-179.68317520586527 35.52402397502969, -185.0781223949745 42.41663695611166, -187.70361239567305 48.89500532116638 C-190.32910239637158 55.3733736862211, -188.4449689984533 64.22383005033777, -189.3182566529359 68.89581545276465 C-190.1915443074185 73.56780085519154, -189.26194499792774 75.25512816502807, -192.94333832256865 76.92691773572766 C-196.62473164720956 78.59870730642724, -205.05676655637097 80.68788529621405, -211.40661660078135 78.9265528769622 C-217.75646664519172 77.16522045771036, -225.74595925251282 71.63556282714755, -231.0424385890308 66.3589232202166 C-236.3389179255488 61.08228361328563, -240.6608165569559 56.47697099546087, -243.18549261988926 47.26671523537643 C-245.71016868282263 38.056459475291994, -246.33831987582136 22.278970559610677, -246.19049496663106 11.097388659709987 C-246.04267005744077 -0.08419324019070551, -245.16061775962328 -11.347192835545025, -242.29854316474754 -19.82277616402773 C-239.4364685698718 -28.298359492510436, -235.69068589808606 -34.990601172422636, -229.01804739737662 -39.75611131118624 C-222.34540889666718 -44.52162144994984, -215.13040825172942 -46.95290246376921, -202.26271216049093 -48.41583699660935 C-189.39501606925245 -49.87877152944949, -166.12666608165068 -48.56940564198226, -151.81187084994565 -48.53371850822706 C-137.49707561824061 -48.498031374471864, -123.58124937776556 -47.91868445643631, -116.3739407702607 -48.201714194078164 C-109.16663216275585 -48.48474393172002, -110.09618981260188 -48.51030162922194, -108.56801920491648 -50.23189693407817 C-107.03984859723109 -51.9534922389344, -107.21402996940127 -57.0507842520784, -107.20491712414835 -58.53128602321552 M-106.38990825868387 -57.978341187362695 C-118.92177955614682 -57.526503063308276, -168.09222267767507 -57.17023503528799, -182.0371095178449 -57.98289440192613 C-195.98199635801473 -58.795553768564275, -188.52124517327653 -56.439331683304545, -190.0592292997028 -62.85429738719155 C-191.59721342612906 -69.26926309107856, -193.28207667332336 -87.72845971116146, -191.26501427640247 -96.47268862524818 C-189.24795187948158 -105.2169175393349, -184.77152521714112 -110.77090622900047, -177.95685491817744 -115.31967087171182 C-171.14218461921377 -119.86843551442317, -162.07434141555711 -121.58971114627212, -150.3769924826204 -123.76527648151622 C-138.6796435496837 -125.94084181676033, -120.85600797225416 -127.88546214861489, -107.77276132055725 -128.3730628831764 C-94.68951466886034 -128.8606636177379, -82.03654123698344 -128.75081458361302, -71.87751257243897 -126.69088088888526 C-61.718483907894516 -124.6309471941575, -53.282540994229606 -121.25727909748194, -46.81858933329049 -116.01346071480988 C-40.35463767235137 -110.76964233213782, -35.704217288072684 -105.89483160239128, -33.09380260680427 -95.22797059285288 C-30.48338792553585 -84.56110958331449, -31.2634440371444 -66.08139868652015, -31.15610124568 -52.012294657579524 C-31.048758454215598 -37.943190628638895, -29.733757074492193 -20.768869725040986, -32.449745858017856 -10.81334641920911 C-35.16573464154352 -0.8578231133772345, -40.94119186490645 3.441603260919541, -47.452033946833986 7.720845177411727 C-53.96287602876152 12.000087093903913, -60.173216288303045 13.587359647719271, -71.51479834958306 14.862105079744007 C-82.85638041086307 16.136850511768742, -102.43135858798038 15.08852158386544, -115.50152631451405 15.369317769560142 C-128.57169404104772 15.650113955254845, -140.11626930038472 14.48732923139777, -149.93580470878507 16.546882193912225 C-159.75534011718543 18.60643515642668, -167.88956291474767 22.225269547474223, -174.4187387649162 27.726635544646875 C-180.94791461508476 33.22800154181953, -186.4237437353797 42.61891425689788, -189.11085980979632 49.55507817694814 C-191.79797588421295 56.491242096998405, -189.90738274649036 64.49979855293006, -190.5414352114159 69.34361906494843 C-191.17548767634142 74.1874395769668, -189.30635636523607 77.11401682374161, -192.91517459934946 78.61800124905832 C-196.52399283346284 80.12198567437504, -205.95232179462909 80.0909793397781, -212.19434461609615 78.3675256168487 C-218.4363674375632 76.64407189391929, -225.13338237218818 73.64415297745542, -230.3673115281518 68.27727891148191 C-235.6012406841154 62.9104048455084, -240.6356710460551 55.86592768631992, -243.5979195518777 46.16628122100763 C-246.5601680577003 36.46663475569534, -248.59989541864007 21.03594315549235, -248.1408025630873 10.07940011960819 C-247.68170970753454 -0.8771429162759716, -244.13644195549625 -11.226951820755236, -240.84336241856101 -19.572976994297335 C-237.55028288162578 -27.919002167839434, -235.02666098013708 -35.093786856675166, -228.3823253414758 -39.996750921644406 C-221.7379897028145 -44.899714986613645, -213.8965728056213 -47.31208337810044, -200.9773485865933 -48.990761384112766 C-188.0581243675653 -50.66943939012509, -165.0285817643353 -49.8713245117645, -150.86698002730782 -50.068818957718356 C-136.70537829028032 -50.266313403672214, -123.23701263623391 -49.90693398262782, -116.00773816442833 -50.1757280598359 C-108.77846369262275 -50.444522137043975, -108.92906860263399 -50.012375269616896, -107.49133319647429 -51.681583420966845 C-106.05359779031458 -53.350791572316794, -107.11072547431624 -59.24950200255694, -107.38132572747011 -60.19097696793558" stroke="#000000" stroke-width="1" fill="none"></path></g></g><g transform="translate(81.9299916090971 34.75788618296595) rotate(0 13.444490555771381 13.444490555771395)"><path d="M18.836597610050866 1.785682935666836 C21.411191227755467 3.1017446193655784, 25.092966005325174 6.034208143071837, 26.206786609359398 8.731259775447302 C27.32060721339362 11.428311407822768, 26.469926336132914 15.222901390814268, 25.51952123425622 17.96799272991963 C24.569116132379527 20.71308406902499, 22.84435774249738 23.858732093234334, 20.504355998099225 25.201807810079465 C18.16435425370107 26.544883526924597, 14.42532069959286 26.51171176223165, 11.479510767867295 26.026447030990422 C8.53370083614173 25.541182299749195, 4.617086876097517 24.24562127605778, 2.829496407745836 22.290219422632113 C1.0419059393941552 20.334817569206447, 0.857293698528272 17.23812084956493, 0.7539679577572098 14.294035910436424 C0.6506422169861477 11.349950971307917, 0.6891992061901238 6.995780608091305, 2.209541963119463 4.625709787861073 C3.729884720048802 2.25563896763084, 6.744220280831959 0.2737138058149696, 9.876024499333246 0.07361098905502672 C13.007828717834533 -0.12649182770491615, 19.004015098665477 2.9485929300691915, 21.000367274127182 3.4250928873014157 C22.996719449588888 3.90159284453364, 21.848173838807824 2.8957984141002897, 21.85413755210348 2.9326107324483726 M6.903526414596833 2.23832258502207 C9.152718696791599 0.6471717175716531, 14.016481175330618 0.3427800354994339, 16.69779401124431 0.7650983177869026 C19.379106847158 1.1874166000743713, 21.176540489099107 2.3206915228660323, 22.991403430078975 4.772232278746882 C24.806266371058843 7.223773034627732, 27.366583353523794 12.67561219134836, 27.58697165712352 15.474342853072002 C27.807359960723247 18.273073514795644, 26.526272325866692 19.775161301251057, 24.313733251677327 21.564616249088736 C22.10119417748796 23.354071196926416, 17.290721013511295 25.722231105117515, 14.311737211987337 26.211072540098073 C11.332753410463381 26.69991397507863, 8.797643117732273 25.959759379784206, 6.439830442533589 24.49766485897207 C4.082017767334905 23.035570338159932, 1.2771272188576448 20.166915180875723, 0.16486116079523683 17.438505415225254 C-0.9474048972671711 14.710095649574786, -1.3356804235685924 10.829962544098803, -0.23376590584085832 8.127206265069255 C0.8681486118868758 5.424449986039706, 5.696624431740036 2.2460349948984266, 6.776348267161642 1.2219677410479584 C7.856072102583248 0.19790048719748987, 5.9665586952820995 1.6839639079603719, 6.244577106688778 1.9828027419664433" stroke="#000000" stroke-width="1" fill="none"></path></g><g transform="translate(186.99382050327688 249.72814648123403) rotate(0 14.357448744050146 14.357448744050174)"><path d="M9.246658576041618 1.3668398658889416 C11.922523813329699 0.12240704434084537, 15.191721642402415 0.10000961454809254, 18.061497123075025 1.05151305265405 C20.931272603747637 2.0030164907600074, 24.725989017856417 4.6511880772577765, 26.46531146007728 7.075860494524686 C28.204633902298145 9.500532911791595, 29.013535040994395 12.634122102389476, 28.497431776400212 15.599547556255501 C27.98132851180603 18.564973010121527, 25.51307994595263 22.618647689115065, 23.368691872512187 24.868413217720835 C21.224303799071745 27.118178746326606, 18.71078138905281 29.050225641345158, 15.631103335757551 29.098140727890126 C12.551425282462294 29.146055814435094, 7.573519490269499 27.14713195229431, 4.890623552740642 25.155903736990652 C2.2077276152117853 23.164675521686995, 0.11550713383003808 19.91771205533537, -0.46627228941559196 17.150771436068176 C-1.048051712661222 14.383830816800982, -0.44180285899911564 11.502621415316472, 1.3999470132668623 8.554260021387485 C3.24169688553284 5.605898627458497, 8.47445238529106 0.8272750462021603, 10.584226944180276 -0.5393969275057451 C12.694001503069492 -1.9060689012136505, 14.067369268237654 -0.13428404299077518, 14.058594366602158 0.354228179140053 M21.454268306762508 2.1193510213758255 C23.99065274699192 3.131262618846903, 25.351925319940104 5.47218879802041, 26.565007127682804 8.493806209622019 C27.778088935425505 11.515423621223627, 29.339800153578004 17.400438231183074, 28.732759153218712 20.249055490985477 C28.12571815285942 23.09767275078788, 25.801214307222466 24.28970077383083, 22.922761125527053 25.585509768436438 C20.04430794383164 26.881318763042046, 14.633834163910256 28.341264100400533, 11.462040063046231 28.023909458619134 C8.290245962182206 27.706554816837734, 5.879297604806668 25.884994534663743, 3.8919965203429 23.68138191774804 C1.9046954358791324 21.47776930083234, -0.10996737540134721 17.86051907999804, -0.46176644373637465 14.802233757124924 C-0.813565512071402 11.74394843425181, -0.1153038399722357 7.798306838497704, 1.7812021103327353 5.331669980509352 C3.6777080606377064 2.865033122520999, 7.88253713776033 0.5800131458221639, 10.917269258093452 0.002412609194808013 C13.952001378426573 -0.5751879274325479, 18.216588799275847 1.4998177502565768, 19.989594832331466 1.8660667607452162 C21.762600865387085 2.2323157712338557, 21.723131409396743 2.0628956431679333, 21.555305456427163 2.1999066721266445" stroke="#000000" stroke-width="1" fill="none"></path></g></svg>