<svg version="1.1" xmlns="http://www.w3.org/2000/svg" viewBox="0 0 302.75389013393965 315.8010255324062" width="302.75389013393965" height="315.8010255324062">
  <!-- svg-source:excalidraw -->
  
  <defs>
    <style>
      @font-face {
        font-family: "Virgil";
        src: url("https://excalidraw.com/FG_Virgil.woff2");
      }
      @font-face {
        font-family: "Cascadia";
        src: url("https://excalidraw.com/Cascadia.woff2");
      }
    </style>
  </defs>
  <g><g transform="translate(257.3389155865957 137.82829003255267) rotate(0 -140.22163061016988 -24.18292143991785)" fill-rule="evenodd"><path d="M-110.90521650061189 -57.32634128670501 L-189.88249264742447 -58.913024987583874 L-192.1339980780828 -77.38997199059351 L-189.24086142983566 -97.78293818659897 L-185.83793007763845 -106.06130169675899 L-176.66015951346068 -114.87807121385961 L-163.85984748551198 -121.49018843941187 L-149.21227571186816 -124.17064724175961 L-92.54528520138189 -128.04223454284147 L-74.11337450505374 -125.97948166893646 L-58.7516151857022 -123.54212250974493 L-47.346934731837656 -119.13871256557508 L-41.536107386094464 -108.14716567219682 L-37.22697011564813 -104.82537660649109 L-32.479266602486135 -88.22993590084961 L-33.746594149222005 -32.329384977299796 L-34.26902830691264 -14.929643262087986 L-43.365117231603335 -1.177674567104268 L-49.87843927193528 5.091874319029851 L-62.24519250622858 12.294259758062646 L-86.42301420395216 15.801087583397994 L-134.61836608003208 13.949713478339211 L-152.20107720694998 17.163425673452064 L-163.9307873577704 21.808377267927213 L-177.39228216992336 27.434933571463024 L-183.49832037394899 38.79544605815748 L-187.538250802034 50.88526471127388 L-188.97217976310947 74.84213555861244 L-190.69916141485908 76.94097324484788 L-202.0253236935358 77.99221514122883 L-212.09188793124406 77.82443713335492 L-224.06517351868825 75.17577053206382 L-230.1038498313486 66.52190796765622 L-236.33506321399994 60.022578997293095 L-242.93767089946311 46.09427290123112 L-245.15440649477137 11.324013798976239 L-247.01035886524687 -5.239572391358553 L-240.98035192213652 -17.90996250576047 L-238.43753844553976 -31.516421170418084 L-226.4847681928359 -38.304743640143556 L-217.48204958573356 -46.42795785958775 L-204.3240281613443 -49.88816163542308 L-110.63846213719381 -49.52423282842618 L-108.24752713627336 -49.96363711597128 L-110.44871859297334 -57.71584166626739" stroke="none" stroke-width="0" fill="#228be6" fill-rule="evenodd"></path><path d="M-109.6679517534393 -58.11973051841664 C-121.46841433993102 -58.1121058532579, -167.25568199946534 -58.74616056948791, -181.0164820269329 -59.801739087312995 C-194.77728205440044 -60.85731760513808, -190.5075799688188 -58.45085729382226, -192.23275191824465 -64.45320162536716 C-193.9579238676705 -70.45554595691206, -193.84644233881482 -87.00685536793715, -191.36751372348795 -95.81580507658238 C-188.88858510816107 -104.62475478522761, -184.19624724587368 -112.59418567638838, -177.35918022628337 -117.30689987723856 C-170.52211320669306 -122.01961407808875, -161.51937692761723 -122.62058112179055, -150.3451116059462 -124.09209028168351 C-139.17084628427514 -125.56359944157647, -122.96574273901825 -125.60489660169624, -110.31358829625705 -126.1359548365963 C-97.66143385349585 -126.66701307149636, -84.54652899946781 -128.85725389435368, -74.43218494937895 -127.27843969108388 C-64.31784089929009 -125.69962548781406, -56.10635851866113 -121.92145429539246, -49.62752399572387 -116.66306961697741 C-43.14868947278661 -111.40468493856235, -38.26650439239237 -106.40238099736037, -35.55917781175538 -95.72813162059357 C-32.851851231118395 -85.05388224382678, -33.290627112231846 -66.03497723069079, -33.38356451190193 -52.617573356376624 C-33.476501911572015 -39.200169482062456, -33.52680711931585 -24.938861651415237, -36.116802209775905 -15.223708374708577 C-38.70679730023596 -5.508555098001917, -42.18188727017829 0.41564584378198255, -48.92353505466228 5.6733463038633305 C-55.665182839146276 10.931046763944678, -65.24455542241512 14.712216737327342, -76.56668891667987 16.32249438577951 C-87.88882241094461 17.93277203423168, -104.36860889813042 15.411242248260058, -116.8563360202508 15.335012194576345 C-129.34406314237117 15.258782140892633, -141.54904863160982 13.975367214830312, -151.49305164940216 15.865114063677236 C-161.4370546671945 17.754860912524162, -170.93649752614195 21.277398986764258, -176.5203541270049 26.67349328765789 C-182.10421072786787 32.06958758855152, -183.29227433987506 40.88919004664824, -184.99619125457988 48.241679869039025 C-186.7001081692847 55.59416969142981, -185.89117892850925 65.94946040350766, -186.74385561523385 70.7884322220026 C-187.59653230195846 75.62740404049754, -186.00783091339028 76.23828780588391, -190.11225137492755 77.27551078000866 C-194.21667183646483 78.3127337541334, -204.56664911479263 78.67809821354193, -211.37037838445752 77.01177006675103 C-218.17410765412242 75.34544191996012, -225.66306141307615 72.04306395248325, -230.934626992917 67.27754189926323 C-236.20619257275786 62.5120198460432, -240.26572376455624 57.81728767255437, -242.99977186350267 48.41863774743087 C-245.7338199624491 39.01998782230737, -247.51075111901758 22.370755132211997, -247.33891558659565 10.885642348522243 C-247.1670800541737 -0.5994704351675129, -245.04726709008855 -11.882163023685893, -241.96875866897105 -20.49203895470766 C-238.89025024785354 -29.10191488572943, -235.40556300592988 -36.0274237775557, -228.8678650598906 -40.77361323760836 C-222.3301671138513 -45.51980269766102, -215.65234091313417 -47.76355014214445, -202.7425709927354 -48.96917571502365 C-189.83280107233665 -50.17480128790285, -165.27913954883957 -47.92272604984969, -151.4092455374981 -48.007366674883556 C-137.53935152615662 -48.09200729991742, -126.68403325070929 -48.98040025004593, -119.52320692468652 -49.477019465226846 C-112.36238059866375 -49.97363868040776, -110.17230992967734 -49.34301046482375, -108.44428758136151 -50.98708196596904 C-106.71626523304568 -52.63115346711433, -108.91605518603095 -57.9139587859224, -109.15507283479153 -59.341448472098584 M-111.16605341358287 -58.76496730936053 C-123.0298049575512 -58.47860899792818, -168.05265692559058 -57.54281956182684, -181.72161767948617 -58.3248234871808 C-195.39057843338176 -59.10682741253476, -191.57379916109645 -57.397487727787734, -193.17981793695643 -63.45699086148431 C-194.7858367128164 -69.51649399518088, -193.794120286228 -85.67905494937023, -191.35773033464605 -94.68184228936026 C-188.9213403830641 -103.6846296293503, -185.6122426024446 -112.48604271171607, -178.5614782274647 -117.47371490142449 C-171.5107138524848 -122.4613870911329, -160.6003292311572 -123.00922529927581, -149.0531440847667 -124.60787542761074 C-137.5059589383762 -126.20652555594566, -121.50883412987758 -127.07942477268793, -109.27836734912181 -127.065615671434 C-97.04790056836603 -127.05180657018008, -85.88587093928592 -126.07203085453662, -75.67034340023203 -124.52502082008719 C-65.45481586117813 -122.97801078563776, -54.69500350911649 -122.54378856603739, -47.985202114798426 -117.7835554647374 C-41.27540072048036 -113.02332236343742, -37.86408269395251 -106.464575606574, -35.41153503432363 -95.96362221228725 C-32.95898737469474 -85.4626688180005, -32.896608462903345 -68.13075549466572, -33.26991615702514 -54.77783509901691 C-33.64322385114694 -41.424914703368096, -35.14938745339436 -26.33416795568005, -37.65138119905443 -15.846099838394359 C-40.15337494471449 -5.3580317211086665, -42.19250043699854 2.727470263112788, -48.281878630985524 8.150573604697241 C-54.371256824972505 13.573676946281694, -62.74800990510089 15.590883012303326, -74.1876503629763 16.69252021111236 C-85.6272908208517 17.794157409921393, -104.20884953234454 14.755588097844845, -116.91972137823794 14.760396797551445 C-129.63059322413133 14.765205497258046, -140.86054332430422 14.68505616365159, -150.45288143833662 16.72137240935196 C-160.04521955236902 18.757688655052334, -168.59124897430758 21.750244583863775, -174.47375006243232 26.978294271753676 C-180.35625115055706 32.206343959643576, -183.47245674929195 40.7041050842318, -185.74788796708498 48.089670536691365 C-188.023319184878 55.47523598915093, -187.4773997324965 66.72503113569513, -188.1263373691904 71.29168698651105 C-188.77527500588428 75.85834283732697, -185.683017491556 74.18697316745926, -189.64151378724836 75.48960564158686 C-193.6000100829407 76.79223811571447, -204.52556051178405 80.68605403870312, -211.87731514334453 79.10748183127664 C-219.229069774905 77.52890962385017, -228.5174250573296 71.21559219359236, -233.7520415766112 66.01817239702802 C-238.98665809589278 60.82075260046369, -241.20499718704704 57.29991061888751, -243.28501425903406 47.922963051890655 C-245.36503133102107 38.5460154848938, -246.72850867201015 21.175914628709357, -246.23214400853334 9.75648699504688 C-245.73577934505653 -1.6629406386156003, -243.34321166588632 -12.652781357670062, -240.30682627817316 -20.59360275008423 C-237.27044089046 -28.5344241424984, -234.5031627556254 -33.014941329503074, -228.0138316822544 -37.88844135943813 C-221.5245006088834 -42.76194138937319, -213.84209096535898 -47.93832108762269, -201.3708398379471 -49.83460292969458 C-188.89958871053523 -51.730884771766476, -166.77744872851443 -49.49513813376233, -153.1863249177831 -49.266132411869506 C-139.5952011070518 -49.03712668997668, -127.03773579779383 -48.47605056788248, -119.8240969735592 -48.46056859833764 C-112.61045814932456 -48.445086628792794, -111.65880221792037 -47.62225624390965, -109.90449197237534 -49.17324059460042 C-108.15018172683031 -50.72422494529119, -109.2590574417203 -56.29584316666902, -109.29823550028904 -57.76647470248224" stroke="#000000" stroke-width="1" fill="none"></path></g></g><g><g transform="translate(322.85399793288616 225.8078678086638) rotate(180 -138.447883456512 -23.949992387053072)" fill-rule="evenodd"><path d="M-106.0242620053253 -57.528045315698854 L-189.52638321925414 -59.07874104336452 L-190.4845256773653 -68.48739143942542 L-193.38812280423878 -87.80216757233015 L-188.65298986411693 -94.66228319011445 L-183.8131831988319 -105.74883406580639 L-176.5270428461276 -115.34114095454245 L-163.51078941867985 -122.70188286252116 L-149.49698027903506 -125.17619721277387 L-129.25096230877992 -125.26380357553452 L-72.08171899368386 -124.5790408009462 L-59.973557338907426 -124.29315361422019 L-46.871385124190034 -117.53908322674437 L-40.75849333635901 -108.33560549939584 L-37.256736914040886 -103.57678272545614 L-33.04510127148215 -94.52581325919202 L-32.02128100809181 -77.10953099679728 L-30.823172713888198 -30.963199694286484 L-34.98824166553518 -13.944471087758856 L-38.852077127974084 -1.5000472190671825 L-47.35407983262412 9.243892201590977 L-59.4926069135462 13.323398949073123 L-71.93774258406228 17.460962533377106 L-113.17338199115387 13.363950688562467 L-151.1301715475867 15.965206399359214 L-163.11197485550912 20.352926494470402 L-172.67381396140962 26.95182561091368 L-182.46981766175912 37.45739508484712 L-187.8169872398665 46.57790125872837 L-190.35993584317717 74.52308373591589 L-191.98034044795108 76.19732340076767 L-199.41811619873758 80.61130930792015 L-212.55258217993347 79.62208162559368 L-221.4479271392878 73.21311164619742 L-233.3997727885786 68.27977684992489 L-238.12683300072018 57.25927261424957 L-242.44355129005243 48.716647789740634 L-243.48989833010785 28.297810594287927 L-246.77753776622308 13.154409553402957 L-243.9610176087434 -4.998648334739147 L-243.27118668617564 -21.49819902023939 L-238.05715862637163 -29.71440068397385 L-228.8882182916418 -38.37534838544218 L-217.22233307787678 -45.93277612398275 L-200.76210026218791 -48.37889401095547 L-110.80285741625183 -50.10909846182447 L-106.28099214691115 -50.7487799586515 L-108.06539630317305 -57.12173672433304" stroke="none" stroke-width="0" fill="#fab005" fill-rule="evenodd"></path><path d="M-106.81765123703693 -58.41964926760005 C-118.83332504678796 -58.5988818021102, -166.49280424498116 -59.05307046666633, -180.63945065539195 -60.031944935381 C-194.78609706580275 -61.01081940409567, -190.13035323687376 -58.40466958529541, -191.6975296995017 -64.2928960798881 C-193.26470616212964 -70.18112257448078, -192.33794367416024 -86.6644571081484, -190.04250943115952 -95.36130390293712 C-187.7470751881588 -104.05815069772585, -184.98187517331456 -111.64364067759358, -177.9249242414974 -116.47397684862047 C-170.86797330968022 -121.30431301964735, -159.30890945356248 -122.53347370405808, -147.7008038402564 -124.34332092909844 C-136.09269822695035 -126.1531681541388, -120.79843485823527 -126.91367534290694, -108.27629056166093 -127.3330601988626 C-95.75414626508659 -127.75244505481825, -82.78564290798252 -128.35757538020093, -72.56793806081038 -126.85963006483242 C-62.35023321363824 -125.3616847494639, -53.53295308943733 -123.39952686938209, -46.970061478628104 -118.34538830665154 C-40.40716986781888 -113.291249743921, -35.816414680078154 -107.58514109859658, -33.19058839595501 -96.53479868844917 C-30.564762111831868 -85.48445627830176, -31.063135363185175 -66.1613980007501, -31.21510377388924 -52.043333845767094 C-31.367072184593304 -37.9252696907841, -31.31065426770426 -21.8232832644916, -34.10239886017939 -11.826413758551197 C-36.894143452654525 -1.829544252610793, -41.74715468557422 3.4002868068256387, -47.96557132874005 7.937883189875327 C-54.18398797190587 12.475479572925016, -60.36977185510939 14.233594338582911, -71.41289871917432 15.399164539746936 C-82.45602558323925 16.56473474091096, -100.8265959092566 14.76778625956089, -114.22433251312962 14.931304396859481 C-127.62206911700265 15.094822534158073, -141.64110880536052 13.889584543322735, -151.7993183424125 16.380273363538493 C-161.9575278794645 18.87096218375425, -169.0634009848013 24.547789989799846, -175.1735897354415 29.875437318154024 C-181.28377848608173 35.2030846465082, -186.1294722352877 41.90849519781874, -188.46045084625388 48.34615733366356 C-190.79142945722006 54.78381946950839, -188.5557835556778 63.49433826591418, -189.1594614012386 68.50141013322296 C-189.76313924679937 73.50848200053174, -188.15987090902644 76.67347351878044, -192.0825179196186 78.38858853751623 C-196.00516493021075 80.10370355625201, -206.1081955754943 80.75770319463652, -212.69534346479145 78.79210024563767 C-219.2824913540886 76.82649729663882, -226.76618450099863 71.94259316892179, -231.60540525540145 66.59497084352311 C-236.44462600980427 61.24734851812444, -239.19918877332958 55.911714421455976, -241.73066799120832 46.70636629324562 C-244.26214720908706 37.50101816503527, -246.63840366579578 22.534344702883317, -246.79428056267392 11.362882074261005 C-246.95015745955206 0.1914194456386955, -245.5953478460989 -11.803197099750717, -242.6659293724771 -20.322409478488243 C-239.73651089885533 -28.841621857225768, -235.87252337115072 -35.26726347667502, -229.2177697209433 -39.752392198164145 C-222.56301607073587 -44.23752091965327, -215.89649681865853 -45.61411669844915, -202.73740747123261 -47.233181807423016 C-189.5783181238067 -48.85224691639688, -164.39898831690712 -49.436023705283105, -150.2632336363877 -49.46678285200734 C-136.12747895586827 -49.49754199873158, -124.90178297299973 -47.395860004363925, -117.92287938811602 -47.41773668776841 C-110.9439758032323 -47.4396133711729, -110.03706382665163 -47.63983382559469, -108.38981212708545 -49.598042952434255 C-106.74256042751927 -51.55625207927382, -108.06268107829204 -57.48846151852714, -108.03936919071887 -59.1669914488058 M-107.87642281198119 -59.22234340186524 C-119.97575201247166 -59.220942319927936, -167.4966588944951 -58.01085715502392, -181.64800577010823 -58.6758874054845 C-195.79935264572134 -59.340917655945084, -191.4315869461793 -56.71705147228428, -192.78450406565995 -63.212524904628744 C-194.1374211851406 -69.7079983369732, -192.51401051430224 -88.8168976031924, -189.76550848699213 -97.64872799955126 C-187.01700645968202 -106.48055839591011, -183.01701144190048 -111.64646158855402, -176.2934919017993 -116.2035072827819 C-169.56997236169815 -120.76055297700978, -160.32710242476224 -123.4863864872338, -149.42439124638506 -124.9910021649185 C-138.52168006800787 -126.4956178426032, -124.03139153278127 -124.80531235303424, -110.87722483153621 -125.23120134889011 C-97.72305813029115 -125.65709034474598, -80.91575876316969 -128.97002112045365, -70.49939103891472 -127.54633614005371 C-60.08302331465976 -126.12265115965377, -54.761280829123095 -121.74784924137158, -48.37901848600644 -116.68909146649047 C-41.99675614288978 -111.63033369160935, -35.205632984682445 -108.11192265237166, -32.205816980214756 -97.19378949076703 C-29.20600097574707 -86.2756563291624, -30.40551763969041 -65.40626718479707, -30.38012245920032 -51.18029249686272 C-30.35472727871023 -36.954317808928366, -29.10103739965535 -22.067445675734326, -32.05344589727422 -11.837941363160926 C-35.00585439489309 -1.6084370505875274, -41.5109077830786 5.754517173025847, -48.09457344491355 10.196733378577672 C-54.6782391067485 14.638949584129499, -60.58576500483698 14.118263838427223, -71.55543986828393 14.815355870150025 C-82.52511473173088 15.512447901872827, -100.64516892443982 13.969770350812976, -113.91262262559525 14.379285568914487 C-127.18007632675068 14.788800787015997, -141.27703997579428 15.086056535308773, -151.16016207521656 17.272447178759087 C-161.04328417463884 19.458837822209404, -167.303875826843 22.2566897934085, -173.21135522212893 27.497629429616378 C-179.11883461741485 32.73856906582426, -183.75705224185734 41.84399807550119, -186.6050384469321 48.718084996006354 C-189.45302465200686 55.59217191651152, -189.46637494625773 63.99732358168409, -190.2992724525775 68.74215095264735 C-191.13216995889726 73.4869783236106, -188.23569337966165 75.61699348821399, -191.60242348485065 77.1870492217859 C-194.96915359003964 78.7571049553578, -203.89575104879214 79.58745163487238, -210.49965308371154 78.16248535407878 C-217.10355511863094 76.73751907328518, -226.07922587612907 73.50237424866111, -231.22583569436702 68.63725153702434 C-236.37244551260497 63.77212882538757, -239.016688676025 58.663911410962456, -241.37931199313928 48.97174908425815 C-243.74193531025355 39.279586757553844, -245.39752319835114 22.035388723983125, -245.4015755970527 10.484277576798496 C-245.40562799575426 -1.066833570386132, -244.18940533737157 -11.922358323668918, -241.40362638534862 -20.33491779884962 C-238.61784743332566 -28.747477274030324, -235.30396312656066 -35.51569687066005, -228.68690188491496 -39.99107927428572 C-222.06984064326926 -44.46646167791138, -214.4548578701882 -45.880435085987344, -201.70125893547436 -47.187212220603605 C-188.94766000076052 -48.49398935521987, -166.0538731731014 -47.532917058298295, -152.16530827663195 -47.83174208198328 C-138.2767433801625 -48.13056710566826, -125.860826368966 -48.49962669321743, -118.36986955665768 -48.98016236271353 C-110.87891274434935 -49.46069803220963, -108.83890147405988 -49.29491186908534, -107.21956740278196 -50.714956098959874 C-105.60023333150404 -52.13500032883441, -108.40491841537465 -56.25695983389126, -108.65386512899015 -57.500427741960756" stroke="#000000" stroke-width="1" fill="none"></path></g></g><g transform="translate(82.18743843460129 34.69173058537784) rotate(0 13.444490555771381 13.444490555771395)"><path d="M15.330098127655486 -0.43179248683033755 C18.2457632416641 0.04921794109294514, 22.591125250938763 3.172576653754135, 24.592455089014354 5.564878067878894 C26.593784927089946 7.957179482003653, 27.37035168732497 11.014737053362467, 27.338077156109026 13.922015997918214 C27.305802624893083 16.82929494247396, 26.502657827676785 20.859176569851122, 24.39880790171869 23.008551735213373 C22.294957975760596 25.157926900575625, 17.556458944609417 26.38012904392697, 14.714977600360449 26.818266990091722 C11.87349625611148 27.256404936256473, 9.559626956490806 26.97073453111259, 7.349919836224876 25.637379412201888 C5.1402127159589455 24.304024293291185, 2.5122092116920003 21.558684752696028, 1.4567348787648697 18.81813627662751 C0.40126054583773896 16.07758780055899, 0.046797713878965475 12.112396338350104, 1.0170738386620908 9.194088555790772 C1.987349963445216 6.275780773231441, 4.722216470459767 2.7788697268251807, 7.278391627463622 1.3082895812715183 C9.834566784467476 -0.16229056428214395, 14.628679289878871 0.32412445062662965, 16.354124780685222 0.3706076824687994 C18.079570271491573 0.4170909143109691, 17.6689950268457 1.2277010363905958, 17.631064572301725 1.5871889723245367 M6.791956918551582 0.379638428173779 C9.35356829565165 -1.3058324737893663, 13.730923270712447 -1.554149618341706, 16.565960520628813 -0.6952214298961685 C19.400997770545178 0.1637067585493691, 21.880756272781316 3.1200986051522968, 23.80218041804978 5.533207558847005 C25.723604563318244 7.9463165125417135, 28.39778160297464 10.823725381211664, 28.094505392239604 13.783432292272082 C27.79122918150457 16.743139203332497, 24.12241033609977 21.28857333256476, 21.982523153639576 23.291449025209502 C19.842635971179384 25.294324717854245, 18.02264428683173 25.514132430714973, 15.255182297478454 25.800686448140528 C12.487720308125178 26.087240465566083, 8.021843518205653 26.375915048672738, 5.377751217519918 25.010773129762832 C2.7336589168341816 23.645631210852926, 0.1019801314502854 20.537654700051565, -0.6093715066359628 17.609834934681082 C-1.3207231447222112 14.682015169310597, -0.08364636531778813 10.043100535426966, 1.1096413890024284 7.443854537539927 C2.302929143322645 4.844608539652888, 5.370792800318656 2.8206322031564843, 6.550355019285337 2.0143589473588452 C7.729917238252018 1.2080856915612062, 8.188244735104492 2.487543420001922, 8.187014702802514 2.6062150027540927" stroke="none" stroke-width="0" fill="#ffffff"></path><path d="M11.563711862416243 0.5655728908801816 C14.184897976358734 0.03405118799668794, 17.05449536896629 0.27272342250597803, 19.63469894401783 1.8213659643066187 C22.214902519069373 3.3700085061072595, 25.885359579681648 7.145995837141097, 27.044933312725487 9.857428141684025 C28.204507045769326 12.568860446226953, 27.948027485330854 15.609686799147012, 26.59214134228086 18.089959791564187 C25.236255199230868 20.57023278398136, 21.487742508348155 23.483631024167725, 18.909616454425517 24.739066096187074 C16.33149040050288 25.994501168206423, 13.736632840456142 26.172516128709063, 11.123385018745022 25.622570223680277 C8.510137197033902 25.072624318651492, 4.946817561158649 23.56988225879456, 3.2301295241588033 21.43939066601436 C1.5134414871589579 19.308899073234162, 0.8450268481095051 15.555158571171567, 0.8232567967459499 12.839620666999075 C0.8014867453823946 10.124082762826582, 1.0820677298410044 7.438635480595082, 3.0995092159774718 5.146163240979405 C5.1169507021139395 2.853691001363728, 10.723293741355826 -0.023830390006822633, 12.927905713564755 -0.9152127706949855 C15.132517685773683 -1.8065951513831484, 16.237757311684582 -0.5802459009358902, 16.32718104923104 -0.20213104314957242 M10.564913902501054 -0.5800034429229903 C13.25938606146934 -1.3137416201026095, 16.04362898598383 0.2857111476710681, 18.49635380077737 1.5695401494672847 C20.94907861557091 2.853369151263501, 23.702071306013366 4.827494816469912, 25.281262791262293 7.122970567854309 C26.86045427651122 9.418446319238706, 28.344848452048588 12.485763405846027, 27.97150271227093 15.34239465777367 C27.59815697249327 18.199025909701312, 25.646761226582058 22.192493582653682, 23.04118835259635 24.262758079420166 C20.435615478610643 26.33302257618665, 15.646968237302515 27.99839987475744, 12.338065468356682 27.763981638372584 C9.029162699410849 27.52956340198773, 5.219027793922964 25.08697173970216, 3.1877717389213505 22.85624866111103 C1.1565156839197366 20.625525582519902, 0.46075726831517727 17.384463624497815, 0.15052913834699844 14.379643166825806 C-0.1596989916211804 11.374822709153797, -0.16226515925851004 7.283016887143148, 1.3264029591122775 4.827325915078979 C2.815071077483065 2.371634943014809, 7.547517871788051 0.15444474274923126, 9.082537848571723 -0.3545026655592114 C10.617557825355396 -0.863450073867654, 10.592505773457582 1.6104657128987583, 10.536522819814316 1.773641465228323" stroke="#000000" stroke-width="1" fill="none"></path></g><g transform="translate(187.25126732878107 249.6619908836459) rotate(0 14.357448744050146 14.357448744050174)"><path d="M10.971886530530519 1.0398998486406317 C13.95856686912824 0.47221990925061963, 19.143931752459 0.7697640734791162, 22.003870243432488 2.2544913223554026 C24.863808734405975 3.7392185712316888, 27.00433549419761 7.309640562853806, 28.131517476371435 9.94826334189835 C29.258699458545262 12.586886120942895, 29.812490820453213 15.178821396342462, 28.766962136475456 18.086227996622664 C27.7214334524977 20.993634596902865, 24.534987144130906 25.537075440807623, 21.858345372504882 27.392702943579565 C19.18170360087886 29.248330446351506, 15.617682164996657 29.795901295915925, 12.70711150671932 29.219993013254317 C9.796540848441984 28.64408473059271, 6.437124580184033 26.297573930035817, 4.394921422840865 23.93725324760991 C2.352718265497696 21.576932565184002, 0.7250577042775932 18.228368390217987, 0.4538925626603092 15.058068918698872 C0.1827274210430252 11.887769447179759, 0.62521878386449 7.400810863818533, 2.7679305731371606 4.915456418495225 C4.910642362409831 2.4301019731719173, 11.146409402819241 0.9635138412809144, 13.310163298296333 0.14594224675902723 C15.473917193773424 -0.67162934776286, 15.591409300524912 -0.045650771024978866, 15.750453945999707 0.010026851363901912 M8.40373933977586 1.192853457236133 C10.865357949085437 0.07178347843944777, 15.32416098773468 -0.48939620836277986, 18.47455229996488 0.738266465066939 C21.62494361219508 1.965929138496658, 25.652041132339257 6.091335830938505, 27.306087213157056 8.558829497814447 C28.960133293974856 11.026323164690389, 28.893536789086482 12.744288441133362, 28.398828784871668 15.543228466322594 C27.904120780656854 18.342168491511828, 26.868371322494333 23.323979240024773, 24.337839187868177 25.35246964894984 C21.80730705324202 27.380960057874905, 16.42025079335984 27.949265059879636, 13.21563597711472 27.714170919873 C10.0110211608696 27.47907677986636, 7.29066535208363 25.758409536330483, 5.110150290397453 23.941904808910017 C2.929635228711275 22.125400081489552, 0.8184206688818995 19.724045727469576, 0.13254560699765428 16.815142555350196 C-0.5533294548865909 13.906239383230814, -0.6560857895685637 8.993170362157462, 0.9948999190919814 6.488485776193728 C2.6458856277525262 3.9838011902299937, 8.456261002161304 2.8843766849264125, 10.038459858960925 1.7870350395677903 C11.620658715760547 0.6896933942091681, 10.487940522526262 -0.01966085968162072, 10.48809305988971 -0.09556409595800552" stroke="none" stroke-width="0" fill="#ffffff"></path><path d="M11.162643861349672 -0.42080358104751525 C13.975282125348963 -1.2045980624953025, 17.511043676687457 0.64222764714103, 20.322844790111237 2.218879159418794 C23.134645903535016 3.7955306716965582, 26.776766979606457 6.530578228284758, 28.03345054189235 9.039105492619068 C29.290134104178243 11.547632756953378, 28.874636123313202 14.344621745298777, 27.862946163826585 17.270042745424657 C26.85125620433997 20.195463745550537, 24.603124600462756 24.637369446074395, 21.963310784972656 26.59163149337435 C19.323496969482555 28.545893540674307, 15.049913753694968 29.218019012178715, 12.024063270885986 28.995615029224403 C8.998212788077003 28.77321104627009, 5.836756480392236 27.557111523937348, 3.8082078881187655 25.25720759564847 C1.779659295845296 22.957303667359593, -0.06378069446864743 18.493447291429987, -0.14722828275483124 15.196191459491146 C-0.23067587104101506 11.898935627552305, 1.3980508032459127 7.831211150928047, 3.3075223584016626 5.473672604015421 C5.216993913557412 3.116134057102796, 9.672907029448641 1.917682910528311, 11.309601048179669 1.0509601780153943 C12.946295066910697 0.18423744550247745, 12.938102540178104 0.2899157271423303, 13.127686470787824 0.2733362089379199 M9.080197051267799 0.5912873519403536 C12.10717952828245 -0.6248761258318012, 17.684999697018096 -0.29202239147050624, 20.706562219362933 1.1699402377064647 C23.72812474170777 2.6319028668834354, 26.092830060062635 6.379734714948727, 27.209572185336818 9.36306312700218 C28.326314310611 12.346391539055633, 28.09404192802743 16.415531565198272, 27.407014971008024 19.069910710027184 C26.71998801398862 21.724289854856096, 25.267611678897364 23.89620088658181, 23.087410443220392 25.289337995975643 C20.90720920754342 26.682475105369477, 17.528658894395903 27.51599839995454, 14.3258075569462 27.428733366390183 C11.122956219496498 27.341468332825826, 6.398463128352175 26.799648764006946, 3.8703024185221793 24.765747794589494 C1.3421417086921839 22.731846825172042, -0.3510684562566002 18.321470453782382, -0.843156702033772 15.22532754988546 C-1.3352449478109438 12.129184645988536, -0.7737028112517423 8.436559716384252, 0.9177729438591484 6.188890371207955 C2.609248698970039 3.9412210260316574, 7.582177133724619 2.788630585316079, 9.305697828631573 1.7393114788276751 C11.029218523538526 0.6899923723392711, 11.241508732736508 -0.3540374750789512, 11.258897113300872 -0.10702426772246909" stroke="#000000" stroke-width="1" fill="none"></path></g></svg>