<svg version="1.1" xmlns="http://www.w3.org/2000/svg" viewBox="0 0 218.47341785089566 188.56579259174157" width="218.47341785089566" height="188.56579259174157">
  <!-- svg-source:excalidraw -->
  
  <defs>
    <style>
      @font-face {
        font-family: "Virgil";
        src: url("https://excalidraw.com/FG_Virgil.woff2");
      }
      @font-face {
        font-family: "Cascadia";
        src: url("https://excalidraw.com/Cascadia.woff2");
      }
    </style>
  </defs>
  <g transform="translate(71.9262427369174 -5.534262355620427) rotate(322.56173559661136 38.02366646658584 99.23987913896879)"><path d="M29.151507905940903 2.643254279891579 C34.22673829131808 -1.728497006400417, 40.84308347406868 0.20075605795388185, 46.27026829094523 3.5623545573717053 C51.69745310782179 6.923953056789529, 57.414932829510086 13.523994398962339, 61.714616807200244 22.81284527639852 C66.01430078489041 32.1016961538347, 69.65441067338568 45.90979907451652, 72.06837215708619 59.295459821988786 C74.48233364078669 72.68112056946104, 76.43474794403403 88.73673917064086, 76.19838570940325 103.1268097612321 C75.96202347477248 117.51688035182333, 73.3909316608378 133.04020232761667, 70.65019874930155 145.6358833655362 C67.90946583776531 158.2315644034557, 64.12686114111109 170.13019321531277, 59.75398824018576 178.70089598874927 C55.38111533926043 187.27159876218576, 49.77015998065096 194.30434164706065, 44.412961343749565 197.0601000061551 C39.05576270684817 199.81585836524954, 32.891000094890444 199.28103811250207, 27.61079641877741 195.23544614331598 C22.330592742664376 191.1898541741299, 16.862708767837333 182.7010728999202, 12.731739287071353 172.78654819103855 C8.600769806305372 162.8720234821569, 4.787563031388575 149.16753418588428, 2.82497953418153 135.74829789002598 C0.862396036974485 122.32906159416768, 0.46510121034770907 106.78839023484176, 0.9562383038290818 92.2711304158888 C1.4473753973104546 77.75387059693585, 3.204987221690604 61.354736130181955, 5.771802095069766 48.64473897630826 C8.338616968448928 35.93474182243457, 11.514919618567301 24.20697688360808, 16.357127544104056 16.01114749264663 C21.19933546964081 7.815318101685179, 30.819692527032956 1.8280903559184387, 34.825049648290296 -0.530237369460437 C38.830406769547636 -2.8885650948393127, 40.24918090602927 0.15178534456965065, 40.389270271648094 1.8611811403733753 M45.098872523566335 1.6225172220710533 C50.572671418022125 2.9505544538735675, 56.18423306524491 12.439928361509915, 60.83961496134917 21.203108336384233 C65.49499685745343 29.966288311258552, 70.25378592872337 41.446231115911104, 73.03116390019188 54.201597071316954 C75.8085418716604 66.9569630267228, 77.53174312152474 83.0861578469833, 77.50388279016025 97.73530406881933 C77.47602245879575 112.38445029065537, 75.53774684355608 129.13714259151828, 72.86400191200494 142.09647440233317 C70.1902569804538 155.05580621314806, 66.0154458021309 166.45845713106652, 61.4614132008534 175.49129493370862 C56.907380599575895 184.5241327363507, 50.683554816083756 192.8008469900325, 45.53980630433992 196.29350121818575 C40.39605779259608 199.786155446339, 35.679370308187565 199.87532504086607, 30.598922130390356 196.44722030262804 C25.518473952593144 193.01911556439, 19.76644537098225 184.85327136264178, 15.05711723755665 175.72487278875764 C10.34778910413105 166.5964742148735, 4.925984813020049 154.58538729226385, 2.34295332983676 141.67682885932322 C-0.24007815334652882 128.7682704263826, -0.524883874505233 112.98556165691352, -0.4410716615430843 98.27352219111393 C-0.35725944858093567 83.56148272531433, 0.3497386494483874 66.69516313469069, 2.845826607609652 53.4045920645257 C5.341914565770917 40.11402099436071, 9.656257027476329 27.28928856717642, 14.535456087424503 18.530095770123964 C19.414655147372677 9.770902973071507, 27.022726453406555 3.6720164525876036, 32.121020967298705 0.8494352822109619 C37.219315481190854 -1.9731458881656798, 43.00083640142088 1.24113378658528, 45.1252231707774 1.5946087478641147 C47.24960994013393 1.9480837091429493, 44.80982502562609 1.4403739433040623, 44.86734158343788 2.9702850498839695" stroke="#000000" stroke-width="1" fill="none"></path></g><g transform="translate(71.42007370886199 -4.956982843097961) rotate(34.85855908660543 38.02366646658584 99.23987913896876)"><path d="M20.74928669561587 10.549520806642107 C25.19389586799458 2.861271208623555, 32.2265549598204 -0.19628032578702204, 37.71021884387534 -0.5763140776993225 C43.19388272793028 -0.956347829611623, 48.57885234394842 2.1300496994103177, 53.651269999945505 8.269318295168304 C58.72368765594259 14.40858689092629, 64.45839754287984 25.121266821040578, 68.14472477985785 36.259297496848596 C71.83105201683587 47.397328172656614, 74.59320859316483 61.1228475197196, 75.76923342181357 75.0975023500164 C76.9452582504623 89.0721571803132, 76.65255753985389 105.81560204894143, 75.20087375175027 120.10722647862939 C73.74918996364664 134.39885090831734, 70.51862157972481 149.37823906166827, 67.05913069319188 160.84724892814418 C63.59963980665894 172.3162587946201, 59.26002656086138 182.62794266079564, 54.44392843255267 188.92128567748483 C49.62783030424396 195.21462869417402, 43.785172649718206 198.76589486457283, 38.1625419233396 198.6073070282793 C32.539911196961 198.4487191919858, 25.884877222332182 194.36720094988576, 20.708144074281055 187.9697586597237 C15.531410926229928 181.57231636956166, 10.430149764675571 171.67369420639187, 7.102143035032832 160.222653287307 C3.7741363053900923 148.77161236822212, 1.8604074999866604 133.72288962615283, 0.7401036964246188 119.26351314521453 C-0.3802001071374228 104.80413666427623, -0.8938557745811664 87.68155131657474, 0.3803202136605819 73.46639440167722 C1.6544962019023302 59.25123748677971, 4.767202347969658 44.87889278664432, 8.385159625875108 33.97257165582944 C12.003116903780558 23.06625052501456, 19.25930948047936 12.422899199898868, 22.088063881093284 8.02846761678795 C24.916818281707208 3.63403603367703, 25.04553213247054 5.99623236336804, 25.357686029558653 7.605982157163922 M24.363048476882163 6.432972314130581 C29.282674423507736 0.35673859372688366, 37.21653222246054 -0.019404443786373404, 42.79680341351829 1.5561244294450063 C48.37707460457604 3.131653302676386, 53.26638893817828 8.473995803793024, 57.844675623228625 15.886145553518858 C62.42296230827897 23.298295303244693, 67.12933473894108 34.13062489357345, 70.26652352382034 46.02902292780001 C73.4037123086996 57.92742096202657, 76.21930657472745 73.08326868107842, 76.6678083325042 87.27653375887823 C77.11631009028093 101.46979883667804, 74.89570222916058 117.21410977056009, 72.95753407048076 131.1886133945989 C71.01936591180095 145.1631170186377, 68.75109130473024 160.59427139589596, 65.0387993804253 171.12355550311105 C61.32650745612036 181.65283961032614, 56.08874646683246 190.13995945627502, 50.68378252465111 194.36431803788946 C45.27881858246975 198.5886766195039, 38.08504243339385 198.60792037749118, 32.609015727337194 196.46970699279774 C27.13298902128054 194.3314936081043, 22.195716810574655 189.5855384904289, 17.827622288311183 181.5350377297288 C13.45952776604771 173.4845369690287, 9.41696241026824 160.7334443300703, 6.400448593756366 148.16670242859726 C3.383934777244491 135.5999605271242, 0.5417782700774936 120.19018568700035, -0.2714606107600659 106.1345863208905 C-1.0846994915976254 92.07898695478066, -0.44703129980937817 77.21854740759188, 1.521015308731009 63.83310623193815 C3.489061917271396 50.44766505628443, 7.734464924824886 35.41695466034433, 11.536819040482257 25.821939266968144 C15.339173156139628 16.226923873591954, 22.252662938397073 9.01727291676277, 24.33514000267523 6.263013871681011 C26.41761706695339 3.508754826599251, 23.90104938502453 7.655195673664484, 24.0316814261512 9.296384996477585" stroke="#000000" stroke-width="1" fill="none"></path></g><g transform="translate(71.21304245886199 -4.964795343098018) rotate(89.50418904602306 38.02366646658584 99.23987913896879)"><path d="M48.172453254682765 4.909836592037948 C53.421008978905945 7.365779709314632, 59.0875328951634 16.347588519708978, 63.19721237795757 26.20253646875797 C67.30689186075173 36.05748441780696, 70.68249070050746 50.36284998315745, 72.83053015144777 64.0395242863319 C74.97856960238809 77.71619858950635, 76.60969000966138 93.91563410659218, 76.08544908359946 108.26258228780463 C75.56120815753754 122.60953046901709, 72.67723653397002 137.89404031402938, 69.68508459507628 150.12121337360662 C66.69293265618253 162.34838643318386, 62.66935178403518 173.67403380746427, 58.13253745023705 181.6256206452681 C53.595723116438926 189.57720748307193, 47.86459408416013 195.81906897445197, 42.46419859228751 197.8307344004296 C37.06380310041489 199.84239982640725, 30.924054949572458 198.45928381804123, 25.73016449900132 193.69561320113397 C20.53627404843018 188.9319425842267, 15.23351673690614 179.70958730417928, 11.300855888860664 169.248710698986 C7.368195040815188 158.78783409379272, 3.826719641101098 144.61334932439848, 2.1341994107284634 130.93035356997433 C0.44167918035582865 117.24735781555016, 0.3675807303000411 101.5956409624162, 1.145734506624855 87.150736172441 C1.9238882829496688 72.7058313824658, 3.9905785004715555 56.577134744596904, 6.803122068677347 44.260924830123116 C9.615665636883138 31.944714915649328, 13.426324165074831 20.702940047149717, 18.0209959158596 13.253476685598258 C22.61566766664437 5.8040133240467995, 29.099510895314204 1.0144996440756178, 34.37115257338597 -0.4358553391856361 C39.64279425145774 -1.88621032244689, 46.943696715173154 3.2919342361777497, 49.65084598429021 4.551346786030734 C52.35799525340726 5.810759335883719, 50.71827491162384 5.610941219388539, 50.614048188088304 7.12061995993227 M40.660891433638355 1.5413693748313335 C46.180841208597826 1.0663330446488761, 53.142791238951155 6.32557022919795, 58.20610841943791 13.420309200627742 C63.269425599924666 20.515048172057533, 68.06275087990313 31.928447535805844, 71.04079451655889 44.10980320341008 C74.01883815321465 56.29115887101432, 75.63220425447167 72.32330164342821, 76.07437023937246 86.50844320625318 C76.51653622427324 100.69358476907814, 75.65418557475633 115.51714594355897, 73.69379042596354 129.22065258035985 C71.73339527717076 142.92415921716074, 67.9106845896128 158.06907265651074, 64.31199934661572 168.7294830270585 C60.71331410361864 179.38989339760627, 56.999162184834596 188.40085663681754, 52.10167896798107 193.18311480364648 C47.20419575112755 197.9653729704754, 40.85268876210369 198.96450716680513, 34.92710004549458 197.42303202803205 C29.001511328885478 195.88155688925897, 21.499860771358343 191.41887638035087, 16.548146668326446 183.934263971008 C11.596432565294549 176.44965156166512, 8.173454969062144 165.06705515109547, 5.216815427303196 152.5153575719749 C2.2601758855442475 139.96365999285433, -0.5925258956839592 123.45628823233703, -1.1916905822272454 108.62407849628453 C-1.7908552687705317 93.79186876023202, -0.7354066546425564 77.2120819672598, 1.6218273080434784 63.522099155659866 C3.979061270729513 49.832116344059926, 8.809555850408692 36.33357547506401, 12.951713193888963 26.4841816266849 C17.093870537369234 16.634787778305792, 21.88490140270847 8.92686735455732, 26.474771368925104 4.425736065385209 C31.06464133514174 -0.07539522378690133, 37.967491305985035 -0.029140481896009873, 40.49093299118878 -0.5226061083477589 C43.01437467639252 -1.0160717347995079, 41.564967687199285 -0.15984533783523847, 41.61542148014754 1.4649423066747147" stroke="#000000" stroke-width="1" fill="none"></path></g><g transform="translate(98.34999017544806 81.52117754587084) rotate(0 13.390625 11.796875)"><path d="M15.985810139389526 0.15666771687836167 C18.626468120410653 0.3851073235012955, 21.964404708433825 2.275938834116558, 23.881281359704225 4.2979585316595665 C25.798158010974625 6.319978229202575, 27.672442860918427 9.66512149757012, 27.48707004701193 12.288785902136413 C27.301697233105433 14.912450306702706, 24.953994323240117 18.247839338396698, 22.76904447626525 20.03994495905733 C20.584094629290384 21.83205057971796, 17.11827413357137 22.893139251770126, 14.377370965162719 23.041419626100193 C11.636467796754069 23.18970000043026, 8.60461570804599 22.403696793414394, 6.323625465813355 20.92962720503773 C4.042635223580718 19.455557616661064, 1.5399510777915308 16.569060909908217, 0.6914295117668985 14.19700209584021 C-0.15709205425773376 11.824943281772203, -0.11119714902793909 9.036223618929837, 1.2324960696655616 6.697274320629683 C2.5761892883590622 4.358325022329529, 6.037410720869715 1.3458221982371457, 8.753588823927902 0.1633063060392903 C11.46976692698609 -1.019209586158565, 16.061162347890168 -0.5476469278932861, 17.529564688014684 -0.3978210325574487 C18.9979670281392 -0.24799513722161137, 17.727633181749475 0.7787575770082051, 17.564002864674997 1.0622616780543144 M14.039363332674409 -0.640310654077421 C16.50020927228672 -1.1365849732194515, 18.608430682435664 0.2381465051726268, 20.631973473910232 1.9907026776721732 C22.6555162653848 3.7432588501717197, 25.218247304392182 7.135325132412211, 26.18062008152182 9.875026380919858 C27.142992858651457 12.614727629427504, 27.966600431484263 16.259263461626823, 26.406210136688053 18.42891016871805 C24.845819841891842 20.59855687580928, 19.495390070334874 22.23569090205777, 16.81827831274455 22.892906623467233 C14.141166555154223 23.550122344876698, 12.936869016005001 23.056810536496993, 10.343539591146097 22.372204497174835 C7.750210166287192 21.687598457852676, 3.1261756789653026 20.816992076792413, 1.2583017635911187 18.785270387534286 C-0.6095721517830652 16.75354869827616, -1.4456912204147216 12.909318940323777, -0.8637039010990062 10.181874361626063 C-0.2817165817832906 7.454429782928349, 2.4974364672829923 3.995978441005546, 4.750225679485412 2.420602915348004 C7.003014891687832 0.8452273896904623, 11.116091800923066 1.04472447900166, 12.653031372115514 0.7296212076808111 C14.189970943307962 0.41451793635996204, 13.890749026699106 0.34414308604293475, 13.9718631066401 0.52998328742291" stroke="none" stroke-width="0" fill="#000000"></path><path d="M9.221715708691184 0.20655961614328078 C11.618084661813985 -0.7918845504085134, 14.801455117036573 -0.9514182150546823, 17.530712263389024 -0.018717735421740045 C20.259969409741476 0.9139827442112022, 23.951617463087345 3.7092824178178225, 25.59725858680589 5.802762493940934 C27.242899710524433 7.896242570064045, 27.949904246151558 10.185816750500697, 27.404559005700285 12.542162721316927 C26.859213765249013 14.898508692133158, 24.717252051526927 18.146137395489625, 22.32518714409826 19.940838318838313 C19.93312223666959 21.735539242187002, 15.910811482733122 23.12484763260853, 13.052169561128263 23.310368261409053 C10.193527639523404 23.495888890209574, 7.209250914979789 22.558567176501317, 5.173335614469112 21.053962091641438 C3.137420313958435 19.54935700678156, 1.4689348933331203 16.754417298081016, 0.8366777580642015 14.282737752249783 C0.20442062279528272 11.811058206418549, -0.03896869988689011 8.397300102252867, 1.379792802855599 6.223884816654035 C2.7985543055980884 4.050469531055203, 7.63778600672891 2.1136759303696766, 9.349246774519136 1.242246038656793 C11.060707542309363 0.3708161469439094, 11.627037577620696 1.0250576941401321, 11.648557409596956 0.9953054663767329 M7.545883193829878 0.5494096906532562 C10.09238176158265 -0.49882378104039415, 14.265327373065544 -0.812847998700614, 17.17066295152568 -0.23728629562632086 C20.075998529985817 0.33827540744797224, 23.350817008011315 1.8317483429136598, 24.977896664590702 4.002779909099015 C26.60497632117009 6.173811475284371, 27.323752438194482 10.09553860369161, 26.933140891001997 12.788903101485811 C26.542529343809512 15.482267599280013, 24.494540129058954 18.178499765054955, 22.634227381435792 20.16296689586422 C20.77391463381263 22.147434026673483, 18.59016310784055 24.24285325271967, 15.771264405263029 24.6957058863414 C12.952365702685508 25.14855851996313, 8.236663466708046 24.46857386671084, 5.720835165970672 22.8800826975946 C3.2050068652332975 21.291591528478357, 1.2685861054533376 17.930939623104287, 0.6762946008387818 15.164758871643938 C0.08400309622422608 12.39857812018359, 1.134480441508342 8.794462738680984, 2.167086138283338 6.282998188832511 C3.199691835058334 3.771533638984036, 5.859573444480281 0.726822501704958, 6.871928781488757 0.09597157255309163 C7.8842841184972325 -0.5348793565987747, 7.89890454657195 1.9821803688156292, 8.241218160334194 2.4978926139213122" stroke="#000000" stroke-width="1" fill="none"></path></g></svg>