<svg version="1.1" xmlns="http://www.w3.org/2000/svg" viewBox="0 0 347.6391987463511 277.5614186451712" width="347.6391987463511" height="277.5614186451712">
  <!-- svg-source:excalidraw -->
  
  <defs>
    <style>
      @font-face {
        font-family: "Virgil";
        src: url("https://excalidraw.com/FG_Virgil.woff2");
      }
      @font-face {
        font-family: "Cascadia";
        src: url("https://excalidraw.com/Cascadia.woff2");
      }
    </style>
  </defs>
  <g transform="translate(16.100737207889665 113.57287449392697) rotate(0 160.76923076923072 66.15384615384613)"><path d="M159.0047685317695 0.18179704621434212 L321.0636793509698 68.78902759030461 L159.1508115939796 134.13414529682348 L0.7122383527457714 67.45752539113164" stroke="none" stroke-width="0" fill="#c6302b" fill-rule="evenodd"></path><path d="M159.7312611527741 0.7071055583655834 C210.8839136970229 18.244698401708156, 258.3820232047699 38.56146043201909, 321.111716142354 67.57298449799418 M160.95840217731893 0.03150136210024357 C198.21399272268636 14.073953975070843, 234.045901112426 30.934568760436605, 321.2888825465566 67.57248176075518 M321.99035822456835 68.50493506714702 C269.7451669191325 90.38521097809505, 217.07702864004006 110.23296936104072, 162.33321585133672 131.9700521823878 M322.14803104890643 67.52983869053423 C259.3666161650777 93.25266316545839, 196.18523683946148 118.1213683751612, 160.17681684158742 132.4334525742496 M159.12027468159795 132.08684772224376 C103.59316894691295 108.95656157423812, 44.929714042691955 84.4467990510438, 1.1240494437515736 65.99069933220744 M161.71579017303884 132.2151350655521 C112.7542786674187 113.0070119781491, 64.42629368971889 94.41445193460495, 0.9336932506412268 67.30690170265734 M-1.974420290440321 67.75816015526652 C56.200335257779805 45.30752169853076, 109.27213499704376 22.856354013551027, 159.09822120144963 -0.7643848247826099 M-0.8802234325557947 67.73468709923327 C35.70496575528756 51.88803091811016, 70.40718481926248 37.07814232593402, 160.6508720126003 -0.7570797707885504" stroke="#000000" stroke-width="1" fill="none"></path></g><g><g transform="translate(14.10073720788921 178.99595141700388) rotate(0 160.50058280076325 43.84943885432304)" fill-rule="evenodd"><path d="M0.7749833054840565 1.2191390208899975 L0.553667765683876 15.315467325254135 L7.186478495884444 20.118859451264143 L135.42611043298473 78.27671060625175 L152.3596936100378 87.8123174398564 L161.25134123317332 89.41574342864061 L170.52532275852099 86.66857849147456 L238.25614802682637 58.822785143382255 L301.1766802442189 27.856587918618512 L319.8107982418286 18.793884428361263 L320.49097460078514 16.23279103378836 L322.4225785368337 6.446003423000761 L320.13594921764263 2.260003341791715 L313.7673452820342 2.3116691705698993 L300.2835542149842 11.447727546955514 L235.63303417454551 38.0291779451072 L165.27791519377098 64.33326082476056 L-1.974420290440321 0.7581601552665234" stroke="none" stroke-width="0" fill="#912626" fill-rule="evenodd"></path><path d="M-0.7612433083355427 0.4242633350193501 C-0.7764377482235432 2.0580708859631667, -0.7550007359912834 7.331267836900107, 0.4154447190463544 10.839725394260437 C1.5858901740839921 14.348182951620768, -5.014475764811763 14.939074718168914, 6.261429421890284 21.475008679181336 C17.53733460859233 28.010942640193758, 46.600720731589306 40.25069095612718, 68.07087583925863 50.05532916033496 C89.54103094692796 59.85996736454275, 119.24609193330008 73.88448155978932, 135.08236006790628 80.30283790442805 C150.91862820251248 86.72119424906677, 154.3939879755371 88.41215689073385, 163.08848464689584 88.56546722816731 C171.78298131825457 88.71877756560076, 171.9098879999265 87.32928548361629, 187.24934009605863 81.22269992902875 C202.58879219219077 75.11611437444121, 233.96265656476228 61.538627379502216, 255.12519722368867 51.92595390064209 C276.28773788261503 42.31328042178197, 303.2527487732089 30.096287972021518, 314.22458404961696 23.546659055867984 C325.196419326025 16.99703013971445, 320.37887693997004 16.350179545829704, 320.95620888213705 12.628180403720886 C321.53354082430405 8.90618126161207, 322.54634392462094 1.0150212766077193, 317.68857570261906 1.2146642032150907 C312.8308074806172 1.414307129822462, 315.0574277469936 3.9511853849085323, 291.8095995501257 13.826037963365115 C268.5617713532578 23.7008905418217, 202.51074056153502 53.0320048284645, 178.20160652141163 60.46377967395459 C153.89247248128825 67.89555451944469, 175.5217414778204 68.52774766116188, 145.95479530938547 58.41668703630567 C116.38784914095054 48.30562641144945, 24.948377586194344 9.416514468938113, 0.7999295108020306 -0.2025840751826763 M1.039965225448832 -0.39860235943458977 C0.8587724158074708 1.9178988270325463, -1.0194180682623974 8.312221777956612, -0.314492267081514 12.131468015929984 C0.3904335340993693 15.950714253903357, -6.14678702626636 15.982173043311551, 5.269520032534133 22.516875068405643 C16.685827091334627 29.051577093499734, 46.259973691814864 41.61033400448254, 68.18335008572144 51.339680166494524 C90.10672647962802 61.06902632850651, 120.73567909468275 74.8663486621832, 136.80977839597358 80.89295204047757 C152.8838776972644 86.91955541877194, 156.11088763054207 87.60540363531628, 164.6279458934664 87.49930043626073 C173.14500415639074 87.39319723720517, 172.47349573838224 86.23842848148651, 187.91212797351957 80.25633284614422 C203.3507602086569 74.27423721080193, 236.39430675823562 60.7051165303337, 257.25973930429035 51.60672662420697 C278.1251718503451 42.508336718080244, 302.3005485593798 32.209766229686934, 313.104723249848 25.665993409383866 C323.9088979403162 19.1222205890808, 321.2778527070069 16.209430184025948, 322.0847874470994 12.34408970238857 C322.89172218719193 8.478749220751194, 323.2039002955554 2.2186026544809168, 317.9463316904029 2.4739505195596054 C312.68876308525046 2.729298384638294, 313.7541190640955 4.27775321267902, 290.5393758161846 13.876176892860704 C267.32463256827367 23.474600573042387, 202.8463548706876 52.68032193305183, 178.65787220293734 60.064492600649714 C154.46938953518708 67.4486632682476, 174.9266970128951 68.33638125180983, 145.408479809683 58.181200898448004 C115.8902626064709 48.02602054508618, 25.95043175342589 9.053220902839675, 1.5485689836647363 -0.8665895195212215" stroke="#000000" stroke-width="1" fill="none"></path></g></g><g><g transform="translate(13.60073720788921 129.49595141700388) rotate(0 159.46979959947168 44.37659295321656)" fill-rule="evenodd"><path d="M1.2579353041946888 1.7950687818229198 L1.259157758779274 14.022924033208541 L6.8292281630521074 23.288043301552534 L135.09974770391216 80.42141554418663 L151.4117526644125 85.75493116075026 L161.15826250068278 88.41224737780595 L170.7674529188527 86.53354786422389 L240.19274000966786 60.05438888502807 L303.9208932292577 29.76158872447331 L320.1046976587521 21.612638743737545 L320.5805321292809 15.264249053998626 L321.9326721065893 6.172709093357511 L319.94536300834545 2.47309435760745 L315.8837697233718 0.23587697715711853 L299.71858598664403 7.866377339626718 L236.27717620621513 35.40918866917489 L163.77557666513786 64.95014517553723 L-0.349923949688673 0.8210245780646801" stroke="none" stroke-width="0" fill="#912626" fill-rule="evenodd"></path><path d="M-0.4990477927029132 -0.7360015623271465 C-0.36542555168271057 1.2278101084897173, -1.530730940573498 8.058562448830953, -0.33141509369015687 11.969704790126832 C0.867900753193184 15.88084713142271, -4.576263250888118 16.295334326437654, 6.696847288597132 22.73085248544812 C17.969957828082382 29.16637064445859, 45.808271471831304 41.132473177921305, 67.30724814322134 50.582813744189636 C88.80622481461138 60.03315431045797, 119.75572015767293 72.94850026229633, 135.69070731693733 79.43289588305811 C151.62569447620174 85.91729150381988, 154.44077669185333 89.35028219114126, 162.91717109880776 89.48918746876026 C171.39356550576218 89.62809274637927, 170.95626396599857 86.54354374911159, 186.54907375866392 80.2663275487721 C202.14188355132927 73.9891113484326, 235.42339028840274 61.416201227272914, 256.4740298547998 51.825890266723334 C277.5246694211969 42.235579306173754, 302.4199545122302 29.484516269255103, 312.8529111570465 22.724461785474613 C323.28586780186276 15.964407301694123, 318.34701270218466 15.031557409713676, 319.0717697236974 11.265563364040407 C319.79652674521014 7.499569318367138, 321.73721146784146 -0.21779992567041767, 317.2014532861228 0.12849751143500043 C312.6656951044041 0.47479494854041854, 315.1451725790325 3.481972733655784, 291.8572206333853 13.343347986672915 C268.5692686877381 23.204723239690047, 201.94685194020477 51.96436459542465, 177.4737416122396 59.296749029537786 C153.00063128427442 66.62913346365093, 174.6600524109335 67.13479996352241, 145.01855866559427 57.33765459135175 C115.37706492025504 47.54050921918109, 23.9700648315633 10.081535673886536, -0.37522085979580877 0.5138767965137958 M1.4398133867885918 1.4919936721120028 C1.4855660155322403 3.0917511413855356, -2.2024066302502745 6.981346061151154, -1.4534534815046936 10.194686594626235 C-0.7045003327591127 13.408027128101317, -5.4785129425328005 14.390468945921377, 5.933532279262076 20.772036872962488 C17.34557750105695 27.1536048000036, 45.051488570683915 38.685051892718576, 67.01881784926456 48.4840941568729 C88.98614712784521 58.28313642102722, 121.51286213685135 72.8289771835064, 137.73750795074594 79.56629045788841 C153.96215376464053 86.30360373227043, 156.1822404229243 89.03604471843758, 164.3666927326321 88.90797380316498 C172.55114504233987 88.77990288789238, 171.6292190866422 85.04017233636684, 186.84422180899264 78.79786496625282 C202.0592245313431 72.5555575961388, 234.3519256867873 60.518416648184, 255.65670906673486 51.45412958248086 C276.9614924466824 42.38984251677772, 304.08053731138733 30.66681438296814, 314.67292208867804 24.41214257203397 C325.26530686596874 18.157470761099802, 318.7892597443843 17.858531426449005, 319.211017730479 13.926098716875838 C319.6327757165737 9.993666007302672, 321.9699732989667 0.9485503210067573, 317.2034700052461 0.8175463145949675 C312.43696671152554 0.6865423081831777, 313.8879299329549 3.5622039195185806, 290.6119979681555 13.1400746784051 C267.3360660033561 22.71794543729162, 201.98642472315896 50.442170577666054, 177.54787821644996 58.284770867914084 C153.10933170974096 66.12737115816212, 173.61262118589258 69.87213601290965, 143.98071892790142 60.19567641989328 C114.34881666991026 50.519216826876914, 23.84850480261355 10.067378240386025, -0.24353533149696882 0.22601330981589873" stroke="#000000" stroke-width="1" fill="none"></path></g></g><g transform="translate(14.100737207889665 62.572874493926975) rotate(0 160.76923076923072 66.15384615384613)"><path d="M160.44557620957494 1.4092123918235302 L321.6298272520876 65.31436244770885 L161.58971335366368 130.36098700733135 L-1.4115537218749523 65.89029137417674" stroke="none" stroke-width="0" fill="#c6302b" fill-rule="evenodd"></path><path d="M161.31139127537608 -0.8317463211715221 C210.38472966854818 21.86318772004631, 262.7922027017992 43.3227090522432, 322.7565490142083 65.30054177716374 M161.0591810438782 0.7281690444797277 C220.11436994118327 25.42566753577871, 280.8149840911234 50.536077308361065, 321.271656733436 66.06525661610067 M320.59877790367364 67.53126515820622 C289.5300957131227 78.77183530591572, 256.09282310525805 91.28086098677693, 159.0627576522529 131.68232420803258 M322.1674291905588 67.89753439091146 C266.811597951225 88.49477110127846, 210.96118684359033 112.33061695493899, 160.56910462118685 132.55686161824713 M160.79686276242137 130.67009714962194 C118.24737169392264 115.17832038126166, 76.48545472774512 97.54287381324198, 0.07949737831950188 68.4179488606751 M161.4044370148331 132.88683531590948 C97.90130466927846 105.64481614112421, 35.68236589931955 79.35361289590452, 0.2733554933220148 66.14301814697683 M-0.7037009783089161 66.65007605031133 C59.822282141614714 42.30593450391666, 117.57770964613185 18.545169049929832, 159.99279395863414 1.1571772284805775 M-0.6924748327583075 66.54734792374074 C32.56753483509645 54.00190129263326, 64.79098526539282 40.477619403246784, 160.57452447153628 -0.12923447228968143" stroke="#000000" stroke-width="1" fill="none"></path></g><g transform="translate(12.057214940683593 10) rotate(0 160.76923076923072 66.15384615384613)"><path d="M160.86937467381358 -1.4151203446090221 L320.2643069163537 66.2822362370789 L161.82540003582835 131.19282177807042 L0.08466462418437004 65.84607400372624" stroke="none" stroke-width="0" fill="#c6302b" fill-rule="evenodd"></path><path d="M161.8853889890015 -1.3881119079887867 C203.76250083466704 18.18535447856125, 248.26032337722722 36.77568941870418, 320.7525306851244 65.33177856728435 M160.21862043999135 0.027258822694420815 C218.7295742726426 26.79971225775062, 277.92591894127565 49.61458788114815, 320.87393372548877 67.57793999649584 M320.73987638062 66.49584583565593 C277.0863401238662 86.38342165738773, 232.58406947144084 102.95801940390838, 161.56038751080632 130.77322643966625 M322.529804639948 66.12285185791552 C257.90959603409493 93.15405126987883, 195.81458172141788 119.30394386994578, 161.70239307545125 131.52383741521487 M161.0049780793488 132.60456055374095 C102.28057116769395 112.10249936831826, 45.440333786570946 88.35378103468709, -1.5929393582046032 66.22424010559916 M160.18554975651205 131.979988900658 C101.28478968802409 106.39445356458852, 42.63524524539278 83.62448036281103, 0.713881453499198 66.77164185978472 M-1.6725492291152477 67.376161377877 C64.38466226054356 39.721517781075086, 124.12753196755425 15.433370432723308, 162.39874185994267 -1.331678707152605 M-0.9146409425884485 66.36706031300128 C35.33641496235505 53.57449180291965, 71.77143120793626 37.18787723904475, 161.06616534851491 -0.13246183656156063" stroke="#000000" stroke-width="1" fill="none"></path></g><g><g transform="translate(11.557214940683252 76.9230769230769) rotate(0 159.8729668144428 43.9027049451296)" fill-rule="evenodd"><path d="M0.2266428880393505 0.278848547488451 L-0.20777380036617665 15.769632523163013 L6.194746755350138 20.236012119799852 L134.50257332021226 78.2167399666057 L153.51694725539826 85.60303263509499 L160.86453059516282 89.67943602370525 L171.2305791237606 86.09858497318166 L240.0990265100622 60.41004942042321 L304.01059728832206 27.86622382155974 L316.94546911779514 18.491738209644165 L319.5908509077362 18.362003867729342 L321.65528570201536 4.453573905791231 L319.57072399642595 2.273349991498079 L314.0234732579153 1.8651929271335628 L300.42880729958415 10.959374272192884 L234.33210810761045 37.02700092270968 L165.19086704317198 66.43198326029456 L1.4562653712928295 -0.6142623238265514" stroke="none" stroke-width="0" fill="#912626" fill-rule="evenodd"></path><path d="M-1.1947572939097881 -0.12933431938290596 C-1.3689682953059674 1.6160326702663552, -2.153042137794777 6.8747613804653795, -0.6969309322535991 10.554661494206936 C0.7591802732875786 14.234561607948493, -3.837634325505025 15.452191493622006, 7.541909939337279 21.950066363066433 C18.921454204179582 28.44794123251086, 46.06058862772892 39.93390551180793, 67.58033465680023 49.5419107108735 C89.10008068587155 59.149915909939075, 120.89590919887023 73.01370789716258, 136.66038611376513 79.59809755745987 C152.42486302866 86.18248721775716, 153.67851932001045 88.82468596438945, 162.1671961461696 89.04824867265725 C170.65587297232875 89.27181138092506, 171.9008024296507 87.15972270126908, 187.59244707071997 80.93947380706668 C203.28409171178924 74.71922491286428, 235.39758988296 61.20483010199206, 256.31706399258525 51.72675530744284 C277.2365381022105 42.24868051289363, 302.52436607997777 30.73530301331323, 313.1092917284714 24.071025039771392 C323.69421737696507 17.406747066229553, 319.0739351322827 15.50418067301314, 319.82661788354704 11.7410874661918 C320.5793006348114 7.97799425937046, 322.53475419632514 1.167246709897724, 317.62538823605723 1.4924657988433523 C312.7160222757893 1.8176848877889806, 313.53131808881193 3.911875297644949, 290.3704221219398 13.69240199986557 C267.20952615506764 23.472928702086193, 202.97351826106515 52.57433884711217, 178.6600124348242 60.175626012167086 C154.34650660858327 67.776913177222, 174.32715561953495 69.47378236531065, 144.4893871644942 59.30012499019504 C114.65161870945342 49.12646761507943, 23.78958155144102 9.173120891302824, -0.3665982954204082 -0.8663182385265826 M0.3788563974481076 -1.2428387823980303 C0.5651633315067739 0.6337905480949086, 0.5085687939872752 7.616049431893653, 1.649134864686057 11.696745568348394 C2.7897009353848388 15.777441704803135, -3.7421038313235853 16.764676125877518, 7.2222528216408 23.24133803633042 C18.186609474605184 29.71799994678332, 46.046272233427786 41.12723620189568, 67.43527478247238 50.556717031065794 C88.82427733151697 59.98619786023591, 119.59165042467723 73.53841882667743, 135.55626811590832 79.81822301135111 C151.52088580713942 86.09802719602479, 154.40979793086396 88.23451047264108, 163.22298092985892 88.2355421391079 C172.03616392885388 88.23657380557474, 173.0696402437117 85.97984523840702, 188.43536610987815 79.82441301015206 C203.8010919760446 73.66898078189709, 234.92258006848715 60.80607568213069, 255.41733612685763 51.30294876957811 C275.9120921852281 41.79982185702553, 300.5797649522024 29.524264167656792, 311.4039024601011 22.80565153483656 C322.2280399679998 16.087038902016328, 319.28781645028386 14.91928190298069, 320.3621611742497 10.991272972656713 C321.43650589821556 7.063264042332737, 322.5762259599043 -1.2092535597518266, 317.8499708038962 -0.7624020471072959 C313.1237156478881 -0.3155505344627652, 315.08680183536853 3.607805329602053, 292.00463023820106 13.672382048523897 C268.9224586410336 23.736958767445742, 203.55209086247106 51.98238131148953, 179.3569412208915 59.625058266423764 C155.16179157931197 67.267735221358, 176.76495357900984 69.1690841756367, 146.83373238872383 59.528443778129294 C116.90251119843784 49.88780338062189, 24.18326780042708 11.73204569694586, -0.23038592082448295 1.781215881379321" stroke="#000000" stroke-width="1" fill="none"></path></g></g><g transform="translate(69.59674816287861 60.19814241486051) rotate(0 34.70588235294122 15.29411764705884)"><path d="M34.96101530772918 0.6937829197415031 C41.852704729410995 0.39141236578211264, 51.537352608794166 1.259196760844475, 57.05023251592658 3.134601520792623 C62.563112423058996 5.010006280740772, 66.67372097142068 8.558130576680037, 68.03829475052369 11.946211479430392 C69.4028685296267 15.334292382180747, 68.76774471398136 20.59063122877039, 65.23767519054465 23.463086937294758 C61.707605667107934 26.335542645819125, 54.00665657294664 28.14241406240592, 46.8578776099034 29.180945730576603 C39.709098646860156 30.219477398747287, 29.543486878335333 30.91912353519317, 22.34500141228521 29.694276946318865 C15.146515946235088 28.469430357444562, 7.152999423458386 24.72878377228816, 3.6669648136026574 21.83186619733079 C0.18093020374692914 18.93494862237342, -0.0016803383320305176 15.295165826171282, 1.428793753150842 12.312771496574635 C2.859267844633714 9.33037716697799, 5.316471924279871 6.080826114937068, 12.249809362499892 3.937500219750911 C19.183146800719914 1.7941743245647537, 36.631560816600995 -0.10364898938783212, 43.028818382470966 -0.5471838745423074 C49.42607594834094 -0.9907187596967828, 50.813757656684864 0.6998538055671967, 50.63335475771973 1.276290908824059 M36.99064627652883 0.14410275966835684 C43.91283741755655 0.34184459016734703, 53.71871303306894 2.013410149806436, 59.15091693420616 4.438376908114211 C64.58312083534338 6.8633436664219865, 68.76471743343848 11.591669983775784, 69.58386968335213 14.693903309515008 C70.40302193326579 17.796136635254232, 68.59704539532204 20.49624346168572, 64.06583043368809 23.051776862549556 C59.53461547205414 25.607310263413392, 49.97882468727177 29.254287026067075, 42.39657991354843 30.02710371469803 C34.81433513982509 30.799920403328983, 24.963170299310782 29.20375171112788, 18.57236179134808 27.688676994335268 C12.181553283385377 26.173602277542656, 6.7954463023333656 23.673804495686124, 4.051728865772205 20.936655413942365 C1.3080114292110445 18.199506332198606, 0.16784860601845963 14.23683897179418, 2.1100571719811185 11.26578250387271 C4.052265737943777 8.294726035951241, 9.795319861453137 4.899534514113898, 15.704980261548158 3.110316606413546 C21.61464066164318 1.321098698713194, 33.989533568429366 1.0210093528653739, 37.568019572551236 0.5304750576705981 C41.14650557667311 0.03994076247582229, 37.05586809707787 0.10323371693099137, 37.17589628627936 0.16711083524489112" stroke="none" stroke-width="0" fill="#ffff"></path><path d="M28.518839759630065 0.905079428172348 C35.25841545710349 0.018099889311829487, 45.03474529497676 -0.09496814212605265, 51.60756679613603 1.4147438502386915 C58.180388297295295 2.924455842603436, 65.42122419580122 6.690318651034078, 67.95576876658566 9.963351382360813 C70.49031333737011 13.236384113687548, 69.27633065858095 17.972711787197294, 66.81483422084268 21.0529402381991 C64.35333778310442 24.133168689200904, 59.45463974972482 26.764065111084232, 53.18679014015606 28.44472208837164 C46.91894053058731 30.12537906565905, 36.70987200734747 31.73989517096154, 29.20773656343015 31.136882101923547 C21.705601119512828 30.533869032885555, 12.917170804517513 27.34508081071538, 8.173977476652144 24.82664367414368 C3.430784148786776 22.308206537571976, 0.8213284937603026 19.39196125534855, 0.7485765962379389 16.026259282493324 C0.6758246987155753 12.660557309638097, 2.517773054607381 7.43225389510582, 7.7374660915179625 4.632431837012319 C12.957159128428543 1.832609778918819, 27.218280639401875 -0.03876946248832969, 32.06673481770143 -0.7726730660676786 C36.915188996000985 -1.5065766696470275, 36.82622506674361 -0.17260947350829675, 36.828191161315296 0.22901021553622591 M27.92886577133089 1.5779819970159288 C34.40197106197837 0.573722151558741, 43.26549514575938 0.7149543973486348, 49.83829041572419 2.2004072708971893 C56.411085685688995 3.685860144445744, 64.60075279622127 7.798510877376419, 67.36563739111975 10.490699238307256 C70.13052198601822 13.182887599238093, 68.90188692265879 15.614457959779344, 66.42759798511503 18.353537436482213 C63.95330904757127 21.092616913185083, 58.673233536757095 25.012455483212147, 52.519903765857194 26.925176098524474 C46.36657399495729 28.837896713836802, 36.9246094500887 29.988321855270478, 29.50761935971564 29.829861128356175 C22.090629269342582 29.671400401441872, 12.951872728998943 28.27494862077036, 8.017963223618839 25.97441173703866 C3.084053718238735 23.673874853306963, 0.04858430914877884 19.299187257440465, -0.09583767256498277 16.026639825965983 C-0.24025965427874438 12.754092394491499, 2.4039097390285997 9.042348010405393, 7.151431333336269 6.339127148191761 C11.89895292764394 3.635906285978128, 24.988962573473472 0.7560394044407349, 28.389291893281033 -0.19268534731581077 C31.789621213088594 -1.1414100990723566, 27.641694520006006 0.5056717092625252, 27.55340725218163 0.6467786376524867" stroke="#000000" stroke-width="1" fill="none"></path></g><g><g transform="translate(133.77321875111397 108.5218539901424) rotate(0 30.53873215698667 -0.75874911862212)" fill-rule="evenodd"><path d="M0.8845196180045605 -1.3001294796952954 L42.83253756006494 13.483764234602582 L60.05835226530274 -14.260679065085526 L1.1137904338538647 -2.1685776179322946" stroke="none" stroke-width="0" fill="#ffff" fill-rule="evenodd"></path><path d="M0.6397123523056507 -2.391652031768297 C17.80279381743147 2.5510546805537286, 31.672245510658897 6.838753724636273, 42.76344621767536 14.375575747013222 M-0.04304651357233524 -1.8448668280282965 C14.24768716157926 2.347644922205919, 30.695294024027255 8.128403184986455, 44.04717887220219 13.434542411610614 M43.29391325106159 12.54974433374418 C51.54202540333268 4.56383259416617, 55.312891612987286 -5.432322616235551, 58.90525985861262 -15.184242403901692 M45.024994977091104 13.595741504475605 C48.348410262954644 3.935991228325461, 53.48365626581695 -4.354898795596602, 59.04460747333308 -14.735532232395883 M61.12051082754572 -14.80472103396761 C44.893468717944145 -11.376199532624998, 29.591607062982963 -8.961304506258443, 1.0393632836639881 -2.8415444334635485 M60.57187731357356 -15.893073984257455 C39.93838006337897 -12.050426675808167, 19.812965709364384 -6.931799675885085, 0.9787705149501562 -1.7150830188432684 M0 -1.9466101778337708 C0 -1.9466101778337708, 0 -1.9466101778337708, 0 -1.9466101778337708 M0 -1.9466101778337708 C0 -1.9466101778337708, 0 -1.9466101778337708, 0 -1.9466101778337708" stroke="#000000" stroke-width="1" fill="none"></path></g></g><g><g transform="translate(155.7732187511141 30.198142414860513) rotate(0 18.268060795111694 16.862619409517947)" fill-rule="evenodd"><path d="M-1.211318451911211 0.44700779393315315 L7.042632711941678 12.894226373337688 L-11.622262030182583 23.43659988330569 L8.789437636513867 24.091210986980627 L19.52202312976999 37.166732421035306 L23.105401676148176 21.197250525083632 L47.9506845463286 18.99373582991609 L25.82812823157974 11.7837489398525 L33.256840326111046 -1.5312065260813483 L16.100367762367455 4.8816690070225945 L0.5740497522056103 1.9555887170135975" stroke="none" stroke-width="0" fill="#ffff" fill-rule="evenodd"></path><path d="M-0.4863770951045987 -1.2422188974475168 C0.6034290804253972 5.235256300164874, 3.463429152318432 7.797741357093978, 4.192232567865647 12.661929821408851 M0.11022836310831463 -0.2764347386437212 C1.8115039604416663 4.447465465673435, 4.126150075887494 7.709705423989852, 5.446204450469473 11.6627867727723 M5.429896171546908 13.770801961354223 C2.886723828358775 15.009193777256534, -2.089560904130575 18.95784041742819, -10.502723505408259 20.117033653292516 M6.315482990896374 12.593325407293502 C1.4909206574980685 15.27274085293362, -1.571772638629894 16.81828263319002, -11.402002371307733 22.12602273286264 M-12.588500850509206 22.74218593287785 C-2.2472151054207803 21.68209819158096, 3.2308128517593433 23.469494314033636, 7.352811409169268 25.176338919328238 M-9.998610163727392 21.803895803804195 C-3.7190610165140514 22.232103201671656, 0.9573615053409922 22.8488616609271, 9.115912964921302 23.726204771533983 M8.574330590997997 22.313999234254297 C13.057545326132828 29.213199985403932, 17.10239006725022 33.232771953378105, 18.863736271434384 36.97940284585149 M9.011710782223172 24.082482128010977 C10.603955834095425 25.79227375649515, 13.818497836395906 29.53461392856215, 20.554104708102365 36.266699246164926 M19.09663470205887 35.76810808950829 C22.15204630035166 34.30559321945422, 21.296410168932223 30.975650872981177, 23.28427063788982 22.68251260474171 M19.950347812044885 36.91519666763727 C21.11885653765874 31.88718057591973, 22.87509121742726 26.194463107350366, 23.47144460385836 20.818768706339977 M21.72953249886632 22.61619395258674 C29.88629883517729 19.239528921816298, 39.76285790053632 19.483643939450182, 46.88010511437756 17.053976120975108 M22.73053820990026 22.1628712719197 C31.822182476143066 19.571568396832156, 39.57287187907787 19.397746497257906, 46.95974300133389 17.25441739017913 M49.12462244073254 18.149836602237315 C39.17691883012758 16.35795963537716, 32.755437361610035 11.399976703093992, 25.94258688938089 12.817619659225727 M46.41305349098843 18.005063504528493 C41.938481356899274 16.770253122360188, 37.48186289776004 14.257179437460497, 26.266194991657812 11.704324668492461 M27.06816866136296 10.303160268749949 C30.046720015404816 6.325595377876867, 30.395931837842024 1.7757678631389386, 34.25299219232041 -1.4561299466341264 M26.94022622227787 11.876932253466826 C27.722712033943512 8.233605629148942, 30.002860521502395 4.279943290764254, 32.20039576990627 -3.2541640268155962 M34.457548542645405 -2.261750412273085 C30.01180336736148 -0.41921599827189127, 26.956781927532138 1.671088076207133, 17.238771722443435 3.590842325259562 M32.161849726076866 -2.0201260679267046 C28.083157665193475 -0.38847915800622623, 23.373063036606244 0.6409482874224786, 14.943977412902163 5.1617862920252255 M15.033611906234675 5.4869131861573415 C10.045757031039802 2.085271564543784, 6.542662309816908 3.4787928070619563, 0.30517288025753264 -0.10966531362045018 M15.839001292888845 5.6971719099536875 C10.219294472215827 4.270477336245449, 5.501117610801076 1.357085479859062, -0.07127813449233378 -0.8080853924518903 M0 0 C0 0, 0 0, 0 0 M0 0 C0 0, 0 0, 0 0" stroke="#000000" stroke-width="1" fill="none"></path></g></g><g><g transform="translate(246.87276626242613 58.94474874970217) rotate(0 -0.5587622318417402 14.6993170036003)" fill-rule="evenodd"><path d="M-0.947141844779253 0.5160106606781483 L37.850601594895124 14.889587182551622 L-3.2371110506355762 29.912474770098925 L-38.43037255480897 16.986406821757555 L1.843693058937788 0.9076479859650135 L1.075930517166853 0.24199416115880013" stroke="none" stroke-width="0" fill="#912626" fill-rule="evenodd"></path><path d="M-0.07564828917384148 0.38143328949809074 C9.391691528260708 4.1022057353984565, 20.168261269573122 7.743024362018332, 36.57596506550908 14.909677188843489 M-0.6775079164654016 0.015364298596978188 C10.909983270242812 4.779769760789351, 22.491618780326103 9.222958978498356, 36.53462161682546 15.220065781846642 M36.30906881764531 15.560896556824446 C21.826748621184375 20.975789151024074, 8.088101551216091 26.30056550340727, -1.5291669182479382 30.083689253777266 M36.58690061233938 14.779458234086633 C26.38004607176408 19.096453825924545, 15.136946864519267 23.253170574065297, -0.8144742641597986 29.01279474236071 M0.06059576943516731 29.518386404961348 C-14.345127940084828 24.03783761356026, -28.53826296543711 18.06454612612724, -37.28982792422187 16.21626989170909 M-2.17367903329432 30.83938384987414 C-9.823096744436796 26.11709947217256, -17.5466933866032 23.900240713581443, -37.5416466984899 14.672217199578881 M-36.41860161349189 15.181515138596296 C-25.81569267939785 11.139627533731982, -19.136840297747458 8.13825257285498, -1.3152708820998669 -1.4407498426735401 M-37.70442507602286 15.197155306115746 C-22.467870886437666 8.261834956007078, -9.112025087233658 4.001200787955895, 0.8325354661792517 -0.680512061342597 M0 0 C0 0, 0 0, 0 0 M0 0 C0 0, 0 0, 0 0 M0 0 C0 0, 0 0, 0 0 M0 0 C0 0, 0 0, 0 0" stroke="#000000" stroke-width="1" fill="none"></path></g></g><g><g transform="translate(243.0160935663572 58.03928845492288) rotate(0 -0.0028694145237295743 15.740922551602125)"><path d="M-1.4051540903747082 -0.19309647753834724 C-0.7848178266762018 9.562332175829665, 2.2354218627828715 15.989984775119677, -0.6362989496151386 31.674941580742598 M0.6035655941814184 0.714796731248498 C0.0863882773914463 7.6061810617693375, 0.11474955275377169 14.383940284083101, 1.399415261327249 29.635617980733514" stroke="#000000" stroke-width="1" fill="none"></path></g></g></svg>