<svg version="1.1" xmlns="http://www.w3.org/2000/svg" viewBox="0 0 452.3419863591645 448.7713159292947" width="452.3419863591645" height="448.7713159292947">
  <!-- svg-source:excalidraw -->
  
  <defs>
    <style>
      @font-face {
        font-family: "Virgil";
        src: url("https://excalidraw.com/FG_Virgil.woff2");
      }
      @font-face {
        font-family: "Cascadia";
        src: url("https://excalidraw.com/Cascadia.woff2");
      }
    </style>
  </defs>
  <g><g transform="translate(129.33272827559938 85.90181946324617) rotate(0 96.83826490398286 138.48383850140118)"><path d="M-20.44171599630853 -11.362124868982699 C-20.63620284921832 -18.287556142152102, -19.798106856935004 -27.689798858563506, -20.524040400118043 -42.08541129223918 M-21.097738662330713 -12.232236425706413 C-21.470024444204906 -19.99916903048112, -21.93560875238503 -26.16430723623545, -21.814731595173885 -41.04008783280765 M-21.533459841341188 -39.77125857464885 C-14.827174867622052 -38.271668729599334, -11.523331660278739 -35.03298602050009, 2.157511291370854 -29.77007763405406 M-22.340653893605282 -39.83535541474735 C-15.042063020004832 -35.75015182426847, -6.369895334189488 -32.76901124646046, 3.7247448557029816 -27.838693757924077 M1.2791648481945845 -28.431236195760604 C3.6402574198876287 -37.45532183131353, 6.62015522136315 -46.767229460059355, 6.4783243965939965 -58.701177815253665 M2.6110692613731477 -28.073307653340336 C5.005773523748343 -35.41181682193509, 5.065008106886966 -43.334599872703286, 5.571987435279914 -56.49263740731292 M7.562105638964602 -55.49682734375708 C14.305021603582574 -53.99537147223195, 22.807072624059465 -47.154552913730015, 29.33014128583678 -39.69787441796825 M6.025343701301643 -56.53232027245574 C14.940577392410393 -50.823939236350135, 21.846354119851714 -45.8089754396896, 31.99453197087356 -40.89511700763569 M32.67585490125426 -42.755944600768544 C34.53758220083984 -52.30063353300975, 35.81068166969571 -61.27513859764474, 39.77684591987634 -67.74346747422027 M30.18533025349685 -40.871216498755075 C34.86743876471391 -51.67937694529315, 38.56388793836347 -61.6288735654698, 40.465259005292296 -67.35542136044609 M39.15304659584069 -67.16063799881744 C43.47013715580519 -62.838033067231336, 49.71649539544512 -59.12150647546434, 59.21060434106738 -47.98237011908456 M39.07953446076715 -67.66491013379203 C44.57562727242614 -63.265381931225996, 50.040868674397494 -59.03466203747151, 60.13103428792209 -47.9084054953502 M60.85459676507861 -46.8240706729786 C61.77901814792357 -55.812165434647866, 63.910425213518195 -61.45138709682631, 73.61181378517361 -74.15075683163911 M58.87044707249851 -47.71388120717271 C62.96180846743464 -56.46907859982596, 68.91002071309978 -64.53625500930401, 74.38515788655789 -74.05763891095728 M75.22965264473171 -75.45116710233003 C80.1256761420038 -66.2094071319322, 86.60881014327089 -58.28584774775544, 88.28425201956284 -52.762697273430824 M74.46699315648587 -73.78732421750635 C79.12931568104776 -67.10250003878822, 84.87740403769413 -59.320314737640146, 87.91501352559877 -54.274039413345456 M90.05074200216782 -54.52474694841862 C96.64832938675634 -57.78931092709102, 102.67113623302504 -66.18842368937574, 112.5331340351313 -75.90181946324617 M88.57218143712831 -54.12178197087109 C93.14414082589491 -57.87726242817709, 98.70225933285452 -62.410026502946025, 111.69262527797218 -74.10003629083246 M112.09182982828315 -74.09718823003084 C116.9826465274296 -64.29113822461302, 120.66263785096409 -56.36613241469881, 122.80164633749655 -51.585067509687576 M110.67366098735329 -74.52530875558466 C114.37047865033749 -67.97443424896386, 118.60763516528623 -60.470284087324174, 122.42369185632697 -49.825828046551976 M122.26485262869528 -51.15418505576912 C128.49593390931048 -56.53219479831497, 138.00255467295105 -59.81327442219535, 147.31440076534 -69.1045379050693 M122.49275551980963 -50.053728074780736 C129.54049168847504 -53.865313723019035, 134.85903948944483 -59.1187386352167, 147.50354043137577 -71.1437186923495 M148.2631722420856 -70.95658391794771 C147.2091310218379 -63.62052802769003, 151.937906930112 -59.2278968782107, 153.60381944340372 -43.030222324174254 M146.94041720521 -71.66496894030482 C150.0922639053362 -59.83099042767594, 152.92297745350757 -49.48057384773991, 154.85601158489192 -42.4633605475392 M156.0879607931962 -43.04312649134955 C166.16866938609184 -49.11484102059557, 181.74542083271237 -54.95274396170347, 187.67492599197314 -56.54607677255287 M153.9561116253277 -43.53430867147109 C161.58827137357306 -46.96464227311106, 170.59361532735932 -50.02721173583709, 188.41075051919208 -57.560323387202764 M189.2129919023125 -56.56651878152504 C188.0577779606056 -48.393616112887216, 186.31639718594863 -38.02221121321165, 187.47463783360314 -29.269373345571395 M187.98510898247943 -57.70294204336121 C187.94775415122928 -47.48955687417948, 188.0735533505138 -35.33891701432113, 187.8849993638624 -28.707946201237675 M190.05393299198937 -28.11278288384044 C198.6854360735161 -33.08956022991893, 210.48010862202966 -37.686162625913624, 218.74398439665566 -39.59542009510661 M189.7602764062513 -27.209833045872685 C197.44957378151977 -31.037865276726933, 206.47807613577666 -35.30616483903735, 218.94831537929605 -40.334557061051974 M219.82056349058877 -40.04597685017253 C219.0702006870227 -24.405363531364138, 219.22636235293913 -12.095762938385825, 219.7884381367756 -1.2389426562331178 M220.46679615703653 -39.74893475041355 C219.67365647021387 -30.811945615455386, 220.28609783116434 -20.012642256254058, 220.3054019781692 -2.8773547462515094 M219.28710585375558 -1.0495763155959108 C227.39287021281032 -2.834878070734299, 232.93855455534222 -3.572493847779487, 251.41029396908914 -7.756428008029054 M220.82499664751123 -1.5230709365896442 C226.4966313269547 -3.7294890061084147, 232.42014481914762 -5.475596934115474, 251.94098815763925 -8.61725250544567 M250.724604996616 -6.648818259188722 C249.2160201213003 -0.49524081629803884, 247.86135935350907 5.097083391274927, 245.1403614617475 20.00130584679175 M251.33523187483286 -9.078779853010367 C249.67723355663856 2.1208740618159165, 245.49226935270872 12.018529582203373, 243.6640206928887 19.556052264120467 M242.13262048732122 17.33672931633521 C254.67188839375106 18.064141221315488, 264.18883650647973 20.50626332309924, 274.06423088428005 19.618784098248966 M242.82207361418386 17.928616103079207 C254.5100893253592 18.437659858359766, 263.352789103307 18.500853835238885, 272.2464301854782 18.561252232935317 M274.06549259540066 20.522841600995548 C268.0470299126522 28.26381490082063, 262.7830429476736 37.45977524361884, 260.52686086440076 41.887066508350536 M271.5730774671249 19.152184602167495 C267.9848164263166 26.234794184303958, 264.0226354228938 34.431711148782725, 259.44021872015287 44.58412151847558 M259.33692994856824 42.73182835680024 C270.71701256362445 43.791978050004005, 277.1238852774313 45.756001804794934, 290.76391910545783 48.40135608842893 M259.35587051840116 43.01207476173119 C269.28303862795843 45.063013573041324, 278.97844032314055 48.0514202101307, 290.92130058229225 49.36262436254247 M289.6513502501722 47.590142595081765 C284.4763765522035 56.54768061023365, 283.42701469098745 63.33674207753026, 272.07349836090873 74.45272172623496 M290.3619920533921 48.98062582357152 C284.9276102257728 59.43210563789286, 278.2692425538657 69.34766077308373, 273.773718232385 75.76613775835554 M272.77559625366996 77.42010320359091 C285.7266459124821 80.65329940245647, 299.2280639659506 85.85192905342359, 304.79405422159505 88.24162334706651 M274.69110953258644 75.16158978090803 C286.01171534230434 79.42785650961683, 296.8158558318414 84.49172475417897, 304.78008009330404 87.69647661168145 M304.51687354990315 88.45342010762559 C297.4263195638915 95.90549902463673, 290.22447322852565 107.04129782919016, 282.9490165534803 111.78693597765337 M304.641456378857 88.19115653950738 C295.1144643547274 97.55119181024445, 286.64866484069324 105.43262142663376, 281.37867198804406 111.68441780471872 M281.3673620048353 111.74021833391558 C291.15198128514356 120.01750708814274, 303.38619597417886 132.22159461835594, 310.75183182166325 135.9330152851896 M281.6669434151986 112.83447798156809 C287.9290316295933 118.70946762421109, 295.9121071743864 123.7535968885309, 312.4809994637351 138.58426573513017 M313.0092580835651 136.15610354965494 C304.5677107754501 139.65581616492784, 300.5850700517209 144.79731468175436, 280.17906401785103 153.39078718025146 M311.1947011887412 137.68023350475298 C306.01497575296804 140.97847275655997, 300.25289975631125 144.3540693314758, 282.35738871911553 155.3024419189608 M279.88787577779976 153.44325166541992 C285.92220846637434 161.93404728875703, 294.12529257081644 171.92984501932085, 306.73033853434345 189.87053293956873 M282.5106808982232 154.86921962510704 C288.0355987710664 165.3530189414452, 296.1889950629846 174.40885074115852, 304.7094304785164 188.61777011340914 M304.97159047983905 189.34319395794031 C296.41900495420714 192.57048748777154, 286.88317361426226 194.43931077697434, 272.101789329757 194.18353383770986 M304.83209826797565 187.9146350998288 C297.85130184990754 190.9122891468988, 288.6178373952109 191.63457611858055, 273.65592715758555 195.9706209485124 M272.4252861482995 197.69846170178457 C276.6099049307692 205.06391109569594, 280.92033787243275 214.56684713328875, 287.0405818956632 230.13667734697458 M272.29338071364634 196.4912255589555 C276.3466483550058 205.43245424850056, 280.9477950473215 213.98136815119366, 288.8999158299256 232.04501812703904 M286.46487827475255 232.3471923692524 C275.5044830731807 232.6391119660864, 264.98527340298995 230.837643716272, 254.9122470384624 230.68023893385478 M287.11319030883794 231.0173897052556 C278.30355147998614 232.46918941942747, 269.12608977567993 232.54083679208438, 255.60850200896823 231.60392022094973 M254.92464766559863 233.27091142683574 C255.06907737865043 237.39193161233774, 256.622793582509 246.00526656131373, 258.7616634681224 265.31517493167127 M255.47425756698215 231.49046111068972 C257.43042605033986 239.2762941029048, 257.11518873415895 246.11482183236095, 259.78634223671247 267.584013544034 M260.3182230308055 266.00182520785535 C253.02523625016119 265.4116097012966, 247.56742601547035 264.1241947158102, 230.93748422632154 264.8083788929502 M260.89686403007795 267.58150108904744 C251.68343385884205 266.794124438147, 242.8112401006848 266.2217140229416, 230.21257051186797 264.4984685042868 M229.46300741205152 266.3380772648374 C230.46436717960924 273.63050077666463, 230.06359542675284 284.5496428479762, 231.09891020171432 300.8577595848321 M230.175768696835 264.03805504832366 C229.99728656346656 277.11438134189547, 231.66049857993272 289.4178039364964, 232.7600718051204 300.7895175993173 M231.48695169799117 300.0088263649224 C222.12017991504138 297.56299106435733, 209.0169722314813 295.3755712788585, 199.45026589627153 292.27462565911407 M231.699481537939 301.0367304861276 C223.3599287457006 297.821580732393, 214.4476048924218 295.6368343690143, 199.94255782547182 291.6983400863915 M199.06313039059526 292.8566311599075 C199.8358800803446 300.00699699878965, 194.3989049929729 309.6149095926635, 193.6704952846819 326.99824429028376 M200.997339262392 293.05308165972525 C197.84423561515362 303.8682222332122, 194.6101185617182 315.36385456927286, 192.15656287964222 325.9671206204657 M193.3392374645525 324.85200882428035 C185.4678739053286 321.3853166074377, 178.01734485178153 318.59363911079356, 165.4026391306667 310.1121362426448 M191.98150117691395 325.5636682240729 C182.1327341479763 320.2424150855349, 170.9248302442945 314.4093731391439, 164.48342118838414 308.5428443213123 M164.42706368358418 310.1097301223445 C162.91353064397552 317.6859315439251, 157.13872216699986 329.53576036227366, 154.75945612069214 342.8384494987619 M163.74892650225743 309.74985029894293 C161.13580498178894 319.3945713316476, 158.24782716904733 330.82523410754783, 155.507388020195 344.2591704019648 M153.9081177341565 343.88319303666475 C146.96863626868137 335.9243273122822, 139.76424657901367 331.31720006896455, 130.69236893244477 319.7635975214803 M155.39949550691986 344.17966209736886 C145.06906423818117 335.1647242228419, 135.46507071934684 325.882303138887, 127.99708575979264 319.7495704307371 M127.202572293956 319.79006103008624 C121.24783763788182 331.43632001327387, 116.0170682019827 342.6952722481836, 110.60896589798769 351.89549267423945 M128.71745557561906 320.7209501876646 C124.49456195873066 326.5705017863189, 120.71259885272924 335.63807318548737, 108.83550557127138 351.1920617515375 M109.18676569504579 352.86949646604853 C103.96828046361094 344.60023311777616, 101.9164878147914 335.5253162963235, 92.16870537072366 322.7259784529744 M110.10142287244936 350.2861069137384 C103.88510090171052 342.61181651538016, 98.10313632673112 333.2803801209586, 93.12821176506525 323.05913971576973 M91.98890629082864 323.6445928404866 C85.03116840466589 330.46845238929404, 80.50280764392528 341.1479901007626, 71.94367098052747 347.8267017343613 M92.67258670784479 323.5820026269941 C84.49465962980773 334.2039866151105, 76.79981130224554 343.92038933379104, 73.17659705308027 348.4011499305787 M73.64982771117933 349.7182470300766 C71.09258777962756 342.0661907856871, 68.0622776019107 338.18707742163986, 60.446108968295164 320.6364584481553 M73.24796479371138 349.3933579345765 C68.66341584722238 339.63706893648344, 64.14092981051043 329.75150835302315, 59.817919883243746 321.32113393118834 M61.150526196993894 319.56050496457374 C50.05330202187163 329.259674014253, 40.38774951531025 335.06905609536216, 37.63174455655418 338.79639712986443 M59.68044057797641 321.0575893717096 C51.98610518060006 325.15427500134655, 46.296824620902925 329.68888125329835, 36.24112081011437 335.99753273357544 M37.91547697079979 338.843765179486 C33.21021379626169 328.6351101041017, 33.77481071609658 317.7391919990448, 32.90713427442321 306.5503975040849 M36.674579615198596 337.4875129543701 C34.88600986571511 325.07546028356427, 32.71545853103491 313.64775246879765, 30.306674819842065 307.7720654178049 M31.819986561715687 308.8431573994096 C19.397076851116083 313.0020804652494, 9.881831023224947 320.0144047732111, 3.66470162900548 322.28961723206794 M30.106481891527856 308.25922276262304 C22.082864910335324 312.54224837649963, 11.463697363042606 316.41086589606687, 3.394127001561332 321.38177587559676 M1.7252284768448356 321.9810892855958 C1.2044674569612788 313.6696621812996, -0.5819994573034075 302.51907271935085, 0.6136179177881769 291.84098996561056 M1.8713174960986856 321.8441376881883 C2.347453494028801 311.9452882005961, 1.6233085953217914 302.1405489761035, 0.04547335979059253 292.93503086421674 M-1.1908759863255927 295.1157444898415 C-6.588371803037983 297.60912875395945, -16.00575955128106 299.8773058834065, -32.83106669329243 309.4789004122912 M-0.47329256657049146 293.58499948833173 C-10.789923073734428 298.3101033799617, -21.070180082802054 303.848934192367, -32.33320810750263 307.61069507171203 M-30.044526661859322 306.55275771972526 C-28.689216851739097 294.6560280294089, -27.662617958282556 283.1611656410018, -27.338073605290386 276.1191032967051 M-32.00564529851215 307.39504785110046 C-31.049400054725776 299.51477528826354, -27.63135516819326 289.2741363367792, -25.948907844341132 274.53955007814665 M-25.035694950810406 274.2391336998423 C-39.366991713170705 277.7778437697658, -52.35238325059525 278.54423115436623, -60.60294391401992 282.32463128010363 M-24.91710614374909 274.6394393565585 C-34.027668559924265 276.7040813056139, -44.063148665272216 277.8860129383928, -61.25223286450789 280.4977022752407 M-62.39117194899306 278.76915509144396 C-57.6017105457642 272.0960333992496, -55.22190933876092 265.2642561934373, -50.71669769260422 248.59140944148604 M-61.142657116064285 279.82865539642603 C-57.02910826332347 269.1002073911964, -54.15967644350092 256.5446174625437, -51.99356603409485 250.8796973474622 M-51.73322772953049 251.6699969735295 C-59.71006478448356 251.56438186721587, -67.49085953711989 249.95313550987356, -84.08292996405892 246.55485567373492 M-51.41705608154968 249.59161665517095 C-58.614251611807205 249.19116186077966, -67.41263338909101 249.05376167198534, -84.82766204408638 247.59262066816248 M-83.99670731543831 248.6083272389815 C-79.09903510158182 239.16345071598616, -68.4687856925532 228.42591933761938, -66.62038038092389 224.69648631759932 M-84.87943273118965 248.56978350614466 C-79.29374822368375 240.90739221897175, -72.71772513747422 233.47918388160312, -66.20371708999112 223.45020293355932 M-66.63160035925641 223.09691222854903 C-80.59635618616447 221.61575676439665, -93.00302677494646 218.77650014100303, -104.39052477429142 215.22410449759408 M-65.96335826049283 223.81126164556494 C-81.057657503752 219.355051005425, -94.8754531408413 217.7923951880235, -102.68046042087009 215.74050849863633 M-104.23063269207707 217.37480506674692 C-96.61220453369147 206.4672112286193, -84.56311861968754 195.26481202513648, -82.55389400186074 191.1077013890173 M-102.71193691852024 216.33849042841538 C-95.72078361330078 207.47883069911427, -88.03200916903285 198.63817867669903, -81.56997318739128 189.94933664416035 M-81.48558517159951 191.44324692887326 C-92.81706434977332 186.45960869153342, -101.82550725351867 181.86637876989354, -119.33272827559938 172.2606832685983 M-81.42162485593987 190.87164413546284 C-94.71147011106366 183.01418995807222, -108.37678683129039 177.55529138044884, -118.58784276949098 172.62894862732946 M-117.14994800979127 173.2468940916574 C-111.86338294443249 168.21102509862214, -103.36425753381238 165.19290041538693, -90.26256757894933 157.18303854691354 M-118.292384452688 172.6973590239054 C-110.65226569565795 169.34483763088124, -101.9198670451567 164.5937969883003, -87.79225319357991 155.72873471418885 M-88.29051119009435 154.31698496567574 C-98.82903106250687 147.47158174445104, -109.92360718004437 135.5678512328495, -118.04590903784363 128.63852886468487 M-89.36677473517537 155.9994003597882 C-99.06627728471554 146.34442337799598, -108.51338897813959 134.83361138333984, -117.12514250355987 128.95990527592915 M-116.14102183844177 127.4485311916502 C-109.04168358039811 124.0623330660336, -98.82184298487226 121.77861268845072, -90.99295552321753 117.60696674864205 M-118.07110874730377 128.22335351430195 C-107.46385364398033 125.07014906729063, -99.01641187452336 121.92408187709587, -90.54045136333487 118.43526844474884 M-88.5429328257688 118.65259529631051 C-97.47404177009457 110.94746047169038, -100.25272618474904 104.91827168543594, -111.16189387278143 91.38009309761095 M-89.3437021529772 118.71640161964508 C-94.7180673087325 112.15062327778266, -100.98693178746119 104.77396425295385, -111.83190127858404 91.45260759994257 M-112.08568098978583 91.25216817848253 C-104.98553071185475 90.74878080487802, -97.06622945919408 89.36526849849757, -81.68199581849157 84.2929773522866 M-111.46265145787481 91.51070305511224 C-105.05577728236109 90.84674186790463, -97.94947190289741 89.50226229656532, -81.64359552423238 85.91358153767409 M-79.42978806244909 84.6135692788613 C-87.36665873452303 75.96677710653094, -96.25202298632507 62.124623284670875, -104.45848719144043 55.567877004147284 M-81.05643493692159 84.7422916168672 C-88.55427747410391 76.37429811791078, -94.45880458465237 65.94998712501786, -102.86238834934112 54.85508397989046 M-103.01172987485107 55.99030608892512 C-90.83744994637075 55.63383599001069, -77.1281987940738 54.56407979929781, -69.4039533294731 54.02833632843718 M-104.49628183917876 55.18243602685701 C-91.44580444409432 54.311939256764084, -79.4807700147754 53.609167548444304, -69.5367903847241 53.85084230730459 M-68.27534176483687 53.237172883918134 C-76.80005183375535 38.360042408594374, -81.57291076839115 25.268929522652535, -84.95116652397348 22.057809995321726 M-68.81507779546018 53.63923866579458 C-74.00721426710504 41.24294837341741, -79.59905943210755 31.75610125029485, -85.07729608973398 19.65754117055068 M-84.18464602379038 18.768874334005808 C-77.31040637324259 21.51898983042177, -72.19990586566838 21.085172067591998, -52.92347649366196 23.104418607975816 M-85.9076922651185 19.603759184314107 C-77.64024021602 21.708529040686617, -69.36153341919804 21.253546933589405, -52.81427422605987 22.407078028272366 M-54.09424237043198 25.064781042363023 C-57.170315525337216 15.626608691225375, -59.651630322068634 3.946391189319222, -67.4259542019917 -8.06227254431018 M-53.08886900984283 23.44227004105923 C-58.50422092196534 11.231710261849667, -62.2517701151754 -0.06239772653897191, -66.57661167512371 -7.449158099771229 M-66.64045176821485 -7.074291701719848 C-59.95249219062359 -4.283083759019739, -53.53282596051513 -3.1434747217907635, -36.873221215468035 3.7694185357499324 M-65.67186991105511 -8.659464744210926 C-55.7808392902338 -3.359415796762148, -46.42065966557581 1.7143166184480245, -38.40704279639958 4.667885389174839 M-37.769145783644305 4.594588099043389 C-38.80121906333004 -2.538237249629036, -40.806116055075066 -8.256747423332866, -45.17874866299519 -24.65313672357467 M-38.683804328229414 5.111982431258579 C-40.87985838536348 -5.576851700132094, -42.85489507447848 -14.338492860264074, -47.438948386760444 -24.7540025961515 M-47.925045545624585 -23.149958127078087 C-39.42863552322459 -21.75229488760658, -31.4256171725023 -16.7678147429829, -18.848429958863463 -13.851811358087923 M-45.742428058238715 -24.021224523794324 C-38.41182017892081 -20.29141216886647, -30.079473869359706 -17.192571685349904, -20.677428403465356 -13.435730736085441" stroke="#000000" stroke-width="1" fill="none"></path></g></g><g><g transform="translate(199.7890168655996 68.9249469243916) rotate(0 41.737514967499976 91.1492659598591)" fill-rule="evenodd"><path d="M-14.43382900606823 -0.8803407241465714 L6.088158953629357 19.299763506857648 L14.895894814857279 29.517109989282353 L19.721453046057917 27.71887043131452 L23.731104761860287 24.661070743272383 L43.61664668009927 6.59078549935913 L50.63646190152541 -0.5527466400884578 L64.68616071340941 -4.394504967581836 L80.99877460101591 3.61980916378852 L89.40995255057479 7.070849599799253 L117.62699053659429 22.442273530732802 L128.44625637687943 32.76392377773069 L146.4950137099616 49.994739207055986 L150.27690769705447 62.648143551395236 L155.8381073913157 69.08753700815608 L152.70449519638822 81.05116613922155 L138.6696661161123 106.62697308161005 L139.66292300263513 113.96677353556214 L145.53998374745234 119.30058697742251 L167.8732338373389 124.25463689241917 L172.8091608386042 128.2999394541428 L177.18891013721014 135.2470120637047 L179.72573562778015 139.12152590212318 L175.45611696711273 152.10024153970193 L175.78041494185055 154.8143055624973 L154.2881940401457 153.00268383643385 L150.50865158694165 155.96805291346328 L149.50468009619354 174.0428131868939 L144.43434816931637 181.0316966862971 L135.17129030929988 185.2722680578088 L125.86336879666725 184.32198915234707 L118.87990910333825 179.3943167704872 L112.84691112219342 166.24564229239778 L106.5995398661733 152.55932228110805 L97.0835814630283 142.59581193941216 L96.38533075883304 139.3614908822227 L112.09306049308991 124.47559662974835 L118.14042926729707 115.1004017878115 L120.44581903693137 107.20851748983877 L123.90784090541668 91.41835480289947 L120.35180274744573 78.6550334017986 L112.6282746577021 64.4978549562637 L110.00445863034808 60.05848643649904 L94.13488516708274 52.95054075322157 L74.92927268595895 47.560136552156095 L47.24504278510777 48.24099422303605 L-67.09411157043787 50.371244460887 L-94.38241408533091 50.93674372980059 L-93.76599249444337 46.83818255697375 L-91.09835709325225 42.163164738716006 L-50.981057021141105 11.339325617870443 L-37.444796432161645 4.693628575309923 L-17.85797041308117 0.3898013542530868" stroke="none" stroke-width="0" fill="#ffff" fill-rule="evenodd"></path><path d="M-17.100577131919383 -0.27912368521710895 C-12.575897932552113 4.2025842151714485, 3.6148813392146595 22.631937918014586, 10.928080086951178 26.785939872547893 C18.241278834687698 30.9399418270812, 19.998387135183492 29.354723065204965, 26.778615354499735 24.64488804198273 C33.55884357381598 19.93505301876049, 42.79596808480994 2.292237930866798, 51.60944940284863 -1.473070266785521 C60.42293072088732 -5.23837846443784, 66.60429953456645 -3.6740485184650207, 79.65950326273189 2.0530388560688126 C92.71470699089733 7.7801262306026455, 117.23755032905896 21.30852155521486, 129.94067177184127 32.88945398041748 C142.64379321462357 44.4703864056201, 154.39029696991233 58.955430979759846, 155.87823191942573 71.53863340728451 C157.36616686893913 84.12183583480918, 140.78609247292266 100.55373219147293, 138.86828146892174 108.38866854556545 C136.9504704649208 116.22360489965797, 138.5098697062818 115.2451694730849, 144.37136589542015 118.54825153183964 C150.23286208455852 121.85133359059438, 168.71134992983943 122.61406108029392, 174.0372586037519 128.20716089809392 C179.36316727766436 133.80026071589393, 178.15432876960963 147.7584630408426, 176.32681793889495 152.10685043863964 C174.49930710818026 156.45523783643668, 167.0398967923824 153.73581564051187, 163.07219361946372 154.2974852848761 C159.10449044654504 154.85915492924033, 154.5772250850499 151.88094514999426, 152.52059890138287 155.476868304825 C150.46397271771585 159.07279145965572, 153.49302824917905 170.8180979179129, 150.73243651746154 175.87302421386048 C147.97184478574403 180.92795050980806, 141.35090337052594 185.36232988534204, 135.9570485110778 185.80642608051053 C130.56319365162966 186.25052227567903, 122.2390601025067 181.85867845567844, 118.36930736077262 178.53760138487138 C114.49955461903855 175.21652431406432, 114.91240557313681 170.3168749972868, 112.73853206067332 165.87996365566806 C110.56465854820983 161.44305231404934, 108.30835123975932 156.11620859183657, 105.3260662859917 151.91613333515897 C102.34378133222408 147.71605807848138, 93.48316389050164 145.03424091504107, 94.84482233806763 140.67951211560256 C96.20648078563362 136.32478331616406, 108.70838503345541 131.47025885893146, 113.49601697138762 125.78776053852798 C118.28364890931982 120.1052622181245, 122.28678245382908 114.41493509876517, 123.5706139656609 106.58452219318168 C124.85444547749272 98.7541092875982, 125.03128057697087 87.2541584738123, 121.19900604237857 78.80528310502707 C117.36673150778627 70.35640773624185, 110.40319596275629 60.77963059360572, 100.57696675810712 55.891269980470334 C90.75073755345795 51.00290936733495, 79.673756864648 50.52831479223313, 62.241630814483564 49.47511942621477 C44.80950476431913 48.4219240601964, 19.864626288665157 49.44953309381136, -4.015789542879469 49.57209778436014 C-27.8962053744241 49.69466247490892, -66.08563348685577 50.998917944730515, -81.04086417478422 50.21050756950745 C-95.99609486271267 49.42209719428438, -95.69957953965624 49.32865388857384, -93.74717367045017 44.841635533021744 C-91.79476780124409 40.35461717746965, -79.0449024587192 30.22073166230679, -69.32642895954777 23.28839743619488 C-59.60795546037633 16.356063210082972, -44.18295640306222 6.983855328748348, -35.43633267542155 3.2476301763502864 C-26.689708947780886 -0.488594976047775, -19.98854990082746 1.5844473954909009, -16.846686593703748 0.8710465218065114 M-15.35058873740007 -1.4293318434028146 C-10.464162660898953 2.6758821848796677, 6.122577989382585 20.336938174025846, 13.110076304758932 24.825369670683425 C20.09757462013528 29.313801167341005, 20.63574505483737 29.788862677531363, 26.574401154858013 25.50125713654265 C32.51305725487866 21.21365159555394, 40.10919469239154 2.9638125023067947, 48.742012904882806 -0.9002635752488413 C57.37483111737407 -4.764339652804477, 65.12043751463084 -3.1376128309137448, 78.3713104298056 2.3168006712088367 C91.62218334498037 7.771214173331418, 115.16462411664945 20.44732233569931, 128.24725039593145 31.826217437486648 C141.32987667521346 43.20511253927398, 154.75277173493555 57.85481341544859, 156.8670681054976 70.59017128193285 C158.98136447605964 83.32552914841712, 142.6956456045235 100.44294769571131, 140.93302861930374 108.23836463639222 C139.170411634084 116.03378157707313, 140.69147479721843 114.09451407591747, 146.29136619417912 117.36267292601829 C151.8912575911398 120.63083177611911, 169.50467326085834 122.42457269408946, 174.53237700106786 127.84731773699713 C179.56008074127737 133.2700627799048, 178.55043829382055 145.5813062259191, 176.45758863543622 149.8991431834643 C174.3647389770519 154.21698014100951, 165.87328361963333 152.44135387076153, 161.97527905076194 153.75433948226834 C158.07727448189056 155.06732509377514, 155.03313746630215 154.12750057850852, 153.06956122220794 157.77705685250515 C151.10598497811372 161.4266131265018, 152.99011806088222 171.0603986426074, 150.19382158619663 175.6516771262481 C147.39752511151104 180.2429556098888, 141.48918509899292 184.67964471458168, 136.2917823740944 185.3247277543494 C131.09437964919587 185.9698107941171, 122.6331823282886 182.68263917390226, 119.00940523680543 179.52217536485446 C115.38562814532227 176.36171155580666, 116.99023495539807 170.89898613063312, 114.54911982519538 166.3619449000626 C112.10800469499269 161.8249036694921, 107.30486900065264 156.45504467376793, 104.36271445558931 152.2999279814314 C101.42055991052598 148.1448112890949, 95.23967479954304 146.0423312519692, 96.89619255481539 141.43124474604352 C98.55271031008773 136.82015824011785, 109.93703889189914 130.60065979584232, 114.30182098722337 124.63340894587733 C118.6666030825476 118.66615809591234, 121.85040807904268 113.43748978484396, 123.0848851267608 105.62773964625353 C124.31936217447891 97.8179895076631, 125.5385322868102 86.18144412806843, 121.70868327353205 77.77490811433472 C117.8788342602539 69.36837210060101, 109.82901255994045 59.95259327049777, 100.10579104709188 55.188523563851284 C90.38256953424332 50.424453857204796, 81.0451331211344 50.101591647293965, 63.369354196440604 49.19048987445578 C45.69357527174681 48.27938810161759, 17.891696930024473 49.06646214927302, -5.948882501070878 49.72191292682217 C-29.789461932166233 50.37736370437132, -65.29319729706458 54.05623535514928, -79.67412239013152 53.123194539750685 C-94.05504748319845 52.190153724352086, -94.11086121551092 48.7708787064552, -92.23443305947252 44.12366803443057 C-90.35800490343412 39.476457362405945, -77.39071850755927 31.83423810373046, -68.41555345390108 25.239930507602928 C-59.440388400242895 18.645622911475396, -47.20352244111385 8.760632538993256, -38.38344273752341 4.55782245766539 C-29.563363033932973 0.35501237633752236, -19.035834168828554 0.7355467146601986, -15.49507523235847 0.02307001963572529" stroke="#000000" stroke-width="1" fill="none"></path></g></g><g><g transform="translate(415.0792102875222 314.9906769864548) rotate(0 -189.63511217562734 -7.235929630542543)" fill-rule="evenodd"><path d="M-54.798706600144506 -15.77408411290214 L-112.14532091673158 -11.742177104156307 L-130.25394265992702 -15.807205492974404 L-136.77623859077607 -17.56298117025193 L-144.5386046913627 -29.77341982338972 L-152.2955657823028 -41.799886144381425 L-160.5797371240251 -67.5984692153186 L-166.10385499092712 -73.08053559334797 L-176.12712595297648 -78.45333279182714 L-206.50670590529572 -81.84450724031117 L-214.49143742967996 -80.86977123163763 L-220.9817912974866 -76.58563353490563 L-218.95899343175364 -56.173404303746786 L-214.85546288215795 -55.78452918753976 L-212.80399168929807 -52.18491481927367 L-184.55895727555378 -55.17387917607911 L-177.45765650595527 -53.54629755361965 L-172.78855821258196 -50.15134573554738 L-171.66339170487856 -18.616284672009463 L-172.13932127375043 -15.485883846062762 L-175.35133434425936 -10.898127718803424 L-192.89987654488948 -7.953739975286332 L-303.4657999105611 -11.526969567498398 L-323.21475379770754 -8.751654218156911 L-325.5473161221289 -5.979416675885389 L-314.61897708662497 3.576396617385819 L-307.87435966072974 5.16736863352037 L-275.987100032665 3.949647034179877 L-267.54644423575417 2.436300622547358 L-265.53022384175335 11.159172120914779 L-263.689423626463 35.42782674026557 L-259.17526286570285 41.61363339107424 L-248.44087991111886 53.12278776834802 L-231.044252090533 57.56971358931829 L-209.2313002756199 61.89804317853607 L-186.13351968646785 63.39353390904968 L-154.84727468693615 61.75105554346482 L-142.96606621738667 61.054090737660346 L-129.0573166605787 49.75777153862666 L-114.8086206072782 37.86714863190726 L-113.24359148582836 33.33739642111347 L-110.10563528761014 14.68479029645619 L-109.13051835867397 1.4488470283506287 L-103.98033909843865 1.1757258190768374 L-82.37404508075916 3.2665171319998034 L-72.95164109940366 3.395289157020536 L-68.07482922340321 -0.69668501030492 L-54.23456306166947 -12.001338384409403" stroke="none" stroke-width="0" fill="#ffff" fill-rule="evenodd"></path><path d="M-56.04023946680129 -14.607090502341245 C-65.1631342194038 -14.251096214436718, -96.37677385759558 -11.883389337233577, -109.7967455318167 -12.459771878223709 C-123.21671720603781 -13.03615441921384, -129.81415643411216 -13.163896337156366, -136.560069512128 -18.06538574828204 C-143.30598259014383 -22.966875159407714, -146.31620523366746 -33.793878037439434, -150.27222399991172 -41.868708344977755 C-154.22824276615597 -49.943538652516075, -156.09764358965097 -60.292730098663085, -160.29618210959362 -66.51436759351198 C-164.49472062953626 -72.73600508836087, -166.32648408937965 -77.13896048497341, -175.46345511956764 -79.19853331407111 C-184.60042614975563 -81.25810614316882, -207.95292354718606 -80.70327029901287, -215.11800829072152 -78.87180456809821 C-222.28309303425698 -77.04033883718355, -218.31252804060372 -72.46775549686751, -218.45396358078037 -68.20973892858316 C-218.595399120957 -63.95172236029882, -219.80624115391174 -55.841845006407226, -215.96662153178136 -53.32370515839214 C-212.12700190965097 -50.80556531037705, -202.0584662646604 -53.31040687650612, -195.41624584799803 -53.10089984049261 C-188.77402543133564 -52.891392804479096, -179.66302178284894 -55.63840897668235, -176.113299031807 -52.066662942311076 C-172.56357628076506 -48.4949169079398, -173.86357920211302 -38.29543715779789, -174.11790934174644 -31.670423634264985 C-174.37223948137986 -25.045410110732075, -170.25534312134138 -15.91967373662803, -177.63927986960755 -12.316581801113625 C-185.02321661787371 -8.71348986559922, -202.327912541414 -10.535809347156269, -218.4215298313434 -10.05187202117856 C-234.5151471212728 -9.567934695200853, -256.8523985549546 -9.832854833354542, -274.200983609184 -9.41295784524738 C-291.54956866341337 -8.993060857140218, -315.2185238446725 -9.23094728195028, -322.5130401567197 -7.532490092535593 C-329.80755646876685 -5.834032903120905, -320.4904584316637 -1.7055837779731753, -317.96808148146715 0.7777852912407484 C-315.4457045312706 3.2611543604546718, -314.3371878144348 7.053503367193046, -307.3787784555405 7.367724322747951 C-300.4203690966462 7.681945278302856, -283.39860789167955 2.2185035984675268, -276.2176253281014 2.6631110245701777 C-269.03664276452326 3.1077184506728286, -267.17097794101267 3.4060301208687074, -264.29288307407177 10.035368879363856 C-261.41478820713087 16.664707637859006, -264.58566281416194 34.386364937214324, -258.949056126456 42.439143575541074 C-253.3124494387501 50.491922213867824, -242.4416599797457 54.79434412596806, -230.47324294783616 58.35204070932438 C-218.5048259159266 61.909737292680695, -201.37051265490717 63.6102719583065, -187.13855393499873 63.785323075678996 C-172.90659521509028 63.96037419305149, -156.81391600446065 63.51865836262505, -145.0814906283855 59.402347413559376 C-133.34906525231034 55.286036464493705, -122.52581255458492 47.91848086060154, -116.74400167854772 39.08745738128499 C-110.96219080251052 30.256433901968443, -112.65732471193567 12.683732340492757, -110.39062537216235 6.416206537660078 C-108.12392603238902 0.14868073482739863, -109.42436492628036 1.9767813576133841, -103.14380563990774 1.4823025642889154 C-96.86324635353512 0.9878237709644466, -80.47957283836142 6.124340441390925, -72.70726965392664 3.449333777713266 C-64.93496646949187 0.7743271140356072, -59.35400304084443 -11.64347530406561, -56.50998653329909 -14.567737417777037 M-54.04528433118947 -12.407739384311219 C-63.273397499350324 -11.769882512948268, -96.22772155175004 -10.099533866991598, -110.11892710440486 -10.866462281325674 C-124.01013265705969 -11.63339069565975, -130.7967523835552 -11.942971902969472, -137.39251764711838 -17.00930987031568 C-143.98828291068156 -22.075647837661887, -146.14284259826545 -33.01610454706825, -149.693518685784 -41.26449008540291 C-153.24419477330255 -49.51287562373757, -154.53348988229754 -60.54912244277839, -158.6965741722297 -66.49962310032365 C-162.85965846216186 -72.4501237578689, -165.4313268791209 -74.76526408403112, -174.67202442537686 -76.96749403067443 C-183.91272197163283 -79.16972397731774, -206.64395366234527 -81.05795915012911, -214.14075944976548 -79.71300278018352 C-221.6375652371857 -78.36804641023792, -219.06806027190666 -73.16409272069349, -219.65285914989812 -68.89775581100089 C-220.23765802788958 -64.6314189013083, -221.74037245761144 -56.71400589400435, -217.6495527177142 -54.11498132202791 C-213.55873297781693 -51.515956750051465, -202.02667146566225 -53.823664436220966, -195.1079407105146 -53.30360837914222 C-188.18920995536698 -52.78355232206347, -179.96868677783564 -54.46338198102161, -176.13716818682838 -50.994644979555446 C-172.3056495958211 -47.52590797808928, -171.8354716626697 -38.78640069030345, -172.11882916447098 -32.4911863703452 C-172.40218666627226 -26.195972050386946, -170.0060206970805 -16.896932238751905, -177.83731319763595 -13.223359059805933 C-185.6686056981914 -9.549785880859961, -203.1330685631003 -11.072132165135647, -219.10658416780373 -10.449747296669365 C-235.08009977250717 -9.827362428203083, -256.53114523763014 -9.653974265086763, -273.6784068258566 -9.48904984900824 C-290.82566841408305 -9.324125432929716, -314.95461299078175 -10.75011912386784, -321.9901536971623 -9.46020080019822 C-329.0256944035429 -8.170282476528598, -318.6244396341785 -4.642210371918724, -315.8916510641399 -1.7495399069905166 C-313.15886249410136 1.1431305579376903, -311.9995041599793 7.081187587091702, -305.5934222769309 7.895821989371022 C-299.18734039388244 8.710456391650341, -283.9136291636553 2.4766840589224226, -277.4551597658491 3.1382665066854014 C-270.9966903680429 3.7998489544483802, -269.7819713227234 5.504501562556723, -266.84260589009386 11.865316675948895 C-263.90324045746434 18.226131789341068, -265.89070109193887 33.203658367902186, -259.818967170072 41.30315718703844 C-253.7472332482052 49.40265600617469, -242.51046724607232 56.34879127363733, -230.41220235889287 60.4623095907664 C-218.31393747171342 64.57582790789547, -201.62224751154434 66.34700722427858, -187.22937784699528 65.98426708981287 C-172.8365081824462 65.62152695534716, -156.00589226557162 62.75255827468621, -144.05498437159838 58.285868783972155 C-132.10407647762514 53.8191792932581, -120.77315744986022 47.85304102612788, -115.52393048315578 39.18413014552855 C-110.27470351645134 30.515219264929215, -114.80357458971821 12.67588189957522, -112.55962257137175 6.272403500376136 C-110.31567055302529 -0.13107489882294843, -108.41299845669037 0.9776349361827517, -102.06021837307702 0.7632597503340406 C-95.70743828946367 0.5488845644853295, -81.97648171642149 7.345887604342826, -74.44294206969165 4.986152385283869 C-66.90940242296182 2.626417166224913, -60.27090018960446 -9.9657430997457, -56.85898049269803 -13.395151564019699" stroke="#000000" stroke-width="1" fill="none"></path></g></g><g><g transform="translate(106.57853900075031 160.51746880430875) rotate(358.9447894706447 -6.9387870839013885 50.25464256938606)" fill-rule="evenodd"><path d="M-7.316033608334873 -0.6888056529922453 L12.747180212613994 -3.2532612485201096 L18.27516446103153 0.03312687998195196 L22.61706011999182 2.3305441365927053 L22.06573840520054 98.47773556667977 L19.57920640817214 99.3364259074415 L6.597948015072626 100.04834766301516 L-24.543910165934527 102.09753606787388 L-29.921540771313047 98.68507476864498 L-31.474890896108924 86.62686427878523 L-33.80997101391203 54.116605216636046 L-32.72924874665968 45.54227579865294 L-31.67097121201247 40.933504698400235 L-25.675305600373058 38.07761208674216 L-7.317745354701409 33.123628915769864 L0.09756739835990846 28.893206677095012 L3.1261346442090767 19.836548983531863 L-7.245659477132175 0.3408816324310336" stroke="none" stroke-width="0" fill="#ffff" fill-rule="evenodd"></path><path d="M-6.114430569725846 -0.508528956608292 C-2.0188161353589917 -0.7041799430101755, 13.75825136041474 -3.870246502458589, 18.61488731642065 -1.2049206318936774 C23.47152327242656 1.460405238671234, 22.40835889357547 6.57557018041596, 23.025385166309604 15.483426266781176 C23.642411439043737 24.391282353146394, 22.483589307886813 40.09938619062081, 22.31704495282545 52.24221588629762 C22.15050059776409 64.38504558197442, 22.289515765090595 80.41415070334178, 22.02611903594143 88.34040444084204 C21.762722306792266 96.2666581783423, 25.156393739977563 97.56440461779431, 20.736664577930462 99.79973831129921 C16.31693541588336 102.0350720048041, 3.570037974555743 102.02248787506394, -4.492255936341171 101.75240660187143 C-12.554549847238086 101.48232532867891, -22.313700975009883 103.33056089291861, -27.637098887451028 98.17925067214411 C-32.96049679989218 93.0279404513696, -35.661133394262684 80.37035713825895, -36.43264341098804 70.84454527722441 C-37.2041534277134 61.318733416189865, -38.45673217347519 47.959020037759956, -32.266158987803166 41.024379505936835 C-26.075585802131148 34.089738974113715, -3.5940286337571155 36.19703660170177, 0.7107957030440707 29.236702086285668 C5.015620039845257 22.276367570869567, -5.281342535064873 4.358628524272695, -6.437212966996048 -0.7376275865597692 M-7.581769094158698 -1.7264418548489033 C-3.7006713045677118 -1.7450528171490527, 12.345736973073524 -2.282237850306095, 17.401376343889137 0.2469242994722447 C22.45701571470475 2.7760864492505846, 21.904006946593846 4.5727374304550175, 22.752067130734975 13.448531043821136 C23.600127314876104 22.324324657187255, 22.763915943156263 40.93639728215299, 22.4897374487359 53.50168597966896 C22.21555895431554 66.06697467718493, 21.69191511522525 80.75318105331351, 21.106996164212816 88.84026322891697 C20.522077213200383 96.92734540452042, 23.650417225189216 100.02205926961682, 18.98022374266129 102.02417903328974 C14.310030260133367 104.02629879696266, 0.9877360995288473 101.49867845173836, -6.914164730954726 100.85298181095446 C-14.816065561438299 100.20728517017056, -23.738374324243225 103.36332005016087, -28.431181240240146 98.14999918858636 C-33.12398815623707 92.93667832701186, -34.46385415344772 79.16659051762484, -35.07100622693625 69.57305664150746 C-35.678158300424776 59.97952276539008, -38.13527680325948 47.67119571977009, -32.07409368117131 40.588795931882075 C-26.012910559083146 33.50639614399406, -3.3216823228156125 34.085812058966624, 1.2960925055927621 27.078657914179356 C5.913867334001137 20.071503769392088, -3.1412449032248375 2.9114150746175946, -4.367444710721065 -1.4541289368415293" stroke="#000000" stroke-width="1" fill="none"></path></g></g><g><g transform="translate(191.58691668413883 158.2729015245373) rotate(0 36.103780392282374 14.05889652877613)" fill-rule="evenodd"><path d="M1.3882193975150585 -1.2614625506103039 L-0.3979518140669587 18.995142977391993 L0.7398549382128592 29.22734409472296 L62.552743977995874 25.86156278753713 L68.2925185875164 23.4074500594072 L73.75322332244762 15.518025943353665 L71.40784902715335 5.648233697432032 L68.1252482830511 2.0901208022136935 L61.771010766360696 0.5091772346505676 L40.39411103414586 0.47712587488809255 L0.037296097725629807 0.31993331387639046" stroke="none" stroke-width="0" fill="#ffff" fill-rule="evenodd"></path><path d="M0.9157596118748186 -0.9677751906216144 C1.0935795701946274 3.2751471384456896, -0.7071945956148934 20.164159764061793, 0.9372394747468574 24.860971147025314 C2.5816735451086084 29.557782529988835, 1.6629779464369516 26.555659741513868, 10.782364034045324 27.213093107159498 C19.9017501216537 27.87052647280513, 45.86485436616918 29.80166780048689, 55.653556000397096 28.80557134089909 C65.44225763462501 27.80947488131129, 66.80778525221827 24.95062724888029, 69.51457383941278 21.236514349632706 C72.22136242660729 17.52240145038512, 74.51963054494834 9.879218031571883, 71.89428752356419 6.520893945413581 C69.26894450218003 3.16256985925528, 65.72481675215897 2.081429743168998, 53.76251571110781 1.0865698326828972 C41.80021467005665 0.09170992219679652, 9.085033127180232 0.6158619415710849, 0.12048127725720414 0.5517344824969768 M-0.06260532123036677 1.1385388889629393 C0.014370553959082363 5.556724432439595, -1.4908817234155518 21.422813698482816, 0.2641751007451608 25.91057371112363 C2.019231924905873 30.39833372376444, 1.1370463833855329 27.913179686541174, 10.467735623733908 28.065098964807824 C19.798424864082286 28.217018243074474, 46.110120779289744 27.956695542695805, 56.24831054283541 26.822089380723533 C66.38650030638108 25.68748321875126, 69.03192941865618 24.273685373185973, 71.29687420500792 21.257461992974203 C73.56181899135967 18.241238612762434, 72.68834890444666 12.283149374354334, 69.83797926094593 8.724749099452918 C66.9876096174452 5.166348824551502, 65.97466420393337 1.277774345398071, 54.19465634400356 -0.09293965643429325 C42.414648484073744 -1.4636536582666575, 8.475327326794085 0.5371715019314717, -0.8420678986329586 0.5004650884587316" stroke="#000000" stroke-width="1" fill="none"></path></g></g><g transform="translate(204.89563380054267 47.71691086245846) rotate(0 13.43764404769388 13.43764404769383)"><path d="M10.168144739533833 -0.26234481952327826 C12.861893649553222 -0.8066738213524226, 17.079332487291282 -0.1267242632554062, 19.793783062316205 1.4905164595304257 C22.508233637341128 3.1077571823162575, 25.306844749318415 6.799483515817952, 26.454848189683368 9.441099517191713 C27.60285163004832 12.082715518565474, 27.896632209334108 14.642270645777295, 26.68180370450593 17.340212467772986 C25.466975199677755 20.038154289768677, 21.600803872004896 23.99583997254939, 19.16587716071431 25.628750449165857 C16.730950449423723 27.261660925782323, 14.756647764236629 27.689533095205505, 12.072243436762404 27.137675327471783 C9.38783910928818 26.58581755973806, 4.969802446462481 24.62780906164632, 3.0594511958689647 22.317603842763525 C1.1490999452754487 20.00739862388073, 0.5199911741240069 16.252503473128037, 0.6101359332013079 13.276444014175006 C0.7002806922786089 10.300384555221976, 1.4549031803181496 6.6285806454905405, 3.600319750332771 4.4612470890453455 C5.745736320347392 2.2939135326001505, 11.657777184301652 0.9717253318532801, 13.482635353289036 0.27244267550383583 C15.307493522276419 -0.4268399808456085, 14.637930780748501 -0.033459353596072994, 14.549468764257066 0.26555115094867965 M11.109706349646025 1.134519037648806 C13.802458314789192 0.12941473959393468, 16.722653260387386 -0.10328842463763088, 19.29917034644354 1.1008798933424195 C21.875687432499692 2.30504821132247, 25.59669391141782 5.68468911821866, 26.56880886598295 8.359528945529108 C27.540923820548084 11.034368772839557, 25.9969809436819 14.16681957892657, 25.13186007383434 17.149918857205105 C24.266739203986777 20.133018135483642, 23.653141792929485 24.450341288179274, 21.37808364689758 26.258124615200323 C19.103025500865673 28.065907942221372, 14.428252328732043 28.41251792937034, 11.481511197642911 27.996618819331403 C8.53477006655378 27.580719709292467, 5.456642367608198 26.023509511416826, 3.6976368603627936 23.7627299549667 C1.9386313531173895 21.501950398516577, 1.2989215004275703 17.661166390755135, 0.9274781541704868 14.431941480630666 C0.5560348079134034 11.2027165705062, -0.007868623640302275 6.5218729418857695, 1.4689767828202935 4.3873804942198955 C2.9458221892808893 2.252888046554022, 8.430282232668935 2.0531903784847425, 9.788550592934062 1.624986794635424 C11.146818953199189 1.1967832107861056, 9.509058658322479 1.6878861672695462, 9.618586944411051 1.818158991123985" stroke="none" stroke-width="0" fill="#ffff"></path><path d="M13.99189338345651 -0.5451247017077723 C16.977876734465458 -0.5100822592965608, 20.399456621687452 2.0683704124886475, 22.645506485223514 3.936178944722288 C24.891556348759575 5.803987476955928, 27.025838504752617 7.884429930527407, 27.468192564672883 10.66172649169407 C27.91054662459315 13.439023052860733, 26.792379297402704 17.9446433996043, 25.29963084474511 20.599958311722265 C23.806882392087516 23.25527322384023, 21.059281600940075 25.52091010048387, 18.511701848727316 26.59361596440186 C15.964122096514556 27.666321828319848, 12.923840518118014 27.987490698418544, 10.014152331468548 27.0361934952302 C7.104464144819081 26.084896292041858, 2.6369512594577458 23.49252706697152, 1.0535727288305186 20.885832745271806 C-0.5298058017967087 18.279138423572093, -0.0871498222792445 14.453179489126216, 0.5138811477051846 11.396027565031929 C1.1149121176896135 8.338875640937642, 2.0515924080150074 4.299059361220757, 4.659758548737093 2.542921200706081 C7.2679246894591785 0.7867830401914047, 14.06606484569215 1.178991434174524, 16.1628779920377 0.8591986019438718 C18.25969113838325 0.5394057697132195, 17.363356296646565 0.5476271879662603, 17.240637426810395 0.6241642073221669 M14.626075240130065 -0.08384620535677989 C17.32599989251795 -0.11822292884475782, 21.02463984348313 1.520083822450322, 22.875446915024625 3.347758499737324 C24.72625398656612 5.175433177024327, 25.483932416838364 7.935200122378808, 25.73091766937904 10.882201858365233 C25.977902921919714 13.82920359435166, 25.74319995074268 18.265792235971563, 24.357358430268665 21.02976891565588 C22.971516909794648 23.793745595340194, 19.950772354097207 26.64386686731579, 17.415868546534934 27.46606193647112 C14.880964738972661 28.288257005626452, 11.83342640353292 27.111782064714635, 9.147935584895023 25.962939330587872 C6.462444766257127 24.81409659646111, 2.8843615584533486 23.150363148561823, 1.3029236347075521 20.57300553171054 C-0.2785142890382446 17.995647914859255, -1.1368988613423103 13.478756312676722, -0.34069195757975734 10.498793629480161 C0.45551494618279575 7.5188309462836, 3.557809554461939 4.4710928442285605, 6.080165057282871 2.693229432531176 C8.602520560103804 0.9153660208337913, 13.551850528249163 0.23205996646701, 14.793441059345836 -0.16838684070414622 C16.035031590442507 -0.5688336478753024, 13.551027966577196 -0.17317594136444053, 13.529708243862906 0.29054858950423856" stroke="#000000" stroke-width="1" fill="none"></path></g><g transform="translate(60.87165400731237 157.2853930975006) rotate(0 13.437644047693823 13.437644047693828)"><path d="M16.463784242330224 1.0539474085446727 C19.254709779209076 1.478568930738481, 21.555765590986617 3.058424242859758, 23.332764505861697 5.198599359132402 C25.109763420736776 7.338774475405046, 27.115042711285636 11.000684777050443, 27.125777731580712 13.894998106180536 C27.136512751875788 16.78931143531063, 25.140725870531153 20.604634099200783, 23.397174627632147 22.56447933391296 C21.65362338473314 24.524324568625136, 19.386906133828393 25.377189769517813, 16.664470274186684 25.6540695144536 C13.942034414544972 25.930949259389386, 9.85172017891476 25.38848595356582, 7.062559469781882 24.225757803527692 C4.273398760649004 23.063029653489565, 0.9179570815907687 21.363047413077204, -0.07049398061058554 18.677700614224843 C-1.0589450428119398 15.99235381537248, -0.05644303293484643 10.80835852513427, 1.1318530965737565 8.11367701041352 C2.3201492260823597 5.418995495692769, 4.17259056788505 3.685605788557613, 7.059282796441033 2.5096115259003398 C9.945975024997015 1.333617263243067, 16.130254844972335 1.0545085710947963, 18.452006467909655 1.0577114344698835 C20.773758090846975 1.0609142978449706, 21.213586287135094 2.3326111735223347, 20.989792534064964 2.528828706150863 M9.869428471770933 1.869788633122635 C12.361003225226845 0.5937761822821859, 14.817765049281507 -0.17759520744614443, 17.27079263393887 0.5080682946471562 C19.723820218596238 1.1937317967404568, 22.957714165731236 3.2767347331290586, 24.587593979715123 5.983769645682439 C26.21747379369901 8.690804558235818, 27.65445126686693 13.680457613674953, 27.050071517842195 16.750277769967436 C26.44569176881746 19.82009792625992, 23.375662269773887 22.755921790469323, 20.96131548556671 24.40269058343734 C18.546968701359535 26.04945937640536, 15.298697175902491 26.54400373115985, 12.56399081259914 26.630890527775534 C9.82928444929579 26.717777324391218, 6.695209338462322 26.826803304036, 4.553077305746601 24.92401136313145 C2.4109452730308805 23.021219422226896, 0.2111010818989702 18.1775693418249, -0.28880138369518527 15.214138882348223 C-0.7887038492893408 12.250708422871547, -0.13876954331951197 9.631961417783064, 1.5536625121816687 7.143428606271392 C3.2460945676828494 4.654895794759721, 8.708721368129098 1.0884553225830893, 9.865790949311899 0.28294201327819835 C11.0228605304947 -0.5225712960266925, 8.772830045604993 1.857938477225228, 8.496079999278473 2.3103487504420475" stroke="none" stroke-width="0" fill="#ffff"></path><path d="M17.038389163708928 0.7549230800292417 C19.656768171702048 1.2353943637510747, 23.474773896527534 3.455865313011677, 25.178847710081904 5.743960359438184 C26.882921523636274 8.03205540586469, 27.524753172328857 11.550439299313144, 27.262832045035154 14.48349335858828 C27.00091091774145 17.416547417863416, 25.696612098633015 21.2869845483518, 23.607320946319675 23.342284715089 C21.518029794006335 25.3975848818262, 17.700438983817786 26.535497269035282, 14.727085131155114 26.81529435901149 C11.753731278492442 27.095091448987695, 8.225370291694798 26.788609389804698, 5.7671978303436395 25.02106725494624 C3.3090253689924802 23.25352512008778, 0.5904746520786183 19.063600780333772, -0.02194963695184171 16.210041549860744 C-0.6343739259823017 13.356482319387718, 0.6703744242311773 10.45220341999837, 2.0926520961608794 7.899711872108078 C3.5149297680905818 5.347220324217787, 5.980897557356238 2.0262713529748497, 8.51171639462637 0.8950922625189932 C11.042535231896503 -0.2360868279368633, 15.70750532097884 1.2070920426286629, 17.277565119781677 1.112637329372939 C18.847624918584515 1.0181826161172152, 17.995313891554193 0.10459882426088729, 17.93207518744339 0.32836398298464964 M19.888522534661597 2.83541387491419 C22.565497315630033 3.824969168552285, 25.94867644011221 6.497506979614483, 26.782235634393384 8.807987989402566 C27.61579482867456 11.118468999190648, 26.05080112039143 13.814570742147447, 24.889877700348652 16.698299933642684 C23.728954280305874 19.58202912513792, 22.196445447448607 24.225212110070878, 19.816695114136717 26.110363138373984 C17.436944780824827 27.99551416667709, 13.402753792086923 28.480375976003998, 10.611375700477312 28.00920610346133 C7.819997608867702 27.538036230918664, 4.62138435401949 25.760797272232416, 3.0684265644790543 23.28334390311798 C1.5154687749386182 20.805890534003545, 1.3963021240323614 15.99790492415082, 1.2936289632346956 13.144485888774717 C1.1909558024370297 10.291066853398615, 0.9121235279089828 8.291124679777996, 2.4523875996930595 6.162829690861361 C3.9926516714771365 4.034534701944727, 7.860836205762116 1.1796090750666788, 10.535213393939156 0.3747159552749135 C13.209590582116196 -0.43017716451685184, 17.22489886136115 1.1546933893395857, 18.4986507287553 1.333470972110769 C19.77240259614945 1.5122485548819522, 17.89275650579419 1.1366266647688095, 18.177724598304057 1.4473814519020127" stroke="#000000" stroke-width="1" fill="none"></path></g><g transform="translate(113.24401029576006 330.2519908396108) rotate(0 13.437644047693823 13.437644047693823)"><path d="M19.413789246006182 0.7376335471831208 C22.11744757234417 1.4083416639245563, 25.22410704779665 3.6644574765325717, 26.306237334152737 6.3128906822441815 C27.388367620508824 8.96132388795579, 26.789528484110637 13.679644770451175, 25.90657096414271 16.62823278145278 C25.02361344417478 19.576820792454388, 23.059980514121197 22.193332133038798, 21.008492214345175 24.00441874825382 C18.957003914569153 25.81550536346884, 16.523917638504084 27.51374921068162, 13.597641165486586 27.494752472742917 C10.671364692469087 27.475755734804213, 5.733480922078531 25.86783673162249, 3.4508333762401815 23.890438320621598 C1.168185830401832 21.913039909620707, 0.19816891604254366 18.722797977767314, -0.09824410954351137 15.630362006737569 C-0.3946571351295664 12.537926035707821, 0.04957907743283241 7.718525952400803, 1.6723552227238514 5.3358224944431125 C3.2951313680148706 2.953119036485422, 6.538414987540918 1.9495271307966724, 9.638412762202602 1.3341412589914246 C12.738410536864286 0.7187553871861766, 18.209644023476326 1.485654034496453, 20.272341870693957 1.6435072636116246 C22.335039717911588 1.801360492726796, 22.28791186334153 2.134127610436481, 22.014599845508386 2.2812606336824537 M14.847675106651273 -0.34340844254383107 C17.15587166854921 -0.1237506242896608, 20.35851643186441 2.9529062506912633, 22.43460795462388 5.077287362636211 C24.510699477383348 7.201668474581158, 26.860590246592324 9.465974334418854, 27.304224243208097 12.402878229125854 C27.74785823982387 15.339782123832853, 26.961656975253558 20.103730859551845, 25.096411934318528 22.69871073087821 C23.2311668933835 25.293690602204578, 19.19831893219615 27.657068480679765, 16.112753997597927 27.972757457084043 C13.027189062999707 28.28844643348832, 9.287867101303432 26.453096993008636, 6.5830223267292 24.592844589303873 C3.8781775521549684 22.73259218559911, 1.0596245376223112 19.25474583967486, -0.11631464984746209 16.811243034855472 C-1.2922538373172354 14.367740230036086, -1.6335854515186898 12.35200703371717, -0.4726127980894397 9.931827760387552 C0.6883598553398105 7.5116484870579345, 3.938778681293829 3.8167471397690926, 6.849521270728038 2.29016739487777 C9.760263860162247 0.7635876499864473, 15.266547484285631 1.250062962320503, 16.991842738515818 0.7723492910396175 C18.717137992746004 0.29463561975873187, 17.298558260302983 -0.5480641893474273, 17.20129279610915 -0.5761146328075437" stroke="none" stroke-width="0" fill="#ffff"></path><path d="M10.105605950644524 0.41819188207541735 C12.810569162078634 -0.7114853994537547, 16.329578556696653 0.17513626183439945, 18.968705171962217 1.2053217286811897 C21.60783178722778 2.2355071955279797, 24.560325295276932 3.992008900822365, 25.940365642237918 6.599304683156158 C27.320405989198903 9.206600465489952, 28.108054324720577 13.925098355796734, 27.248947253728137 16.84909642268395 C26.389840182735696 19.773094489571164, 23.313455987583296 22.63246215313322, 20.785723216283287 24.143293084479453 C18.257990444983278 25.654124015825687, 14.723242136590326 25.96099759619748, 12.08255062592808 25.914082010761366 C9.441859115265835 25.86716642532525, 7.086679674005495 25.5309790428825, 4.941574152309819 23.86179957186277 C2.796468630614143 22.192620100843037, -0.39906200676810055 18.756213275983033, -0.7880825042459758 15.899005184642984 C-1.177103001723851 13.041797093302934, 0.5061458935990046 9.238155803416976, 2.6074511674425676 6.718551023822473 C4.7087564412861305 4.198946244227968, 9.864793073956903 1.9427627431940342, 11.819749138815402 0.7813765070759562 C13.7747052036739 -0.3800097290421218, 14.320337319037458 -0.2484354813951617, 14.337187556593562 -0.249766392885995 M11.484813176417214 -0.5023663307369688 C13.913011889935664 -1.5346485417436888, 16.934073204304962 -0.5907147613811679, 19.183453560684793 0.9201008401113242 C21.432833917064624 2.4309164416038165, 23.64825690319886 5.9985028246015855, 24.981095314696198 8.562527278217983 C26.313933726193536 11.12655173183438, 27.779771914437916 13.745253267549376, 27.180484029668822 16.30424756180971 C26.581196144899728 18.863241856070044, 23.985802364174337 22.200003015933703, 21.385368006081634 23.91649304377998 C18.784933647988932 25.632983071626256, 14.3289757887703 26.899032318727755, 11.57787788111261 26.603187728887367 C8.826779973454919 26.307343139046978, 6.882414174709872 24.263847889451444, 4.8787805601354854 22.141425504737654 C2.8751469455610987 20.019003120023864, -0.16397964363122358 16.50835354376168, -0.44392380633371076 13.868653420604627 C-0.723867969036198 11.228953297447577, 1.4754671901028151 8.643925809485834, 3.1991155839205625 6.303224765795349 C4.92276397773831 3.962523722104864, 8.475640353414413 0.969170841623139, 9.897966556572774 -0.1755528415382841 C11.320292759731135 -1.3202765246997072, 11.440912938708824 -0.911270675793274, 11.733072802870733 -0.5651173331731894" stroke="#000000" stroke-width="1" fill="none"></path></g><g transform="translate(314.4641160355858 332.3193206931023) rotate(0 13.43764404769388 13.437644047693823)"><path d="M7.952721103160341 1.1335352364492337 C10.28166625531417 0.27741442635520086, 14.543086545759653 0.6263475428570813, 17.429400270783674 1.6801513112935442 C20.315713995807695 2.7339550797300074, 23.74139497497 5.091715109797569, 25.270603453304467 7.456357847068012 C26.799811931638935 9.821000584338455, 27.150274777299437 13.271651741417147, 26.604651140790473 15.868007734916205 C26.05902750428151 18.464363728415265, 24.244069441862386 21.10309755236795, 21.996861634250685 23.03449380806236 C19.749653826638983 24.965890063756774, 15.941502410127677 27.387002901609165, 13.121404295120264 27.456385269082674 C10.301306180112851 27.525767636556182, 7.295151461226177 25.437421295235296, 5.076272944206206 23.450788012903402 C2.857394427186235 21.464154730571508, 0.39912912204122686 18.204536917041146, -0.1918668069995615 15.536585575091312 C-0.7828627360403498 12.868634233141478, -0.6001399775456391 10.154120286419232, 1.5302973699614757 7.4430799612044 C3.6607347174685905 4.732039635989567, 10.304066827716783 0.36709117080026266, 12.590757278043128 -0.7296563761976866 C14.877447728369473 -1.826403923195636, 15.388943073444828 0.6727139291320162, 15.250440071919547 0.8625946792167039 M12.101639468298314 -0.9687784240442152 C14.790053050926817 -1.0269269951801665, 19.32492340879596 1.7997134825344097, 21.674177123047876 3.6135339338886165 C24.02343083729979 5.427354385242824, 25.804405768091776 7.041635619992123, 26.197161753809805 9.914144284081026 C26.589917739527834 12.786652948169928, 25.62460258771884 18.21341093738401, 24.030713037356044 20.84858591842204 C22.436823486993248 23.48376089946007, 19.347514293128352 25.00059381298536, 16.63382445163303 25.7251941703092 C13.920134610137707 26.449794527633042, 10.288993327978229 26.23007010815184, 7.748573988384111 25.19618806236508 C5.208154648789993 24.162306016578324, 2.787501586413054 21.96426714819893, 1.391308414068316 19.521901895588663 C-0.004884758276421541 17.079536642978397, -1.2765905386675431 13.403563728415067, -0.6285850456843143 10.541996546703496 C0.019420447298914567 7.680429364991925, 2.7302507193073438 3.893985808800906, 5.279341371967689 2.3524988053192395 C7.828432024628034 0.8110118018375729, 13.38970596205463 1.4672913198939097, 14.665958870277757 1.2930745258134966 C15.942211778500884 1.1188577317330834, 13.258893126004867 1.2229639639879089, 12.936858821306444 1.3071980408367612" stroke="none" stroke-width="0" fill="#ffff"></path><path d="M8.967014159679946 0.5474029162521692 C11.45546682434312 -0.6440210300800404, 15.578444492199917 -0.21629991944427251, 18.279806175362584 0.8603575661356313 C20.98116785852525 1.9370150517155351, 23.81301838721584 4.463477039710716, 25.175184258655946 7.007347829731592 C26.53735013009605 9.551218619752468, 27.058490020921482 13.506093647917966, 26.452801404003225 16.123582306260893 C25.847112787084967 18.74107096460382, 23.575859042646442 21.01667529428579, 21.54105255714639 22.712279779789153 C19.506246071646338 24.407884265292516, 16.980247440599634 25.933469699985906, 14.243962491002906 26.297209219281065 C11.507677541406176 26.660948738576224, 7.338747235746704 26.6992116747172, 5.123342859566014 24.8947168955601 C2.9079384833853243 23.090222116403, 1.4546021097137563 18.44944664329929, 0.9515362339187678 15.470240544338472 C0.44847035812377956 12.491034445377652, 0.3803275491265026 9.631449660237834, 2.1049476047960844 7.019480301795186 C3.829567660465666 4.407510943352538, 9.554452823550111 0.8920559754766508, 11.29925656793626 -0.20157560631741944 C13.044060312322408 -1.2952071881114897, 12.490701024791122 0.10613607119486385, 12.57377007111297 0.4576908110307638 M12.207016082567627 -0.4912255678791162 C14.78175830585484 -0.4277894856557823, 19.891488083496633 2.384766339542036, 22.434785232198344 4.107637044882139 C24.978082380900055 5.830507750222242, 27.10116950424558 7.43291865221231, 27.466798974777895 9.845998664161504 C27.83242844531021 12.259078676110699, 26.12962139154725 15.825505119947874, 24.628562055392237 18.58611711657731 C23.127502719237224 21.346729113206745, 21.242688020178722 24.911628972571105, 18.460442957847818 26.40967064393812 C15.678197895516913 27.907712315305137, 10.600080671077643 28.508686379534016, 7.935091681406808 27.5743671447794 C5.270102691735973 26.640047910024787, 3.5515008042713605 23.51746676319878, 2.470509019822808 20.803755235410442 C1.389517235374256 18.090043707622105, 1.1634744338718699 14.35815608692088, 1.4491409747154957 11.292097978049378 C1.7348075155591216 8.226039869177876, 2.4147860526746783 4.508610111498893, 4.184508264884563 2.407406582181432 C5.954230477094448 0.30620305286397054, 10.367471914578367 -0.9664632057141453, 12.067474247974804 -1.3151231978553888 C13.767476581371241 -1.6637831899966322, 14.102480061498127 -0.3152107303176829, 14.38452226526318 0.3154466293339713" stroke="#000000" stroke-width="1" fill="none"></path></g><g transform="translate(358.5671529100688 156.59628314633684) rotate(0 13.43764404769388 13.437644047693828)"><path d="M6.761701409632308 0.32868174187556853 C9.119600513055968 -0.9001271570611145, 13.713391894464648 0.019352982914428996, 16.65297122078551 0.7960229763577509 C19.59255054710637 1.5726929698010728, 22.806620236623786 2.5469834817062167, 24.39917736755748 4.9887017025355 C25.991734498491176 7.4304199233647825, 26.542348711596027 12.32293494017254, 26.20831400638769 15.44633230133345 C25.87427930117935 18.56972966249436, 24.1647799284964 21.69115898992254, 22.39496913630746 23.72908586950096 C20.625158344118518 25.76701274907938, 18.39269767902077 27.540207274036508, 15.589449253254044 27.673893578803984 C12.786200827487317 27.80757988357146, 7.9813694393080326 26.288735604015375, 5.575478581707099 24.53120369810581 C3.1695877241061647 22.773671792196243, 1.7688360771123413 19.773285926393612, 1.1541041076484397 17.128702143346587 C0.5393721381845381 14.484118360299563, 0.4721551795805077 11.52786019331297, 1.8870867649236889 8.663700999823668 C3.30201835026687 5.799541806334366, 8.230339820700182 1.2021180652035992, 9.643693619707527 -0.05625301758922063 C11.057047418714872 -1.3146241003820405, 10.434112871988749 0.7414175439048227, 10.367209558967755 1.1134745030667492 M8.278545716518636 0.7239945950905522 C10.59927016086534 -0.7033401438019293, 15.216004009584921 -0.5925470543740572, 17.987480872151636 0.4106378835086666 C20.75895773471835 1.4138228213913904, 23.485772526052315 4.196002258738515, 24.907406891918924 6.743104222386895 C26.329041257785534 9.290206186035276, 26.929854734995583 12.878520511472178, 26.517287067351283 15.693249665398946 C26.104719399706983 18.507978819325714, 24.54989665109551 21.94334545305653, 22.43200088605313 23.6314791459475 C20.314105121010755 25.319612838838474, 16.816028524476145 25.80380637659034, 13.809912477097011 25.822051822744783 C10.803796429717877 25.840297268899224, 6.592104723742514 25.314569679902213, 4.39530460177833 23.740951822874152 C2.198504479814146 22.16733396584609, 0.9121060005377366 18.974198720085383, 0.6291117453119082 16.38034468057641 C0.3461174900860797 13.786490641067438, 1.3995724493833226 10.765859063110858, 2.697339070423359 8.177827585820319 C3.9951056914633956 5.5897961085297805, 7.302167288835958 2.1146260162832347, 8.415711471552127 0.8521558168331822 C9.529255654268297 -0.41031438261687025, 9.308298350802136 0.23966444495300454, 9.378604166720375 0.6030063891200044" stroke="none" stroke-width="0" fill="#ffff"></path><path d="M10.666356759248446 -0.8108044371082705 C13.240473546797082 -1.458022217387828, 17.968600977910334 -0.33539714120881103, 20.517945444112552 1.4022337403533225 C23.06728991031477 3.1398646219154562, 25.112062145011944 6.762191586819162, 25.962423556461744 9.61498085226453 C26.812784967911544 12.467770117709899, 26.724109201285888 15.821243543010388, 25.620113912811348 18.518969333025534 C24.51611862433681 21.21669512304068, 21.63374190027342 24.309570591417582, 19.338451825614502 25.80133559235541 C17.043161750955583 27.29310059329324, 14.549025359866015 27.988876911512275, 11.848373464857826 27.4695593386525 C9.147721569849637 26.950241765792722, 5.086641281054319 25.030968343476918, 3.1345404555653715 22.68543015519676 C1.1824396300764246 20.3398919669166, 0.2072864405246812 16.408123381542353, 0.13576851192414452 13.39633020897154 C0.06425058332360785 10.384537036400726, 0.2529749822473706 6.877146680143353, 2.7054328839621515 4.614671119771883 C5.1578907856769325 2.3521955594004123, 12.109372728579235 0.21927409939721326, 14.85051592221283 -0.17852315325728263 C17.591659115846426 -0.5763204059117786, 18.935324409876735 2.110562001307293, 19.152292045763723 2.2278876038449074 M18.698091794449116 -0.46126688841948216 C21.20442776155038 0.7558269541209566, 23.24354394975902 5.0668508025095065, 24.57918131804503 8.019672328318348 C25.914818686331042 10.97249385412719, 27.275673649086784 14.468810150258, 26.711916004165186 17.255662266433564 C26.148158359243588 20.04251438260913, 23.22226979789592 23.347264513520813, 21.196635448515437 24.740785025371743 C19.171001099134955 26.134305537222673, 17.475714026560503 25.917377896367764, 14.558109907882287 25.616785337539135 C11.640505789204072 25.316192778710505, 6.128880677520658 24.561945528436965, 3.691010736446147 22.93722967239996 C1.2531407953716363 21.31251381636295, 0.18961557906507043 18.438998870429856, -0.06910973856477831 15.86849020131709 C-0.32783505619462705 13.297981532204327, 0.5137686596072035 10.20996757665175, 2.1386588306670546 7.514177657723374 C3.763549001726906 4.818387738794997, 6.909315191714066 1.030216675773497, 9.680231287794328 -0.3062493122531684 C12.45114738387459 -1.6427153002798338, 17.229677046870723 -0.5228651751907352, 18.76415540714862 -0.5046182704366178 C20.29863376742652 -0.4863713656825004, 19.141096957008386 -0.7291580080040593, 18.88710144946172 -0.1967678837284641" stroke="#000000" stroke-width="1" fill="none"></path></g></svg>