<svg version="1.1" xmlns="http://www.w3.org/2000/svg" viewBox="0 0 531.3439704529173 447.9278494721277" width="531.3439704529173" height="447.9278494721277">
  <!-- svg-source:excalidraw -->
  
  <defs>
    <style>
      @font-face {
        font-family: "Virgil";
        src: url("https://excalidraw.com/FG_Virgil.woff2");
      }
      @font-face {
        font-family: "Cascadia";
        src: url("https://excalidraw.com/Cascadia.woff2");
      }
    </style>
  </defs>
  <g><g transform="translate(107.96087741931956 17.985541967692825) rotate(0 153.6570009680288 118.10556136993574)" fill-rule="evenodd"><path d="M0.8944440986961126 -0.28891183994710445 L96.75488714348529 -1.4173906774497442 L156.10423650257164 85.96209221934363 L214.86711611210703 -5.934143076931998 L306.89535668512553 -3.776735149908271 L160.1128782248367 239.4064497719995 L0.47117661498486996 0.1663819346576929" stroke="none" stroke-width="0" fill="#334f61" fill-rule="evenodd"></path><path d="M0.1373650822788477 -1.2501133177429438 C20.126632513770666 -2.943601468748955, 41.91506711412697 -2.1847490290563303, 94.2124342009053 -0.16338195588950444 M0.33405911456793547 -0.6324806911870837 C25.117019865448952 -1.2658887270062857, 51.27721748163359 -1.0823465623039006, 95.80774064302449 -1.1261144208959155 M94.5292500540242 -3.1453360536373074 C110.6633986343858 18.739398707432308, 124.74264653305983 39.2779371938213, 158.49073601551228 84.68008137722894 M94.8164507889748 -1.6786592531255298 C106.68193905242714 16.44181690789469, 119.19441549821421 33.442393148035436, 156.76991864424073 85.10475272820726 M157.87577391452962 87.8445048429577 C169.53207538133216 64.4904696394542, 182.8722909013925 42.74370294065824, 213.1944432331562 -3.5266829126532526 M157.07911249380433 86.20106501267686 C168.3809596206059 65.92560416115447, 180.63926817885908 45.77453850587858, 213.48523890304713 -4.528901607079372 M214.36791802182196 -2.7251592271979304 C246.02661383799574 -2.2018575141595016, 278.9501445366568 -4.037584793017712, 305.7894002387461 -5.400358331042733 M213.582465284349 -3.3142497840355487 C248.34396890319934 -5.3496347808015745, 282.6899878748346 -5.286918347482998, 306.3540245641184 -4.419548285778072 M307.31400193605765 -5.5050548866642455 C262.8403466044185 69.0516046002053, 216.76064035173644 143.42985660291896, 161.6389078844696 240.18958225079987 M306.4850521202385 -5.066101981707254 C270.560692540519 57.92698048547675, 232.45220905859722 121.76917523422004, 161.07547052082256 241.71617762653565 M160.3938467340875 240.28196533889457 C111.66918208036249 169.33086273987402, 65.08245606460379 95.93964014327783, 1.1192555714690189 1.4526351663997075 M160.2615401113402 241.39707714822057 C100.4022458058274 152.3512885550461, 41.993600329326455 62.16879602302866, 0.6631082978131216 -0.030888781548516122 M0 0 C0 0, 0 0, 0 0 M0 0 C0 0, 0 0, 0 0" stroke="#000000" stroke-width="1" fill="none"></path></g></g><g><g transform="translate(417.1214398287499 12.040211158782654) rotate(0 -151.4494546022912 211.9237135772812)" fill-rule="evenodd"><path d="M0.28101550601422787 0.8994908127933741 L-148.26348785855063 249.72973759673033 L-309.1134490509221 6.537840777964235 L-408.1963989764714 5.0901996213284795 L-142.5457535316609 427.5429767224613 L104.60250082825259 -3.4049392919768087 L1.2068385984748602 -0.6940130200237036" stroke="none" stroke-width="0" fill="#3fc495" fill-rule="evenodd"></path><path d="M-0.9947688446340763 -0.5095949526859145 C-44.90223625689281 76.20915207876287, -91.96441871381465 156.31800351674622, -147.80379279911705 247.82533455714633 M-0.7208499609162987 -0.09886486574266042 C-50.227554036483745 84.05357223442677, -99.59355629813375 167.81566499853946, -147.52847536549157 248.11027947524533 M-147.21857042001852 248.06098673579447 C-189.2604621120609 184.63923049488122, -229.6741101293771 121.82598978462589, -309.09257731670255 5.798484468608864 M-148.28904756269222 248.10612529340747 C-197.97934583389886 176.1627626235977, -246.08008090276675 102.00543418839877, -309.57393677537715 4.417426147441034 M-308.6782029521355 4.302275305570007 C-336.09689630230383 5.540554331639772, -365.09624799416025 5.846565157899971, -407.1214398287499 6.443219287255174 M-310.1551314684266 5.4858654187553535 C-346.1245588194961 4.050397791933373, -382.54190965847397 5.997995605645358, -407.10248687698333 7.321154010416335 M-406.3714693111166 6.370810961150774 C-319.99028519748066 146.25200738894424, -233.70181202389583 285.38248706458114, -144.30297935633436 425.5436322214366 M-406.63181636276954 7.114551786664987 C-315.15394780042635 151.96701369345914, -223.6395690248735 297.37681341488496, -144.13980594358202 425.67579761954255 M-145.08487455354987 425.88763831334506 C-87.7491876585457 324.4841171675327, -28.737405480967595 223.28678270564657, 102.79351301350059 -1.6787396131371048 M-144.76795623996833 425.65116602448916 C-63.81483145721815 288.79730959015365, 15.34888175687231 151.95143990222562, 103.60983810990732 -1.9252823734731108 M104.22253062416748 -0.9466606843997232 C68.9723511405129 0.3019871161147938, 34.25452163091181 -1.8177799365817056, 1.3546696696430445 -0.7403766606003046 M103.87778753721103 -2.04021115878266 C65.72139461065967 -1.1774073098260018, 27.77630388610436 -0.14225847021766147, 0.7997409654781222 0.29614459443837404 M0 0 C0 0, 0 0, 0 0 M0 0 C0 0, 0 0, 0 0" stroke="#000000" stroke-width="1" fill="none"></path></g></g></svg>