<svg version="1.1" xmlns="http://www.w3.org/2000/svg" viewBox="0 0 531.3439704529173 447.9278494721277" width="531.3439704529173" height="447.9278494721277">
  <!-- svg-source:excalidraw -->
  
  <defs>
    <style>
      @font-face {
        font-family: "Virgil";
        src: url("https://excalidraw.com/FG_Virgil.woff2");
      }
      @font-face {
        font-family: "Cascadia";
        src: url("https://excalidraw.com/Cascadia.woff2");
      }
    </style>
  </defs>
  <g><g transform="translate(106.46087741931956 18.101739014863597) rotate(0 154.47568350916822 117.98936432276494)"><path d="M0.1373650822788477 -2.366310364913735 C20.443067628307098 -3.8585411143127466, 42.553231022241626 -2.88520281223464, 95.7124342009053 -0.2795790030602958 M0.33405911456793547 -1.748677738357875 C25.526997099361743 -2.121807248652304, 52.09220030015701 -1.6682613608761683, 97.30774064302449 -1.242311468066707 M96.0292500540242 -3.2615331008080988 C112.1633986343858 18.623201660261515, 126.24264653305983 39.161740146650516, 159.99073601551228 84.56388433005816 M96.3164507889748 -1.7948563002963211 C108.18193905242714 16.3256198607239, 120.69441549821421 33.32619610086464, 158.26991864424073 84.98855568103647 M159.37577391452962 87.72830779578692 C171.03207538133216 64.37427259228342, 184.3722909013925 42.62750589348745, 214.6944432331562 -3.642879959824044 M158.57911249380433 86.08486796550608 C169.8809596206059 65.80940711398368, 182.13926817885908 45.658341458707795, 214.98523890304713 -4.645098654250163 M215.86791802182196 -2.8413562743687217 C247.52661383799574 -2.3180545613302934, 280.4501445366568 -4.153781840188503, 307.2894002387461 -5.516555378213525 M215.082465284349 -3.43044683120634 C249.84396890319934 -5.465831827972366, 284.1899878748346 -5.403115394653789, 307.8540245641184 -4.5357453329488635 M308.81400193605765 -5.621251933835037 C264.3403466044185 68.93540755303451, 218.26064035173644 143.31365955574816, 163.1389078844696 240.07338520362907 M307.9850521202385 -5.182299028878045 C272.060692540519 57.810783438305954, 233.95220905859722 121.65297818704926, 162.57547052082256 241.59998057936485 M161.8955086231152 240.16971781945026 C112.72124486731656 168.9101681390881, 65.68155407132986 95.22548756306915, 1.1151139339446536 0.33106286046967015 M161.76369158119954 241.28070332462278 C101.34817895516879 151.866418823844, 42.37840080892518 61.31534213653805, 0.6606545649223072 -1.1469715294117997" stroke="#000000" stroke-width="1" fill="none"></path></g></g><g><g transform="translate(533.8756509628147 12.70992938708514) rotate(0 -268.203665736356 211.25399534897872)"><path d="M-117.74897997869886 -1.1793131809883943 C-161.6564473909576 75.53943385046038, -208.7186298478794 155.64828528844376, -264.55800393318185 247.15561632884385 M-117.47506109498107 -0.7685830940451402 C-166.98176517054853 83.38385400612428, -216.34776743219854 167.14594677023697, -264.28268649955635 247.44056124694285 M-263.97278155408327 247.391268507492 C-306.01467324612565 183.96951226657873, -346.4283212634419 121.1562715563234, -425.8467884507673 5.128766240306385 M-265.043258696757 247.436407065105 C-314.73355696796364 175.49304439529521, -362.83429203683147 101.33571596009628, -426.3281479094419 3.7477079191385543 M-425.43241408620025 3.6325570772675277 C-452.8511074363686 4.870836103337291, -481.85045912822505 5.176846929597492, -523.8756509628147 5.773501058952695 M-426.90934260249134 4.816147190452874 C-462.87876995356083 3.3806795636308933, -499.2961207925388 5.328277377342879, -523.8566980110481 6.651435782113856 M-523.1256804451814 5.701092732848294 C-436.7444963315454 145.58228916064172, -350.45602315796054 284.7127688362786, -261.05719049039914 424.8739139931341 M-523.3860274968343 6.444833558362507 C-431.90815893449104 151.29729546515662, -340.3937801589382 296.7070951865824, -260.89401707764677 425.00607939124006 M-261.83908568761467 425.2179200850426 C-204.50339879261048 323.8143989392302, -145.49161661503237 222.6170644773441, -13.960698120564196 -2.3484578414395845 M-261.5221673740331 424.98144779618667 C-180.56904259128297 288.12759136185116, -101.40532937719253 151.28172167392313, -13.14437302415747 -2.5950006017755904 M-12.531680509897303 -1.6163789127022028 C-47.78185999355187 -0.36773111218768584, -82.49968950315296 -2.487498164884185, -115.39954146442173 -1.4100948889027844 M-12.876423596853744 -2.7099293870851398 C-51.032816523405096 -1.8471255381284815, -88.97790724796042 -0.8119766985201411, -115.95447016858665 -0.3735736338641058" stroke="#000000" stroke-width="1" fill="none"></path></g></g></svg>