<?xml version="1.0" encoding="iso-8859-1"?>
<!-- Generator: Adobe Illustrator 19.0.0, SVG Export Plug-In . SVG Version: 6.00 Build 0)  -->
<svg version="1.1" id="Layer_1" xmlns="http://www.w3.org/2000/svg" xmlns:xlink="http://www.w3.org/1999/xlink" x="0px" y="0px"
	 viewBox="0 0 512 512" style="enable-background:new 0 0 512 512;" xml:space="preserve">
<g>
	<g>
		<g>
			<path d="M426.667,192h-34.133c-4.71,0-8.533,3.823-8.533,8.533s3.823,8.533,8.533,8.533h34.133c4.71,0,8.533-3.823,8.533-8.533
				S431.377,192,426.667,192z"/>
			<path d="M392.533,473.6h34.133c4.71,0,8.533-3.823,8.533-8.533c0-4.71-3.823-8.533-8.533-8.533h-34.133
				c-4.71,0-8.533,3.823-8.533,8.533C384,469.777,387.823,473.6,392.533,473.6z"/>
			<path d="M426.667,302.933c0-9.412-7.654-17.067-17.067-17.067c-9.412,0-17.067,7.654-17.067,17.067V320h34.133V302.933z"/>
			<path d="M478.2,158.199H349.867V39.108c0-19.209-15.633-34.842-34.842-34.842H51.908C32.7,4.267,17.067,19.9,17.067,39.108
				v169.958H8.533C3.823,209.067,0,212.89,0,217.6v23.825c0,19.797,16.111,35.908,35.908,35.908H307.2v8.533
				c-4.71,0-8.533,3.823-8.533,8.533v8.533c0,4.71,3.823,8.533,8.533,8.533V320c-4.71,0-8.533,3.823-8.533,8.533v8.533
				c0,4.71,3.823,8.533,8.533,8.533v93.867v34.466c0,18.637,15.164,33.801,33.801,33.801H478.2c18.637,0,33.8-15.164,33.8-33.801
				v-34.466V226.133V192C512,173.355,496.836,158.199,478.2,158.199z M307.2,260.267H35.908c-10.385,0-18.842-8.457-18.842-18.842
				v-15.292h42.667H307.2V260.267z M230.4,115.2c4.71,0,8.533,3.823,8.533,8.533v59.733c0,4.71-3.823,8.533-8.533,8.533h-85.333
				c-4.71,0-8.533-3.823-8.533-8.533v-59.733c0-4.71,3.823-8.533,8.533-8.533h8.533v-8.533c0-18.825,15.309-34.133,34.133-34.133
				s34.133,15.309,34.133,34.133v8.533H230.4z M321.041,164.864c-1.178,0.87-2.33,1.775-3.379,2.79
				c-0.538,0.521-1.016,1.075-1.519,1.63c-0.137,0.145-0.273,0.282-0.41,0.435V46.933c0-4.71-3.823-8.533-8.533-8.533H59.733
				c-4.71,0-8.533,3.823-8.533,8.533v162.133H34.133V39.108c0-9.796,7.979-17.775,17.775-17.775h263.117
				c9.796,0,17.775,7.979,17.775,17.775v120.098c-1.306,0.324-2.534,0.811-3.772,1.289c-0.444,0.162-0.913,0.273-1.348,0.461
				c-1.869,0.802-3.644,1.775-5.325,2.893C321.894,164.156,321.485,164.531,321.041,164.864z M494.933,473.933
				c0,9.225-7.509,16.734-16.734,16.734H341.001c-9.225,0-16.734-7.509-16.734-16.734v-34.466h170.667V473.933z M452.267,320
				c4.71,0,8.533,3.823,8.533,8.533v59.733c0,4.71-3.823,8.533-8.533,8.533h-85.333c-4.71,0-8.533-3.823-8.533-8.533v-59.733
				c0-4.71,3.823-8.533,8.533-8.533h8.533v-17.067c0-18.825,15.309-34.133,34.133-34.133c18.825,0,34.133,15.309,34.133,34.133V320
				H452.267z M494.933,226.133H324.267V217.6V192c0-9.233,7.509-16.734,17.067-16.734h8.533H478.2
				c9.224,0,16.734,7.501,16.734,16.734V226.133z"/>
			<polygon points="384,337.067 375.467,337.067 375.467,379.733 443.733,379.733 443.733,337.067 435.2,337.067 			"/>
			<path d="M369.435,52.967l25.6,25.6c1.664,1.664,3.849,2.5,6.033,2.5c2.185,0,4.369-0.836,6.033-2.5
				c3.328-3.337,3.328-8.738,0-12.066l-11.034-11.034h56.201v56.201l-11.034-11.034c-3.337-3.337-8.738-3.337-12.066,0
				c-3.337,3.328-3.337,8.73,0,12.066l25.591,25.6c0.794,0.785,1.732,1.408,2.782,1.843c1.041,0.427,2.15,0.657,3.26,0.657
				c1.109,0,2.219-0.23,3.26-0.657c1.041-0.435,1.988-1.058,2.773-1.843l25.6-25.6c3.328-3.337,3.328-8.738,0-12.066
				c-3.337-3.337-8.738-3.337-12.066,0l-11.034,11.034V46.934c0-4.71-3.823-8.533-8.533-8.533h-64.734l11.034-11.034
				c3.328-3.337,3.328-8.738,0-12.066c-3.336-3.337-8.738-3.337-12.066,0l-25.6,25.6c-0.785,0.785-1.408,1.724-1.843,2.773
				c-0.862,2.082-0.862,4.429,0,6.519C368.027,51.235,368.65,52.182,369.435,52.967z"/>
			<path d="M210.831,416.366l-25.6-25.6c-3.328-3.336-8.73-3.336-12.066,0c-3.328,3.337-3.328,8.738,0,12.066l11.034,11.034h-56.201
				v-56.201l11.034,11.034c1.664,1.664,3.849,2.5,6.033,2.5c2.185,0,4.369-0.836,6.033-2.5c3.337-3.328,3.337-8.73,0-12.066
				l-25.591-25.6c-0.794-0.785-1.732-1.408-2.782-1.843c-2.082-0.862-4.429-0.862-6.519,0c-1.041,0.435-1.988,1.058-2.773,1.843
				l-25.6,25.6c-3.328,3.336-3.328,8.738,0,12.066c1.664,1.664,3.849,2.5,6.033,2.5c2.185,0,4.369-0.836,6.033-2.5l11.034-11.034
				v64.734c0,4.71,3.823,8.533,8.533,8.533h64.734l-11.034,11.034c-3.328,3.337-3.328,8.738,0,12.066
				c1.664,1.664,3.849,2.5,6.033,2.5c2.185,0,4.369-0.836,6.033-2.5l25.6-25.6c0.785-0.785,1.408-1.724,1.843-2.773
				c0.862-2.082,0.862-4.429,0-6.519C212.239,418.098,211.616,417.151,210.831,416.366z"/>
			<polygon points="162.133,132.267 153.6,132.267 153.6,174.933 221.867,174.933 221.867,132.267 213.333,132.267 			"/>
			<path d="M204.8,106.667c0-9.412-7.654-17.067-17.067-17.067s-17.067,7.654-17.067,17.067v8.533H204.8V106.667z"/>
		</g>
	</g>
</g>
<g>
</g>
<g>
</g>
<g>
</g>
<g>
</g>
<g>
</g>
<g>
</g>
<g>
</g>
<g>
</g>
<g>
</g>
<g>
</g>
<g>
</g>
<g>
</g>
<g>
</g>
<g>
</g>
<g>
</g>
</svg>
