<?xml version="1.0" encoding="iso-8859-1"?>
<!-- Generator: Adobe Illustrator 19.0.0, SVG Export Plug-In . SVG Version: 6.00 Build 0)  -->
<svg version="1.1" id="Layer_1" xmlns="http://www.w3.org/2000/svg" xmlns:xlink="http://www.w3.org/1999/xlink" x="0px" y="0px"
	 viewBox="0 0 480 480" style="enable-background:new 0 0 480 480;" xml:space="preserve">
<g transform="translate(0 -540.36)">
	<path style="fill:#D1D3D4;" d="M97.081,623.007h372.488c5.761,0,10.431,4.67,10.431,10.431v248.798
		c0,5.761-4.67,10.431-10.431,10.431H97.081c-5.761,0-10.431-4.67-10.431-10.431V633.438
		C86.65,627.677,91.32,623.007,97.081,623.007z"/>
	<path style="fill:#414042;" d="M97.079,623.008c-5.779,0-10.431,4.652-10.431,10.431V855.98h393.35V633.439
		c0-5.779-4.652-10.431-10.431-10.431H97.079z"/>
	<path style="fill:#6D6E71;" d="M102.018,637.496h362.688v204.026H102.018L102.018,637.496z"/>
	<path style="fill:#B0B8BE;" d="M245.117,892.655c0,0-1.159,7.649-5.337,35.394c-0.828,5.5-15.305,6.646-15.305,6.646l-0.175,3.019
		h113.48l-0.092-3.008c0,0-14.125-1.244-14.63-6.664c-1.873-20.091-2.872-35.51-2.872-35.51"/>
	<g>
		<path style="fill:#747578;" d="M281.806,637.496l111.416,204.025h71.484v-93.871l-60.154-110.154H281.806z"/>
		<path style="fill:#747578;" d="M215.481,637.496l111.416,204.025h42.568L258.05,637.496H215.481z"/>
	</g>
	<path style="fill:#999FA4;" d="M320.186,892.531l-75.068,0.123c0,0-0.561,3.721-0.592,3.926h75.951
		C320.4,895.454,320.186,892.531,320.186,892.531L320.186,892.531z"/>
	<g>
		<path style="fill:#7C7E7C;" d="M283.721,870.86c0,0-2.248-1.62-3.489-1.424c-1.381,0.218-2.499,1.499-3.204,2.706
			c-0.768,1.314-1.112,2.986-0.854,4.486c0.359,2.086,1.384,4.401,3.204,5.482c0.674,0.4,1.601,0.303,2.35,0.072
			c0.925-0.285,2.35-1.709,2.35-1.709s1.08,1.564,1.922,1.851c0.987,0.336,2.249,0.246,3.108-0.344c1.083-0.744,1.813-3.5,1.813-3.5
			s-1.702-1.062-2.102-1.923c-0.375-0.808-0.352-1.814-0.107-2.67c0.275-0.959,1.685-2.473,1.685-2.473s-1.514-1.666-2.547-1.835
			C286.428,869.347,283.721,870.86,283.721,870.86L283.721,870.86z"/>
		<path style="fill:#7C7E7C;" d="M283.7,868.821c0,0,0.418-2.246,1.139-3.062c0.664-0.752,2.67-1.388,2.67-1.388
			s-0.217,2.296-0.926,3.115C285.89,868.287,283.7,868.821,283.7,868.821z"/>
	</g>
	<path style="fill:#A7A9AA;" d="M86.649,731.682v150.551c0,5.779,4.653,10.43,10.432,10.43h88.252V739.315
		c0-4.229-3.43-7.633-7.69-7.633C177.643,731.682,86.649,731.682,86.649,731.682z"/>
	<path style="fill:#ECECEC;" d="M43.057,728.384H172.64c4.26,0,7.689,3.404,7.689,7.633V930.08c0,4.229-3.429,7.633-7.689,7.633
		H43.058c-4.26,0-7.689-3.404-7.689-7.633V736.017C35.368,731.789,38.798,728.384,43.057,728.384z"/>
	<path style="fill:#4F5666;" d="M42.635,744.448h130.427v175.897H42.635L42.635,744.448z"/>
	<g>
		
			<path shape-rendering="auto" image-rendering="auto" color-rendering="auto" color-interpolation="sRGB" style="fill:#B3B5B5;" d="
			M107.849,923.437c-2.978,0-5.408,2.43-5.408,5.408s2.43,5.41,5.408,5.41s5.41-2.432,5.41-5.41S110.827,923.437,107.849,923.437z
			 M107.849,924.98c2.144,0,3.865,1.721,3.865,3.865s-1.721,3.867-3.865,3.867s-3.865-1.723-3.865-3.867
			S105.704,924.98,107.849,924.98z"/>
		<path style="fill:#B3B5B5;" d="M109.14,737.138c0,0.713-0.578,1.291-1.291,1.291c-0.713,0-1.291-0.578-1.291-1.291c0,0,0,0,0,0
			c0-0.713,0.578-1.291,1.291-1.291c0,0,0,0,0,0C108.562,735.847,109.139,736.425,109.14,737.138z"/>
	</g>
	<g>
		<path style="fill:#575E6D;" d="M101.022,744.447l72.039,131.92v-131.92C173.061,744.447,101.022,744.447,101.022,744.447z"/>
		<path style="fill:#575E6D;" d="M42.636,744.447v8.777l91.262,167.119h39.164v-2.537l-94.67-173.359
			C78.391,744.447,42.636,744.447,42.636,744.447z"/>
	</g>
	<path style="fill:#3F4552;" d="M42.636,790.055v0.65H63.88c4.697,0,8.457,3.76,8.457,8.457v121.182h5.395V799.162
		c0-5.046-4.063-9.107-9.109-9.107C68.622,790.055,42.636,790.055,42.636,790.055z"/>
	<path style="fill:#BDBDBD;" d="M15.288,790.055c-5.046,0-9.109,4.062-9.109,9.107v128.791c0,5.046,4.063,9.109,9.109,9.109h53.334
		c5.047,0,9.109-4.063,9.109-9.109v-7.609H42.636V790.055H15.288z"/>
	<g>
		<path style="fill:#CCACAB;" d="M1.812,821.663v9.413c0,0.502-0.404,0.906-0.906,0.906S0,831.577,0,831.076v-9.413
			c0-0.502,0.404-0.906,0.906-0.906S1.812,821.161,1.812,821.663z"/>
		<path style="fill:#CCACAB;" d="M1.812,834.521v9.413c0,0.502-0.404,0.906-0.906,0.906S0,844.436,0,843.934v-9.413
			c0-0.502,0.404-0.906,0.906-0.906S1.812,834.019,1.812,834.521z"/>
		<path style="fill:#CCACAB;" d="M1.937,808.165v5.897c0,0.502-0.404,0.906-0.906,0.906s-0.906-0.404-0.906-0.906v-5.897
			c0-0.502,0.404-0.906,0.906-0.906S1.937,807.663,1.937,808.165z"/>
	</g>
	<path style="fill:#464B57;" d="M62.749,790.055l14.982,27.438v-18.33c0-5.046-4.063-9.107-9.109-9.107H62.749z"/>
	<g shape-rendering="auto" image-rendering="auto" color-rendering="auto" color-interpolation="sRGB">
		<path style="fill:#E5C9C6;" d="M10.544,789.404c-5.396,0-9.758,4.363-9.758,9.758v128.793c0,5.395,4.362,9.758,9.758,9.758H63.88
			c5.396,0,9.76-4.363,9.76-9.758V799.161c0-5.395-4.364-9.758-9.76-9.758H10.544z"/>
		<path style="fill:#F0F0F0;" d="M10.544,790.704H63.88c4.697,0,8.457,3.76,8.457,8.457v128.793c0,4.697-3.76,8.457-8.457,8.457
			H10.544c-4.697,0-8.457-3.76-8.457-8.457V799.161C2.087,794.465,5.847,790.704,10.544,790.704z"/>
		<path style="fill:#E5C9C6;" d="M36.878,921.794c-3.072,0-5.572,2.5-5.572,5.572s2.5,5.574,5.572,5.574s5.574-2.502,5.574-5.574
			S39.95,921.794,36.878,921.794z M36.878,922.794c2.532,0,4.574,2.04,4.574,4.572s-2.042,4.574-4.574,4.574
			s-4.572-2.042-4.572-4.574S34.346,922.794,36.878,922.794z"/>
	</g>
	<path style="fill:#7E717A;" d="M5.655,806.531h62.446v112.447H5.655L5.655,806.531z"/>
	<g>
		<path style="fill:#303030;" d="M32.186,798.549h10.052c0.325,0,0.586,0.261,0.586,0.586c0,0.325-0.261,0.586-0.586,0.586H32.186
			c-0.325,0-0.586-0.261-0.586-0.586S31.861,798.549,32.186,798.549z"/>
		<path style="fill:#303030;" d="M27.056,799.135c0,0.589-0.477,1.066-1.066,1.066c0,0,0,0,0,0c-0.589,0-1.066-0.477-1.066-1.066
			c0-0.589,0.477-1.066,1.066-1.066C26.579,798.069,27.056,798.546,27.056,799.135L27.056,799.135z"/>
		<path style="fill:#303030;" d="M37.905,794.153c0,0.383-0.31,0.693-0.693,0.693c0,0,0,0,0,0c-0.383,0-0.693-0.31-0.693-0.693
			c0-0.383,0.31-0.693,0.693-0.693C37.594,793.461,37.905,793.771,37.905,794.153L37.905,794.153z"/>
	</g>
	<path style="fill:#262626;" d="M26.737,799.135c0,0.412-0.334,0.746-0.746,0.746c0,0,0,0,0,0c-0.412,0-0.746-0.334-0.746-0.746
		c0-0.412,0.334-0.746,0.746-0.746C26.403,798.389,26.737,798.723,26.737,799.135L26.737,799.135z"/>
	<path style="fill:#273945;" d="M26.706,799.135c0,0.395-0.32,0.715-0.715,0.715c0,0,0,0,0,0c-0.395,0-0.715-0.32-0.715-0.715
		c0-0.395,0.32-0.715,0.715-0.715C26.386,798.42,26.706,798.74,26.706,799.135L26.706,799.135z"/>
	<g>
		<path style="fill:#847880;" d="M30.704,806.531l37.396,68.479v-68.479H30.704z"/>
		<path style="fill:#847880;" d="M5.655,806.531v30.957l44.502,81.49H68.1v-16.447l-52.424-96
			C15.677,806.531,5.655,806.531,5.655,806.531z"/>
	</g>
	<path style="fill:#343335;" d="M180.329,841.522v14.459h5.004v-14.459H180.329z"/>
	<path style="fill:#57585A;" d="M179.063,731.817c0.799,1.204,1.266,2.646,1.266,4.201v105.504h5.004V739.315
		C185.333,735.569,182.639,732.475,179.063,731.817z"/>
</g>
<g>
</g>
<g>
</g>
<g>
</g>
<g>
</g>
<g>
</g>
<g>
</g>
<g>
</g>
<g>
</g>
<g>
</g>
<g>
</g>
<g>
</g>
<g>
</g>
<g>
</g>
<g>
</g>
<g>
</g>
</svg>
