<?xml version="1.0" encoding="iso-8859-1"?>
<!-- Generator: Adobe Illustrator 19.0.0, SVG Export Plug-In . SVG Version: 6.00 Build 0)  -->
<svg version="1.1" id="Layer_1" xmlns="http://www.w3.org/2000/svg" xmlns:xlink="http://www.w3.org/1999/xlink" x="0px" y="0px"
	 viewBox="0 0 512 512" style="enable-background:new 0 0 512 512;" xml:space="preserve">
<g>
	<g>
		<g>
			<path d="M332.8,460.8h-25.6v-42.667c0-4.71-3.814-8.533-8.533-8.533s-8.533,3.823-8.533,8.533v51.2
				c0,4.71,3.814,8.533,8.533,8.533H332.8c9.574,0,19.584,7.799,23.672,17.067H155.52c4.096-9.267,14.097-17.067,23.68-17.067
				h85.333c4.719,0,8.533-3.823,8.533-8.533s-3.814-8.533-8.533-8.533h-42.667v-42.667c0-4.71-3.823-8.533-8.533-8.533
				c-4.71,0-8.533,3.823-8.533,8.533V460.8h-25.6c-21.931,0-42.667,20.736-42.667,42.667c0,4.71,3.823,8.533,8.533,8.533h221.867
				c4.719,0,8.533-3.823,8.533-8.533C375.467,481.536,354.731,460.8,332.8,460.8z"/>
			<path d="M452.267,136.533c2.185,0,4.369-0.836,6.033-2.5c3.337-3.337,3.337-8.73,0-12.066L390.033,53.7
				c-3.336-3.337-8.73-3.337-12.066,0c-3.336,3.337-3.336,8.73,0,12.066l68.267,68.267
				C447.898,135.697,450.082,136.533,452.267,136.533z"/>
			<path d="M375.467,298.667c0-4.71-3.814-8.533-8.533-8.533H8.533c-4.71,0-8.533,3.823-8.533,8.533v51.2
				c0,21.931,20.736,42.667,42.667,42.667h324.267c4.719,0,8.533-3.823,8.533-8.533s-3.814-8.533-8.533-8.533H42.667
				c-12.442,0-25.6-13.158-25.6-25.6V307.2h349.867C371.652,307.2,375.467,303.377,375.467,298.667z"/>
			<path d="M238.933,341.333c0,9.412,7.654,17.067,17.067,17.067c9.412,0,17.067-7.654,17.067-17.067
				c0-9.412-7.654-17.067-17.067-17.067C246.588,324.267,238.933,331.921,238.933,341.333z"/>
			<path d="M486.4,290.133h-68.267c-14.114,0-25.6,11.486-25.6,25.6V486.4c0,14.114,11.486,25.6,25.6,25.6H486.4
				c14.114,0,25.6-11.486,25.6-25.6V315.733C512,301.619,500.514,290.133,486.4,290.133z M494.933,486.4
				c0,4.702-3.823,8.533-8.533,8.533h-68.267c-4.71,0-8.533-3.831-8.533-8.533V315.733c0-4.702,3.823-8.533,8.533-8.533H486.4
				c4.71,0,8.533,3.831,8.533,8.533V486.4z"/>
			<path d="M469.333,0H42.667C20.736,0,0,20.736,0,42.667v221.867c0,4.71,3.823,8.533,8.533,8.533s8.533-3.823,8.533-8.533V42.667
				c0-12.442,13.158-25.6,25.6-25.6h426.667c12.442,0,25.6,13.158,25.6,25.6v221.867c0,4.71,3.814,8.533,8.533,8.533
				c4.719,0,8.533-3.823,8.533-8.533V42.667C512,20.736,491.264,0,469.333,0z"/>
			<path d="M452.523,460.8h-0.094c-4.702,0-8.482,3.823-8.482,8.533s3.866,8.533,8.576,8.533s8.533-3.823,8.533-8.533
				S457.233,460.8,452.523,460.8z"/>
			<path d="M452.267,85.333c2.185,0,4.369-0.836,6.033-2.5c3.337-3.337,3.337-8.73,0-12.066L441.233,53.7
				c-3.337-3.337-8.73-3.337-12.066,0c-3.336,3.337-3.336,8.73,0,12.066l17.067,17.067
				C447.898,84.497,450.082,85.333,452.267,85.333z"/>
		</g>
	</g>
</g>
<g>
</g>
<g>
</g>
<g>
</g>
<g>
</g>
<g>
</g>
<g>
</g>
<g>
</g>
<g>
</g>
<g>
</g>
<g>
</g>
<g>
</g>
<g>
</g>
<g>
</g>
<g>
</g>
<g>
</g>
</svg>
