<?xml version="1.0" encoding="iso-8859-1"?>
<!-- Generator: Adobe Illustrator 19.0.0, SVG Export Plug-In . SVG Version: 6.00 Build 0)  -->
<svg version="1.1" id="Layer_1" xmlns="http://www.w3.org/2000/svg" xmlns:xlink="http://www.w3.org/1999/xlink" x="0px" y="0px"
	 viewBox="0 0 512 512" style="enable-background:new 0 0 512 512;" xml:space="preserve">
<g>
	<path style="fill:#BEC8DC;" d="M14.097,66.566c1.15-0.235,2.34-0.359,3.559-0.359C16.437,66.207,15.246,66.33,14.097,66.566z"/>
	<path style="fill:#BEC8DC;" d="M0.583,79.434c0.099-0.384,0.203-0.766,0.328-1.14C0.786,78.667,0.682,79.049,0.583,79.434z"/>
	<path style="fill:#BEC8DC;" d="M11.811,67.218c0.744-0.262,1.501-0.492,2.285-0.652C13.312,66.727,12.555,66.957,11.811,67.218z"/>
	<path style="fill:#BEC8DC;" d="M370.759,331.034H0v26.483c0,9.751,7.904,17.655,17.655,17.655h150.069H291.31h141.241
		c9.751,0,17.655-7.904,17.655-17.655v-8.828h-61.793C378.663,348.69,370.759,340.786,370.759,331.034z M229.517,366.345
		c-7.313,0-13.241-5.929-13.241-13.241s5.929-13.241,13.241-13.241s13.241,5.929,13.241,13.241S236.83,366.345,229.517,366.345z"/>
</g>
<path style="fill:#464655;" d="M370.759,304.552H26.483V92.69h344.276v-8.828c0-9.751,7.904-17.655,17.655-17.655H17.655
	c-1.218,0-2.409,0.124-3.559,0.359c-0.785,0.161-1.543,0.392-2.285,0.652C6.676,69.022,2.631,73.119,0.91,78.293
	c-0.125,0.374-0.228,0.756-0.328,1.14C0.215,80.851,0,82.329,0,83.862v247.172h370.759V304.552z"/>
<path style="fill:#FF6469;" d="M26.483,304.552h344.276v-88.276H189.035l20.242,20.242c3.448,3.448,3.448,9.035,0,12.483
	c-1.725,1.724-3.983,2.585-6.242,2.585s-4.518-0.862-6.241-2.586l-35.31-35.31c-3.448-3.448-3.448-9.035,0-12.483l35.31-35.31
	c3.448-3.448,9.035-3.448,12.483,0c3.448,3.448,3.448,9.035,0,12.483l-20.242,20.242h181.724V92.69H26.483V304.552z"/>
<polygon style="fill:#AFBBD0;" points="164.781,392.828 167.724,375.172 158.897,428.138 300.138,428.138 291.31,375.172 
	294.253,392.828 "/>
<path style="fill:#BEC8DC;" d="M150.069,436.966c0,4.875,3.953,8.828,8.828,8.828h141.241c4.875,0,8.828-3.953,8.828-8.828
	s-3.953-8.828-8.828-8.828H158.897C154.022,428.138,150.069,432.09,150.069,436.966z"/>
<g>
	<polygon style="fill:#96A5B9;" points="164.781,392.828 294.253,392.828 291.31,375.172 167.724,375.172 	"/>
	<circle style="fill:#96A5B9;" cx="229.517" cy="353.103" r="13.241"/>
</g>
<path style="fill:#707384;" d="M494.345,66.207h-61.793h-44.138c-9.751,0-17.655,7.904-17.655,17.655v8.828v105.931h17.655v-97.103
	h105.931v211.862H388.414v-97.103h-17.655v88.276v26.483c0,9.751,7.904,17.655,17.655,17.655h61.793h44.138
	c9.75,0,17.655-7.904,17.655-17.655V83.862C512,74.111,504.095,66.207,494.345,66.207z M410.483,79.448
	c2.438,0,4.414,1.976,4.414,4.414s-1.976,4.414-4.414,4.414s-4.414-1.976-4.414-4.414S408.045,79.448,410.483,79.448z
	 M454.621,88.276h-26.483c-2.438,0-4.414-1.976-4.414-4.414s1.976-4.414,4.414-4.414h26.483c2.438,0,4.414,1.976,4.414,4.414
	S457.058,88.276,454.621,88.276z M441.379,339.862c-4.875,0-8.828-3.953-8.828-8.828s3.953-8.828,8.828-8.828
	s8.828,3.953,8.828,8.828S446.254,339.862,441.379,339.862z"/>
<path style="fill:#FFDC69;" d="M428.897,198.621l-20.242-20.242c-3.448-3.448-3.448-9.035,0-12.483
	c3.448-3.448,9.035-3.448,12.483,0l35.31,35.31c3.448,3.448,3.448,9.035,0,12.483L421.139,249c-1.725,1.725-3.983,2.586-6.242,2.586
	s-4.518-0.862-6.241-2.586c-3.448-3.448-3.448-9.035,0-12.483l20.242-20.241h-40.483v97.103h105.931V101.517H388.414v97.103H428.897
	z"/>
<g>
	<path style="fill:#464655;" d="M454.621,79.448h-26.483c-2.438,0-4.414,1.976-4.414,4.414s1.976,4.414,4.414,4.414h26.483
		c2.438,0,4.414-1.976,4.414-4.414S457.058,79.448,454.621,79.448z"/>
	<circle style="fill:#464655;" cx="410.483" cy="83.862" r="4.414"/>
	<circle style="fill:#464655;" cx="441.379" cy="331.034" r="8.828"/>
</g>
<path style="fill:#FFFFFF;" d="M209.276,178.379c3.448-3.448,3.448-9.035,0-12.483c-3.448-3.448-9.035-3.448-12.483,0l-35.31,35.31
	c-3.448,3.448-3.448,9.035,0,12.483l35.31,35.31c1.725,1.725,3.982,2.586,6.241,2.586s4.518-0.862,6.241-2.586
	c3.448-3.448,3.448-9.035,0-12.483l-20.239-20.241h181.724h17.655h40.483l-20.242,20.242c-3.448,3.448-3.448,9.035,0,12.483
	c1.725,1.725,3.982,2.586,6.241,2.586s4.518-0.862,6.241-2.586l35.31-35.31c3.448-3.448,3.448-9.035,0-12.483l-35.31-35.31
	c-3.448-3.448-9.035-3.448-12.483,0s-3.448,9.035,0,12.483l20.243,20.241h-40.483h-17.655H189.035L209.276,178.379z"/>
<g>
</g>
<g>
</g>
<g>
</g>
<g>
</g>
<g>
</g>
<g>
</g>
<g>
</g>
<g>
</g>
<g>
</g>
<g>
</g>
<g>
</g>
<g>
</g>
<g>
</g>
<g>
</g>
<g>
</g>
</svg>
