<?xml version="1.0" encoding="iso-8859-1"?>
<!-- Generator: Adobe Illustrator 19.0.0, SVG Export Plug-In . SVG Version: 6.00 Build 0)  -->
<svg version="1.1" id="Layer_1" xmlns="http://www.w3.org/2000/svg" xmlns:xlink="http://www.w3.org/1999/xlink" x="0px" y="0px"
	 viewBox="0 0 512 512" style="enable-background:new 0 0 512 512;" xml:space="preserve">
<circle style="fill:#E16B5A;" cx="256" cy="256" r="256"/>
<path style="fill:#1E2C33;" d="M52,304V128.364c0-5,3.22-8.364,8-8.364h328c4.784,0,8,3.36,8,8.364V304H52z"/>
<path style="fill:#F5F5F5;" d="M52,304v32c0,4.78,3.22,8,8,8h328c4.784,0,8-3.22,8-8v-32H52z"/>
<rect x="68" y="140" style="fill:#586874;" width="312" height="148"/>
<rect x="180" y="344" style="fill:#E6E6E6;" width="88" height="36"/>
<path style="fill:#F5F5F5;" d="M296,388c0-4.4-3.6-8-8-8H160c-4.4,0-8,3.6-8,8l0,0c0,4.4,3.6,8,8,8h128C292.4,396,296,392.4,296,388
	L296,388z"/>
<circle style="fill:#1E2C33;" cx="224" cy="324" r="8"/>
<path style="fill:#E6E6E6;" d="M448,408c0,4.416-3.584,8-8,8H288c-4.416,0-8-3.584-8-8V188c0-4.416,3.584-8,8-8h152
	c4.416,0,8,3.584,8,8V408z"/>
<rect x="292" y="208" style="fill:#1E2C33;" width="144" height="172"/>
<rect x="296" y="212" style="fill:#586874;" width="136" height="164"/>
<g>
	<path style="fill:#E6E6E6;" d="M425.876,184H408.5c-1.728,0,12.876-0.272,12.876-2s-14.6-2-12.876-2h17.376
		c1.728,0,3.124,0.272,3.124,2S427.6,184,425.876,184z"/>
	<path style="fill:#E6E6E6;" d="M284,206.624V216c0,1.728-2.272,3.124-4,3.124s-4-1.4-4-3.124v-9.376c0-1.728,2.272-3.124,4-3.124
		S284,204.9,284,206.624z"/>
	<path style="fill:#E6E6E6;" d="M284,231.624v3.124c0,1.728-2.272,3.124-4,3.124s-4-1.4-4-3.124v-3.124c0-1.728,2.272-3.124,4-3.124
		S284,229.9,284,231.624z"/>
	<path style="fill:#E6E6E6;" d="M284,244.124v3.124c0,1.728-2.272,3.124-4,3.124s-4-1.4-4-3.124v-3.124c0-1.728,2.272-3.124,4-3.124
		S284,242.4,284,244.124z"/>
</g>
<g>
	<circle style="fill:#263740;" cx="366" cy="188" r="4"/>
	<path style="fill:#263740;" d="M382.876,204h-33.752c-1.728,0-3.124-2.272-3.124-4s1.4-4,3.124-4h33.752
		c1.728,0,3.124,2.272,3.124,4S384.6,204,382.876,204z"/>
	<circle style="fill:#263740;" cx="364" cy="396" r="8"/>
</g>
<g>
</g>
<g>
</g>
<g>
</g>
<g>
</g>
<g>
</g>
<g>
</g>
<g>
</g>
<g>
</g>
<g>
</g>
<g>
</g>
<g>
</g>
<g>
</g>
<g>
</g>
<g>
</g>
<g>
</g>
</svg>
