<?xml version="1.0" encoding="iso-8859-1"?>
<!-- Generator: Adobe Illustrator 19.0.0, SVG Export Plug-In . SVG Version: 6.00 Build 0)  -->
<svg version="1.1" id="Layer_1" xmlns="http://www.w3.org/2000/svg" xmlns:xlink="http://www.w3.org/1999/xlink" x="0px" y="0px"
	 viewBox="0 0 512 512" style="enable-background:new 0 0 512 512;" xml:space="preserve">
<g transform="translate(1 1)">
	<g>
		<g>
			<path d="M476.867,156.867h-128V38.253c0-19.627-15.36-34.987-34.987-34.987H51.053c-19.627,0-34.987,15.36-34.987,34.987v169.813
				H7.533C2.413,208.067-1,211.48-1,216.6v23.893c0,19.627,16.213,35.84,35.84,35.84H306.2v8.533c-5.12,0-8.533,3.413-8.533,8.533
				v8.533c0,5.12,3.413,8.533,8.533,8.533V319c-5.12,0-8.533,3.413-8.533,8.533v8.533c0,5.12,3.413,8.533,8.533,8.533v93.867V472.6
				c0,18.773,15.36,34.133,34.133,34.133h136.533c18.773,0,34.133-15.36,34.133-34.133v-34.133V225.133V191
				C511,172.227,495.64,156.867,476.867,156.867z M323.267,267.8v-25.6h170.667v179.2H323.267V267.8z M297.667,208.067h-230.4
				v-153.6h230.4V208.067z M33.133,38.253c0-10.24,7.68-17.92,17.92-17.92H313.88c10.24,0,17.92,7.68,17.92,17.92v119.701
				c-6.701,1.741-12.613,5.486-17.067,10.543V45.933c0-5.12-3.413-8.533-8.533-8.533H58.733c-5.12,0-8.533,3.413-8.533,8.533
				v162.133H33.133V38.253z M34.84,259.267c-10.24,0-18.773-8.533-18.773-18.773v-15.36h42.667H306.2v34.133H34.84z M493.933,472.6
				c0,9.387-7.68,17.067-17.067,17.067H340.333c-9.387,0-17.067-7.68-17.067-17.067v-34.133h170.667V472.6z M323.267,225.133V216.6
				v-23.893c0-2.818,0.542-5.866,1.55-8.753c2.697-5.893,8.642-10.02,15.517-10.02h136.533c9.387,0,17.067,7.68,17.067,17.067
				v34.133H323.267z"/>
			<path d="M425.667,191h-34.133c-5.12,0-8.533,3.413-8.533,8.533s3.413,8.533,8.533,8.533h34.133c5.12,0,8.533-3.413,8.533-8.533
				S430.787,191,425.667,191z"/>
			<path d="M391.533,472.6h34.133c5.12,0,8.533-3.413,8.533-8.533s-3.413-8.533-8.533-8.533h-34.133
				c-5.12,0-8.533,3.413-8.533,8.533S386.413,472.6,391.533,472.6z"/>
			<path d="M451.267,319h-8.533v-17.067c0-18.773-15.36-34.133-34.133-34.133c-18.773,0-34.133,15.36-34.133,34.133V319h-8.533
				c-5.12,0-8.533,3.413-8.533,8.533v59.733c0,5.12,3.413,8.533,8.533,8.533h85.333c5.12,0,8.533-3.413,8.533-8.533v-59.733
				C459.8,322.413,456.387,319,451.267,319z M391.533,301.933c0-9.387,7.68-17.067,17.067-17.067s17.067,7.68,17.067,17.067V319
				h-34.133V301.933z M442.733,378.733h-68.267v-42.667H383h51.2h8.533V378.733z"/>
			<path d="M144.067,191H229.4c5.12,0,8.533-3.413,8.533-8.533v-59.733c0-5.12-3.413-8.533-8.533-8.533h-8.533v-8.533
				c0-18.773-15.36-34.133-34.133-34.133c-18.773,0-34.133,15.36-34.133,34.133v8.533h-8.533c-5.12,0-8.533,3.413-8.533,8.533
				v59.733C135.533,187.587,138.947,191,144.067,191z M169.667,105.667c0-9.387,7.68-17.067,17.067-17.067
				s17.067,7.68,17.067,17.067v8.533h-34.133V105.667z M152.6,131.267h8.533h51.2h8.533v42.667H152.6V131.267z"/>
			<path d="M369.954,53.367l24.14,24.14c1.707,1.707,3.413,2.56,5.973,2.56s4.267-0.853,5.973-2.56
				c3.413-3.413,3.413-8.533,0-11.947l-11.093-11.093h56.32v56.32l-11.093-11.093c-3.413-3.413-8.533-3.413-11.947,0
				s-3.413,8.533,0,11.947l24.14,24.14c1.395,2.509,4.034,4.02,7.434,4.02c3.399,0,6.038-1.511,7.433-4.02l24.14-24.14
				c3.413-3.413,3.413-8.533,0-11.947s-8.533-3.413-11.947,0l-11.093,11.093V45.933c0-5.12-3.413-8.533-8.533-8.533h-64.853
				l11.093-11.093c3.413-3.413,3.413-8.533,0-11.947s-8.533-3.413-11.947,0l-24.14,24.14c-2.509,1.395-4.02,4.034-4.02,7.434
				C365.933,49.332,367.444,51.972,369.954,53.367z"/>
			<path d="M208.313,413.967l-24.14-24.14c-3.413-3.413-8.533-3.413-11.947,0s-3.413,8.533,0,11.947l11.093,11.093H127v-56.32
				l11.093,11.093c1.707,1.707,3.413,2.56,5.973,2.56s4.267-0.853,5.973-2.56c3.413-3.413,3.413-8.533,0-11.947l-24.14-24.14
				c-1.395-2.509-4.034-4.02-7.434-4.02s-6.038,1.511-7.434,4.02l-24.14,24.14c-3.413,3.413-3.413,8.533,0,11.947
				c1.707,1.707,3.413,2.56,5.973,2.56c2.56,0,4.267-0.853,5.973-2.56l11.093-11.093V421.4c0,5.12,3.413,8.533,8.533,8.533h64.853
				l-11.093,11.093c-3.413,3.413-3.413,8.533,0,11.947c1.707,1.707,3.413,2.56,5.973,2.56s4.267-0.853,5.973-2.56l24.14-24.14
				c2.51-1.395,4.02-4.034,4.02-7.434S210.823,415.362,208.313,413.967z"/>
		</g>
	</g>
</g>
<g>
</g>
<g>
</g>
<g>
</g>
<g>
</g>
<g>
</g>
<g>
</g>
<g>
</g>
<g>
</g>
<g>
</g>
<g>
</g>
<g>
</g>
<g>
</g>
<g>
</g>
<g>
</g>
<g>
</g>
</svg>
