<?xml version="1.0" encoding="iso-8859-1"?>
<!-- Generator: Adobe Illustrator 19.0.0, SVG Export Plug-In . SVG Version: 6.00 Build 0)  -->
<svg version="1.1" id="Capa_1" xmlns="http://www.w3.org/2000/svg" xmlns:xlink="http://www.w3.org/1999/xlink" x="0px" y="0px"
	 viewBox="0 0 489.4 489.4" style="enable-background:new 0 0 489.4 489.4;" xml:space="preserve">
<g>
	<g>
		<path d="M488.9,444.2v-71.3V203.8v-21.6v-11.3c0-21.1-16.7-38.4-37.1-38.4H325c-20.4,0-37.1,17.3-37.1,38.4v11.3v262v6.8
			c0,21.1,16.7,38.4,37.1,38.4h126.8c20.4,0,37.1-17.3,37.1-38.4L488.9,444.2L488.9,444.2z M404.4,473.3h-35.8
			c-5.3,0-9.6-4.5-9.6-10s4.3-10,9.6-10h35.8c5.3,0,9.6,4.5,9.6,10C414,468.8,409.7,473.3,404.4,473.3z M455.2,437.3
			c-0.2,0-0.5,0.1-0.7,0.1H322.3c-0.2,0-0.5-0.1-0.7-0.1V184.9c0.2,0,0.5-0.1,0.7-0.1h132.2c0.2,0,0.4,0.1,0.6,0.1v252.4H455.2z
			 M105.7,489.4h62.8h96.9c-6.5-11.3-10.3-24.4-10.3-38.4v-22.9h-35.7H42.3v-375h271.8V99c3.6-0.5,7.2-0.9,10.9-0.9h30.4V51.3V45
			v-5.6c0-16.3-9.6-30.3-23.3-36.3c-4.6-2-9.6-3.1-14.9-3.1H168.6L38.7,0c-5.3,0-10.3,1.1-14.9,3.1c-13.7,6-23.3,20-23.3,36.3v7.1
			v355.4V450c0,21.8,17.1,39.4,38.1,39.4L105.7,489.4L105.7,489.4z M160,449.6h35.8c5.3,0,9.6,4.5,9.6,10s-4.3,10-9.6,10H160
			c-5.3,0-9.6-4.5-9.6-10S154.7,449.6,160,449.6z"/>
	</g>
</g>
<g>
</g>
<g>
</g>
<g>
</g>
<g>
</g>
<g>
</g>
<g>
</g>
<g>
</g>
<g>
</g>
<g>
</g>
<g>
</g>
<g>
</g>
<g>
</g>
<g>
</g>
<g>
</g>
<g>
</g>
</svg>
