<?xml version="1.0" encoding="iso-8859-1"?>
<!-- Generator: Adobe Illustrator 19.0.0, SVG Export Plug-In . SVG Version: 6.00 Build 0)  -->
<svg version="1.1" id="Layer_1" xmlns="http://www.w3.org/2000/svg" xmlns:xlink="http://www.w3.org/1999/xlink" x="0px" y="0px"
	 viewBox="0 0 500 500" style="enable-background:new 0 0 500 500;" xml:space="preserve">
<polygon style="fill:#007BCE;" points="226,276 173.2,276 179.6,228.8 219.6,228.8 "/>
<path style="fill:#0097F4;" d="M389.2,228.8c0,8-6.4,14.4-14.4,14.4H24.4c-8,0-14.4-6.4-14.4-14.4V14.4C10,6.4,16.4,0,24.4,0h351.2
	c8,0,14.4,6.4,14.4,14.4v214.4H389.2z"/>
<path style="fill:#007BCE;" d="M374.8,0H24.4C16.4,0,10,6.4,10,14.4v190.4h379.2V14.4C389.2,6.4,382.8,0,374.8,0z"/>
<path style="fill:#FDFFFF;" d="M366.8,36.8c0,8-6.4,15.2-15.2,15.2H38.8c-8,0-6.4-6.4-6.4-15.2l0,0c0-8-1.6-15.2,6.4-15.2h312.8
	C360.4,21.6,366.8,28.8,366.8,36.8L366.8,36.8z"/>
<path style="fill:#E6EFEF;" d="M32.4,36.8L32.4,36.8c0-8-1.6-15.2,6.4-15.2h312.8c8,0,15.2,6.4,15.2,15.2l0,0"/>
<path style="fill:#007BCE;" d="M98.8,30.4C98.8,30.4,98,30.4,98.8,30.4l-3.2-0.8c-0.8,0-0.8,0-0.8,0.8L93.2,36l0,0l0,0l-1.6-5.6
	c0-0.8-0.8-0.8-0.8-0.8h-1.6c-0.8,0-0.8,0-0.8,0.8l-1.6,6.4l0,0l0,0l-1.6-5.6c0-0.8-0.8-0.8-0.8-0.8H82c0,0,0,0-0.8,0c0,0,0,0-0.8,0
	H78c-0.8,0-0.8,0-0.8,0.8l-1.6,5.6l0,0l0,0l-2.4-6.4c0-0.8-0.8-0.8-0.8-0.8h-1.6c-0.8,0-0.8,0-0.8,0.8l-2.4,6.4l0,0l0,0L66,31.2
	c0-0.8,0-0.8-0.8-0.8h-2.4c0,0,0,0-0.8,0c0,0,0,0-0.8,0h-1.6c-0.8,0-0.8,0-0.8,0.8l-1.6,5.6l0,0l0,0l-1.6-6.4c0-0.8-0.8-0.8-0.8-0.8
	h-2.4c-0.8,0-0.8,0-0.8,0.8L50,36.8l0,0l0,0l-1.6-5.6c0-0.8-0.8-0.8-0.8-0.8h-2.4c0,0-0.8,0-0.8,0.8V32l3.2,11.2
	c0,0.8,0.8,0.8,0.8,0.8H50c0.8,0,0.8,0,0.8-0.8l1.6-5.6c0,0,0,0,0-0.8l0,0l1.6,5.6c0,0.8,0.8,0.8,0.8,0.8H58c0.8,0,0.8,0,0.8-0.8
	L62,32l4,11.2c0,0,0,0.8,0.8,0.8h1.6c0.8,0,0.8,0,0.8-0.8l1.6-5.6c0,0,0,0,0-0.8l0,0l1.6,5.6c0,0.8,0.8,0.8,0.8,0.8h1.6
	c0.8,0,0.8,0,0.8-0.8L78.8,32L82,42.4c0,0.8,0.8,0.8,0.8,0.8h1.6c0.8,0,0.8,0,0.8-0.8l1.6-5.6c0,0,0,0,0-0.8l0,0l1.6,5.6
	c0,0.8,0.8,0.8,0.8,0.8h1.6c0.8,0,0.8,0,0.8-0.8l4-12C98.8,31.2,98.8,30.4,98.8,30.4z"/>
<g>
	<path style="fill:#0097F4;" d="M266,276.8c0,5.6-4.8,10.4-10.4,10.4h-112c-5.6,0-10.4-4.8-10.4-10.4l0,0c0-5.6,4.8-10.4,10.4-10.4
		h112C261.2,266.4,266,271.2,266,276.8L266,276.8z"/>
	<path style="fill:#0097F4;" d="M246,319.2L246,319.2h8.8c3.2,0,5.6-2.4,5.6-5.6s-2.4-5.6-5.6-5.6h-22.4c-1.6,0-3.2,0.8-4,1.6
		c-0.8,0.8-1.6,2.4-1.6,4V336c0,3.2,2.4,5.6,5.6,5.6c3.2,0,5.6-2.4,5.6-5.6v-8.8l0,0l19.2,19.2c0.8,0.8,2.4,1.6,4,1.6s3.2-0.8,4-1.6
		c2.4-2.4,2.4-5.6,0-8L246,319.2z M238,319.2L238,319.2L238,319.2C238.8,319.2,238,319.2,238,319.2L238,319.2z"/>
</g>
<circle style="fill:#007BCE;" cx="199.6" cy="220.8" r="8"/>
<path style="opacity:0.2;fill:#B5C6C6;enable-background:new    ;" d="M436.4,77.6H266c-10.4,0-18.4,8.8-18.4,20.8V448
	c0,11.2,8,20.8,18.4,20.8h170.4c10.4,0,18.4-8.8,18.4-20.8V98.4C454.8,87.2,446.8,77.6,436.4,77.6z"/>
<path d="M472.4,124.8h-164c-9.6,0-17.6,8.8-17.6,20V480c0,11.2,8,20,17.6,20h163.2c9.6,0,17.6-8.8,17.6-20V144.8
	C490,133.6,482,124.8,472.4,124.8z"/>
<path style="fill:#193E44;" d="M472.4,118.4h-164c-9.6,0-17.6,8.8-17.6,20v335.2c0,11.2,8,20,17.6,20h163.2c9.6,0,17.6-8.8,17.6-20
	V138.4C490,127.2,482,118.4,472.4,118.4z"/>
<rect x="290.8" y="145.6" width="199.2" height="304.8"/>
<path style="opacity:0.3;fill:#2B545B;enable-background:new    ;" d="M461.2,141.6H319.6c-7.2,0-13.6,6.4-13.6,14.4v295.2
	c0,8,5.6,8,13.6,8h141.6c7.2,0,13.6,0,13.6-8v-296C474.8,148,468.4,141.6,461.2,141.6z"/>
<path style="fill:#007BCE;" d="M461.2,145.6H319.6c-7.2,0-13.6,6.4-13.6,14.4v276.8c0,8,5.6,14.4,13.6,14.4h141.6
	c7.2,0,13.6-6.4,13.6-14.4V160C474.8,152,468.4,145.6,461.2,145.6z"/>
<g>
	<path style="fill:#0097F4;" d="M461.2,451.2c7.2,0,13.6-6.4,13.6-14.4V160c0-8-5.6-14.4-13.6-14.4H319.6c-7.2,0-13.6,6.4-13.6,14.4
		"/>
	<circle style="fill:#0097F4;" cx="310.8" cy="132" r="4.8"/>
</g>
<path style="fill:#007BCE;" d="M314,135.2c-1.6,1.6-4.8,1.6-6.4,0s-1.6-4.8,0-6.4"/>
<path d="M340.4,132c0,2.4-1.6,4-4,4h-12c-2.4,0-4-1.6-4-4l0,0c0-2.4,1.6-4,4-4h12C338,128,340.4,129.6,340.4,132L340.4,132z"/>
<circle style="fill:#2EE5CA;" cx="325.2" cy="132" r="3.2"/>
<path style="fill:#1BCEB8;" d="M327.6,133.6c-0.8,0.8-3.2,0.8-4,0s-0.8-3.2,0-4"/>
<circle style="fill:#FF5AC8;" cx="334" cy="132" r="3.2"/>
<path style="fill:#F240AE;" d="M335.6,133.6c-0.8,0.8-3.2,0.8-4,0s-0.8-3.2,0-4"/>
<g>
	<rect x="382.8" y="130.4" style="fill:#20585E;" width="3.2" height="3.2"/>
	<rect x="378" y="130.4" style="fill:#20585E;" width="3.2" height="3.2"/>
	<rect x="386.8" y="130.4" style="fill:#20585E;" width="3.2" height="3.2"/>
	<rect x="362" y="130.4" style="fill:#20585E;" width="3.2" height="3.2"/>
	<rect x="366" y="130.4" style="fill:#20585E;" width="3.2" height="3.2"/>
	<rect x="390.8" y="130.4" style="fill:#20585E;" width="3.2" height="3.2"/>
	<rect x="370" y="130.4" style="fill:#20585E;" width="3.2" height="3.2"/>
	<rect x="374" y="130.4" style="fill:#20585E;" width="3.2" height="3.2"/>
	<rect x="394.8" y="130.4" style="fill:#20585E;" width="3.2" height="3.2"/>
	<path style="fill:#20585E;" d="M360.4,130.4h-3.2c-0.8,0-1.6,0.8-1.6,1.6s0.8,1.6,1.6,1.6h3.2V130.4z"/>
	<rect x="411.6" y="130.4" style="fill:#20585E;" width="3.2" height="3.2"/>
	<path style="fill:#20585E;" d="M423.6,130.4h-3.2v3.2h3.2c0.8,0,1.6-0.8,1.6-1.6S424.4,130.4,423.6,130.4z"/>
	<rect x="416.4" y="130.4" style="fill:#20585E;" width="3.2" height="3.2"/>
	<rect x="399.6" y="130.4" style="fill:#20585E;" width="3.2" height="3.2"/>
	<rect x="403.6" y="130.4" style="fill:#20585E;" width="3.2" height="3.2"/>
	<rect x="407.6" y="130.4" style="fill:#20585E;" width="3.2" height="3.2"/>
	<rect x="382.8" y="488" style="fill:#20585E;" width="3.2" height="3.2"/>
	<rect x="378" y="488" style="fill:#20585E;" width="3.2" height="3.2"/>
	<rect x="386.8" y="488" style="fill:#20585E;" width="3.2" height="3.2"/>
	<rect x="362" y="488" style="fill:#20585E;" width="3.2" height="3.2"/>
	<rect x="366" y="488" style="fill:#20585E;" width="3.2" height="3.2"/>
	<rect x="390.8" y="488" style="fill:#20585E;" width="3.2" height="3.2"/>
	<rect x="370" y="488" style="fill:#20585E;" width="3.2" height="3.2"/>
	<rect x="374" y="488" style="fill:#20585E;" width="3.2" height="3.2"/>
	<rect x="394.8" y="488" style="fill:#20585E;" width="3.2" height="3.2"/>
	<path style="fill:#20585E;" d="M360.4,488h-3.2c-0.8,0-1.6,0.8-1.6,1.6s0.8,1.6,1.6,1.6h3.2V488z"/>
	<rect x="411.6" y="488" style="fill:#20585E;" width="3.2" height="3.2"/>
	<path style="fill:#20585E;" d="M423.6,488h-3.2v3.2h3.2c0.8,0,1.6-0.8,1.6-1.6S424.4,488,423.6,488z"/>
	<rect x="416.4" y="488" style="fill:#20585E;" width="3.2" height="3.2"/>
	<rect x="399.6" y="488" style="fill:#20585E;" width="3.2" height="3.2"/>
	<rect x="403.6" y="488" style="fill:#20585E;" width="3.2" height="3.2"/>
	<rect x="407.6" y="488" style="fill:#20585E;" width="3.2" height="3.2"/>
</g>
<path style="fill:#0097F4;" d="M401.2,470.4c0,5.6-4.8,10.4-10.4,10.4H390c-5.6,0-10.4-4.8-10.4-10.4v-0.8c0-5.6,4.8-10.4,10.4-10.4
	h0.8c5.6,0,10.4,4.8,10.4,10.4V470.4z"/>
<path style="fill:#007BCE;" d="M390,459.2h0.8c5.6,0,10.4,4.8,10.4,10.4v0.8c0,5.6-4.8,10.4-10.4,10.4H390"/>
<g>
</g>
<g>
</g>
<g>
</g>
<g>
</g>
<g>
</g>
<g>
</g>
<g>
</g>
<g>
</g>
<g>
</g>
<g>
</g>
<g>
</g>
<g>
</g>
<g>
</g>
<g>
</g>
<g>
</g>
</svg>
