<?xml version="1.0" encoding="iso-8859-1"?>
<!-- Generator: Adobe Illustrator 18.0.0, SVG Export Plug-In . SVG Version: 6.00 Build 0)  -->
<!DOCTYPE svg PUBLIC "-//W3C//DTD SVG 1.1//EN" "http://www.w3.org/Graphics/SVG/1.1/DTD/svg11.dtd">
<svg version="1.1" id="Capa_1" xmlns="http://www.w3.org/2000/svg" xmlns:xlink="http://www.w3.org/1999/xlink" x="0px" y="0px"
	 viewBox="0 0 464.309 464.309" style="enable-background:new 0 0 464.309 464.309;" xml:space="preserve">
<path d="M453.955,71.625H268.662c-5.709,0-10.354,4.644-10.354,10.352v46.872H206V81.976c0-5.708-4.645-10.352-10.354-10.352H10.354
	C4.644,71.625,0,76.268,0,81.976v114.961c0,5.709,4.644,10.353,10.354,10.353h63.662v5.768h-8.428
	c-5.708,0-10.352,4.645-10.352,10.354c0,5.708,4.644,10.352,10.352,10.352h35.473v54.758c0,6.846,5.572,12.415,12.421,12.415h82.392
	v9.074h-11.639c-6.848,0-12.418,5.571-12.418,12.418c0,6.848,5.57,12.419,12.418,12.419h39.92v21.17h-22c-4.411,0-8,3.589-8,8v2.333
	H56.488c-4.411,0-8,3.589-8,8c0,4.411,3.589,8,8,8h137.666v2.333c0,4.411,3.589,8,8,8h60c4.411,0,8-3.589,8-8v-2.333H407.82
	c4.411,0,8-3.589,8-8c0-4.411-3.589-8-8-8H270.154v-2.333c0-4.411-3.589-8-8-8h-22v-21.17h39.92c6.847,0,12.417-5.571,12.417-12.419
	c0-6.847-5.57-12.418-12.417-12.418h-11.639v-9.074h82.393c6.849,0,12.42-5.569,12.42-12.415v-54.758h35.473
	c5.708,0,10.352-4.644,10.352-10.352c0-5.709-4.643-10.354-10.352-10.354h-8.428v-5.768h63.662c5.709,0,10.353-4.645,10.353-10.353
	V81.976C464.309,76.268,459.664,71.625,453.955,71.625z M101.061,141.267v37.963H20.703v-86.9h164.592v36.519h-71.814
	C106.633,128.848,101.061,134.419,101.061,141.267z M232.154,293.819c-4.408,0-8-3.587-8-8s3.592-8,8-8s8,3.587,8,8
	S236.563,293.819,232.154,293.819z M338.409,266.683h-212.51V153.685h212.51V266.683z M443.605,179.23h-80.357v-37.963
	c0-6.848-5.571-12.419-12.42-12.419h-71.814V92.33h164.592V179.23z"/>
<g>
</g>
<g>
</g>
<g>
</g>
<g>
</g>
<g>
</g>
<g>
</g>
<g>
</g>
<g>
</g>
<g>
</g>
<g>
</g>
<g>
</g>
<g>
</g>
<g>
</g>
<g>
</g>
<g>
</g>
</svg>
