<?xml version="1.0" encoding="iso-8859-1"?>
<!-- Generator: Adobe Illustrator 18.0.0, SVG Export Plug-In . SVG Version: 6.00 Build 0)  -->
<!DOCTYPE svg PUBLIC "-//W3C//DTD SVG 1.1//EN" "http://www.w3.org/Graphics/SVG/1.1/DTD/svg11.dtd">
<svg version="1.1" id="Capa_1" xmlns="http://www.w3.org/2000/svg" xmlns:xlink="http://www.w3.org/1999/xlink" x="0px" y="0px"
	 viewBox="0 0 323 323" style="enable-background:new 0 0 323 323;" xml:space="preserve">
<g>
	<path d="M315,22.411H8c-4.418,0-8,3.582-8,8v197c0,4.419,3.582,8,8,8h109.326c-1.859,11.521-6.302,32.829-15.95,53.839
		c-1.137,2.477-0.936,5.362,0.536,7.656c1.471,2.294,4.009,3.682,6.734,3.682h105.707c2.726,0,5.264-1.388,6.734-3.682
		c1.471-2.294,1.673-5.18,0.536-7.656c-9.648-21.011-14.091-42.32-15.951-53.839H315c4.418,0,8-3.581,8-8v-197
		C323,25.993,319.418,22.411,315,22.411z M307,219.411h-18v-4c0-4.418-3.582-8-8-8s-8,3.582-8,8v4h-12.5v-4c0-4.418-3.582-8-8-8
		c-4.419,0-8,3.582-8,8v4H16v-181h291V219.411z"/>
	<path d="M181.014,144.296c-7.351,0-13.898,3.492-18.081,8.899l-21.591-11.066c2.213-3.518,3.498-7.675,3.498-12.129
		s-1.285-8.611-3.498-12.129l21.591-11.066c4.183,5.408,10.73,8.899,18.081,8.899c12.602,0,22.854-10.251,22.854-22.852
		c0-12.601-10.252-22.853-22.854-22.853c-12.602,0-22.854,10.252-22.854,22.853c0,1.678,0.187,3.313,0.532,4.889l-24.843,12.733
		c-3.46-2.11-7.522-3.327-11.863-3.327c-12.601,0-22.854,10.251-22.854,22.853s10.252,22.852,22.854,22.852
		c4.341,0,8.402-1.217,11.863-3.327l24.843,12.733c-0.345,1.576-0.532,3.21-0.532,4.889c0,12.601,10.252,22.852,22.854,22.852
		c12.602,0,22.854-10.251,22.854-22.852C203.867,154.547,193.615,144.296,181.014,144.296z"/>
</g>
<g>
</g>
<g>
</g>
<g>
</g>
<g>
</g>
<g>
</g>
<g>
</g>
<g>
</g>
<g>
</g>
<g>
</g>
<g>
</g>
<g>
</g>
<g>
</g>
<g>
</g>
<g>
</g>
<g>
</g>
</svg>
