<?xml version="1.0" encoding="iso-8859-1"?>
<!-- Generator: Adobe Illustrator 16.0.0, SVG Export Plug-In . SVG Version: 6.00 Build 0)  -->
<!DOCTYPE svg PUBLIC "-//W3C//DTD SVG 1.1//EN" "http://www.w3.org/Graphics/SVG/1.1/DTD/svg11.dtd">
<svg version="1.1" id="Capa_1" xmlns="http://www.w3.org/2000/svg" xmlns:xlink="http://www.w3.org/1999/xlink" x="0px" y="0px"
	 width="110.73px" height="110.73px" viewBox="0 0 110.73 110.73" style="enable-background:new 0 0 110.73 110.73;"
	 xml:space="preserve">
<g>
	<path d="M23.633,44.574c0.306,0.367,0.498,0.859,0.498,1.312V50.5c0,0.864-0.701,1.565-1.565,1.565h-3.499
		c-0.864,0-1.564-0.701-1.564-1.565v-4.614c0-0.548,0.28-1.154,0.706-1.526l2.208-2.412c0.226-0.248,0.592-0.248,0.818,0
		l2.404,2.627L23.633,44.574L23.633,44.574z M19.611,40.167l-2.627-2.404v0.006c-0.367-0.306-0.859-0.498-1.311-0.498h-4.616
		c-0.864,0-1.564,0.701-1.564,1.565v3.499c0,0.864,0.7,1.564,1.564,1.564h4.616c0.547,0,1.153-0.281,1.525-0.706l2.413-2.208
		C19.858,40.757,19.858,40.392,19.611,40.167z M43.477,39.752h23.812c1.182,0,2.143-0.962,2.143-2.145v-0.027V25.234v-0.063
		c0-1.183-0.961-2.145-2.142-2.145H43.477c-1.181,0-2.142,0.962-2.142,2.145v0.027v12.346v0.063
		C41.336,38.791,42.297,39.752,43.477,39.752z M20.417,39.723c0.226,0.246,0.592,0.246,0.818,0l2.404-2.628h-0.006
		c0.306-0.367,0.498-0.859,0.498-1.312v-4.616c0-0.863-0.701-1.563-1.565-1.563h-3.499c-0.864,0-1.564,0.7-1.564,1.563v4.616
		c0,0.546,0.28,1.152,0.706,1.525L20.417,39.723z M98.107,36.732c2.013,0,3.645,1.632,3.645,3.644c0,2.013-1.632,3.645-3.645,3.645
		c-2.012,0-3.644-1.632-3.644-3.645C94.464,38.364,96.096,36.732,98.107,36.732z M98.107,37.947c-1.313,0-2.384,1.069-2.384,2.384
		s1.07,2.386,2.384,2.386c1.315,0,2.385-1.07,2.385-2.386C100.492,39.017,99.424,37.947,98.107,37.947z M88.206,33.787h3.496
		l-1.748-2.959L88.206,33.787z M93.599,32.525c0,2.013-1.631,3.644-3.645,3.644c-2.012,0-3.645-1.631-3.645-3.644
		c0-2.013,1.632-3.645,3.645-3.645C91.968,28.88,93.599,30.513,93.599,32.525z M92.49,34.236l-2.536-4.294l-2.535,4.294H92.49z
		 M96.174,40.332c0,1.066,0.867,1.936,1.935,1.936s1.936-0.869,1.936-1.936c0-1.065-0.868-1.935-1.936-1.935
		S96.174,39.266,96.174,40.332z M93.599,48.241c0,2.013-1.631,3.646-3.645,3.646c-2.012,0-3.645-1.632-3.645-3.646
		c0-2.012,1.632-3.644,3.645-3.644C91.968,44.598,93.599,46.229,93.599,48.241z M90.466,48.241l1.709-1.709l-0.415-0.415
		l-1.709,1.71l-1.709-1.71l-0.415,0.415l1.709,1.709l-1.709,1.709l0.415,0.414l1.709-1.708l1.709,1.708l0.415-0.414L90.466,48.241z
		 M110.726,77.349c-0.047,3.618-0.842,6.106-4.352,8.995c-6.122,4.729-14.394,1.643-16.145-0.941
		c-1.751-2.585-3.243-6.604-4.432-10.095c-0.969-2.84-1.938-5.68-2.885-8.527c-0.303-0.908-1.062-1.249-1.831-1.588
		c-0.093-0.04-0.277,0.05-0.385,0.129c-4.222,3.075-9.568,2.979-13.682-0.229c-0.209-0.164-0.524-0.276-0.79-0.276
		c-1.215,0-4.345,0.004-7.418,0.009v0.015c-0.672-0.003-1.931-0.005-3.442-0.008c-1.511,0.003-2.771,0.005-3.442,0.008v-0.015
		c-3.073-0.005-6.203-0.009-7.418-0.009c-0.266,0-0.581,0.112-0.79,0.276c-4.113,3.209-9.46,3.305-13.683,0.229
		c-0.107-0.079-0.292-0.169-0.385-0.129c-0.77,0.339-1.528,0.68-1.831,1.588c-0.947,2.849-1.916,5.688-2.884,8.527
		c-1.188,3.491-2.68,7.51-4.432,10.095c-1.751,2.584-10.022,5.672-16.145,0.941c-3.509-2.889-4.304-5.377-4.351-8.995
		c-0.035-2.744,0.124-5.505,0.423-8.232c0.602-5.501,1.614-10.942,2.725-16.364c1.092-5.333,2.351-10.628,3.92-15.845
		c0.71-2.361,1.567-4.656,2.938-6.729c1.072-1.619,2.123-3.251,3.222-4.851c0.201-0.293,0.563-0.499,0.889-0.679
		c0.248-0.139,0.431-0.238,0.45-0.566c0.01-0.174,0.158-0.378,0.304-0.491c0.229-0.179,0.498-0.319,0.768-0.43
		c3.877-1.587,7.779-1.652,11.702-0.165c0.333,0.126,0.522,0.352,0.49,0.698c-0.05,0.54,0.16,0.838,0.706,0.887
		c0.043,0.004,0.085,0.026,0.124,0.047c0.924,0.478,1.917,0.642,2.944,0.646h8.716l-0.027,12.334c0,1.755,1.426,3.184,3.18,3.184
		h23.812c1.754,0,3.181-1.429,3.181-3.184V25.273h8.652c1.027-0.004,2.021-0.168,2.944-0.646c0.039-0.021,0.081-0.043,0.124-0.047
		c0.546-0.049,0.755-0.347,0.706-0.887c-0.032-0.347,0.156-0.572,0.49-0.698c3.923-1.487,7.824-1.422,11.702,0.165
		c0.271,0.11,0.539,0.251,0.768,0.43c0.146,0.113,0.294,0.317,0.304,0.491c0.02,0.328,0.202,0.428,0.45,0.566
		c0.326,0.18,0.688,0.386,0.889,0.679c1.1,1.6,2.15,3.231,3.223,4.851c1.371,2.073,2.227,4.368,2.937,6.729
		c1.57,5.217,2.829,10.512,3.92,15.845c1.11,5.421,2.123,10.863,2.726,16.364C110.602,71.844,110.762,74.604,110.726,77.349z
		 M34.333,33.658c0,1.235,1,2.236,2.235,2.236c1.235,0,2.236-1.001,2.236-2.236v-4.6c0-1.234-1-2.235-2.236-2.235
		c-1.234,0-2.235,1.001-2.235,2.235V33.658z M33.41,40.591c0-6.915-5.606-12.522-12.521-12.522c-6.916,0-12.522,5.607-12.522,12.522
		c0,6.916,5.606,12.521,12.522,12.521C27.804,53.113,33.41,47.507,33.41,40.591z M43.481,59.1c0-3.594-2.913-6.507-6.507-6.507
		c-3.593,0-6.506,2.913-6.506,6.507c0,3.594,2.913,6.506,6.506,6.506C40.568,65.605,43.481,62.693,43.481,59.1z M54.975,59.236
		c0.125,0,0.251,0,0.375-0.013c0.385-0.044,0.702-0.204,0.894-0.555c0.137-0.245,0.161-0.514,0.141-0.788
		c-0.043-0.579-0.511-1.017-1.091-1.017c-1.763,0-3.525,0-5.287,0c-0.035,0-0.071,0-0.119,0c0,0.126,0.006,0.235-0.002,0.347
		c-0.005,0.087,0.028,0.107,0.112,0.107c0.943-0.003,1.887-0.003,2.831-0.003c0.661,0,1.321,0,1.983,0.001
		c0.327,0,0.537,0.157,0.602,0.471c0.028,0.135,0.034,0.279,0.016,0.417c-0.05,0.382-0.261,0.556-0.646,0.556
		c-1.258,0-2.518,0.009-3.777-0.004c-0.629-0.006-1.067,0.469-1.101,1.037c-0.028,0.472-0.012,0.945-0.018,1.418
		c-0.001,0.061,0.02,0.084,0.083,0.084c0.259-0.002,0.518-0.005,0.778,0c0.073,0.002,0.09-0.028,0.089-0.095
		c-0.002-0.356-0.001-0.715,0-1.071c0-0.107,0-0.214,0.012-0.32c0.033-0.298,0.235-0.579,0.636-0.575
		C52.646,59.246,53.812,59.238,54.975,59.236z M62.326,56.865c-0.03,0-0.052,0-0.071,0c-1.016,0-2.03-0.006-3.044,0.007
		c-0.339,0.004-0.629,0.153-0.833,0.435c-0.155,0.212-0.216,0.454-0.217,0.714c-0.001,0.699,0.004,1.399-0.002,2.101
		c-0.004,0.408-0.202,0.71-0.693,0.699c-0.843-0.015-1.686-0.004-2.527-0.004c-0.021,0-0.042,0.002-0.063,0
		c-0.057-0.005-0.081,0.019-0.08,0.078c0.004,0.104,0.004,0.207,0,0.312c-0.003,0.07,0.026,0.09,0.094,0.09
		c0.998-0.002,1.995,0,2.992-0.002c0.262,0,0.515-0.056,0.737-0.201c0.344-0.229,0.483-0.565,0.487-0.961
		c0.006-0.68,0.001-1.357,0.002-2.037c0.001-0.085,0.007-0.172,0.019-0.257c0.033-0.257,0.193-0.444,0.423-0.497
		c0.073-0.02,0.152-0.022,0.229-0.022c0.807-0.001,1.613-0.001,2.419-0.001c0.021,0,0.046,0.008,0.062-0.002
		c0.024-0.016,0.061-0.037,0.062-0.06C62.329,57.131,62.326,57.006,62.326,56.865z M71.929,33.658c0,1.235,1,2.236,2.234,2.236
		c1.235,0,2.235-1.001,2.235-2.236v-4.6c0-1.234-1-2.235-2.235-2.235c-1.234,0-2.234,1.001-2.234,2.235V33.658z M80.263,59.1
		c0-3.594-2.913-6.507-6.506-6.507c-3.595,0-6.508,2.913-6.508,6.507c0,3.594,2.913,6.506,6.508,6.506
		C77.35,65.605,80.263,62.693,80.263,59.1z M102.364,40.591c0-6.915-5.605-12.522-12.521-12.522s-12.522,5.607-12.522,12.522
		c0,6.916,5.606,12.521,12.522,12.521S102.364,47.507,102.364,40.591z M85.69,40.376c0,2.013-1.632,3.645-3.645,3.645
		c-2.014,0-3.646-1.632-3.646-3.645c0-2.012,1.632-3.644,3.646-3.644C84.059,36.732,85.69,38.364,85.69,40.376z M84.028,38.35
		h-3.965v3.964h3.965V38.35z M30.389,37.27h-4.616c-0.452,0-0.943,0.192-1.311,0.498v-0.006l-2.627,2.404
		c-0.247,0.226-0.247,0.592,0,0.818l2.413,2.208c0.373,0.425,0.979,0.706,1.525,0.706h4.616c0.864,0,1.564-0.7,1.564-1.564v-3.499
		C31.953,37.971,31.253,37.27,30.389,37.27z M83.578,38.797h-3.064v3.067h3.064V38.797z"/>
</g>
<g>
</g>
<g>
</g>
<g>
</g>
<g>
</g>
<g>
</g>
<g>
</g>
<g>
</g>
<g>
</g>
<g>
</g>
<g>
</g>
<g>
</g>
<g>
</g>
<g>
</g>
<g>
</g>
<g>
</g>
</svg>
