<?xml version="1.0" encoding="iso-8859-1"?>
<!-- Generator: Adobe Illustrator 19.0.0, SVG Export Plug-In . SVG Version: 6.00 Build 0)  -->
<svg version="1.1" id="Layer_1" xmlns="http://www.w3.org/2000/svg" xmlns:xlink="http://www.w3.org/1999/xlink" x="0px" y="0px"
	 viewBox="0 0 512 512" style="enable-background:new 0 0 512 512;" xml:space="preserve">
<g>
	<g>
		<path d="M457.143,108.663V0H138.651L54.857,83.794v129.359h21.942v55.908H54.857V512h402.286V227.265h-21.942v-17.897h3.656
			c10.082,0,18.286-8.203,18.286-18.286v-46.237c0-10.082-8.203-18.286-18.286-18.286h-3.656v-17.897H457.143z M438.857,142.234
			c1.441,0,2.612,1.171,2.612,2.612v46.237c0,1.441-1.171,2.612-2.612,2.612h-3.656v-51.461H438.857z M419.528,92.99v149.949h21.942
			v253.388H70.531V284.735h21.942v-87.255H70.531V90.285l74.612-74.612h296.327V92.99H419.528z"/>
	</g>
</g>
<g>
	<g>
		<path d="M371.2,94.041H140.8c-15.844,0-28.735,12.891-28.735,28.735v286.041c0,15.844,12.891,28.735,28.735,28.735h230.4
			c15.844,0,28.735-12.891,28.735-28.735V122.775C399.935,106.932,387.044,94.041,371.2,94.041z M384.261,408.816
			c0,7.202-5.859,13.061-13.061,13.061H140.8c-7.202,0-13.061-5.859-13.061-13.061V122.775c0-7.202,5.859-13.061,13.061-13.061
			h230.4c7.202,0,13.061,5.859,13.061,13.061V408.816z"/>
	</g>
</g>
<g>
	<g>
		<path d="M351.76,447.086H166.813c-10.947,0-19.853,8.906-19.853,19.853s8.906,19.853,19.853,19.853H351.76
			c10.947,0,19.853-8.906,19.853-19.853S362.706,447.086,351.76,447.086z M351.76,471.118H166.813c-2.305,0-4.18-1.875-4.18-4.18
			s1.875-4.18,4.18-4.18H351.76c2.305,0,4.18,1.875,4.18,4.18S354.065,471.118,351.76,471.118z"/>
	</g>
</g>
<g>
</g>
<g>
</g>
<g>
</g>
<g>
</g>
<g>
</g>
<g>
</g>
<g>
</g>
<g>
</g>
<g>
</g>
<g>
</g>
<g>
</g>
<g>
</g>
<g>
</g>
<g>
</g>
<g>
</g>
</svg>
