<?xml version="1.0" encoding="utf-8"?>
<!-- Uploaded to SVGRepo https://www.svgrepo.com -->
<svg version="1.1" id="Layer_1" xmlns="http://www.w3.org/2000/svg" xmlns:xlink="http://www.w3.org/1999/xlink" x="0px" y="0px"
	 viewBox="0 0 256 256" style="enable-background:new 0 0 256 256;" xml:space="preserve">
<path d="M196.6,144.5L196.6,144.5c-1.3-3.8-4.8-6.5-8.8-6.5h-4.5V28.9c0-11.3-9.1-20.4-20.4-20.4H54c-11.3,0-20.4,9.1-20.4,20.4
	v175.8C33.6,216,42.7,225,54,225h108.6c1.3,0,2.3,1,2.3,2.3s-1,2.3-2.3,2.3h-43.3l33.4,19.4h75.7L196.6,144.5z M108.5,216.5
	c-3,0-5.3-2.3-5.3-5.3c0-3,2.3-5.3,5.3-5.3s5.3,2.3,5.3,5.3C113.8,214.2,111.6,216.5,108.5,216.5z M168.4,138h-19.6
	c-5,0-9.3,4.3-9.3,9.3l0,0c0,5,4.3,9.3,9.3,9.3h19.6v40.7h-120V35.9h120V138z"/>
</svg>
