<?xml version="1.0" encoding="iso-8859-1"?>
<!-- Generator: Adobe Illustrator 16.0.0, SVG Export Plug-In . SVG Version: 6.00 Build 0)  -->
<!DOCTYPE svg PUBLIC "-//W3C//DTD SVG 1.1//EN" "http://www.w3.org/Graphics/SVG/1.1/DTD/svg11.dtd">
<svg version="1.1" id="Capa_1" xmlns="http://www.w3.org/2000/svg" xmlns:xlink="http://www.w3.org/1999/xlink" x="0px" y="0px"
	 width="105.477px" height="105.477px" viewBox="0 0 105.477 105.477" style="enable-background:new 0 0 105.477 105.477;"
	 xml:space="preserve">
<g>
	<path d="M8.44,33.65h6.845v70.884l-13.921-0.022l7.076-6.287V33.65z M8.44,31.196l6.845,0.009V0H8.44V31.196z M40.48,95.174
		c-0.187,1.701-0.271,3.352-0.251,4.906c0.019,1.37,0.195,2.887,1.02,4.443l-23.873,0.011V33.65l6.161,0.5l41.271,8.49v25.148
		c-0.189,0.129-0.377,0.263-0.547,0.416h-2.904c-0.404-0.437-0.917-0.786-1.512-1.011c-2.941-1.115-6.021-1.069-8.923,0.117
		c-0.463,0.188-0.886,0.431-1.243,0.709c-0.313,0.242-0.586,0.525-0.809,0.838c-0.277,0.227-0.572,0.52-0.83,0.896
		c-0.438,0.638-0.861,1.282-1.285,1.929l-0.502,0.762c-1.059,1.601-1.641,3.289-2.029,4.582c-0.805,2.675-1.527,5.595-2.21,8.927
		C41.458,88.665,40.84,91.883,40.48,95.174z M20.72,88.286c0,0.041,0.019,0.056,0.063,0.067c0.234,0.063,0.47,0.131,0.705,0.195
		c0.07,0.02,0.141,0.039,0.211,0.064c0.196,0.072,0.381,0.236,0.377,0.457c-0.007,0.644-0.002,1.289-0.002,1.935
		c0,0.069,0.001,0.14,0.01,0.21c0.027,0.223,0.133,0.426,0.365,0.598c0.161,0.119,0.336,0.184,0.518,0.222
		c0.381,0.083,0.667-0.097,0.667-0.418c0-0.978,0-1.954,0-2.931c0-0.02,0-0.039,0-0.065c-0.082-0.022-0.153-0.039-0.226-0.063
		c-0.059-0.02-0.072-0.004-0.072,0.043c0.002,0.522,0.002,1.045,0.002,1.568c0,0.366,0,0.732,0,1.098
		c-0.001,0.182-0.104,0.271-0.311,0.248c-0.088-0.009-0.184-0.033-0.273-0.066c-0.252-0.1-0.365-0.247-0.365-0.461
		c0-0.696-0.006-1.396,0.002-2.092c0.005-0.348-0.308-0.678-0.682-0.801c-0.311-0.102-0.622-0.18-0.933-0.27
		c-0.04-0.012-0.056-0.004-0.055,0.031C20.723,88,20.724,88.143,20.72,88.286z M20.722,92.238c0.001,0.146,0.035,0.297,0.133,0.447
		c0.149,0.23,0.371,0.371,0.631,0.444c0.447,0.128,0.894,0.249,1.34,0.374c0.057,0.018,0.113,0.036,0.17,0.059
		c0.168,0.065,0.291,0.188,0.326,0.324c0.012,0.045,0.015,0.09,0.015,0.133c0.001,0.446,0.001,0.895,0.001,1.342
		c0,0.011-0.005,0.023,0.001,0.033c0.01,0.017,0.025,0.041,0.04,0.045c0.081,0.026,0.164,0.049,0.255,0.074c0-0.02,0-0.029,0-0.041
		c0-0.563,0.005-1.123-0.003-1.688c-0.003-0.188-0.102-0.375-0.286-0.541c-0.14-0.124-0.299-0.203-0.47-0.25
		c-0.459-0.13-0.92-0.255-1.38-0.386c-0.27-0.076-0.468-0.241-0.462-0.514c0.011-0.464,0.004-0.933,0.004-1.398
		c0-0.014-0.002-0.023,0-0.035c0.002-0.03-0.012-0.049-0.051-0.059c-0.068-0.018-0.137-0.035-0.206-0.057
		c-0.047-0.016-0.06-0.003-0.059,0.034C20.722,91.135,20.72,91.686,20.722,92.238z M23.634,97.702
		c0.009-0.099-0.037-0.192-0.097-0.29c-0.179-0.294-0.358-0.588-0.537-0.881c-0.532-0.875-1.065-1.75-1.598-2.623
		c-0.028-0.045-0.061-0.092-0.099-0.131c-0.107-0.11-0.223-0.11-0.254,0c-0.012,0.043-0.014,0.09-0.014,0.138
		c-0.001,0.892-0.001,1.78,0,2.672c0,0.04-0.014,0.052-0.063,0.035c-0.08-0.024-0.16-0.046-0.245-0.069c0,0.178,0,0.35,0,0.527
		c0.082,0.021,0.159,0.047,0.238,0.064c0.054,0.014,0.071,0.033,0.069,0.08c-0.003,0.137-0.002,0.277,0,0.42
		c0.001,0.016,0.017,0.047,0.025,0.051c0.094,0.029,0.187,0.054,0.283,0.08c0.002-0.023,0.004-0.041,0.004-0.06
		c0-0.133,0.002-0.266-0.002-0.399c0-0.051,0.014-0.063,0.075-0.045c0.63,0.178,1.261,0.354,1.891,0.526
		c0.062,0.017,0.126,0.027,0.185,0.028C23.592,97.83,23.628,97.783,23.634,97.702z M21.412,94.436
		c-0.012-0.019-0.025-0.033-0.038-0.051c-0.007,0-0.013,0-0.019,0c0,0.78,0,1.561,0,2.342c0.018,0.006,0.029,0.01,0.04,0.014
		c0.542,0.15,1.085,0.302,1.627,0.453c0.067,0.019,0.075,0.007,0.038-0.055C22.511,96.236,21.961,95.335,21.412,94.436z
		 M64.806,40.653V13.448L24.463,0h-7.087v31.206l6.394,0.557L64.806,40.653z M56.732,81.413l-1.308-1.429
		c-0.125-0.135-0.322-0.135-0.445,0l-1.201,1.312c-0.23,0.202-0.384,0.532-0.384,0.83v2.51c0,0.471,0.381,0.854,0.852,0.854h1.902
		c0.471,0,0.853-0.383,0.853-0.854v-2.51c0-0.246-0.104-0.514-0.271-0.714H56.732z M54.542,79.016l-1.431-1.31v0.003
		c-0.199-0.166-0.467-0.271-0.713-0.271h-2.511c-0.47,0-0.851,0.383-0.851,0.853v1.903c0,0.471,0.381,0.852,0.851,0.852h2.511
		c0.298,0,0.627-0.152,0.83-0.385l1.313-1.201C54.677,79.336,54.677,79.137,54.542,79.016z M67.524,78.79h12.955
		c0.642,0,1.165-0.522,1.165-1.167v-0.016v-6.715v-0.035c0-0.644-0.523-1.166-1.164-1.166H67.525c-0.644,0-1.166,0.522-1.166,1.166
		v0.016v6.716v0.034C66.359,78.266,66.884,78.79,67.524,78.79z M54.979,78.773c0.123,0.135,0.32,0.135,0.445,0l1.308-1.43h-0.003
		c0.167-0.199,0.271-0.468,0.271-0.713v-2.512c0-0.471-0.382-0.852-0.853-0.852h-1.902c-0.471,0-0.853,0.381-0.853,0.852v2.512
		c0,0.297,0.152,0.627,0.385,0.829L54.979,78.773z M97.244,77.146c1.097,0,1.981,0.889,1.981,1.982s-0.887,1.982-1.981,1.982
		c-1.094,0-1.981-0.889-1.981-1.982S96.15,77.146,97.244,77.146z M97.244,77.809c-0.715,0-1.297,0.58-1.297,1.295
		c0,0.717,0.582,1.299,1.297,1.299c0.718,0,1.3-0.582,1.3-1.299C98.544,78.389,97.962,77.809,97.244,77.809z M91.858,75.543h1.9
		l-0.951-1.609L91.858,75.543z M94.792,74.857c0,1.097-0.888,1.982-1.982,1.982c-1.094,0-1.982-0.887-1.982-1.982
		c0-1.094,0.889-1.981,1.982-1.981C93.904,72.875,94.792,73.764,94.792,74.857z M94.189,75.789l-1.382-2.336l-1.379,2.336H94.189z
		 M96.192,79.104c0,0.582,0.472,1.055,1.052,1.055c0.581,0,1.054-0.473,1.054-1.055c0-0.578-0.473-1.051-1.054-1.051
		C96.664,78.053,96.192,78.525,96.192,79.104z M94.792,83.408c0,1.095-0.888,1.982-1.982,1.982c-1.094,0-1.982-0.889-1.982-1.982
		s0.889-1.982,1.982-1.982C93.904,81.425,94.792,82.312,94.792,83.408z M93.087,83.408l0.93-0.93l-0.225-0.227l-0.931,0.93
		l-0.931-0.93l-0.226,0.227l0.931,0.93l-0.931,0.93l0.226,0.227l0.931-0.93l0.931,0.93l0.225-0.227L93.087,83.408z M104.109,99.243
		c-0.024,1.969-0.458,3.321-2.367,4.894c-3.33,2.573-7.83,0.895-8.782-0.513c-0.953-1.407-1.765-3.593-2.41-5.491
		c-0.527-1.545-1.056-3.09-1.569-4.64c-0.165-0.494-0.577-0.679-0.996-0.863c-0.052-0.021-0.151,0.026-0.21,0.07
		c-2.297,1.673-5.205,1.62-7.443-0.125c-0.113-0.089-0.285-0.15-0.43-0.15c-0.66,0-2.363,0.003-4.035,0.005v0.008
		c-0.365-0.002-1.051-0.002-1.873-0.004c-0.822,0.002-1.507,0.002-1.873,0.004V92.43c-1.672-0.002-3.374-0.005-4.035-0.005
		c-0.145,0-0.314,0.062-0.43,0.15c-2.238,1.745-5.146,1.798-7.443,0.125c-0.059-0.044-0.158-0.093-0.209-0.07
		c-0.418,0.185-0.832,0.369-0.996,0.863c-0.516,1.55-1.043,3.095-1.567,4.64c-0.647,1.898-1.459,4.086-2.412,5.491
		c-0.952,1.405-5.451,3.086-8.783,0.513c-1.908-1.57-2.341-2.925-2.367-4.894c-0.019-1.493,0.068-2.995,0.23-4.479
		c0.328-2.992,0.879-5.953,1.482-8.902c0.594-2.9,1.279-5.781,2.133-8.619c0.387-1.284,0.852-2.533,1.598-3.661
		c0.583-0.881,1.155-1.769,1.753-2.64c0.109-0.158,0.306-0.271,0.483-0.369c0.135-0.074,0.234-0.129,0.244-0.307
		c0.006-0.096,0.086-0.207,0.166-0.269c0.124-0.097,0.271-0.175,0.418-0.233c2.109-0.863,4.23-0.898,6.365-0.09
		c0.182,0.068,0.284,0.191,0.268,0.381c-0.026,0.293,0.086,0.455,0.384,0.481c0.022,0.002,0.047,0.014,0.067,0.024
		c0.502,0.26,1.043,0.35,1.603,0.352h4.741l-0.016,6.71c0,0.955,0.775,1.731,1.729,1.731H80.48c0.954,0,1.729-0.776,1.729-1.731
		v-6.71h4.707c0.561-0.002,1.1-0.092,1.604-0.352c0.02-0.012,0.043-0.022,0.066-0.024c0.297-0.026,0.41-0.188,0.385-0.481
		c-0.019-0.189,0.084-0.312,0.266-0.381c2.135-0.811,4.256-0.773,6.365,0.09c0.148,0.061,0.294,0.137,0.418,0.233
		c0.08,0.062,0.16,0.173,0.166,0.269c0.01,0.178,0.109,0.231,0.244,0.307c0.178,0.099,0.375,0.211,0.483,0.369
		c0.599,0.871,1.171,1.759,1.752,2.64c0.746,1.128,1.212,2.377,1.599,3.661c0.854,2.838,1.539,5.719,2.133,8.619
		c0.604,2.949,1.154,5.91,1.482,8.902C104.042,96.248,104.13,97.75,104.109,99.243z M62.552,75.475c0,0.672,0.543,1.217,1.215,1.217
		s1.217-0.545,1.217-1.217v-2.502c0-0.672-0.545-1.217-1.217-1.217s-1.215,0.544-1.215,1.217V75.475z M62.05,79.247
		c0-3.763-3.052-6.813-6.813-6.813c-3.762,0-6.812,3.051-6.812,6.813s3.05,6.812,6.812,6.812
		C58.998,86.059,62.05,83.008,62.05,79.247z M67.527,89.314c0-1.955-1.585-3.539-3.54-3.539c-1.954,0-3.54,1.584-3.54,3.539
		s1.586,3.539,3.54,3.539C65.942,92.854,67.527,91.27,67.527,89.314z M73.779,89.389c0.067,0,0.138,0,0.205-0.007
		c0.209-0.024,0.381-0.11,0.485-0.302c0.072-0.133,0.086-0.279,0.076-0.43c-0.023-0.314-0.279-0.553-0.594-0.553
		c-0.959,0-1.918,0-2.877,0c-0.02,0-0.039,0-0.064,0c0,0.069,0.004,0.129-0.002,0.188c-0.002,0.047,0.017,0.06,0.063,0.06
		c0.513-0.002,1.024-0.002,1.539-0.002c0.358,0,0.719,0,1.078,0c0.179,0,0.293,0.086,0.327,0.256
		c0.017,0.073,0.02,0.152,0.009,0.228c-0.027,0.208-0.142,0.303-0.353,0.303c-0.684,0-1.369,0.005-2.055-0.003
		c-0.342-0.003-0.58,0.256-0.599,0.564c-0.015,0.256-0.007,0.515-0.009,0.771c-0.002,0.033,0.01,0.046,0.045,0.046
		c0.141-0.001,0.281-0.003,0.423,0c0.04,0.002,0.049-0.016,0.049-0.051c-0.001-0.193-0.001-0.391,0-0.584
		c0-0.059,0-0.116,0.007-0.174c0.018-0.162,0.127-0.314,0.346-0.312C72.513,89.395,73.146,89.391,73.779,89.389z M77.779,88.1
		c-0.019,0-0.028,0-0.039,0c-0.553,0-1.104-0.004-1.655,0.002c-0.185,0.004-0.343,0.084-0.453,0.236
		c-0.084,0.116-0.117,0.248-0.117,0.389c-0.002,0.381,0.002,0.762-0.002,1.144c-0.002,0.224-0.109,0.386-0.377,0.381
		c-0.459-0.008-0.918-0.002-1.375-0.002c-0.013,0-0.023,0.001-0.035,0c-0.03-0.003-0.043,0.011-0.043,0.042
		c0.002,0.057,0.002,0.113,0,0.17c-0.002,0.038,0.014,0.049,0.051,0.049c0.543,0,1.086,0,1.629,0c0.143,0,0.279-0.031,0.4-0.109
		c0.188-0.125,0.264-0.309,0.266-0.523c0.004-0.369,0-0.738,0.001-1.107c0.001-0.047,0.004-0.094,0.011-0.141
		c0.018-0.139,0.105-0.24,0.229-0.27c0.041-0.012,0.084-0.014,0.127-0.014c0.438,0,0.877,0,1.316,0c0.01,0,0.023,0.004,0.032,0
		c0.015-0.01,0.033-0.021,0.033-0.033C77.781,88.244,77.779,88.176,77.779,88.1z M83.003,75.475c0,0.672,0.545,1.217,1.217,1.217
		s1.217-0.545,1.217-1.217v-2.502c0-0.672-0.545-1.217-1.217-1.217s-1.217,0.544-1.217,1.217V75.475z M87.537,89.314
		c0-1.955-1.585-3.539-3.539-3.539s-3.54,1.584-3.54,3.539s1.586,3.539,3.54,3.539S87.537,91.27,87.537,89.314z M99.56,79.247
		c0-3.763-3.051-6.813-6.812-6.813s-6.812,3.051-6.812,6.813s3.051,6.812,6.812,6.812S99.56,83.008,99.56,79.247z M90.49,79.129
		c0,1.096-0.89,1.982-1.981,1.982c-1.097,0-1.983-0.889-1.983-1.982s0.888-1.982,1.983-1.982
		C89.601,77.146,90.49,78.035,90.49,79.129z M89.587,78.027h-2.158v2.156h2.158V78.027z M60.404,77.439h-2.511
		c-0.245,0-0.514,0.104-0.713,0.271v-0.003l-1.43,1.309c-0.135,0.123-0.135,0.321,0,0.444l1.313,1.201
		c0.202,0.231,0.53,0.385,0.829,0.385h2.511c0.472,0,0.853-0.381,0.853-0.853v-1.902C61.257,77.82,60.876,77.439,60.404,77.439z
		 M89.341,78.27h-1.668v1.67h1.668V78.27z"/>
</g>
<g>
</g>
<g>
</g>
<g>
</g>
<g>
</g>
<g>
</g>
<g>
</g>
<g>
</g>
<g>
</g>
<g>
</g>
<g>
</g>
<g>
</g>
<g>
</g>
<g>
</g>
<g>
</g>
<g>
</g>
</svg>
