<svg xmlns="http://www.w3.org/2000/svg" id="e4ebe004-ac85-4249-bdf7-a9685d9ba22f" width="820" height="725.174" data-name="Layer 1" viewBox="0 0 820 725.174"><title>voice interface</title><circle cx="426.16" cy="350.304" r="350.304" fill="#f2f2f2"/><path fill="#3f3d56" d="M389.41627,685.21208c-22.56492,34.60437-16.38211,78.61668-16.38211,78.61668s42.76778-12.09246,65.3327-46.69683S454.749,638.51525,454.749,638.51525,411.9812,650.60771,389.41627,685.21208Z" transform="translate(-190 -87.41324)"/><path fill="#536dfe" d="M372.91411,763.42633s-.54932-.08764-1.56033-.29219c-.80645-.16361-1.91676-.39738-3.27253-.71878-12.1201-2.85764-44.343-12.51748-65.41-37.91479-26.36737-31.80212-25.25706-76.23279-25.25706-76.23279s40.31663,6.55095,66.88267,35.10975q1.72688,1.84079,3.3602,3.816c22.94289,27.67056,25.08172,64.90163,25.25121,74.10566C372.93162,762.67834,372.91411,763.42633,372.91411,763.42633Z" transform="translate(-190 -87.41324)"/><path fill="none" stroke="#3f3d56" stroke-miterlimit="10" stroke-width="2" d="M356.652,685.21208c22.56492,34.60437,16.38212,78.61668,16.38212,78.61668s-42.76779-12.09246-65.33271-46.69683-16.38212-78.61668-16.38212-78.61668S334.08711,650.60771,356.652,685.21208Z" transform="translate(-190 -87.41324)"/><path d="M372.90826,761.2992c-.59608.71878-1.122,1.33238-1.55448,1.83494-.95836,1.09279-1.50187,1.66551-1.50187,1.66551s-.66032-.82985-1.77066-2.38429c-6.09511-8.49692-25.70116-38.70954-24.18763-73.60892q.12273-2.74368.40323-5.42891,1.72688,1.84079,3.3602,3.816C370.59994,714.8641,372.73877,752.09517,372.90826,761.2992Z" opacity=".1" transform="translate(-190 -87.41324)"/><path fill="#536dfe" d="M406.36616,691.33024C404.58258,732.6032,373.94478,764.8,373.94478,764.8s-27.746-34.71986-25.96245-75.99282,32.42139-73.46979,32.42139-73.46979S408.14975,650.05728,406.36616,691.33024Z" transform="translate(-190 -87.41324)"/><line x1="183.945" x2="190.681" y1="676.218" y2="529.608" fill="none" stroke="#3f3d56" stroke-miterlimit="10" stroke-width="2"/><ellipse cx="410" cy="691.704" fill="#3f3d56" rx="410" ry="33.469"/><path fill="#2f2e41" d="M665.16134,377.55434c-10.22172,3.452-19.48214,11.526-21.57532,22.10989-.97029,4.90609-.37541,10.00627-1.19193,14.94028-1.89369,11.44308-10.87614,20.18223-19.16092,28.29966s-16.84038,17.54954-17.445,29.13248c-.66212,12.68359,8.53642,24.56607,6.94469,37.16679-1.84926,14.63945-17.31156,24.12557-21.13385,38.37771-2.55232,9.51678.57528,19.76824,5.72092,28.171,9.80557,16.01228,26.56626,26.883,44.41511,32.71059s36.85832,7.05363,55.6334,7.25035c22.86083.23953,47.68171-1.7231,64.8582-16.811a51.95919,51.95919,0,0,0,17.24947-33.82634c1.63176-17.4771-5.66271-35.53562-.63115-52.35212,3.16658-10.58338,11.1076-20.249,9.9225-31.2322-1.15873-10.73884-10.538-18.35073-16.97235-27.0262-6.00763-8.10007-9.65307-17.66582-13.22586-27.09651L746.3447,395.10105c-2.40313-6.34326-5.042-13.01469-10.39749-17.178-10.02593-7.794-26.14724-6.26264-37.8707-4.65515C687.20062,374.75918,675.62033,374.02219,665.16134,377.55434Z" transform="translate(-190 -87.41324)"/><path fill="#ffb9b9" d="M668.98972,471.54985s5.41908,17.612-35.22405,37.93359,4.06431,41.9979,4.06431,41.9979l47.417,10.83817s48.77176-6.77385,54.19085-14.90248,14.90248-35.224,12.19294-39.28836A63.34152,63.34152,0,0,0,744.8569,500s-32.51451-5.41908-31.15973-20.32156S668.98972,471.54985,668.98972,471.54985Z" transform="translate(-190 -87.41324)"/><path d="M668.98972,471.54985s5.41908,17.612-35.22405,37.93359,4.06431,41.9979,4.06431,41.9979l47.417,10.83817s48.77176-6.77385,54.19085-14.90248,14.90248-35.224,12.19294-39.28836A63.34152,63.34152,0,0,0,744.8569,500s-32.51451-5.41908-31.15973-20.32156S668.98972,471.54985,668.98972,471.54985Z" opacity=".1" transform="translate(-190 -87.41324)"/><circle cx="505.408" cy="368.557" r="43.353" fill="#ffb9b9"/><path fill="#536dfe" d="M690.66606,547.417s-52.21052-3.81827-53.20069-39.84273c0,0-18.60218-2.15517-24.02127,3.26391s-23.0311,9.4834-23.0311,23.03111,29.805,54.19084,29.805,54.19084,16.25725,54.19085,9.4834,63.67424-8.12863,33.86928-8.12863,33.86928,67.73856-5.41908,78.57672,0,54.19085,5.41908,56.90039,0S754.3403,612.446,754.3403,612.446s12.19294-16.25725,9.4834-35.22405l32.5145-37.93359s-12.19294-36.57882-31.15973-36.57882c0,0-25.74065-6.77385-26.418-3.38692S751.63076,540.64317,690.66606,547.417Z" transform="translate(-190 -87.41324)"/><path fill="#ffb9b9" d="M568.73666,666.63689s12.19294,18.96679,43.35267,23.0311,36.57882-6.77385,33.86928-9.48339-35.22405-14.90249-35.22405-14.90249l-18.96679-14.90248Z" transform="translate(-190 -87.41324)"/><path fill="#ffb9b9" d="M790.91912,650.37963,755.69507,670.7012s-46.06222-2.70954-28.45019,10.83817,50.12653,8.12862,50.12653,8.12862l31.15973-14.90248Z" transform="translate(-190 -87.41324)"/><path fill="#2f2e41" d="M614.79888,685.60368s-32.51451,79.93149,6.77385,92.12443,147.67005,9.4834,172.05593-6.77385,31.15973-37.93359,27.09542-44.70745-31.15973-25.74065-50.12653-27.09542S614.79888,685.60368,614.79888,685.60368Z" transform="translate(-190 -87.41324)"/><path d="M614.79888,685.60368s-32.51451,79.93149,6.77385,92.12443,147.67005,9.4834,172.05593-6.77385,31.15973-37.93359,27.09542-44.70745-31.15973-25.74065-50.12653-27.09542S614.79888,685.60368,614.79888,685.60368Z" opacity=".05" transform="translate(-190 -87.41324)"/><path fill="#2f2e41" d="M768.27664,690.56957s114.76691-41.54471,113.41214,8.58182-73.15764,63.67424-73.15764,63.67424l-21.67634,2.70954L667.635,769.59949s4.06431-21.67634-5.41909-24.38588c0,0,31.15974-8.12863,32.51451-9.4834s78.57672-28.45019,83.99581-29.805,21.67633-12.19294,33.86927-10.83817c0,0,13.54772-10.83817,28.4502-8.12863L799.04774,689.668Z" transform="translate(-190 -87.41324)"/><path d="M768.27664,690.56957s114.76691-41.54471,113.41214,8.58182-73.15764,63.67424-73.15764,63.67424l-21.67634,2.70954L667.635,769.59949s4.06431-21.67634-5.41909-24.38588c0,0,31.15974-8.12863,32.51451-9.4834s78.57672-28.45019,83.99581-29.805,21.67633-12.19294,33.86927-10.83817c0,0,13.54772-10.83817,28.4502-8.12863L799.04774,689.668Z" opacity=".1" transform="translate(-190 -87.41324)"/><polygon fill="#2f2e41" points="558 609.885 572.469 642.898 660.529 611.738 667.303 594.126 644.272 590.062 597.97 598.19 577.888 603.61 558 609.885"/><polygon points="558 609.885 572.469 642.898 660.529 611.738 667.303 594.126 644.272 590.062 597.97 598.19 577.888 603.61 558 609.885" opacity=".1"/><path fill="#2f2e41" d="M560.608,737.085s25.74065,32.51451,55.54562,40.64313,46.06221-2.70954,46.06221-2.70954L652.73247,737.085l-4.06432-24.38588-17.612-12.19294-35.22405-16.25725-41.9979-13.54771s-17.612-2.70954-17.612,0,16.25726,43.35267,16.25726,43.35267Z" transform="translate(-190 -87.41324)"/><path fill="#f2f2f2" d="M591.76777,754.697s5.41908,39.28836,12.19294,41.9979,27.09542-2.70954,32.5145-5.41909,23.83913-15.21063,23.83913-15.21063S595.83208,751.98746,591.76777,754.697Z" transform="translate(-190 -87.41324)"/><polygon fill="#ffb9b9" points="525.052 671.348 550.793 675.412 548.083 706.572 512.18 697.851 525.052 671.348"/><path fill="#f2f2f2" d="M731.17988,767.43318s-12.06363,14.35925.12931,22.48787l8.12863,6.77386s27.09542,5.41908,29.805,8.12863,13.54771-4.06432,13.54771-4.06432,1.35477-40.64313,0-43.35267-17.612-5.41909-18.96679-2.70954-17.612,6.77385-27.09543,4.06431Z" transform="translate(-190 -87.41324)"/><path fill="#2f2e41" d="M622.9275,695.08708S528.09353,639.54146,513.191,659.863s-31.15973,48.77176,12.19294,70.4481,178.82979,66.38378,178.82979,66.38378,20.32156-31.15974,20.32156-39.28836c0,0-71.80286-32.51451-83.9958-35.22405s-60.9647-33.86928-67.73856-36.57882-16.25725-10.83817-16.25725-10.83817Z" transform="translate(-190 -87.41324)"/><path fill="#536dfe" d="M595.83208,527.09546l-5.41908,4.06432s-12.19294,31.15973-13.54771,48.77176-17.612,71.80286-16.25726,78.57672,2.70954,12.19294,10.83817,18.96679c0,0,10.83817-24.38588,29.805-20.32156l23.0311-83.99581Z" transform="translate(-190 -87.41324)"/><path fill="#536dfe" d="M785.5,527.09546,796.3382,539.2884s6.77386,16.25726,6.77386,20.32157,13.54771,63.67424,14.90248,66.38378,6.77385,36.57882,0,44.70745-18.9668,13.54771-18.9668,13.54771,8.12863-28.45019-17.612-29.805l2.70954-10.83817-24.38588-81.28627Z" transform="translate(-190 -87.41324)"/><path fill="#3f3d56" d="M598.54162,620.36961v71.361A17.15651,17.15651,0,0,0,615.444,708.88519l149.23772,2.21093a17.15651,17.15651,0,0,0,17.398-16.49525l2.745-71.36924a17.15652,17.15652,0,0,0-16.89522-17.81409l-151.98269-2.20265A17.15652,17.15652,0,0,0,598.54162,620.36961Z" transform="translate(-190 -87.41324)"/><ellipse cx="507.95" cy="342.039" fill="#2f2e41" rx="46.665" ry="25.127"/><circle cx="499.989" cy="570.418" r="10.838" fill="#f2f2f2"/><path fill="#2f2e41" d="M984.98955,655.63467V779.40159c0,2.12642-1.14421,2.43-3.00378,3.4614-6.27425,3.47982-21.74,9.68029-40.30842-.13312-1.90605-1.00735-3.07953-1.34779-3.07953-3.50366V656.42769S962.1902,665.94394,984.98955,655.63467Z" transform="translate(-190 -87.41324)"/><ellipse cx="771.794" cy="568.138" fill="#3f3d56" stroke="#536dfe" stroke-miterlimit="10" rx="23.196" ry="4.926"/><g opacity=".8"><circle cx="792.877" cy="619.616" r=".52"/><circle cx="790.235" cy="620.355" r=".52"/><circle cx="786.971" cy="621.395" r=".52"/><circle cx="781.118" cy="622.656" r=".52"/><circle cx="774.948" cy="623.403" r=".52"/><circle cx="768.557" cy="623.697" r=".52"/><circle cx="759.384" cy="622.436" r=".52"/><circle cx="762.423" cy="623.177" r=".52"/><circle cx="753.707" cy="621.395" r=".52"/><circle cx="756.441" cy="621.916" r=".52"/><circle cx="750.71" cy="620.355" r=".52"/><circle cx="783.982" cy="622.136" r=".52"/><circle cx="777.944" cy="623.177" r=".52"/><circle cx="771.391" cy="623.697" r=".52"/><circle cx="765.43" cy="623.697" r=".52"/></g><g opacity=".8"><circle cx="792.877" cy="622.177" r=".52"/><circle cx="790.235" cy="622.916" r=".52"/><circle cx="786.971" cy="623.956" r=".52"/><circle cx="781.118" cy="625.217" r=".52"/><circle cx="774.948" cy="625.964" r=".52"/><circle cx="768.557" cy="626.258" r=".52"/><circle cx="759.384" cy="624.997" r=".52"/><circle cx="762.423" cy="625.738" r=".52"/><circle cx="753.707" cy="623.956" r=".52"/><circle cx="756.441" cy="624.477" r=".52"/><circle cx="750.71" cy="622.916" r=".52"/><circle cx="783.982" cy="624.697" r=".52"/><circle cx="777.944" cy="625.738" r=".52"/><circle cx="771.391" cy="626.258" r=".52"/><circle cx="765.43" cy="626.258" r=".52"/></g><g opacity=".8"><circle cx="792.877" cy="624.738" r=".52"/><circle cx="790.235" cy="625.477" r=".52"/><circle cx="786.971" cy="626.517" r=".52"/><circle cx="781.118" cy="627.778" r=".52"/><circle cx="774.948" cy="628.525" r=".52"/><circle cx="768.557" cy="628.819" r=".52"/><circle cx="759.384" cy="627.558" r=".52"/><circle cx="762.423" cy="628.299" r=".52"/><circle cx="753.707" cy="626.517" r=".52"/><circle cx="756.441" cy="627.038" r=".52"/><circle cx="750.71" cy="625.477" r=".52"/><circle cx="783.982" cy="627.258" r=".52"/><circle cx="777.944" cy="628.299" r=".52"/><circle cx="771.391" cy="628.819" r=".52"/><circle cx="765.43" cy="628.819" r=".52"/></g><g opacity=".8"><circle cx="792.877" cy="627.299" r=".52"/><circle cx="790.235" cy="628.038" r=".52"/><circle cx="786.971" cy="629.079" r=".52"/><circle cx="781.118" cy="630.339" r=".52"/><circle cx="774.948" cy="631.087" r=".52"/><circle cx="768.557" cy="631.38" r=".52"/><circle cx="759.384" cy="630.119" r=".52"/><circle cx="762.423" cy="630.86" r=".52"/><circle cx="753.707" cy="629.079" r=".52"/><circle cx="756.441" cy="629.599" r=".52"/><circle cx="750.71" cy="628.038" r=".52"/><circle cx="783.982" cy="629.819" r=".52"/><circle cx="777.944" cy="630.86" r=".52"/><circle cx="771.391" cy="631.38" r=".52"/><circle cx="765.43" cy="631.38" r=".52"/></g><g opacity=".8"><circle cx="792.877" cy="629.86" r=".52"/><circle cx="790.235" cy="630.599" r=".52"/><circle cx="786.971" cy="631.64" r=".52"/><circle cx="781.118" cy="632.9" r=".52"/><circle cx="774.948" cy="633.648" r=".52"/><circle cx="768.557" cy="633.941" r=".52"/><circle cx="759.384" cy="632.68" r=".52"/><circle cx="762.423" cy="633.421" r=".52"/><circle cx="753.707" cy="631.64" r=".52"/><circle cx="756.441" cy="632.16" r=".52"/><circle cx="750.71" cy="630.599" r=".52"/><circle cx="783.982" cy="632.38" r=".52"/><circle cx="777.944" cy="633.421" r=".52"/><circle cx="771.391" cy="633.941" r=".52"/><circle cx="765.43" cy="633.941" r=".52"/></g><g opacity=".8"><circle cx="792.877" cy="632.421" r=".52"/><circle cx="790.235" cy="633.16" r=".52"/><circle cx="786.971" cy="634.201" r=".52"/><circle cx="781.118" cy="635.461" r=".52"/><circle cx="774.948" cy="636.209" r=".52"/><circle cx="768.557" cy="636.502" r=".52"/><circle cx="759.384" cy="635.241" r=".52"/><circle cx="762.423" cy="635.982" r=".52"/><circle cx="753.707" cy="634.201" r=".52"/><circle cx="756.441" cy="634.721" r=".52"/><circle cx="750.71" cy="633.16" r=".52"/><circle cx="783.982" cy="634.941" r=".52"/><circle cx="777.944" cy="635.982" r=".52"/><circle cx="771.391" cy="636.502" r=".52"/><circle cx="765.43" cy="636.502" r=".52"/></g><g opacity=".8"><circle cx="792.877" cy="634.982" r=".52"/><circle cx="790.235" cy="635.721" r=".52"/><circle cx="786.971" cy="636.762" r=".52"/><circle cx="781.118" cy="638.022" r=".52"/><circle cx="774.948" cy="638.77" r=".52"/><circle cx="768.557" cy="639.063" r=".52"/><circle cx="759.384" cy="637.802" r=".52"/><circle cx="762.423" cy="638.543" r=".52"/><circle cx="753.707" cy="636.762" r=".52"/><circle cx="756.441" cy="637.282" r=".52"/><circle cx="750.71" cy="635.721" r=".52"/><circle cx="783.982" cy="637.502" r=".52"/><circle cx="777.944" cy="638.543" r=".52"/><circle cx="771.391" cy="639.063" r=".52"/><circle cx="765.43" cy="639.063" r=".52"/></g><g opacity=".8"><circle cx="792.877" cy="637.543" r=".52"/><circle cx="790.235" cy="638.282" r=".52"/><circle cx="786.971" cy="639.323" r=".52"/><circle cx="781.118" cy="640.583" r=".52"/><circle cx="774.948" cy="641.331" r=".52"/><circle cx="768.557" cy="641.624" r=".52"/><circle cx="759.384" cy="640.363" r=".52"/><circle cx="762.423" cy="641.104" r=".52"/><circle cx="753.707" cy="639.323" r=".52"/><circle cx="756.441" cy="639.843" r=".52"/><circle cx="750.71" cy="638.282" r=".52"/><circle cx="783.982" cy="640.063" r=".52"/><circle cx="777.944" cy="641.104" r=".52"/><circle cx="771.391" cy="641.624" r=".52"/><circle cx="765.43" cy="641.624" r=".52"/></g><g opacity=".8"><circle cx="792.877" cy="640.104" r=".52"/><circle cx="790.235" cy="640.843" r=".52"/><circle cx="786.971" cy="641.884" r=".52"/><circle cx="781.118" cy="643.144" r=".52"/><circle cx="774.948" cy="643.892" r=".52"/><circle cx="768.557" cy="644.185" r=".52"/><circle cx="759.384" cy="642.924" r=".52"/><circle cx="762.423" cy="643.665" r=".52"/><circle cx="753.707" cy="641.884" r=".52"/><circle cx="756.441" cy="642.404" r=".52"/><circle cx="750.71" cy="640.843" r=".52"/><circle cx="783.982" cy="642.624" r=".52"/><circle cx="777.944" cy="643.665" r=".52"/><circle cx="771.391" cy="644.185" r=".52"/><circle cx="765.43" cy="644.185" r=".52"/></g><g opacity=".8"><circle cx="792.877" cy="642.665" r=".52"/><circle cx="790.235" cy="643.404" r=".52"/><circle cx="786.971" cy="644.445" r=".52"/><circle cx="781.118" cy="645.706" r=".52"/><circle cx="774.948" cy="646.453" r=".52"/><circle cx="768.557" cy="646.746" r=".52"/><circle cx="759.384" cy="645.485" r=".52"/><circle cx="762.423" cy="646.226" r=".52"/><circle cx="753.707" cy="644.445" r=".52"/><circle cx="756.441" cy="644.965" r=".52"/><circle cx="750.71" cy="643.404" r=".52"/><circle cx="783.982" cy="645.185" r=".52"/><circle cx="777.944" cy="646.226" r=".52"/><circle cx="771.391" cy="646.746" r=".52"/><circle cx="765.43" cy="646.746" r=".52"/></g><g opacity=".8"><circle cx="792.877" cy="645.226" r=".52"/><circle cx="790.235" cy="645.965" r=".52"/><circle cx="786.971" cy="647.006" r=".52"/><circle cx="781.118" cy="648.267" r=".52"/><circle cx="774.948" cy="649.014" r=".52"/><circle cx="768.557" cy="649.307" r=".52"/><circle cx="759.384" cy="648.046" r=".52"/><circle cx="762.423" cy="648.787" r=".52"/><circle cx="753.707" cy="647.006" r=".52"/><circle cx="756.441" cy="647.526" r=".52"/><circle cx="750.71" cy="645.965" r=".52"/><circle cx="783.982" cy="647.746" r=".52"/><circle cx="777.944" cy="648.787" r=".52"/><circle cx="771.391" cy="649.307" r=".52"/><circle cx="765.43" cy="649.307" r=".52"/></g><g opacity=".8"><circle cx="792.877" cy="647.787" r=".52"/><circle cx="790.235" cy="648.526" r=".52"/><circle cx="786.971" cy="649.567" r=".52"/><circle cx="781.118" cy="650.828" r=".52"/><circle cx="774.948" cy="651.575" r=".52"/><circle cx="768.557" cy="651.868" r=".52"/><circle cx="759.384" cy="650.607" r=".52"/><circle cx="762.423" cy="651.348" r=".52"/><circle cx="753.707" cy="649.567" r=".52"/><circle cx="756.441" cy="650.087" r=".52"/><circle cx="750.71" cy="648.526" r=".52"/><circle cx="783.982" cy="650.307" r=".52"/><circle cx="777.944" cy="651.348" r=".52"/><circle cx="771.391" cy="651.868" r=".52"/><circle cx="765.43" cy="651.868" r=".52"/></g><g opacity=".8"><circle cx="792.877" cy="650.348" r=".52"/><circle cx="790.235" cy="651.087" r=".52"/><circle cx="786.971" cy="652.128" r=".52"/><circle cx="781.118" cy="653.389" r=".52"/><circle cx="774.948" cy="654.136" r=".52"/><circle cx="768.557" cy="654.429" r=".52"/><circle cx="759.384" cy="653.168" r=".52"/><circle cx="762.423" cy="653.909" r=".52"/><circle cx="753.707" cy="652.128" r=".52"/><circle cx="756.441" cy="652.648" r=".52"/><circle cx="750.71" cy="651.087" r=".52"/><circle cx="783.982" cy="652.868" r=".52"/><circle cx="777.944" cy="653.909" r=".52"/><circle cx="771.391" cy="654.429" r=".52"/><circle cx="765.43" cy="654.429" r=".52"/></g><g opacity=".8"><circle cx="792.877" cy="652.909" r=".52"/><circle cx="790.235" cy="653.648" r=".52"/><circle cx="786.971" cy="654.689" r=".52"/><circle cx="781.118" cy="655.95" r=".52"/><circle cx="774.948" cy="656.697" r=".52"/><circle cx="768.557" cy="656.99" r=".52"/><circle cx="759.384" cy="655.73" r=".52"/><circle cx="762.423" cy="656.47" r=".52"/><circle cx="753.707" cy="654.689" r=".52"/><circle cx="756.441" cy="655.209" r=".52"/><circle cx="750.71" cy="653.648" r=".52"/><circle cx="783.982" cy="655.429" r=".52"/><circle cx="777.944" cy="656.47" r=".52"/><circle cx="771.391" cy="656.99" r=".52"/><circle cx="765.43" cy="656.99" r=".52"/></g><g opacity=".8"><circle cx="792.877" cy="655.47" r=".52"/><circle cx="790.235" cy="656.209" r=".52"/><circle cx="786.971" cy="657.25" r=".52"/><circle cx="781.118" cy="658.511" r=".52"/><circle cx="774.948" cy="659.258" r=".52"/><circle cx="768.557" cy="659.551" r=".52"/><circle cx="759.384" cy="658.291" r=".52"/><circle cx="762.423" cy="659.031" r=".52"/><circle cx="753.707" cy="657.25" r=".52"/><circle cx="756.441" cy="657.77" r=".52"/><circle cx="750.71" cy="656.209" r=".52"/><circle cx="783.982" cy="657.99" r=".52"/><circle cx="777.944" cy="659.031" r=".52"/><circle cx="771.391" cy="659.551" r=".52"/><circle cx="765.43" cy="659.551" r=".52"/></g><g opacity=".8"><circle cx="792.877" cy="658.031" r=".52"/><circle cx="790.235" cy="658.77" r=".52"/><circle cx="786.971" cy="659.811" r=".52"/><circle cx="781.118" cy="661.072" r=".52"/><circle cx="774.948" cy="661.819" r=".52"/><circle cx="768.557" cy="662.112" r=".52"/><circle cx="759.384" cy="660.852" r=".52"/><circle cx="762.423" cy="661.592" r=".52"/><circle cx="753.707" cy="659.811" r=".52"/><circle cx="756.441" cy="660.331" r=".52"/><circle cx="750.71" cy="658.77" r=".52"/><circle cx="783.982" cy="660.551" r=".52"/><circle cx="777.944" cy="661.592" r=".52"/><circle cx="771.391" cy="662.112" r=".52"/><circle cx="765.43" cy="662.112" r=".52"/></g><g opacity=".8"><circle cx="792.877" cy="660.592" r=".52"/><circle cx="790.235" cy="661.331" r=".52"/><circle cx="786.971" cy="662.372" r=".52"/><circle cx="781.118" cy="663.633" r=".52"/><circle cx="774.948" cy="664.38" r=".52"/><circle cx="768.557" cy="664.673" r=".52"/><circle cx="759.384" cy="663.413" r=".52"/><circle cx="762.423" cy="664.153" r=".52"/><circle cx="753.707" cy="662.372" r=".52"/><circle cx="756.441" cy="662.892" r=".52"/><circle cx="750.71" cy="661.331" r=".52"/><circle cx="783.982" cy="663.112" r=".52"/><circle cx="777.944" cy="664.153" r=".52"/><circle cx="771.391" cy="664.673" r=".52"/><circle cx="765.43" cy="664.673" r=".52"/></g><g opacity=".8"><circle cx="792.877" cy="663.153" r=".52"/><circle cx="790.235" cy="663.892" r=".52"/><circle cx="786.971" cy="664.933" r=".52"/><circle cx="781.118" cy="666.194" r=".52"/><circle cx="774.948" cy="666.941" r=".52"/><circle cx="768.557" cy="667.234" r=".52"/><circle cx="759.384" cy="665.974" r=".52"/><circle cx="762.423" cy="666.714" r=".52"/><circle cx="753.707" cy="664.933" r=".52"/><circle cx="756.441" cy="665.453" r=".52"/><circle cx="750.71" cy="663.892" r=".52"/><circle cx="783.982" cy="665.673" r=".52"/><circle cx="777.944" cy="666.714" r=".52"/><circle cx="771.391" cy="667.234" r=".52"/><circle cx="765.43" cy="667.234" r=".52"/></g><g opacity=".8"><circle cx="792.877" cy="665.714" r=".52"/><circle cx="790.235" cy="666.453" r=".52"/><circle cx="786.971" cy="667.494" r=".52"/><circle cx="781.118" cy="668.755" r=".52"/><circle cx="774.948" cy="669.502" r=".52"/><circle cx="768.557" cy="669.796" r=".52"/><circle cx="759.384" cy="668.535" r=".52"/><circle cx="762.423" cy="669.275" r=".52"/><circle cx="753.707" cy="667.494" r=".52"/><circle cx="756.441" cy="668.014" r=".52"/><circle cx="750.71" cy="666.453" r=".52"/><circle cx="783.982" cy="668.234" r=".52"/><circle cx="777.944" cy="669.275" r=".52"/><circle cx="771.391" cy="669.796" r=".52"/><circle cx="765.43" cy="669.796" r=".52"/></g><g opacity=".8"><circle cx="792.877" cy="668.275" r=".52"/><circle cx="790.235" cy="669.014" r=".52"/><circle cx="786.971" cy="670.055" r=".52"/><circle cx="781.118" cy="671.316" r=".52"/><circle cx="774.948" cy="672.063" r=".52"/><circle cx="768.557" cy="672.357" r=".52"/><circle cx="759.384" cy="671.096" r=".52"/><circle cx="762.423" cy="671.836" r=".52"/><circle cx="753.707" cy="670.055" r=".52"/><circle cx="756.441" cy="670.575" r=".52"/><circle cx="750.71" cy="669.014" r=".52"/><circle cx="783.982" cy="670.795" r=".52"/><circle cx="777.944" cy="671.836" r=".52"/><circle cx="771.391" cy="672.357" r=".52"/><circle cx="765.43" cy="672.357" r=".52"/></g><g opacity=".8"><circle cx="792.877" cy="670.836" r=".52"/><circle cx="790.235" cy="671.575" r=".52"/><circle cx="786.971" cy="672.616" r=".52"/><circle cx="781.118" cy="673.877" r=".52"/><circle cx="774.948" cy="674.624" r=".52"/><circle cx="768.557" cy="674.918" r=".52"/><circle cx="759.384" cy="673.657" r=".52"/><circle cx="762.423" cy="674.397" r=".52"/><circle cx="753.707" cy="672.616" r=".52"/><circle cx="756.441" cy="673.136" r=".52"/><circle cx="750.71" cy="671.575" r=".52"/><circle cx="783.982" cy="673.356" r=".52"/><circle cx="777.944" cy="674.397" r=".52"/><circle cx="771.391" cy="674.918" r=".52"/><circle cx="765.43" cy="674.918" r=".52"/></g><g opacity=".8"><circle cx="792.877" cy="673.397" r=".52"/><circle cx="790.235" cy="674.136" r=".52"/><circle cx="786.971" cy="675.177" r=".52"/><circle cx="781.118" cy="676.438" r=".52"/><circle cx="774.948" cy="677.185" r=".52"/><circle cx="768.557" cy="677.479" r=".52"/><circle cx="759.384" cy="676.218" r=".52"/><circle cx="762.423" cy="676.958" r=".52"/><circle cx="753.707" cy="675.177" r=".52"/><circle cx="756.441" cy="675.697" r=".52"/><circle cx="750.71" cy="674.136" r=".52"/><circle cx="783.982" cy="675.917" r=".52"/><circle cx="777.944" cy="676.958" r=".52"/><circle cx="771.391" cy="677.479" r=".52"/><circle cx="765.43" cy="677.479" r=".52"/></g><g opacity=".8"><circle cx="792.877" cy="675.958" r=".52"/><circle cx="790.235" cy="676.697" r=".52"/><circle cx="786.971" cy="677.738" r=".52"/><circle cx="781.118" cy="678.999" r=".52"/><circle cx="774.948" cy="679.746" r=".52"/><circle cx="768.557" cy="680.04" r=".52"/><circle cx="759.384" cy="678.779" r=".52"/><circle cx="762.423" cy="679.519" r=".52"/><circle cx="753.707" cy="677.738" r=".52"/><circle cx="756.441" cy="678.258" r=".52"/><circle cx="750.71" cy="676.697" r=".52"/><circle cx="783.982" cy="678.478" r=".52"/><circle cx="777.944" cy="679.519" r=".52"/><circle cx="771.391" cy="680.04" r=".52"/><circle cx="765.43" cy="680.04" r=".52"/></g><g opacity=".8"><circle cx="792.877" cy="678.519" r=".52"/><circle cx="790.235" cy="679.258" r=".52"/><circle cx="786.971" cy="680.299" r=".52"/><circle cx="781.118" cy="681.56" r=".52"/><circle cx="774.948" cy="682.307" r=".52"/><circle cx="768.557" cy="682.601" r=".52"/><circle cx="759.384" cy="681.34" r=".52"/><circle cx="762.423" cy="682.08" r=".52"/><circle cx="753.707" cy="680.299" r=".52"/><circle cx="756.441" cy="680.819" r=".52"/><circle cx="750.71" cy="679.258" r=".52"/><circle cx="783.982" cy="681.039" r=".52"/><circle cx="777.944" cy="682.08" r=".52"/><circle cx="771.391" cy="682.601" r=".52"/><circle cx="765.43" cy="682.601" r=".52"/></g></svg>