<svg xmlns="http://www.w3.org/2000/svg" id="a76d04cf-4eac-47e3-b05a-1f8f938c71e5" width="856" height="495.158" data-name="Layer 1" viewBox="0 0 856 495.158"><rect width="856" height="2" y="339.21" fill="#3f3d56"/><path fill="#2f2e41" d="M790.98251,682.84065H220.29076a19.1356,19.1356,0,0,1-19.1356-19.1356v0q310.31347-36.06437,608.963,0v0A19.1356,19.1356,0,0,1,790.98251,682.84065Z" transform="translate(-172 -202.42116)"/><path fill="#3f3d56" d="M810.11811,664.83065,201.15516,663.705l70.57668-118.7534.33768-.56282v-261.719a24.18764,24.18764,0,0,1,24.18966-24.18966h415.378a24.18764,24.18764,0,0,1,24.18966,24.18966v263.52Z" transform="translate(-172 -202.42116)"/><path fill="#fff" d="M295.70764,275.36452a7.88822,7.88822,0,0,0-7.87938,7.87937V521.87632a7.88858,7.88858,0,0,0,7.87938,7.87937h419.858a7.88892,7.88892,0,0,0,7.87937-7.87937V283.24389a7.88857,7.88857,0,0,0-7.87937-7.87937Z" transform="translate(-172 -202.42116)"/><path fill="#2f2e41" d="M297.467,561.27318a3.38619,3.38619,0,0,0-3.068,1.96545l-21.74687,47.27624a3.37672,3.37672,0,0,0,3.06743,4.7883H733.0447a3.37649,3.37649,0,0,0,3.01962-4.88723L712.4262,563.1397a3.35975,3.35975,0,0,0-3.01962-1.86652Z" transform="translate(-172 -202.42116)"/><circle cx="331.948" cy="63.938" r="5.065" fill="#fff"/><path fill="#2f2e41" d="M458.99686,624.30817a3.382,3.382,0,0,0-3.26035,2.49858l-5.455,20.26124a3.37655,3.37655,0,0,0,3.26035,4.25517H557.28346a3.3761,3.3761,0,0,0,3.19-4.48161L553.4603,626.5803a3.37866,3.37866,0,0,0-3.19111-2.27213Z" transform="translate(-172 -202.42116)"/><polygon fill="#2f2e41" points="563.827 338.028 563.827 342.53 99.732 342.53 100.081 341.968 100.081 338.028 563.827 338.028"/><path fill="#e6e6e6" d="M347.2859,324.91224a6.20636,6.20636,0,0,0-6.11,6.28545V473.66794a6.20636,6.20636,0,0,0,6.11,6.28545H663.98737a6.20637,6.20637,0,0,0,6.11-6.28545V331.19769a6.20637,6.20637,0,0,0-6.11-6.28545Z" transform="translate(-172 -202.42116)"/><path fill="#6c63ff" d="M529.22387,480.208h115.2864a3.71131,3.71131,0,0,0,2.62439-6.33524l-73.78487-73.78487a3.71534,3.71534,0,0,0-5.24829,0l-18.34838,18.34839a7.783,7.783,0,0,1-11.00824,0l-57.46966-57.46967a3.71594,3.71594,0,0,0-5.24879,0l-112.397,112.397a3.71131,3.71131,0,0,0,2.62439,6.33525H529.37155Z" transform="translate(-172 -202.42116)"/><circle cx="220.093" cy="156.096" r="14.257" fill="#6c63ff"/><path fill="#3f3d56" d="M354.88666,376.48591a1.01839,1.01839,0,0,1-1.01834-1.01833V307.23929a1.0184,1.0184,0,0,1,1.01834-1.01834h78.41161a1.01834,1.01834,0,1,1,0,2.03667H355.905v67.21A1.01838,1.01838,0,0,1,354.88666,376.48591Z" transform="translate(-172 -202.42116)"/><path fill="#3f3d56" d="M656.31313,377.50424a1.01806,1.01806,0,0,1-1.01833-1.01833v-67.21H577.90151a1.01833,1.01833,0,1,1,0-2.03666h78.41162a1.01806,1.01806,0,0,1,1.01833,1.01833v68.22829A1.01806,1.01806,0,0,1,656.31313,377.50424Z" transform="translate(-172 -202.42116)"/><path fill="#3f3d56" d="M433.29827,497.6675H354.88666a1.01807,1.01807,0,0,1-1.01834-1.01833V428.42088a1.01834,1.01834,0,1,1,2.03667,0v67.20995h77.39328a1.01834,1.01834,0,1,1,0,2.03667Z" transform="translate(-172 -202.42116)"/><path fill="#3f3d56" d="M656.31313,498.68583H577.90151a1.01833,1.01833,0,1,1,0-2.03666H655.2948v-67.21a1.01833,1.01833,0,0,1,2.03666,0V497.6675A1.01774,1.01774,0,0,1,656.31313,498.68583Z" transform="translate(-172 -202.42116)"/><path fill="#ffb8b8" d="M985.59269,483.37923h0a11.48805,11.48805,0,0,0,12.60354-11.43377V447.46655l-16.00961-1.92115-6.539,23.29533A11.48806,11.48806,0,0,0,985.59269,483.37923Z" transform="translate(-172 -202.42116)"/><path fill="#ffb8b8" d="M847.12522,494.76151h0a11.48807,11.48807,0,0,0,10.13706-13.66823l-4.76453-24.01075-16.07735,1.23166-1.87983,24.12256A11.48806,11.48806,0,0,0,847.12522,494.76151Z" transform="translate(-172 -202.42116)"/><path fill="#2f2e41" d="M892.53285,676.08375l18.70945.79974c-4.00176-75.62-2.75489-139.58654,8.18669-182.0285,13.61706,48.45584,18.29985,112.04412,18.65979,182.95425l20.40365-1.72549c8.721-83.96891,13.14375-161.60319,3.84231-219.01143-29.1846-16.95559-61.50247-17.0073-97.33841,1.92115C864.19258,523.3048,875.22225,597.16115,892.53285,676.08375Z" transform="translate(-172 -202.42116)"/><path fill="#2f2e41" d="M895.949,672.19252l-7.9385,2.64617s-16.75906-4.41028-12.34878,7.05644,16.75905,9.70261,16.75905,9.70261,14.995,11.46672,21.16933,2.64617l-3.52822-18.52317Z" transform="translate(-172 -202.42116)"/><path fill="#2f2e41" d="M951.87439,672.19252l7.9385,2.64617s16.75905-4.41028,12.34877,7.05644-16.75905,9.70261-16.75905,9.70261-14.99494,11.46672-21.16933,2.64617l3.52822-18.52317Z" transform="translate(-172 -202.42116)"/><circle cx="716.05" cy="33.078" r="26.256" fill="#ffb8b8"/><path fill="#ffb8b8" d="M884.84824,288.01086l39.70383-10.88653c-10.046-12.31618-13.68751-26.24162-11.52692-41.625H884.84824Z" transform="translate(-172 -202.42116)"/><path fill="#6c63ff" d="M862.43479,464.75693c35.47578-13.08012,70.22316-15.51513,103.74226,0-9.68933-63.72639-12.759-121.22835-2.39542-161.22037a16.85692,16.85692,0,0,0-9.46516-19.69L918.78861,268.159,884.84824,273.282l-28.65132,20.79531A16.80513,16.80513,0,0,0,850.44,313.87639C865.53684,351.90642,868.30476,403.55942,862.43479,464.75693Z" transform="translate(-172 -202.42116)"/><path fill="#6c63ff" d="M981.54627,447.46655l18.57114,1.92116-18.9337-133.61786a39.42944,39.42944,0,0,0-27.12213-32.05344l-2.61337-.82862,3.8423,71.723Z" transform="translate(-172 -202.42116)"/><path fill="#6c63ff" d="M853.62546,460.15964,835.5936,465.0001l-2.48452-134.92978a39.42941,39.42941,0,0,1,21.6987-35.94717l2.449-1.23238,7.5746,71.42537Z" transform="translate(-172 -202.42116)"/><path fill="#2f2e41" d="M913.90039,255.35331s21.52733-26.09706,1.51061-45.17682c-13.88646-13.23646-33.58037-6.63928-44.34071-1.35692a19.86526,19.86526,0,0,0-11.09272,14.79467c-.71674,4.94.46637,9.373,8.06573,7.3448,15.19874-4.05637,10.64164,9.37086,10.64164,9.37086s10.80855-.17112,10.64164,9.37087S913.90039,255.35331,913.90039,255.35331Z" transform="translate(-172 -202.42116)"/></svg>