<?xml version="1.0" standalone="no"?>
<!DOCTYPE svg PUBLIC "-//W3C//DTD SVG 20010904//EN"
 "http://www.w3.org/TR/2001/REC-SVG-20010904/DTD/svg10.dtd">
<svg version="1.0" xmlns="http://www.w3.org/2000/svg"
 width="906.000000pt" height="1280.000000pt" viewBox="0 0 906.000000 1280.000000"
 preserveAspectRatio="xMidYMid meet">
<metadata>
Created by potrace 1.15, written by Peter Selinger 2001-2017
</metadata>
<g transform="translate(0.000000,1280.000000) scale(0.100000,-0.100000)"
fill="#000000" stroke="none">
<path d="M5011 12518 c-161 -156 -300 -287 -308 -292 -11 -6 -49 15 -137 74
-479 323 -657 442 -661 438 -9 -8 -233 -513 -230 -517 3 -3 200 -38 379 -68
31 -5 35 -8 21 -15 -9 -6 -30 -8 -46 -6 -27 4 -38 -4 -106 -81 l-77 -86 -86 3
c-231 10 -603 -111 -626 -204 -5 -19 -14 -24 -62 -29 -236 -24 -456 -93 -533
-169 -24 -24 -29 -35 -24 -55 4 -15 9 -51 12 -82 l5 -56 -129 -12 c-199 -20
-305 -38 -391 -70 -91 -33 -282 -121 -282 -130 0 -3 4 -21 10 -39 l9 -34 -77
9 c-42 4 -126 8 -187 8 -129 0 -183 -14 -400 -106 l-140 -59 -42 -67 c-24 -37
-43 -73 -43 -81 0 -18 -42 -14 -270 24 l-155 26 -215 -75 c-118 -41 -208 -78
-200 -81 8 -3 96 -20 195 -37 234 -42 435 -46 560 -12 78 21 386 137 445 168
43 22 67 52 75 91 l6 34 128 0 c219 0 350 33 624 154 141 63 142 64 139 95 -2
35 -13 31 143 56 140 23 327 69 410 99 66 24 68 25 40 4 -51 -37 -114 -107
-121 -132 -4 -18 2 -35 20 -59 16 -21 27 -50 29 -72 l2 -39 -160 -56 c-200
-71 -259 -101 -382 -195 -157 -119 -155 -118 -147 -148 3 -15 10 -30 15 -33
18 -11 8 -24 -18 -24 -56 0 -230 -31 -290 -51 -69 -23 -166 -83 -313 -194 -95
-72 -96 -74 -114 -136 -10 -35 -22 -75 -25 -89 -9 -31 -30 -36 -250 -49 l-173
-10 -184 -122 c-102 -67 -183 -123 -182 -124 2 -1 77 2 168 7 282 14 463 50
583 116 90 49 330 217 384 268 38 36 43 45 43 86 l0 46 78 17 c164 36 310 98
439 185 59 40 238 177 278 212 6 5 3 19 -7 36 l-16 27 86 34 c48 19 155 69
239 111 165 83 161 85 92 -25 -37 -59 -75 -158 -125 -325 -15 -47 -33 -89 -41
-95 -110 -72 -207 -172 -316 -326 l-46 -65 31 -31 30 -31 -48 -17 c-258 -95
-303 -129 -498 -378 l-69 -89 6 -88 6 -88 -47 -20 c-26 -10 -114 -39 -196 -63
l-149 -44 -143 -159 c-79 -88 -142 -161 -141 -162 7 -7 379 112 456 145 172
76 229 122 392 317 145 174 164 204 155 247 -3 18 -7 39 -8 48 -2 12 24 31 87
64 171 90 301 200 412 348 l51 68 6 -78 c27 -346 141 -600 381 -838 154 -154
333 -273 549 -365 105 -44 286 -104 349 -116 20 -3 40 -10 42 -15 3 -4 -25
-41 -62 -81 -226 -241 -358 -443 -356 -547 0 -25 2 -52 4 -60 3 -8 -42 -37
-126 -82 -437 -231 -902 -382 -1375 -446 -192 -26 -702 -26 -875 0 -180 27
-373 71 -538 124 -137 43 -148 49 -143 68 4 17 -13 40 -83 108 -126 124 -213
156 -256 94 -22 -32 -19 -53 20 -128 60 -117 47 -175 -69 -297 l-69 -73 28
-29 c39 -41 96 -42 151 -1 52 38 139 131 198 211 54 74 62 82 53 58 -7 -19 2
-23 143 -68 837 -272 1791 -184 2689 246 85 41 189 94 231 118 72 42 80 44
126 38 l49 -7 14 -65 c16 -81 17 -398 1 -595 -35 -434 -121 -877 -245 -1270
-89 -282 -108 -321 -273 -568 -524 -783 -856 -1338 -922 -1538 -17 -54 -49
-101 -196 -289 -96 -124 -182 -237 -191 -252 -10 -15 -29 -29 -47 -33 l-31 -6
29 -16 c96 -51 866 -155 1765 -237 205 -19 375 -37 378 -40 3 -3 -2 -67 -11
-142 -101 -834 -180 -1714 -220 -2427 -7 -130 -15 -239 -17 -241 -2 -2 -60 7
-129 20 -207 38 -391 57 -519 52 -100 -4 -125 -8 -177 -32 -69 -31 -110 -69
-148 -135 l-25 -45 20 -28 c51 -71 192 -115 394 -125 188 -8 465 19 573 58 43
15 102 92 102 132 0 17 -6 38 -14 46 -12 14 -12 52 0 256 35 633 98 1372 174
2050 52 465 63 550 69 556 3 3 112 -2 241 -12 129 -9 378 -25 553 -35 202 -12
317 -22 317 -29 0 -5 -18 -100 -40 -210 -147 -728 -268 -1558 -315 -2155 -19
-252 -29 -329 -49 -400 l-16 -55 27 -22 c92 -75 312 -68 609 17 116 34 260 90
322 126 43 25 74 71 86 131 6 26 2 37 -23 65 l-30 33 -178 -1 c-274 -2 -511
-39 -635 -98 l-68 -32 0 24 c0 111 65 720 115 1087 57 410 184 1140 253 1455
l8 35 74 2 c521 14 1430 102 1865 179 603 107 919 235 966 393 11 36 10 43
-16 86 -36 62 -140 199 -420 550 -355 444 -583 745 -791 1040 -121 172 -337
499 -337 510 1 5 17 57 37 114 153 439 188 933 92 1302 -118 453 -431 801
-910 1010 -49 21 -93 39 -97 39 -4 0 -11 -9 -14 -21 -9 -28 -17 -17 -36 50
-10 40 -13 66 -6 82 5 13 11 74 14 134 8 169 -21 339 -82 470 l-32 71 62 41
c169 112 398 321 524 478 143 178 263 390 326 573 58 170 70 247 70 434 0 191
-14 182 110 69 180 -164 310 -236 523 -291 41 -11 42 -12 42 -53 0 -28 8 -53
23 -74 24 -34 239 -214 322 -269 115 -77 277 -118 500 -129 72 -3 141 -8 153
-11 13 -3 21 -1 18 4 -2 4 -74 61 -159 125 l-155 118 -149 10 c-210 15 -216
17 -220 59 -9 89 -33 142 -85 189 -109 99 -226 186 -283 212 -54 24 -214 59
-272 59 -27 0 -27 0 -8 36 8 16 15 34 15 40 0 15 -180 175 -247 220 -31 21
-86 50 -121 65 l-66 27 -72 140 c-59 115 -89 160 -163 244 -77 88 -171 177
-271 256 l-24 19 54 -4 c72 -6 80 -9 80 -30 1 -42 55 -118 107 -149 57 -34
201 -83 333 -113 73 -17 315 -61 334 -61 3 0 5 -14 4 -32 l-3 -32 149 -67
c263 -118 392 -150 608 -152 l137 -2 10 -42 c14 -54 37 -70 192 -132 315 -125
416 -148 605 -138 122 7 490 66 477 77 -4 4 -100 39 -214 79 l-205 72 -174
-30 c-234 -41 -242 -41 -263 8 -31 70 -74 119 -124 141 -143 64 -302 122 -379
137 -75 14 -102 15 -212 5 -174 -16 -162 -18 -151 20 5 18 9 36 9 39 0 10
-265 124 -340 147 -36 11 -108 25 -160 31 -181 21 -275 31 -287 31 -17 0 -17
90 -1 125 10 22 8 30 -9 53 -60 81 -301 165 -515 179 -74 5 -88 9 -88 23 0 22
-43 65 -95 95 -96 55 -378 125 -506 125 -46 0 -56 5 -140 70 -85 65 -89 70
-67 78 167 63 704 265 706 267 4 4 -492 348 -509 352 -10 3 -119 -96 -308
-279z m-512 -444 c2 -2 -10 -4 -27 -4 -18 0 -32 5 -32 10 0 9 47 4 59 -6z
m-1304 -515 c-2 -30 -6 -33 -85 -59 -45 -16 -109 -41 -141 -57 -32 -16 -59
-28 -59 -26 0 2 9 16 21 32 11 15 26 45 34 67 l13 39 96 11 c53 6 99 14 103
18 14 14 21 4 18 -25z m-75 -243 c0 -3 -4 -8 -10 -11 -5 -3 -10 -1 -10 4 0 6
5 11 10 11 6 0 10 -2 10 -4z m3430 -513 c0 -5 -5 -15 -10 -23 -8 -12 -10 -11
-10 8 0 12 5 22 10 22 6 0 10 -3 10 -7z m-749 -2653 c421 -181 709 -484 839
-880 58 -178 74 -292 74 -530 0 -284 -34 -500 -123 -778 l-37 -117 -63 105
c-78 130 -240 460 -315 642 -156 378 -278 764 -417 1323 -33 132 -62 248 -65
258 -7 24 4 22 107 -23z m-5507 -260 c52 -33 146 -123 146 -139 0 -22 -157
-217 -208 -258 -74 -61 -95 -56 -37 9 105 117 122 214 60 333 -48 92 -39 104
39 55z"/>
</g>
</svg>
