<?xml version="1.0" standalone="no"?>
<!DOCTYPE svg PUBLIC "-//W3C//DTD SVG 20010904//EN"
 "http://www.w3.org/TR/2001/REC-SVG-20010904/DTD/svg10.dtd">
<svg version="1.0" xmlns="http://www.w3.org/2000/svg"
 width="640.000000pt" height="1280.000000pt" viewBox="0 0 640.000000 1280.000000"
 preserveAspectRatio="xMidYMid meet">
<metadata>
Created by potrace 1.15, written by Peter Selinger 2001-2017
</metadata>
<g transform="translate(0.000000,1280.000000) scale(0.100000,-0.100000)"
fill="#000000" stroke="none">
<path d="M2885 12790 c-345 -69 -604 -445 -690 -1000 -25 -160 -30 -475 -11
-652 47 -441 185 -847 394 -1159 167 -248 384 -417 598 -465 41 -9 74 -21 74
-28 0 -39 -69 -238 -80 -231 -4 2 -47 -9 -96 -26 -130 -44 -469 -146 -789
-238 -479 -137 -685 -203 -858 -275 -234 -97 -386 -197 -475 -314 -24 -31 -25
-36 -18 -135 11 -166 40 -271 111 -404 55 -103 111 -176 212 -274 159 -156
304 -248 725 -465 167 -86 312 -163 322 -172 48 -42 69 -138 42 -190 -13 -26
-8 -39 88 -257 184 -415 220 -476 265 -448 18 11 26 50 40 218 12 135 25 183
71 276 18 35 38 79 45 98 10 29 13 -14 18 -269 9 -396 30 -686 73 -982 7 -47
6 -48 -21 -48 l-28 0 7 -127 c59 -1145 59 -2146 0 -2803 -46 -519 -140 -879
-251 -968 -76 -60 -95 -82 -90 -102 9 -36 -66 -81 -241 -145 -127 -46 -154
-66 -150 -108 3 -27 16 -40 92 -93 49 -35 130 -100 179 -145 l89 -82 -89 -32
c-50 -17 -103 -39 -118 -49 -50 -33 -11 -39 202 -34 106 3 193 3 193 1 0 -3
-10 -14 -22 -25 l-23 -19 40 6 c128 22 234 44 185 40 -30 -3 -73 -8 -95 -11
-35 -5 -37 -4 -20 7 11 7 37 31 57 53 31 35 34 42 20 47 -9 4 32 12 92 20 60
7 103 15 96 17 -7 3 -79 -3 -159 -13 -102 -13 -154 -24 -173 -37 -14 -10 -29
-18 -34 -18 -18 0 73 56 94 57 36 3 246 45 252 50 5 5 -19 3 -110 -12 l-35 -6
39 15 c35 13 50 26 58 48 2 4 55 21 118 38 63 17 97 28 75 25 -22 -3 -103 -22
-180 -41 -129 -33 -144 -39 -185 -77 -44 -41 -44 -41 5 11 63 67 115 94 257
132 142 39 166 63 111 114 -26 24 -175 94 -388 181 -49 20 -93 42 -97 48 -4 6
10 25 31 44 241 206 354 1048 338 2498 -6 498 -19 941 -32 1135 l-6 85 35 -41
c36 -42 92 -65 146 -61 23 2 26 -5 52 -93 105 -361 157 -739 165 -1190 11
-656 -69 -1183 -306 -2023 -88 -312 -92 -333 -57 -374 31 -37 87 -58 199 -74
55 -8 104 -23 149 -45 174 -87 362 -145 498 -151 176 -9 272 24 395 136 43 39
81 71 85 71 4 0 19 15 33 34 l26 34 -152 -1 c-216 -2 -430 44 -737 158 l-150
56 -37 -30 c-45 -35 -112 -67 -167 -77 -34 -6 -38 -5 -32 12 64 209 178 638
225 849 151 686 191 1361 116 1960 -33 261 -90 535 -155 747 l-31 98 21 39
c26 52 56 165 71 271 16 109 16 602 0 850 -6 102 -30 424 -51 715 -90 1193
-101 1651 -49 2017 11 76 12 77 38 72 14 -2 132 -20 261 -40 544 -81 851 -145
1062 -220 157 -56 368 -182 368 -220 0 -24 -85 -193 -155 -309 -156 -258 -331
-473 -614 -755 -192 -191 -492 -453 -564 -492 -18 -10 -79 -40 -137 -66 -78
-36 -115 -60 -144 -92 -38 -42 -38 -44 -34 -109 4 -52 14 -84 47 -149 51 -101
69 -176 77 -312 7 -125 18 -176 41 -184 45 -18 85 52 268 467 91 205 93 210
79 243 -25 60 -11 120 43 191 20 27 42 58 48 70 7 12 52 57 101 100 315 274
615 607 809 898 109 164 168 269 235 420 l49 110 -42 43 c-152 156 -410 273
-791 358 -167 37 -561 105 -844 145 l-163 24 7 30 c4 16 24 84 44 150 21 66
41 134 45 151 5 26 15 34 60 53 313 130 526 502 597 1041 18 139 15 498 -6
650 -96 710 -413 1286 -819 1490 -144 72 -277 95 -402 70z m283 -183 c195 -85
380 -276 523 -541 23 -43 38 -77 33 -74 -75 36 -95 41 -155 41 -201 0 -314
-209 -240 -442 89 -283 404 -346 530 -106 12 22 21 47 22 55 1 30 18 -31 39
-137 65 -331 67 -700 5 -998 -60 -290 -190 -531 -350 -652 -96 -72 -130 -83
-269 -86 -114 -2 -125 0 -185 26 -193 86 -375 277 -520 547 -122 229 -219 559
-262 890 -17 137 -15 450 5 596 62 464 240 780 502 890 52 22 70 24 159 21 81
-3 112 -8 163 -30z m475 -724 c37 -19 84 -86 102 -146 43 -146 -12 -267 -122
-267 -51 0 -97 30 -133 87 -38 59 -50 102 -50 176 0 141 89 208 203 150z
m-513 -2773 c0 -5 -13 -58 -29 -117 -127 -466 -226 -1386 -232 -2133 0 -93 -3
-126 -9 -106 -20 67 -89 114 -284 195 -54 23 -135 63 -179 90 -45 27 -212 116
-372 198 -417 215 -557 306 -711 465 -162 166 -238 329 -260 556 l-7 73 44 46
c153 157 426 270 1174 483 298 85 718 211 795 239 65 23 70 24 70 11z m25
-1835 c14 -187 36 -488 50 -670 40 -540 51 -874 36 -1071 -16 -222 -18 -233
-47 -246 -13 -6 -26 -9 -29 -6 -10 9 -44 222 -59 363 -35 329 -41 472 -40
1040 0 541 13 872 41 1110 7 58 8 55 15 -60 5 -66 20 -273 33 -460z m-198
-6401 c-3 -3 -12 -4 -19 -1 -8 3 -5 6 6 6 11 1 17 -2 13 -5z m-294 -151 c-7
-2 -19 -2 -25 0 -7 3 -2 5 12 5 14 0 19 -2 13 -5z"/>
<path d="M2752 11809 c-57 -28 -117 -99 -138 -161 -36 -111 -9 -274 64 -378
128 -184 374 -179 472 10 52 101 41 264 -25 383 -31 55 -97 121 -145 144 -55
27 -175 28 -228 2z m178 -124 c66 -34 120 -145 120 -248 0 -109 -48 -169 -135
-169 -62 0 -110 37 -150 117 -58 115 -42 259 33 299 35 20 95 20 132 1z"/>
<path d="M3385 10393 c-69 -15 -182 -60 -248 -97 -83 -47 -201 -132 -232 -166
-19 -20 -18 -21 7 -47 l26 -26 85 67 c198 155 424 231 540 182 38 -15 84 -66
93 -102 7 -27 9 -28 53 -13 26 9 30 15 25 33 -20 67 -97 145 -163 164 -37 12
-145 14 -186 5z"/>
<path d="M3288 963 c7 -3 16 -2 19 1 4 3 -2 6 -13 5 -11 0 -14 -3 -6 -6z"/>
<path d="M3233 953 c9 -2 23 -2 30 0 6 3 -1 5 -18 5 -16 0 -22 -2 -12 -5z"/>
<path d="M3208 873 c7 -3 16 -2 19 1 4 3 -2 6 -13 5 -11 0 -14 -3 -6 -6z"/>
<path d="M3148 863 c6 -2 18 -2 25 0 6 3 1 5 -13 5 -14 0 -19 -2 -12 -5z"/>
<path d="M3065 850 c-27 -7 -27 -8 -5 -8 14 0 36 4 50 8 20 6 21 8 5 8 -11 0
-33 -4 -50 -8z"/>
<path d="M3083 803 c9 -2 25 -2 35 0 9 3 1 5 -18 5 -19 0 -27 -2 -17 -5z"/>
<path d="M3098 693 c7 -3 16 -2 19 1 4 3 -2 6 -13 5 -11 0 -14 -3 -6 -6z"/>
<path d="M3028 683 c6 -2 18 -2 25 0 6 3 1 5 -13 5 -14 0 -19 -2 -12 -5z"/>
<path d="M2968 673 c6 -2 18 -2 25 0 6 3 1 5 -13 5 -14 0 -19 -2 -12 -5z"/>
</g>
</svg>
