<?xml version="1.0" standalone="no"?>
<!DOCTYPE svg PUBLIC "-//W3C//DTD SVG 20010904//EN"
 "http://www.w3.org/TR/2001/REC-SVG-20010904/DTD/svg10.dtd">
<svg version="1.0" xmlns="http://www.w3.org/2000/svg"
 width="849.000000pt" height="1280.000000pt" viewBox="0 0 849.000000 1280.000000"
 preserveAspectRatio="xMidYMid meet">
<metadata>
Created by potrace 1.15, written by Peter Selinger 2001-2017
</metadata>
<g transform="translate(0.000000,1280.000000) scale(0.100000,-0.100000)"
fill="#000000" stroke="none">
<path d="M4301 12790 c-84 -18 -258 -112 -426 -231 l-80 -56 -200 -6 c-300 -9
-461 -44 -680 -151 -161 -79 -261 -146 -389 -259 -150 -133 -201 -198 -277
-352 -171 -348 -236 -778 -174 -1140 50 -291 217 -612 394 -759 298 -247 526
-350 836 -375 230 -19 495 -23 563 -8 53 12 62 12 62 0 0 -8 -13 -91 -30 -186
-16 -95 -39 -248 -50 -342 -11 -93 -23 -177 -25 -185 -2 -8 -9 -58 -15 -110
-13 -115 -41 -280 -47 -280 -3 0 -2 38 2 85 l7 85 -26 -10 c-15 -5 -63 -10
-107 -10 -45 0 -94 -6 -113 -14 -18 -7 -165 -117 -327 -243 -162 -126 -454
-349 -649 -495 -395 -295 -611 -472 -795 -650 -128 -123 -159 -167 -171 -247
-7 -41 -8 -43 -21 -25 -19 25 -88 162 -98 194 -4 14 -43 91 -85 172 -97 183
-301 491 -412 623 -47 55 -170 213 -273 350 -104 138 -222 288 -261 334 -85
98 -138 186 -108 178 181 -52 288 -49 416 11 163 76 270 168 408 352 172 230
180 335 46 595 -75 145 -127 216 -240 334 -138 142 -168 161 -260 168 -108 8
-129 -2 -253 -125 -152 -151 -198 -236 -221 -407 -6 -48 -26 -108 -60 -185
-96 -218 -117 -304 -148 -628 -28 -293 -8 -366 154 -566 45 -55 149 -189 231
-296 82 -107 179 -231 215 -275 105 -128 257 -333 312 -420 28 -44 78 -123
111 -175 33 -52 101 -182 152 -289 100 -210 130 -261 186 -309 63 -56 78 -49
197 90 223 265 214 257 1093 923 260 197 464 356 575 450 112 94 119 98 300
195 85 46 168 92 183 103 16 10 30 18 32 16 3 -4 -31 -250 -40 -289 -28 -110
-37 -273 -42 -748 -6 -577 0 -657 82 -1132 8 -47 24 -146 35 -220 12 -74 30
-182 40 -240 10 -58 21 -130 25 -160 17 -137 46 -294 56 -301 8 -4 8 -8 1 -10
-9 -4 -58 -211 -92 -394 -6 -33 -26 -134 -45 -225 -62 -302 -74 -383 -110
-715 -74 -687 -92 -831 -155 -1180 -45 -258 -64 -388 -84 -580 -38 -364 -41
-436 -39 -1037 1 -329 1 -598 -1 -598 -1 0 -40 25 -86 56 -107 71 -196 116
-290 146 -65 20 -95 23 -225 23 -169 0 -259 -18 -410 -81 -117 -49 -197 -101
-400 -260 -98 -76 -206 -161 -241 -188 -35 -26 -64 -54 -64 -62 0 -23 47 -47
77 -39 41 10 78 39 203 160 111 108 118 113 225 157 138 58 202 71 340 72 219
0 404 -64 596 -208 47 -36 107 -76 134 -90 96 -51 185 -26 284 79 121 129 137
204 145 675 8 397 52 1216 106 1955 26 353 73 741 125 1031 14 77 39 220 55
319 37 231 133 715 141 715 3 0 29 -49 57 -109 51 -108 51 -108 199 -248 267
-252 383 -347 637 -515 211 -140 287 -202 460 -377 l129 -130 5 -233 c5 -269
-4 -402 -53 -753 -71 -504 -106 -891 -123 -1355 l-8 -205 29 -69 c44 -107 124
-336 153 -444 14 -53 33 -105 42 -114 24 -28 42 -22 42 13 0 44 66 134 143
197 80 65 100 95 121 190 14 65 97 251 130 291 35 44 152 63 299 50 143 -13
190 -26 327 -95 61 -31 113 -54 115 -52 23 23 214 296 212 303 -4 19 -258 136
-324 150 -119 25 -262 30 -344 11 -136 -30 -209 -102 -408 -401 l-127 -190
-48 140 c-27 77 -64 181 -84 230 l-35 90 22 170 c13 94 45 294 72 445 158 881
179 1033 179 1290 0 250 -33 421 -98 513 -153 217 -291 359 -687 707 -388 342
-601 567 -789 833 -26 37 -51 67 -55 67 -4 0 -38 -38 -76 -85 -37 -47 -69 -84
-71 -82 -1 1 8 47 21 102 13 55 20 102 16 105 -4 3 -17 77 -29 165 -13 88 -32
212 -42 275 -11 63 -27 153 -35 200 -129 764 -129 763 -122 1345 7 529 13 623
62 871 4 19 17 22 162 37 413 43 537 51 758 51 250 0 283 -4 625 -79 210 -46
967 -225 1165 -276 247 -63 406 -99 441 -99 29 0 56 -23 236 -201 198 -196
334 -314 440 -385 54 -35 74 -43 62 -23 -3 6 -2 14 3 18 12 7 60 179 69 242
11 83 -6 110 -164 272 -80 81 -144 147 -141 147 9 0 172 -54 478 -159 178 -61
327 -108 330 -105 3 3 6 89 6 190 l0 184 -130 46 c-328 114 -759 255 -848 278
-129 34 -299 40 -340 13 -24 -15 -27 -24 -27 -72 0 -30 -3 -55 -7 -55 -24 0
-184 35 -283 61 -160 44 -152 42 -476 114 -160 36 -435 101 -610 144 -397 99
-497 118 -681 132 -169 13 -374 3 -762 -37 -134 -14 -245 -23 -247 -21 -4 4 1
43 37 302 10 77 26 190 33 250 13 96 56 358 72 437 4 21 23 37 88 73 217 122
366 281 522 560 73 132 186 435 238 640 23 92 64 346 76 475 6 63 13 122 15
130 3 8 9 65 15 125 15 160 -13 389 -67 560 -52 167 -177 383 -277 479 -136
132 -368 209 -525 176z m-21 -250 c188 -63 299 -176 426 -430 97 -195 126
-330 127 -580 0 -428 -126 -1007 -297 -1365 -67 -139 -186 -327 -260 -412 -60
-67 -88 -73 -354 -73 -353 0 -508 21 -687 91 -237 92 -500 291 -607 459 -50
78 -131 242 -162 328 -55 153 -70 258 -70 482 0 228 9 298 69 514 39 143 105
308 162 405 21 35 76 104 123 153 l85 89 121 24 c192 38 325 48 559 41 116 -4
241 -10 278 -15 l69 -9 153 111 c178 130 178 125 -12 134 -115 6 -147 13 -105
26 9 3 49 17 87 32 60 22 82 25 150 22 45 -3 109 -14 145 -27z m-3715 -2737
c49 -25 225 -211 291 -308 58 -85 97 -160 131 -250 23 -59 43 -178 32 -191 -5
-6 -46 -28 -91 -49 -69 -33 -95 -39 -163 -43 -124 -7 -276 40 -334 102 l-25
27 -69 -68 -69 -68 6 35 c3 19 13 100 21 180 9 80 25 181 37 225 23 95 79 244
113 301 13 22 29 62 36 88 13 51 17 52 84 19z"/>
</g>
</svg>
