<?xml version="1.0" standalone="no"?>
<!DOCTYPE svg PUBLIC "-//W3C//DTD SVG 20010904//EN"
 "http://www.w3.org/TR/2001/REC-SVG-20010904/DTD/svg10.dtd">
<svg version="1.0" xmlns="http://www.w3.org/2000/svg"
 width="1280.000000pt" height="992.000000pt" viewBox="0 0 1280.000000 992.000000"
 preserveAspectRatio="xMidYMid meet">
<metadata>
Created by potrace 1.15, written by Peter Selinger 2001-2017
</metadata>
<g transform="translate(0.000000,992.000000) scale(0.100000,-0.100000)"
fill="#000000" stroke="none">
<path d="M11072 9905 c-165 -31 -386 -110 -624 -224 -59 -28 -109 -51 -112
-51 -2 0 -7 14 -11 30 -4 17 -9 30 -11 30 -15 0 -274 -130 -274 -138 0 -4 11
-19 25 -32 l25 -23 -55 -33 -54 -33 -53 35 c-61 41 -192 105 -263 127 -46 15
-206 45 -330 62 -29 4 -61 16 -78 31 -76 64 -324 104 -438 71 -99 -29 -165
-106 -203 -238 -26 -87 -33 -88 -177 -8 l-124 69 -15 -45 c-12 -36 -18 -42
-32 -34 -26 15 -352 96 -478 119 -72 14 -177 24 -280 27 -197 7 -295 -8 -405
-62 -120 -58 -180 -134 -215 -271 -43 -166 -38 -339 25 -849 61 -490 68 -630
40 -791 -28 -161 -74 -235 -178 -290 -63 -33 -81 -38 -161 -42 -80 -4 -241 13
-333 35 -41 10 -24 -14 25 -35 118 -51 200 -67 342 -66 l135 0 90 47 c199 103
369 302 449 528 50 139 83 300 116 566 35 280 44 334 72 428 73 251 223 351
546 362 l142 6 -9 -25 c-5 -14 -16 -48 -25 -77 l-16 -53 28 18 c15 9 38 24 51
33 28 18 29 23 -30 -94 -319 -620 -28 -1379 626 -1638 255 -101 562 -107 823
-16 381 134 662 441 768 838 35 128 44 344 20 477 -33 192 -106 365 -216 514
l-57 76 71 16 70 16 69 -67 c43 -40 67 -58 64 -46 -14 49 -30 135 -26 139 12
12 206 36 289 36 219 0 344 -76 444 -269 25 -49 88 -213 140 -369 109 -321
166 -457 243 -580 61 -97 176 -221 270 -288 75 -55 206 -117 293 -139 117 -30
293 7 456 96 73 40 119 79 93 79 -8 0 -53 -15 -100 -34 -178 -70 -293 -83
-412 -46 -162 50 -252 250 -296 665 -6 55 -20 226 -31 380 -26 358 -45 513
-80 652 -76 300 -215 416 -494 412 -44 -1 -114 -7 -154 -14z m-2807 -475 c-3
-5 -12 -7 -20 -3 -21 7 -19 13 6 13 11 0 18 -4 14 -10z"/>
<path d="M2540 9828 c0 -7 23 -92 50 -188 28 -96 50 -181 50 -188 0 -10 -9 -8
-32 6 -40 24 -301 167 -461 252 l-119 63 28 -44 c15 -24 58 -90 96 -147 38
-56 71 -109 74 -117 5 -13 -46 -15 -370 -17 l-375 -3 135 -84 c74 -46 132 -87
127 -91 -4 -4 -116 -40 -248 -80 -238 -72 -286 -89 -255 -90 38 0 575 -52 579
-56 5 -5 41 18 -287 -190 -236 -149 -279 -180 -260 -186 13 -3 97 -7 188 -7
91 -1 175 -4 187 -7 l22 -6 -21 -52 c-233 -577 14 -1234 567 -1509 160 -79
295 -115 470 -124 214 -10 399 28 590 122 241 119 420 299 540 540 256 516
113 1126 -344 1471 -84 63 -248 154 -278 154 -13 0 -14 8 -9 43 10 70 44 367
51 447 8 89 22 99 -144 -107 -68 -84 -126 -153 -131 -153 -5 0 -80 63 -167
141 -220 196 -253 223 -253 207z"/>
<path d="M9865 7268 c-55 -5 -340 -31 -634 -58 -294 -28 -542 -50 -551 -50
-13 0 -24 -38 -59 -207 -25 -119 -51 -219 -61 -233 -9 -14 -365 -540 -790
-1170 -425 -630 -777 -1150 -784 -1156 -6 -6 -37 -14 -68 -17 l-57 -5 -308
266 c-509 440 -1266 1088 -1455 1245 -98 81 -178 153 -178 160 0 6 40 129 90
273 86 250 96 284 85 284 -3 0 -178 36 -390 80 -851 176 -1252 278 -1337 340
l-27 20 -39 -57 c-21 -32 -103 -173 -182 -313 -79 -140 -145 -257 -147 -260
-2 -2 -109 101 -237 229 l-233 233 -599 -163 c-329 -90 -601 -164 -603 -166
-4 -2 33 -322 43 -376 0 -4 -138 -64 -309 -133 -171 -69 -472 -191 -670 -271
-198 -80 -361 -147 -363 -148 -1 -1 153 -338 343 -749 l345 -748 -30 -34 c-43
-49 -60 -97 -60 -168 0 -116 70 -211 179 -243 102 -29 196 -1 268 81 86 97 83
245 -5 340 -40 42 -118 76 -178 76 l-50 0 -318 686 c-174 378 -316 687 -314
689 2 1 268 108 591 238 384 154 589 232 592 224 2 -7 11 -70 21 -142 9 -71
19 -133 23 -137 3 -4 139 15 301 42 162 27 307 50 321 50 l27 0 -19 -82 c-23
-104 -268 -1127 -275 -1150 -5 -16 2 -18 45 -18 28 0 51 -2 51 -5 0 -2 -68
-264 -152 -582 -83 -318 -153 -590 -156 -604 -5 -32 -27 -28 353 -65 149 -14
270 -27 271 -28 0 0 22 -273 48 -606 26 -333 49 -627 52 -655 l5 -50 -308
-426 c-169 -234 -409 -565 -532 -736 l-223 -310 -107 -6 c-70 -4 -136 -15
-194 -32 -149 -43 -223 -89 -258 -161 -21 -44 -21 -46 -4 -89 9 -25 30 -56 47
-70 67 -56 205 -110 338 -131 77 -12 281 -11 370 3 386 58 518 267 253 401
-52 27 -206 72 -244 72 -16 0 -29 5 -29 11 0 6 231 331 512 722 l513 712 -3
60 c-2 33 -25 332 -52 665 -26 333 -46 607 -44 609 2 2 108 -6 234 -19 127
-13 232 -21 234 -19 2 2 70 131 152 287 82 155 151 282 155 282 3 0 39 -107
80 -237 l74 -238 159 0 c153 0 159 -1 167 -22 13 -36 123 -526 209 -938 45
-214 87 -399 94 -411 6 -11 200 -287 431 -612 231 -326 448 -632 483 -682 l64
-90 -84 0 c-244 0 -495 -83 -558 -184 -74 -122 57 -242 325 -297 135 -28 397
-23 520 10 161 43 274 117 290 190 20 92 -86 191 -253 237 -50 14 -65 23 -84
53 -13 20 -247 351 -520 737 l-497 700 -66 315 c-73 347 -187 865 -209 946
l-14 51 112 6 c61 3 208 8 326 12 118 3 216 7 217 8 2 1 -51 272 -117 601 -66
330 -120 603 -120 607 0 5 32 8 70 8 l71 0 -6 48 c-3 26 -12 164 -20 307 -8
143 -24 420 -36 615 -11 196 -19 375 -17 399 l3 43 265 -251 c145 -138 267
-251 270 -251 3 0 36 92 75 205 38 113 73 205 77 205 15 0 620 -513 1475
-1253 l391 -338 -29 -56 c-56 -106 -35 -229 53 -308 54 -49 95 -65 171 -65
112 0 207 66 242 169 28 84 13 180 -40 243 -14 16 -25 34 -25 40 0 7 924 1386
1353 2016 16 24 31 42 33 39 3 -3 -267 -1303 -485 -2337 -32 -151 -55 -278
-52 -281 3 -3 126 -1 274 4 147 6 270 8 272 5 3 -3 -96 -299 -220 -657 -124
-358 -225 -655 -225 -660 0 -4 113 -394 250 -866 138 -473 249 -864 246 -871
-2 -6 -26 -15 -52 -19 -131 -19 -348 -115 -469 -206 -112 -86 -177 -189 -160
-257 11 -43 66 -89 130 -107 86 -25 277 -16 404 19 185 52 348 136 456 237 65
61 115 142 115 186 0 34 -25 78 -59 102 -34 24 -130 51 -183 51 -21 0 -38 2
-38 5 0 3 -61 213 -135 467 -75 255 -188 642 -251 860 l-116 397 227 658 c125
362 230 661 234 665 6 7 211 17 994 49 158 6 289 10 291 8 2 -2 83 -323 180
-714 97 -390 180 -719 184 -729 7 -16 44 -28 188 -63 656 -157 1564 -373 1569
-373 4 0 -28 -37 -71 -83 -100 -105 -173 -212 -228 -330 -51 -107 -66 -164
-66 -242 0 -109 42 -155 142 -155 180 0 481 276 614 564 132 286 42 461 -187
364 -46 -19 -47 -19 -130 1 -255 61 -848 203 -1219 291 -234 56 -441 105 -461
111 l-37 9 -168 674 c-93 371 -166 677 -164 679 6 6 746 37 863 37 59 0 79 3
83 15 3 8 -168 594 -381 1302 -213 709 -390 1299 -393 1313 -5 30 -25 49 189
-180 202 -217 1006 -1065 1184 -1250 77 -80 265 -275 419 -433 l279 -288 -22
-47 c-91 -187 45 -388 251 -369 111 10 203 94 227 208 24 110 -43 232 -151
279 -44 19 -64 22 -125 17 l-72 -5 -188 191 c-354 361 -1403 1463 -1903 2001
l-185 198 -69 229 -69 229 -31 -1 c-17 -1 -76 -6 -131 -11z"/>
</g>
</svg>
