<?xml version="1.0" standalone="no"?>
<!DOCTYPE svg PUBLIC "-//W3C//DTD SVG 20010904//EN"
 "http://www.w3.org/TR/2001/REC-SVG-20010904/DTD/svg10.dtd">
<svg version="1.0" xmlns="http://www.w3.org/2000/svg"
 width="1022.000000pt" height="1280.000000pt" viewBox="0 0 1022.000000 1280.000000"
 preserveAspectRatio="xMidYMid meet">
<metadata>
Created by potrace 1.15, written by Peter Selinger 2001-2017
</metadata>
<g transform="translate(0.000000,1280.000000) scale(0.100000,-0.100000)"
fill="#000000" stroke="none">
<path d="M5680 12794 c-344 -44 -646 -173 -899 -388 -262 -221 -454 -546 -532
-898 -30 -135 -38 -438 -15 -574 63 -368 209 -657 461 -909 203 -203 460 -348
751 -425 322 -84 705 -55 1013 77 506 217 854 642 968 1181 24 112 27 149 27
317 0 167 -4 205 -27 316 -70 332 -209 591 -447 830 -234 236 -504 380 -835
449 -98 20 -379 35 -465 24z"/>
<path d="M2745 9995 c-363 -53 -628 -172 -843 -379 -138 -132 -253 -303 -326
-481 l-22 -56 -90 -3 c-148 -6 -256 -56 -358 -166 -101 -110 -149 -259 -128
-405 41 -279 297 -476 570 -436 289 42 489 323 431 603 -13 64 -60 166 -95
208 -32 37 -29 49 31 177 57 121 105 192 190 282 219 231 519 334 970 334 394
0 838 -76 1410 -242 326 -94 393 -117 370 -126 -319 -124 -604 -377 -863 -764
-392 -588 -838 -1702 -956 -2391 -42 -245 -50 -337 -50 -570 0 -188 4 -246 23
-355 46 -265 144 -495 284 -667 24 -29 46 -59 51 -66 14 -23 -238 -417 -440
-687 -298 -400 -669 -784 -1025 -1061 -374 -292 -808 -527 -1227 -665 -118
-39 -135 -42 -242 -43 -108 -1 -118 -3 -168 -31 -101 -56 -169 -155 -214 -311
-29 -103 -32 -333 -5 -466 52 -260 171 -493 334 -655 65 -65 100 -91 170 -125
84 -41 92 -43 178 -43 109 0 161 22 236 98 167 169 201 539 83 893 -35 106
-93 227 -149 309 -25 38 -42 71 -38 75 5 4 37 17 73 30 250 88 579 257 855
437 286 188 517 376 784 638 378 372 676 747 986 1245 43 69 79 127 81 129 1
2 52 -22 113 -53 115 -59 294 -123 421 -151 150 -34 478 -30 576 6 12 4 39 3
60 -2 22 -5 185 -43 364 -84 543 -124 816 -197 1112 -295 199 -67 264 -92 391
-156 84 -42 207 -119 207 -130 0 -2 -13 -30 -29 -62 -122 -245 -233 -617 -381
-1282 -116 -521 -184 -779 -245 -923 -8 -20 -38 -62 -66 -93 -111 -123 -125
-259 -44 -429 131 -273 468 -506 850 -587 94 -19 317 -16 390 6 143 43 247
128 281 228 84 253 -140 580 -531 776 -149 74 -282 114 -456 137 l-47 6 15 47
c27 91 112 439 172 708 184 825 284 1135 452 1407 l49 78 -59 88 c-32 48 -84
110 -115 138 -187 171 -530 321 -1081 473 -181 50 -588 152 -702 176 -46 10
-83 20 -83 23 0 4 25 26 55 50 76 61 196 187 294 310 287 361 567 906 845
1644 184 492 301 913 340 1232 l12 100 128 -255 c71 -140 158 -307 194 -370
337 -595 696 -879 1249 -987 130 -25 155 -27 438 -27 191 -1 334 4 394 12 93
13 94 13 110 -10 184 -266 554 -302 779 -77 306 306 117 823 -315 864 -237 23
-474 -147 -533 -382 -13 -51 -14 -51 -59 -57 -113 -13 -531 -18 -626 -7 -351
41 -592 153 -810 375 -181 186 -274 340 -615 1016 -153 305 -327 641 -386 745
-103 185 -384 618 -441 682 -21 23 -56 41 -143 71 -63 22 -248 87 -410 145
-992 351 -1607 520 -2200 603 -157 22 -660 28 -785 9z"/>
</g>
</svg>
