<?xml version="1.0" standalone="no"?>
<!DOCTYPE svg PUBLIC "-//W3C//DTD SVG 20010904//EN"
 "http://www.w3.org/TR/2001/REC-SVG-20010904/DTD/svg10.dtd">
<svg version="1.0" xmlns="http://www.w3.org/2000/svg"
 width="1158.000000pt" height="1280.000000pt" viewBox="0 0 1158.000000 1280.000000"
 preserveAspectRatio="xMidYMid meet">
<metadata>
Created by potrace 1.15, written by Peter Selinger 2001-2017
</metadata>
<g transform="translate(0.000000,1280.000000) scale(0.100000,-0.100000)"
fill="#000000" stroke="none">
<path d="M6537 12789 c-483 -56 -919 -332 -1175 -744 -346 -557 -315 -1274 78
-1797 193 -257 469 -458 768 -558 192 -64 264 -75 512 -74 193 0 239 3 320 21
634 142 1104 614 1242 1247 19 87 22 131 22 321 0 207 -1 227 -28 340 -15 65
-39 151 -53 190 -180 499 -603 885 -1115 1016 -173 44 -396 59 -571 38z"/>
<path d="M4015 9896 c-395 -41 -713 -130 -1030 -288 -592 -296 -1021 -815
-1210 -1464 -49 -169 -105 -460 -105 -549 0 -30 -5 -39 -31 -53 -295 -159
-456 -429 -435 -727 8 -117 25 -179 82 -295 40 -81 62 -109 143 -191 86 -86
109 -102 203 -148 238 -117 486 -120 720 -9 420 200 572 685 337 1074 -87 144
-222 254 -402 328 -52 21 -176 46 -232 46 -55 0 -55 -2 -20 179 120 615 410
1068 886 1387 487 325 1161 454 1883 359 181 -24 536 -99 536 -114 0 -4 -24
-15 -52 -24 -156 -49 -354 -183 -528 -357 -516 -514 -884 -1398 -992 -2385
-21 -190 -18 -775 5 -945 62 -465 179 -815 366 -1095 107 -161 258 -302 399
-374 31 -16 41 -26 34 -34 -5 -7 -42 -55 -82 -107 -376 -487 -817 -970 -1191
-1303 -462 -412 -943 -707 -1391 -852 -94 -31 -389 -100 -393 -92 -1 1 -16 34
-35 72 -39 82 -122 170 -191 203 -169 82 -392 30 -619 -143 -78 -60 -234 -226
-303 -323 -388 -543 -483 -1268 -204 -1552 209 -212 554 -132 874 203 280 294
472 708 513 1106 5 52 14 98 21 102 6 4 35 10 63 13 76 10 287 63 406 103 319
106 676 294 1011 534 524 375 1118 973 1670 1683 l112 143 221 72 c686 221
1272 331 2271 426 149 14 281 28 294 31 l24 5 -6 -258 c-4 -142 -13 -415 -22
-608 -21 -460 -21 -1071 -1 -1315 10 -123 12 -200 6 -230 -37 -185 17 -358
156 -495 196 -192 505 -286 899 -272 250 9 452 52 690 147 245 97 496 277 625
448 170 228 204 452 98 656 -39 73 -160 197 -240 244 -346 204 -854 227 -1353
61 -168 -56 -381 -171 -529 -284 l-39 -30 6 455 c4 250 13 599 22 775 18 392
18 777 1 948 -7 70 -15 129 -17 131 -2 2 -71 -7 -154 -19 -82 -13 -292 -38
-465 -55 -511 -50 -796 -85 -1075 -131 -125 -20 -416 -76 -449 -86 -12 -3 9
26 50 73 150 172 287 382 418 644 313 626 479 1349 478 2085 0 326 -28 594
-86 840 -8 33 -14 61 -13 61 1 1 65 -56 142 -128 340 -315 634 -522 990 -698
352 -174 632 -255 976 -282 403 -31 804 79 1128 310 113 80 298 255 388 366
77 96 194 271 252 377 l42 77 62 -21 c96 -31 314 -31 417 1 184 58 329 166
426 317 166 260 147 596 -48 838 -345 428 -1024 354 -1263 -138 -125 -256 -90
-548 90 -770 24 -29 41 -55 37 -57 -4 -2 -39 -57 -77 -122 -228 -395 -530
-663 -875 -779 -159 -53 -229 -62 -460 -62 -195 1 -227 3 -343 28 -825 175
-1707 871 -2301 1813 l-57 92 -132 55 c-436 184 -813 286 -1267 343 -171 21
-588 27 -755 10z"/>
</g>
</svg>
