<?xml version="1.0" standalone="no"?>
<!DOCTYPE svg PUBLIC "-//W3C//DTD SVG 20010904//EN"
 "http://www.w3.org/TR/2001/REC-SVG-20010904/DTD/svg10.dtd">
<svg version="1.0" xmlns="http://www.w3.org/2000/svg"
 width="1280.000000pt" height="1194.000000pt" viewBox="0 0 1280.000000 1194.000000"
 preserveAspectRatio="xMidYMid meet">
<metadata>
Created by potrace 1.15, written by Peter Selinger 2001-2017
</metadata>
<g transform="translate(0.000000,1194.000000) scale(0.100000,-0.100000)"
fill="#000000" stroke="none">
<path d="M10660 11934 c-261 -25 -469 -76 -690 -171 -564 -243 -960 -706
-1082 -1266 -19 -87 -22 -134 -23 -312 0 -181 3 -225 23 -317 110 -523 463
-962 977 -1217 223 -111 433 -176 685 -212 113 -16 442 -17 555 0 498 72 898
269 1218 600 422 438 574 1024 412 1586 -203 702 -884 1225 -1699 1304 -101
10 -293 12 -376 5z"/>
<path d="M5080 10666 c-511 -73 -1011 -302 -1409 -645 l-64 -55 -78 27 c-172
61 -341 43 -489 -54 -97 -62 -170 -155 -205 -259 -35 -103 -35 -246 -1 -348
93 -274 408 -445 682 -372 176 48 309 166 366 327 37 105 39 232 5 343 -28 89
-106 207 -167 252 -22 16 -40 33 -40 37 0 23 177 164 332 264 449 291 944 437
1481 437 165 0 216 -4 411 -34 480 -75 919 -243 1415 -540 319 -192 691 -470
966 -723 99 -91 182 -169 183 -174 2 -5 -14 -9 -37 -9 -22 0 -114 -20 -205
-45 -696 -189 -1594 -827 -2368 -1682 -758 -838 -1271 -1757 -1343 -2409 -16
-142 -16 -161 0 -285 16 -129 19 -138 72 -239 30 -58 66 -114 80 -126 l26 -21
-73 -144 c-245 -487 -579 -935 -965 -1295 -412 -384 -876 -651 -1390 -799
-195 -57 -248 -68 -470 -97 -224 -31 -269 -34 -427 -30 l-177 4 -15 51 c-8 29
-38 88 -65 132 -41 66 -61 89 -118 127 -61 42 -75 47 -143 53 -71 6 -80 4
-154 -29 -475 -207 -828 -1269 -641 -1923 46 -159 106 -258 198 -322 62 -45
73 -49 145 -55 74 -7 82 -5 161 28 397 171 739 1008 681 1670 -6 72 -15 143
-20 159 l-9 27 182 0 c152 0 221 6 422 34 204 28 273 43 460 96 822 234 1534
777 2097 1600 103 151 245 392 324 552 l58 116 40 -28 c29 -20 76 -36 159 -55
115 -26 121 -26 270 -16 132 10 175 18 327 61 l175 49 340 -95 c332 -93 615
-173 1315 -369 190 -54 429 -121 532 -149 104 -29 191 -56 195 -60 4 -3 -11
-25 -34 -49 -53 -56 -1272 -1403 -1346 -1489 -48 -55 -61 -78 -73 -128 -13
-57 -12 -68 6 -141 113 -440 987 -983 1532 -952 140 7 222 35 284 95 46 45 52
56 63 116 12 60 11 74 -7 140 -126 448 -976 972 -1543 951 l-95 -4 386 425
c212 234 509 562 660 729 300 332 309 345 239 368 -33 10 -446 127 -1039 293
-135 38 -407 114 -605 170 -198 56 -435 122 -527 148 -93 25 -168 48 -168 51
0 3 44 24 97 46 148 61 515 275 728 425 702 493 1420 1235 1910 1973 83 124
152 226 155 226 3 1 27 -70 53 -156 237 -775 629 -1330 1118 -1581 212 -108
376 -150 619 -159 152 -5 197 -2 371 24 36 5 37 4 44 -33 4 -21 30 -77 58
-125 98 -162 259 -273 447 -306 72 -13 100 -13 182 -2 84 10 108 18 181 58
278 152 361 485 191 767 -97 160 -262 273 -444 304 -88 14 -103 14 -195 -1
-252 -42 -422 -220 -446 -468 -5 -51 -6 -97 -4 -101 7 -12 -15 -17 -130 -35
-224 -34 -463 -8 -680 72 -558 206 -982 763 -1254 1646 l-60 197 84 153 c113
205 237 496 297 697 38 126 55 205 72 338 22 171 22 174 5 311 -17 134 -19
140 -73 242 -53 99 -59 107 -145 172 -87 65 -94 69 -213 98 -93 23 -136 29
-175 25 l-53 -6 -203 189 c-301 280 -678 564 -1024 772 -500 300 -965 478
-1438 548 -193 28 -230 31 -445 30 -183 -1 -269 -6 -390 -23z"/>
</g>
</svg>
