<?xml version="1.0" standalone="no"?>
<!DOCTYPE svg PUBLIC "-//W3C//DTD SVG 20010904//EN"
 "http://www.w3.org/TR/2001/REC-SVG-20010904/DTD/svg10.dtd">
<svg version="1.0" xmlns="http://www.w3.org/2000/svg"
 width="688.000000pt" height="1280.000000pt" viewBox="0 0 688.000000 1280.000000"
 preserveAspectRatio="xMidYMid meet">
<metadata>
Created by potrace 1.15, written by Peter Selinger 2001-2017
</metadata>
<g transform="translate(0.000000,1280.000000) scale(0.100000,-0.100000)"
fill="#000000" stroke="none">
<path d="M4325 12789 c-856 -83 -1548 -596 -1721 -1275 -183 -725 265 -1454
1094 -1778 155 -61 324 -104 537 -138 106 -16 524 -16 630 1 536 84 947 284
1258 611 205 215 340 473 392 745 25 130 23 359 -4 488 -112 529 -509 962
-1098 1196 -327 129 -731 185 -1088 150z"/>
<path d="M3500 9530 c-30 -4 -86 -21 -125 -38 -38 -16 -128 -55 -200 -87 -600
-261 -1232 -784 -1722 -1425 -603 -790 -1032 -1784 -1273 -2948 -37 -181 -42
-196 -75 -235 -92 -107 -128 -266 -89 -398 50 -169 165 -284 345 -345 84 -28
240 -33 328 -9 333 88 486 442 310 717 -41 63 -112 126 -188 166 -98 53 -153
66 -276 66 -119 -1 -196 -20 -284 -71 l-44 -25 6 23 c3 13 22 100 42 194 31
146 64 280 129 525 99 372 284 865 474 1260 494 1029 1260 1879 2113 2344 l84
46 -70 -67 c-403 -387 -817 -1172 -1074 -2033 -57 -193 -77 -268 -137 -520
-30 -127 -26 -105 -68 -330 -192 -1025 -142 -1976 131 -2465 145 -262 342
-381 573 -349 47 6 90 13 96 15 19 7 344 -211 504 -337 484 -381 703 -780 635
-1153 -42 -229 -160 -427 -382 -642 -190 -185 -391 -329 -683 -491 -297 -165
-470 -241 -590 -258 -183 -25 -367 -94 -437 -163 -38 -36 -43 -47 -43 -85 0
-34 7 -53 31 -83 78 -99 339 -189 669 -231 157 -20 614 -16 755 6 255 40 405
93 488 174 40 40 47 52 47 85 0 178 -469 325 -1043 328 l-191 1 190 97 c405
209 663 389 890 623 149 153 232 276 301 445 47 115 63 203 63 340 0 144 -31
266 -107 418 -67 133 -205 316 -330 436 -126 122 -354 300 -523 409 -185 119
-180 115 -139 129 19 6 60 28 92 50 l58 38 162 -49 c1536 -474 2476 -1073
2722 -1736 155 -415 25 -896 -346 -1286 -61 -65 -74 -74 -126 -86 -84 -20
-213 -82 -250 -121 -44 -47 -47 -101 -9 -152 76 -99 354 -191 691 -229 171
-19 569 -16 715 6 340 49 539 137 556 246 6 34 2 44 -25 79 -81 103 -337 188
-676 227 -180 21 -566 21 -709 0 -60 -9 -113 -16 -118 -16 -5 0 19 33 52 73
296 350 423 762 344 1122 -138 624 -813 1177 -2019 1652 -226 89 -530 196
-747 262 l-157 48 93 86 c240 221 496 592 698 1007 99 205 207 456 265 620 25
69 54 150 65 180 27 77 142 461 162 540 58 242 87 370 106 470 11 63 27 147
35 185 45 228 84 608 94 935 21 604 -64 1122 -232 1429 -22 41 -34 70 -26 66
8 -5 64 -45 124 -90 710 -530 1272 -1507 1580 -2746 108 -435 207 -1025 249
-1485 l5 -62 -38 -6 c-53 -8 -167 -68 -223 -116 -183 -158 -222 -432 -90 -636
73 -113 203 -199 347 -229 88 -18 125 -19 218 -1 113 22 200 68 282 151 80 81
119 150 141 257 44 206 -74 432 -276 532 -80 39 -220 71 -276 62 l-31 -4 -7
86 c-31 379 -144 1055 -241 1442 -261 1039 -653 1836 -1194 2426 -175 190
-425 400 -601 503 -41 25 -93 61 -115 81 -121 111 -261 153 -435 130z"/>
</g>
</svg>
