<svg id="b477518c-9a8d-4f77-a1df-d8b7689ccd51" data-name="Layer 1" xmlns="http://www.w3.org/2000/svg" width="885.696" height="626.49697" viewBox="0 0 885.696 626.49697"><title>mobile_posts</title><ellipse cx="696.62802" cy="608.95167" rx="82.70319" ry="17.5453" fill="#e6e6e6"/><path d="M737.99161,338.73409l-5.92657,1.95719-.82124,5.12582a1.71,1.71,0,0,0,2.75293,1.60875l3.78649-3.01192Z" transform="translate(-157.152 -136.75151)" fill="#2f2e41"/><path d="M756.13055,316.23147l-18.34733,28.18246-5.71818-3.72265,18.34733-28.18246a3.41533,3.41533,0,0,1,4.72041-.99776,3.42794,3.42794,0,0,1,.99777,4.72041Z" transform="translate(-157.152 -136.75151)" fill="#6c63ff"/><path d="M756.13055,316.23147l-1.79219,2.75289a5.83414,5.83414,0,0,1-5.71818-3.72265l1.79219-2.75289a3.41533,3.41533,0,0,1,4.72041-.99776,3.42794,3.42794,0,0,1,.99777,4.72041Z" transform="translate(-157.152 -136.75151)" fill="#2f2e41"/><path d="M835.99,369.01167l-30.74311,12.46472-47.61612-34.01374S745.485,321.95641,730.91,334.10224c-4.99164,4.15969,15.10438,20.34867,17.00416,21.8625,4.74945,3.78457,48.19359,47.11557,54.33509,44.86544s32.99325-6.32322,32.99325-6.32322Z" transform="translate(-157.152 -136.75151)" fill="#ffb8b8"/><path d="M896.09327,334.10224c-26.32122-9.83535-51.35988-14.48878-71.66041,0V287.34075A35.83017,35.83017,0,0,1,860.263,251.51058h.00007a35.83018,35.83018,0,0,1,35.83017,35.83017Z" transform="translate(-157.152 -136.75151)" fill="#2f2e41"/><path d="M847.50994,308.596s14.575,30.36458,10.93125,36.4375l30.36458-15.78958s-15.78958-20.64792-15.78958-24.29167Z" transform="translate(-157.152 -136.75151)" fill="#ffb8b8"/><path d="M913.70472,335.92411s-14.86931-14.575-28.08257-10.93124-10.1768,10.324-27.181,13.9677l-1.82188,7.89479s-9.63426,3.94169-13.36041,7.2875c-4.16023,3.7356-7.05046,32.37041-1.82188,56.47812,3.4367,15.84585-4.38079,31.65574-.60729,38.25937l68.01666-8.50208s6.07291-6.07292,2.42917-9.71667,2.42916-30.36458,2.42916-30.36458Z" transform="translate(-157.152 -136.75151)" fill="#cfcce0"/><polygon points="716.471 545.329 715.257 574.479 726.188 589.054 739.549 576.908 738.334 544.114 716.471 545.329" fill="#ffb8b8"/><path d="M991.438,657.78865s8.50209,17.00416,9.71667,20.64791,18.21875,2.42917,18.21875,2.42917l6.07291-15.78958-20.64791-19.43333Z" transform="translate(-157.152 -136.75151)" fill="#ffb8b8"/><path d="M840.22244,443.41472l3.03646,60.12187s9.71666,86.2354,13.36041,100.8104,17.00417,85.02082,17.00417,85.02082l32.79374-4.85833-9.71666-98.38124,1.21458-19.43333,18.21875,27.93542,69.23124,72.875,26.72083-21.8625-69.23124-81.37707-18.21875-72.875s2.42917-37.65208-18.21875-52.22708Z" transform="translate(-157.152 -136.75151)" fill="#2f2e41"/><path d="M880.911,716.08864s-2.42917-10.80692-8.50209-7.22533S851.761,730.66364,851.761,730.66364s-37.65208,25.50625-20.64791,27.93541,34.00833-7.2875,34.00833-7.2875,13.36041-7.2875,15.78958-7.2875,23.07708-6.07291,23.07708-10.93124-7.389-22.17257-7.389-22.17257S888.19848,718.51781,880.911,716.08864Z" transform="translate(-157.152 -136.75151)" fill="#2f2e41"/><path d="M1014.74128,674.888s-6.5439-8.93688-10.68053-3.22756S993.8402,699.894,993.8402,699.894s-24.32872,38.42344-7.7698,33.85784,28.266-20.26587,28.266-20.26587,9.33707-12.0178,11.564-12.98816,18.73-14.78577,16.78928-19.23965-15.63094-17.37508-15.63094-17.37508S1022.39245,674.20389,1014.74128,674.888Z" transform="translate(-157.152 -136.75151)" fill="#2f2e41"/><circle cx="699.46731" cy="154.23302" r="26.72083" fill="#ffb8b8"/><path d="M857.2266,346.24807s-13.9677,4.251-17.61145,10.324-14.575,13.36041-14.575,13.36041l8.50208,34.00833,13.36042-15.78958Z" transform="translate(-157.152 -136.75151)" fill="#cfcce0"/><path d="M882.73285,260.65428v-.64161l-.7626.0424a35.85745,35.85745,0,0,0-30.81656-6.15795,35.70266,35.70266,0,0,1,13.75317,7.10588l-25.899,1.43883L828.07661,286.7335h7.39788l5.96253-10.93125V286.7335h25.02039l1.70044-8.50209,4.72342,8.50209h4.91585c.03047.60618.0774,1.20806.0774,1.8218l-4.85833,46.76152,23.07708-9.71666V288.5553A35.755,35.755,0,0,0,882.73285,260.65428Z" transform="translate(-157.152 -136.75151)" fill="#2f2e41"/><ellipse cx="721.56965" cy="151.80386" rx="3.03646" ry="5.46562" fill="#ffb8b8"/><path d="M900.81715,374.82974l12.46472,30.74312L879.26813,453.189s-25.50625,12.14583-13.36042,26.72083c4.1597,4.99163,20.34867-15.10438,21.8625-17.00417,3.78458-4.74945,47.11557-48.19358,44.86544-54.33509s-6.32321-32.99324-6.32321-32.99324Z" transform="translate(-157.152 -136.75151)" fill="#ffb8b8"/><path d="M888.19848,339.56786l9.71666,47.36875s19.43333-13.36042,34.00833,1.21458l-18.21875-52.22708Z" transform="translate(-157.152 -136.75151)" fill="#cfcce0"/><rect x="857.2266" y="460.41889" width="31.57916" height="24.29166" transform="translate(112.3553 -452.38201) rotate(24.13254)" fill="#2f2e41"/><rect x="883.94742" y="495.96714" width="2.42919" height="72.22431" transform="translate(-284.54179 191.95861) rotate(-19.65382)" opacity="0.2"/><path d="M730.11579,350.09667" transform="translate(-157.152 -136.75151)" fill="#6c63ff"/><path d="M645.67618,350.09667h5.217C649.77241,350.88409,646.314,350.90075,645.67618,350.09667Z" transform="translate(-157.152 -136.75151)" fill="#6c63ff"/><path d="M690.47779,337.547a68.61967,68.61967,0,0,1,39.638,12.54972H650.89322A68.60385,68.60385,0,0,1,690.47779,337.547Z" transform="translate(-157.152 -136.75151)" fill="#6c63ff"/><path d="M157.31578,258.11332c3.54414-64.26395,55.17693-116.66008,119.38852-121.0519a128.66138,128.66138,0,0,1,132.99239,93.93149c1.55837-.05592,3.11541-.11854,4.68737-.11854a128.66436,128.66436,0,0,1,123.42156,92.39042,90.909,90.909,0,0,1,107.87056,26.83188H244.42442c-49.29627,0-89.20992-40.831-87.19967-90.08622Q157.2634,259.06332,157.31578,258.11332Z" transform="translate(-157.152 -136.75151)" fill="#6c63ff"/><path d="M223.69108,279.70269l-2.86094-11.28407a146.52471,146.52471,0,0,0-15.54552-5.57726l-.36124,5.24417-1.46478-5.77747c-6.55126-1.87073-11.00808-2.69475-11.00808-2.69475s6.02014,22.89274,18.64695,40.39454l14.713,2.58443-11.43013,1.648a59.28218,59.28218,0,0,0,5.11286,5.41832c18.36844,17.04984,38.82743,24.8724,45.69644,17.47216S262.7365,299.90983,244.36806,282.86c-5.6944-5.28561-12.84777-9.52728-20.00825-12.86555Z" transform="translate(-157.152 -136.75151)" fill="#e6e6e6"/><path d="M261.90979,329.49968c9.70538-2.78435,11.97055-24.57038,5.05943-48.66049-2.14252-7.46817-6.0736-14.79681-10.47774-21.35579l-5.59068,7.965,3.38367-11.1385a146.52637,146.52637,0,0,0-10.42478-12.80988l-3.01995,4.30252,1.73246-5.70292c-4.64119-4.98779-8.03049-7.99693-8.03049-7.99693s-6.67978,22.709-4.91737,44.21818l11.2591,9.81756L230.24688,283.641" transform="translate(-157.152 -136.75151)" fill="#e6e6e6"/><path d="M325.67947,207.63929h-.91128V182.675a14.44866,14.44866,0,0,0-14.4487-14.44867H257.4293A14.44866,14.44866,0,0,0,242.9806,182.675V319.63105a14.44865,14.44865,0,0,0,14.4487,14.44866h52.89019a14.44865,14.44865,0,0,0,14.4487-14.44866V225.4093h.91128Z" transform="translate(-157.152 -136.75151)" fill="#3f3d56"/><path d="M310.90251,171.98537h-6.90393a5.12634,5.12634,0,0,1-4.7463,7.06244H268.95214a5.12636,5.12636,0,0,1-4.7463-7.06244h-6.44828a10.7901,10.7901,0,0,0-10.79011,10.79008V319.53058a10.7901,10.7901,0,0,0,10.79011,10.79009h53.145a10.79009,10.79009,0,0,0,10.7901-10.79009V182.77545A10.79009,10.79009,0,0,0,310.90251,171.98537Z" transform="translate(-157.152 -136.75151)" fill="#fff"/><rect x="115.72938" y="78.02332" width="32.83193" height="1.74932" fill="#6c63ff"/><rect x="115.72938" y="84.07478" width="32.79978" height="1.74932" fill="#6c63ff"/><rect x="115.72938" y="78.02332" width="32.83193" height="1.74932" fill="#6c63ff"/><rect x="115.72938" y="84.07478" width="32.79978" height="1.74932" fill="#6c63ff"/><rect x="97.83098" y="71.99784" width="13.99457" height="13.99457" fill="#6c63ff"/><rect x="115.72938" y="114.75907" width="32.83193" height="1.74932" fill="#6c63ff"/><rect x="115.72938" y="120.81053" width="32.79978" height="1.74932" fill="#6c63ff"/><rect x="97.83098" y="108.73359" width="13.99457" height="13.99457" fill="#6c63ff"/><rect x="115.72938" y="151.49482" width="32.83193" height="1.74932" fill="#6c63ff"/><rect x="115.72938" y="157.54628" width="32.79978" height="1.74932" fill="#6c63ff"/><rect x="97.83098" y="145.46934" width="13.99457" height="13.99457" fill="#6c63ff"/></svg>