<svg id="aca3dd23-1327-4457-bb54-cb32560b3b43" data-name="Layer 1" xmlns="http://www.w3.org/2000/svg" width="725.83286" height="764.55393" viewBox="0 0 725.83286 764.55393"><title>my_location</title><path d="M756.117,236.9466h-3.91268V129.75987a62.03677,62.03677,0,0,0-62.037-62.03683H463.07791A62.03676,62.03676,0,0,0,401.041,129.75987V717.79461a62.03676,62.03676,0,0,0,62.03695,62.03683H690.16735a62.03677,62.03677,0,0,0,62.037-62.03683V313.24393H756.117Z" transform="translate(-237.08357 -67.72304)" fill="#3f3d56"/><rect x="0.2442" y="682.87113" width="718" height="2" fill="#3f3d56"/><path d="M739.00115,130.1957v587.17a46.28867,46.28867,0,0,1-46.33,46.33h-228.18a46.29736,46.29736,0,0,1-46.33-46.33v-587.17a46.29736,46.29736,0,0,1,46.33-46.33h27.68a22.008,22.008,0,0,0,20.38,30.32h130.1a22.008,22.008,0,0,0,20.38-30.32h29.64a46.28848,46.28848,0,0,1,46.33,46.33Z" transform="translate(-237.08357 -67.72304)" opacity="0.2"/><path d="M308.64608,752.48814l-1.07324-.40234c-.23584-.08887-23.7085-9.082-34.7041-29.47363-10.9961-20.39258-5.61182-44.94532-5.55616-45.19043l.25342-1.11817,1.07276.40235c.23583.08886,23.708,9.082,34.7041,29.47363,10.99609,20.39258,5.61181,44.94531,5.55615,45.19043ZM274.62948,721.663c9.29638,17.24121,27.84521,26.0791,32.54492,28.09668.89355-5.03711,3.6958-25.40625-5.59229-42.63086-9.2871-17.22266-27.84326-26.07422-32.54492-28.09668C268.14315,684.07213,265.34188,704.43932,274.62948,721.663Z" transform="translate(-237.08357 -67.72304)" fill="#3f3d56"/><path d="M281.27192,715.45912c19.76057,11.88861,27.371,35.50267,27.371,35.50267s-24.42779,4.33881-44.18836-7.5498-27.371-35.50267-27.371-35.50267S261.51136,703.57051,281.27192,715.45912Z" transform="translate(-237.08357 -67.72304)" fill="#25adec"/><path d="M475.73113,83.86569v679.83h-11.24a45.89717,45.89717,0,0,1-8.76-.83V84.6957a45.89152,45.89152,0,0,1,8.76-.83Z" transform="translate(-237.08357 -67.72304)" fill="#3f3d56"/><rect x="326.64757" y="46.46266" width="20" height="649.51001" fill="#3f3d56"/><path d="M708.73113,86.72567v674.11a46.18567,46.18567,0,0,1-16.06,2.86h-3.94v-679.83h3.94A46.187,46.187,0,0,1,708.73113,86.72567Z" transform="translate(-237.08357 -67.72304)" fill="#3f3d56"/><rect x="181.07756" y="129.34266" width="320.84003" height="20" fill="#3f3d56"/><rect x="181.07756" y="356.34266" width="320.84003" height="20" fill="#3f3d56"/><rect x="330.64757" y="468.34266" width="161" height="20" fill="#3f3d56"/><rect x="326.64757" y="214.34266" width="175.27002" height="20" fill="#3f3d56"/><polygon points="341.098 148.003 338.778 149.343 326.648 156.343 238.648 207.153 218.648 218.703 181.078 240.393 181.078 217.293 218.648 195.603 238.648 184.063 298.778 149.343 326.648 133.253 331.098 130.683 341.098 148.003" fill="#3f3d56"/><rect x="181.07756" y="575.34266" width="320.84003" height="20" fill="#3f3d56"/><path d="M808.73113,283.0657c0,63.51274-115,205-115,205s-115-141.48726-115-205a115,115,0,0,1,230,0Z" transform="translate(-237.08357 -67.72304)" fill="#25adec"/><circle cx="456.64757" cy="210.34266" r="68" opacity="0.2"/><circle cx="454.41227" cy="211.85247" r="25.33333" fill="#25adec"/><path d="M731.04516,353.0657a38,38,0,1,0-74.62805,0Z" transform="translate(-237.08357 -67.72304)" fill="#25adec"/><path d="M813.57119,190.50935s-18.06792-6.45282-29.683,19.35849-29.683,54.20376-29.683,54.20376l10.32453,2.58113s2.58113-18.06792,9.034-20.64905l-2.58114,23.23018s77.43394,27.10188,112.27921-2.58113l-1.29056-9.034s5.16226,1.29056,5.16226,9.034l3.8717-3.8717s-3.8717-7.74339-15.48679-18.06792c-7.62364-6.77657-10.24345-19.66891-11.14373-27.72941a33.556,33.556,0,0,0-7.72548-18.27355C848.9303,189.76449,834.86552,180.25653,813.57119,190.50935Z" transform="translate(-237.08357 -67.72304)" fill="#2f2e41"/><path d="M923.23113,336.5657s34,29,39,46-19,19-19,19l-52,5s-1,24-10,27-1.82713-39.6875-1.82713-39.6875l50.82713-14.3125-23-24Z" transform="translate(-237.08357 -67.72304)" fill="#fbbebe"/><path d="M764.23113,366.5657l-4,53-22,90s-20,41-3,42,16-39,16-39l32-85,3-58Z" transform="translate(-237.08357 -67.72304)" fill="#fbbebe"/><polygon points="545.148 682.843 545.148 721.843 569.148 715.843 562.148 679.843 545.148 682.843" fill="#fbbebe"/><polygon points="673.148 682.843 673.148 721.843 697.148 715.843 690.148 679.843 673.148 682.843" fill="#fbbebe"/><circle cx="583.14757" cy="172.84266" r="33" fill="#fbbebe"/><path d="M805.23113,256.5657s12,43-7,54,48,19,66-14c0,0-32-11-23-40Z" transform="translate(-237.08357 -67.72304)" fill="#fbbebe"/><path d="M782.23113,315.5657l-6-2s-12,5-12,14-2,45-2,45l27,3Z" transform="translate(-237.08357 -67.72304)" fill="#575a89"/><path d="M786.23113,422.51452s-33,42.05118-33,93.05118,8,236,8,236,30,14,48-3l16-210,63,217s30,6,44-4l-27-140s-1-166-31-178S786.23113,422.51452,786.23113,422.51452Z" transform="translate(-237.08357 -67.72304)" fill="#2f2e41"/><path d="M808.23113,777.5657s-26-14-28,5-3,31-3,31-3,23,25,18,18-19,18-19-10-16-10-20S808.23113,777.5657,808.23113,777.5657Z" transform="translate(-237.08357 -67.72304)" fill="#2f2e41"/><path d="M907.67273,777.10987s23.66212-17.66647,28.4307.83382,7.52,30.22332,7.52,30.22332,6.34516,22.31006-22.08554,21.47625-20.59511-16.15059-20.59511-16.15059,7.54188-17.29509,6.95446-21.25172S907.67273,777.10987,907.67273,777.10987Z" transform="translate(-237.08357 -67.72304)" fill="#2f2e41"/><path d="M878.23113,301.5657s13-7,26,8l26,30-20,22-38-23Z" transform="translate(-237.08357 -67.72304)" fill="#575a89"/><path d="M784.57183,240.77494c11.68225-8.45462,21.1388-18.19259,27.39429-29.7764,0,0,21.439,23.82112,34.54064,25.01218s1.19105-28.58535,1.19105-28.58535l-23.82112-5.95528-22.63007,2.38211-17.86585,11.91056Z" transform="translate(-237.08357 -67.72304)" fill="#2f2e41"/><path d="M859.23113,294.5657S845.2368,316.69222,803.234,306.129L779.399,312.69324l-3.1679.87246s3,60,11,71,6,17,4,18-7-1-4,4,7,2,3,5-6,14-6,14l94,12s-3-39,5-59,10-28,10-28l-6-50Z" transform="translate(-237.08357 -67.72304)" fill="#575a89"/><circle cx="466.64757" cy="472.34266" r="31" fill="#25adec"/></svg>