<svg xmlns="http://www.w3.org/2000/svg" xmlns:xlink="http://www.w3.org/1999/xlink" id="Capa_1" x="0" y="0" version="1.1" viewBox="0 0 481.203 481.203" xml:space="preserve" style="enable-background:new 0 0 481.203 481.203"><g><path style="fill:#010002" d="M371.842,0h-262.48C93.015,0,79.717,13.306,79.717,29.645v421.922 c0,16.347,13.306,29.637,29.645,29.637h262.48c16.347,0,29.645-13.298,29.645-29.637V29.645C401.487,13.306,388.18,0,371.842,0z M360.844,440.569H120.352V40.643h240.492C360.844,40.643,360.844,440.569,360.844,440.569z"/><rect style="fill:#010002" width="191.33" height="80.814" x="144.932" y="70.8"/><path style="fill:#010002" d="M154.264,237.094h17.094c5.154,0,9.323-4.178,9.323-9.323v-17.094c0-5.154-4.178-9.323-9.323-9.323 h-17.094c-5.154,0-9.323,4.178-9.323,9.323v17.094C144.932,232.916,149.111,237.094,154.264,237.094z"/><path style="fill:#010002" d="M224.365,201.345h-17.094c-5.154,0-9.323,4.178-9.323,9.323v17.094c0,5.154,4.178,9.323,9.323,9.323 h17.094c5.154,0,9.323-4.178,9.323-9.323v-17.094C233.697,205.523,229.518,201.345,224.365,201.345z"/><path style="fill:#010002" d="M275.656,201.345h-17.094c-5.154,0-9.323,4.178-9.323,9.323v17.094c0,5.154,4.178,9.323,9.323,9.323 h17.094c5.154,0,9.323-4.178,9.323-9.323v-17.094C284.98,205.523,280.802,201.345,275.656,201.345z"/><path style="fill:#010002" d="M154.264,293.043h17.094c5.154,0,9.323-4.178,9.323-9.323v-17.094c0-5.154-4.178-9.323-9.323-9.323 h-17.094c-5.154,0-9.323,4.178-9.323,9.323v17.094C144.932,288.865,149.111,293.043,154.264,293.043z"/><path style="fill:#010002" d="M224.365,257.302h-17.094c-5.154,0-9.323,4.178-9.323,9.323v17.094c0,5.154,4.178,9.323,9.323,9.323 h17.094c5.154,0,9.323-4.178,9.323-9.323v-17.094C233.697,261.472,229.518,257.302,224.365,257.302z"/><path style="fill:#010002" d="M275.656,257.302h-17.094c-5.154,0-9.323,4.178-9.323,9.323v17.094c0,5.154,4.178,9.323,9.323,9.323 h17.094c5.154,0,9.323-4.178,9.323-9.323v-17.094C284.98,261.472,280.802,257.302,275.656,257.302z"/><path style="fill:#010002" d="M326.939,257.302h-17.094c-5.154,0-9.323,4.178-9.323,9.323v73.043c0,5.154,4.178,9.323,9.323,9.323 h17.094c5.154,0,9.323-4.178,9.323-9.323v-73.043C336.271,261.472,332.093,257.302,326.939,257.302z"/><path style="fill:#010002" d="M154.264,348.992h17.094c5.154,0,9.323-4.178,9.323-9.323v-17.094c0-5.154-4.178-9.323-9.323-9.323 h-17.094c-5.154,0-9.323,4.178-9.323,9.323v17.094C144.932,344.822,149.111,348.992,154.264,348.992z"/><path style="fill:#010002" d="M224.365,313.251h-17.094c-5.154,0-9.323,4.178-9.323,9.323v17.094c0,5.154,4.178,9.323,9.323,9.323 h17.094c5.154,0,9.323-4.178,9.323-9.323v-17.094C233.697,317.421,229.518,313.251,224.365,313.251z"/><path style="fill:#010002" d="M275.656,313.251h-17.094c-5.154,0-9.323,4.178-9.323,9.323v17.094c0,5.154,4.178,9.323,9.323,9.323 h17.094c5.154,0,9.323-4.178,9.323-9.323v-17.094C284.98,317.421,280.802,313.251,275.656,313.251z"/><path style="fill:#010002" d="M154.264,404.941h17.094c5.154,0,9.323-4.178,9.323-9.323v-17.094c0-5.154-4.178-9.323-9.323-9.323 h-17.094c-5.154,0-9.323,4.178-9.323,9.323v17.094C144.932,400.771,149.111,404.941,154.264,404.941z"/><path style="fill:#010002" d="M224.365,369.2h-17.094c-5.154,0-9.323,4.178-9.323,9.323v17.094c0,5.154,4.178,9.323,9.323,9.323 h17.094c5.154,0,9.323-4.178,9.323-9.323v-17.094C233.697,373.37,229.518,369.2,224.365,369.2z"/><path style="fill:#010002" d="M275.656,369.2h-17.094c-5.154,0-9.323,4.178-9.323,9.323v17.094c0,5.154,4.178,9.323,9.323,9.323 h17.094c5.154,0,9.323-4.178,9.323-9.323v-17.094C284.98,373.37,280.802,369.2,275.656,369.2z"/><path style="fill:#010002" d="M326.939,369.2h-17.094c-5.154,0-9.323,4.178-9.323,9.323v17.094c0,5.154,4.178,9.323,9.323,9.323 h17.094c5.154,0,9.323-4.178,9.323-9.323v-17.094C336.271,373.37,332.093,369.2,326.939,369.2z"/><path style="fill:#010002" d="M326.939,201.345h-17.094c-5.154,0-9.323,4.178-9.323,9.323v17.094c0,5.154,4.178,9.323,9.323,9.323 h17.094c5.154,0,9.323-4.178,9.323-9.323v-17.094C336.271,205.523,332.093,201.345,326.939,201.345z"/></g></svg>