<svg xmlns="http://www.w3.org/2000/svg" xmlns:xlink="http://www.w3.org/1999/xlink" id="Capa_1" x="0" y="0" version="1.1" viewBox="0 0 301.453 301.453" xml:space="preserve" style="enable-background:new 0 0 301.453 301.453"><g><path style="fill:#000002" d="M267.337,136.098h-65.841c-12.407,0-22.5,10.094-22.5,22.5v120.355c0,12.406,10.093,22.5,22.5,22.5 h65.841c12.407,0,22.5-10.094,22.5-22.5V158.598C289.837,146.191,279.744,136.098,267.337,136.098z M201.496,151.098h65.841 c4.136,0,7.5,3.364,7.5,7.5v97.54h-80.841v-97.54C193.996,154.462,197.36,151.098,201.496,151.098z M267.337,286.453h-65.841 c-4.135,0-7.5-3.364-7.5-7.5v-12.815h80.841v12.815C274.837,283.089,271.473,286.453,267.337,286.453z"/><path style="fill:#000002" d="M239.851,272.66h-10.87c-2.761,0-5,2.238-5,5c0,2.762,2.239,5,5,5h10.87c2.761,0,5-2.238,5-5 C244.851,274.898,242.612,272.66,239.851,272.66z"/><path style="fill:#000002" d="M117.843,129.434c0-2.762-2.239-5-5-5H99.94v-16.211h23.645c12.407,0,22.5-10.094,22.5-22.5V22.5 c0-12.406-10.093-22.5-22.5-22.5H34.116c-12.407,0-22.5,10.094-22.5,22.5v63.223c0,12.406,10.093,22.5,22.5,22.5H57.76v16.211 H44.858c-2.761,0-5,2.238-5,5c0,2.762,2.239,5,5,5h67.984C115.604,134.434,117.843,132.195,117.843,129.434z M26.616,85.723V22.5 c0-4.136,3.365-7.5,7.5-7.5h89.469c4.135,0,7.5,3.364,7.5,7.5v63.223c0,4.136-3.365,7.5-7.5,7.5H34.116 C29.981,93.223,26.616,89.858,26.616,85.723z M89.94,108.223v15.21H67.76v-15.21H89.94z"/><path style="fill:#000002" d="M238.346,112c1.276,2.72,3.976,4.314,6.793,4.314c1.068,0,2.153-0.229,3.183-0.713 c3.749-1.76,5.361-6.228,3.601-9.977c-13.8-29.39-45.924-50.72-83.835-55.665c-4.105-0.534-7.871,2.36-8.407,6.466 c-0.536,4.107,2.359,7.873,6.467,8.407C199.035,69.124,226.699,87.197,238.346,112z"/><path style="fill:#000002" d="M150.912,211.275c-42.561,0-79.691-22.77-90.295-55.371c-1.281-3.938-5.512-6.093-9.452-4.811 c-3.939,1.281-6.094,5.513-4.812,9.452c12.588,38.701,55.585,65.73,104.56,65.73c4.142,0,7.5-3.357,7.5-7.5 C158.412,214.633,155.054,211.275,150.912,211.275z"/></g></svg>