<?xml version="1.0" encoding="iso-8859-1"?>
<!-- Generator: Adobe Illustrator 16.0.0, SVG Export Plug-In . SVG Version: 6.00 Build 0)  -->
<!DOCTYPE svg PUBLIC "-//W3C//DTD SVG 1.1//EN" "http://www.w3.org/Graphics/SVG/1.1/DTD/svg11.dtd">
<svg version="1.1" id="Capa_1" xmlns="http://www.w3.org/2000/svg" xmlns:xlink="http://www.w3.org/1999/xlink" x="0px" y="0px"
	 width="97.492px" height="97.492px" viewBox="0 0 97.492 97.492" style="enable-background:new 0 0 97.492 97.492;"
	 xml:space="preserve">
<g>
	<path d="M79.873,0H17.619c-3.238,0-5.873,2.635-5.873,5.873v85.747c0,3.238,2.635,5.873,5.873,5.873h62.254
		c3.238,0,5.873-2.635,5.873-5.873V5.873C85.746,2.634,83.111,0,79.873,0z M48.746,3.377c0.486,0,0.881,0.395,0.881,0.881
		s-0.395,0.88-0.881,0.88c-0.486,0-0.881-0.395-0.881-0.881S48.26,3.377,48.746,3.377z M48.746,94.261
		c-0.973,0-1.762-0.788-1.762-1.762s0.789-1.763,1.762-1.763c0.973,0,1.762,0.789,1.762,1.763S49.719,94.261,48.746,94.261z
		 M81.048,88.828H16.444V8.662h64.604V88.828z"/>
</g>
<g>
</g>
<g>
</g>
<g>
</g>
<g>
</g>
<g>
</g>
<g>
</g>
<g>
</g>
<g>
</g>
<g>
</g>
<g>
</g>
<g>
</g>
<g>
</g>
<g>
</g>
<g>
</g>
<g>
</g>
</svg>
