<?xml version="1.0" encoding="iso-8859-1"?>
<!-- Generator: Adobe Illustrator 16.0.0, SVG Export Plug-In . SVG Version: 6.00 Build 0)  -->
<!DOCTYPE svg PUBLIC "-//W3C//DTD SVG 1.1//EN" "http://www.w3.org/Graphics/SVG/1.1/DTD/svg11.dtd">
<svg version="1.1" id="Capa_1" xmlns="http://www.w3.org/2000/svg" xmlns:xlink="http://www.w3.org/1999/xlink" x="0px" y="0px"
	 width="109.902px" height="109.902px" viewBox="0 0 109.902 109.902" style="enable-background:new 0 0 109.902 109.902;"
	 xml:space="preserve">
<g>
	<path d="M106.654,15.087H3.252C1.459,15.087,0,16.545,0,18.338v57.297c0,0,0.002,0.002,0.002,0.004v2.863
		c0,1.059,0.857,1.916,1.914,1.916h42.32c-0.172,3.768-1.004,11.33-4.916,12.988c0,0-1.518,1.408,2.73,1.408h7.271h10.021h7.273
		c4.248,0,2.73-1.408,2.73-1.408c-3.912-1.658-4.746-9.221-4.916-12.988h43.594c1.061,0,1.871-0.857,1.871-1.916v-2.777
		c0-0.031,0.008-0.06,0.008-0.09V18.338C109.904,16.545,108.447,15.087,106.654,15.087z M52.869,79.786
		c0-0.895,0.725-1.619,1.619-1.619c0.895,0,1.619,0.725,1.619,1.619s-0.725,1.619-1.619,1.619
		C53.594,81.405,52.869,80.681,52.869,79.786z M106.654,75.991H3.252V18.594c0-0.254,0.205-0.461,0.459-0.461h102.482
		c0.254,0,0.461,0.207,0.461,0.461V75.991z"/>
</g>
<g>
</g>
<g>
</g>
<g>
</g>
<g>
</g>
<g>
</g>
<g>
</g>
<g>
</g>
<g>
</g>
<g>
</g>
<g>
</g>
<g>
</g>
<g>
</g>
<g>
</g>
<g>
</g>
<g>
</g>
</svg>
