<svg xmlns="http://www.w3.org/2000/svg" xmlns:xlink="http://www.w3.org/1999/xlink" id="Capa_1" x="0" y="0" version="1.1" viewBox="0 0 250 250" xml:space="preserve" style="enable-background:new 0 0 250 250"><path d="M203.101,0H46.899v250h156.201V0z M183.101,230H66.899V121.391h116.201V230z M183.101,101.391H66.899V20h116.201V101.391z M125,223.117c26.374,0,47.831-21.458,47.831-47.832c0-26.373-21.457-47.829-47.831-47.829c-26.374,0-47.831,21.456-47.831,47.829	C77.169,201.659,98.626,223.117,125,223.117z M125,147.456c15.346,0,27.831,12.484,27.831,27.829	c0,15.347-12.485,27.832-27.831,27.832s-27.831-12.485-27.831-27.832C97.169,159.94,109.654,147.456,125,147.456z"/></svg>