<?xml version="1.0" encoding="iso-8859-1"?>
<!-- Generator: Adobe Illustrator 16.0.0, SVG Export Plug-In . SVG Version: 6.00 Build 0)  -->
<!DOCTYPE svg PUBLIC "-//W3C//DTD SVG 1.1//EN" "http://www.w3.org/Graphics/SVG/1.1/DTD/svg11.dtd">
<svg version="1.1" id="Capa_1" xmlns="http://www.w3.org/2000/svg" xmlns:xlink="http://www.w3.org/1999/xlink" x="0px" y="0px"
	 width="114.661px" height="114.661px" viewBox="0 0 114.661 114.661" style="enable-background:new 0 0 114.661 114.661;"
	 xml:space="preserve">
<g>
	<path d="M114.515,88.813h-6.816c0.59-0.826,0.946-1.833,0.946-2.925V27.206c0-2.79-2.271-5.059-5.061-5.059H11.011
		c-2.789,0-5.059,2.27-5.059,5.059v58.682c0,1.114,0.374,2.138,0.987,2.976H0.058c0,0-0.309,0.313,0.506,1.127
		c2.311,2.312,7.502,2.512,7.502,2.512v-0.006c0,0,97.234,0.023,97.342,0.017c5.42,0,7.17-1.625,8.603-2.573
		C115.072,88.875,114.515,88.813,114.515,88.813z M63.798,90.047H50.771v-0.885h13.025L63.798,90.047L63.798,90.047z M104.91,84.725
		H9.536V25.558h95.375V84.725z"/>
</g>
<g>
</g>
<g>
</g>
<g>
</g>
<g>
</g>
<g>
</g>
<g>
</g>
<g>
</g>
<g>
</g>
<g>
</g>
<g>
</g>
<g>
</g>
<g>
</g>
<g>
</g>
<g>
</g>
<g>
</g>
</svg>
