<?xml version="1.0" encoding="iso-8859-1"?>
<!-- Generator: Adobe Illustrator 18.1.1, SVG Export Plug-In . SVG Version: 6.00 Build 0)  -->
<svg version="1.1" id="Capa_1" xmlns="http://www.w3.org/2000/svg" xmlns:xlink="http://www.w3.org/1999/xlink" x="0px" y="0px"
	 viewBox="0 0 612 612" style="enable-background:new 0 0 612 612;" xml:space="preserve">
<g>
	<path id="Game_Device" d="M478.359,172.359c-114.906,0-229.812,0-344.718,0C59.834,172.359,0,232.193,0,306
		s59.834,133.641,133.641,133.641c114.906,0,229.812,0,344.718,0C552.168,439.641,612,379.807,612,306
		S552.168,172.359,478.359,172.359z M99.294,318.49c-6.661,0-13.323,0-19.984,0c0,6.661,0,13.323,0,19.984
		c0,6.898-5.592,12.49-12.49,12.49c-6.898,0-12.49-5.592-12.49-12.49c0-6.661,0-13.323,0-19.984c-6.661,0-13.323,0-19.984,0
		c-6.898,0-12.49-5.592-12.49-12.49s5.592-12.49,12.49-12.49c6.661,0,13.323,0,19.984,0c0-6.661,0-13.323,0-19.984
		c0-6.898,5.592-12.49,12.49-12.49c6.898,0,12.49,5.592,12.49,12.49c0,6.661,0,13.323,0,19.984c6.661,0,13.323,0,19.984,0
		c6.898,0,12.49,5.592,12.49,12.49S106.192,318.49,99.294,318.49z M478.359,402.171c0,6.898-5.592,12.49-12.49,12.49
		c-106.579,0-213.16,0-319.739,0c-6.898,0-12.49-5.592-12.49-12.49c0-64.114,0-128.229,0-192.343c0-6.898,5.592-12.49,12.49-12.49
		c106.579,0,213.16,0,319.739,0c6.898,0,12.49,5.592,12.49,12.49C478.359,273.942,478.359,338.058,478.359,402.171z M518.951,318.49
		c-6.898,0-12.49-5.592-12.49-12.49s5.592-12.49,12.49-12.49s12.49,5.592,12.49,12.49S525.849,318.49,518.951,318.49z
		 M545.18,344.718c-6.898,0-12.49-5.592-12.49-12.49c0-6.898,5.592-12.49,12.49-12.49s12.49,5.592,12.49,12.49
		C557.669,339.127,552.078,344.718,545.18,344.718z M545.18,292.261c-6.898,0-12.49-5.592-12.49-12.49s5.592-12.49,12.49-12.49
		s12.49,5.592,12.49,12.49S552.078,292.261,545.18,292.261z M571.408,318.49c-6.898,0-12.49-5.592-12.49-12.49
		s5.592-12.49,12.49-12.49s12.49,5.592,12.49,12.49S578.306,318.49,571.408,318.49z"/>
</g>
<g>
</g>
<g>
</g>
<g>
</g>
<g>
</g>
<g>
</g>
<g>
</g>
<g>
</g>
<g>
</g>
<g>
</g>
<g>
</g>
<g>
</g>
<g>
</g>
<g>
</g>
<g>
</g>
<g>
</g>
</svg>
