<?xml version="1.0" encoding="utf-8"?>
<!-- Uploaded to SVGRepo https://www.svgrepo.com -->
<svg version="1.1" id="Layer_1" xmlns="http://www.w3.org/2000/svg" xmlns:xlink="http://www.w3.org/1999/xlink" x="0px" y="0px"
	 width="260px" height="260px" viewBox="0 0 260 260" enable-background="new 0 0 260 260" xml:space="preserve">
<path d="M211.846,144h-67.693c8.685-8.647,20.652-14,33.846-14S203.161,135.353,211.846,144z M135.361,200h85.279
	c2.541-4.904,4.257-10.297,4.972-16h-95.223C131.103,189.703,132.82,195.096,135.361,200z M178,226c13.194,0,25.161-5.353,33.846-14
	h-67.693C152.839,220.647,164.806,226,178,226z M130.388,172h95.223c-0.715-5.703-2.432-11.096-4.972-16h-85.279
	C132.82,160.904,131.103,166.297,130.388,172z M258,106v144c0,4.418-3.582,8-8,8H10c-4.418,0-8-3.582-8-8V106c0-4.418,3.582-8,8-8
	h41.533l178.529-83.226C230.684,7.617,236.682,2,244,2c7.732,0,14,6.268,14,14s-6.268,14-14,14c-2.987,0-5.75-0.943-8.023-2.537
	L84.667,98H250C254.418,98,258,101.582,258,106z M64.5,206c0-7.732-6.268-14-14-14s-14,6.268-14,14s6.268,14,14,14
	S64.5,213.732,64.5,206z M64.5,150c0-7.732-6.268-14-14-14s-14,6.268-14,14s6.268,14,14,14S64.5,157.732,64.5,150z M238,178
	c0-33.084-26.916-60-60-60s-60,26.916-60,60s26.916,60,60,60S238,211.084,238,178z"/>
</svg>
