<?xml version="1.0" encoding="iso-8859-1"?>
<!-- Generator: Adobe Illustrator 18.0.0, SVG Export Plug-In . SVG Version: 6.00 Build 0)  -->
<!DOCTYPE svg PUBLIC "-//W3C//DTD SVG 1.1//EN" "http://www.w3.org/Graphics/SVG/1.1/DTD/svg11.dtd">
<svg version="1.1" id="Capa_1" xmlns="http://www.w3.org/2000/svg" xmlns:xlink="http://www.w3.org/1999/xlink" x="0px" y="0px"
	 viewBox="0 0 387.48 387.48" style="enable-background:new 0 0 387.48 387.48;" xml:space="preserve">
<g>
	<path d="M357.48,123.241H127.236l164.316-67.738c5.106-2.105,7.539-7.95,5.434-13.057c-2.105-5.106-7.95-7.541-13.057-5.434
		L74.76,123.241H30c-16.542,0-30,13.458-30,30v167.985c0,16.542,13.458,30,30,30h327.48c16.542,0,30-13.458,30-30V153.241
		C387.48,136.699,374.022,123.241,357.48,123.241z M71.74,161.758h184.834v-1.833c0-5.523,4.477-10,10-10c5.523,0,10,4.477,10,10
		v1.833h39.166c5.523,0,10,4.477,10,10c0,5.523-4.477,10-10,10h-244c-5.523,0-10-4.477-10-10
		C61.74,166.235,66.217,161.758,71.74,161.758z M95.668,314.828c-32.139,0-58.285-26.146-58.285-58.285
		c0-32.139,26.146-58.285,58.285-58.285c32.139,0,58.285,26.146,58.285,58.285C153.953,288.681,127.807,314.828,95.668,314.828z
		 M291.813,314.828c-32.139,0-58.285-26.146-58.285-58.285c0-32.139,26.146-58.285,58.285-58.285
		c32.139,0,58.285,26.146,58.285,58.285C350.098,288.681,323.951,314.828,291.813,314.828z"/>
</g>
<g>
</g>
<g>
</g>
<g>
</g>
<g>
</g>
<g>
</g>
<g>
</g>
<g>
</g>
<g>
</g>
<g>
</g>
<g>
</g>
<g>
</g>
<g>
</g>
<g>
</g>
<g>
</g>
<g>
</g>
</svg>
