<?xml version="1.0" encoding="iso-8859-1"?>
<!-- Generator: Adobe Illustrator 16.0.0, SVG Export Plug-In . SVG Version: 6.00 Build 0)  -->
<!DOCTYPE svg PUBLIC "-//W3C//DTD SVG 1.1//EN" "http://www.w3.org/Graphics/SVG/1.1/DTD/svg11.dtd">
<svg version="1.1" id="Capa_1" xmlns="http://www.w3.org/2000/svg" xmlns:xlink="http://www.w3.org/1999/xlink" x="0px" y="0px"
	 width="101.001px" height="101.001px" viewBox="0 0 101.001 101.001" style="enable-background:new 0 0 101.001 101.001;"
	 xml:space="preserve">
<g>
	<path d="M66.132,0H34.87c-5.692,0-10.306,4.614-10.306,10.307v80.387c0,5.692,4.614,10.307,10.306,10.307h31.262
		c5.691,0,10.306-4.614,10.306-10.307V10.306C76.438,4.614,71.823,0,66.132,0z M65.188,6.25c0.759,0,1.375,0.615,1.375,1.375
		c0,0.76-0.616,1.375-1.375,1.375s-1.375-0.615-1.375-1.375C63.813,6.865,64.429,6.25,65.188,6.25z M60.063,7.25
		c0.414,0,0.75,0.336,0.75,0.75c0,0.414-0.336,0.75-0.75,0.75s-0.75-0.336-0.75-0.75C59.313,7.586,59.648,7.25,60.063,7.25z
		 M57.626,7.25c0.414,0,0.75,0.336,0.75,0.75c0,0.414-0.336,0.75-0.75,0.75s-0.75-0.336-0.75-0.75
		C56.876,7.586,57.212,7.25,57.626,7.25z M44.75,4.5h11.5c0.345,0,0.625,0.279,0.625,0.625c0,0.346-0.28,0.625-0.625,0.625h-11.5
		c-0.345,0-0.625-0.279-0.625-0.625C44.125,4.779,44.405,4.5,44.75,4.5z M54.884,98.309h-8.766c-1.446,0-2.617-1.172-2.617-2.617h14
		C57.501,97.137,56.329,98.309,54.884,98.309z M73.056,90.229h-45.11V10.77h45.11V90.229z"/>
</g>
<g>
</g>
<g>
</g>
<g>
</g>
<g>
</g>
<g>
</g>
<g>
</g>
<g>
</g>
<g>
</g>
<g>
</g>
<g>
</g>
<g>
</g>
<g>
</g>
<g>
</g>
<g>
</g>
<g>
</g>
</svg>
