<?xml version="1.0" encoding="iso-8859-1"?>
<!-- Generator: Adobe Illustrator 19.0.0, SVG Export Plug-In . SVG Version: 6.00 Build 0)  -->
<svg version="1.1" id="Layer_1" xmlns="http://www.w3.org/2000/svg" xmlns:xlink="http://www.w3.org/1999/xlink" x="0px" y="0px"
	 viewBox="0 0 512 512" style="enable-background:new 0 0 512 512;" xml:space="preserve">
<path style="fill:#CAF9F4;" d="M438.857,201.532h-11.493v-67.135h11.493c5.771,0,10.449,4.678,10.449,10.449v46.237
	C449.306,196.854,444.628,201.532,438.857,201.532z"/>
<polygon style="fill:#4B92B9;" points="427.364,235.102 427.364,100.827 449.306,100.827 449.306,7.837 141.897,7.837 62.694,87.04 
	62.694,205.317 84.636,205.317 84.636,276.898 62.694,276.898 62.694,504.163 449.306,504.163 449.306,235.102 "/>
<path style="fill:#79CAE8;" d="M371.2,429.714H140.8c-11.542,0-20.898-9.356-20.898-20.898V122.776
	c0-11.542,9.356-20.898,20.898-20.898h230.4c11.542,0,20.898,9.356,20.898,20.898v286.041
	C392.098,420.358,382.742,429.714,371.2,429.714z"/>
<path style="fill:#CAF9F4;" d="M351.76,478.955H166.813c-6.636,0-12.016-5.38-12.016-12.016l0,0c0-6.636,5.38-12.016,12.016-12.016
	H351.76c6.636,0,12.016,5.38,12.016,12.016l0,0C363.776,473.575,358.396,478.955,351.76,478.955z"/>
<path d="M457.143,108.663V0H138.651L54.857,83.794v129.359h21.942v55.908H54.857V512h402.286V227.265h-21.942v-17.897h3.656
	c10.082,0,18.286-8.204,18.286-18.286v-46.237c0-10.082-8.203-18.286-18.286-18.286h-3.656v-17.897
	C435.201,108.663,457.143,108.663,457.143,108.663z M441.469,242.939v253.388H70.531V284.735h21.942v-87.255H70.531V90.285
	l74.612-74.612h296.327V92.99h-21.942v149.949H441.469z M438.857,142.234c1.441,0,2.612,1.171,2.612,2.612v46.237
	c0,1.441-1.171,2.612-2.612,2.612h-3.656v-51.461H438.857z"/>
<path d="M371.2,94.041H140.8c-15.844,0-28.735,12.891-28.735,28.735v286.041c0,15.844,12.891,28.735,28.735,28.735h230.4
	c15.844,0,28.735-12.891,28.735-28.735V122.776C399.935,106.932,387.044,94.041,371.2,94.041z M384.261,408.816
	c0,7.202-5.859,13.061-13.061,13.061H140.8c-7.202,0-13.061-5.859-13.061-13.061V122.776c0-7.202,5.859-13.061,13.061-13.061h230.4
	c7.202,0,13.061,5.859,13.061,13.061V408.816z"/>
<path d="M351.76,447.086H166.813c-10.947,0-19.853,8.906-19.853,19.853s8.906,19.853,19.853,19.853H351.76
	c10.947,0,19.853-8.906,19.853-19.853S362.706,447.086,351.76,447.086z M351.76,471.118H166.813c-2.305,0-4.18-1.875-4.18-4.18
	c0-2.305,1.875-4.18,4.18-4.18H351.76c2.305,0,4.18,1.875,4.18,4.18C355.939,469.244,354.065,471.118,351.76,471.118z"/>
<g>
</g>
<g>
</g>
<g>
</g>
<g>
</g>
<g>
</g>
<g>
</g>
<g>
</g>
<g>
</g>
<g>
</g>
<g>
</g>
<g>
</g>
<g>
</g>
<g>
</g>
<g>
</g>
<g>
</g>
</svg>
