<svg xmlns="http://www.w3.org/2000/svg" xmlns:xlink="http://www.w3.org/1999/xlink" id="Capa_1" width="195.045" height="195.045" x="0" style="enable-background:new 0 0 195.045 195.045" y="0" version="1.1" viewBox="0 0 195.045 195.045" xml:space="preserve"><g><g id="_x31_28_29_"><g><path d="M92.288,0h-6.157H24.002h-7.3v12.969H5.201v6.487v129.725v6.353h13.223v33.936v5.576h5.578h5.527 c17.062,0,34.126,0,51.188,0h5.408h5.703v-39.517h13.104v-6.348V19.451v-6.482H92.288V0z M29.583,183.884 c0-9.445,0-18.9,0-28.355h50.978c0,9.455,0,18.91,0,28.355C63.569,183.884,46.571,183.884,29.583,183.884z"/><path d="M39.586,164.963c0,2.255,0,4.515,0,6.774c0,7.195,11.159,7.195,11.159,0c0-2.26,0-4.52,0-6.774 C50.745,157.772,39.586,157.772,39.586,164.963z"/><path d="M59.373,164.963c0,2.255,0,4.515,0,6.774c0,7.195,11.159,7.195,11.159,0c0-2.26,0-4.52,0-6.774 C70.537,157.772,59.373,157.772,59.373,164.963z"/><path d="M148.999,16.971l-3.26,7.437c19.52,10.336,32.682,32.009,34.662,54.405c2.143,24.306-11.853,44.45-31.412,55.591 l4.412,8.435c22.069-12.689,35.866-35.865,36.43-64.348C190.385,50.267,172.515,28.178,148.999,16.971z"/><path d="M170.921,77.571c0.391-20.312-12.152-36.3-28.869-44.765l-3.452,7.866c12.893,7.487,21.561,22.089,22.886,37.222 c1.488,16.933-8.2,30.952-21.779,38.768l4.393,8.379C160.349,115.666,170.504,98.568,170.921,77.571z"/><path d="M152.066,78.221c0.238-12.646-7.308-22.693-17.52-28.292l-3.361,7.617c13.924,8.595,14.086,32.364-0.265,42.338 l4.438,8.465C145.439,102.199,151.802,91.454,152.066,78.221z"/><path d="M126.442,68.357l-3.899,8.881c1.279,1.97,1.33,4.669,0.102,6.802l4.661,8.892c3.615-2.866,5.86-7.259,5.957-12.512 C133.369,75.205,130.484,70.972,126.442,68.357z"/></g></g></g></svg>