<?xml version="1.0" encoding="iso-8859-1"?>
<!-- Generator: Adobe Illustrator 18.0.0, SVG Export Plug-In . SVG Version: 6.00 Build 0)  -->
<!DOCTYPE svg PUBLIC "-//W3C//DTD SVG 1.1//EN" "http://www.w3.org/Graphics/SVG/1.1/DTD/svg11.dtd">
<svg version="1.1" id="Capa_1" xmlns="http://www.w3.org/2000/svg" xmlns:xlink="http://www.w3.org/1999/xlink" x="0px" y="0px"
	 viewBox="0 0 350.993 350.993" style="enable-background:new 0 0 350.993 350.993;" xml:space="preserve">
<path d="M302.376,66.282h-98.68l59.193-48.019c4.289-3.48,4.946-9.777,1.466-14.066c-3.48-4.289-9.777-4.945-14.066-1.466
	l-74.794,60.675L100.703,2.73c-4.288-3.478-10.586-2.823-14.066,1.466c-3.479,4.289-2.823,10.586,1.466,14.066l59.193,48.019h-98.68
	C21.81,66.282,0,88.09,0,114.897v164.117c0,26.807,21.81,48.616,48.617,48.616h1.86v12.867c0,5.523,4.477,10,10,10h32.548
	c5.523,0,10-4.477,10-10V327.63h144.943v12.867c0,5.523,4.477,10,10,10h32.548c5.523,0,10-4.477,10-10V327.63h1.86
	c26.807,0,48.617-21.809,48.617-48.616V114.897C350.993,88.09,329.184,66.282,302.376,66.282z M227.352,279.014
	c0,6.083-4.95,11.033-11.033,11.033H48.892c-6.084,0-11.033-4.95-11.033-11.033V114.897c0-6.084,4.949-11.034,11.033-11.034h167.426
	c6.083,0,11.033,4.95,11.033,11.034V279.014z M296.066,111.075c9.125,0,16.549,7.424,16.549,16.55s-7.424,16.549-16.549,16.549
	s-16.55-7.424-16.55-16.549S286.94,111.075,296.066,111.075z M296.066,172.859c9.125,0,16.549,7.424,16.549,16.55
	c0,9.126-7.424,16.55-16.549,16.55s-16.55-7.424-16.55-16.55C279.516,180.284,286.94,172.859,296.066,172.859z M302.376,307.63
	h-37.442v-24.546h65.764C328.716,296.941,316.774,307.63,302.376,307.63z M330.993,263.083h-66.059v-21.926h66.059V263.083z"/>
<g>
</g>
<g>
</g>
<g>
</g>
<g>
</g>
<g>
</g>
<g>
</g>
<g>
</g>
<g>
</g>
<g>
</g>
<g>
</g>
<g>
</g>
<g>
</g>
<g>
</g>
<g>
</g>
<g>
</g>
</svg>
