<svg xmlns="http://www.w3.org/2000/svg" xmlns:xlink="http://www.w3.org/1999/xlink" id="Layer_1" width="1350" height="900" x="0" y="0" enable-background="new 0 0 1350 900" version="1.1" viewBox="0 0 1350 900" xml:space="preserve"><rect width="1350" height="910" x=".486" y="-3" fill="#121222"/><defs><path id="path1" fill="#FFF" d="M176,209.88c0,4.308-3.424,7.8-7.647,7.8h-36.706c-4.223,0-7.647-3.492-7.647-7.8v-19.76	c0-4.308,3.424-7.8,7.647-7.8h36.706c4.223,0,7.647,3.492,7.647,7.8V209.88z" opacity="1"><animate attributeName="opacity" dur="5s" repeatCount="indefinite" values="0;1;0"/></path></defs><use transform="translate(150 200)" xlink:href="#path1"><animateTransform attributeName="transform" begin="0s" dur="14s" repeatCount="indefinite" type="scale" values="1,1; 2,2"/><animate attributeName="opacity" dur="3.5s" repeatCount="indefinite" values="0;1;0"/></use><defs><path id="path2" fill="#FFF" d="M387.875,369.88c0,4.308-3.424,7.8-7.647,7.8h-36.706c-4.223,0-7.647-3.492-7.647-7.8v-19.76	c0-4.308,3.424-7.8,7.647-7.8h36.706c4.223,0,7.647,3.492,7.647,7.8V369.88z" opacity="1"><animate attributeName="opacity" dur="5s" repeatCount="indefinite" values="0;1;0"/></path></defs><use transform="translate(250 300)" xlink:href="#path2"><animateTransform attributeName="transform" begin="0s" dur="12s" repeatCount="indefinite" type="scale" values="1,1; 2,2"/><animate attributeName="opacity" dur="4.5s" repeatCount="indefinite" values="0;1;0"/></use><defs><path id="path3" fill="#FFF" d="M814,360.88c0,4.308-3.424,7.8-7.647,7.8h-36.706c-4.223,0-7.647-3.492-7.647-7.8v-19.76	c0-4.308,3.424-7.8,7.647-7.8h36.706c4.223,0,7.647,3.492,7.647,7.8V360.88z" opacity="1"><animate attributeName="opacity" dur="5s" repeatCount="indefinite" values="0;1;0"/></path></defs><use transform="translate(250 300)" xlink:href="#path3"><animateTransform attributeName="transform" begin="0s" dur="15s" repeatCount="indefinite" type="scale" values="1,1; 2,2"/><animate attributeName="opacity" dur="3.40s" repeatCount="indefinite" values="0;1;0"/></use><defs><path id="path4" fill="#FFF" d="M819.647,525.2c0,4.308-3.424,7.8-7.647,7.8h-36.706c-4.223,0-7.647-3.492-7.647-7.8v-19.76	c0-4.308,3.424-7.8,7.647-7.8H812c4.223,0,7.647,3.492,7.647,7.8V525.2z" opacity="1"><animate attributeName="opacity" dur="5s" repeatCount="indefinite" values="0;1;0"/></path></defs><use transform="translate(250 300)" xlink:href="#path4"><animateTransform attributeName="transform" begin="0s" dur="10s" repeatCount="indefinite" type="scale" values="1,1; 1.75,1.75"/><animate attributeName="opacity" dur="3.5s" repeatCount="indefinite" values="0;1;0"/></use><defs><path id="path5" fill="#FFF" d="M1025.647,231.2c0,4.308-3.424,7.8-7.647,7.8h-36.706c-4.223,0-7.647-3.492-7.647-7.8v-19.76	c0-4.308,3.424-7.8,7.647-7.8H1018c4.223,0,7.647,3.492,7.647,7.8V231.2z" opacity="1"><animate attributeName="opacity" dur="5s" repeatCount="indefinite" values="0;1;0"/></path></defs><use transform="translate(250 300)" xlink:href="#path5"><animateTransform attributeName="transform" begin="0s" dur="8s" repeatCount="indefinite" type="scale" values="1,1; 2.25,2.25"/><animate attributeName="opacity" dur="4s" repeatCount="indefinite" values="0;1;0"/></use><defs><path id="path6" fill="#FFF" d="M281.647,697.2c0,4.308-3.424,7.8-7.647,7.8h-36.706c-4.223,0-7.647-3.492-7.647-7.8v-19.76	c0-4.308,3.424-7.8,7.647-7.8H274c4.223,0,7.647,3.492,7.647,7.8V697.2z" opacity="1"><animate attributeName="opacity" dur="5s" repeatCount="indefinite" values="0;1;0"/></path></defs><use transform="translate(250 300)" xlink:href="#path6"><animateTransform attributeName="transform" begin="0s" dur="10s" repeatCount="indefinite" type="scale" values="1,1; 2.10,2.10"/><animate attributeName="opacity" dur="4.25s" repeatCount="indefinite" values="0;1;0"/></use><defs><path id="path7" fill="#FFF" d="M561.647,101.2c0,4.308-3.424,7.8-7.647,7.8h-36.706c-4.223,0-7.647-3.492-7.647-7.8V81.44	c0-4.308,3.424-7.8,7.647-7.8H554c4.223,0,7.647,3.492,7.647,7.8V101.2z" opacity="1"><animate attributeName="opacity" dur="5s" repeatCount="indefinite" values="0;1;0"/></path></defs><use transform="translate(250 300)" xlink:href="#path7"><animateTransform attributeName="transform" begin="0s" dur="17s" repeatCount="indefinite" type="scale" values="1,1; 1.30,1.30"/><animate attributeName="opacity" dur="3.75s" repeatCount="indefinite" values="0;1;0"/></use><defs><path id="path8" fill="#FFF" d="M914,94.88c0,4.308-3.424,7.8-7.647,7.8h-36.706c-4.223,0-7.647-3.492-7.647-7.8V75.12	c0-4.308,3.424-7.8,7.647-7.8h36.706c4.223,0,7.647,3.492,7.647,7.8V94.88z" opacity="1"><animate attributeName="opacity" dur="4s" repeatCount="indefinite" values="0;1;0"/></path></defs><use transform="translate(250 300)" xlink:href="#path8"><animateTransform attributeName="transform" begin="0s" dur="16s" repeatCount="indefinite" type="scale" values="1,1; 2,2"/><animate attributeName="opacity" dur="3s" repeatCount="indefinite" values="0;1;0"/></use><defs><path id="path9" fill="#FFF" d="M98,384.88c0,4.308-3.424,7.8-7.647,7.8H53.647c-4.223,0-7.647-3.492-7.647-7.8v-19.76	c0-4.308,3.424-7.8,7.647-7.8h36.706c4.223,0,7.647,3.492,7.647,7.8V384.88z" opacity="1"><animate attributeName="opacity" dur="5s" repeatCount="indefinite" values="0;1;0"/></path></defs><use transform="translate(250 300)" xlink:href="#path9"><animateTransform attributeName="transform" begin="0s" dur="9s" repeatCount="indefinite" type="scale" values="1,1; 2.5,2.5"/><animate attributeName="opacity" dur="4.5s" repeatCount="indefinite" values="0;1;0"/></use><defs><path id="path10" fill="#FFF" d="M96,80.88c0,4.308-3.424,7.8-7.647,7.8H51.647c-4.223,0-7.647-3.492-7.647-7.8V61.12	c0-4.308,3.424-7.8,7.647-7.8h36.706c4.223,0,7.647,3.492,7.647,7.8V80.88z" opacity="1"><animate attributeName="opacity" dur="3s" repeatCount="indefinite" values="0;1;0"/></path></defs><use transform="translate(250 300)" xlink:href="#path10"><animateTransform attributeName="transform" begin="0s" dur="20s" repeatCount="indefinite" type="scale" values="1,1; 2,2"/><animate attributeName="opacity" dur="5s" repeatCount="indefinite" values="0;1;0"/></use><defs><path id="path11" fill="#FFF" d="M964,396.88c0,4.308-3.424,7.8-7.647,7.8h-36.706c-4.223,0-7.647-3.492-7.647-7.8v-19.76	c0-4.308,3.424-7.8,7.647-7.8h36.706c4.223,0,7.647,3.492,7.647,7.8V396.88z" opacity="1"><animate attributeName="opacity" dur="4s" repeatCount="indefinite" values="0;1;0"/></path></defs><use transform="translate(250 300)" xlink:href="#path11"><animateTransform attributeName="transform" begin="0s" dur="15s" repeatCount="indefinite" type="scale" values="1,1; 1.75,1.75"/><animate attributeName="opacity" dur="3.75s" repeatCount="indefinite" values="0;1;0"/></use><defs><path id="path12" fill="#FFF" d="M1050,656.88c0,4.308-3.424,7.8-7.647,7.8h-36.706c-4.223,0-7.647-3.492-7.647-7.8v-19.76	c0-4.308,3.424-7.8,7.647-7.8h36.706c4.223,0,7.647,3.492,7.647,7.8V656.88z" opacity="1"><animate attributeName="opacity" dur="4s" repeatCount="indefinite" values="0;1;0"/></path></defs><use transform="translate(200 150)" xlink:href="#path12"><animateTransform attributeName="transform" begin="0s" dur="7s" repeatCount="indefinite" type="scale" values="1,1; 2,2"/><animate attributeName="opacity" dur="5s" repeatCount="indefinite" values="0;1;0"/></use></svg>