<?xml version="1.0" encoding="utf-8"?>
<!DOCTYPE svg PUBLIC "-//W3C//DTD SVG 1.1//EN" "http://www.w3.org/Graphics/SVG/1.1/DTD/svg11.dtd">
<svg version="1.1" id="Layer_1" xmlns="http://www.w3.org/2000/svg" xmlns:xlink="http://www.w3.org/1999/xlink" x="0px" y="0px"
	 width="1350px" height="900px" viewBox="0 0 1350 900" enable-background="new 0 0 1350 900" xml:space="preserve">


<rect x="0.486" y="-3" fill="#121222" width="1350" height="910"/>

<!-- 1  -->
<defs>
	<path opacity="1" id="path1" fill="#FFFFFF" d="M176,209.88c0,4.308-3.424,7.8-7.647,7.8h-36.706c-4.223,0-7.647-3.492-7.647-7.8v-19.76
	c0-4.308,3.424-7.8,7.647-7.8h36.706c4.223,0,7.647,3.492,7.647,7.8V209.88z">
	<animate attributeName="opacity" values="0;1;0"  dur="5s" repeatCount="indefinite" />
</path>
</defs>
	<use xlink:href="#path1" transform="translate(150 200)">
        <animateTransform attributeName="transform" type="scale" begin="0s" dur="14s" values="1,1; 2,2" repeatCount="indefinite" />
        <animate attributeName="opacity" values="0;1;0"  dur="3.5s" repeatCount="indefinite" />
    </use> 


<!-- 2  -->
    <defs>
	<path opacity="1" id="path2" fill="#FFFFFF" d="M387.875,369.88c0,4.308-3.424,7.8-7.647,7.8h-36.706c-4.223,0-7.647-3.492-7.647-7.8v-19.76
	c0-4.308,3.424-7.8,7.647-7.8h36.706c4.223,0,7.647,3.492,7.647,7.8V369.88z">
	<animate attributeName="opacity" values="0;1;0"  dur="5s" repeatCount="indefinite" />
</path>
</defs>
	<use xlink:href="#path2" transform="translate(250 300)">
        <animateTransform attributeName="transform" type="scale" begin="0s" dur="12s" values="1,1; 2,2" repeatCount="indefinite" />
        <animate attributeName="opacity" values="0;1;0"  dur="4.5s" repeatCount="indefinite" />
    </use> 

<!-- 3  -->
    <defs>
	<path opacity="1" id="path3" fill="#FFFFFF" d="M814,360.88c0,4.308-3.424,7.8-7.647,7.8h-36.706c-4.223,0-7.647-3.492-7.647-7.8v-19.76
	c0-4.308,3.424-7.8,7.647-7.8h36.706c4.223,0,7.647,3.492,7.647,7.8V360.88z">
	<animate attributeName="opacity" values="0;1;0"  dur="5s" repeatCount="indefinite" />
</path>
</defs>
	<use xlink:href="#path3" transform="translate(250 300)">
        <animateTransform attributeName="transform" type="scale" begin="0s" dur="15s" values="1,1; 2,2" repeatCount="indefinite" />
        <animate attributeName="opacity" values="0;1;0"  dur="3.40s" repeatCount="indefinite" />
    </use> 

<!-- 4  -->
    <defs>
	<path opacity="1" id="path4" fill="#FFFFFF" d="M819.647,525.2c0,4.308-3.424,7.8-7.647,7.8h-36.706c-4.223,0-7.647-3.492-7.647-7.8v-19.76
	c0-4.308,3.424-7.8,7.647-7.8H812c4.223,0,7.647,3.492,7.647,7.8V525.2z">
	<animate attributeName="opacity" values="0;1;0"  dur="5s" repeatCount="indefinite" />
</path>
</defs>
	<use xlink:href="#path4" transform="translate(250 300)">
        <animateTransform attributeName="transform" type="scale" begin="0s" dur="10s" values="1,1; 1.75,1.75" repeatCount="indefinite" />
        <animate attributeName="opacity" values="0;1;0"  dur="3.5s" repeatCount="indefinite" />
    </use> 

<!-- 5  -->
    <defs>
	<path opacity="1" id="path5" fill="#FFFFFF" d="M1025.647,231.2c0,4.308-3.424,7.8-7.647,7.8h-36.706c-4.223,0-7.647-3.492-7.647-7.8v-19.76
	c0-4.308,3.424-7.8,7.647-7.8H1018c4.223,0,7.647,3.492,7.647,7.8V231.2z">
	<animate attributeName="opacity" values="0;1;0"  dur="5s" repeatCount="indefinite" />
</path>
</defs>
	<use xlink:href="#path5" transform="translate(250 300)">
        <animateTransform attributeName="transform" type="scale" begin="0s" dur="8s" values="1,1; 2.25,2.25" repeatCount="indefinite" />
        <animate attributeName="opacity" values="0;1;0"  dur="4s" repeatCount="indefinite" />
    </use> 

<!-- 6  -->
    <defs>
	<path opacity="1" id="path6" fill="#FFFFFF" d="M281.647,697.2c0,4.308-3.424,7.8-7.647,7.8h-36.706c-4.223,0-7.647-3.492-7.647-7.8v-19.76
	c0-4.308,3.424-7.8,7.647-7.8H274c4.223,0,7.647,3.492,7.647,7.8V697.2z">
	<animate attributeName="opacity" values="0;1;0"  dur="5s" repeatCount="indefinite" />
</path>
</defs>
	<use xlink:href="#path6" transform="translate(250 300)">
        <animateTransform attributeName="transform" type="scale" begin="0s" dur="10s" values="1,1; 2.10,2.10" repeatCount="indefinite" />
        <animate attributeName="opacity" values="0;1;0"  dur="4.25s" repeatCount="indefinite" />
    </use>

<!-- 7  -->
    <defs>
	<path opacity="1" id="path7" fill="#FFFFFF" d="M561.647,101.2c0,4.308-3.424,7.8-7.647,7.8h-36.706c-4.223,0-7.647-3.492-7.647-7.8V81.44
	c0-4.308,3.424-7.8,7.647-7.8H554c4.223,0,7.647,3.492,7.647,7.8V101.2z">
	<animate attributeName="opacity" values="0;1;0"  dur="5s" repeatCount="indefinite" />
</path>
</defs>
	<use xlink:href="#path7" transform="translate(250 300)">
        <animateTransform attributeName="transform" type="scale" begin="0s" dur="17s" values="1,1; 1.30,1.30" repeatCount="indefinite" />
        <animate attributeName="opacity" values="0;1;0"  dur="3.75s" repeatCount="indefinite" />
    </use>

<!-- 8  -->
<defs>
	<path opacity="1" id="path8" fill="#FFFFFF" d="M914,94.88c0,4.308-3.424,7.8-7.647,7.8h-36.706c-4.223,0-7.647-3.492-7.647-7.8V75.12
	c0-4.308,3.424-7.8,7.647-7.8h36.706c4.223,0,7.647,3.492,7.647,7.8V94.88z">
	<animate attributeName="opacity" values="0;1;0"  dur="4s" repeatCount="indefinite" />
</path>
</defs>
	<use xlink:href="#path8" transform="translate(250 300)">
        <animateTransform attributeName="transform" type="scale" begin="0s" dur="16s" values="1,1; 2,2" repeatCount="indefinite" />
        <animate attributeName="opacity" values="0;1;0"  dur="3s" repeatCount="indefinite" />
    </use>

<!-- 9 -->
<defs>
	<path opacity="1" id="path9" fill="#FFFFFF" d="M98,384.88c0,4.308-3.424,7.8-7.647,7.8H53.647c-4.223,0-7.647-3.492-7.647-7.8v-19.76
	c0-4.308,3.424-7.8,7.647-7.8h36.706c4.223,0,7.647,3.492,7.647,7.8V384.88z">
	<animate attributeName="opacity" values="0;1;0"  dur="5s" repeatCount="indefinite" />
</path>
</defs>
	<use xlink:href="#path9" transform="translate(250 300)">
        <animateTransform attributeName="transform" type="scale" begin="0s" dur="9s" values="1,1; 2.5,2.5" repeatCount="indefinite" />
        <animate attributeName="opacity" values="0;1;0"  dur="4.5s" repeatCount="indefinite" />
    </use>

<!-- 10 -->
<defs>
	<path opacity="1" id="path10" fill="#FFFFFF" d="M96,80.88c0,4.308-3.424,7.8-7.647,7.8H51.647c-4.223,0-7.647-3.492-7.647-7.8V61.12
	c0-4.308,3.424-7.8,7.647-7.8h36.706c4.223,0,7.647,3.492,7.647,7.8V80.88z">
	<animate attributeName="opacity" values="0;1;0"  dur="3s" repeatCount="indefinite" />
</path>
</defs>
	<use xlink:href="#path10" transform="translate(250 300)">
        <animateTransform attributeName="transform" type="scale" begin="0s" dur="20s" values="1,1; 2,2" repeatCount="indefinite" />
        <animate attributeName="opacity" values="0;1;0"  dur="5s" repeatCount="indefinite" />
    </use>
<!-- 11 -->
<defs>
	<path opacity="1" id="path11" fill="#FFFFFF" d="M964,396.88c0,4.308-3.424,7.8-7.647,7.8h-36.706c-4.223,0-7.647-3.492-7.647-7.8v-19.76
	c0-4.308,3.424-7.8,7.647-7.8h36.706c4.223,0,7.647,3.492,7.647,7.8V396.88z">
	<animate attributeName="opacity" values="0;1;0"  dur="4s" repeatCount="indefinite" />
</path>
</defs>
	<use xlink:href="#path11" transform="translate(250 300)">
        <animateTransform attributeName="transform" type="scale" begin="0s" dur="15s" values="1,1; 1.75,1.75" repeatCount="indefinite" />
        <animate attributeName="opacity" values="0;1;0"  dur="3.75s" repeatCount="indefinite" />
    </use>

<!-- 12 -->
<defs>
	<path opacity="1" id="path12" fill="#FFFFFF" d="M1050,656.88c0,4.308-3.424,7.8-7.647,7.8h-36.706c-4.223,0-7.647-3.492-7.647-7.8v-19.76
	c0-4.308,3.424-7.8,7.647-7.8h36.706c4.223,0,7.647,3.492,7.647,7.8V656.88z">
	<animate attributeName="opacity" values="0;1;0"  dur="4s" repeatCount="indefinite" />
</path>
</defs>
	<use xlink:href="#path12" transform="translate(200 150)">
        <animateTransform attributeName="transform" type="scale" begin="0s" dur="7s" values="1,1; 2,2" repeatCount="indefinite" />
        <animate attributeName="opacity" values="0;1;0"  dur="5s" repeatCount="indefinite" />
    </use>
</svg>
