<?xml version="1.0" encoding="utf-8"?>
<!-- Generator: Adobe Illustrator 17.0.0, SVG Export Plug-In . SVG Version: 6.00 Build 0)  -->
<!DOCTYPE svg PUBLIC "-//W3C//DTD SVG 1.1//EN" "http://www.w3.org/Graphics/SVG/1.1/DTD/svg11.dtd">
<svg version="1.1" xmlns="http://www.w3.org/2000/svg" xmlns:xlink="http://www.w3.org/1999/xlink" x="0px" y="0px" width="1800px"
	 height="1200px" viewBox="0 0 1800 1200" enable-background="new 0 0 1800 1200" xml:space="preserve">
<g id="Layer_1">
	<rect x="-24.273" y="-24.243" fill="#0F151E" stroke="#000000" stroke-miterlimit="10" width="1866.187" height="1254.125"/>
</g>
<g id="Layer_2">
	<path fill="#F1F2F2" stroke="#000000" stroke-miterlimit="10" d="M47.734,1205.88c0,6.628-5.373,12.001-12.001,12.001l0,0
		c-6.628,0-12.001-5.373-12.001-12.001V881.847c0-6.628,5.373-12.001,12.001-12.001l0,0c6.628,0,12.001,5.373,12.001,12.001V1205.88
		z">

		<animateTransform attributeName="transform"
                          attributeType="XML"
                          type="translate"
                          dur="3s"
                          values="0,1200;0,-1200;"
                          repeatCount="indefinite"/>
	</path>

	<path fill="#F15A29" stroke="#000000" stroke-miterlimit="10" d="M404.77,1091.868c0,6.628-5.373,12.001-12.001,12.001l0,0
		c-6.628,0-12.001-5.373-12.001-12.001V767.836c0-6.628,5.373-12.001,12.001-12.001l0,0c6.628,0,12.001,5.373,12.001,12.001
		V1091.868z">

		<animateTransform attributeName="transform"
                          attributeType="XML"
                          type="translate"
                          dur="2s"
                          values="0,1200;0,-1200;"
                          repeatCount="indefinite"/>
	</path>

	<path fill="#F1F2F2" stroke="#000000" stroke-miterlimit="10" d="M308.76,806.84c0,6.628-5.373,12.001-12.001,12.001l0,0
		c-6.628,0-12.001-5.373-12.001-12.001V482.807c0-6.628,5.373-12.001,12.001-12.001l0,0c6.628,0,12.001,5.373,12.001,12.001V806.84z
		">

		<animateTransform attributeName="transform"
                          attributeType="XML"
                          type="translate"
                          dur="1s"
                          values="0,1200;0,-1200;"
                          repeatCount="indefinite"/>
	</path>

	<path fill="#00AEEF" stroke="#000000" stroke-miterlimit="10" d="M128.742,671.826c0,6.628-5.373,12.001-12.001,12.001l0,0
		c-6.628,0-12.001-5.373-12.001-12.001V347.794c0-6.628,5.373-12.001,12.001-12.001l0,0c6.628,0,12.001,5.373,12.001,12.001V671.826
		z">

		<animateTransform attributeName="transform"
                          attributeType="XML"
                          type="translate"
                          dur="2.5s"
                          values="0,1200;0,-1200;"
                          repeatCount="indefinite"/>
	</path>
	<path fill="#F1F2F2" stroke="#000000" stroke-miterlimit="10" d="M527.782,1199.983c0,4.914-5.373,8.897-12.001,8.897l0,0
		c-6.628,0-12.001-3.984-12.001-8.897V959.752c0-4.914,5.373-8.897,12.001-8.897l0,0c6.628,0,12.001,3.984,12.001,8.897V1199.983z"
		>

		<animateTransform attributeName="transform"
                          attributeType="XML"
                          type="translate"
                          dur="1.5s"
                          values="0,1200;0,-1200;"
                          repeatCount="indefinite"/>
	</path>

	<path fill="#F15A29" stroke="#000000" stroke-miterlimit="10" d="M671.796,1135.114c0,9.256-5.373,16.76-12.001,16.76l0,0
		c-6.628,0-12.001-7.504-12.001-16.76V682.586c0-9.256,5.373-16.76,12.001-16.76l0,0c6.628,0,12.001,7.504,12.001,16.76V1135.114z"
		>

		<animateTransform attributeName="transform"
                          attributeType="XML"
                          type="translate"
                          dur="1.25s"
                          values="0,1200;0,-1200;"
                          repeatCount="indefinite"/>
	</path>

	<path fill="#F1F2F2" stroke="#000000" stroke-miterlimit="10" d="M800.809,1261.54c0,7.371-5.373,13.346-12.001,13.346l0,0
		c-6.628,0-12.001-5.975-12.001-13.346V901.194c0-7.371,5.373-13.346,12.001-13.346l0,0c6.628,0,12.001,5.975,12.001,13.346V1261.54
		z">

		<animateTransform attributeName="transform"
                          attributeType="XML"
                          type="translate"
                          dur="3s"
                          values="0,1200;0,-1200;"
                          repeatCount="indefinite"/>
	</path>

	<path fill="#00AEEF" stroke="#000000" stroke-miterlimit="10" d="M1268.856,598.578c0,5.657-4.03,10.242-9.001,10.242l0,0
		c-4.971,0-9.001-4.586-9.001-10.242V322.033c0-5.657,4.03-10.242,9.001-10.242l0,0c4.971,0,9.001,4.586,9.001,10.242V598.578z">

		<animateTransform attributeName="transform"
                          attributeType="XML"
                          type="translate"
                          dur="2s"
                          values="0,1200;0,-1200;"
                          repeatCount="indefinite"/>
	</path>

	<path fill="#F15A29" stroke="#000000" stroke-miterlimit="10" d="M1028.832,592.474c0,7.371-5.373,13.346-12.001,13.346l0,0
		c-6.628,0-12.001-5.975-12.001-13.346V232.127c0-7.371,5.373-13.346,12.001-13.346l0,0c6.628,0,12.001,5.975,12.001,13.346V592.474
		z">

		<animateTransform attributeName="transform"
                          attributeType="XML"
                          type="translate"
                          dur="1s"
                          values="0,1200;0,-1200;"
                          repeatCount="indefinite"/>
	</path>

	<path fill="#F1F2F2" stroke="#000000" stroke-miterlimit="10" d="M893.818,307.445c0,7.371-5.373,13.346-12.001,13.346l0,0
		c-6.628,0-12.001-5.975-12.001-13.346V-52.901c0-7.371,5.373-13.346,12.001-13.346l0,0c6.628,0,12.001,5.975,12.001,13.346V307.445
		z">

		<animateTransform attributeName="transform"
                          attributeType="XML"
                          type="translate"
                          dur="2.5s"
                          values="0,1200;0,-1200;"
                          repeatCount="indefinite"/>
	</path>
	<path fill="#8DC63F" stroke="#000000" stroke-miterlimit="10" d="M1682.897,1053.912c0,6.116-5.373,11.074-12.001,11.074l0,0
		c-6.628,0-12.001-4.958-12.001-11.074V754.908c0-6.116,5.373-11.074,12.001-11.074l0,0c6.628,0,12.001,4.958,12.001,11.074
		V1053.912z">

		<animateTransform attributeName="transform"
                          attributeType="XML"
                          type="translate"
                          dur="1.5s"
                          values="0,1200;0,-1200;"
                          repeatCount="indefinite"/>
	</path>
	<path fill="#8DC63F" stroke="#000000" stroke-miterlimit="10" d="M1075.337,1192.12c0,9.256-3.358,16.76-7.501,16.76l0,0
		c-4.143,0-7.501-7.504-7.501-16.76V739.592c0-9.256,3.358-16.76,7.501-16.76l0,0c4.142,0,7.501,7.504,7.501,16.76V1192.12z">

		<animateTransform attributeName="transform"
                          attributeType="XML"
                          type="translate"
                          dur="1.25s"
                          values="0,1200;0,-1200;"
                          repeatCount="indefinite"/>
	</path>

	<path fill="#F1F2F2" stroke="#000000" stroke-miterlimit="10" d="M1198.255,1030.31c0,5.828-3.988,10.553-8.907,10.553l0,0
		c-4.919,0-8.907-4.725-8.907-10.553V745.385c0-5.828,3.988-10.553,8.907-10.553l0,0c4.919,0,8.907,4.725,8.907,10.553V1030.31z">

		<animateTransform attributeName="transform"
                          attributeType="XML"
                          type="translate"
                          dur="3s"
                          values="0,1200;0,-1200;"
                          repeatCount="indefinite"/>
	</path>

	<path fill="#F1F2F2" stroke="#000000" stroke-miterlimit="10" d="M911.07,1151.855c0,4.05-2.351,7.333-5.25,7.333l0,0
		c-2.9,0-5.251-3.283-5.251-7.333V953.874c0-4.05,2.351-7.333,5.251-7.333l0,0c2.9,0,5.25,3.283,5.25,7.333V1151.855z">

		<animateTransform attributeName="transform"
                          attributeType="XML"
                          type="translate"
                          dur="2s"
                          values="0,1200;0,-1200;"
                          repeatCount="indefinite"/>
	</path>

	<path fill="#00AEEF" stroke="#000000" stroke-miterlimit="10" d="M833.062,752.815c0,4.05-2.351,7.333-5.251,7.333l0,0
		c-2.9,0-5.251-3.283-5.251-7.333V554.834c0-4.05,2.351-7.333,5.251-7.333l0,0c2.9,0,5.251,3.283,5.251,7.333V752.815z">

		<animateTransform attributeName="transform"
                          attributeType="XML"
                          type="translate"
                          dur="1s"
                          values="0,1200;0,-1200;"
                          repeatCount="indefinite"/>
	</path>

	<path fill="#C2B59B" stroke="#000000" stroke-miterlimit="10" d="M1154.094,230.763c0,4.05-2.351,7.333-5.25,7.333l0,0
		c-2.9,0-5.25-3.283-5.25-7.333V32.782c0-4.05,2.351-7.333,5.25-7.333l0,0c2.9,0,5.25,3.283,5.25,7.333V230.763z">

		<animateTransform attributeName="transform"
                          attributeType="XML"
                          type="translate"
                          dur="2.5s"
                          values="0,1200;0,-1200;"
                          repeatCount="indefinite"/>
	</path>
	<path fill="#00AEEF" stroke="#000000" stroke-miterlimit="10" d="M219.501,1127.872c0,6.628-3.694,12.001-8.251,12.001l0,0
		c-4.557,0-8.251-5.373-8.251-12.001V803.84c0-6.628,3.694-12.001,8.251-12.001l0,0c4.557,0,8.251,5.373,8.251,12.001V1127.872z">

		<animateTransform attributeName="transform"
                          attributeType="XML"
                          type="translate"
                          dur="1.5s"
                          values="0,1200;0,-1200;"
                          repeatCount="indefinite"/>
	</path>

	<path fill="#F1F2F2" stroke="#000000" stroke-miterlimit="10" d="M692.048,464.806c0,6.628-3.694,12.001-8.251,12.001l0,0
		c-4.557,0-8.251-5.373-8.251-12.001V140.773c0-6.628,3.694-12.001,8.251-12.001l0,0c4.557,0,8.251,5.373,8.251,12.001V464.806z">

		<animateTransform attributeName="transform"
                          attributeType="XML"
                          type="translate"
                          dur="1.25s"
                          values="0,1200;0,-1200;"
                          repeatCount="indefinite"/>
	</path>

	<path fill="#F1F2F2" stroke="#000000" stroke-miterlimit="10" d="M1745.154,674.827c0,6.628-3.694,12.001-8.251,12.001l0,0
		c-4.557,0-8.251-5.373-8.251-12.001V350.794c0-6.628,3.694-12.001,8.251-12.001l0,0c4.557,0,8.251,5.373,8.251,12.001V674.827z">

		<animateTransform attributeName="transform"
                          attributeType="XML"
                          type="translate"
                          dur="3s"
                          values="0,1200;0,-1200;"
                          repeatCount="indefinite"/>
	</path>

	<path fill="#8DC63F" stroke="#000000" stroke-miterlimit="10" d="M492.528,614.821c0,6.628-3.694,12.001-8.251,12.001l0,0
		c-4.557,0-8.251-5.373-8.251-12.001V290.788c0-6.628,3.694-12.001,8.251-12.001l0,0c4.557,0,8.251,5.373,8.251,12.001V614.821z">

		<animateTransform attributeName="transform"
                          attributeType="XML"
                          type="translate"
                          dur="2s"
                          values="0,1200;0,-1200;"
                          repeatCount="indefinite"/>
	</path>

	<path fill="#8DC63F" stroke="#000000" stroke-miterlimit="10" d="M567.536,148.015c0,4.285-3.694,7.759-8.251,7.759l0,0
		c-4.557,0-8.251-3.474-8.251-7.759V-61.488c0-4.285,3.694-7.759,8.251-7.759l0,0c4.557,0,8.251,3.474,8.251,7.759V148.015z">

		<animateTransform attributeName="transform"
                          attributeType="XML"
                          type="translate"
                          dur="1s"
                          values="0,1200;0,-1200;"
                          repeatCount="indefinite"/>
	</path>

	<path fill="#F1F2F2" stroke="#000000" stroke-miterlimit="10" d="M64.598,153.912c0,4.343-3.52,7.863-7.863,7.863l0,0
		c-4.343,0-7.863-3.52-7.863-7.863V-58.385c0-4.343,3.52-7.863,7.863-7.863l0,0c4.343,0,7.863,3.52,7.863,7.863V153.912z">

		<animateTransform attributeName="transform"
                          attributeType="XML"
                          type="translate"
                          dur="2.5s"
                          values="0,1200;0,-1200;"
                          repeatCount="indefinite"/>
	</path>

	<path fill="#F15A29" stroke="#000000" stroke-miterlimit="10" d="M319.597,285.926c0,6-4.18,10.863-9.337,10.863l0,0
		c-5.157,0-9.337-4.864-9.337-10.863V-7.38c0-6,4.18-10.863,9.337-10.863l0,0c5.157,0,9.337,4.864,9.337,10.863V285.926z">

		<animateTransform attributeName="transform"
                          attributeType="XML"
                          type="translate"
                          dur="1.5s"
                          values="0,1200;0,-1200;"
                          repeatCount="indefinite"/>
	</path>
	<path fill="#F1F2F2" stroke="#000000" stroke-miterlimit="10" d="M1567.748,1174.015c0,4.343-3.52,7.863-7.863,7.863l0,0
		c-4.343,0-7.863-3.52-7.863-7.863V961.717c0-4.343,3.52-7.863,7.863-7.863l0,0c4.343,0,7.863,3.52,7.863,7.863V1174.015z">

		<animateTransform attributeName="transform"
                          attributeType="XML"
                          type="translate"
                          dur="1.25s"
                          values="0,1200;0,-1200;"
                          repeatCount="indefinite"/>
	</path>

	<path fill="#8DC63F" stroke="#000000" stroke-miterlimit="10" d="M1426.708,255.509c0,6.228-4.18,11.277-9.337,11.277l0,0
		c-5.157,0-9.337-5.049-9.337-11.277V-48.97c0-6.228,4.18-11.277,9.337-11.277l0,0c5.157,0,9.337,5.049,9.337,11.277V255.509z">

		<animateTransform attributeName="transform"
                          attributeType="XML"
                          type="translate"
                          dur="3s"
                          values="0,1200;0,-1200;"
                          repeatCount="indefinite"/>
	</path>

	<path fill="#F1F2F2" stroke="#000000" stroke-miterlimit="10" d="M1339.725,1222.019c0,4.343-3.52,7.863-7.863,7.863l0,0
		c-4.343,0-7.863-3.52-7.863-7.863v-212.297c0-4.343,3.52-7.863,7.863-7.863l0,0c4.343,0,7.863,3.52,7.863,7.863V1222.019z">

		<animateTransform attributeName="transform"
                          attributeType="XML"
                          type="translate"
                          dur="2s"
                          values="0,1200;0,-1200;"
                          repeatCount="indefinite"/>
	</path>
	<path fill="#F15A29" stroke="#000000" stroke-miterlimit="10" d="M1460.694,885.882c0,6.057-4.62,10.967-10.32,10.967l0,0
		c-5.7,0-10.32-4.91-10.32-10.967V589.784c0-6.057,4.62-10.967,10.32-10.967l0,0c5.7,0,10.32,4.91,10.32,10.967V885.882z">

		<animateTransform attributeName="transform"
                          attributeType="XML"
                          type="translate"
                          dur="1s"
                          values="0,1200;0,-1200;"
                          repeatCount="indefinite"/>
	</path>

	<path fill="#8DC63F" stroke="#000000" stroke-miterlimit="10" d="M1751.723,201.814c0,6.057-4.62,10.967-10.32,10.967l0,0
		c-5.7,0-10.32-4.91-10.32-10.967V-94.285c0-6.057,4.62-10.967,10.32-10.967l0,0c5.7,0,10.32,4.91,10.32,10.967V201.814z">

		<animateTransform attributeName="transform"
                          attributeType="XML"
                          type="translate"
                          dur="2.5s"
                          values="0,1200;0,-1200;"
                          repeatCount="indefinite"/>
	</path>

	<path fill="#F1F2F2" stroke="#000000" stroke-miterlimit="10" d="M1800,1266.92c0,6.057-4.62,10.967-10.32,10.967l0,0
		c-5.7,0-10.32-4.91-10.32-10.967V970.822c0-6.057,4.62-10.967,10.32-10.967l0,0c5.7,0,10.32,4.91,10.32,10.967V1266.92z">

		<animateTransform attributeName="transform"
                          attributeType="XML"
                          type="translate"
                          dur="1.5s"
                          values="0,1200;0,-1200;"
                          repeatCount="indefinite"/>
	</path>

	<path fill="#00AEEF" stroke="#000000" stroke-miterlimit="10" d="M1607.981,408.834c0,6.057-4.62,10.967-10.32,10.967l0,0
		c-5.7,0-10.32-4.91-10.32-10.967V112.736c0-6.057,4.62-10.967,10.32-10.967l0,0c5.7,0,10.32,4.91,10.32,10.967V408.834z">

		<animateTransform attributeName="transform"
                          attributeType="XML"
                          type="translate"
                          dur="1.25s"
                          values="0,1200;0,-1200;"
                          repeatCount="indefinite"/>
	</path>
</g>
</svg>
