<svg version="1.1" xmlns="http://www.w3.org/2000/svg" viewBox="0 0 416.2347677231778 414.48891853868236" width="416.2347677231778" height="414.48891853868236">
  <!-- svg-source:excalidraw -->
  
  <defs>
    <style>
      @font-face {
        font-family: "Virgil";
        src: url("https://excalidraw.com/FG_Virgil.woff2");
      }
      @font-face {
        font-family: "Cascadia";
        src: url("https://excalidraw.com/Cascadia.woff2");
      }
    </style>
  </defs>
  <g transform="translate(149.96988940581036 158.34083078817878) rotate(0 59 45)"><text x="59" y="65" font-family="Virgil, Segoe UI Emoji" font-size="57.27802326340464px" fill="#000000" text-anchor="middle" style="white-space: pre;" direction="ltr">CPU</text></g><g><g transform="translate(163.20922898319134 12.418730464609666) rotate(0 9.48840609591008 48.64031397040236)"><path d="M-0.9130664236843586 -1.0293376676738262 C1.4745608308035558 -0.8583504190196829, 12.163273921964889 -4.242831543564373, 15.424140789728419 -0.005223844289921065 C18.68500765749195 4.23238385498453, 18.059009912209515 9.552464834055348, 18.652134782896827 24.39630852797288 C19.24525965358414 39.24015222189041, 20.386802516013326 76.78307164360555, 18.982890013852295 89.05783831921528 C17.578977511691264 101.332604994825, 13.190333057685224 98.51434262907685, 10.228659769930635 98.04490858163128 C7.266986482176046 97.5754745341857, 3.0478586757162587 102.59934245731569, 1.212850287324758 86.24123403454179 C-0.6221581010667425 69.8831256117679, -0.7579304478207277 14.330189009175292, -0.7813905604183673 -0.10374195501208305 M0.8084349745418877 1.0446561114583166 C2.9455592549368417 1.416580918823035, 11.620089891452542 -3.0391684051058663, 14.497853277386906 0.9702679184766934 C17.37561666332127 4.979704242059253, 17.26236644271754 10.225548987001595, 18.075015290148073 25.101274052953677 C18.887664137578607 39.97699911890576, 20.83194938438194 77.99755466481456, 19.37374636197011 90.22461831418919 C17.91554333955828 102.45168196356381, 12.12024983811791 99.25725089527289, 9.3257971556771 98.46365594920145 C6.531344473236288 97.67006100313002, 4.252776224154792 102.12432313379718, 2.6070302673252392 85.4630486377606 C0.9612843104956859 68.80177414172401, -0.21569600932129201 12.888769815439947, -0.5486785853002221 -1.5039910270180554" stroke="#000000" stroke-width="1" fill="none"></path></g></g><g><g transform="translate(200.49337588963033 12.32428681310114) rotate(0 9.476551707106267 48.77536942470908)"><path d="M0.04144371673464775 -1.0703495018184184 C2.8172705867010777 -0.9157234897365407, 12.654278508184676 -4.560450128197246, 15.741894796114222 -0.10158159518256027 C18.82951108404377 4.357286937832125, 17.892311098771096 10.834041348299426, 18.567141444311925 25.682861696269693 C19.241971789852755 40.53168204423996, 21.366721591979207 76.85678759266408, 19.79087686935919 88.99134049263904 C18.215032146739176 101.125893392614, 12.332910062117904 99.04892359888736, 9.11207310859183 98.4901790961195 C5.891236155065755 97.93143459335165, 1.8058523976782337 102.11429528381562, 0.46585514820274887 85.63887347603196 C-0.874142101272736 69.1634516682483, 1.1299575307330443 13.770801778302182, 1.0720896117389203 -0.3623517505824566 M-1.3959370613191278 0.9821130643878133 C1.3331916326805626 1.3290869859798267, 11.758871885437715 -3.523536746670999, 14.982428137125254 0.8233223483654186 C18.20598438881279 5.170181443401836, 17.618150752223954 12.179953171223817, 17.9454004488061 27.06326763460632 C18.272650145388248 41.94658209798882, 18.666325975229906 78.10997148712882, 16.945926316618127 90.12320912866043 C15.225526658006347 102.13644677019205, 10.202679769877745 100.07248687423387, 7.62300249713542 99.142693483796 C5.0433252243930955 98.21290009335812, 2.9687166501468045 100.77462619420959, 1.4678626801641748 84.54444878603312 C-0.032991289818455005 68.31427137785664, -0.9966668420267899 15.695704288358456, -1.3821213227603586 1.7616290347371253" stroke="#000000" stroke-width="1" fill="none"></path></g></g><g><g transform="translate(236.099790030975 12.387407767283776) rotate(0 9.495030997445667 48.575114050347196)"><path d="M0.35919772312045106 -1.1667072527110576 C2.9617740132528967 -0.7908204068889455, 12.48757969474626 -3.2788736139531656, 15.656901457529322 1.1849715731142536 C18.826223220312386 5.648816760181673, 18.872230174736977 10.907757297357959, 19.375128299818822 25.616363869693462 C19.878026424900668 40.32497044202896, 20.509298596411885 77.39136856247457, 18.674290208020384 89.43661100712727 C16.839281819628884 101.48185345177997, 11.090903784079877 98.56387642538729, 8.36507796946982 97.88781853760968 C5.639252154859761 97.21176064983206, 3.6937403762320056 101.55490805294251, 2.3193353203600364 85.38026368046158 C0.9449302644880675 69.20561930798065, 0.5489360549411131 14.883143825993528, 0.11864763423800473 0.8399523027241231 M-0.9113622015807779 0.8351674942765386 C1.5535593581720866 1.519564187322409, 11.504656194944133 -1.569132562448778, 14.852813295783282 2.7853159300180597 C18.20097039662243 7.139764422484897, 18.502527343071925 12.902369993538079, 19.17758040345412 26.961858449077564 C19.852633463836312 41.02134690461705, 20.40875590698974 75.2652074660898, 18.903131658076447 87.14224666325497 C17.397507409163154 99.01928586042013, 13.188620195869756 98.72278993464629, 10.143834909974355 98.2240936320685 C7.099049624078955 97.72539732949072, 2.187745817441307 100.5315606671281, 0.6344199427040385 84.15006884778829 C-0.91890593203323 67.76857702844848, 1.1672754073905154 13.732025911087758, 0.8238796615507455 -0.06485728397034118" stroke="#000000" stroke-width="1" fill="none"></path></g></g><g><g transform="translate(163.20922898319134 304.41873046460955) rotate(0 8.67670511817525 48.936439087643976)"><path d="M0.5687652938067913 -1.1305026523768902 C3.10632769844119 -1.0398826827754812, 13.037224474905257 -2.9756905590291547, 16.08916418812777 1.3392402908800618 C19.141103901350284 5.654171140789278, 18.62147441168308 10.276318922838609, 18.88040357314188 24.75908244707841 C19.13933273460068 39.24184597131821, 19.1475221729576 75.88163200069935, 17.642739156880555 88.23582143631886 C16.13795614080351 100.59001087193836, 12.597330333037704 99.27982116854372, 9.851705476679598 98.8842190607954 C7.106080620321492 98.48861695304709, 2.66243728041444 102.32316984321808, 1.1689900187319235 85.86220878982895 C-0.32445724295059253 69.40124773643983, 0.9138144471606566 14.328014655575743, 0.8910219065845013 0.11845274046063414 M-0.5917716562841089 0.8903795097861438 C1.7740037280842338 0.5297442165954422, 12.342864484686602 -4.766778403689661, 15.512013959945918 -0.6394242753890829 C18.681163435205235 3.4879298529114946, 18.120124804414736 10.719426472396071, 18.423125195271783 25.65450427958961 C18.72612558612883 40.589582086783146, 18.942046861221957 76.62285920938263, 17.330016305088204 88.97104256777214 C15.717985748954451 101.31922592616166, 11.21592068303044 100.42460566795985, 8.750941858469266 99.74360442992675 C6.285963033908093 99.06260319189364, 4.275008596319519 101.70315989729835, 2.540143357721167 84.88503513957353 C0.8052781191228149 68.06691038184871, -1.3262850444746808 12.885453926200633, -1.6582495731208473 -1.1651441164221614" stroke="#000000" stroke-width="1" fill="none"></path></g></g><g><g transform="translate(200.49337588963033 304.324286813101) rotate(0 9.758627801204454 48.74946944975733)"><path d="M0.7064671151340007 0.2741146333515645 C3.2733668305594152 0.5060637960682077, 13.216743007658248 -3.8365960394139806, 15.970163586359279 0.2611923239229694 C18.72358416506031 4.35898068725992, 16.653030755715374 9.932601705393237, 17.226990587340186 24.86084481337327 C17.800950418964998 39.7890879213533, 20.773718867331684 77.62226613213093, 19.413922576108153 89.83065097180317 C18.05412628488462 102.0390358114754, 11.947488666816083 98.77275098478975, 9.068212839998994 98.11115385140667 C6.188937013181905 97.44955671802359, 3.4775972926596177 102.11212093021608, 2.1382676152056175 85.86106817150468 C0.798937937751617 69.61001541279329, 1.3717349269351315 15.00749384926318, 1.0322347752749919 0.6048372991383075 M-0.3817763787601143 -0.6275791294779629 C2.0287384045645274 -0.16268740316793212, 12.006630247134915 -3.029659261276521, 15.330538042248966 1.3765525750013514 C18.654445837363017 5.782764411279224, 18.778248229063973 11.41525771579188, 19.561670391924196 25.809691888189274 C20.34509255478442 40.20412606058667, 22.031996820142435 75.61732625981577, 20.031071019410295 87.74315760938572 C18.030145218678154 99.86898895895567, 10.834912142042471 99.04132363773505, 7.556115587531347 98.56467998560893 C4.277319033020223 98.08803633348282, 1.8581276149934158 101.38131030497028, 0.35829169234354963 84.883295696629 C-1.1415442303063164 68.38528108828773, -1.2379563128186064 13.921659696573979, -1.442899948367849 -0.4234076644387097" stroke="#000000" stroke-width="1" fill="none"></path></g></g><g><g transform="translate(236.099790030975 304.38740776728355) rotate(0 9.540348679175452 48.75186755388842)"><path d="M0.587466513365507 -0.8039333336055279 C2.8558470942694374 -0.7891266574611503, 11.248299351690536 -4.180313256859355, 14.316750600557581 0.3629546902178302 C17.38520184942463 4.906222637295016, 18.279227450089454 11.673235836824817, 18.998174006567783 26.455674348857585 C19.717120563046112 41.238112860890354, 20.123877201110066 77.11519594837696, 18.63042993942755 89.05758576241443 C17.136982677745035 100.9999755764519, 12.762648679061263 98.56170207178775, 10.03749043647269 98.1100132330824 C7.3123321938841155 97.65832439437705, 3.935517772434093 102.79160012390352, 2.279480483896108 86.34745273018235 C0.623443195358123 69.90330533646119, 0.5118934133014035 13.997789235577574, 0.10126670524477954 -0.5548711292445659 M-0.5632522964570672 1.3883977209124714 C2.0020208067223106 1.5221471551997972, 13.27475367178415 -2.333828017880716, 16.469083238901376 1.5317401836010143 C19.663412806018602 5.397308385082744, 18.208198187984454 9.799724766225038, 18.602725106246286 24.581806929802852 C18.997252024508118 39.363889093380664, 20.430988279154466 77.89404422959097, 18.836244748472375 90.2242331650679 C17.241501217790283 102.55442210054483, 12.078031160716368 99.32947404540698, 9.03426392215373 98.5629405426644 C5.990496683591093 97.79640703992183, 1.9464563466494902 101.80751607534363, 0.573641317096548 85.62503214861246 C-0.7991737124563942 69.4425482218813, 1.1107853788899584 16.041860160703425, 0.7973737448360771 1.4680369822774084" stroke="#000000" stroke-width="1" fill="none"></path></g></g><g><g transform="translate(345.0149927360584 122.86430545990038) rotate(89.99999999999994 10.230508056671681 48.69289054282433)"><path d="M-0.2811421148478985 0.9889741770923137 C2.3140556447822282 1.1958151454577606, 12.599428443966632 -2.627899997412735, 15.755199496071594 1.3295900470613018 C18.910970548176554 5.287080091535338, 18.019674197928907 9.978200794956132, 18.653484197781868 24.73391444393653 C19.28729419763483 39.48962809291693, 21.08737115773553 77.53197621603282, 19.558059495189365 89.8638719409437 C18.0287478326432 102.19576766585458, 12.362948694570392 99.44375071293297, 9.477614222504888 98.72528879340182 C6.592279750439385 98.00682687387066, 3.705474493799545 101.97249715562796, 2.24605266279635 85.55310042375677 C0.7866308317931552 69.13370369188559, 1.1925117843708348 14.527179128096092, 0.7210832364857196 0.20890840217471118 M1.7721195455174894 0.46258167472668 C4.225788846254316 0.27918340465113645, 12.285225537505198 -4.846397797224618, 15.002717804560245 -0.6541408972126916 C17.72021007161529 3.538116002799235, 17.202379478439617 10.874796327375288, 18.077073147847766 25.616123074798242 C18.951766817255915 40.3574498222212, 21.900316563008296 75.47963413776615, 20.25087982100914 87.79381958732503 C18.601443079009982 100.10800503688391, 11.46848868436779 100.06459822315344, 8.180452695852836 99.50123577215152 C4.8924167073378815 98.9378733211496, 1.595640346731804 101.16838404872341, 0.5226638899194167 84.41364488131346 C-0.5503125668929707 67.65890571390351, 1.5387283947708412 13.18917974679417, 1.7425939549785108 -1.027199232308194" stroke="#000000" stroke-width="1" fill="none"></path></g></g><g><g transform="translate(346.19835777754577 160.26503480261965) rotate(89.99999999999994 9.640022236376808 48.46100516356114)"><path d="M0.3725024230778218 0.2644643895328045 C3.043233477385683 0.1389727468142671, 12.61494279390407 -4.134714167296463, 15.743244210999267 0.23602432078108948 C18.871545628094463 4.606762808858641, 18.5928797404933 11.582945920726699, 19.142310925648996 26.488895317998114 C19.691742110804693 41.39484471526953, 20.539337228864373 77.78619567652018, 19.039831321933445 89.67172070440958 C17.540325415002517 101.55724573229898, 12.990525880201188 98.42207829719962, 10.14527548406342 97.80204548533449 C7.300025087925652 97.18201267346936, 3.756294629869796 102.31128540273643, 1.9683289451068358 85.95152383321876 C0.18036326034387562 69.59176226370109, -0.36001204318196045 13.84949932710885, -0.5825186245143413 -0.35652393177151676 M-0.8910725341457874 -0.6422957513015717 C1.6777850409745847 -0.7225012532801913, 11.698884921159793 -2.8742894062973035, 14.984485994824947 1.3381713702099847 C18.2700870684901 5.550632146717272, 18.076517930850315 10.272032644175406, 18.822533907845134 24.632468907742158 C19.568549884839953 38.99290517130891, 21.064564821479784 75.25731881500938, 19.460581856793862 87.5007889516105 C17.85659889210794 99.74425908821162, 12.425543892454757 98.50654778916012, 9.198636119729597 98.09328972734886 C5.971728347004438 97.6800316655376, 1.6731410542389376 101.07503612556381, 0.09913522044290768 85.02124058074297 C-1.4748706133531222 68.96744503592213, -0.2188704422471719 15.815718050288623, -0.2453988830465823 1.7705164584238084" stroke="#000000" stroke-width="1" fill="none"></path></g></g><g><g transform="translate(345.8179489140631 195.068027704487) rotate(89.99999999999994 9.991729602863472 49.19588300470008)"><path d="M0.360547138005495 -0.8291013367474078 C3.00380855730359 -0.5413445358624296, 13.188148336468462 -2.5299690415258933, 16.232070938866393 1.991005194842674 C19.275993541264324 6.511979431211241, 18.044845811622146 11.837165381214065, 18.624082752393075 26.296744081463995 C19.203319693164005 40.756322781713926, 21.16691441449517 76.76452326078685, 19.707492583491977 88.74847739634225 C18.248070752488783 100.73243153189766, 13.04134601627144 98.7608665443081, 9.867551766373907 98.20046889479647 C6.693757516476374 97.64007124528484, 2.203770802317001 101.63360560174918, 0.6647270841067748 85.38609149927252 C-0.8743166341034513 69.13857739679587, 0.5583145015796972 14.790141517088403, 0.6332894571125507 0.715384279936552 M-0.9093043438810855 1.3500165161211046 C1.617662037849394 1.2900148906378464, 12.573023373570491 -3.4770530894971863, 15.729946754822315 0.3545172031539008 C18.886870136074137 4.186087495804988, 17.240766189321803 9.43971732141864, 18.032235943629853 24.33943827202763 C18.823705697937903 39.239159222636616, 22.021620029566755 77.35926838101605, 20.478765280670626 89.75284290680784 C18.935910531774496 102.14641743259963, 11.89304459996189 99.63319986600051, 8.775107450253088 98.70088542677837 C5.657170300544287 97.76857098755623, 2.965542217220925 100.65157442905827, 1.7711423824178147 84.15895627147498 C0.5767425476147048 67.66633811389168, 1.7915775385143562 13.590197390007443, 1.6087084414344281 -0.25482351872138675" stroke="#000000" stroke-width="1" fill="none"></path></g></g><g><g transform="translate(50.51499273605833 122.86430545990038) rotate(89.99999999999994 9.80690267456174 48.876344397646335)"><path d="M0.9427359111607074 0.40516763851046567 C3.402436386855287 0.8226157540927095, 12.656401257572893 -2.0932144095297387, 15.629775611679808 2.193266571223594 C18.603149965786724 6.479747551976927, 18.22768689800978 11.759246398708264, 18.782982035802195 26.12405352303046 C19.338277173594612 40.48886064735266, 20.73970987710351 76.3742988278416, 18.9615464384343 88.38210931715678 C17.18338299976509 100.38991980647195, 10.917743316037981 98.73492357498588, 8.114001403786931 98.17091645892152 C5.310259491535881 97.60690934285716, 3.5106986501792443 101.54774976011251, 2.139094964928003 84.99806662077063 C0.7674912796767612 68.44838348142875, 0.21098285847514409 13.144397217199792, -0.11562070772051802 -1.127182377129793 M-0.02146646481938652 -0.42772329661063857 C2.225569477915732 -0.2899456671805668, 11.762109078254747 -3.4210022757030503, 14.811446380862773 0.6629658021348044 C17.860783683470796 4.7469338799726595, 17.519598846062948 9.320890873097298, 18.27455735082876 24.07608517041649 C19.029515855594575 38.83127946773568, 20.760133110044464 76.76417612077452, 19.341197409457664 89.19413158604996 C17.922261708870863 101.6240870513254, 12.924550482105865 98.98363683778416, 9.760943147307952 98.6558179620691 C6.597335812510039 98.32799908635403, 1.9086071852108462 103.57064427056237, 0.3595534006701874 87.22721833175959 C-1.1895003838704716 70.8837923929568, 0.6518967827799123 15.350437332677311, 0.46662044006399794 0.5952623292524368" stroke="#000000" stroke-width="1" fill="none"></path></g></g><g><g transform="translate(51.69835777754571 160.26503480261965) rotate(89.99999999999994 9.320733197712315 48.273592484516996)"><path d="M0.7552782543003558 -0.36338666751980775 C3.5190192573386856 -0.4056431417813139, 12.971751217900044 -3.4352794577475114, 15.944869224350708 0.8770438081620708 C18.917987230801373 5.1893670740716535, 18.20574437786818 10.971856643459242, 18.593986293004342 25.510552927937688 C18.982228208140505 40.049249212416136, 19.84883425149316 76.11697499056132, 18.274320715167697 88.10922151503274 C16.699807178842235 100.10146803950417, 12.038793959958879 97.77055628067436, 9.14690507505158 97.46403207476625 C6.25501619014428 97.15750786885815, 2.537034938631393 102.62672963376976, 0.9229874057239013 86.27007627958412 C-0.6910601271835902 69.91342292539848, -0.35153583354145757 13.80461488382577, -0.5373801223933696 -0.6758880503475666 M-0.30733939153142265 -1.5997686133068056 C2.403358355402914 -0.9430404833884526, 12.243017767753651 -2.4176514742351554, 15.291964140185893 2.315726088465981 C18.340910512618137 7.049103651167117, 17.486136502847003 12.390121496342536, 17.986338843062036 26.80049676290001 C18.48654118327707 41.210872029457484, 20.01154778098868 76.98175726892212, 18.293178181476097 88.77797768781083 C16.574808581963516 100.57419810669954, 10.364152714085234 98.12297671395908, 7.67612124598654 97.57781927623229 C4.988089777887845 97.0326618385055, 3.473770025100373 101.55608857788964, 2.164989372883933 85.50703306145014 C0.8562087206674929 69.45797754501065, 0.4040557774545951 15.747269274281924, -0.17656266731210057 1.2834861775953321" stroke="#000000" stroke-width="1" fill="none"></path></g></g><g><g transform="translate(51.31794891406304 195.068027704487) rotate(89.99999999999994 9.077666532623908 48.83394705890578)"><path d="M-0.15370286777615538 -0.9911304228007793 C2.462562082024259 -0.6499527444591362, 13.602959743498092 -2.7685403143163256, 16.526058056574122 1.8431640646456255 C19.449156369650154 6.454868443607577, 17.170936944680214 12.182249227365892, 17.38488701068003 26.679095850970928 C17.598837076679843 41.17594247457596, 19.109252009421528 76.9425679509786, 17.809758452572996 88.82424380627583 C16.510264895724465 100.70591966157306, 12.236586262030928 98.60276960051242, 9.587925669588838 97.96915098275433 C6.939265077146748 97.33553236499624, 3.5061968409994613 101.44091884281372, 1.917794897920461 85.02253209972733 C0.3293929548414609 68.60414535664094, 0.5757739283999753 13.574133558735838, 0.057514011114835784 -0.5411694757640362 M-1.6935356026981028 1.102922159889713 C0.7922611630484133 1.1243873725278688, 12.595610769290674 -3.8408742805025957, 16.1782771093266 0.12905947960340236 C19.76094344936253 4.098993239709401, 19.56805516723536 9.96597018680018, 19.80246243751746 24.9225247205257 C20.036869707799557 39.879079254251224, 19.49368486182945 77.63078653355845, 17.584720731019182 89.86838668195652 C15.675756600208915 102.1059868303546, 11.275785974745109 98.78210202671211, 8.348677652655859 98.34812561091411 C5.421569330566609 97.91414919511611, 1.2917419262116772 103.4077271216817, 0.022070798483686316 87.26452818716855 C-1.2476003292443045 71.1213292526554, 0.5982031644152802 16.005785253519775, 0.7306508862879126 1.4889320038352163" stroke="#000000" stroke-width="1" fill="none"></path></g></g><g><g transform="translate(167.0768693046482 122.27721620096668) rotate(0 42.01842484186889 82.64088667251468)"><path d="M0.9970753428691992 -1.0267561800777911 C15.090145102909203 -1.3102487054963905, 68.3388067823496 -1.167119857420524, 85.41050720209756 -0.5807558663189412 C102.48220762184553 0.005608124782641721, 98.21962189607846 0.5930116208891074, 103.42727786135698 2.491427766531706 C108.6349338266355 4.389843912174305, 113.32227574191481 6.740670819332203, 116.65644299376868 10.80974100753665 C119.99061024562255 14.878811195741097, 121.8331995137385 21.582783193637926, 123.43228137248025 26.90584889575839 C125.03136323122199 32.228914597878855, 126.14613711279662 25.78799294953545, 126.2509341462191 42.74813522025943 C126.35573117964157 59.708277490983406, 124.3332234792899 111.54499637608727, 124.0610635730151 128.66670252010226 C123.78890366674031 145.78840866411724, 126.06997062240772 140.37087517902253, 124.61797470857032 145.4783720843494 C123.16597879473291 150.58586898967624, 118.81987875638765 156.26942981407046, 115.34908808999063 159.31168395206333 C111.87829742359361 162.3539380900562, 108.72633706387155 162.58951282029352, 103.79323071018818 163.73189691230655 C98.86012435650481 164.87428100431958, 103.66588942458941 165.75002882008752, 85.75044996789039 166.16598850414158 C67.83501051119137 166.58194818819564, 13.466456587696197 166.48160118584832, -3.699406030005946 166.22765501663088 C-20.86526864770809 165.97370884741343, -12.692096797366442 166.16823870663842, -17.24472573832247 164.642311488837 C-21.797354679278495 163.1163842710356, -27.211874818671248 160.7556689215203, -31.015179675742097 157.07209170982242 C-34.818484532812946 153.38851449812452, -38.26447856605225 147.24300478622317, -40.06455488074757 142.54084821864961 C-41.8646311954429 137.83869165107606, -41.49987750764346 145.70774467314283, -41.81563756391406 128.85915230438113 C-42.13139762018466 112.01055993561943, -42.45572281622576 59.480772371341786, -41.95911521837115 41.449294006079434 C-41.46250762051655 23.417815640817086, -40.63802286690784 26.28802375321587, -38.83599197678641 20.670282112807037 C-37.03396108666498 15.052540472398203, -34.96896841299808 11.167153441160917, -31.146929877642584 7.742844163626432 C-27.32489134228709 4.318534886091947, -21.244313018075122 1.2675348075727622, -15.90376076465344 0.12442644760012622 C-10.563208511231757 -1.0186819123725097, -1.6185912368989273 0.7669266415139038, 0.8963836428875098 0.8841940037906169 M0.1363021115100005 1.04859288004227 C13.971397089261929 1.4743845269797993, 67.34700403512794 0.5424690056561181, 84.38498825756402 0.9142725550848989 C101.4229724800001 1.2860761045136797, 97.01363146867196 1.4190902814983082, 102.36420744612651 3.279414176614955 C107.71478342358107 5.139738071731602, 112.65530200863682 8.081591757408654, 116.48844412229137 12.076215925784782 C120.32158623594592 16.07084009416091, 124.03780140212504 22.330537499956165, 125.3630601280538 27.247159186871723 C126.68831885398257 32.16378087378728, 124.49425740048135 24.882399778834856, 124.43999647786391 41.57594604727812 C124.38573555524648 58.26949231572139, 125.20528059087913 110.19382990019707, 125.03749459234922 127.40843679753132 C124.86970859381931 144.62304369486557, 124.81301292635546 139.7059290399868, 123.43328048668444 144.86358743128366 C122.05354804701342 150.0212458225805, 120.44480136187052 155.30851907727308, 116.75909995432312 158.3543871453125 C113.07339854677572 161.40025521335193, 106.50416111766384 162.22441342758327, 101.31907204140003 163.13879583952018 C96.13398296513623 164.0531782514571, 103.39310390793807 163.42035454290297, 85.64856549674028 163.840681616934 C67.90402708554248 164.26100869096504, 11.889422613195823 165.56461807834293, -5.148158425786703 165.66075828370637 C-22.18573946476923 165.7568984890698, -12.19367918889858 165.8746170588055, -16.576920737154886 164.41752284911462 C-20.960162285411194 162.96042863942372, -27.582437361320228 160.13117271231798, -31.44760771532454 156.91819302556104 C-35.31277806932885 153.7052133388041, -38.14099297193051 149.5761186366994, -39.76794286118076 145.13964472857305 C-41.394892750431005 140.7031708204467, -41.16120117001577 147.9832382995604, -41.20930705082603 130.2993495768029 C-41.25741293163628 112.61546085404541, -40.25288201263423 57.319202538303415, -40.056578146042305 39.03631239202805 C-39.86027427945038 20.75342224575269, -41.27543346229693 25.84117372678903, -40.03148385127449 20.602008699150755 C-38.78753424025204 15.36284367151248, -36.166594062839586 10.799409942002967, -32.59288047990766 7.60132222619839 C-29.01916689697574 4.403234510393814, -24.08076087149319 2.653202464055891, -18.589202353682946 1.4134824043232947 C-13.097643835872702 0.17376234459069861, -2.5951451397950485 0.4134799428501476, 0.3564706269538025 0.16300186780281356" stroke="#000000" stroke-width="1" fill="none"></path></g></g></svg>