<svg xmlns="http://www.w3.org/2000/svg" width="436.655" height="223.156" version="1.1" viewBox="0 0 436.655 223.156"><defs><style>@font-face{font-family:&quot;Virgil&quot;;src:url(https://excalidraw.com/FG_Virgil.woff2)}@font-face{font-family:&quot;Cascadia&quot;;src:url(https://excalidraw.com/Cascadia.woff2)}</style></defs><g><g><path fill="none" stroke="#000" stroke-width="1" d="M0.00373143106698981 -5.675581738877321 C0.2212331027680479 0.03575289025196149, -0.7663257540160263 19.674699331717083, 0.38320554399123397 28.048162911432435 C1.5327368419984944 36.42162649114779, -0.6882614716887474 41.5195021053845, 6.900919219110551 44.565199739414794 C14.49009990990985 47.61089737344509, 15.681029147095533 45.91633436432737, 45.91828968878702 46.32234871561421 C76.15555023047851 46.72836306690105, 137.8754283214475 46.857565292633794, 188.3244824692595 47.00128584713586 C238.7735366170715 47.14500640163793, 314.39277686710545 47.201825161213215, 348.61261457565905 47.18467204262664 C382.83245228421265 47.16751892404006, 383.8421975044095 47.98473879447269, 393.6435087205812 46.8983671356164 C403.44481993675294 45.8119954767601, 404.48062483714335 43.47701157606587, 407.4204818726894 40.66644208948886 C410.3603389082354 37.85587260291185, 410.2658989980407 36.08026879136075, 411.28265093385744 30.034950216154325 C412.29940286967417 23.989631640947895, 414.08441367584555 10.818456988807128, 413.5209934875897 4.394530638250277 C412.95757329933383 -2.029395712306574, 411.2018305653606 -5.034018065642217, 407.9021298043222 -8.508607887186779 C404.60242904328385 -11.98319770873134, 403.52816991550554 -14.70877564011675, 393.7227889213594 -16.453008291017092 C383.9174079272132 -18.197240941917435, 383.61725901096884 -18.451311865524804, 349.06984383944524 -18.97400379258883 C314.52242866792164 -19.49669571965286, 237.40021498857544 -19.532372145874586, 186.43829789221786 -19.58915985340125 C135.47638079586028 -19.64594756092791, 72.89664186101933 -19.876980677862147, 43.29834126129969 -19.314730037748813 C13.70004066158005 -18.75247939763548, 16.087164133972976 -18.608849760978803, 8.848494293900014 -16.21565601272125 C1.6098244538270512 -13.822462264463697, 1.218736179357052 -6.729414710413668, -0.13367777913808832 -4.9555675482034935 M-1.453448296962306 -6.6582334410149855 C-0.7620214254545575 -1.2135789431422834, 1.519976245197148 18.318503350838537, 2.7428916568141988 26.536514988765692 C3.96580706843125 34.75452662669285, -1.4044544600229703 39.127762224075745, 5.8840441727399995 42.649836386547946 C13.17254280550297 46.17191054902015, 15.735218492457193 46.84022431725333, 46.47388345339202 47.6689599635989 C77.21254841432685 48.49769560994447, 139.72734601071318 47.83634383643205, 190.31603393834897 47.622250264621385 C240.90472186598475 47.40815669281072, 316.5218645525731 46.72349037136899, 350.0060110192067 46.384398532734934 C383.4901574858403 46.04530669410088, 381.753556933592 46.675744862193866, 391.22091273815073 45.58769923281707 C400.68826854270947 44.49965360344028, 403.2145198058933 42.631048105157994, 406.8101458465591 39.85612475647418 C410.40577188722494 37.08120140779037, 411.4931948036757 34.40610259510202, 412.79466898214577 28.938159140714202 C414.09614316061584 23.470215686326387, 415.4179540702728 13.116836386823387, 414.6189909173797 7.048464030147285 C413.82002776448655 0.9800916734711835, 411.6437522082024 -3.474396450502449, 408.00089006478686 -7.47207499934241 C404.35802792137133 -11.469753548182371, 402.50315432722385 -15.416237584907307, 392.76181805688645 -16.937607262892477 C383.02048178654906 -18.458976940877648, 384.10172202599057 -16.057113750326867, 349.55287244276246 -16.60029306725343 C315.00402285953436 -17.14347238417999, 236.96743370841736 -19.66754665692166, 185.4687205575177 -20.196683164451855 C133.97000740661807 -20.725819671982048, 70.36781910741297 -20.14012001066511, 40.56059353736452 -19.77511211243458 C10.75336796731607 -19.41010421420405, 13.628430401989746 -20.064826323450866, 6.625367137227014 -18.006635775068666 C-0.37769612753571824 -15.948445226686468, -0.32591090946678825 -9.579039325995375, -1.4577860512118788 -7.42596882214139" transform="translate(11.793727204753111 30.40795950980248) rotate(0 206.70160937837383 13.832115693829536)"/></g></g><g><g><path fill="none" stroke="#000" stroke-width="1" d="M-3.136037847696985 1.1636701449751852 C26.62484315511028 1.3206293242151514, 139.02494249685964 0.3861782276625664, 176.10396707364185 1.0616641101091973 C213.18299165042407 1.7371499925558282, 211.080428976979 2.0166150846844517, 219.33810961299628 5.2165854396549705 C227.59579024901356 8.41655579462549, 225.89183353379727 15.112071390297867, 225.65005088974561 20.26148623993231 C225.40826824569396 25.410901089566753, 225.16350706894866 33.42239853287268, 217.88741374868636 36.11307453746163 C210.61132042842405 38.80375054205058, 211.5866148964177 36.606529594698785, 181.9934909681718 36.40554226746604 C152.40036703992592 36.204554940233294, 71.61908053281529 35.45775071610891, 40.32867017921106 34.90715057406518 C9.038259825606826 34.35655043202144, 2.2500387623204583 37.87602723411009, -5.748971153453605 33.101941415203626 C-13.74798106922767 28.327855596297162, -8.142381843715654 11.763281852136128, -7.6653893154333215 6.262635660626394 C-7.188396787150989 0.7619894691166609, -3.8971043233479463 1.1611014334622196, -2.887015983759607 0.09806426614522934 M-1.2874450005862816 0.7289930257480592 C28.2732254216932 0.5410195484018554, 138.20998635527042 -1.031732425066185, 174.90474486103108 -0.6337608241904655 C211.59950336679174 -0.2357892233147461, 210.4153111074249 -0.588066160674209, 218.88110603397766 3.1168226310023757 C227.3469009605304 6.821711422678961, 226.11343882588096 15.99112556236484, 225.69951442034755 21.595571925869045 C225.28559001481415 27.20001828937325, 223.9574469137376 34.44264634189347, 216.39755960077713 36.743500812027605 C208.83767228781664 39.04435528216174, 210.1186041395693 35.39928576654926, 180.34019054258457 35.40069874667383 C150.56177694559983 35.4021117267984, 68.38225192770173 37.1441532798876, 37.727078018868795 36.751978692775026 C7.071904110035856 36.359804105662455, 4.198194923153771 37.842066819013134, -3.5908529104130884 33.04765122399841 C-11.379900743979947 28.253235628983678, -9.215578988758596 13.543893484332358, -9.007208982532365 7.985485122686652 C-8.798838976306135 2.4270767610409445, -3.703006579000419 0.8933188329681179, -2.3406328730557067 -0.30279894587583844" transform="translate(38.06085731123932 25.51517223445802) rotate(0 107.99640881731005 18.39492788418852)"/></g></g><g><g><path fill="none" stroke="#000" stroke-width="1" d="M-0.5797252829412654 -2.945146060844829 C0.8816720804151168 -4.543409823812779, 2.253063705807122 -11.09897396880924, 7.996103326594611 -12.18467718792316 C13.7391429473821 -13.27038040703708, 29.061827851897036 -12.7828903583905, 33.87851244178366 -9.459365375528352 C38.69519703167029 -6.1358403926662035, 36.7286034915973 2.4372043115527173, 36.896210865914384 7.75647270924973 C37.06381824023147 13.075741106946742, 39.669703122281376 20.021749794337758, 34.88415668768618 22.456245010653724 C30.09861025309098 24.89074022696969, 14.053324972400262 23.265441821662414, 8.182932258343188 22.363444007145517 C2.312539544286115 21.46144619262862, 0.9776377746981268 20.52988581005721, -0.33819959665626054 17.044258123552336 C-1.654036968010648 13.55863043704746, 0.3187512623752037 4.90050432353256, 0.28790803021686306 1.4496778881162675 C0.25706479805852245 -2.0011485473000246, -0.6017572706118303 -2.773362157865005, -0.5232589896063043 -3.660700488945415 M1.3699592387357074 -3.5636001917048747 C2.7834958369329597 -5.01885895104171, 2.09918268299805 -12.729825985587903, 7.356752581335758 -14.064501578008574 C12.614322479673467 -15.399177170429246, 27.954125929064976 -15.432407384608155, 32.91537862876196 -11.571653746228906 C37.87663132845894 -7.710900107849657, 36.94223093920429 3.357727748842237, 37.12426877951765 9.100020252266923 C37.306306619831005 14.842312755691609, 39.136544524754314 20.31308856505328, 34.00760567064207 22.882101274319208 C28.87866681652983 25.451113983585135, 12.047126181255848 25.663594489570418, 6.350635654844208 24.51409650786249 C0.6541451284325683 23.364598526154563, 0.9550703616679346 19.368291429646824, -0.1713374878277607 15.985113384071646 C-1.297745337323456 12.60193533849647, -0.6435855274693539 7.711321736890577, -0.40781144212996434 4.215028234411431 C-0.17203735679057472 0.7187347319322845, 1.4556029342655015 -3.558912524179134, 1.243307024208577 -4.9926476308032335" transform="translate(327.1385791693996 37.70790392124468) rotate(0 18.469264503920215 5.150298464510314)"/></g></g><g><g><path fill="none" stroke="#000" stroke-width="1" d="M0.587989939749241 -2.7019738093769936 C1.388088213278127 -4.011606917812056, -1.2998415382017185 -9.184375456159701, 4.3221577383474825 -10.208535401347842 C9.944157014896684 -11.232695346535982, 28.67939510780689 -11.875226856686654, 34.31998559904445 -8.84693348050583 C39.96057609028201 -5.818640104325008, 38.170180403189576 2.5708551003821984, 38.165700685772855 7.9612248557370995 C38.16122096835613 13.351594611092, 39.38068469026605 20.697272079511308, 34.29310729454414 23.49528505162358 C29.205529898822235 26.29329802373585, 13.139314028491242 25.699355012756328, 7.640236311441416 24.74930268841074 C2.141158594391589 23.799250364065152, 2.6236961872038984 20.742816558798875, 1.2986409922451831 17.794971105550047 C-0.02641420271353212 14.847125652301221, -0.23701987566425387 10.574715617885929, -0.31009485831087574 7.062229968917782 C-0.3831698409574976 3.5497443199496357, 0.727949828968734 -1.428912805528406, 0.8601910963654518 -3.27994278825883 M-0.5624540712218731 -3.5048273960227907 C0.08857978571965996 -5.252913592562578, -2.506306614288762 -10.860063253797358, 3.1766767590855625 -12.100885353481214 C8.859660132459886 -13.34170745316507, 28.173715340498134 -14.483274617681758, 33.53544616902408 -10.949759994125923 C38.89717699755002 -7.416245370570088, 35.39670940848052 3.372469499366435, 35.347061730241215 9.100202387853795 C35.29741405200191 14.827935276341154, 37.69933805844294 20.934007346284336, 33.23756009958827 23.41663733679823 C28.775782140733604 25.899267327312128, 13.737376429430185 24.639510736475252, 8.576393977113195 23.99598233093717 C3.4154115247962062 23.35245392539909, 3.9606358234958345 22.42600000684346, 2.271665385686339 19.55546690356974 C0.5826949478768433 16.684933800296022, -1.1187993155885387 10.819371032733585, -1.5574286497437781 6.77278371129487 C-1.9960579838990176 2.7261963898561543, -0.8705200597761419 -2.7689124094276014, -0.36011061924509713 -4.724057025062555" transform="translate(374.16886920218303 37.055949929360224) rotate(0 18.394046864733184 6.10605970558521)"/></g></g><g><g><path fill="none" stroke="#000" stroke-width="1" d="M0.7986492499709128 -5.397545427608515 C0.8520040214949689 -0.021229242540511173, -0.4002312154465759 18.6241706176563, 0.673986800547745 26.75019815077131 C1.7482048165420658 34.87622568388632, -0.35981789976358236 40.219162504940655, 7.243957345936837 43.35861977108155 C14.847732591637257 46.498077037222444, 16.188176122493587 45.20798380425828, 46.296638274750265 45.586941747616656 C76.40510042700694 45.965899690975036, 137.48554322668565 45.51415604344728, 187.89473025947692 45.63236743123182 C238.30391729226818 45.75057881901636, 314.68490938480085 45.93058683716708, 348.7517604714978 46.29621007432391 C382.81861155819473 46.66183331148074, 382.69705747342937 48.53030335357475, 392.2958367796585 47.8261068541728 C401.8946160858876 47.12191035477085, 403.0274572526049 45.22453832007394, 406.3444363088724 42.07103107791221 C409.6614153651399 38.91752383575048, 411.1293590113111 34.95856936578264, 412.19771111726334 28.905063401202426 C413.26606322321555 22.851557436622215, 413.331441594542 12.103120382900642, 412.7545489445857 5.749995290430949 C412.17765629462934 -0.603129802038743, 411.9885268533502 -5.61750051886926, 408.73635521752544 -9.213687153615727 C405.4841835817007 -12.809873788362193, 403.4466701929056 -14.381885263906536, 393.2415191296371 -15.827124518047846 C383.0363680663686 -17.272363772189156, 381.7426090541464 -17.279377639369525, 347.50544883791457 -17.88512267846358 C313.26828862168276 -18.490867717557638, 238.63724573014784 -19.221445705516423, 187.81855783224606 -19.46159475261218 C136.99986993434428 -19.701743799707934, 72.42684438985367 -19.870711315293292, 42.59332145050391 -19.326016961038114 C12.759798511154141 -18.781322606782936, 15.915564695186472 -18.28535942444144, 8.817420196147443 -16.193428627081104 C1.719275697108416 -14.101497829720767, 1.6207711743168833 -8.498173004399987, 0.004454456269741058 -6.774432176876093 M-0.24119862313382323 -6.234228066330056 C-0.410095774396003 -0.6904766956508039, -1.5817295834844405 19.766447061895843, -0.4736669269371221 28.217118728757477 C0.6343957296101963 36.66779039561911, -1.5135780128370966 41.41474433339889, 6.4071773161500865 44.46980193483975 C14.32793264513727 47.52485953628061, 16.50861762993924 46.36998971314797, 47.050865046985976 46.54746433740264 C77.59311246403271 46.7249389616573, 139.13277124120137 45.78764473142261, 189.6606618184305 45.534649680367714 C240.18855239565963 45.28165462931282, 316.35736664205865 44.78485192719863, 350.2182085103608 45.02949403107328 C384.07905037866294 45.27413613494792, 383.66721838634726 47.5077308148245, 392.8257130282435 47.002502303615586 C401.98420767013977 46.49727379240667, 402.21843923947216 44.686026389770284, 405.1691763617382 41.99812296381978 C408.11991348400426 39.31021953786928, 409.14997132391295 36.96551097109539, 410.5301357618397 30.87508174791256 C411.9103001997664 24.784652524729733, 413.65967164628483 12.025948062815996, 413.4501629892985 5.45554762472281 C413.2406543323122 -1.1148528133703755, 412.84346404738653 -4.974207191673692, 409.2730838199218 -8.547320880646556 C405.70270359245706 -12.12043456961942, 402.3788672502589 -14.307729761186733, 392.02788162451 -15.983134509114377 C381.67689599876104 -17.658539257042023, 381.2428808418364 -17.92991405544006, 347.1671700654282 -18.599749368212418 C313.09145928902 -19.269584680984774, 238.24390558931523 -19.803383835375467, 187.57361696606068 -20.002146385748524 C136.90332834280613 -20.200908936121582, 73.31137796388533 -20.130559232747608, 43.14543832590095 -19.79232467045076 C12.979498687916557 -19.454090108153913, 13.976741257840324 -20.181503560231388, 6.577979138154344 -17.972739011967445 C-0.8207829815316368 -15.763974463703502, -0.3228075421530455 -8.616395724324512, -1.2471343922149392 -6.539737380867104" transform="translate(11.793727204753111 98.86949797134093) rotate(0 206.10472143909328 13.93047137896977)"/></g></g><g><g><path fill="none" stroke="#000" stroke-width="1" d="M-2.8452565911404744 -0.1342946156859397 C26.840311129653855 -0.22477148304631517, 139.3533860687848 -0.9141613727812735, 176.44700520046814 -0.14491585822404704 C213.54062433215148 0.6243296563331794, 211.58757595237705 1.308264524615368, 219.71645819895954 4.48117847165742 C227.84534044554204 7.654092418699472, 225.50194843903546 13.768662141111353, 225.22029867996304 18.892567824028266 C224.9386489208906 24.01647350694518, 225.45563958664408 32.15116020882654, 218.0265596445251 35.2246125691589 C210.5974797024061 38.29806492949126, 210.44147486543758 37.15209415380084, 180.64581902724908 37.33328198602244 C150.85016318906057 37.514469818244045, 70.16591294827683 37.205277460116974, 39.25262461539403 36.311739562488526 C8.339336282511233 35.41820166486008, 3.113498775590836 36.754327808531976, -4.83391097004773 31.97205460025173 C-12.781320715686295 27.189781391971486, -8.89535392501925 13.047945246229641, -8.431833858437358 7.618100312807066 C-7.968313791855464 2.1882553793844908, -3.1104080353583305 0.5776189802351764, -2.052790570556368 -0.6070150002837181 M-0.8440035843376021 -1.2504032342601568 C28.60181408287215 -1.205716682671882, 138.7108628024563 0.03524968425695896, 175.42787800444117 1.186204724101337 C212.14489320642605 2.337159763945715, 211.18871024490693 2.6016992352204382, 219.4580876275716 5.655327004806111 C227.72746501023624 8.708954774391783, 225.51886405636915 14.552426457355402, 225.0441423004291 19.507971341615374 C224.56942054448902 24.463516225875345, 223.79294900322316 32.50400789772312, 216.60975709193121 35.38859631036595 C209.42656518063927 38.273184723008775, 211.42226559232464 36.84127171917991, 181.9449908326774 36.81550181747235 C152.46771607303018 36.7897319157648, 71.04617136128059 36.149131564499896, 39.746108534047835 35.23397690012063 C8.446045706815081 34.318822235741365, 1.8549714433910989 36.13147519500651, -5.855386130719127 31.32457383119677 C-13.565743704829353 26.517672467387026, -7.31386141274658 11.843005160324967, -6.51603691061352 6.392568717262176 C-5.71821240848046 0.9421322741993841, -1.893294739816254 -0.6064919082031229, -1.0684391179207666 -1.3780448271799832" transform="translate(38.06085731123932 93.97671069599647) rotate(0 107.97938325987982 18.00993333018124)"/></g></g><g><g><path fill="none" stroke="#000" stroke-width="1" d="M-0.236687156114979 -4.151726029178073 C1.2393047621425264 -5.6562301600354274, 2.760210681205188 -11.807324528878322, 8.374451912557861 -12.92008415592071 C13.988693143910535 -14.032843782963099, 28.67194275713518 -14.126299607577016, 33.44876023200106 -10.828283791432398 C38.225577706866936 -7.53026797528778, 37.020736009292726 1.1659659875065822, 37.03535676175312 6.868010740947003 C37.049977514213516 12.570055494387425, 38.52456309130127 20.56731435343982, 33.53648474676344 23.38398472921013 C28.548406402225616 26.20065510498044, 12.6001573878618 25.01296856567048, 7.106886694526163 23.768032995568866 C1.6136160011905254 22.523097425467252, 1.841097787968505 19.408186384479094, 0.5768605867496157 15.914371308600439 C-0.6873766144692737 12.420556232721784, -0.43422081892839265 6.185167717626073, -0.4785365127871728 2.805142540296939 C-0.5228522066459529 -0.5748826370321947, 0.18493901737778595 -3.3568446110920487, 0.31096642359693494 -4.365779755374363 M-1.7669076178542062 -5.403634643413072 C-0.3311143234327416 -6.715909963781249, 1.652581820480096 -10.760060589693255, 7.933734174929713 -11.525997204204838 C14.21488652937933 -12.291933818716421, 31.019551159553156 -13.21110648961759, 35.92000650884349 -9.999254330482573 C40.820461858133825 -6.787402171347557, 37.99773302868982 2.6390893046718817, 37.33646627067172 7.745115750605265 C36.67519951265362 12.85114219653865, 36.780205977509645 18.09507451768392, 31.952405960734897 20.636904345117724 C27.12460594396015 23.17873417255153, 13.491045614834695 23.448572774182715, 8.369666170023246 22.996094715208095 C3.2482867252117966 22.543616656233475, 2.881846881905261 21.317699805640196, 1.2241292918662006 17.922035991270004 C-0.43358829817286026 14.526372176899814, -1.1818679514573387 6.010433412883185, -1.5766393702111192 2.622111828986955 C-1.9714107889648997 -0.7662097549092755, -1.6146852265503338 -1.3987232653503743, -1.144499220656483 -2.407893512107378" transform="translate(327.1385791693996 106.16944238278313) rotate(0 18.479567132177692 5.742399975269336)"/></g></g><g><g><path fill="none" stroke="#000" stroke-width="1" d="M0.9663385257124901 -3.437380777374545 C1.6376384098065615 -4.774070293738074, -1.689726632963568 -10.52778470534622, 3.8924055285648818 -11.577453817251888 C9.474537690093332 -12.627122929157556, 28.971527625502315 -13.146465180732788, 34.45913149488319 -9.735395448808557 C39.94673536426406 -6.324325716884326, 37.02504037220946 3.1164196594842553, 36.81802874485012 8.888964574293503 C36.611017117490775 14.661509489102752, 37.92751710572759 22.44479882351937, 33.21706173072712 24.899874040046928 C28.506606355726646 27.354949256574486, 14.00277404176162 24.57765558717821, 8.555296494847292 23.61941587345884 C3.107818947932964 22.661176159739473, 1.8707241059003021 22.027479952892385, 0.5321964492411473 19.15043575773072 C-0.8063312074180076 16.273391562569053, 0.5496764123253624 9.991233164658885, 0.5241305548923635 6.357150702488834 C0.4985846974593646 2.7230682403187836, 0.6464501063687507 -1.1020224293181933, 0.3789213046431541 -2.654059015289584 M0.01452752237208177 -4.626323022219056 C1.0791438354255227 -5.805670240849755, 0.5591186161994193 -9.858762358806796, 6.181304639167097 -10.528485937734883 C11.803490662134774 -11.19820951666297, 28.619217429983657 -11.541913061852116, 33.74764366017815 -8.644664495787582 C38.87606989037264 -5.747415929723049, 36.70037086123585 1.1544554519970749, 36.95186202033404 6.855005458652312 C37.203353179432234 12.555555465307549, 39.75325749202179 22.378985630896636, 35.256590614767305 25.55863554414384 C30.759923737512825 28.738285457391044, 15.66415294966751 27.198919112468626, 9.971860756807157 25.93290493813553 C4.279568563946803 24.66689076380243, 2.81235339950785 21.335111682836065, 1.102837457605184 17.962550498145262 C-0.6066784842974817 14.589989313454462, 0.08091252359562623 9.319560291562343, -0.28523489460883794 5.697537829990725 C-0.6513823128133021 2.0755153684191052, -0.9948071367411162 -2.270404585707027, -1.094047051621601 -3.7695842712844554" transform="translate(374.16886920218303 105.51748839089868) rotate(0 18.39536926478064 7.531852402431184)"/></g></g><g><g><path fill="none" stroke="#000" stroke-width="1" d="M1.133098827302456 -5.98199805669787 C1.3048312843733871 -0.39642283842674164, -0.45588173577128277 18.717904023723193, 0.5611280282699129 26.94440152754133 C1.5781377923111086 35.17089903135947, -0.1545736446976651 40.364598791866925, 7.235157411549631 43.37698696621094 C14.624888467796927 46.38937514055496, 14.543182340450134 44.51313078454392, 44.89951436575369 45.018730573605424 C75.25584639105725 45.52433036266693, 138.63542859503283 46.0307715295923, 189.37314956337096 46.410585700579965 C240.11087053170908 46.79039987156763, 315.43104109103865 47.25417864167147, 349.32584017578245 47.297615599531426 C383.22063926052624 47.34105255739138, 382.9970527050578 47.60012928893851, 392.74194407183376 46.67120744773969 C402.4868354386097 45.74228560654087, 404.5951831971239 44.52360619879708, 407.79518837643826 41.72408455233848 C410.9951935557526 38.92456290587988, 411.2349328562208 35.913637000365156, 411.94197514771986 29.87407756898807 C412.64901743921894 23.834518137610985, 412.6012305273423 12.084695585842535, 412.03744212543285 5.4867279640759685 C411.4736537235234 -1.1112396576905983, 411.80514806154116 -5.895159935067991, 408.5592447362633 -9.713728161611332 C405.3133414109854 -13.532296388154673, 402.5489908639871 -15.860771486745893, 392.5620221737655 -17.424681395184077 C382.5750534835439 -18.98859130362226, 382.82574637561856 -18.757732856349506, 348.6374325949336 -19.097187612240436 C314.44911881424866 -19.436642368131366, 238.55256688951062 -19.55376210413703, 187.43213948965573 -19.46140993052966 C136.31171208980084 -19.369057756922288, 71.9819665746071 -18.967731083054524, 41.9148681958042 -18.543074570596218 C11.847769817001307 -18.118418058137912, 14.074355092830515 -18.914074748843298, 7.029549216838361 -16.913470855779835 C-0.015256659153792818 -14.912866962716373, 0.9033469723515513 -8.481826072942468, -0.35396706014871593 -6.5394512122154485 M0.26883698229677977 -7.125518325691322 C0.28046580149358447 -1.262646929377305, -1.6665966269796189 19.90939050614785, -0.6457765546608161 28.513278878331754 C0.3750435176579867 37.11716725051566, -1.2005805238615714 41.63653467096145, 6.393757416209596 44.49781190741208 C13.988095356280763 47.359089143862704, 14.61000211232297 45.31033885808358, 44.92025108576619 45.68094229703551 C75.2305000592094 46.05154573598743, 137.8363464279308 46.575483347793764, 188.25525125686892 46.72143254112363 C238.67415608580703 46.8673817344535, 313.2252174940713 46.80332942906783, 347.43368005939493 46.556637457014745 C381.6421426247186 46.30994548496166, 383.5147111145807 46.08921536625425, 393.50602664881086 45.2412807088051 C403.49734218304104 44.39334605135595, 403.9992213048637 44.227104904823086, 407.3815732647762 41.46902951231985 C410.7639252246887 38.71095411981661, 412.97097143740024 34.76198911383373, 413.80013840828593 28.692828353785664 C414.6293053791716 22.6236675937376, 413.1560997688053 11.387850247302381, 412.3565750900905 5.054064952031464 C411.55705041137566 -1.2797203432394548, 411.95381138987767 -6.007637801376754, 409.0029903359969 -9.309883417839853 C406.05216928211615 -12.612129034302951, 404.6699062736582 -13.51303125101675, 394.6516487668058 -14.759408746747129 C384.6333912599534 -16.005786242477505, 383.5046652570815 -15.91440576133453, 348.89344529488227 -16.788148392222123 C314.282225332683 -17.661891023109714, 238.1147703573435 -19.700166343271892, 186.98432899361043 -20.001864532072684 C135.85388762987736 -20.303562720873476, 72.0229392956343 -18.753514378583482, 42.110797112483894 -18.59833752502687 C12.198654929333486 -18.44316067147026, 14.82889661424749 -21.14029442994422, 7.511475894707994 -19.07080341073301 C0.19405517516849802 -17.0013123915218, -0.8068794501501767 -8.591466653851796, -1.7937272047530861 -6.181391409759621" transform="translate(11.793727204753111 165.79257489441784) rotate(0 206.12571755220858 13.661672987680731)"/></g></g><g><g><path fill="none" stroke="#000" stroke-width="1" d="M-1.6308270218960896 -0.8045576199889183 C28.183686621749796 -0.5463925195758562, 139.7914789681073 0.26818182408762314, 176.5815244913922 1.235776337668287 C213.3715700146771 2.203370851248951, 210.87603201087924 1.970664484179577, 219.1094461178133 5.001009461495066 C227.34286022474734 8.031354438810554, 226.2103965629673 14.46805245712087, 225.98200913299647 19.417846201561222 C225.75362170302563 24.367639946001574, 225.32558368225563 31.822599475031375, 217.7391215379882 34.699771928137174 C210.1526593937208 37.576944381242974, 210.08629383897883 36.60876596395099, 180.4632362673919 36.680880920196024 C150.84017869580495 36.75299587644106, 70.77086070599778 35.83849040796244, 40.00077610846654 35.13246166560742 C9.230691510935301 34.426432923252406, 3.73570422374147 37.23351548782274, -4.157271317795532 32.44470846606594 C-12.050246859332534 27.655901444309134, -7.62688688018893 11.620666250715725, -7.357077140755473 6.399619535066587 C-7.087267401322017 1.1785728194174494, -3.294800487598321 2.1695569036665727, -2.5384128811947955 1.118428172171116 M-2.6519984912399153 1.3874456841778011 C26.99046170831847 1.3538112366205681, 138.76895447392315 -1.211676940517974, 175.6330199231004 -0.3682396771628539 C212.49708537227764 0.47519758619226615, 210.1036057341228 3.001859173555856, 218.53239420382357 6.448069264308521 C226.96118267352435 9.894279355061187, 226.59924744536528 15.618996689269924, 226.2057507413051 20.309020867353137 C225.81225403724494 24.99904504543635, 223.59461374903083 32.00295277868549, 216.1714139794625 34.58821433280781 C208.74821420989417 37.17347588693013, 210.88061452697505 35.40269622965888, 181.6665521238952 35.82059019208707 C152.45248972081535 36.238484154515255, 71.96871669180503 37.72478130996422, 40.88703956098341 37.09557810737695 C9.80536243016179 36.46637490478968, 3.413834751820816 36.86223640592494, -4.823510661034526 32.04537097656344 C-13.06085607388987 27.22850554720194, -9.03944916938034 13.326404692166246, -8.537032916148647 8.194385531207946 C-8.034616662916953 3.062366370249646, -2.7844932294822393 2.431213425029757, -1.8090131416443689 1.2532560108136388" transform="translate(38.06085731123932 160.89978761907338) rotate(0 108.20515283774162 18.220076797192235)"/></g></g><g><g><path fill="none" stroke="#000" stroke-width="1" d="M-1.175637980852528 -4.246986935397556 C0.42339776064716483 -5.903099342622097, 2.7041150810770134 -12.39803831595718, 8.435247791921874 -13.442191375616755 C14.166380502766735 -14.48634443527633, 28.326726673608572 -14.051867520632436, 33.21115828421664 -10.511905293355005 C38.0955898948247 -6.971943066077573, 37.53200491111768 2.2271259797245992, 37.74183745557026 7.797581988047833 C37.951670000022844 13.368037996371067, 39.37854744722779 20.446159282181274, 34.470153550932146 22.910830756584396 C29.561759654636507 25.375502230987518, 13.923712666639876 23.549830462185373, 8.291474077796426 22.58561083446657 C2.6592354889529757 21.62139120674777, 2.3017044583481434 20.55277228001742, 0.6767220178714419 17.12551299027158 C-0.9482604226052598 13.698253700525738, -1.3284572881971914 5.6965596434378405, -1.458420565063784 2.0220550959915196 C-1.5883838419303766 -1.652449451454801, -0.2154101227894503 -3.810189623756843, -0.10305764332811382 -4.921514294406345 M0.461192374421032 -5.548907525397783 C2.0846274992868326 -7.09238546722592, 2.177036030284632 -11.660899114988514, 8.026447890959833 -12.322210714241308 C13.875859751635033 -12.983522313494102, 30.49309663217507 -12.487597557027106, 35.55766353847224 -9.51677712091455 C40.622230444769414 -6.545956684801995, 38.77741810397287 -0.012641707195641949, 38.413849328742856 5.502711902434031 C38.05028055351284 11.018065512063703, 38.69253212029757 20.35031303401464, 33.37625088709216 23.575344536863483 C28.059969653886753 26.800376039712326, 11.849467414971262 26.097287166367927, 6.516161929510398 24.852900919527094 C1.182856444049535 23.608514672686262, 2.36427205423421 20.013193296336144, 1.3764179743269853 16.109027055818494 C0.38856389441976047 12.204860815300844, 1.1144214329077435 4.655306099746131, 0.5890374500670488 1.4279034764211893 C0.06365346722635412 -1.7994991469037518, -1.615217665305369 -2.0900744096641866, -1.7758859227171824 -3.255388684131151" transform="translate(327.1385791693996 173.09251930586004) rotate(0 18.624121493881717 5.975690221107698)"/></g></g><g><g><path fill="none" stroke="#000" stroke-width="1" d="M-0.23901215940713882 -3.7203021869814785 C0.6068421680463074 -5.1394563029543825, -0.3404020251144475 -10.079639220421903, 5.393042392273378 -11.135405744436946 C11.126486809661202 -12.19117226845199, 29.002230407179564 -13.092490838386597, 34.16165434491981 -10.05490133107174 C39.32107828266006 -7.017311823756883, 36.420519765214834 1.502199421752322, 36.34958601871487 7.090131299452195 C36.2786522722149 12.678063177152069, 38.30242154756109 20.657110568209312, 33.73605186591999 23.472689935127494 C29.169682184278894 26.288269302045677, 14.503001969923242 24.679975876790028, 8.951367928868288 23.983607500961284 C3.399733887813335 23.28723912513254, 1.773423957890048 22.05203534992608, 0.42624761959026836 19.294479680155035 C-0.9209287187095113 16.53692401038399, 1.0632466256432334 11.33900023161445, 0.8683098990696095 7.438273482335026 C0.6733731724959857 3.5375467330556005, -0.4894608814852531 -2.2613171299407515, -0.7433727398514747 -4.109880815521517 M-1.8236322724353522 -1.3977781718696294 C-1.1028204332588643 -2.7028839049046254, -1.0431613568306721 -8.565340494297212, 4.8097758563225534 -9.854362626692097 C10.662713069475778 -11.143384759086983, 28.056039172041462 -12.069602189774173, 33.293991006484 -9.131910966238937 C38.53194284092654 -6.194219742703702, 36.388476935569045 2.3527695894558764, 36.23748686297778 7.771784714519316 C36.08649679038652 13.190799839582755, 37.27498676581787 20.872761041548795, 32.388050570936436 23.3821797841417 C27.501114376055 25.891598526734608, 12.157000540113984 23.694957554126646, 6.915869693689176 22.828297170076752 C1.6747388472643694 21.961636786026858, 2.0539706737922128 20.762558663312443, 0.9412654923875938 18.182217479842347 C-0.1714396890170251 15.60187629637225, 0.25410709890537975 10.764905068669583, 0.23963860526146247 7.3462500692561665 C0.22517011161754516 3.92759506984275, 0.9329286067815279 -0.37832900415642867, 0.85445453052409 -2.329712516638154" transform="translate(374.16886920218303 172.44056531397558) rotate(0 17.696686020486027 6.469627623772652)"/></g></g></svg>