<svg version="1.1" xmlns="http://www.w3.org/2000/svg" viewBox="0 0 408.92613455307486 184.86781069329754" width="408.92613455307486" height="184.86781069329754">
  <!-- svg-source:excalidraw -->
  
  <defs>
    <style>
      @font-face {
        font-family: "Virgil";
        src: url("https://excalidraw.com/FG_Virgil.woff2");
      }
      @font-face {
        font-family: "Cascadia";
        src: url("https://excalidraw.com/Cascadia.woff2");
      }
    </style>
  </defs>
  <g><g transform="translate(11.765718337277804 29.518468654638298) rotate(0 166.44946469162187 8.424864111969242)"><path d="M-0.34743138402700424 -8.081806737914087 C-0.3112676005617471 -3.665530628469635, -1.289077316616406 11.518614435286796, -0.14114390227537843 18.146931642919498 C1.0067895120656492 24.7752488505522, 0.5647962942719493 29.15702102322905, 6.540169102019162 31.68809650788211 C12.515541909766373 34.21917199253517, 11.413781332394489 33.00595031199492, 35.71109294420789 33.33338455083787 C60.00840455602129 33.66081878968082, 111.47612853831666 33.64006052193567, 152.32403877289957 33.652701940939785 C193.17194900748248 33.6653433599439, 253.28278010539353 33.387247472668555, 280.7985543517053 33.409233064862555 C308.31432859801714 33.431218657056554, 309.5606407254583 34.341536325498275, 317.41868425077035 33.784615494103775 C325.2767277760824 33.227694662709276, 325.1390260910764 32.37768884050529, 327.94681550357757 30.067708076495553 C330.75460491607873 27.757727312485812, 333.3799519501686 24.922117964765093, 334.2654207257774 19.924730910045323 C335.1508895013862 14.927343855325553, 333.7741319317206 5.182434351126799, 333.25962815723034 0.08338574817693623 C332.7451243827401 -5.015662854772927, 333.6718513266753 -7.978209158672621, 331.1783980788359 -10.669560707653858 C328.6849448309965 -13.360912256635094, 326.50445357739727 -14.755778959244854, 318.2989086701939 -16.064723545710486 C310.0933637629905 -17.373668132176117, 309.7144398223322 -18.221831052923413, 281.94512863561584 -18.523228226447653 C254.17581744889947 -18.824625399971893, 193.06308820627365 -17.880021472172306, 151.68304154989565 -17.873106586855922 C110.30299489351765 -17.866191701539538, 57.776297488893235 -18.65961435439776, 33.66484869734783 -18.48173891454935 C9.553399905802426 -18.30386347470094, 12.668585752865717 -18.529222287629477, 7.014348800623233 -16.80585394776546 C1.3601118483807477 -15.082485607901445, 0.7485910420854579 -9.385832606825371, -0.2605730161070824 -8.141528875365259 M1.6710284100193533 -8.94908832620211 C2.103589851177043 -4.321477745353105, 1.3151052630220303 12.765916162252033, 2.049307846514841 19.763297495601417 C2.783510430007652 26.7606788289508, 0.5064586330670906 30.589777003450603, 6.076243910976217 33.035199673894205 C11.646029188885343 35.4806223443378, 11.357702607058375 34.28979961216897, 35.4680195139696 34.435833518263024 C59.57833642088083 34.58186742435708, 109.70569723952616 33.70083660573103, 150.73814535244358 33.911403110458544 C191.770593465361 34.12196961518606, 253.76512099091536 35.3641324976017, 281.66270819147417 35.69923254662811 C309.56029539203297 36.03433259565452, 310.0376792732741 36.89927793980834, 318.12366855579637 35.92200340461698 C326.20965783831866 34.94472886942562, 327.6744904525075 32.747879480029084, 330.1786438866079 29.835585335479923 C332.68279732070835 26.923291190930765, 332.5523124030012 23.53353664981205, 333.1485891603991 18.448238537322027 C333.74486591779703 13.362940424832004, 334.5454778333309 4.010450983354027, 333.7563044309954 -0.6762033394602052 C332.9671310286599 -5.362857662274437, 331.16270556715426 -7.113166999385362, 328.41354874638597 -9.671687399563364 C325.6643919256177 -12.230207799741367, 324.95452453267563 -14.400696717920146, 317.2613635063855 -16.027325740528223 C309.5682024800954 -17.6539547631363, 309.9193108073056 -19.184515402611183, 282.2545825886454 -19.431461535211827 C254.58985436998523 -19.678407667812472, 192.68684442792755 -17.663446017074826, 151.27299419442448 -17.509002536132087 C109.85914396092141 -17.35455905518935, 57.60009049942795 -18.30720283299464, 33.77148118762698 -18.5048006495554 C9.942871875826011 -18.702398466116158, 14.205135402821423 -20.571069275802675, 8.30133832361866 -18.69458943549663 C2.3975412444158968 -16.818109595190588, -0.29737506653284607 -8.785861720984196, -1.6513012875895947 -7.24592160771914" stroke="#000000" stroke-width="1" fill="none"></path></g></g><g><g transform="translate(82.76143009714849 21.95295236729504) rotate(0 86.1042066465704 14.566802270025761)"><path d="M-3.2423203893175723 -0.993338643014431 C20.894187612849876 -0.8062130246046908, 111.5504812845421 0.12477417323672424, 141.307809347854 0.7753223264314367 C171.0651374111659 1.4258704796261492, 168.66555600966106 0.4048734561152192, 175.30164799055385 2.909950276153844 C181.93773997144663 5.415027096192469, 181.28707821779946 11.660730816655338, 181.12436123321078 15.805783246663186 C180.9616442486221 19.950835676671034, 180.5147886105074 25.498923766217736, 174.32534608302174 27.780264856200933 C168.1359035555361 30.06160594618413, 168.0360444767814 29.428076733759706, 143.9877060682969 29.49382978656238 C119.93936765981236 29.559582839365053, 54.91599092630288 28.52791216162307, 30.03531563211463 28.174783173016973 C5.154640337926381 27.821654184410875, 1.1214365135500213 31.171088253115485, -5.2963456968326055 27.37505585492578 C-11.714127907215232 23.579023456736074, -8.659567723357162 9.778603343159158, -8.471377630181133 5.398588783878739 C-8.283187537005103 1.0185742245983187, -4.9861755677366455 1.8756774152051503, -4.167205137776435 1.0949684992432596 M-4.523136761605963 1.0995546240638943 C19.46231667495298 0.9617437545008981, 110.59058735433229 -1.4851309840480869, 140.43870448568742 -1.0454793160032347 C170.28682161704256 -0.6058276479583826, 167.74370871454255 0.7640907912033978, 174.56556602652483 3.737464632333007 C181.38742333850712 6.710838473462616, 181.06706025926457 12.813854379391774, 181.3698483575812 16.79476373077442 C181.67263645589782 20.775673082157066, 182.43228546104453 25.669396044319104, 176.3822946164245 27.62292074062888 C170.33230377180448 29.57644543693866, 169.38338070800003 28.105293889259087, 145.069903289861 28.515911908633093 C120.75642587172196 28.9265299280071, 55.71530403705863 30.241081452744957, 30.501430107590256 30.08662885687291 C5.2875561781218785 29.932176261000862, -0.03371174193043114 31.369647956150764, -6.21334028694927 27.589196333400796 C-12.392968831968108 23.808744710650828, -6.994142507351046 11.799205174340134, -6.576341162522777 7.403919120373111 C-6.158539817694508 3.0086330664060874, -4.26518263090009 2.715731452580526, -3.7065322179796545 1.2174800095986575" stroke="#000000" stroke-width="1" fill="none"></path></g></g><g><g transform="translate(35.92438133085385 34.006975165756785) rotate(0 14.974215103031746 1.7963706151770396)"><path d="M-1.1405287654913585 -5.311524429642093 C0.024927173166348515 -6.556261248379652, 1.859304052118909 -11.738007832885494, 6.49811412544231 -12.59064675999042 C11.136924198765712 -13.443285687095347, 22.846807194260553 -13.063515891482815, 26.692331674449047 -10.427357992271654 C30.53785615463754 -7.7912000930604925, 29.657442595987096 -1.0194649860914766, 29.57126100657328 3.2263006352765493 C29.485079417159465 7.472066256644576, 30.09910071016355 12.911472992693671, 26.175242137966148 15.0472357359365 C22.251383565768744 17.18299847917933, 10.452660063590827 16.695271180787714, 6.028109573388863 16.04087709473352 C1.6035590831868998 15.386483008679328, 0.5132146597526168 13.89036875558822, -0.372060803245634 11.120871219611344 C-1.257336266243885 8.351373683634467, 0.7650858984209438 2.285222181478135, 0.7164567953993581 -0.5761081211277439 C0.6678276923777725 -3.4374384237336226, -0.7023890182696433 -5.2368851981006594, -0.6638354213751476 -6.047110596023929 M0.5388297175865996 -6.278187773520556 C1.6269601312585165 -7.343341181339403, 1.0922032376590636 -10.55142262408394, 5.85184176815915 -11.023605175411147 C10.611480298659236 -11.495787726738353, 25.12142125400868 -11.648237789593399, 29.096660900587118 -9.111283081483789 C33.071900547165555 -6.574328373374178, 29.91669890001461 0.1615867259725965, 29.703279647629774 4.198123073246517 C29.48986039524494 8.234659420520437, 31.5162937550067 13.336940616491848, 27.816145386278098 15.107935002159737 C24.115997017549496 16.878929387827625, 12.160328425375717 15.6947628992271, 7.502389435258154 14.824089387253851 C2.8444504451405903 13.953415875280601, 1.0779554473201878 12.522925429798576, -0.1314885544272812 9.883893930320244 C-1.3409325561747503 7.244862430841913, 0.048306706451981124 1.3168466476868759, 0.2457254247733407 -1.010099609616135 C0.4431441430947003 -3.337045866919146, 1.322219343870491 -3.266636331693458, 1.0530237555008761 -4.07778361349782" stroke="#000000" stroke-width="1" fill="none"></path></g></g><g><g transform="translate(11.67896204290355 84.80620561497034) rotate(0 166.92294264964988 7.392739905691684)"><path d="M0.5748059168457984 -8.365056306853296 C0.726847996209493 -3.987558883932281, -0.9430424083217283 11.369672727675713, -0.08108616683226322 17.993879217534975 C0.7808700746572018 24.618085707394236, -0.2003718003630608 28.92792489667265, 5.746543365782589 31.380182632302276 C11.69345853192824 33.8324403679319, 11.114656328579795 32.342891172743215, 35.60040483004163 32.707425631312724 C60.08615333150347 33.07196008988223, 111.74841771907228 33.31110477623865, 152.66103437455362 33.56738938371933 C193.57365103003497 33.82367399120001, 253.45997956446945 34.182336526776226, 281.0761047629297 34.24513327619678 C308.6922299613899 34.30793002561734, 310.50437155660455 34.77248658566063, 318.35778556531506 33.94416988024269 C326.21119957402556 33.11585317482475, 325.539034388043 31.578191712972334, 328.19658881519257 29.275233043689155 C330.85414324234216 26.972274374405977, 333.2541088067054 24.74773985578682, 334.30311212821266 20.126417864543612 C335.3521154497199 15.505095873300405, 335.16843344157775 6.710616666953215, 334.49060874423594 1.5473010962299145 C333.81278404689414 -3.6160144744933858, 332.96041858360286 -7.948150011791517, 330.2361639441619 -10.853475559796191 C327.5119093047209 -13.758801107800865, 326.28953267514504 -14.802651575059063, 318.1450809075901 -15.884652191798132 C310.0006291400352 -16.9666528085372, 309.12640185465034 -17.002569025182936, 281.3694533388324 -17.34547926023061 C253.61250482301446 -17.688389495278287, 192.8604292669121 -17.62968339462714, 151.60338981268254 -17.942113602084195 C110.34635035845298 -18.25454380954125, 57.845638671601975 -19.09138382079791, 33.82721661345501 -19.220060504972935 C9.80879455530804 -19.34873718914796, 13.12467315139477 -20.334407891724933, 7.492857463800723 -18.714173707134353 C1.861041776206675 -17.093939522543774, 1.4342957501848235 -11.333867942366142, 0.036322487890720456 -9.498655397429468 M-0.5825597061496228 -9.381043918834404 C0.02671613625318392 -4.812570834933641, 1.2328084981714138 12.538780058145129, 2.1408958930655917 19.52989254689002 C3.0489832879597696 26.521005035634914, -0.6604227112513001 30.240405410452098, 4.865964663215443 32.565631013634956 C10.392352037682187 34.890856616817814, 10.901536976240951 33.27863442481011, 35.29922013986605 33.48124616598717 C59.696903303491155 33.68385790716424, 110.1209382401785 33.80917909354307, 151.25206364496603 33.78130146069734 C192.38318904975355 33.75342382785161, 254.64535016600612 33.5266433051159, 282.0859725685913 33.31398036891281 C309.52659497117645 33.10131743270972, 308.42686879077206 33.286477086555934, 315.895798060477 32.50532384347883 C323.3647273301819 31.72417060040172, 324.01450310538144 30.91864636054132, 326.89954818682077 28.62706091045017 C329.7845932682601 26.335475460359017, 332.36040160921993 23.267610033620183, 333.20606854911296 18.75581114293192 C334.051735489006 14.244012252243653, 332.40178763586306 6.340929014989311, 331.9735498261789 1.556267566320587 C331.54531201649473 -3.2283938823481373, 333.12777063396874 -7.067326800391678, 330.63664169100804 -9.952157549080423 C328.14551274804734 -12.83698829776917, 325.236770156741 -14.472177457036814, 317.02677616841476 -15.752716925811884 C308.8167821800885 -17.033256394586953, 309.0225529065907 -17.32514081030695, 281.37667776105064 -17.63539436173084 C253.73080261551058 -17.945647913154726, 192.37778954540116 -17.281680448818445, 151.15152529517445 -17.6142382343552 C109.92526104494775 -17.946796019891952, 58.315835803058775 -19.575651269254866, 34.019092259690424 -19.630741074951366 C9.72234871632207 -19.685830880647867, 11.240668685578228 -19.663977322048254, 5.371064034964332 -17.9447770685342 C-0.49854061564956265 -16.225576815020148, -0.47167538668131426 -11.146615607683872, -1.1985356439929455 -9.315539553867058" stroke="#000000" stroke-width="1" fill="none"></path></g></g><g><g transform="translate(82.97843158837986 77.2596545677842) rotate(0 85.40948717015475 14.826133436398578)"><path d="M-3.525569958256781 -0.9332809075713158 C20.572159357387232 -1.032132462013138, 111.40153957693103 -0.6403939213982854, 141.1547569224695 -0.018303409805135423 C170.90797426800796 0.6037871017880145, 168.43645988310465 0.1057484523005221, 174.99373411497402 2.7992621619875844 C181.5510083468434 5.492775871674647, 180.62401907854775 11.933019997410952, 180.49840231368563 16.14277884831724 C180.37278554882352 20.352537699223525, 180.18583286481035 25.67612322529366, 174.24003352580127 28.057815267425298 C168.29423418679218 30.439507309556934, 168.83113353088908 30.371807564905946, 144.82360627963112 30.43293110110706 C120.81607902837317 30.49405463730817, 55.34694118646524 28.927920458589625, 30.19487001825355 28.424556484631964 C5.042798850041862 27.921192510674302, 0.3219393860170632 31.04524510965235, -6.088820729639002 27.41274725736108 C-12.499580845295068 23.78024940506981, -8.833945832335433 11.172904853016338, -8.269690675682842 6.629569370884354 C-7.705435519030251 2.086233888752372, -3.4579932519102297 1.1642446721326403, -2.7032897897234562 0.1527343645691872 M-4.955092354238257 1.1911426706146448 C18.97122358537245 1.227216612453016, 110.3634512502254 1.0079876716335234, 140.20529953697604 1.4042414362359927 C170.04714782372668 1.800495200838462, 167.39433712154405 0.9179251603859844, 174.0959973662656 3.5686652582294607 C180.79765761098716 6.2194053560729365, 180.0558950719057 13.229095380044086, 180.41526100530533 17.30868202329685 C180.77462693870496 21.388268666549614, 181.93062794885657 25.93962521940989, 176.2521929666633 28.046185117746038 C170.57375798447003 30.152745016082186, 170.59589151551424 29.544483406757106, 146.3446511121457 29.948041413313728 C122.09341070877717 30.35159941987035, 55.762503183806224 30.85109410561895, 30.744750546452103 30.467533157085768 C5.726997909097982 30.083972208552584, 3.017055138581805 31.78773716236948, -3.7618647119790247 27.646675722114633 C-10.540784562539855 23.505614281859785, -9.700069123542908 10.26551497687233, -9.928768556912882 5.621164515556674 C-10.157467990282855 0.976814054241018, -6.204704599264805 1.0207965193949482, -5.134061312198862 -0.21942704577930283" stroke="#000000" stroke-width="1" fill="none"></path></g></g><g><g transform="translate(35.29103813470144 89.43579980778986) rotate(0 15.087864174448605 1.8919238473166047)"><path d="M-1.0804710300482432 -5.464576855026614 C-0.2009922642420987 -6.71342439153761, 1.094135957483899 -11.96710395944189, 5.704488389205737 -12.898560635570254 C10.314840820927575 -13.830017311698619, 22.547682190445855 -13.726575030734525, 26.58164356028279 -11.0533169117968 C30.615604930119723 -8.380058792859076, 29.929731776742713 -1.3484207317884973, 29.908256608227333 3.1409880780560906 C29.886781439711953 7.6303968879006785, 30.276300169239477 13.706562046801338, 26.452792549190512 15.883135947270729 C22.629284929141548 18.05970984774012, 11.396390894737067 17.12622144095007, 6.967210887933541 16.20043148087244 C2.5380308811300143 15.274641520794809, 0.9132229567191694 13.090871628055261, -0.12228749163064384 10.328396186804946 C-1.157797939980457 7.565920745554632, 0.6392427549578092 2.110844072499863, 0.7541481978346611 -0.37442116662945296 C0.869053640711513 -2.8596864057587688, 0.6919124915875345 -3.708702882274243, 0.5671451656304677 -4.58319524797095 M0.6304177641373506 -6.511592722231951 C1.2824329892106345 -7.583014974655289, -0.07467810665932628 -10.900794217082446, 4.641562520398377 -11.493173835670394 C9.357803147456082 -12.085553454258342, 24.665255623191268 -12.659402976952254, 28.92786152648357 -10.065870433759637 C33.19046742977588 -7.472337890567018, 30.331939900666924 -0.34007078621536113, 30.217197940152204 4.068021423485318 C30.102455979637483 8.476113633185996, 32.39652293009749 14.549451424006037, 28.239409763395255 16.382682824444434 C24.08229659669302 18.21591422488283, 9.939517942873731 15.741962045974688, 5.274518939938787 15.067409826115698 C0.6095199370038413 14.392857606256708, 1.0779681001941805 14.963692310310813, 0.24941574578557885 12.33536950529049 C-0.5791366086230227 9.707046700270167, 0.4663959126707009 2.270920031495012, 0.30320481348717765 -0.7025270040062412 C0.14001371430365436 -3.6759740395074942, -0.8214708535973131 -4.596158300058175, -0.7297308493155609 -5.505312707717028" stroke="#000000" stroke-width="1" fill="none"></path></g></g><g><g transform="translate(11.792838953910405 139.09748064311123) rotate(0 166.80785553202927 7.525667043947976)"><path d="M-0.21881981939077377 -8.67297018243313 C-0.09523538162864163 -4.374290508535553, -1.2421674121364257 10.706613588424002, -0.1917742809985229 17.367920298009828 C0.8586188501393798 24.029227007595654, 0.07191738039255569 28.59896915097563, 6.083538967436642 31.294870075081818 C12.095160554480728 33.990770999188, 11.29185578765572 33.13798022685088, 35.877955241265994 33.54332584264695 C60.46405469487627 33.94867145844302, 112.69214855021852 33.742055036401005, 153.6001356890983 33.726943769858245 C194.50812282797807 33.711832503315485, 253.859987861436 33.38283939924327, 281.3258780745447 33.45265824339039 C308.7917682876533 33.52247708753751, 310.3785284131414 34.598108476682356, 318.3954769677503 34.14585683474098 C326.41242552235923 33.69360519279961, 326.9333358979001 33.106374028798754, 329.4275694021982 30.739148391742134 C331.9218029064962 28.371922754685517, 332.54267606363294 24.777799002667923, 333.3608779935386 19.94250301240128 C334.1790799234443 15.107207022134634, 334.9535125393255 6.663744051139006, 334.33678098163216 1.727372450142268 C333.7200494239388 -3.2089991508544697, 332.372380615921 -6.728887984051038, 329.66048864737843 -9.67572659357915 C326.9485966788359 -12.62256520310726, 326.08687373578346 -14.552313497513895, 318.065429170377 -15.953659207026403 C310.04398460497055 -17.35500491653891, 309.1957430373591 -17.43433849158308, 281.5318212549396 -18.083800850654196 C253.8678994725201 -18.733263209725312, 193.31651666544116 -19.434868998722596, 152.08189847586002 -19.85043336145309 C110.84728028627887 -20.26599772418358, 58.53134337970134 -21.03941915633868, 34.12411211745281 -20.577187027037144 C9.71688085520428 -20.114954897735608, 11.51099126281445 -19.172851552461015, 5.6385109023688385 -17.077040585643875 C-0.23396945807677216 -14.981229618826735, -0.2796516413251864 -9.288403522047538, -1.1107700452208518 -8.0023212261343 M-1.7928389539103955 -9.850612579093651 C-1.2269610149499717 -5.402336562453631, 0.7766428673540009 11.527614870786273, 1.9720965189620459 18.575305194614174 C3.167550170570091 25.622995518442075, -0.2451817105989864 29.738747898264137, 5.379882955737874 32.435529363873755 C11.004947622074734 35.13231082948337, 11.171766151331745 34.4911452323243, 35.72248451698321 34.755993988271875 C60.27320288263467 35.02084274421945, 111.5601277576765 33.85637824029065, 152.68419314964666 34.024621899559186 C193.80825854161682 34.19286555882772, 255.25536281888012 35.96741018562813, 282.46687686880415 35.765455943883055 C309.67839091872816 35.56350170213798, 308.2349579969908 33.63055047036407, 315.9532774491908 32.81289644908872 C323.67159690139084 31.99524242781337, 326.14081290791364 33.249124392176604, 328.77679358200436 30.859531816230962 C331.4127742560951 28.46993924028532, 330.6654666760344 23.313450232613867, 331.769161493735 18.47534099341486 C332.8728563114356 13.637231754215854, 335.7340332599285 6.879448275872643, 335.3989624882082 1.8308763810369264 C335.06389171648794 -3.21769551379879, 332.8410127332539 -8.86795220808745, 329.7587368634133 -11.816090375599437 C326.6764609935727 -14.764228543111424, 324.92771527421456 -14.700411888780435, 316.9053072691647 -15.857952624034997 C308.8828992641149 -17.015493359289557, 309.12829821022154 -17.983589246567178, 281.6242888331141 -18.761334787126806 C254.1202794560067 -19.539080327686435, 193.07332282815798 -20.64458849506402, 151.88125100652013 -20.524425867392768 C110.68917918488228 -20.404263239721516, 58.75153548291031 -18.276405155954542, 34.471857903287074 -18.040359021099285 C10.192180323663838 -17.804312886244027, 11.829803805493235 -20.94260390467078, 6.2031855287807085 -19.10814905826122 C0.5765672520681813 -17.27369421185166, 1.794554841265921 -8.637282366698, 0.7121482430119066 -7.03362994264193" stroke="#000000" stroke-width="1" fill="none"></path></g></g><g><g transform="translate(82.73444541924178 131.38852872339226) rotate(0 86.2859943212474 14.719396099435073)"><path d="M-3.833483833836615 -1.0439690217375754 C20.185427732783964 -0.9543836865309603, 110.73848043767931 -0.3681047406426703, 140.52879800294434 0.3186921918489173 C170.31911556820938 1.0054891243405049, 168.10750413740763 0.2829479113764495, 174.90842155775354 3.0768125732119493 C181.70933897809945 5.870677235047449, 181.41910813265542 12.876750828557196, 181.33430252501987 17.081880162861918 C181.2494969173843 21.28700949716664, 180.6167831249727 26.076131522260216, 174.3995879119402 28.30758857904029 C168.18239269890768 30.53904563582036, 168.03163640335612 30.24596442144281, 144.0311312468247 30.47062250354236 C120.03062609029332 30.695280585641907, 55.172563077486956 30.322221968446804, 30.39655697275184 29.65553707163758 C5.620550868016718 28.988852174828352, 1.850121701843479 30.33381236657984, -4.624905381586023 26.47051312268701 C-11.099932465015526 22.60721387879418, -8.803886685454328 10.95798395076414, -8.453605527825175 6.475741608280595 C-8.103324370196022 1.99349926579705, -3.5048658677244386 0.5762067044507556, -2.5232184358111027 -0.4229409322142601 M-1.7646610144975035 1.0223432965110986 C22.651457857852467 1.3457834950633367, 113.62228606286655 1.4232286722858367, 142.9107121847002 1.9181597287584233 C172.19913830653385 2.41309078523101, 167.5026796093561 1.7981543354767742, 173.9658957165044 3.991929635346618 C180.4291118236527 6.185704935216462, 181.8784058794199 11.008284897542104, 181.69000882759002 15.080811527977485 C181.50161177576015 19.153338158412865, 178.92782709560416 25.939637872283885, 172.83551340552515 28.4270894179589 C166.74319971544614 30.914540963633915, 168.7666583960265 29.962572612975826, 145.13612668711596 30.005520802027565 C121.50559497820544 30.048468991079304, 56.10657656761437 29.317403908151146, 31.052323152061998 28.684778552269332 C5.998069736509631 28.05215319638752, 1.077533170217091 30.092802229183906, -5.1893938061982325 26.209768666736675 C-11.456320782613556 22.326735104289444, -6.6042289245492265 9.937760600937729, -6.549238706429942 5.38657717758594 C-6.4942484883106575 0.8353937542341505, -5.056185338381474 -0.48596138131992606, -4.859452497482524 -1.0973318733740598" stroke="#000000" stroke-width="1" fill="none"></path></g></g><g><g transform="translate(35.92840747873099 143.50198619516038) rotate(0 14.747204752803107 1.7930047213005764)"><path d="M-1.1911591442145029 -6.0905357745517605 C-0.12324348875992097 -7.302283091336195, 1.3664251382395145 -12.296059705138912, 6.04148399085979 -12.983873192790714 C10.716542843480067 -13.671686680442516, 22.724881649521784 -12.931485976626858, 26.859193971507153 -10.217416700462572 C30.993506293492523 -7.503347424298285, 30.873462607888953 -0.9174704716261437, 30.847357922772012 3.3005424641950065 C30.82125323765507 7.518555400016156, 30.67630846620603 12.907064919268379, 26.702565860805503 15.090660914464332 C22.728823255404976 17.274256909660284, 11.270547751273932 16.951843331971794, 7.004902290368844 16.402118435370728 C2.7392568294637556 15.85239353876966, 2.3075244665763472 14.619053943881678, 1.1086930953749714 11.792311534857925 C-0.09013827582640443 8.965569125834172, -0.07218998811470062 2.1409032193809665, -0.18808593683941122 -0.558336018771787 C-0.3039818855641218 -3.2575752569245404, 0.47699158933533725 -3.755575498088452, 0.41331740302670783 -4.403123894058597 M0.46161839003380434 -3.8061800745077994 C1.4009998718209553 -4.82102449184813, 0.34056289399298656 -10.792451729270404, 5.155480812920807 -11.623275485431593 C9.970398731848627 -12.454099241592782, 25.545484798282057 -11.446892169438065, 29.351125903600728 -8.79112261147494 C33.1567670089194 -6.135353053511814, 28.11112941816494 0.3171283605322275, 27.98932744483284 4.311341862347164 C27.867525471500738 8.3055553641621, 32.39653558297149 13.330218304518274, 28.620314063608117 15.17415839941468 C24.84409254424475 17.018098494311083, 9.747607149092453 16.086035429782825, 5.331998328652624 15.374982431725591 C0.9163895082127942 14.663929433668358, 3.2042779027263766 13.634170341946097, 2.126661140969142 10.907840411071282 C1.0490443792119077 8.181510480196467, -0.6185390205148766 1.7067602304886946, -1.1337022418907827 -0.9829971535233006 C-1.6488654632666888 -3.6727545375352957, -1.149225229531914 -4.667639039174842, -0.9643181872862946 -5.230703893000689" stroke="#000000" stroke-width="1" fill="none"></path></g></g><g transform="translate(304.62182497010235 25.28557155919316) rotate(0 12.747623352632715 12.74762335263273)"><path d="M1.4702208277407558 5.253082447262669 C1.4702208277407558 5.253082447262669, 1.4702208277407558 5.253082447262669, 1.4702208277407558 5.253082447262669 M1.4702208277407558 5.253082447262669 C1.4702208277407558 5.253082447262669, 1.4702208277407558 5.253082447262669, 1.4702208277407558 5.253082447262669 M1.1224858717025843 12.119157815910237 C4.503156196645943 9.169557601804977, 5.780193322794301 6.200137525883725, 10.610023177988205 3.0911957761613253 M1.233262137226912 11.200270940735297 C3.5696653372303233 8.079566621026698, 7.232045877190975 6.008777136548775, 9.33343199828205 2.058360180292798 M3.4226984752445 16.901685712984836 C7.207703084978402 10.590961971391401, 12.723452874264524 5.492096837020371, 14.721935533555012 2.7717677997067636 M2.061335984441497 16.572892161212003 C5.918075530157114 13.682501087003956, 7.9841126317458695 10.551497643662627, 15.506156553150873 1.9046047115340894 M3.028905041484041 19.1386890061313 C6.8419136480501805 15.983011053972895, 10.436378048282334 12.566625339959025, 18.276253643002676 2.7806813681535463 M3.9493498541096876 19.930239258717904 C7.8425902138101 15.436471447300477, 13.35546765775854 11.41628289085302, 19.997643141564296 1.9731664361469488 M6.1190133491164325 23.41655309259015 C9.43943440125284 20.41947765587754, 17.15006349017242 15.146940816637288, 23.17808351624667 3.2901411112060295 M5.339328056723463 23.227803991577204 C11.43254619194818 17.691672882471863, 17.272114711293614 10.25517366882012, 23.476164046264284 5.935405591469024 M8.346885161507185 27.916359407763615 C16.328214534209145 17.999860836887322, 21.7946255195185 13.963361572322109, 26.698283445643007 7.140581384043671 M10.491943879085834 26.045715646754637 C15.020175325048623 20.442022683760655, 19.165283100373543 16.41610479416344, 26.44048283304435 6.847210634242273 M12.097350338762523 27.920481101453987 C15.945756222828717 24.896697321445618, 20.483358450275006 20.168598822861714, 23.958640619952924 15.421880785167783 M13.068299243142725 28.19504443819889 C17.373298156376727 24.993218768149482, 18.759702038422393 21.757952694479137, 25.249236204688195 13.961351541594237" stroke="#000" stroke-width="0.5" fill="none"></path><path d="M16.843458646653026 0.4702121890053288 C19.52236382004492 1.229894463239067, 23.349918458534667 4.516742428393073, 24.63189019514046 7.083045055866108 C25.913861931746254 9.649347683339144, 25.31168322629726 13.21491458879508, 24.53528906628778 15.86802795384354 C23.758894906278304 18.521141318892, 21.952058724154437 21.24899377189807, 19.97352523508359 23.001725246156866 C17.99499174601274 24.75445672041566, 15.456750281196364 26.614229052515032, 12.664088131862695 26.384416799396313 C9.871425982529026 26.154604546277593, 5.1714896321732 23.524406640835352, 3.2175523390815783 21.622851727444548 C1.2636150459899562 19.721296814053744, 1.1936835002103925 17.747099409992938, 0.9404643733129614 14.975087319051479 C0.6872452464155303 12.203075228110022, 0.41122102520115233 7.288176816727001, 1.6982375776969914 4.990779181795801 C2.98525413019283 2.6933815468646025, 5.8111413783696 1.89282739423578, 8.662563688287996 1.1907015094642848 C11.513985998206392 0.4885756246927896, 17.22546222524373 0.7105703993751172, 18.806771437207374 0.7780238731668305 C20.388080649171016 0.8454773469585438, 18.222900680719444 1.442113329119407, 18.15041896006985 1.5954223522145643 M17.295130270556328 -0.6624494538400345 C19.920205164580853 0.15609085365110376, 21.922345975602628 4.483655196093711, 23.150962641986865 6.896768778086534 C24.379579308371103 9.309882360079357, 25.059337004822595 11.312821738526685, 24.666830268861744 13.816232038116901 C24.274323532900894 16.31964233770712, 22.69907858336377 20.084210967938898, 20.79592222622177 21.917230575627833 C18.892765869079767 23.75025018331677, 15.67970568221119 24.456509223997685, 13.247892126009742 24.814349684250523 C10.816078569808292 25.17219014450336, 8.556940349676573 25.80496218464811, 6.205040889013073 24.064273337144854 C3.853141428349573 22.323584489641597, 0.08259521257976343 17.300407052556658, -0.8635046379712605 14.37021659923098 C-1.8096044885222846 11.440026145905302, -0.6801009850955431 8.703063619950512, 0.5284417857069297 6.483130617190784 C1.7369845565094024 4.263197614431056, 3.8067487648247873 1.9383272197609465, 6.387751986843576 1.0506185826726142 C8.968755208862365 0.16290994558428185, 14.604598400256123 1.4116177810997514, 16.014461117819664 1.1568787946607895 C17.424323835383206 0.9021398082218275, 15.020727836901713 -0.6186027028194504, 14.846928292224824 -0.4778153359611572" stroke="#000000" stroke-width="1" fill="none"></path></g><g transform="translate(304.62182497010235 77.51973554071219) rotate(0 12.747623352632715 12.74762335263273)"><path d="M3.191130115526416 2.7740070880730765 C3.191130115526416 2.7740070880730765, 3.191130115526416 2.7740070880730765, 3.191130115526416 2.7740070880730765 M3.191130115526416 2.7740070880730765 C3.191130115526416 2.7740070880730765, 3.191130115526416 2.7740070880730765, 3.191130115526416 2.7740070880730765 M-0.34645923340518925 11.118977040765477 C4.9518566350527875 8.269514374407741, 9.424432648687084 2.437035555128762, 12.553263665196345 -0.4385522605601042 M1.4716083857993318 11.061023662207319 C4.02013316184864 6.720780617159202, 8.358092388451698 2.3045264086094006, 12.11326501166527 -1.2135568590584485 M3.5160659567422754 16.292372974289034 C4.519240213124422 11.190992775190733, 9.436769835309978 9.084652071030838, 15.809978613309138 2.5283564742529907 M1.6470417435250768 16.22457676688341 C4.736454691254422 12.09280334341804, 8.868306272571822 10.054478534193686, 15.371882636338047 2.197452102775327 M5.705453923206383 18.478746507483073 C5.07682423881977 15.542072959291488, 10.746272646267723 12.080343054506525, 18.17674837854701 4.591146691915591 M3.9073795250165997 19.62947148846323 C10.269188030420816 14.242014341142482, 14.26503230053131 7.613385448763699, 19.40160352957445 3.574141937521298 M7.662680830141783 24.05841956840665 C11.43856498192665 19.82223434695145, 14.095016044803149 14.958277506504462, 22.965037130084518 5.596924579210031 M6.960191658964634 22.203637676256008 C10.180194891453029 18.601356602256864, 14.017449120263006 15.399007167884147, 23.236126769599203 3.36491359255408 M10.933643462845032 23.59521318826761 C16.695795832684123 20.50099535863107, 22.552211341556944 10.874199347772661, 26.70449107181234 7.8179900671807125 M11.172316758670751 24.593875991589687 C13.640717476025774 21.22305036479804, 17.76179646132259 15.885379662545931, 24.922446150742 8.72760508092912 M14.907489238973152 25.044027107975484 C18.867600312524456 21.86743888068593, 22.44011297487898 18.32941108712578, 25.55294028687693 12.54989479428678 M15.521247273791026 25.858125801592173 C18.500797263659365 23.422755443845507, 19.330320710274922 19.591072271291097, 26.197410705680323 11.78148085291087" stroke="#000" stroke-width="0.5" fill="none"></path><path d="M11.659639069135295 -0.474891794811521 C14.096462732477004 -0.7654880942455249, 18.056032288360722 0.43025620286660504, 20.227079067739986 2.2357014977839 C22.39812584711925 4.041146792701195, 23.908543124052645 7.8070526959879665, 24.685919745410875 10.35777997469225 C25.463296366769104 12.908507253396532, 26.17531724794044 15.287299137080666, 24.891338795889354 17.5400651700096 C23.607360343838266 19.792831202938537, 19.663568074628888 22.769564064332293, 16.982049033104342 23.874376172265862 C14.300529991579797 24.97918828019943, 11.274111364554306 24.87349454940841, 8.80222454674208 24.168937817611003 C6.3303377289298535 23.464381085813596, 3.5342023454433065 21.933247810988576, 2.1507281262309803 19.647035781481414 C0.7672539070186541 17.36082375197425, 0.3455826199194595 13.243586326131188, 0.5013792314681229 10.451665640568025 C0.6571758430167863 7.659744955004863, 1.0216739049213284 4.645239398493256, 3.085507795522961 2.895511668102438 C5.149341686124593 1.14578393771162, 11.028045948016892 0.4526310304671493, 12.88438257507792 -0.04670074177688477 C14.740719202138948 -0.5460325140209188, 14.087810908821188 -0.4504919698221155, 14.223527557889131 -0.10047896536176637 M12.008469485343648 1.4811847044639421 C14.472644715435306 1.1216678015034873, 16.947749906600045 1.5499423610867815, 19.36828862406444 2.8035624538654442 C21.788827341528837 4.057182546644107, 25.878798259115776 6.668362044109191, 26.531701790130015 9.002905261135918 C27.184605321144254 11.337448478162646, 24.858754327464325 14.025502562378326, 23.285709810149875 16.81082175602581 C21.712665292835425 19.59614094967329, 19.391732334933362 24.466928400914735, 17.093434686243313 25.714820423020818 C14.795137037553264 26.9627124451269, 12.12337398599344 25.078740405520882, 9.495923918009584 24.298173888662305 C6.868473850025728 23.517607371803727, 2.8475442309145587 23.267457607297857, 1.3287342783401712 21.031421321869352 C-0.190075674234216 18.795385036440848, 0.20433561105547207 13.776996812036973, 0.38306420256326135 10.881956176091284 C0.5617927940710506 7.986915540145596, 0.4417994232259741 5.371605014411624, 2.401105827386907 3.6611775061952248 C4.36041223154784 1.9507499979788259, 10.485087668040144 1.3674356166379722, 12.138902627528857 0.6193911267928911 C13.79271758701757 -0.12865336305219, 12.240342694781871 -1.1118888005934873, 12.32399558431918 -0.8270894328752618" stroke="#000000" stroke-width="1" fill="none"></path></g><g transform="translate(304.62182497010235 133.48491123519727) rotate(0 12.747623352632715 12.74762335263273)"><path d="M3.0512457643202784 3.9774204700903653 C3.0512457643202784 3.9774204700903653, 3.0512457643202784 3.9774204700903653, 3.0512457643202784 3.9774204700903653 M3.0512457643202784 3.9774204700903653 C3.0512457643202784 3.9774204700903653, 3.0512457643202784 3.9774204700903653, 3.0512457643202784 3.9774204700903653 M1.4662592287443572 12.59289189601091 C3.730020407397174 8.200672280238184, 7.859208553911495 4.266432112876868, 9.964328074611517 2.3925830536697026 M-0.25713423832431526 13.066843024136102 C3.483724488251853 9.015420195787863, 7.857272278548446 4.9072684183262325, 9.910495898283811 0.659599539003145 M3.2125825793329814 16.807192503786332 C6.631598140777599 15.6657561398079, 7.3230210848701764 10.804516336224145, 14.718971966246523 3.707426568325486 M2.810085464533065 17.268963997005173 C6.209497961809812 10.999567117737895, 11.108365024557738 7.053825295798395, 14.344193973618008 2.698944397289183 M2.5220908446595445 19.920512426655513 C7.156466737632706 17.94061965036511, 11.87441649827118 13.75252578384806, 18.46993969831322 4.030077618122954 M2.596788782475926 21.6646687612047 C9.456260413375752 14.021806884474744, 14.829764154259939 7.004061220117759, 20.910939530317528 3.532968298108239 M6.333687632636234 24.408615250618034 C12.100961531424526 19.476714559188384, 14.718391355905446 14.486825100526298, 23.708141947045494 5.570474555999656 M8.117332156107828 22.713407747925096 C11.140719223984235 18.845932737171076, 16.38630095638723 14.400526440239119, 22.961203446492124 6.102114344299455 M10.97429466652476 27.430396465838484 C14.1735572905935 19.01283826713116, 18.78018062760784 15.11770152721957, 24.169450580055113 9.679146945536512 M10.6475460234543 26.946646811694436 C13.82958279865756 21.32340955436298, 17.110342502977236 17.73694929617225, 26.9273189556843 8.743506942004341 M13.730900891295132 28.04912073875993 C17.272419652443357 23.47927068110126, 20.083780791063 21.014464069330238, 27.11696709705633 16.229077398513926 M13.366058104841468 29.72297583393037 C16.50579948822997 23.30772501524363, 20.827817182892325 19.906397531653404, 25.168470294346335 14.139913784263207" stroke="#000" stroke-width="0.5" fill="none"></path><path d="M11.207087941207254 1.0621689004697057 C13.455330693405001 0.27040059264479055, 15.616370740274224 0.3462277272218015, 18.01589188090886 1.5539894784985684 C20.415413021543497 2.761751229775335, 24.348060420596077 5.843403200006303, 25.604214785015074 8.308739408130307 C26.86036914943407 10.774075616254311, 26.77781807266649 13.69884379106228, 25.55281806742284 16.34600672724259 C24.32781806217919 18.993169663422897, 20.7534120743454 22.555690082917586, 18.254214753553175 24.191717025212156 C15.755017432760953 25.827743967506727, 13.236301331288521 26.825076217408867, 10.557634142669507 26.16216838101002 C7.878966954050492 25.49926054461117, 4.030913464724844 22.46268073025838, 2.182211621839093 20.21427000681907 C0.33350977895334144 17.96585928337976, -0.7250132860842236 15.430299378067312, -0.534576914645001 12.671704040374168 C-0.34414054320577847 9.913108702681024, 1.2513909801631322 5.856809602987279, 3.324829850474428 3.6626979806602016 C5.398268720785724 1.4685863583331242, 10.269243690143544 -0.041012719226063865, 11.906056307222773 -0.492965693588296 C13.542868924302002 -0.9449186679505281, 13.032844121026475 0.8175040955061418, 13.14570555294981 0.9509801344868087 M8.56049432595899 -0.14718759609976928 C10.674260620435067 -0.8362359838220228, 14.168236769464071 0.6318076283863545, 17.042859097899726 1.8518513190861903 C19.91748142633538 3.071895009786026, 24.383032763152258 4.609622012090863, 25.80822829657292 7.173074548099246 C27.233423829993583 9.736527084107628, 26.440089441771427 14.30572826019475, 25.594032298423695 17.232566535136485 C24.747975155075963 20.15940481007822, 23.023563171181788 23.60434924430447, 20.73188543648652 24.73410419774966 C18.440207701791255 25.86385915119485, 14.585292858451778 24.63194283358293, 11.843965890252088 24.011096255807622 C9.102638922052398 23.390249678032315, 6.116730978023935 22.979958553767226, 4.283923627288377 21.009024731097814 C2.4511162765528196 19.0380909084284, 0.9582917418800028 15.001755589367228, 0.847121785838743 12.185493319791142 C0.7359518297974832 9.369231050215056, 1.9664356389972337 6.281550894448987, 3.6169038910408187 4.111451113641297 C5.267372143084404 1.941351332833607, 9.8604906630694 -0.3952103797731614, 10.749931298100252 -0.8351053650549982 C11.639371933131104 -1.275000350336835, 9.035070852604635 1.2262953304571556, 8.95354770122593 1.4720812019502763" stroke="#000000" stroke-width="1" fill="none"></path></g><g><g transform="translate(346.3326389241307 40.27311791181796) rotate(0 25.884241012837037 55.603804239812916)"><path d="M-0.8250136032700539 -1.4932593046538734 C6.185181116666957 -1.5726863405246856, 34.72725445721542 -2.430156324848831, 43.245773427823565 -1.2650000763210072 C51.76429239843171 -0.09984382779318324, 49.05139039954999 -2.551562106161879, 50.28610022037878 5.497678186513071 C51.52081004120757 13.546918479188022, 50.79162699657289 38.94926865822923, 50.65403235279632 47.030441679728696 C50.516437709019755 55.11161470122816, 53.48801806809041 52.62301941412559, 49.46053235771938 53.98471631550985 C45.43304664734835 55.34641321689411, 34.60662306625903 54.762052733289366, 26.489118090570113 55.20062308803429 C18.371613114881193 55.63919344277922, 0.3800141564488657 56.606938573571746, 0.7555025035858558 56.61613844397941 C1.1309908507228459 56.62533831438707, 20.482273094415966 55.27381091345259, 28.742048173392053 55.25582231048026 C37.00182325236814 55.23783370750793, 46.42461780724552 55.273659830860254, 50.31415297744239 56.50820682614543 C54.20368814763926 57.74275382143061, 51.91449613887317 55.01595669967504, 52.079259194573304 62.66310428219133 C52.24402225027344 70.31025186470762, 52.05095016858755 94.16981438792696, 51.30273131164321 102.39109232124318 C50.554512454698866 110.6123702545594, 56.110585554764455 110.42129758416189, 47.589946052907244 111.9907718820886 C39.06930655105003 113.5602461800153, 7.772636059535075 111.53367071452394, 0.1788943004999235 111.80793810880337 M0.9427155256737025 0.5795239394027535 C8.225905896677016 0.22316952505627535, 37.408714713540505 -3.7721232568643246, 45.50574728527293 -2.7869271378955407 C53.60277985700536 -1.8017310189267568, 48.69561507966266 -1.452028387235047, 49.524910956068254 6.490700653215458 C50.35420683247385 14.433429693665964, 50.713773313684214 36.94414193915491, 50.4815225437065 44.86944710480749 C50.24927177372878 52.79475227046007, 51.986161631407555 52.50096429554804, 48.13140633620194 54.04253164713095 C44.27665104099633 55.58409899871386, 35.103994209110226 53.874489303022905, 27.352990772472836 54.11885121430498 C19.60198733583545 54.36321312558706, 1.5156717644084494 55.455332390622125, 1.6253857163776118 55.50870311482341 C1.735099668346774 55.5620738390247, 20.110215933429377 54.43259292989195, 28.01127448428781 54.43907555951269 C35.91233303514624 54.44555818913342, 45.40133335175429 54.23970881370215, 49.03173702152821 55.547598892547796 C52.66214069130213 56.85548897139344, 49.46494689993992 54.314644152749416, 49.79369650293133 62.28641603258655 C50.12244610592275 70.25818791242368, 51.602997522021 95.2376119737552, 51.0042346394767 103.37823017157059 C50.4054717569324 111.51884836938599, 54.6978510692444 109.33494704583174, 46.20111920766553 111.13012521947894 C37.704387346086655 112.92530339312614, 7.405800324737433 113.68591629756459, 0.02384347000344822 114.1492992134538" stroke="#000000" stroke-width="2" fill="none"></path></g></g></svg>