<?xml version="1.0" standalone="no"?>
<!DOCTYPE svg PUBLIC "-//W3C//DTD SVG 20010904//EN"
 "http://www.w3.org/TR/2001/REC-SVG-20010904/DTD/svg10.dtd">
<svg version="1.0" xmlns="http://www.w3.org/2000/svg"
 width="1280.000000pt" height="1213.000000pt" viewBox="0 0 1280.000000 1213.000000"
 preserveAspectRatio="xMidYMid meet">
<metadata>
Created by potrace 1.15, written by Peter Selinger 2001-2017
</metadata>
<g transform="translate(0.000000,1213.000000) scale(0.100000,-0.100000)"
fill="#000000" stroke="none">
<path d="M4595 12120 c-224 -48 -441 -244 -578 -522 -144 -291 -217 -640 -217
-1032 1 -575 173 -1090 460 -1376 126 -126 263 -201 397 -217 l53 -6 0 -103
c0 -58 -9 -158 -21 -226 -11 -68 -22 -137 -25 -153 -4 -29 -11 -33 -92 -63
-260 -96 -542 -156 -1142 -241 -443 -63 -598 -75 -811 -62 -250 16 -381 43
-714 146 -290 89 -433 103 -577 54 -103 -34 -188 -21 -218 35 -8 16 -20 24
-29 22 -9 -3 -68 -17 -131 -30 -383 -85 -414 -111 -264 -218 84 -59 120 -98
167 -180 52 -90 105 -109 170 -60 20 15 81 83 136 152 105 130 133 152 226
176 121 33 244 15 533 -75 313 -97 486 -129 752 -138 232 -7 351 3 835 73 536
78 769 126 1025 211 l115 38 0 -390 c1 -390 7 -513 46 -900 82 -812 267 -1738
429 -2147 46 -116 77 -173 123 -225 l32 -36 0 -931 c-1 -926 -7 -1185 -41
-1681 -32 -466 -76 -770 -139 -956 -35 -102 -42 -108 -120 -101 l-65 5 0 -40
c0 -32 4 -42 20 -46 12 -3 20 -14 20 -26 0 -11 9 -25 20 -31 10 -6 51 -55 90
-110 180 -254 357 -462 420 -492 59 -30 179 -36 232 -14 41 18 68 59 68 104 0
110 -207 333 -525 567 -44 33 -81 60 -83 61 -1 0 5 18 14 40 87 207 146 650
185 1389 6 110 13 662 16 1227 3 566 9 1028 13 1028 21 0 75 59 95 102 22 47
23 48 29 22 6 -24 10 -26 49 -20 101 14 476 18 577 7 281 -32 506 -96 737
-211 234 -116 406 -242 608 -445 265 -266 464 -568 719 -1086 64 -129 127
-247 142 -262 25 -28 26 -30 15 -86 -13 -67 -7 -91 22 -91 51 0 270 207 375
356 139 195 203 380 201 583 -1 64 -4 157 -8 206 l-6 90 -30 3 c-30 3 -31 1
-54 -70 -58 -188 -221 -461 -419 -701 -50 -60 -63 -83 -60 -102 3 -14 4 -25 2
-25 -2 0 -52 96 -110 213 -216 431 -367 670 -591 929 -507 587 -1196 873
-1968 819 -88 -7 -167 -14 -175 -16 -13 -4 -15 17 -16 143 -1 151 -7 206 -51
447 -39 220 -93 450 -243 1052 -215 855 -288 1188 -340 1540 -23 159 -43 433
-34 469 5 18 20 28 67 43 309 100 616 143 1207 172 l235 11 250 -100 c474
-190 1004 -387 1792 -664 93 -33 227 -155 240 -218 4 -23 32 -42 201 -133 323
-174 371 -194 400 -165 20 20 14 35 -58 149 -81 124 -105 177 -126 269 -28
119 -71 168 -164 185 -19 3 -93 -1 -165 -9 -71 -9 -158 -16 -192 -16 -56 0
-63 2 -63 20 0 11 -5 20 -10 20 -41 0 -1355 484 -1808 666 l-282 114 -273 -15
c-565 -30 -835 -66 -1124 -149 -131 -38 -121 -49 -98 106 14 90 13 156 -1 209
-3 11 8 20 38 30 159 52 355 254 472 487 101 202 175 473 206 754 13 125 13
416 0 549 -37 364 -164 738 -331 972 -109 154 -266 280 -405 326 -76 25 -212
36 -279 21z m237 -164 c259 -91 480 -425 583 -881 30 -131 31 -159 5 -86 -56
154 -190 235 -327 196 -46 -13 -69 -28 -108 -68 -61 -63 -85 -128 -85 -232 0
-201 124 -358 284 -359 142 -1 241 103 264 279 l8 60 9 -110 c42 -506 -60
-1005 -270 -1321 -212 -318 -486 -401 -737 -221 -221 157 -384 465 -467 882
-31 155 -42 284 -42 483 1 333 47 586 156 856 60 149 125 253 221 355 166 175
330 229 506 167z m400 -911 c97 -66 120 -282 38 -360 -54 -52 -140 -42 -190
22 l-21 27 46 12 c70 17 90 42 90 113 0 49 -4 64 -24 85 -27 28 -89 50 -115
40 -20 -8 -20 0 0 32 38 57 116 70 176 29z m215 -137 c-3 -8 -6 -5 -6 6 -1 11
2 17 5 13 3 -3 4 -12 1 -19z m-406 -4378 c239 -965 291 -1211 314 -1493 10
-120 -9 -242 -28 -179 -3 9 -20 51 -37 92 -157 372 -389 1581 -434 2265 -5 73
-4 76 6 35 6 -25 86 -349 179 -720z"/>
<path d="M4419 11156 c-127 -45 -189 -143 -189 -296 0 -151 56 -265 160 -327
123 -74 283 -25 350 107 48 94 46 235 -6 350 -60 134 -200 207 -315 166z m134
-135 c15 -10 35 -28 43 -40 14 -20 14 -21 -15 -21 -47 0 -79 -17 -101 -52 -56
-92 9 -195 116 -186 24 2 44 1 44 -2 0 -18 -44 -72 -69 -85 -83 -42 -173 15
-207 132 -19 66 -15 153 10 202 34 65 121 90 179 52z"/>
<path d="M4835 9936 c-58 -18 -102 -42 -176 -97 -37 -27 -83 -56 -102 -64 -46
-19 -120 -19 -183 0 -62 19 -59 19 -72 -10 -18 -39 -16 -41 41 -58 84 -25 134
-30 190 -17 66 16 87 27 172 90 100 75 145 93 216 88 44 -3 70 -12 111 -38 66
-42 140 -81 145 -76 2 2 8 17 12 34 9 29 8 30 -83 85 -128 77 -185 90 -271 63z"/>
<path d="M115 1628 c-2 -7 -16 -44 -30 -82 -14 -38 -24 -70 -22 -72 6 -6 1045
-383 1422 -516 2616 -923 3688 -1097 5315 -862 552 80 1110 195 2973 615 924
208 2001 439 2767 595 102 20 186 38 187 38 3 3 -34 166 -39 171 -14 14 -1962
-402 -3343 -715 -1322 -299 -1973 -434 -2465 -509 -1523 -234 -2522 -108
-4595 584 -425 141 -893 306 -1603 564 -304 111 -555 201 -558 201 -3 0 -7 -6
-9 -12z"/>
</g>
</svg>
