<?xml version="1.0" standalone="no"?>
<!DOCTYPE svg PUBLIC "-//W3C//DTD SVG 20010904//EN"
 "http://www.w3.org/TR/2001/REC-SVG-20010904/DTD/svg10.dtd">
<svg version="1.0" xmlns="http://www.w3.org/2000/svg"
 width="942.000000pt" height="1280.000000pt" viewBox="0 0 942.000000 1280.000000"
 preserveAspectRatio="xMidYMid meet">
<metadata>
Created by potrace 1.15, written by Peter Selinger 2001-2017
</metadata>
<g transform="translate(0.000000,1280.000000) scale(0.100000,-0.100000)"
fill="#000000" stroke="none">
<path d="M4283 12785 c-86 -24 -168 -71 -238 -136 -312 -293 -424 -920 -279
-1566 50 -224 149 -463 262 -632 101 -153 258 -300 377 -352 l48 -21 -5 -67
c-3 -37 -20 -130 -39 -205 l-34 -138 -60 6 c-33 3 -267 22 -520 41 -491 38
-665 55 -867 86 -134 20 -332 68 -395 94 -21 9 -132 34 -248 56 -251 48 -373
78 -498 123 -122 44 -779 344 -793 362 -6 8 -47 26 -90 40 -90 30 -184 76
-231 112 -44 33 -217 54 -454 56 -161 1 -179 -1 -198 -18 -50 -46 -11 -87 224
-234 93 -59 205 -134 248 -167 117 -89 164 -117 201 -118 48 -1 61 13 97 108
20 54 42 94 65 116 l33 32 98 -43 c54 -24 217 -98 363 -165 427 -197 515 -226
860 -290 107 -20 245 -52 305 -70 309 -96 511 -123 1405 -190 184 -14 356 -28
383 -32 53 -6 54 -9 37 -104 -39 -217 -62 -792 -49 -1229 29 -978 166 -1833
317 -1974 l31 -29 -5 -126 c-2 -69 -9 -308 -14 -531 -46 -1830 -139 -3188
-245 -3551 -7 -25 -11 -57 -8 -71 3 -18 -1 -30 -14 -39 -30 -22 -57 -68 -98
-164 -20 -49 -57 -121 -80 -160 -83 -134 -95 -186 -104 -440 -7 -198 -8 -203
-39 -268 l-31 -67 -178 -2 c-263 -4 -260 -4 -753 11 -250 7 -520 11 -600 9
l-145 -3 70 -17 c40 -10 167 -24 295 -33 602 -41 935 -67 1042 -82 l117 -16
-6 -30 c-5 -22 -1 -33 12 -44 26 -18 130 -17 223 4 42 10 97 17 122 16 83 -3
1228 -168 1239 -178 8 -9 -192 -5 -519 10 -1321 59 -2611 94 -3020 82 -107 -4
-331 -6 -497 -6 -172 0 -303 -4 -303 -9 0 -5 -57 -13 -128 -16 -70 -4 -143
-11 -162 -15 l-35 -7 50 -7 c63 -8 373 -30 895 -63 270 -16 437 -31 500 -44
83 -17 88 -19 35 -15 -115 9 -240 14 -225 10 8 -2 122 -14 253 -25 371 -32
720 -79 740 -99 33 -33 -549 -58 -2410 -103 -282 -6 -511 -14 -508 -16 2 -2
250 -33 552 -68 l548 -65 370 11 c204 5 642 17 975 25 1219 30 1411 39 1565
70 91 18 128 32 123 48 -12 39 -185 87 -508 142 -107 18 -186 34 -175 34 11 0
157 -6 325 -14 168 -8 494 -19 725 -25 231 -7 560 -20 730 -30 294 -17 365
-17 365 0 0 23 -507 83 -893 106 -65 4 -115 9 -113 11 2 2 213 -3 467 -12 975
-33 1552 -36 1581 -7 20 20 -155 61 -487 116 -120 20 -620 92 -1075 155 l-65
9 67 1 c89 1 948 -26 1213 -39 116 -6 500 -24 855 -40 355 -16 739 -35 853
-41 115 -6 211 -8 214 -5 3 2 -15 10 -38 16 -24 5 -57 15 -74 20 -25 8 -21 8
20 4 28 -3 293 -5 590 -6 470 -2 618 3 603 18 -28 28 -847 103 -2043 188
-1241 89 -2972 154 -2793 105 77 -21 675 -64 1438 -103 267 -14 616 -33 775
-41 160 -9 454 -25 655 -36 201 -10 376 -21 390 -23 54 -9 -1071 31 -1230 44
-272 21 -1200 72 -1665 90 -143 5 -327 12 -410 16 l-150 6 3 96 c3 137 30 323
59 416 14 44 52 142 84 219 66 156 89 226 89 270 0 39 -46 83 -104 98 -43 11
-46 13 -46 44 0 19 9 71 20 117 72 308 148 1226 190 2298 25 653 30 809 40
1190 5 223 12 467 15 543 5 138 6 139 34 163 39 32 68 95 87 184 14 70 17 75
104 169 189 203 335 410 675 956 492 790 539 852 926 1221 162 153 456 434
654 624 509 487 642 610 658 610 8 0 17 -6 20 -14 4 -11 15 -10 59 5 29 10 72
18 95 19 24 0 43 5 45 13 8 21 178 23 222 2 36 -17 40 -17 144 10 179 46 405
111 444 128 43 18 64 49 44 66 -7 6 -60 22 -117 36 -128 31 -186 55 -265 106
-127 82 -161 71 -350 -112 -79 -76 -154 -141 -166 -143 -45 -9 -118 -16 -118
-10 0 2 9 23 20 44 24 48 90 84 182 103 l62 13 61 139 c159 362 299 583 473
746 l87 81 -70 -5 c-146 -12 -262 -28 -307 -43 -109 -36 -227 -136 -320 -273
-116 -171 -227 -466 -273 -726 -11 -63 -32 -95 -61 -95 -37 0 -1057 -86 -1299
-110 -110 -11 -283 -24 -385 -30 -463 -27 -926 -103 -1386 -230 -80 -22 -148
-40 -150 -40 -9 0 -3 39 21 137 13 56 26 123 28 150 l5 48 71 7 c133 14 279
102 376 228 384 499 339 1545 -92 2159 -60 86 -205 227 -277 270 -131 78 -297
109 -413 76z m256 -144 c154 -58 305 -214 431 -443 23 -43 40 -78 37 -78 -3 0
-24 9 -48 20 -185 83 -355 -111 -295 -335 68 -257 349 -320 451 -102 l22 47
17 -87 c71 -384 56 -728 -45 -1021 -67 -195 -185 -355 -311 -422 -53 -28 -76
-35 -144 -38 -105 -6 -171 14 -267 78 -259 173 -460 568 -534 1050 -21 140
-24 463 -5 593 59 402 225 676 457 754 54 18 166 10 234 -16z m403 -616 c104
-71 120 -282 25 -331 -86 -45 -190 48 -204 181 -7 66 10 117 48 150 39 32 84
32 131 0z m2666 -2092 c-109 -103 -960 -915 -1215 -1160 -286 -274 -367 -384
-821 -1111 -350 -559 -485 -754 -649 -937 l-53 -59 0 65 c0 171 -46 507 -199
1464 -90 558 -131 946 -131 1225 l0 177 108 31 c467 136 987 226 1455 252 95
5 321 23 502 40 454 43 980 87 1037 89 l48 1 -82 -77z m-3098 -1728 c28 -181
71 -458 96 -615 85 -543 106 -741 102 -955 -3 -142 -4 -150 -23 -150 -24 0
-32 23 -69 185 -62 279 -113 663 -146 1115 -12 163 -30 634 -29 750 2 104 4
91 69 -330z"/>
<path d="M4194 11981 c-156 -71 -180 -330 -45 -483 42 -48 123 -88 178 -88 49
0 120 30 151 63 49 53 67 107 67 202 0 76 -4 99 -26 145 -69 148 -206 215
-325 161z m177 -137 c114 -111 77 -338 -52 -321 -115 15 -189 190 -130 306 38
73 116 79 182 15z"/>
<path d="M4990 10762 c-88 -166 -223 -245 -360 -212 -71 17 -185 96 -264 182
l-65 71 -26 -17 -26 -17 29 -37 c17 -20 56 -62 88 -93 136 -128 254 -177 380
-157 78 12 145 50 209 120 48 52 133 184 124 192 -7 6 -48 26 -53 26 -3 0 -19
-26 -36 -58z"/>
<path d="M1958 383 c7 -3 16 -2 19 1 4 3 -2 6 -13 5 -11 0 -14 -3 -6 -6z"/>
</g>
</svg>
