<?xml version="1.0" standalone="no"?>
<!DOCTYPE svg PUBLIC "-//W3C//DTD SVG 20010904//EN"
 "http://www.w3.org/TR/2001/REC-SVG-20010904/DTD/svg10.dtd">
<svg version="1.0" xmlns="http://www.w3.org/2000/svg"
 width="1201.000000pt" height="1280.000000pt" viewBox="0 0 1201.000000 1280.000000"
 preserveAspectRatio="xMidYMid meet">
<metadata>
Created by potrace 1.15, written by Peter Selinger 2001-2017
</metadata>
<g transform="translate(0.000000,1280.000000) scale(0.100000,-0.100000)"
fill="#000000" stroke="none">
<path d="M5551 12784 c-77 -21 -200 -97 -346 -215 -70 -56 -72 -57 -150 -64
-413 -35 -685 -154 -941 -409 -61 -61 -127 -136 -148 -166 -88 -133 -163 -406
-173 -635 -15 -341 87 -637 304 -882 73 -82 147 -135 313 -222 170 -89 293
-121 490 -130 l155 -6 -205 -104 c-113 -57 -324 -161 -470 -231 -326 -156
-522 -263 -707 -386 -146 -96 -168 -118 -179 -170 l-6 -30 -71 74 c-40 41 -92
84 -117 97 -110 56 -433 300 -655 495 -126 110 -177 159 -705 671 -179 174
-354 337 -389 362 -84 62 -183 92 -374 112 -173 18 -277 19 -418 4 -291 -29
-519 -103 -669 -216 -88 -66 -103 -110 -79 -223 16 -74 88 -176 234 -328 137
-143 268 -248 410 -329 102 -58 166 -78 230 -71 112 13 320 166 411 303 56 85
77 156 78 270 1 87 -3 112 -30 188 -16 48 -28 87 -26 87 10 0 129 -105 169
-150 25 -28 129 -127 231 -222 103 -95 302 -285 442 -423 140 -138 288 -279
329 -314 101 -87 408 -313 494 -366 55 -33 101 -76 194 -178 96 -107 133 -141
177 -162 68 -33 59 -38 209 104 61 57 142 121 185 147 42 25 325 168 627 318
303 150 620 311 705 358 177 96 177 96 325 138 61 17 117 33 126 36 12 3 22
-11 39 -58 12 -35 44 -121 71 -193 26 -71 62 -168 78 -215 88 -254 130 -369
146 -405 9 -22 41 -110 70 -195 82 -242 97 -277 226 -534 256 -509 322 -625
470 -826 46 -63 91 -125 99 -137 8 -12 70 -95 138 -185 290 -386 372 -497 372
-504 0 -3 -31 -87 -70 -187 -90 -236 -213 -564 -260 -697 -21 -58 -48 -132
-60 -165 -12 -33 -91 -303 -177 -600 -193 -674 -197 -688 -294 -982 -79 -237
-82 -242 -120 -267 -53 -35 -79 -90 -79 -163 1 -95 46 -184 111 -222 15 -9 30
-26 33 -38 6 -21 172 -232 290 -368 346 -398 731 -771 1131 -1094 113 -92 375
-323 374 -330 0 -3 -54 -32 -120 -64 -111 -55 -119 -61 -128 -95 -35 -130
-138 -598 -180 -817 -70 -361 -102 -526 -108 -552 -5 -23 -5 -23 38 -8 92 33
148 86 190 179 11 26 43 120 70 208 71 227 122 363 196 519 54 114 72 142 106
168 23 17 71 52 107 79 82 61 111 114 118 216 8 127 -35 300 -96 388 -56 80
-147 177 -252 269 -227 199 -517 476 -1026 982 l-532 528 75 292 c141 556 215
795 516 1677 57 168 129 370 159 450 30 80 77 205 104 278 57 155 40 149 199
72 96 -46 105 -49 240 -61 77 -8 265 -14 420 -14 240 0 306 4 460 24 216 29
472 32 665 8 l125 -16 48 -53 c178 -194 311 -386 510 -735 272 -476 447 -750
724 -1138 112 -156 126 -172 176 -197 72 -35 295 -174 393 -244 101 -72 119
-81 139 -64 14 12 14 15 -4 34 -17 18 -20 36 -21 106 -1 50 5 108 14 140 25
87 21 148 -15 223 -29 64 -66 214 -70 294 -6 90 74 174 301 319 42 27 164 67
272 91 l78 16 0 132 c0 73 -3 160 -7 194 l-6 63 -36 -7 c-97 -18 -276 -76
-334 -109 -95 -52 -218 -147 -259 -197 -88 -109 -102 -178 -94 -464 3 -121 9
-251 13 -289 l6 -69 -44 30 c-72 50 -255 161 -309 188 -37 19 -60 40 -85 79
-62 97 -183 322 -386 718 -338 657 -456 846 -657 1052 -123 125 -181 161 -303
191 -247 59 -390 73 -864 85 -507 14 -706 30 -977 82 -126 24 -121 20 -100 76
3 9 -12 6 -47 -8 -75 -29 -112 -25 -79 8 10 10 10 17 -1 35 -27 43 -279 386
-365 497 -100 127 -278 369 -364 495 -76 110 -176 293 -360 660 -139 276 -176
363 -238 554 -24 76 -56 165 -70 197 -15 33 -48 120 -74 194 -62 179 -131 369
-163 453 -19 49 -23 69 -14 72 390 118 418 125 640 150 120 14 337 43 482 65
679 103 799 120 925 136 88 10 178 29 260 54 69 21 171 51 227 66 l101 27 -5
33 c-13 77 0 98 114 186 202 156 495 467 822 874 272 337 489 599 521 629 27
25 31 26 27 10 -43 -149 -51 -197 -50 -300 0 -214 76 -385 243 -552 134 -134
201 -126 405 47 183 155 401 456 431 595 28 127 17 183 -56 279 -84 111 -167
160 -395 231 -213 66 -221 67 -390 60 -300 -13 -316 -22 -573 -345 -347 -435
-770 -929 -923 -1075 -46 -45 -148 -136 -227 -204 -182 -157 -242 -234 -242
-312 l0 -29 -122 0 c-227 0 -468 -27 -1073 -120 -214 -33 -527 -78 -695 -100
-168 -22 -321 -43 -340 -47 -35 -6 -34 -5 38 62 88 82 142 155 216 296 70 133
107 232 146 396 49 205 60 293 70 568 9 272 6 331 -29 479 -40 167 -102 291
-217 434 -105 131 -198 191 -351 226 -87 19 -150 20 -222 0z m41 -214 c101
-31 198 -99 271 -190 202 -253 250 -429 236 -870 -8 -239 -21 -353 -66 -540
-42 -182 -80 -286 -150 -420 -77 -145 -135 -225 -174 -239 -18 -6 -34 -10 -35
-8 -2 1 -11 22 -21 45 l-18 42 -42 -54 -43 -54 -77 -8 c-131 -13 -451 -10
-518 5 -201 46 -420 154 -550 273 -104 95 -220 270 -270 408 -71 197 -87 470
-40 703 45 229 111 377 217 488 50 53 58 57 148 82 197 53 386 77 612 77 l140
0 117 97 c64 53 121 100 126 105 6 5 -44 8 -123 6 -72 -2 -132 -2 -132 -1 0 3
85 43 125 59 49 20 193 17 267 -6z m4918 -285 c30 -9 80 -30 110 -46 30 -15
67 -33 83 -38 15 -6 27 -18 27 -27 0 -29 -99 -207 -164 -294 -114 -152 -247
-274 -379 -349 -32 -18 -64 -31 -71 -28 -41 16 -57 311 -23 437 17 64 60 160
93 211 16 26 16 27 -25 87 l-41 61 43 4 c87 10 292 -1 347 -18z m-9654 -1545
c71 -5 144 -12 163 -16 l34 -5 -52 -53 -53 -53 27 -29 c35 -38 66 -99 101
-204 36 -109 38 -217 6 -301 -38 -97 -33 -95 -143 -46 -167 76 -289 171 -475
369 -109 116 -168 196 -179 241 -6 24 -4 27 18 27 13 0 66 14 116 30 77 26
169 41 287 49 12 0 79 -3 150 -9z"/>
</g>
</svg>
