<?xml version="1.0" standalone="no"?>
<!DOCTYPE svg PUBLIC "-//W3C//DTD SVG 20010904//EN"
 "http://www.w3.org/TR/2001/REC-SVG-20010904/DTD/svg10.dtd">
<svg version="1.0" xmlns="http://www.w3.org/2000/svg"
 width="762.000000pt" height="1280.000000pt" viewBox="0 0 762.000000 1280.000000"
 preserveAspectRatio="xMidYMid meet">
<metadata>
Created by potrace 1.15, written by Peter Selinger 2001-2017
</metadata>
<g transform="translate(0.000000,1280.000000) scale(0.100000,-0.100000)"
fill="#000000" stroke="none">
<path d="M3580 12794 c-14 -2 -65 -9 -115 -15 -358 -43 -746 -221 -1014 -466
-487 -445 -667 -1096 -470 -1698 41 -126 146 -333 226 -445 82 -113 248 -284
358 -366 241 -181 527 -306 808 -355 67 -12 128 -23 135 -25 9 -3 12 -90 13
-391 1 -213 4 -589 8 -836 3 -246 3 -447 -1 -447 -14 0 -466 208 -782 361
-1296 625 -2161 1171 -2387 1507 l-52 77 6 105 c11 194 70 481 108 527 9 10 8
18 -5 32 -16 18 -14 21 63 76 45 31 81 60 81 64 0 14 -88 91 -116 101 -36 14
-126 12 -163 -3 -142 -60 -224 -286 -272 -758 -10 -89 -10 -129 -1 -175 79
-393 790 -917 2222 -1638 352 -178 664 -327 1008 -482 213 -95 242 -111 238
-129 -2 -11 -20 -88 -39 -172 -91 -395 -123 -720 -114 -1178 10 -520 74 -949
226 -1530 l39 -149 -101 -106 c-512 -530 -980 -1308 -1438 -2388 -136 -321
-619 -1549 -619 -1574 0 -8 -129 -9 -444 -6 l-443 6 -7 -61 c-3 -33 -6 -101
-6 -152 l0 -92 547 -7 c300 -3 550 -3 553 1 4 5 83 204 175 443 366 949 542
1379 745 1818 269 580 587 1115 888 1492 87 109 252 297 309 353 l39 38 94
-118 c791 -992 1220 -2075 1521 -3842 l33 -194 395 7 c218 3 474 9 569 12
l172 6 0 112 c0 61 -3 128 -7 150 l-6 39 -433 -8 -433 -7 -5 23 c-3 13 -22
114 -41 224 -305 1687 -806 2832 -1691 3865 l-90 106 -51 210 c-205 831 -243
1533 -123 2229 31 179 79 372 98 394 9 10 125 83 257 162 937 558 1919 1203
2550 1675 619 463 934 782 1007 1018 18 60 20 84 14 181 -8 142 -43 281 -96
384 -43 83 -136 193 -188 223 l-29 18 -76 -130 -75 -129 39 -41 c22 -22 48
-59 60 -81 33 -66 59 -185 59 -275 l0 -82 -51 -77 c-240 -359 -1208 -1081
-2689 -2005 -409 -256 -720 -443 -725 -438 -2 2 -9 372 -15 822 -10 680 -9
820 2 827 7 5 33 9 58 9 67 0 225 26 342 55 685 174 1207 714 1319 1363 26
156 26 379 -1 537 -121 710 -723 1271 -1500 1400 -90 15 -417 29 -470 19z
m498 -333 c416 -93 757 -318 975 -645 91 -135 155 -292 193 -467 25 -116 25
-371 0 -487 -106 -492 -472 -887 -980 -1058 -188 -64 -293 -79 -536 -78 -182
0 -230 4 -317 22 -593 128 -1031 522 -1168 1052 -37 143 -46 360 -20 511 95
572 575 1035 1195 1152 132 25 133 25 355 22 167 -3 229 -7 303 -24z"/>
<path d="M4179 11950 c-102 -17 -204 -93 -250 -186 -34 -69 -34 -189 0 -254
66 -127 173 -191 316 -191 132 0 253 71 313 185 37 70 38 188 4 258 -48 97
-142 166 -257 187 -64 12 -60 12 -126 1z m188 -124 c45 -23 101 -90 113 -137
26 -97 -21 -192 -119 -241 -192 -98 -422 76 -345 260 18 43 67 97 108 119 63
33 179 32 243 -1z"/>
<path d="M2813 11929 c-70 -27 -146 -97 -180 -167 -22 -45 -27 -70 -27 -127 0
-125 68 -225 193 -284 48 -22 69 -26 151 -26 87 0 100 3 156 32 70 36 127 96
157 162 30 65 28 168 -2 239 -30 68 -112 144 -186 171 -74 28 -190 28 -262 0z
m262 -108 c28 -16 63 -47 80 -70 27 -38 30 -51 30 -115 0 -65 -3 -77 -30 -112
-38 -50 -50 -61 -104 -86 -89 -41 -209 -22 -280 45 -75 72 -91 167 -41 253 66
115 221 153 345 85z"/>
<path d="M2670 10680 c1 -6 42 -35 205 -146 283 -191 544 -315 815 -387 103
-27 131 -30 270 -31 176 -1 235 11 354 73 128 65 182 143 152 216 -60 143
-489 228 -1341 265 -300 13 -455 16 -455 10z m530 -110 c397 -22 658 -49 871
-91 160 -31 246 -59 285 -93 l26 -21 -21 -26 c-28 -36 -145 -95 -222 -114 -83
-19 -245 -19 -350 1 -161 30 -409 123 -578 216 -90 50 -221 129 -221 134 0 5
-3 5 210 -6z"/>
</g>
</svg>
