<?xml version="1.0" standalone="no"?>
<!DOCTYPE svg PUBLIC "-//W3C//DTD SVG 20010904//EN"
 "http://www.w3.org/TR/2001/REC-SVG-20010904/DTD/svg10.dtd">
<svg version="1.0" xmlns="http://www.w3.org/2000/svg"
 width="866.000000pt" height="1280.000000pt" viewBox="0 0 866.000000 1280.000000"
 preserveAspectRatio="xMidYMid meet">
<metadata>
Created by potrace 1.15, written by Peter Selinger 2001-2017
</metadata>
<g transform="translate(0.000000,1280.000000) scale(0.100000,-0.100000)"
fill="#000000" stroke="none">
<path d="M4823 12790 c-129 -27 -263 -111 -383 -236 -168 -177 -297 -435 -376
-754 -48 -195 -65 -320 -71 -535 -13 -437 65 -795 235 -1085 80 -137 217 -272
329 -326 92 -44 88 -35 98 -186 l7 -87 -49 -24 c-44 -23 -62 -25 -214 -29
l-166 -4 -94 -56 c-354 -211 -649 -498 -893 -867 -218 -331 -369 -655 -634
-1363 -45 -121 -52 -133 -148 -250 -95 -116 -101 -126 -107 -178 -3 -30 -15
-77 -27 -104 -25 -56 -22 -93 16 -171 30 -61 57 -85 96 -85 60 0 86 53 128
257 21 107 47 184 125 372 30 73 44 122 41 136 -10 38 160 477 307 793 276
596 616 1016 1057 1307 154 102 158 103 354 107 l168 3 41 -80 41 -80 4 -230
c10 -563 -89 -1179 -391 -2435 -202 -837 -229 -991 -193 -1093 8 -21 21 -46
30 -56 14 -15 7 -31 -87 -191 -913 -1550 -1727 -2266 -3205 -2815 -101 -38
-190 -74 -197 -82 -12 -11 -19 -11 -49 4 -29 13 -38 14 -51 3 -20 -16 -19 -22
10 -126 103 -361 264 -617 443 -705 59 -29 77 -32 191 -39 69 -3 139 -4 155 0
29 5 29 6 -42 63 -131 106 -296 343 -419 604 -53 113 -60 123 -85 123 -16 0
-28 5 -28 10 0 6 5 10 11 10 18 0 321 115 479 182 319 136 719 349 973 520
720 484 1314 1172 1937 2243 82 142 137 214 163 215 12 0 35 -28 121 -150 301
-426 498 -894 600 -1425 66 -347 91 -681 111 -1480 13 -535 25 -814 40 -985
17 -198 39 -388 46 -407 19 -52 166 -65 413 -37 125 15 166 15 357 4 240 -15
317 -11 468 21 71 15 109 29 123 43 17 19 18 22 2 33 -9 7 -42 17 -73 23 -200
38 -278 65 -342 118 l-47 38 -78 -7 c-331 -33 -560 -69 -642 -102 -35 -14 -61
-31 -68 -46 l-12 -23 -6 28 c-9 42 -33 324 -45 514 -13 209 -19 400 -31 930
-14 595 -34 891 -86 1219 -100 638 -335 1201 -707 1694 l-67 89 19 26 c55 79
145 283 217 496 231 677 382 1569 385 2276 l1 225 70 -145 c277 -575 421
-1044 482 -1580 18 -155 36 -448 36 -598 0 -91 2 -103 17 -100 20 4 79 -132
95 -220 26 -147 51 -183 153 -222 50 -19 85 -23 210 -27 178 -6 205 1 205 49
0 28 -19 51 -164 194 -145 143 -309 279 -387 319 l-26 14 -6 228 c-20 731
-176 1301 -583 2123 -89 180 -133 282 -138 315 -24 164 -69 333 -126 470 -30
72 -40 113 -49 200 -6 61 -14 126 -17 146 l-6 36 63 12 c282 56 519 296 683
693 70 169 134 428 156 638 25 227 10 555 -35 774 -109 528 -396 876 -735 891
-47 2 -104 0 -127 -5z m277 -176 c177 -88 329 -310 413 -604 44 -155 45 -149
-11 -92 -106 109 -258 105 -356 -9 -49 -58 -70 -126 -70 -224 2 -240 173 -383
366 -307 43 17 105 89 127 145 l20 52 0 -177 c1 -195 -15 -347 -55 -528 -27
-118 -104 -354 -123 -373 -18 -18 -114 -20 -179 -3 -77 20 -131 52 -208 127
l-60 60 -23 -25 -24 -25 37 -45 c40 -49 146 -123 216 -150 25 -10 80 -20 122
-23 l77 -6 -21 -41 c-109 -216 -306 -391 -485 -427 -157 -32 -325 54 -462 236
-136 180 -228 457 -262 790 -14 145 -7 439 16 578 85 537 312 941 603 1075
120 55 225 53 342 -4z m300 -762 c97 -73 99 -294 4 -357 -34 -22 -95 -23 -128
-2 -62 41 -98 157 -77 251 13 58 49 111 85 127 29 12 86 3 116 -19z m-523
-3544 c-7 -374 -25 -578 -87 -969 -87 -546 -224 -1069 -374 -1434 -46 -109
-118 -243 -123 -228 -8 22 58 329 173 808 146 608 221 947 278 1250 45 241
100 600 111 730 21 240 29 184 22 -157z"/>
<path d="M1820 1199 c-69 -5 -276 -18 -460 -29 -951 -58 -1418 -120 -1348
-178 31 -25 217 -57 468 -82 128 -12 465 -40 500 -41 20 0 15 -5 -25 -23 -27
-12 -56 -30 -63 -38 -12 -14 78 -16 940 -21 652 -4 1050 -10 1258 -21 168 -8
329 -15 359 -16 30 0 52 -2 50 -5 -3 -2 -165 -45 -360 -94 -775 -196 -1190
-347 -1245 -454 -14 -26 -14 -31 1 -54 38 -58 217 -98 565 -124 322 -25 1459
-11 1735 22 124 14 576 45 1155 79 365 22 836 40 1023 40 108 0 197 3 197 8 0
4 -54 6 -120 4 l-120 -2 0 75 0 75 -57 2 c-69 2 -52 4 167 23 154 14 154 14
35 9 -66 -3 -178 -9 -250 -14 -231 -17 -885 -23 -1115 -12 -368 20 -784 32
-1340 41 -314 5 -545 13 -560 19 l-25 10 36 15 c53 23 210 61 874 210 l600
135 280 16 c154 9 348 18 430 21 178 7 240 14 210 25 -16 6 -12 9 20 15 22 4
47 11 55 15 41 23 -235 52 -655 70 -339 14 -351 15 -505 38 -195 30 -536 52
-919 60 -345 7 -1134 -1 -1394 -15 -123 -7 -738 11 -1042 29 -88 5 901 23
1155 20 286 -2 966 14 1190 29 252 16 398 38 386 58 -14 22 -231 46 -556 61
-254 12 -1350 11 -1530 -1z m4443 -1026 c-23 -2 -64 -2 -90 0 -26 2 -7 3 42 3
50 0 71 -1 48 -3z"/>
<path d="M7298 423 c7 -3 16 -2 19 1 4 3 -2 6 -13 5 -11 0 -14 -3 -6 -6z"/>
<path d="M7073 403 c9 -2 23 -2 30 0 6 3 -1 5 -18 5 -16 0 -22 -2 -12 -5z"/>
<path d="M6958 393 c12 -2 32 -2 45 0 12 2 2 4 -23 4 -25 0 -35 -2 -22 -4z"/>
<path d="M6858 383 c12 -2 30 -2 40 0 9 3 -1 5 -23 4 -22 0 -30 -2 -17 -4z"/>
<path d="M6728 373 c18 -2 45 -2 60 0 15 2 0 4 -33 4 -33 0 -45 -2 -27 -4z"/>
<path d="M6623 363 c15 -2 37 -2 50 0 12 2 0 4 -28 4 -27 0 -38 -2 -22 -4z"/>
<path d="M6728 163 c57 -2 147 -2 200 0 53 1 7 3 -103 3 -110 0 -154 -2 -97
-3z"/>
</g>
</svg>
