<?xml version="1.0" standalone="no"?>
<!DOCTYPE svg PUBLIC "-//W3C//DTD SVG 20010904//EN"
 "http://www.w3.org/TR/2001/REC-SVG-20010904/DTD/svg10.dtd">
<svg version="1.0" xmlns="http://www.w3.org/2000/svg"
 width="640.000000pt" height="1280.000000pt" viewBox="0 0 640.000000 1280.000000"
 preserveAspectRatio="xMidYMid meet">
<metadata>
Created by potrace 1.15, written by Peter Selinger 2001-2017
</metadata>
<g transform="translate(0.000000,1280.000000) scale(0.100000,-0.100000)"
fill="#000000" stroke="none">
<path d="M5255 12793 c-90 -10 -162 -29 -265 -70 -63 -25 -178 -66 -255 -90
-122 -39 -216 -77 -382 -155 -92 -43 -99 -80 -58 -321 44 -261 187 -889 314
-1380 l59 -228 -29 -147 c-44 -218 -96 -420 -279 -1082 -75 -270 -133 -491
-183 -698 -44 -183 -44 -184 -23 -192 16 -6 10 -8 -27 -11 l-48 -4 -77 90
c-43 49 -136 162 -208 250 -517 636 -606 743 -823 979 -138 151 -340 345 -466
447 l-70 57 -129 11 c-453 40 -1290 37 -1619 -5 -43 -5 -46 -4 -40 13 10 26
21 32 85 39 l57 6 85 172 c148 296 286 494 428 612 43 36 78 70 78 75 0 11
-22 11 -201 0 -131 -8 -140 -10 -207 -46 -193 -101 -354 -357 -468 -744 -40
-136 -41 -149 -11 -156 15 -4 30 -21 41 -45 22 -50 47 -55 192 -41 352 35
1128 39 1501 7 l163 -13 68 -56 c258 -211 550 -533 1102 -1212 286 -352 441
-535 452 -535 4 0 8 -16 8 -35 0 -90 93 -283 400 -834 294 -530 379 -688 532
-993 341 -682 530 -1191 608 -1638 22 -124 40 -470 27 -505 -5 -13 -16 -8 -59
27 -181 147 -451 218 -782 205 -603 -23 -1277 -318 -1698 -744 -145 -146 -228
-259 -299 -406 -69 -142 -83 -204 -84 -352 0 -150 13 -205 72 -303 224 -369
828 -475 1523 -265 324 97 662 272 916 475 100 79 243 217 291 279 20 27 38
47 40 46 3 -4 -85 -347 -128 -497 -46 -161 -129 -410 -152 -455 -43 -85 -416
-613 -703 -996 l-162 -216 -156 28 c-87 15 -178 32 -204 38 -26 6 -86 19 -135
30 -48 11 -149 45 -225 75 -75 30 -161 61 -191 70 -147 43 -232 -2 -201 -107
34 -116 175 -267 249 -267 48 0 124 -24 178 -57 l58 -35 245 40 c240 40 246
40 306 25 52 -13 65 -13 87 -1 43 22 613 793 864 1168 104 155 122 194 192
418 79 253 270 985 313 1197 2 11 4 -128 5 -310 2 -253 7 -376 23 -528 24
-235 40 -517 40 -717 0 -153 4 -126 -141 -970 -17 -96 -59 -363 -93 -593 -35
-229 -65 -420 -68 -422 -3 -3 -42 20 -87 50 -50 33 -109 63 -153 76 -62 19
-76 20 -124 10 -46 -11 -63 -22 -126 -85 -43 -42 -108 -93 -157 -122 -98 -57
-114 -75 -88 -101 16 -16 40 -18 240 -17 138 0 241 5 272 13 28 7 113 13 188
14 75 1 137 5 137 10 0 23 137 917 171 1117 22 129 65 379 95 554 47 276 54
337 54 450 0 208 -18 508 -42 723 -19 172 -22 251 -22 596 1 383 0 397 -18
397 -11 0 -17 4 -14 9 3 4 -8 44 -24 88 -39 107 -49 229 -25 298 54 158 78
454 56 680 -61 616 -302 1363 -696 2160 -311 627 -655 1128 -870 1264 -27 17
-44 31 -38 31 6 0 28 69 47 153 46 191 107 423 247 931 131 476 201 754 233
931 l24 130 -78 310 c-167 655 -297 1246 -316 1430 l-7 68 42 -7 c56 -9 226 8
446 45 155 26 182 33 195 52 58 85 160 166 295 235 33 16 71 39 85 50 24 20
25 20 6 41 -16 18 -30 21 -95 20 -42 -1 -89 -4 -106 -6z m-851 -4808 c352
-447 793 -1331 1034 -2075 81 -249 82 -265 7 -76 -153 385 -441 956 -852 1691
-164 293 -333 609 -333 621 1 12 64 -60 144 -161z m721 -3614 c185 -46 353
-152 419 -265 130 -223 30 -554 -259 -855 l-93 -96 -21 35 c-12 19 -26 53 -32
75 -16 57 -6 189 20 260 11 32 21 60 21 61 0 1 -15 7 -32 13 -42 15 -49 5 -77
-98 -36 -133 -23 -260 36 -355 l26 -40 -39 -33 c-120 -103 -416 -279 -594
-354 -70 -29 -295 -109 -307 -109 -3 0 15 19 41 41 69 61 100 127 100 214 0
83 -23 135 -83 187 -163 140 -467 75 -576 -123 -39 -70 -42 -170 -8 -235 32
-60 97 -111 168 -133 l60 -19 -50 -8 c-27 -5 -144 -9 -260 -8 -192 0 -219 2
-310 26 -239 61 -382 170 -446 337 -30 78 -29 219 1 316 157 503 844 1004
1581 1155 165 33 230 39 434 36 155 -3 206 -7 280 -25z m-986 -1400 c69 -36
88 -99 51 -172 -36 -69 -146 -129 -238 -129 -83 0 -163 47 -178 104 -21 83 69
185 191 217 47 12 128 3 174 -20z"/>
</g>
</svg>
