<?xml version="1.0" standalone="no"?>
<!DOCTYPE svg PUBLIC "-//W3C//DTD SVG 20010904//EN"
 "http://www.w3.org/TR/2001/REC-SVG-20010904/DTD/svg10.dtd">
<svg version="1.0" xmlns="http://www.w3.org/2000/svg"
 width="640.000000pt" height="1280.000000pt" viewBox="0 0 640.000000 1280.000000"
 preserveAspectRatio="xMidYMid meet">
<metadata>
Created by potrace 1.15, written by Peter Selinger 2001-2017
</metadata>
<g transform="translate(0.000000,1280.000000) scale(0.100000,-0.100000)"
fill="#000000" stroke="none">
<path d="M3285 12785 c-246 -54 -447 -232 -595 -525 -77 -152 -124 -301 -161
-510 -19 -101 -19 -517 -1 -620 61 -347 192 -627 379 -814 109 -109 248 -191
356 -211 44 -9 45 -9 49 -95 l4 -66 -184 121 c-895 587 -1179 783 -1476 1013
-397 308 -690 599 -799 792 -23 42 -25 57 -30 221 -5 156 -8 181 -27 220 -52
101 -252 258 -392 306 -73 25 -102 24 -118 -8 -13 -23 14 -81 54 -118 14 -14
26 -28 26 -31 0 -4 -21 -5 -48 -2 -39 3 -50 0 -67 -18 -18 -20 -20 -36 -20
-174 0 -83 9 -228 19 -322 l19 -172 41 -6 c22 -3 115 -9 206 -12 140 -6 171
-4 204 10 21 9 42 16 46 16 4 0 20 -19 35 -42 128 -195 411 -465 795 -762 312
-240 635 -463 1240 -857 206 -134 402 -264 436 -290 33 -25 67 -48 76 -51 17
-7 52 -126 74 -248 51 -295 49 -855 -6 -1633 -11 -153 -20 -289 -20 -303 0
-22 -12 -30 -87 -65 -194 -90 -493 -173 -771 -215 -90 -13 -124 -15 -165 -6
-29 6 -146 16 -262 22 -234 12 -346 29 -579 89 -200 52 -265 60 -289 36 -25
-25 -14 -49 62 -133 188 -208 224 -298 173 -435 -27 -70 -26 -64 -1 -77 17
-10 28 -5 72 33 80 68 110 81 180 73 l59 -6 221 116 c122 64 248 132 280 150
68 40 67 39 67 16 0 -18 4 -18 133 0 313 43 576 110 810 208 43 18 79 31 81
29 2 -2 -3 -83 -10 -179 -66 -902 -55 -1278 41 -1474 19 -38 31 -74 28 -80 -4
-6 -35 -50 -70 -98 -208 -288 -484 -731 -652 -1045 -243 -456 -419 -916 -500
-1314 -71 -346 -71 -710 -1 -1006 11 -47 20 -89 20 -95 0 -24 -304 23 -583 91
l-155 38 -10 -56 c-15 -80 -26 -105 -72 -155 -64 -69 -49 -100 75 -151 l60
-24 -32 -7 c-40 -8 -42 -20 -5 -28 110 -22 605 -46 976 -46 132 0 237 -2 234
-5 -4 -4 -589 -108 -880 -156 -43 -7 -76 -14 -74 -16 1 -2 122 8 267 22 145
14 462 43 704 65 716 66 1083 99 1195 110 58 5 222 17 365 25 143 9 274 18
290 21 17 4 27 4 24 0 -3 -3 -91 -22 -195 -41 -166 -31 -209 -35 -354 -35
-257 0 -527 -23 -725 -60 -55 -10 -185 -26 -290 -35 -710 -59 -1062 -113 -996
-154 51 -32 597 -60 1159 -61 276 0 290 -1 490 -34 114 -19 295 -49 402 -66
644 -103 777 -127 786 -141 7 -12 -20 -17 -246 -44 -268 -32 -429 -59 -545
-91 -196 -54 -305 -107 -277 -135 10 -11 1 -17 -45 -34 -70 -24 -80 -48 -28
-65 28 -9 34 -15 25 -25 -9 -10 -4 -21 17 -44 l28 -31 145 -3 c80 -1 224 -1
320 1 147 3 189 0 265 -17 l90 -20 -85 -2 c-75 -1 -66 -3 80 -14 196 -15 349
-38 449 -66 92 -25 122 -40 155 -79 21 -26 26 -42 26 -86 0 -49 -9 -73 -85
-221 -46 -92 -83 -168 -82 -169 7 -7 731 -93 739 -88 4 3 18 24 29 47 12 23
62 109 111 190 102 169 103 178 37 245 -107 107 -408 212 -854 297 l-170 32
60 7 c157 19 337 48 403 66 52 14 104 20 183 20 96 0 110 2 99 14 -35 44 -240
82 -527 99 l-208 13 80 13 c254 41 460 97 472 129 27 70 -329 160 -1144 288
-172 27 -313 51 -313 54 0 13 985 147 1100 150 12 0 12 2 2 8 -7 5 59 20 160
36 509 81 808 153 808 196 0 30 -138 54 -375 65 -142 8 -146 8 -120 25 58 38
72 94 32 134 -12 12 -55 40 -95 61 -71 37 -112 74 -112 101 0 17 -22 18 -70 4
-92 -27 -328 -70 -441 -80 -152 -15 -182 -8 -237 55 -81 92 -107 221 -157 770
-54 588 -97 869 -191 1222 -133 505 -368 1001 -655 1380 -49 64 -51 69 -39 98
96 233 142 730 144 1535 l1 485 68 90 c158 210 229 436 229 725 0 339 -119
711 -329 1029 -76 115 -194 233 -252 253 -52 17 -57 28 -67 150 l-7 76 39 11
c22 6 45 11 52 11 7 0 41 13 77 29 277 126 500 439 595 837 64 268 69 600 14
874 -21 103 -85 293 -133 392 -192 400 -531 615 -856 543z m289 -134 c548
-194 797 -1190 479 -1914 -129 -293 -324 -476 -558 -524 -259 -52 -531 130
-703 472 -103 206 -151 412 -159 688 -7 216 5 346 47 512 104 417 334 709 615
782 70 18 206 10 279 -16z m136 -3079 c116 -164 233 -424 283 -632 73 -300 57
-605 -43 -818 -33 -71 -100 -185 -105 -180 -2 2 -9 80 -15 173 -30 479 -88
934 -156 1245 -21 96 -45 188 -91 345 -9 34 60 -40 127 -133z m-51 -1632 l10
-185 -37 -32 c-20 -17 -38 -30 -40 -28 -4 4 24 459 35 565 l7 65 7 -100 c5
-55 12 -183 18 -285z m10 -985 c-11 -456 -28 -675 -69 -917 -29 -170 -34 -178
-54 -91 -45 201 -43 522 9 1308 20 302 17 285 68 317 l42 27 7 -147 c3 -81 2
-304 -3 -497z m-8 -1383 c340 -467 563 -975 689 -1571 59 -276 91 -517 135
-1016 39 -434 75 -625 137 -727 13 -20 36 -58 52 -85 16 -26 58 -78 94 -114
l64 -67 -348 -6 c-916 -17 -2196 -51 -2236 -60 -30 -7 -20 8 26 36 23 15 51
43 61 63 11 19 23 35 27 35 13 0 9 34 -17 142 -40 163 -55 271 -62 438 -27
708 316 1602 1015 2644 211 315 246 361 279 363 24 2 36 -8 84 -75z m-386
-3692 c-11 -4 -35 -14 -52 -20 -18 -7 -33 -19 -33 -26 0 -16 25 -23 105 -27
33 -2 -48 -4 -181 -5 -133 -1 -263 -4 -290 -7 -109 -12 0 15 216 53 237 42
268 46 235 32z"/>
<path d="M3086 11936 c-118 -52 -187 -243 -142 -387 68 -213 292 -263 405 -92
107 162 63 396 -90 474 -44 22 -128 24 -173 5z m153 -141 c78 -89 61 -259 -31
-309 -31 -17 -39 -18 -67 -6 -135 55 -110 350 29 350 31 0 44 -7 69 -35z"/>
<path d="M3619 11930 c-168 -91 -197 -369 -54 -512 53 -53 122 -74 190 -59
219 49 268 422 73 557 -54 38 -154 45 -209 14z m157 -125 c91 -92 61 -307 -47
-330 -60 -13 -123 56 -135 149 -9 60 11 130 49 173 38 43 94 46 133 8z"/>
<path d="M3824 11067 c-2 -7 -6 -58 -7 -113 -2 -87 -6 -106 -31 -159 -40 -80
-111 -149 -194 -188 -57 -27 -78 -32 -147 -32 -66 0 -90 5 -135 26 -114 54
-186 163 -215 324 -19 105 -26 120 -51 120 -27 0 -29 -39 -9 -138 41 -203 152
-341 307 -383 190 -50 401 54 495 243 34 69 38 85 41 173 4 100 -5 140 -34
140 -8 0 -17 -6 -20 -13z"/>
</g>
</svg>
