<?xml version="1.0" standalone="no"?>
<!DOCTYPE svg PUBLIC "-//W3C//DTD SVG 20010904//EN"
 "http://www.w3.org/TR/2001/REC-SVG-20010904/DTD/svg10.dtd">
<svg version="1.0" xmlns="http://www.w3.org/2000/svg"
 width="657.000000pt" height="1280.000000pt" viewBox="0 0 657.000000 1280.000000"
 preserveAspectRatio="xMidYMid meet">
<metadata>
Created by potrace 1.15, written by Peter Selinger 2001-2017
</metadata>
<g transform="translate(0.000000,1280.000000) scale(0.100000,-0.100000)"
fill="#000000" stroke="none">
<path d="M10 12785 c-25 -30 0 -105 165 -498 51 -119 62 -138 84 -143 68 -14
125 -62 163 -139 16 -31 40 -125 109 -430 137 -603 299 -1053 599 -1672 l111
-228 242 -102 c447 -190 1021 -411 1613 -622 171 -61 313 -111 316 -111 3 0
10 18 17 41 7 23 14 39 17 37 2 -3 -9 -56 -26 -119 -91 -351 -157 -840 -202
-1494 -18 -259 -18 -1261 0 -1490 13 -166 46 -478 58 -542 6 -31 4 -33 -21
-33 l-28 0 7 -138 c94 -1956 31 -3187 -186 -3594 -28 -54 -59 -87 -118 -128
-12 -8 -25 -31 -29 -50 -5 -29 -17 -41 -61 -68 -30 -18 -91 -46 -135 -62 -233
-88 -247 -116 -103 -213 95 -64 263 -216 251 -227 -4 -4 -44 -19 -88 -34 -85
-27 -129 -52 -120 -66 9 -15 131 -20 265 -11 74 5 137 8 139 6 2 -3 -7 -14
-20 -25 l-24 -21 50 7 c28 4 79 13 115 20 l65 14 -59 -5 -60 -6 20 23 c10 13
26 30 34 38 8 8 22 24 30 34 12 16 12 18 1 11 -9 -5 -12 -4 -7 3 3 5 40 13 82
17 41 4 72 10 69 13 -10 10 -240 -20 -275 -36 -56 -26 -57 -26 -15 5 22 17 49
40 60 52 11 13 29 28 40 33 11 6 2 -6 -20 -26 l-40 -37 30 5 c123 21 266 51
257 54 -6 2 -47 -4 -93 -13 -45 -8 -84 -13 -87 -11 -2 3 13 8 34 12 46 8 67
22 60 41 -3 7 -2 13 2 13 18 1 185 49 170 49 -9 1 -78 -15 -153 -35 -76 -19
-139 -33 -141 -31 -7 7 74 52 126 70 25 9 81 26 125 37 43 12 85 26 92 32 25
21 15 57 -24 83 -37 24 -234 112 -382 171 -40 16 -75 34 -78 41 -2 6 15 31 39
55 171 171 267 629 308 1473 21 413 13 1386 -16 2025 l-6 135 27 -33 c36 -44
78 -64 128 -60 l42 3 27 -95 c62 -212 121 -534 150 -810 17 -162 17 -731 0
-905 -45 -464 -122 -852 -273 -1386 -44 -156 -83 -311 -86 -345 -5 -58 -4 -61
26 -87 37 -31 105 -53 193 -63 41 -5 93 -22 157 -52 385 -180 660 -188 836
-23 27 26 67 60 88 75 21 16 46 41 57 56 l19 27 -123 -5 c-218 -8 -431 37
-772 164 l-122 45 -46 -35 c-36 -27 -153 -76 -182 -76 -10 0 0 45 56 242 149
522 226 891 274 1313 78 674 18 1401 -160 1969 l-24 78 24 52 c58 125 79 286
78 619 -1 303 -9 451 -62 1162 -55 734 -69 955 -76 1279 -8 365 18 793 50 793
6 0 88 29 181 66 94 36 339 122 545 192 564 190 808 293 997 418 l78 52 60
120 c148 295 376 887 602 1565 57 173 111 325 119 338 8 12 65 75 126 140 229
240 244 295 126 451 -52 68 -88 154 -128 301 -17 63 -37 121 -44 129 -19 18
-53 5 -70 -27 -15 -30 -75 -260 -132 -510 l-37 -164 22 -45 c28 -57 37 -148
22 -210 -17 -70 -180 -561 -273 -823 -150 -422 -308 -821 -426 -1072 -50 -106
-51 -108 -122 -154 -100 -64 -349 -183 -510 -242 -74 -27 -274 -97 -445 -155
-396 -134 -493 -169 -584 -206 -41 -17 -76 -29 -79 -26 -3 3 13 65 36 138 23
72 42 142 42 155 0 13 8 25 18 28 9 3 53 23 97 45 273 135 466 491 531 983 18
143 18 455 -1 620 -63 539 -267 1018 -555 1307 -128 129 -257 208 -395 244
-78 20 -226 20 -296 -1 -242 -71 -442 -301 -554 -637 -240 -718 -48 -1751 421
-2266 162 -178 328 -282 487 -306 34 -5 47 -12 47 -24 0 -52 -114 -372 -126
-356 -5 7 -121 52 -259 100 -550 193 -1233 456 -1685 648 l-175 75 -102 213
c-202 421 -364 830 -457 1151 -47 162 -75 274 -170 683 l-56 240 15 95 c9 52
24 141 35 198 25 127 25 177 2 221 -28 57 -60 73 -160 82 -105 10 -163 30
-282 99 -92 53 -120 60 -140 35z m3473 -415 c130 -49 301 -196 411 -355 49
-71 146 -235 146 -248 0 -4 -18 2 -41 13 -91 47 -198 35 -272 -30 -80 -71
-121 -203 -98 -317 48 -239 248 -377 423 -290 58 30 109 89 132 153 l13 39 16
-70 c154 -681 38 -1372 -280 -1666 -93 -86 -139 -106 -270 -118 -117 -11 -143
-7 -235 33 -248 108 -498 450 -633 866 -88 274 -127 518 -128 805 -1 346 46
591 158 821 101 208 221 328 380 381 59 19 206 11 278 -17z m466 -710 c52 -26
96 -88 116 -164 40 -147 -42 -277 -154 -246 -45 12 -111 78 -137 137 -24 55
-24 167 0 217 36 71 103 93 175 56z m-454 -4730 c25 -349 51 -705 57 -790 16
-226 16 -754 0 -861 -12 -76 -17 -88 -38 -98 -29 -13 -28 -16 -49 98 -80 438
-103 1403 -50 2160 8 118 16 226 16 240 4 57 20 -142 64 -749z m-218 -6076
c-3 -3 -12 -4 -19 -1 -8 3 -5 6 6 6 11 1 17 -2 13 -5z m-100 -110 c-3 -3 -12
-4 -19 -1 -8 3 -5 6 6 6 11 1 17 -2 13 -5z m-90 -110 c-3 -3 -12 -4 -19 -1 -8
3 -5 6 6 6 11 1 17 -2 13 -5z"/>
<path d="M3081 11584 c-182 -91 -203 -392 -41 -568 155 -168 389 -114 454 104
84 282 -181 579 -413 464z m168 -119 c45 -23 100 -94 116 -149 29 -95 15 -181
-36 -234 -27 -27 -39 -32 -79 -32 -66 0 -118 39 -159 121 -53 106 -41 224 28
282 37 31 86 35 130 12z"/>
<path d="M3660 10183 c-118 -32 -297 -133 -399 -226 -34 -30 -40 -41 -32 -56
24 -44 35 -43 102 14 165 140 393 232 510 206 56 -13 89 -38 119 -92 24 -44
26 -45 58 -36 36 11 37 15 19 60 -22 52 -68 98 -122 123 -60 28 -167 31 -255
7z"/>
<path d="M3548 933 c6 -2 18 -2 25 0 6 3 1 5 -13 5 -14 0 -19 -2 -12 -5z"/>
<path d="M3498 923 c7 -3 16 -2 19 1 4 3 -2 6 -13 5 -11 0 -14 -3 -6 -6z"/>
<path d="M3508 853 c7 -3 16 -2 19 1 4 3 -2 6 -13 5 -11 0 -14 -3 -6 -6z"/>
<path d="M3458 843 c6 -2 18 -2 25 0 6 3 1 5 -13 5 -14 0 -19 -2 -12 -5z"/>
<path d="M3408 833 c6 -2 18 -2 25 0 6 3 1 5 -13 5 -14 0 -19 -2 -12 -5z"/>
<path d="M3453 793 c9 -2 25 -2 35 0 9 3 1 5 -18 5 -19 0 -27 -2 -17 -5z"/>
<path d="M3373 783 c9 -2 25 -2 35 0 9 3 1 5 -18 5 -19 0 -27 -2 -17 -5z"/>
<path d="M3378 673 c7 -3 16 -2 19 1 4 3 -2 6 -13 5 -11 0 -14 -3 -6 -6z"/>
<path d="M3303 663 c9 -2 23 -2 30 0 6 3 -1 5 -18 5 -16 0 -22 -2 -12 -5z"/>
<path d="M3248 653 c6 -2 18 -2 25 0 6 3 1 5 -13 5 -14 0 -19 -2 -12 -5z"/>
</g>
</svg>
