<?xml version="1.0" standalone="no"?>
<!DOCTYPE svg PUBLIC "-//W3C//DTD SVG 20010904//EN"
 "http://www.w3.org/TR/2001/REC-SVG-20010904/DTD/svg10.dtd">
<svg version="1.0" xmlns="http://www.w3.org/2000/svg"
 width="1129.000000pt" height="1280.000000pt" viewBox="0 0 1129.000000 1280.000000"
 preserveAspectRatio="xMidYMid meet">
<metadata>
Created by potrace 1.15, written by Peter Selinger 2001-2017
</metadata>
<g transform="translate(0.000000,1280.000000) scale(0.100000,-0.100000)"
fill="#000000" stroke="none">
<path d="M7121 12789 c-390 -76 -782 -490 -1015 -1070 -289 -720 -283 -1502
14 -1939 40 -59 126 -151 167 -177 23 -15 24 -20 18 -77 -4 -34 -18 -117 -31
-185 -13 -69 -27 -171 -30 -227 l-7 -102 -121 -32 c-1100 -290 -1628 -516
-2127 -911 -126 -99 -370 -343 -459 -458 -36 -47 -86 -111 -112 -143 -49 -62
-74 -120 -170 -393 l-54 -150 18 -55 c11 -38 15 -73 12 -110 -7 -72 4 -99 73
-171 151 -158 240 -60 188 208 -25 128 -29 254 -11 411 17 157 13 146 114 277
454 587 1052 944 2097 1249 248 72 528 147 533 142 7 -8 -38 -227 -79 -386
-78 -301 -221 -696 -403 -1114 -146 -333 -284 -622 -615 -1284 -435 -871 -491
-999 -495 -1142 l-2 -75 -119 -160 c-496 -671 -952 -1124 -1417 -1409 -456
-279 -935 -421 -1578 -467 -167 -12 -675 -7 -940 10 -84 5 -130 4 -139 -3 -25
-19 -8 -167 30 -271 46 -124 185 -405 201 -405 7 0 31 -26 53 -56 81 -113 192
-199 295 -227 65 -18 336 -32 344 -18 4 5 -27 36 -67 69 -152 125 -293 324
-451 639 -36 73 -66 134 -66 135 0 2 145 2 322 0 323 -3 507 5 733 34 674 86
1224 325 1752 761 146 121 422 393 570 563 133 152 332 403 468 588 108 149
111 151 149 151 21 1 64 13 96 27 l58 26 113 -31 c621 -166 1172 -471 1688
-935 288 -259 537 -540 1101 -1246 435 -544 638 -783 896 -1053 119 -126 123
-129 156 -122 18 4 49 15 68 25 19 10 78 32 130 50 52 18 154 62 225 98 72 36
178 84 237 107 118 47 204 103 309 203 72 68 88 105 50 117 -11 3 -64 -6 -118
-21 -117 -32 -245 -36 -306 -10 -31 14 -41 14 -60 4 -12 -7 -26 -11 -31 -10
-5 2 -28 -14 -50 -36 -23 -21 -97 -79 -165 -128 -69 -49 -163 -127 -210 -172
l-86 -84 -82 86 c-223 234 -448 499 -873 1031 -497 622 -692 847 -966 1115
-561 549 -1150 896 -1856 1095 -32 9 -58 18 -58 20 0 3 20 26 44 53 387 436
921 1512 1196 2407 152 496 222 885 224 1242 0 112 2 203 3 203 1 0 53 -33
115 -74 513 -333 1065 -569 1654 -706 355 -82 609 -120 1456 -220 462 -54 629
-70 735 -70 86 0 161 -6 198 -15 84 -20 149 -19 193 4 87 44 172 178 238 375
32 94 33 101 18 124 -14 22 -21 24 -60 18 -24 -3 -110 -37 -191 -75 -82 -38
-176 -80 -210 -94 -60 -24 -214 -118 -302 -184 -26 -19 -51 -31 -60 -28 -8 3
-168 24 -356 46 -646 75 -851 100 -1050 130 -905 136 -1516 361 -2223 817 -90
57 -170 116 -179 129 -9 13 -16 45 -16 71 -1 49 37 370 45 377 2 2 24 -1 48
-7 64 -14 213 -3 295 22 765 237 1341 1619 1090 2613 -69 272 -230 507 -414
605 -115 62 -274 86 -400 61z m295 -188 c128 -60 211 -151 290 -316 75 -158
114 -335 129 -575 l6 -105 -31 55 c-40 71 -70 101 -127 130 -100 50 -207 32
-297 -51 -122 -111 -164 -322 -97 -474 26 -58 93 -129 145 -155 108 -52 251
-8 332 102 24 33 44 55 44 50 0 -27 -44 -238 -70 -332 -66 -241 -205 -561
-317 -725 -46 -67 -50 -70 -91 -73 -88 -6 -201 41 -281 119 -39 38 -113 141
-124 172 -3 9 -14 7 -41 -5 l-37 -18 17 -32 c84 -164 224 -278 379 -311 30 -6
55 -15 55 -20 0 -15 -192 -202 -250 -243 -175 -126 -344 -176 -488 -145 -479
102 -656 965 -376 1826 162 498 450 907 757 1079 119 67 196 86 319 82 72 -3
98 -9 154 -35z m214 -936 c67 -35 105 -160 80 -264 -26 -109 -115 -192 -191
-177 -99 18 -155 166 -114 302 15 53 74 130 109 144 33 14 84 11 116 -5z
m-1395 -3597 c-162 -811 -634 -1947 -1098 -2643 -107 -160 -272 -364 -284
-351 -10 10 156 362 447 941 510 1019 767 1595 916 2057 15 48 30 86 32 84 2
-3 -4 -42 -13 -88z"/>
<path d="M2615 1359 c-388 -11 -1198 -55 -1730 -95 -562 -41 -885 -90 -885
-133 0 -33 238 -72 645 -106 152 -12 582 -42 654 -46 9 0 -8 -9 -36 -19 -60
-21 -113 -51 -113 -62 0 -4 467 -8 1038 -8 849 1 1154 -3 1687 -21 358 -11
661 -23 675 -26 16 -4 -33 -18 -140 -40 -457 -94 -1042 -233 -1319 -313 -463
-133 -673 -241 -630 -322 67 -124 890 -187 2099 -159 531 13 881 27 965 41 87
14 1170 75 1765 100 392 16 413 18 123 13 l-263 -5 0 91 0 90 -67 4 c-38 2 72
5 242 7 l310 4 -475 7 c-261 3 -655 14 -875 23 -220 9 -778 23 -1240 31 -462
7 -850 17 -862 21 -79 23 -38 33 1302 298 547 109 591 116 765 126 455 26 528
29 741 36 125 3 253 10 285 14 41 5 11 7 -96 5 -85 -1 -127 0 -92 2 l63 4 -3
32 c-3 31 -4 32 -63 38 -37 3 -46 6 -25 7 41 2 248 -15 305 -25 l40 -7 -50
-12 c-27 -7 -42 -13 -32 -13 34 -2 110 22 96 29 -47 26 -530 60 -1069 76 -123
3 -274 14 -352 25 -307 43 -691 66 -1323 78 -445 9 -1389 -1 -1760 -18 -152
-7 -328 -5 -735 10 -294 10 -571 19 -615 20 -224 5 505 19 1500 28 1289 12
1696 26 1933 66 96 16 115 25 83 37 -164 60 -1455 96 -2466 67z m4323 -356
c-10 -2 -26 -2 -35 0 -10 3 -2 5 17 5 19 0 27 -2 18 -5z m-21 -99 c-3 -3 -12
-4 -19 -1 -8 3 -5 6 6 6 11 1 17 -2 13 -5z m46 -561 c-13 -2 -35 -2 -50 0 -16
2 -5 4 22 4 28 0 40 -2 28 -4z m75 -190 c-16 -2 -40 -2 -55 0 -16 2 -3 4 27 4
30 0 43 -2 28 -4z"/>
<path d="M8193 383 c9 -2 23 -2 30 0 6 3 -1 5 -18 5 -16 0 -22 -2 -12 -5z"/>
<path d="M8048 373 c6 -2 18 -2 25 0 6 3 1 5 -13 5 -14 0 -19 -2 -12 -5z"/>
<path d="M7733 363 c26 -2 68 -2 95 0 26 2 4 3 -48 3 -52 0 -74 -1 -47 -3z"/>
<path d="M8088 183 c6 -2 18 -2 25 0 6 3 1 5 -13 5 -14 0 -19 -2 -12 -5z"/>
<path d="M7753 173 c26 -2 67 -2 90 0 23 2 2 3 -48 3 -49 0 -68 -1 -42 -3z"/>
</g>
</svg>
