<?xml version="1.0" standalone="no"?>
<!DOCTYPE svg PUBLIC "-//W3C//DTD SVG 20010904//EN"
 "http://www.w3.org/TR/2001/REC-SVG-20010904/DTD/svg10.dtd">
<svg version="1.0" xmlns="http://www.w3.org/2000/svg"
 width="640.000000pt" height="1280.000000pt" viewBox="0 0 640.000000 1280.000000"
 preserveAspectRatio="xMidYMid meet">
<metadata>
Created by potrace 1.15, written by Peter Selinger 2001-2017
</metadata>
<g transform="translate(0.000000,1280.000000) scale(0.100000,-0.100000)"
fill="#000000" stroke="none">
<path d="M4780 12785 c-466 -69 -988 -354 -1395 -760 -323 -322 -538 -672
-626 -1022 -55 -219 -48 -415 22 -586 l32 -77 -94 -142 -94 -141 -110 7 c-134
8 -306 26 -700 72 -830 96 -1074 114 -1300 96 -188 -16 -274 -35 -375 -85
-118 -58 -118 -58 6 -279 260 -464 423 -733 727 -1198 247 -377 272 -417 313
-507 51 -110 65 -175 71 -326 l6 -138 -84 -82 c-46 -45 -133 -126 -192 -181
-115 -105 -147 -152 -147 -216 0 -55 25 -100 104 -190 80 -90 121 -167 175
-325 45 -128 63 -158 95 -153 44 6 63 79 138 543 l43 260 -3 265 c-5 492 -12
512 -383 1080 -327 499 -463 720 -691 1125 l-118 210 32 14 c63 26 214 51 348
57 192 9 593 -21 1060 -81 137 -17 636 -72 735 -80 39 -3 89 -8 112 -11 l42
-5 -34 -47 c-160 -224 -418 -752 -610 -1252 -444 -1156 -795 -2612 -714 -2960
44 -187 78 -1938 49 -2547 -36 -759 -110 -1233 -234 -1488 -47 -97 -75 -132
-136 -170 -42 -27 -65 -59 -56 -80 12 -32 -77 -85 -254 -152 -136 -51 -164
-69 -168 -110 -3 -34 5 -42 143 -142 44 -32 121 -96 170 -143 95 -90 138 -118
180 -118 40 0 100 35 174 103 85 78 142 109 262 142 142 40 177 54 184 76 16
51 -60 96 -385 230 -85 35 -158 68 -162 73 -3 5 19 35 51 65 187 182 296 655
353 1531 20 297 16 1773 -5 2220 -9 189 -15 345 -14 346 1 1 18 4 38 8 35 6
36 6 81 -66 374 -595 619 -1310 723 -2111 55 -424 64 -1003 26 -1552 -13 -176
-21 -346 -19 -377 8 -107 62 -134 246 -124 94 5 126 3 190 -14 231 -58 507
-72 654 -32 87 24 160 58 208 99 47 39 235 291 225 301 -2 2 -43 -7 -92 -21
-147 -42 -225 -51 -433 -50 -187 1 -339 14 -545 48 l-89 14 -49 -55 c-34 -37
-72 -66 -120 -90 l-70 -36 6 94 c34 489 39 598 40 908 0 483 -25 801 -99 1220
-118 670 -374 1352 -694 1849 l-48 74 38 51 c56 74 126 220 173 361 l24 70 37
-3 c30 -3 55 7 139 57 161 95 242 129 355 151 161 30 207 57 232 133 15 47 6
101 -51 297 -21 74 -45 164 -53 198 l-15 64 102 48 c56 27 237 99 402 160 605
227 935 386 1320 637 178 117 394 275 395 290 0 26 -154 316 -228 428 -260
391 -686 826 -1202 1226 -104 81 -253 191 -319 236 -2 1 18 26 43 54 26 29 54
66 62 81 l15 29 32 -21 c472 -315 1337 -71 2023 571 387 363 635 772 715 1180
20 101 15 299 -10 392 -49 184 -177 344 -341 425 -172 84 -384 111 -610 77z
m372 -170 c106 -22 227 -85 294 -152 189 -192 190 -520 3 -922 l-43 -93 -16
60 c-9 33 -24 72 -33 86 -112 171 -375 170 -546 -1 -79 -79 -113 -153 -119
-254 -4 -61 0 -90 13 -126 52 -135 204 -207 355 -169 34 9 65 14 67 12 3 -2
-62 -71 -144 -153 -367 -366 -770 -602 -1203 -704 -79 -19 -125 -23 -270 -23
-164 0 -180 1 -257 27 -93 31 -187 90 -239 150 -300 349 -37 1084 592 1652
362 327 811 558 1192 614 96 14 275 12 354 -4z m64 -1077 c57 -63 55 -141 -9
-234 -85 -126 -261 -169 -343 -83 -26 27 -29 37 -29 98 0 58 4 75 30 117 33
52 108 115 159 132 17 6 60 10 95 8 59 -2 66 -5 97 -38z m-2331 -1724 c673
-485 1237 -1067 1494 -1542 73 -135 73 -123 -11 -185 -200 -148 -513 -339
-749 -458 -229 -114 -366 -172 -804 -336 -312 -117 -527 -215 -569 -259 -15
-16 -48 -58 -73 -94 -25 -36 -56 -76 -68 -90 -13 -14 -84 -137 -159 -274 -75
-138 -136 -246 -136 -240 0 5 7 30 15 56 27 92 126 550 249 1158 243 1202 352
1632 512 2019 70 169 167 336 187 324 7 -4 57 -39 112 -79z m-850 -1441 c-15
-65 -82 -394 -151 -732 -152 -750 -183 -895 -241 -1131 -82 -337 -165 -581
-234 -696 -53 -86 -54 -84 -39 101 43 522 306 1546 620 2413 34 95 65 171 67
168 3 -2 -7 -58 -22 -123z"/>
<path d="M4330 12153 c-56 -12 -148 -63 -202 -112 -41 -38 -69 -75 -95 -129
-35 -70 -38 -83 -37 -156 0 -52 7 -94 17 -118 114 -254 508 -207 650 77 82
166 35 339 -116 417 -42 21 -160 33 -217 21z m157 -152 c51 -24 73 -63 73
-128 -1 -160 -204 -307 -344 -249 -156 65 -77 311 123 382 51 18 99 17 148 -5z"/>
<path d="M3995 11441 c-145 -28 -175 -43 -175 -87 0 -41 82 -49 147 -15 47 25
153 120 133 120 -8 -1 -55 -9 -105 -18z"/>
<path d="M4041 11237 c-69 -92 -96 -149 -81 -177 25 -47 105 -8 136 67 15 34
20 183 7 182 -5 0 -32 -32 -62 -72z"/>
<path d="M4582 11013 c14 -145 65 -216 119 -167 24 21 25 83 3 130 -13 27
-111 124 -126 124 -2 0 0 -39 4 -87z"/>
<path d="M3125 10937 c-13 -49 -3 -62 50 -68 134 -17 366 -99 474 -168 67 -43
137 -121 149 -165 11 -39 1 -93 -24 -132 -14 -20 -13 -23 15 -43 16 -12 34
-21 39 -21 18 0 56 92 60 146 14 171 -207 345 -553 434 -60 16 -131 32 -157
35 -44 7 -47 6 -53 -18z"/>
<path d="M4931 10285 c-1 -81 21 -140 64 -173 34 -27 66 -28 89 -3 31 34 12
75 -75 165 l-78 81 0 -70z"/>
<path d="M4277 10009 c-63 -121 -64 -191 -3 -191 51 0 96 65 96 139 0 34 -27
123 -41 137 -3 3 -26 -35 -52 -85z"/>
<path d="M4676 9747 c-14 -51 -19 -204 -7 -225 18 -34 57 -29 81 11 35 57 25
115 -34 192 -31 42 -34 43 -40 22z"/>
<path d="M3615 1123 c-118 -6 -504 -45 -778 -79 -477 -59 -1270 -204 -1507
-275 -128 -38 -119 -53 36 -62 57 -4 150 -5 207 -2 56 3 158 7 227 9 l125 5
-37 -19 c-54 -29 -59 -44 -12 -36 125 20 1152 128 1379 145 149 12 289 23 313
27 26 3 42 1 42 -5 0 -6 -6 -11 -14 -11 -23 0 -380 -118 -566 -187 -227 -85
-330 -136 -330 -165 0 -37 265 -38 720 -3 478 36 469 36 435 26 -16 -5 -115
-26 -218 -46 -204 -39 -337 -76 -357 -100 -23 -27 17 -29 174 -7 83 12 228 26
321 32 169 11 421 34 545 50 54 7 48 8 -34 3 l-99 -5 6 38 c3 22 13 68 20 104
10 44 11 67 4 71 -5 4 39 11 99 15 60 4 98 10 84 12 -28 5 -166 -7 -587 -49
-161 -16 -320 -29 -355 -29 -57 0 -61 1 -42 14 12 8 203 76 425 151 222 75
442 149 489 165 47 15 110 33 140 38 l55 10 -60 -5 c-33 -3 -91 -17 -129 -29
-80 -28 -86 -29 -64 -11 15 11 38 74 38 104 0 7 -20 13 -52 16 -29 2 15 5 97
6 83 2 179 6 215 10 93 10 -370 2 -589 -10 -325 -17 -717 -61 -1196 -134 -157
-24 -702 -71 -726 -63 -7 2 52 12 132 22 79 9 257 32 394 50 138 19 297 39
355 45 472 53 985 142 935 162 -19 7 -136 8 -260 2z m582 -89 c-3 -3 -12 -4
-19 -1 -8 3 -5 6 6 6 11 1 17 -2 13 -5z m43 -138 c0 -2 -7 -7 -16 -10 -8 -3
-12 -2 -9 4 6 10 25 14 25 6z m-2203 -62 c-3 -3 -12 -4 -19 -1 -8 3 -5 6 6 6
11 1 17 -2 13 -5z m2146 -211 c-13 -2 -33 -2 -45 0 -13 2 -3 4 22 4 25 0 35
-2 23 -4z m-30 -210 c-7 -2 -21 -2 -30 0 -10 3 -4 5 12 5 17 0 24 -2 18 -5z
m-96 -9 c-3 -3 -12 -4 -19 -1 -8 3 -5 6 6 6 11 1 17 -2 13 -5z"/>
<path d="M4688 1063 c12 -2 32 -2 45 0 12 2 2 4 -23 4 -25 0 -35 -2 -22 -4z"/>
<path d="M4768 1003 c7 -3 16 -2 19 1 4 3 -2 6 -13 5 -11 0 -14 -3 -6 -6z"/>
<path d="M4718 993 c7 -3 16 -2 19 1 4 3 -2 6 -13 5 -11 0 -14 -3 -6 -6z"/>
<path d="M4653 983 c9 -2 23 -2 30 0 6 3 -1 5 -18 5 -16 0 -22 -2 -12 -5z"/>
<path d="M4598 973 c6 -2 18 -2 25 0 6 3 1 5 -13 5 -14 0 -19 -2 -12 -5z"/>
<path d="M4543 963 c9 -2 23 -2 30 0 6 3 -1 5 -18 5 -16 0 -22 -2 -12 -5z"/>
<path d="M4773 683 c9 -2 25 -2 35 0 9 3 1 5 -18 5 -19 0 -27 -2 -17 -5z"/>
<path d="M4567 673 c18 -2 50 -2 70 0 21 2 7 4 -32 4 -38 0 -55 -2 -38 -4z"/>
<path d="M4453 663 c15 -2 37 -2 50 0 12 2 0 4 -28 4 -27 0 -38 -2 -22 -4z"/>
<path d="M4403 433 c9 -2 25 -2 35 0 9 3 1 5 -18 5 -19 0 -27 -2 -17 -5z"/>
<path d="M4317 365 c-127 -51 -181 -82 -220 -123 -29 -30 -33 -70 -8 -64 7 1
10 -2 6 -8 -10 -16 72 -48 169 -65 49 -8 98 -15 110 -14 11 1 -24 9 -79 19
-105 19 -163 36 -180 53 -7 7 -6 8 1 4 7 -4 16 10 23 38 14 54 14 58 1 50 -5
-3 -10 -4 -10 -1 0 14 93 62 204 107 67 27 114 49 106 48 -8 0 -64 -20 -123
-44z m-197 -119 c0 -2 -8 -10 -17 -17 -16 -13 -17 -12 -4 4 13 16 21 21 21 13z"/>
<path d="M4443 83 c20 -2 54 -2 75 0 20 2 3 4 -38 4 -41 0 -58 -2 -37 -4z"/>
<path d="M4633 73 c9 -2 25 -2 35 0 9 3 1 5 -18 5 -19 0 -27 -2 -17 -5z"/>
</g>
</svg>
