<svg xmlns="http://www.w3.org/2000/svg" width="853.333" height="1706.667" preserveAspectRatio="xMidYMid meet" version="1.0" viewBox="0 0 640 1280"><metadata>Created by potrace 1.15, written by Peter Selinger 2001-2017</metadata><g fill="#000" stroke="none"><path d="M2465 12790 c-250 -50 -479 -291 -623 -655 -180 -454 -221 -1058 -106 -1575 30 -136 85 -309 125 -399 16 -35 29 -65 29 -66 0 -1 -21 -15 -46 -31 -86 -55 -107 -129 -56 -200 34 -46 117 -104 347 -243 94 -56 181 -110 195 -121 l25 -19 -52 -153 c-104 -303 -164 -582 -226 -1043 l-14 -100 -16 38 c-56 130 -124 349 -159 511 -32 148 -31 368 0 448 51 128 152 170 322 133 36 -7 65 -13 66 -12 5 7 32 112 30 114 -14 14 -164 34 -228 31 -317 -18 -417 -338 -273 -883 47 -180 133 -412 207 -559 l30 -59 -11 -131 c-31 -380 -35 -500 -36 -1071 0 -400 4 -658 13 -775 12 -164 44 -458 58 -542 6 -36 5 -38 -20 -38 -32 0 -31 35 -11 -402 77 -1725 21 -2863 -164 -3359 -29 -76 -72 -141 -116 -175 -62 -47 -75 -63 -75 -87 0 -44 -62 -82 -245 -152 -115 -44 -142 -59 -150 -86 -12 -36 6 -59 93 -118 48 -33 127 -97 175 -142 l89 -82 -92 -33 c-215 -77 -187 -101 107 -91 169 5 173 5 151 -13 -13 -10 -20 -21 -17 -24 3 -4 168 21 365 53 277 46 674 101 730 101 4 0 -61 -33 -143 -74 -215 -106 -325 -170 -380 -221 -47 -44 -48 -45 -28 -61 17 -14 43 -15 185 -10 91 3 218 12 283 20 65 8 144 17 175 20 56 6 55 6 -28 -18 -167 -48 -270 -94 -270 -122 0 -22 13 -23 95 -4 44 10 134 23 200 29 66 7 192 23 279 37 88 13 162 24 165 24 2 0 -34 -22 -80 -50 -192 -114 -210 -209 -50 -254 33 -9 243 -33 490 -56 l431 -39 192 79 c106 43 186 81 178 83 -8 3 -80 10 -160 17 -215 17 -619 58 -696 70 -72 12 -134 34 -134 48 0 28 122 87 284 136 48 15 86 29 84 32 -3 2 -27 -3 -54 -11 -67 -20 -72 -19 -32 8 23 16 93 37 225 66 106 23 209 48 230 55 l38 14 -30 12 c-16 6 -45 14 -62 17 -18 3 -30 9 -27 14 3 5 4 9 2 10 -2 1 -111 3 -243 5 -323 6 -527 -11 -1020 -86 -107 -17 -199 -30 -205 -30 -39 0 27 39 293 172 313 158 370 180 597 229 90 20 164 54 154 71 -8 12 -94 9 -249 -8 -77 -8 -183 -15 -236 -14 -193 1 -586 -54 -893 -125 -135 -31 -473 -81 -496 -73 -6 2 95 23 223 47 474 89 681 132 765 157 48 15 129 30 182 35 144 11 204 36 298 122 31 29 74 65 94 80 20 16 43 39 52 52 l15 23 -147 -1 c-237 -3 -446 46 -839 193 l-63 24 -27 -26 c-33 -32 -122 -74 -177 -84 -36 -6 -38 -6 -31 16 29 90 115 401 160 575 284 1103 294 2093 32 2989 l-35 118 28 62 c63 136 85 353 76 751 -6 269 -18 474 -67 1118 -12 163 -20 299 -18 302 3 2 27 -7 54 -20 116 -59 225 -14 279 117 104 248 41 979 -167 1949 l-23 107 81 6 c455 38 1248 361 1849 753 265 173 477 365 537 488 33 67 34 74 34 185 0 82 -6 133 -19 180 -115 396 -547 701 -1303 920 -40 11 -75 25 -78 29 -3 5 -47 29 -97 54 -122 59 -205 136 -329 303 -54 72 -110 141 -125 153 -34 27 -68 27 -95 0 l-21 -21 -62 60 c-159 155 -340 218 -521 182z m253 -221 c74 -36 176 -128 237 -214 62 -87 149 -264 189 -385 35 -108 87 -320 79 -320 -3 0 -21 14 -41 31 -50 44 -97 61 -168 62 -140 2 -259 -106 -282 -256 -32 -204 113 -389 295 -375 93 7 160 48 226 138 17 24 18 21 12 -135 -10 -284 -44 -498 -111 -707 -25 -77 -41 -111 -56 -119 -42 -22 -154 -4 -333 55 -93 31 -199 61 -233 67 -72 13 -150 5 -196 -18 -28 -15 -31 -14 -41 2 -28 48 -48 65 -75 65 -34 0 -35 -1 -106 -132 -31 -60 -61 -108 -64 -108 -22 0 -113 296 -144 465 -44 239 -54 601 -22 835 57 421 197 763 388 946 151 144 295 178 446 103z m952 -633 c544 -138 979 -363 1175 -609 106 -132 148 -246 149 -397 1 -87 -1 -99 -28 -145 -16 -27 -65 -86 -110 -130 -354 -351 -1204 -798 -1848 -970 -117 -31 -120 -31 -72 4 89 63 214 230 292 386 193 389 271 942 206 1467 -13 104 -34 222 -50 283 -4 15 -3 16 4 6 7 -10 17 2 37 48 29 65 55 91 90 91 11 0 81 -15 155 -34z m-607 -330 c95 -39 134 -171 82 -279 -27 -57 -69 -82 -138 -82 -56 0 -60 2 -97 41 -64 69 -75 156 -30 244 39 76 112 106 183 76z m-324 -1337 c126 -41 209 -62 259 -66 39 -3 72 -8 72 -10 0 -2 -12 -27 -26 -56 -99 -194 -238 -337 -373 -382 -38 -12 -63 -14 -107 -8 -56 8 -59 10 -68 43 -5 19 -44 142 -87 273 -75 233 -76 238 -56 249 77 41 152 32 386 -43z m-161 -1204 c58 -309 92 -517 124 -760 31 -236 33 -676 4 -773 -24 -79 -49 -112 -85 -112 -30 0 -101 43 -143 87 -26 28 -27 29 -44 298 -21 329 -24 937 -6 1103 23 206 75 453 92 435 4 -4 30 -129 58 -278z m-341 -1207 c-2 -13 -4 -3 -4 22 0 25 2 35 4 23 2 -13 2 -33 0 -45z m18 -282 c4 -20 14 -145 70 -916 36 -497 48 -784 42 -980 -9 -278 -26 -360 -73 -360 -15 0 -43 144 -64 325 -28 242 -41 497 -47 895 -5 399 5 866 24 1040 l6 63 19 -23 c10 -12 20 -32 23 -44z m-13 -2552 c21 -11 44 -14 70 -10 47 8 43 16 103 -219 155 -613 181 -1315 74 -2025 -46 -306 -135 -700 -243 -1070 -58 -202 -86 -312 -86 -343 0 -64 74 -106 220 -127 52 -8 106 -25 175 -57 55 -26 148 -63 207 -83 l107 -37 -157 -22 c-217 -32 -442 -75 -601 -117 -73 -19 -135 -33 -138 -31 -14 15 109 67 229 97 95 24 128 42 128 70 0 42 -63 77 -348 196 -86 36 -161 69 -166 74 -5 5 13 31 42 59 169 173 265 604 314 1426 24 397 12 1850 -18 2235 l-6 75 32 -38 c17 -20 46 -45 62 -53z" transform="translate(0.000000,1280.000000) scale(0.100000,-0.100000)"/><path d="M2244 11736 c-221 -55 -296 -374 -127 -543 52 -52 105 -76 180 -81 180 -12 324 170 292 372 -29 179 -183 292 -345 252z m150 -150 c90 -69 99 -211 17 -298 -32 -35 -45 -41 -87 -45 -68 -6 -111 19 -146 87 -90 171 73 365 216 256z" transform="translate(0.000000,1280.000000) scale(0.100000,-0.100000)"/></g></svg>