<?xml version="1.0" standalone="no"?>
<!DOCTYPE svg PUBLIC "-//W3C//DTD SVG 20010904//EN"
 "http://www.w3.org/TR/2001/REC-SVG-20010904/DTD/svg10.dtd">
<svg version="1.0" xmlns="http://www.w3.org/2000/svg"
 width="688.000000pt" height="1280.000000pt" viewBox="0 0 688.000000 1280.000000"
 preserveAspectRatio="xMidYMid meet">
<metadata>
Created by potrace 1.15, written by Peter Selinger 2001-2017
</metadata>
<g transform="translate(0.000000,1280.000000) scale(0.100000,-0.100000)"
fill="#000000" stroke="none">
<path d="M610 12793 c-149 -25 -295 -115 -392 -243 -240 -315 -283 -879 -113
-1470 53 -183 98 -299 195 -495 159 -322 343 -568 563 -751 140 -117 283 -200
422 -244 82 -25 244 -37 322 -23 l52 10 15 -49 14 -50 -60 -72 c-129 -152
-339 -488 -848 -1351 -100 -170 -211 -351 -245 -401 l-62 -90 24 -47 c13 -26
28 -47 33 -47 5 0 28 13 52 29 24 16 187 103 363 193 470 242 660 351 957 550
81 54 149 98 151 98 2 0 7 -24 10 -52 3 -29 15 -123 27 -208 29 -223 54 -481
105 -1100 52 -629 59 -711 86 -955 49 -441 103 -710 173 -870 l26 -57 -25
-116 c-29 -133 -125 -508 -215 -842 -118 -434 -162 -649 -179 -880 -5 -74 -31
-537 -58 -1029 l-48 -894 -63 -29 c-75 -34 -224 -84 -417 -139 -291 -83 -416
-132 -429 -166 -9 -22 9 -48 49 -72 25 -14 35 -27 35 -45 0 -13 3 -31 6 -40 4
-11 -3 -16 -28 -21 -373 -64 -572 -108 -584 -127 -16 -26 36 -29 383 -25 352
3 361 3 322 -14 -21 -10 -39 -21 -39 -25 0 -8 22 -6 400 30 726 70 930 87
1220 106 173 11 323 22 332 24 10 2 18 1 18 -3 0 -4 -96 -33 -212 -65 -456
-126 -728 -216 -785 -262 l-27 -21 25 -14 c31 -18 340 -18 619 0 309 19 601
41 648 47 24 4 42 2 42 -3 0 -5 -44 -15 -97 -22 -231 -29 -504 -86 -567 -118
-26 -13 -27 -16 -12 -25 11 -6 72 -2 179 11 89 11 286 27 437 36 288 18 382
31 150 21 -80 -3 -122 -2 -103 3 19 5 72 46 133 102 90 84 98 95 78 100 -13 3
45 11 127 18 177 14 203 18 152 20 -39 1 -242 -14 -651 -49 -249 -22 -381 -25
-355 -10 43 25 1048 314 1169 336 l75 13 -75 -5 -75 -5 32 30 c39 36 40 39 11
43 -13 2 22 8 77 12 55 4 105 9 110 10 6 2 -113 3 -263 2 l-273 -1 49 45 c85
78 87 75 -50 72 -155 -5 -284 11 -450 53 -116 29 -383 116 -395 129 -3 3 7 89
21 193 90 659 122 1188 113 1873 -9 611 -51 1112 -138 1625 -19 110 -19 132
-9 264 49 606 -200 2171 -496 3117 -26 82 -48 156 -51 164 -2 9 12 27 32 43
l35 28 77 -83 c266 -289 567 -564 886 -806 l136 -104 108 26 c59 14 320 64
578 111 729 133 1154 217 1560 310 251 58 380 85 431 91 34 4 106 35 234 101
439 225 528 291 457 338 -18 12 -57 14 -202 13 -167 -2 -185 -1 -250 22 -42
14 -94 24 -131 24 -93 1 -135 -30 -261 -194 -57 -74 -131 -163 -164 -196 l-61
-61 -236 -52 c-360 -80 -823 -171 -1402 -276 -289 -53 -549 -102 -579 -110
l-54 -14 -126 96 c-227 174 -423 345 -611 533 -102 102 -207 211 -234 243
l-49 58 69 70 c65 67 190 169 207 169 4 0 7 -7 7 -15 0 -9 6 -18 14 -21 8 -3
30 -45 51 -93 38 -92 60 -114 122 -124 64 -10 113 48 113 136 0 15 -23 104
-52 197 -50 167 -51 171 -38 224 13 56 8 81 -16 72 -19 -7 -19 -7 31 117 86
217 90 298 16 305 -24 3 -47 -5 -82 -27 -27 -17 -56 -28 -64 -25 -8 4 -21 1
-29 -5 -11 -9 -17 1 -31 53 l-18 65 33 38 c111 126 94 281 -39 356 -45 26 -68
31 -136 35 -130 7 -236 -31 -327 -116 -103 -96 -133 -222 -75 -310 35 -54 94
-91 169 -106 l60 -12 49 -118 c42 -103 46 -118 31 -122 -50 -15 -61 -33 -37
-58 15 -15 14 -18 -17 -43 -69 -57 -161 -149 -174 -175 -23 -45 -16 -84 27
-164 34 -61 42 -87 46 -142 l4 -67 -145 150 c-128 131 -152 162 -192 240 -26
50 -63 119 -84 155 -46 79 -114 238 -131 303 l-12 48 65 62 c172 166 264 400
288 733 46 648 -251 1450 -715 1933 -178 185 -330 291 -519 361 -110 42 -258
59 -356 43z m230 -169 c154 -35 343 -155 510 -322 93 -93 95 -95 70 -104 -85
-34 -105 -46 -140 -86 -55 -62 -73 -124 -68 -228 4 -70 10 -94 41 -157 85
-172 255 -261 408 -215 45 13 115 69 124 98 4 11 10 20 14 20 16 0 120 -279
161 -435 34 -125 63 -266 56 -272 -2 -2 -33 -10 -68 -18 -214 -45 -477 -232
-557 -396 -41 -83 -50 -160 -24 -209 65 -124 365 -194 577 -134 27 8 51 14 53
14 1 0 -8 -30 -22 -66 -66 -176 -158 -290 -283 -352 -76 -37 -76 -37 -202 -37
-117 1 -130 3 -206 33 -407 162 -795 656 -995 1265 -92 280 -124 474 -123 752
0 220 9 292 56 435 52 163 152 306 255 366 104 62 234 79 363 48z m707 -581
c24 -11 50 -42 93 -111 52 -83 60 -103 60 -144 0 -65 -22 -113 -62 -138 -59
-36 -132 -19 -201 48 -95 92 -124 246 -61 322 42 49 98 57 171 23z m480 -1349
c19 -104 21 -281 4 -323 -18 -42 -94 -79 -188 -93 -94 -14 -235 6 -311 44 -44
22 -47 25 -45 60 8 135 232 325 458 389 33 9 61 15 63 14 1 -1 10 -42 19 -91z
m-217 -1465 c80 -158 139 -341 191 -592 25 -119 28 -151 19 -163 -34 -40 -446
-303 -683 -436 -183 -102 -607 -322 -607 -315 0 6 482 824 605 1027 117 194
301 471 360 543 l47 58 19 -30 c10 -17 33 -58 49 -92z m487 -542 c-7 -21 -25
-17 -31 7 -3 13 -9 32 -12 43 -4 12 2 9 21 -11 14 -15 24 -33 22 -39z m68
-1033 c134 -574 238 -1191 291 -1739 18 -181 30 -608 20 -689 -9 -68 -16 -63
-58 44 -86 219 -134 578 -223 1640 -54 656 -70 827 -81 905 -13 88 8 18 51
-161z m239 -2693 c11 -17 90 -32 123 -22 39 11 33 30 72 -254 75 -542 95 -866
95 -1500 0 -645 -25 -1030 -105 -1632 -16 -122 -29 -226 -29 -232 0 -30 -88
-80 -180 -101 -63 -14 -80 -25 -80 -50 0 -23 21 -41 114 -93 l79 -45 -54 -6
c-30 -3 -164 -17 -299 -31 -135 -14 -258 -27 -273 -30 l-28 -5 19 28 c36 51
44 94 27 145 -13 39 -14 72 -5 239 37 688 92 1688 100 1823 18 285 54 457 233
1120 52 193 109 413 126 490 18 77 34 146 37 153 4 14 20 16 28 3z m1116
-3985 c0 -2 -8 -10 -17 -17 -16 -13 -17 -12 -4 4 13 16 21 21 21 13z m-842
-34 c7 -5 -40 -14 -110 -21 -68 -7 -247 -28 -398 -47 -248 -32 -774 -75 -875
-72 -70 1 63 16 250 27 94 6 190 16 215 24 25 8 126 22 225 32 99 10 270 28
380 40 220 25 294 29 313 17z m-1435 -149 c-7 -2 -21 -2 -30 0 -10 3 -4 5 12
5 17 0 24 -2 18 -5z"/>
<path d="M846 11770 c-80 -32 -140 -102 -160 -184 -13 -55 -7 -160 13 -217 59
-171 199 -283 352 -281 211 3 316 238 209 469 -80 172 -271 271 -414 213z
m173 -139 c111 -57 182 -228 138 -333 -19 -45 -69 -78 -117 -78 -109 0 -230
146 -230 277 0 126 99 190 209 134z"/>
<path d="M6214 12609 c-20 -22 -26 13 61 -359 46 -194 79 -354 89 -431 l7 -46
-78 -6 c-133 -9 -223 -50 -249 -114 -30 -71 37 -141 144 -150 106 -10 184 30
237 122 53 89 45 148 -65 539 -38 133 -75 269 -84 303 -9 34 -19 70 -22 80 -3
10 22 -11 55 -47 50 -53 63 -62 71 -50 20 31 11 65 -22 84 -18 10 -54 36 -79
57 -46 38 -47 38 -65 18z"/>
<path d="M5625 12304 c-20 -15 -20 -16 13 -137 67 -252 130 -504 135 -548 l6
-46 -94 -5 c-78 -4 -104 -10 -152 -34 -31 -16 -66 -41 -77 -56 -19 -26 -19
-30 -4 -61 21 -43 75 -70 155 -75 99 -7 169 25 223 100 59 81 53 122 -79 531
-108 332 -105 315 -29 239 59 -60 63 -62 69 -40 12 41 10 46 -43 76 -29 16
-62 39 -72 51 -22 25 -25 25 -51 5z"/>
<path d="M4944 11907 c-20 -10 -19 -15 48 -221 58 -175 108 -351 108 -377 0
-3 -44 -9 -97 -12 -114 -6 -205 -35 -230 -73 -15 -24 -15 -27 4 -52 44 -59
176 -79 276 -42 76 28 137 97 137 153 0 32 -50 174 -140 402 -38 98 -69 180
-66 182 2 2 23 -12 46 -32 67 -56 78 -60 86 -30 8 31 11 27 -46 53 -25 11 -58
29 -75 40 -23 14 -35 16 -51 9z"/>
<path d="M4297 11632 c-43 -22 -65 -25 -250 -35 -111 -5 -204 -11 -205 -13 -2
-1 30 -103 72 -226 42 -123 78 -242 82 -265 l7 -43 -34 0 c-96 0 -219 -67
-219 -119 0 -35 52 -81 92 -81 54 0 138 48 173 98 28 40 30 51 29 125 0 73 -6
96 -48 210 -27 70 -47 129 -45 131 2 2 65 8 139 14 75 6 164 20 198 31 34 10
64 16 66 12 6 -9 96 -318 96 -328 0 -5 -30 -15 -66 -22 -37 -6 -88 -23 -114
-36 -50 -25 -100 -76 -100 -101 0 -23 18 -52 40 -64 46 -24 219 44 265 104 44
58 43 68 -40 361 -43 151 -80 274 -84 274 -3 -1 -27 -13 -54 -27z m42 -81 c9
-16 6 -21 -17 -30 -15 -6 -47 -15 -72 -20 -50 -11 -319 -35 -324 -30 -2 2 -6
13 -10 25 -6 19 -2 22 40 28 26 3 88 6 138 7 55 0 117 8 156 18 36 10 68 19
72 20 4 0 12 -7 17 -18z"/>
<path d="M3420 11505 c-43 -23 -139 -27 -304 -11 -88 9 -162 14 -164 11 -5 -5
1 -29 60 -235 25 -85 48 -171 51 -191 l5 -36 -69 -6 c-68 -6 -150 -34 -164
-56 -14 -23 5 -59 39 -75 78 -37 196 -9 237 57 30 48 20 106 -55 315 -36 101
-66 187 -66 191 0 5 53 -1 118 -11 74 -12 154 -18 217 -16 l99 3 42 -186 c23
-103 44 -198 47 -212 7 -24 6 -24 -76 -29 -88 -6 -143 -24 -176 -57 -26 -26
-27 -45 -1 -71 33 -33 122 -28 200 13 113 57 111 45 51 329 -66 309 -60 290
-91 273z"/>
<path d="M4308 1003 c18 -2 45 -2 60 0 15 2 0 4 -33 4 -33 0 -45 -2 -27 -4z"/>
<path d="M4398 943 c7 -3 16 -2 19 1 4 3 -2 6 -13 5 -11 0 -14 -3 -6 -6z"/>
<path d="M4338 933 c6 -2 18 -2 25 0 6 3 1 5 -13 5 -14 0 -19 -2 -12 -5z"/>
<path d="M4263 923 c9 -2 25 -2 35 0 9 3 1 5 -18 5 -19 0 -27 -2 -17 -5z"/>
<path d="M4203 913 c9 -2 23 -2 30 0 6 3 -1 5 -18 5 -16 0 -22 -2 -12 -5z"/>
<path d="M4043 623 c9 -2 25 -2 35 0 9 3 1 5 -18 5 -19 0 -27 -2 -17 -5z"/>
<path d="M3878 393 c7 -3 16 -2 19 1 4 3 -2 6 -13 5 -11 0 -14 -3 -6 -6z"/>
<path d="M3743 383 c9 -2 25 -2 35 0 9 3 1 5 -18 5 -19 0 -27 -2 -17 -5z"/>
<path d="M3694 218 l-19 -23 23 19 c12 11 22 21 22 23 0 8 -8 2 -26 -19z"/>
</g>
</svg>
