<?xml version="1.0" standalone="no"?>
<!DOCTYPE svg PUBLIC "-//W3C//DTD SVG 20010904//EN"
 "http://www.w3.org/TR/2001/REC-SVG-20010904/DTD/svg10.dtd">
<svg version="1.0" xmlns="http://www.w3.org/2000/svg"
 width="1280.000000pt" height="640.000000pt" viewBox="0 0 1280.000000 640.000000"
 preserveAspectRatio="xMidYMid meet">
<metadata>
Created by potrace 1.15, written by Peter Selinger 2001-2017
</metadata>
<g transform="translate(0.000000,640.000000) scale(0.100000,-0.100000)"
fill="#000000" stroke="none">
<path d="M1693 5395 c-68 -48 -124 -233 -177 -585 -54 -355 -106 -947 -106
-1202 l0 -138 -82 0 c-190 -1 -466 -51 -660 -120 -412 -147 -659 -405 -662
-690 -2 -303 284 -584 742 -726 105 -33 118 -39 99 -49 -37 -18 -31 -46 24
-125 105 -149 221 -240 307 -240 22 0 59 11 86 25 26 14 57 25 69 25 39 0 139
30 206 61 78 36 191 112 285 191 39 32 77 58 86 58 31 0 216 52 300 85 282
108 469 251 570 436 18 33 31 48 34 39 83 -258 82 -256 242 -352 222 -131 427
-226 674 -310 143 -49 425 -121 567 -145 l108 -18 -745 -6 c-528 -5 -873 -13
-1185 -28 -1571 -75 -2291 -133 -2444 -197 -168 -70 500 -138 1969 -199 195
-8 400 -15 455 -15 55 0 111 -3 124 -7 15 -4 -192 -38 -515 -84 -296 -43 -550
-80 -564 -83 -14 -2 724 -3 1640 -1 1531 3 2477 14 2935 34 l180 8 -137 1
-138 2 0 69 c0 58 -3 70 -17 75 -10 3 59 3 152 1 94 -2 166 -2 160 0 -9 3
-317 21 -780 45 -319 16 -1561 64 -1845 71 -37 1 -41 2 -20 9 24 8 24 8 3 9
-13 1 -40 -5 -60 -13 -21 -8 -107 -24 -192 -36 -125 -18 -174 -20 -260 -14
l-106 8 189 17 c105 10 199 20 210 21 37 6 -1122 37 -1391 38 -101 0 -183 4
-183 8 0 5 255 12 568 16 312 5 707 11 877 15 171 4 311 4 313 0 2 -3 105 -5
230 -3 138 2 217 0 202 -5 -14 -5 -43 -10 -65 -11 -22 -1 -34 -4 -28 -7 7 -2
91 3 188 11 96 9 324 21 507 26 368 12 738 32 983 55 88 8 266 16 395 17 l235
2 -230 6 c-126 3 -186 7 -132 8 l97 2 0 89 0 88 147 23 c81 13 143 25 137 27
-6 2 -69 -5 -140 -17 -583 -92 -867 -130 -851 -114 3 3 69 14 148 24 528 71
922 231 1150 467 41 43 83 89 91 102 l17 23 29 -21 29 -21 114 175 c113 173
114 174 169 196 904 353 1560 513 2196 536 l181 6 25 -34 c14 -19 98 -135 188
-259 210 -290 423 -569 569 -743 110 -132 116 -138 145 -131 17 3 47 14 66 24
19 9 71 27 115 39 44 12 150 53 235 91 85 38 208 89 272 113 133 50 196 86
309 175 61 48 79 68 79 87 0 32 -14 32 -139 0 -128 -32 -222 -40 -294 -25 -56
11 -58 11 -111 -20 l-55 -31 -36 32 c-31 27 -38 30 -49 18 -7 -8 -57 -65 -112
-128 -54 -62 -117 -126 -140 -142 -23 -16 -63 -49 -88 -75 -26 -26 -48 -45
-50 -43 -1 2 -39 47 -83 99 -120 143 -303 382 -512 668 -103 141 -191 263
-195 270 -9 15 41 13 264 -9 547 -54 1155 -225 1825 -514 61 -26 124 -54 142
-61 30 -13 31 -14 22 -55 -12 -50 5 -76 40 -64 62 19 305 233 400 350 107 133
171 298 155 395 -6 38 -70 234 -84 259 -9 17 -11 14 -51 -98 -26 -76 -90 -185
-173 -295 -106 -141 -151 -186 -187 -186 -27 0 -29 -2 -23 -26 6 -21 -1 -34
-41 -74 -40 -40 -47 -53 -41 -74 3 -14 4 -26 2 -26 -2 0 -42 16 -88 36 -791
342 -1486 524 -2100 551 l-147 6 -43 61 c-102 146 -408 548 -509 669 -278 333
-341 383 -474 381 -143 -3 -300 -97 -505 -304 -231 -231 -446 -514 -802 -1052
l-223 -337 -63 -25 c-73 -30 -72 -30 -72 -12 0 40 -86 60 -128 30 -230 -161
-1592 -185 -2687 -48 -192 24 -609 97 -623 110 -2 1 34 60 81 131 301 454 471
887 539 1368 7 50 12 188 13 307 0 241 -3 251 -65 251 -65 0 -145 -104 -538
-707 -326 -500 -532 -806 -542 -806 -4 0 -15 21 -25 48 -31 81 -299 717 -393
932 -129 293 -173 390 -327 710 -75 157 -155 327 -178 379 -51 116 -90 161
-138 161 -19 0 -44 -7 -56 -15z m110 -210 c25 -55 102 -219 172 -365 229 -478
407 -883 681 -1548 80 -195 83 -204 68 -228 -9 -13 -19 -24 -21 -24 -3 0 -35
28 -71 62 -220 205 -588 344 -1002 379 -74 6 -141 13 -147 15 -19 5 -16 22 5
29 17 5 20 22 25 173 23 567 105 1240 184 1502 29 99 42 125 53 114 5 -5 28
-54 53 -109z m2047 -919 c-39 -456 -189 -890 -458 -1326 -50 -81 -157 -242
-178 -268 -12 -15 -215 89 -247 127 -13 15 -107 239 -107 254 0 4 69 109 154
235 85 125 274 412 421 637 147 226 301 457 344 515 l76 105 3 -75 c2 -41 -2
-133 -8 -204z m4677 -123 c74 -52 274 -283 500 -578 145 -191 293 -392 293
-400 0 -3 -35 -5 -78 -5 -305 0 -787 -76 -1220 -191 -197 -53 -599 -184 -817
-267 -71 -28 -132 -48 -134 -47 -9 9 361 555 523 770 218 291 457 550 599 650
140 98 256 121 334 68z m-6782 -827 c184 -30 392 -86 407 -109 14 -23 18 -100
8 -159 -14 -78 -50 -145 -112 -211 l-48 -51 22 -23 22 -23 52 51 c90 89 134
192 134 317 0 39 2 72 5 72 3 0 34 -14 68 -31 93 -47 198 -123 261 -189 l57
-59 -102 -138 c-192 -260 -363 -466 -565 -681 l-69 -73 -85 -15 c-306 -54
-694 -30 -995 61 -303 91 -523 242 -620 425 -39 73 -40 78 -40 175 0 94 2 105
33 168 62 126 195 245 369 331 87 44 292 120 300 112 2 -2 -9 -13 -26 -25 -43
-31 -81 -114 -81 -175 1 -133 100 -224 257 -234 140 -9 278 60 324 163 37 80
17 186 -47 249 -32 31 -94 66 -119 66 -8 0 -15 4 -15 10 0 23 460 20 605 -4z
m-590 -126 c162 -78 32 -270 -166 -247 -111 13 -167 93 -125 176 41 78 198
116 291 71z m1635 -250 c0 -5 -5 -10 -11 -10 -5 0 -7 5 -4 10 3 6 8 10 11 10
2 0 4 -4 4 -10z m-85 -290 c0 -83 -3 -102 -28 -155 -76 -161 -240 -298 -469
-389 -139 -56 -139 -56 -84 5 129 146 320 381 429 527 l121 163 15 -28 c11
-20 16 -56 16 -123z m322 -80 c40 -19 73 -38 73 -42 0 -3 -23 -34 -52 -68
l-52 -62 -21 75 c-28 97 -37 140 -27 135 4 -2 40 -19 79 -38z m593 -159 c417
-72 859 -112 1467 -133 598 -20 1215 16 1446 86 26 8 47 10 47 5 0 -29 -60
-119 -122 -185 -193 -203 -528 -342 -1003 -416 -167 -26 -604 -36 -792 -19
-572 53 -1101 221 -1543 489 -41 25 -76 47 -78 48 -2 1 35 49 83 107 l86 104
117 -28 c64 -16 196 -42 292 -58z m3170 12 c0 -5 -10 -19 -21 -33 l-20 -25 7
25 c7 27 34 53 34 33z m-5163 -624 l-57 -40 -75 25 c-41 14 -91 29 -112 33
-37 8 -5 11 251 21 l49 2 -56 -41z m4336 -156 c-7 -2 -21 -2 -30 0 -10 3 -4 5
12 5 17 0 24 -2 18 -5z m-70 -10 c-7 -2 -21 -2 -30 0 -10 3 -4 5 12 5 17 0 24
-2 18 -5z m-930 -70 c-13 -2 -33 -2 -45 0 -13 2 -3 4 22 4 25 0 35 -2 23 -4z
m115 0 c-16 -2 -40 -2 -55 0 -16 2 -3 4 27 4 30 0 43 -2 28 -4z m845 -370
c-13 -2 -33 -2 -45 0 -13 2 -3 4 22 4 25 0 35 -2 23 -4z"/>
<path d="M6738 1783 c7 -3 16 -2 19 1 4 3 -2 6 -13 5 -11 0 -14 -3 -6 -6z"/>
<path d="M6608 1763 c7 -3 16 -2 19 1 4 3 -2 6 -13 5 -11 0 -14 -3 -6 -6z"/>
<path d="M6548 1753 c6 -2 18 -2 25 0 6 3 1 5 -13 5 -14 0 -19 -2 -12 -5z"/>
<path d="M6488 1743 c6 -2 18 -2 25 0 6 3 1 5 -13 5 -14 0 -19 -2 -12 -5z"/>
<path d="M6423 1733 c9 -2 23 -2 30 0 6 3 -1 5 -18 5 -16 0 -22 -2 -12 -5z"/>
<path d="M6358 1723 c6 -2 18 -2 25 0 6 3 1 5 -13 5 -14 0 -19 -2 -12 -5z"/>
<path d="M6293 1713 c9 -2 25 -2 35 0 9 3 1 5 -18 5 -19 0 -27 -2 -17 -5z"/>
<path d="M6303 1453 c26 -2 67 -2 90 0 23 2 2 3 -48 3 -49 0 -68 -1 -42 -3z"/>
<path d="M6503 1443 c15 -2 39 -2 55 0 15 2 2 4 -28 4 -30 0 -43 -2 -27 -4z"/>
<path d="M6633 1433 c9 -2 25 -2 35 0 9 3 1 5 -18 5 -19 0 -27 -2 -17 -5z"/>
<path d="M6808 1413 c7 -3 16 -2 19 1 4 3 -2 6 -13 5 -11 0 -14 -3 -6 -6z"/>
<path d="M3883 1343 c9 -2 23 -2 30 0 6 3 -1 5 -18 5 -16 0 -22 -2 -12 -5z"/>
<path d="M6333 1173 c26 -2 67 -2 90 0 23 2 2 3 -48 3 -49 0 -68 -1 -42 -3z"/>
<path d="M6498 1163 c12 -2 30 -2 40 0 9 3 -1 5 -23 4 -22 0 -30 -2 -17 -4z"/>
<path d="M6603 1153 c9 -2 23 -2 30 0 6 3 -1 5 -18 5 -16 0 -22 -2 -12 -5z"/>
<path d="M6738 1143 c6 -2 18 -2 25 0 6 3 1 5 -13 5 -14 0 -19 -2 -12 -5z"/>
<path d="M7218 1103 c7 -3 16 -2 19 1 4 3 -2 6 -13 5 -11 0 -14 -3 -6 -6z"/>
<path d="M7038 1093 c7 -3 16 -2 19 1 4 3 -2 6 -13 5 -11 0 -14 -3 -6 -6z"/>
<path d="M6768 1063 c7 -3 16 -2 19 1 4 3 -2 6 -13 5 -11 0 -14 -3 -6 -6z"/>
<path d="M6623 1053 c15 -2 37 -2 50 0 12 2 0 4 -28 4 -27 0 -38 -2 -22 -4z"/>
<path d="M6322 1043 c37 -2 100 -2 140 0 40 1 10 3 -67 3 -77 0 -110 -1 -73
-3z"/>
</g>
</svg>
